<?xml version="1.0" standalone="no"?>
<!DOCTYPE svg PUBLIC "-//W3C//DTD SVG 1.1//EN" "http://www.w3.org/Graphics/SVG/1.1/DTD/svg11.dtd" >
<svg>
<metadata>
Created by FontForge 20090622 at Wed May  6 16:09:46 2020
 By deploy user
Copyright 2016 Google Inc. All Rights Reserved.
</metadata>
<defs>
<font id="NotoSansKhmer-Regular" horiz-adv-x="0" >
  <font-face 
    font-family="Noto Sans Khmer"
    font-weight="400"
    font-stretch="normal"
    units-per-em="1000"
    panose-1="2 11 5 2 4 5 4 2 2 4"
    ascent="800"
    descent="-200"
    bbox="-987 -691 1834 1155"
    underline-thickness="50"
    underline-position="-75"
    unicode-range="U+000D-U+25CC"
  />
<missing-glyph horiz-adv-x="634" 
d="M96 0v714h442v-714h-442zM188 67h258v580h-258v-580z" />
    <glyph glyph-name="uni178017B6" unicode="&#x1780;&#x17b6;" horiz-adv-x="924" 
d="M98 519v67h440v-67h-440zM98 0v293q0 79 55.5 118.5t164.5 39.5q110 0 165 -39.5t55 -118.5v-293h-92v293q0 45 -31.5 68t-96.5 23q-64 0 -96 -23t-32 -68v-293h-92zM734 0v458q0 35 -15.5 48t-62.5 13h-138v67h184q51 0 77.5 -14.5t36.5 -42.5t10 -71v-458h-92z" />
    <glyph glyph-name="uni178117B6" unicode="&#x1781;&#x17b6;" horiz-adv-x="923" 
d="M317 0q-81 0 -129 21t-69 56.5t-21 80.5v128l173 25q87 13 130.5 42.5t43.5 81.5q0 40 -28.5 62t-99.5 22q-70 0 -99 -20.5t-29 -42.5q0 -18 12.5 -26.5t36.5 -8.5v-70h-42q-37 0 -67.5 22.5t-30.5 71.5q0 35 21 67.5t69 53t129 20.5q82 0 130 -20.5t69 -54t21 -73.5
q0 -54 -29 -92.5t-87 -63.5t-145 -38l-86 -13v-73q0 -45 28.5 -68t98.5 -23q71 0 99.5 23t28.5 68v76h92v-76q0 -45 -21 -80.5t-69 -56.5t-130 -21zM733 0v458q0 35 -15.5 48t-62.5 13h-138v67h184q51 0 77.5 -14.5t36.5 -42.5t10 -71v-458h-92z" />
    <glyph glyph-name="uni178217B6" unicode="&#x1782;&#x17b6;" horiz-adv-x="923" 
d="M98 519v67h439v-67h-439zM98 0v293q0 79 55 118.5t164 39.5q110 0 165 -39.5t55 -118.5v-293h-92v293q0 45 -31.5 67.5t-96.5 22.5q-64 0 -96 -22.5t-32 -67.5v-137q17 20 40 29.5t51 9.5h62v-67h-51q-50 0 -70.5 -22.5t-31.5 -63.5v-42h-91zM733 0v458q0 35 -15.5 48
t-62.5 13h-138v67h184q51 0 77.5 -14.5t36.5 -42.5t10 -71v-458h-92z" />
    <glyph glyph-name="uni178317B6" unicode="&#x1783;&#x17b6;" horiz-adv-x="1216" 
d="M98 158v328q0 12 -7.5 19.5t-23 10.5t-38.5 3v67h87q37 0 55.5 -12.5t18.5 -37.5v-378q0 -45 28.5 -68t86.5 -23t87 23t29 68v214h92v-214q0 -45 28 -68t84 -23q57 0 85 23t28 68v221h92v-221q0 -79 -51 -118.5t-154 -39.5q-53 0 -92.5 12t-65.5 36q-52 -48 -162 -48
q-103 0 -155 39.5t-52 118.5zM738 361v33l-46 57t-19 26t-4 14t5 14.5t18.5 27l40.5 53.5h121v-67h-121v-1l97 -108v-49h-92zM421 361v33l-46 57t-19 26t-4 14t5 14.5t18.5 27l40.5 53.5h121v-67h-121v-1l97 -108v-49h-92zM1026 0v458q0 35 -15.5 48t-62.5 13h-138v67h184
q51 0 77.5 -14.5t36.5 -42.5t10 -71v-458h-92z" />
    <glyph glyph-name="uni178417B6" unicode="&#x1784;&#x17b6;" horiz-adv-x="923" 
d="M97 0v257q0 16 -11.5 22t-36.5 6v67h73q34 0 50.5 -18t16.5 -53v-200l129 117l127 -116v257q0 30 -13.5 47t-33.5 29q-34 -12 -69 -22t-70 -10q-44 0 -81 13.5t-58.5 41t-21.5 69.5v167h91v-167q0 -24 18 -40.5t52 -16.5q18 0 34.5 2.5t40.5 9.5q-15 11 -22.5 26.5
t-7.5 34.5q0 18 9.5 35.5t29.5 29t51 11.5q30 0 50 -11t30 -28.5t10 -39.5q0 -18 -5 -31.5t-19 -26.5q27 -12 44 -27.5t25 -37.5t8 -56v-341h-106l-113 103l-114 -103h-107zM733 0v458q0 35 -15.5 48t-62.5 13h-138v67h184q51 0 77.5 -14.5t36.5 -42.5t10 -71v-458h-92z" />
    <glyph glyph-name="uni178517B6" unicode="&#x1785;&#x17b6;" horiz-adv-x="923" 
d="M517 201v-43q0 -79 -55 -118.5t-165 -39.5q-109 0 -164 39.5t-55 118.5v226q-26 33 -37.5 51t-11.5 31q0 10 2.5 17.5t10 18t23 30l41.5 54.5h411v-67h-409q-4 -4 -6.5 -8l-4 -6.5t-1.5 -4.5q0 -13 17 -34t57 -66v-242q0 -45 31.5 -68t95.5 -23q65 0 96.5 23t31.5 68v43
h92zM517 198h-92v47q-34 0 -59 10.5t-39 31t-14 50.5q0 50 36 76t86 26q38 0 60 -15t22 -44v-182zM425 313v59q-14 0 -24.5 -3.5t-15.5 -10t-5 -16.5q0 -15 11.5 -22t33.5 -7zM733 0v458q0 35 -15.5 48t-62.5 13h-138v67h184q51 0 77.5 -14.5t36.5 -42.5t10 -71v-458h-92z
" />
    <glyph glyph-name="uni178617B6" unicode="&#x1786;&#x17b6;" horiz-adv-x="923" 
d="M537 213v-55q0 -47 -16 -82.5t-46 -55.5t-71 -20q-33 0 -59.5 18t-50.5 43l-33.5 36t-28.5 21.5t-42 9.5v-128h-92q-25 40 -37 74.5t-12 62.5t12 42.5t37 15.5v189q-26 33 -37.5 51t-11.5 31q0 10 2.5 17.5t10 18t23 30l41.5 54.5h411v-67h-409q-4 -4 -6.5 -8l-4 -6.5
t-1.5 -4.5q0 -13 17 -34t57 -66v-205q37 -3 59 -9.5t37.5 -17.5t31.5 -28q13 -13 26 -30.5t27.5 -30t30.5 -12.5q19 0 28 14.5t12 35.5t3 41v55h92zM537 198h-92v47q-34 0 -59 10.5t-39 31t-14 50.5q0 50 36 76t86 26q38 0 60 -15t22 -44v-182zM445 313v59q-14 0 -24.5 -3.5
t-15.5 -10t-5 -16.5q0 -15 11.5 -22t33.5 -7zM733 0v458q0 35 -15.5 48t-62.5 13h-138v67h184q51 0 77.5 -14.5t36.5 -42.5t10 -71v-458h-92z" />
    <glyph glyph-name="uni178717B6" unicode="&#x1787;&#x17b6;" horiz-adv-x="923" 
d="M98 0v384q-26 33 -37.5 51t-11.5 31q0 10 2.5 17.5t10 18t23 30l41.5 54.5h279q17 0 28.5 6t11.5 18v64h92v-64q0 -30 -12 -50.5t-38.5 -30.5t-71.5 -10h-287q-4 -4 -6.5 -8l-4 -6.5t-1.5 -4.5q0 -8 7.5 -20t24 -31l42.5 -49v-319l128 117l127 -116v369h92v-451h-106
l-113 103l-114 -103h-106zM423 586h128v-67h-128v67zM733 0v458q0 35 -15.5 48t-62.5 13h-138v67h184q51 0 77.5 -14.5t36.5 -42.5t10 -71v-458h-92z" />
    <glyph glyph-name="uni178817B6" unicode="&#x1788;&#x17b6;" horiz-adv-x="1539" 
d="M1154 379v-221q0 -52 -23 -87.5t-68.5 -53t-113.5 -17.5q-54 0 -93.5 12t-65.5 36q-26 -24 -66 -36t-96 -12q-103 0 -155 39.5t-52 118.5v270q0 45 -29 68t-87 23t-86.5 -23t-28.5 -68v-199h-92v199q0 79 52 118.5t155 39.5q104 0 156 -39.5t52 -118.5v-270
q0 -45 28.5 -68t86.5 -23q39 0 65 10t38.5 30.5t12.5 50.5v221h92v-221q0 -30 12.5 -50.5t38 -30.5t62.5 -10q38 0 63 10t37.5 30.5t12.5 50.5v221h92zM98 247h92v-28q31 0 54.5 -11t37.5 -34.5t14 -60.5q0 -52 -30 -82.5t-74 -30.5h-28q-27 0 -46.5 15t-19.5 45v187z
M190 67q15 0 24.5 5.5t14.5 15.5t5 24q0 18 -10.5 28t-33.5 11v-84zM1062 361v33l-46 57t-19 26t-4 14t5 14.5t18.5 27l40.5 53.5h121v-67h-121v-1l97 -108v-49h-92zM744 361v33l-46 57t-19 26t-4 14t5 14.5t18.5 27l40.5 53.5h121v-67h-121v-1l97 -108v-49h-92zM1349 0v458
q0 35 -15.5 48t-62.5 13h-138v67h184q51 0 77.5 -14.5t36.5 -42.5t10 -71v-458h-92z" />
    <glyph glyph-name="uni178917B6" unicode="&#x1789;&#x17b6;" horiz-adv-x="1240" 
d="M683 -244q-38 0 -69 8.5t-58 22.5t-54 30q-26 16 -60 24t-72 10.5t-77 2.5h-195v58h195q53 0 98 -5.5t82 -16t64 -26.5t51.5 -27t48 -17t46.5 -6q46 0 64.5 20.5t20.5 58.5h-74v58h160v-21q0 -54 -20.5 -93t-58.5 -60t-92 -21zM503 533q25 22 62.5 40t93.5 18
q78 0 120 -22t58.5 -59t16.5 -82v-428h-92v428q0 45 -28 70.5t-84 25.5q-46 0 -71 -13.5t-50 -34.5zM98 234v217q0 37 11 67.5t36.5 49t68.5 18.5q26 0 51 -15t52 -46h2q28 30 54.5 45.5t63.5 15.5t59 -18.5t31.5 -49t9.5 -67.5v-451h-92v451q0 31 -8.5 46.5t-26.5 15.5
q-15 0 -27 -9t-22.5 -21.5t-21 -21.5t-22.5 -9t-22.5 9t-21.5 21.5t-22.5 21.5t-25.5 9q-18 0 -26.5 -15.5t-8.5 -46.5v-217h-92zM98 247h92v-28q31 0 54.5 -11t37.5 -34.5t14 -60.5q0 -52 -30 -82.5t-74 -30.5h-28q-27 0 -46.5 15t-19.5 45v187zM190 67q15 0 24.5 5.5
t14.5 15.5t5 24q0 18 -10.5 28t-33.5 11v-84zM1050 0v458q0 35 -15.5 48t-62.5 13h-138v67h184q51 0 77.5 -14.5t36.5 -42.5t10 -71v-458h-92z" />
    <glyph glyph-name="uni178A17B6" unicode="&#x178a;&#x17b6;" horiz-adv-x="923" 
d="M98 470v140h91v-73h202q27 0 40.5 6t13.5 19v112h92v-112q0 -31 -10.5 -51.5t-38.5 -30.5t-80 -10h-310zM98 0v402h92v-321l128 117l127 -116v320h92v-402h-106l-113 103l-114 -103h-106zM733 0v458q0 35 -15.5 48t-62.5 13h-138v67h184q51 0 77.5 -14.5t36.5 -42.5
t10 -71v-458h-92z" />
    <glyph glyph-name="uni178B17B6" unicode="&#x178b;&#x17b6;" horiz-adv-x="923" 
d="M461 586h117v-67h-117v67zM317 0q-109 0 -164 39.5t-55 118.5v328q0 19 -15 26t-44 7v67h77q37 0 55.5 -12.5t18.5 -37.5v-378q0 -30 14 -50.5t42.5 -30.5t70.5 -10q65 0 96.5 23t31.5 68v206l-79 63.5l-43.5 36t-18.5 19t-4 11.5q0 6 3 12.5t16.5 24l42.5 55.5h59
q17 0 25.5 7t8.5 23v58h92v-80q0 -39 -13 -57t-50 -18h-93l-1 -2l147 -114v-245q0 -79 -55 -118.5t-165 -39.5zM733 0v458q0 35 -15.5 48t-62.5 13h-138v67h184q51 0 77.5 -14.5t36.5 -42.5t10 -71v-458h-92z" />
    <glyph glyph-name="uni178C17B6" unicode="&#x178c;&#x17b6;" horiz-adv-x="923" 
d="M445 -10v85h-1q-32 -21 -62 -38t-61 -27t-67 -10q-49 0 -84 21t-53.5 56.5t-18.5 80.5v128l173 25q87 13 130.5 43t43.5 94q0 29 -10.5 47t-31.5 18q-15 0 -25.5 -9t-19.5 -20q-9 -12 -19 -22t-24 -10q-11 0 -22 9t-22.5 21.5t-23 21.5t-23.5 9q-11 0 -19 -6.5t-12 -17
t-4 -23.5q0 -25 12.5 -34.5t36.5 -13.5v-67h-37q-26 0 -50 11.5t-39 36t-15 63.5q0 37 17 65t44.5 43.5t58.5 15.5q32 0 52.5 -15t47.5 -46h2q23 30 49.5 45.5t57.5 15.5q36 0 61 -19t37.5 -48t12.5 -61q0 -64 -29 -107t-87 -68.5t-145 -38.5l-86 -13v-73q0 -45 19.5 -68
t55.5 -23q25 0 56 12.5t59 31.5t46.5 39.5t18.5 35.5v48h92v-244h-92zM733 0v458q0 35 -15.5 48t-62.5 13h-138v67h184q51 0 77.5 -14.5t36.5 -42.5t10 -71v-458h-92z" />
    <glyph glyph-name="uni178D17B6" unicode="&#x178d;&#x17b6;" horiz-adv-x="1216" 
d="M830 379v-221q0 -45 -17 -80.5t-48 -56.5t-73 -21q-59 0 -93 33.5t-55 83.5h-24v67h70q14 -69 40.5 -94.5t52.5 -25.5q28 0 41.5 26t13.5 55v234h92zM98 234v217q0 37 11 67.5t36.5 49t68.5 18.5q26 0 51 -15t52 -46h2q28 30 54.5 45.5t63.5 15.5t59 -18.5t31.5 -49
t9.5 -67.5v-451h-92v451q0 31 -8.5 46.5t-26.5 15.5q-15 0 -27 -9t-22.5 -21.5t-21 -21.5t-22.5 -9t-22.5 9t-21.5 21.5t-22.5 21.5t-25.5 9q-18 0 -26.5 -15.5t-8.5 -46.5v-217h-92zM98 247h92v-28q31 0 54.5 -11t37.5 -34.5t14 -60.5q0 -52 -30 -82.5t-74 -30.5h-28
q-27 0 -46.5 15t-19.5 45v187zM190 67q15 0 24.5 5.5t14.5 15.5t5 24q0 18 -10.5 28t-33.5 11v-84zM738 361v33l-46 57t-19 26t-4 14t5 14.5t18.5 27l40.5 53.5h121v-67h-121v-1l97 -108v-49h-92zM1026 0v458q0 35 -15.5 48t-62.5 13h-138v67h184q51 0 77.5 -14.5
t36.5 -42.5t10 -71v-458h-92z" />
    <glyph glyph-name="uni178E17B6" unicode="&#x178e;&#x17b6;" horiz-adv-x="1528" 
d="M98 235v193q0 79 51 118.5t153 39.5t153.5 -39.5t51.5 -118.5v-347l113 103l112 -102v346q0 79 51.5 118.5t153.5 39.5t153.5 -39.5t51.5 -118.5v-428h-92v428q0 45 -28.5 68t-84.5 23t-84.5 -23t-28.5 -68v-428h-106l-98 89l-99 -89h-106v428q0 45 -28.5 68t-84.5 23
t-84 -23t-28 -68v-193h-92zM98 247h92v-28q31 0 54.5 -11t37.5 -34.5t14 -60.5q0 -52 -30 -82.5t-74 -30.5h-28q-27 0 -46.5 15t-19.5 45v187zM190 67q15 0 24.5 5.5t14.5 15.5t5 24q0 18 -10.5 28t-33.5 11v-84zM1338 0v458q0 35 -15.5 48t-62.5 13h-138v67h184
q51 0 77.5 -14.5t36.5 -42.5t10 -71v-458h-92z" />
    <glyph glyph-name="uni178F17B6" unicode="&#x178f;&#x17b6;" horiz-adv-x="923" 
d="M98 519v67h439v-67h-439zM98 247h92v-28q31 0 54.5 -11t37.5 -34.5t14 -60.5q0 -52 -30 -82.5t-74 -30.5h-28q-27 0 -46.5 15t-19.5 45v187zM190 67q15 0 24.5 5.5t14.5 15.5t5 24q0 18 -10.5 28t-33.5 11v-84zM98 229v64q0 158 219 158q220 0 220 -158v-293h-92v293
q0 45 -31.5 67.5t-96.5 22.5q-64 0 -95.5 -22.5t-31.5 -67.5v-64h-92zM98 247h92v-28q31 0 54.5 -11t37.5 -34.5t14 -60.5q0 -52 -30 -82.5t-74 -30.5h-28q-27 0 -46.5 15t-19.5 45v187zM190 67q15 0 24.5 5.5t14.5 15.5t5 24q0 18 -10.5 28t-33.5 11v-84zM733 0v458
q0 35 -15.5 48t-62.5 13h-138v67h184q51 0 77.5 -14.5t36.5 -42.5t10 -71v-458h-92z" />
    <glyph glyph-name="uni179017B6" unicode="&#x1790;&#x17b6;" horiz-adv-x="923" 
d="M537 216v-58q0 -79 -55 -118.5t-165 -39.5q-219 0 -219 158v226q-26 33 -37.5 51t-11.5 31q0 10 2.5 17.5t10 18t23 30l41.5 54.5h283q20 0 28 6t8 18v64h92v-64q0 -46 -25.5 -68.5t-75.5 -22.5h-308q-4 -6 -7 -9.5t-4 -5.5t-1 -4q0 -8 7.5 -20t24 -31l42.5 -49v-242
q0 -45 31.5 -68t95.5 -23q65 0 96.5 23t31.5 68v58h92zM537 198h-92v47q-34 0 -59 10.5t-39 31t-14 50.5q0 50 36 76t86 26q38 0 60 -15t22 -44v-182zM445 313v59q-14 0 -24.5 -3.5t-15.5 -10t-5 -16.5q0 -15 11.5 -22t33.5 -7zM423 586h128v-67h-128v67zM733 0v458
q0 35 -15.5 48t-62.5 13h-138v67h184q51 0 77.5 -14.5t36.5 -42.5t10 -71v-458h-92z" />
    <glyph glyph-name="uni179117B6" unicode="&#x1791;&#x17b6;" horiz-adv-x="919" 
d="M296 0q-96 0 -144 39.5t-48 118.5v76h92v-76q0 -45 25.5 -68t74.5 -23q50 0 75.5 23t25.5 68v77q-112 17 -182 40.5t-102.5 60.5t-32.5 92q0 45 21 81t69 56.5t129 20.5q82 0 130 -21t69 -54.5t21 -72.5v-24h-92v24q0 35 -28.5 58t-99.5 23q-70 0 -99 -23t-29 -68
q0 -37 23.5 -60.5t74.5 -38t132 -26.5q6 20 21 30t36 10q19 0 32.5 -8.5t21 -21.5t7.5 -27q0 -22 -9.5 -36.5t-20.5 -19.5v-72q0 -79 -48 -118.5t-145 -39.5zM729 0v458q0 35 -15.5 48t-62.5 13h-138v67h184q51 0 77.5 -14.5t36.5 -42.5t10 -71v-458h-92z" />
    <glyph glyph-name="uni179217B6" unicode="&#x1792;&#x17b6;" horiz-adv-x="923" 
d="M537 215v-215h-106l-113 103l-114 -103h-106v384q-26 33 -37.5 51t-11.5 31q0 10 2 17.5t9.5 18t23 30l42.5 54.5h411v-67h-409q-4 -6 -7 -9.5t-4 -5.5t-1 -4q0 -8 7.5 -20t24 -31l42.5 -49v-319l128 117l127 -116v133h92zM537 198h-92v47q-34 0 -59 10.5t-39 31
t-14 50.5q0 50 36 76t86 26q38 0 60 -15t22 -44v-182zM445 313v59q-14 0 -24.5 -3.5t-15.5 -10t-5 -16.5q0 -15 11.5 -22t33.5 -7zM733 0v458q0 35 -15.5 48t-62.5 13h-138v67h184q51 0 77.5 -14.5t36.5 -42.5t10 -71v-458h-92z" />
    <glyph glyph-name="uni179317B6" unicode="&#x1793;&#x17b6;" horiz-adv-x="924" 
d="M97 0v246h92v-75q38 0 63.5 -9t43 -21.5t31.5 -25.5l34 -31t38 -17q13 0 25.5 8t21.5 26.5t9 47.5q0 27 -10.5 46t-31.5 31.5t-55 17.5q-64 11 -113 27t-81.5 38.5t-49 52t-16.5 66.5q0 45 21 81t69 56.5t129 20.5q82 0 130 -18t69 -47.5t21 -64.5q0 -27 -13 -51t-42 -39
t-79 -15h-7v60q17 0 27.5 6t16 17t5.5 25q0 15 -12 29t-38.5 22.5t-71.5 8.5q-75 0 -104.5 -23t-29.5 -68q0 -31 19.5 -53.5t58.5 -38t96 -25.5q66 -11 106.5 -33t59 -54.5t18.5 -76.5q0 -46 -20.5 -79t-54 -50.5t-73.5 -17.5q-36 0 -60 16t-50 39q-16 15 -30.5 26t-30.5 17
t-39 6v-104h-92zM734 0v458q0 35 -15.5 48t-62.5 13h-138v67h184q51 0 77.5 -14.5t36.5 -42.5t10 -71v-458h-92z" />
    <glyph glyph-name="uni179517B6" unicode="&#x1795;&#x17b6;" horiz-adv-x="923" 
d="M537 215v-215h-106l-113 103l-114 -103h-106v384q-26 33 -37.5 51t-11.5 31q0 10 2.5 17.5t10 18t23 30l41.5 54.5h289q15 0 22.5 6.5t7.5 20.5v61h92v-64q0 -46 -26.5 -68.5t-91.5 -22.5h-291q-4 -6 -7 -9.5t-4 -5.5t-1 -4q0 -8 7.5 -20t24 -31l42.5 -49v-319l128 117
l127 -116v133h92zM537 198h-92v47q-34 0 -59 10.5t-39 31t-14 50.5q0 50 36 76t86 26q38 0 60 -15t22 -44v-182zM445 313v59q-14 0 -24.5 -3.5t-15.5 -10t-5 -16.5q0 -15 11.5 -22t33.5 -7zM423 586h128v-67h-128v67zM733 0v458q0 35 -15.5 48t-62.5 13h-138v67h184
q51 0 77.5 -14.5t36.5 -42.5t10 -71v-458h-92z" />
    <glyph glyph-name="uni179617B6" unicode="&#x1796;&#x17b6;" horiz-adv-x="923" 
d="M98 234v217q0 37 11 67.5t36.5 49t68.5 18.5q26 0 51 -15t52 -46h2q28 30 54.5 45.5t63.5 15.5t59 -18.5t31.5 -49t9.5 -67.5v-451h-92v451q0 31 -8.5 46.5t-26.5 15.5q-15 0 -27 -9t-22.5 -21.5t-21 -21.5t-22.5 -9t-22.5 9t-21.5 21.5t-22.5 21.5t-25.5 9
q-18 0 -26.5 -15.5t-8.5 -46.5v-217h-92zM98 247h92v-28q31 0 54.5 -11t37.5 -34.5t14 -60.5q0 -52 -30 -82.5t-74 -30.5h-28q-27 0 -46.5 15t-19.5 45v187zM190 67q15 0 24.5 5.5t14.5 15.5t5 24q0 18 -10.5 28t-33.5 11v-84zM733 0v458q0 35 -15.5 48t-62.5 13h-138v67
h184q51 0 77.5 -14.5t36.5 -42.5t10 -71v-458h-92z" />
    <glyph glyph-name="uni179717B6" unicode="&#x1797;&#x17b6;" horiz-adv-x="923" 
d="M98 519v67h439v-67h-439zM124 -4q-43 0 -68.5 27t-35.5 82l52 20q6 -14 12 -24t13 -15t16 -5q8 0 13.5 6t5.5 19q0 23 -8.5 51t-17 59t-8.5 63q0 53 24.5 91.5t73 59.5t121.5 21q110 0 165 -39.5t55 -118.5v-293h-92v293q0 45 -31.5 67.5t-96.5 22.5q-64 0 -96 -29.5
t-32 -74.5q0 -30 9 -54t17.5 -51.5t8.5 -68.5q0 -38 -13.5 -62.5t-36 -35.5t-50.5 -11zM733 0v458q0 35 -15.5 48t-62.5 13h-138v67h184q51 0 77.5 -14.5t36.5 -42.5t10 -71v-458h-92z" />
    <glyph glyph-name="uni179817B6" unicode="&#x1798;&#x17b6;" horiz-adv-x="923" 
d="M159 259v67h316v-67h-316zM190 371v-213q0 -45 31.5 -68t95.5 -23q65 0 96.5 23t31.5 68v214h92v-214q0 -158 -220 -158q-219 0 -219 158v213h92zM445 361v33l-46 57t-19 26t-4 14t5 14.5t18.5 27l40.5 53.5h121v-67h-121v-1l97 -108v-49h-92zM98 361v33l-46 57t-19 26
t-4 14t5 14.5t18.5 27l40.5 53.5h121v-67h-121v-1l97 -108v-49h-92zM733 0v458q0 35 -15.5 48t-62.5 13h-138v67h184q51 0 77.5 -14.5t36.5 -42.5t10 -71v-458h-92z" />
    <glyph glyph-name="uni179917B6" unicode="&#x1799;&#x17b6;" horiz-adv-x="1241" 
d="M855 378v-220q0 -67 -49 -112.5t-156 -45.5q-53 0 -92 13t-64 35h-3q-18 -17 -42.5 -27.5t-56 -15t-70.5 -5.5h-5q-81 0 -129 21t-69.5 56.5t-21.5 80.5v378q0 50 74 50h87v-67q-34 0 -51.5 -6t-17.5 -17v-338q0 -45 29 -68t99 -23q48 0 76 10t40 30.5t12 50.5v220h92
v-220q0 -45 29 -68t84 -23q56 0 84.5 23t28.5 68v220h92zM763 361v33l-46 57t-19 26t-4 14t5 14.5t18.5 27l40.5 53.5h121v-67h-121v-1l97 -108v-49h-92zM445 361v33l-46 57t-19 26t-4 14t5 14.5t18.5 27l40.5 53.5h121v-67h-121v-1l97 -108v-49h-92zM1051 0v458
q0 35 -15.5 48t-62.5 13h-138v67h184q51 0 77.5 -14.5t36.5 -42.5t10 -71v-458h-92z" />
    <glyph glyph-name="uni179A17B6" unicode="&#x179a;&#x17b6;" horiz-adv-x="615" 
d="M137 361v33l-46 57t-19 26t-4 14t5 14.5t18.5 27l40.5 53.5h121v-67h-121v-1l97 -108v-49h-92zM229 376v-307q0 -37 -18 -53t-51 -16h-18q-27 0 -54 8.5t-45 32t-18 67.5q0 40 18 63.5t44 34.5t50 13v157h92zM137 67v84q-14 0 -29.5 -9t-15.5 -33t14.5 -33t30.5 -9z
M425 0v458q0 35 -15.5 48t-62.5 13h-138v67h184q51 0 77.5 -14.5t36.5 -42.5t10 -71v-458h-92z" />
    <glyph glyph-name="uni179B17B6" unicode="&#x179b;&#x17b6;" horiz-adv-x="1216" 
d="M830 379v-221q0 -79 -51 -118.5t-154 -39.5q-204 0 -204 158v270q0 45 -29 68t-87 23t-86.5 -23t-28.5 -68v-193h-92v193q0 158 207 158q208 0 208 -158v-270q0 -45 28 -68t84 -23q57 0 85 23t28 68v221h92zM98 247h92v-28q31 0 54.5 -11t37.5 -34.5t14 -60.5
q0 -52 -30 -82.5t-74 -30.5h-28q-27 0 -46.5 15t-19.5 45v187zM190 67q15 0 24.5 5.5t14.5 15.5t5 24q0 18 -10.5 28t-33.5 11v-84zM738 361v33l-46 57t-19 26t-4 14t5 14.5t18.5 27l40.5 53.5h121v-67h-121v-1l97 -108v-49h-92zM1026 0v458q0 35 -15.5 48t-62.5 13h-138v67
h184q51 0 77.5 -14.5t36.5 -42.5t10 -71v-458h-92z" />
    <glyph glyph-name="uni179C17B6" unicode="&#x179c;&#x17b6;" horiz-adv-x="615" 
d="M155 586h74v-67h-74v67zM137 354v40l-61.5 59t-25 27t-5.5 14t4.5 14t18 26l39.5 52h49q18 0 26.5 6t8.5 18v64h92v-64q0 -30 -14 -50.5t-42 -30.5t-71 -10h-49v-1l122 -108v-56h-92zM229 376v-307q0 -37 -18 -53t-51 -16h-18q-27 0 -54 8.5t-45 32t-18 67.5
q0 40 18 63.5t44 34.5t50 13v157h92zM137 67v84q-14 0 -29.5 -9t-15.5 -33t14.5 -33t30.5 -9zM425 0v458q0 35 -15.5 48t-62.5 13h-138v67h184q51 0 77.5 -14.5t36.5 -42.5t10 -71v-458h-92z" />
    <glyph glyph-name="uni179D17B6" unicode="&#x179d;&#x17b6;" horiz-adv-x="923" 
d="M376 128v67h220v-67h-220zM98 519v67h439v-67h-439zM98 0v293q0 79 55 118.5t164 39.5q110 0 165 -39.5t55 -118.5v-293h-92v293q0 45 -31.5 67.5t-96.5 22.5q-64 0 -96 -22.5t-32 -67.5v-137q17 20 40 29.5t51 9.5h62v-67h-51q-50 0 -70.5 -22.5t-31.5 -63.5v-42h-91z
M733 0v458q0 35 -15.5 48t-62.5 13h-138v67h184q51 0 77.5 -14.5t36.5 -42.5t10 -71v-458h-92z" />
    <glyph glyph-name="uni179E17B6" unicode="&#x179e;&#x17b6;" horiz-adv-x="923" 
d="M361 259v67h225v-67h-225zM190 371v-213q0 -45 31.5 -68t95.5 -23q65 0 96.5 23t31.5 68v214h92v-214q0 -158 -220 -158q-219 0 -219 158v213h92zM445 361v33l-46 57t-19 26t-4 14t5 14.5t18.5 27l40.5 53.5h121v-67h-121v-1l97 -108v-49h-92zM98 361v33l-46 57t-19 26
t-4 14t5 14.5t18.5 27l40.5 53.5h121v-67h-121v-1l97 -108v-49h-92zM733 0v458q0 35 -15.5 48t-62.5 13h-138v67h184q51 0 77.5 -14.5t36.5 -42.5t10 -71v-458h-92z" />
    <glyph glyph-name="uni179F17B6" unicode="&#x179f;&#x17b6;" horiz-adv-x="1216" 
d="M169 419l-31 40t-13 19.5t-3 12.5t5 14.5t18.5 27l40.5 53.5h278v-67h-278v-1l65 -74zM830 378v-220q0 -79 -51 -118.5t-154 -39.5q-204 0 -204 158v135q0 45 -29 67.5t-87 22.5t-86.5 -22.5t-28.5 -67.5v-59h-92v59q0 56 23 91t69 51t115 16t115.5 -17.5t69.5 -52.5
t23 -88v-135q0 -45 28 -68t84 -23q57 0 85 23t28 68v220h92zM98 247h92v-28q31 0 54.5 -11t37.5 -34.5t14 -60.5q0 -52 -30 -82.5t-74 -30.5h-28q-27 0 -46.5 15t-19.5 45v187zM190 67q15 0 24.5 5.5t14.5 15.5t5 24q0 18 -10.5 28t-33.5 11v-84zM738 361v33l-46 57t-19 26
t-4 14t5 14.5t18.5 27l40.5 53.5h121v-67h-121v-1l97 -108v-49h-92zM1026 0v458q0 35 -15.5 48t-62.5 13h-138v67h184q51 0 77.5 -14.5t36.5 -42.5t10 -71v-458h-92z" />
    <glyph glyph-name="uni17A017B6" unicode="&#x17a0;&#x17b6;" horiz-adv-x="1216" 
d="M190 373v-215q0 -45 28.5 -68t86.5 -23q59 0 87.5 23t28.5 68v270q0 68 49 113t153 45q207 0 207 -158v-428h-92v428q0 45 -28.5 68t-84.5 23q-55 0 -83.5 -23t-28.5 -68v-270q0 -67 -49 -112.5t-159 -45.5q-109 0 -158 45.5t-49 112.5v215h92zM98 361v33l-46 57t-19 26
t-4 14t5 14.5t18.5 27l40.5 53.5h121v-67h-121v-1l97 -108v-49h-92zM1026 0v458q0 35 -15.5 48t-62.5 13h-138v67h184q51 0 77.5 -14.5t36.5 -42.5t10 -71v-458h-92z" />
    <glyph glyph-name="uni17A117B6" unicode="&#x17a1;&#x17b6;" horiz-adv-x="1134" 
d="M296 0q-96 0 -144 39.5t-48 118.5v76h92v-76q0 -45 25.5 -68t74.5 -23q50 0 75.5 23t25.5 68v77q-112 17 -182 40.5t-102.5 60.5t-32.5 92q0 45 21 81t69 56.5t129 20.5q82 0 130 -21t69 -54.5t21 -72.5v-24h-92v24q0 35 -28.5 58t-99.5 23q-70 0 -99 -23t-29 -68
q0 -37 23.5 -60.5t74.5 -38t132 -26.5q6 20 21 30t36 10q19 0 32.5 -8.5t21 -21.5t7.5 -27q0 -22 -9.5 -36.5t-20.5 -19.5v-72q0 -79 -48 -118.5t-145 -39.5zM748 377v-616h-106l-106 91l-106 -91h-97v94q0 14 -12 19.5t-37 5.5v71h63q34 0 51 -18t17 -53v-38l121 105
l120 -105v535h92zM656 361v33l-46 57t-19 26t-4 14t5 14.5t18.5 27l40.5 53.5h121v-67h-121v-1l97 -108v-49h-92zM944 0v458q0 35 -15.5 48t-62.5 13h-138v67h184q51 0 77.5 -14.5t36.5 -42.5t10 -71v-458h-92z" />
    <glyph glyph-name="uni17A217B6" unicode="&#x17a2;&#x17b6;" horiz-adv-x="933" 
d="M548 375v-325q0 -25 -18 -37.5t-55 -12.5h-88v67q35 0 52 6.5t17 21.5v164h-255v-209q0 -25 -18.5 -37.5t-55.5 -12.5h-87v67q35 0 52 6.5t17 21.5v280h92v-48h255v48h92zM456 361v33l-46 57t-19 26t-4 14t5 14.5t18.5 27l40.5 53.5h121v-67h-121v-1l97 -108v-49h-92z
M109 361v33l-46 57t-19 26t-4 14t5 14.5t18.5 27l40.5 53.5h121v-67h-121v-1l97 -108v-49h-92zM743 0v458q0 35 -15.5 48t-62.5 13h-138v67h184q51 0 77.5 -14.5t36.5 -42.5t10 -71v-458h-92z" />
    <glyph glyph-name=".notdef" horiz-adv-x="634" 
d="M96 0v714h442v-714h-442zM188 67h258v580h-258v-580z" />
    <glyph glyph-name="NULL" 
 />
    <glyph glyph-name="NULL" 
 />
    <glyph glyph-name="CR" unicode="&#xd;" horiz-adv-x="260" 
 />
    <glyph glyph-name="space" unicode=" " horiz-adv-x="260" 
 />
    <glyph glyph-name="exclam" unicode="!" horiz-adv-x="269" 
d="M163 201h-57l-25 513h107zM72 54q0 37 18 52t44 15q25 0 43.5 -15t18.5 -52q0 -36 -18.5 -52t-43.5 -16q-26 0 -44 16t-18 52z" />
    <glyph glyph-name="quotedbl" unicode="&#x22;" horiz-adv-x="402" 
d="M85 456l-20 258h96l-20 -258h-56zM261 456l-20 258h96l-20 -258h-56z" />
    <glyph glyph-name="quotesingle" unicode="'" horiz-adv-x="226" 
d="M85 456l-20 258h96l-20 -258h-56z" />
    <glyph glyph-name="parenleft" unicode="(" horiz-adv-x="300" 
d="M40 274q0 122 35.5 235.5t111.5 204.5h83q-70 -94 -105.5 -207t-35.5 -232q0 -116 35.5 -227.5t104.5 -205.5h-82q-76 88 -111.5 199.5t-35.5 232.5z" />
    <glyph glyph-name="parenright" unicode=")" horiz-adv-x="300" 
d="M260 274q0 -121 -35.5 -232.5t-111.5 -199.5h-82q69 94 104.5 205.5t35.5 227.5q0 119 -35.5 232t-105.5 207h83q76 -91 111.5 -204.5t35.5 -235.5z" />
    <glyph glyph-name="comma" unicode="," horiz-adv-x="250" 
d="M185 116l7 -11q-13 -53 -37.5 -116.5t-48.5 -117.5h-65q14 57 28.5 125t21.5 120h94z" />
    <glyph glyph-name="hyphen" unicode="-" horiz-adv-x="322" 
d="M40 227v82h242v-82h-242z" />
    <glyph glyph-name="period" unicode="." horiz-adv-x="268" 
d="M72 54q0 37 18 52t43 15q26 0 44.5 -15t18.5 -52q0 -36 -18.5 -52t-44.5 -16q-25 0 -43 16t-18 52z" />
    <glyph glyph-name="slash" unicode="/" horiz-adv-x="373" 
d="M10 0l266 714h87l-266 -714h-87z" />
    <glyph glyph-name="colon" unicode=":" horiz-adv-x="268" 
d="M72 54q0 37 18 52t43 15q26 0 44.5 -15t18.5 -52q0 -36 -18.5 -52t-44.5 -16q-25 0 -43 16t-18 52zM72 482q0 38 18 53t43 15q26 0 44.5 -15t18.5 -53q0 -36 -18.5 -52t-44.5 -16q-25 0 -43 16t-18 52z" />
    <glyph glyph-name="semicolon" unicode=";" horiz-adv-x="268" 
d="M176 116l7 -11q-9 -35 -23 -76t-30.5 -81.5l-32.5 -76.5h-66l14.5 60l14.5 64.5t12.5 63.5t9.5 57h94zM70 482q0 38 18 53t43 15q26 0 44.5 -15t18.5 -53q0 -36 -18.5 -52t-44.5 -16q-25 0 -43 16t-18 52z" />
    <glyph glyph-name="question" unicode="?" horiz-adv-x="434" 
d="M140 201v27q0 38 7.5 65.5t26 52.5t50.5 52q39 33 60.5 55t30.5 43t9 51q0 48 -31 74t-90 26q-49 0 -87 -12.5t-73 -29.5l-31 70q40 21 88.5 35t108.5 14q95 0 147 -47t52 -128q0 -45 -14.5 -76.5t-41 -58t-62.5 -56.5q-33 -28 -50.5 -49t-23.5 -41.5t-6 -49.5v-17h-70z
M117 54q0 37 17.5 52t44.5 15q25 0 43 -15t18 -52q0 -36 -18 -52t-43 -16q-27 0 -44.5 16t-17.5 52z" />
    <glyph glyph-name="uni200B" unicode="&#x200b;" 
 />
    <glyph glyph-name="guillemotleft" unicode="&#xab;" horiz-adv-x="509" 
d="M40 270l168 201l63 -36l-140 -171l140 -171l-63 -37l-168 201v13zM238 270l170 201l62 -36l-140 -171l140 -171l-62 -37l-170 201v13z" />
    <glyph glyph-name="uni00A0" unicode="&#xa0;" horiz-adv-x="260" 
 />
    <glyph glyph-name="uni00AD" unicode="&#xad;" horiz-adv-x="322" 
d="M40 227v82h242v-82h-242z" />
    <glyph glyph-name="guillemotright" unicode="&#xbb;" horiz-adv-x="509" 
d="M469 257l-170 -201l-62 37l140 171l-140 171l62 36l170 -201v-13zM270 257l-169 -201l-62 37l140 171l-140 171l62 36l169 -201v-13z" />
    <glyph glyph-name="quoteleft" unicode="&#x2018;" horiz-adv-x="175" 
d="M18 469l-6 11q9 35 23 76t30.5 82t32.5 76h65l-19 -81.5t-18 -86t-13 -77.5h-95z" />
    <glyph glyph-name="quoteright" unicode="&#x2019;" horiz-adv-x="175" 
d="M156 714l7 -11q-9 -35 -23 -76t-30.5 -81.5l-32.5 -76.5h-65l14.5 60t14 64.5t12 63.5t9.5 57h94z" />
    <glyph glyph-name="quotedblleft" unicode="&#x201c;" horiz-adv-x="359" 
d="M347 714l-19 -82t-18 -86t-13 -77h-95l-7 11q9 35 23 75.5t31 81.5l33 77h65zM162 714l-19 -82t-18 -86t-13 -77h-94l-6 11q9 35 23 75.5t30.5 81.5t32.5 77h64z" />
    <glyph glyph-name="quotedblright" unicode="&#x201d;" horiz-adv-x="359" 
d="M340 714l7 -11q-9 -35 -23 -76t-30.5 -81.5l-32.5 -76.5h-66q10 38 19.5 81.5l18 86t13.5 77.5h94zM155 714l7 -11q-9 -35 -23 -76t-30.5 -81.5l-32.5 -76.5h-64q7 28 14 60l13.5 64.5t12 63.5t9.5 57h94z" />
    <glyph glyph-name="uni1780" unicode="&#x1780;" horiz-adv-x="636" 
d="M98 519v67h440v-67h-440zM98 0v293q0 79 55.5 118.5t164.5 39.5q110 0 165 -39.5t55 -118.5v-293h-92v293q0 45 -31.5 68t-96.5 23q-64 0 -96 -23t-32 -68v-293h-92z" />
    <glyph glyph-name="uni1781" unicode="&#x1781;" horiz-adv-x="635" 
d="M317 0q-81 0 -129 21t-69 56.5t-21 80.5v128l173 25q87 13 130.5 42.5t43.5 81.5q0 40 -28.5 62t-99.5 22q-70 0 -99 -20.5t-29 -42.5q0 -18 12.5 -26.5t36.5 -8.5v-70h-42q-37 0 -67.5 22.5t-30.5 71.5q0 35 21 67.5t69 53t129 20.5q82 0 130 -20.5t69 -54t21 -73.5
q0 -54 -29 -92.5t-87 -63.5t-145 -38l-86 -13v-73q0 -45 28.5 -68t98.5 -23q71 0 99.5 23t28.5 68v76h92v-76q0 -45 -21 -80.5t-69 -56.5t-130 -21z" />
    <glyph glyph-name="uni1782" unicode="&#x1782;" horiz-adv-x="635" 
d="M98 519v67h439v-67h-439zM98 0v293q0 79 55 118.5t164 39.5q110 0 165 -39.5t55 -118.5v-293h-92v293q0 45 -31.5 67.5t-96.5 22.5q-64 0 -96 -22.5t-32 -67.5v-137q17 20 40 29.5t51 9.5h62v-67h-51q-50 0 -70.5 -22.5t-31.5 -63.5v-42h-91z" />
    <glyph glyph-name="uni1783" unicode="&#x1783;" horiz-adv-x="928" 
d="M98 158v328q0 12 -7.5 19.5t-23 10.5t-38.5 3v67h87q37 0 55.5 -12.5t18.5 -37.5v-378q0 -45 28.5 -68t86.5 -23t87 23t29 68v214h92v-214q0 -45 28 -68t84 -23q57 0 85 23t28 68v221h92v-221q0 -79 -51 -118.5t-154 -39.5q-53 0 -92.5 12t-65.5 36q-52 -48 -162 -48
q-103 0 -155 39.5t-52 118.5zM738 361v33l-46 57t-19 26t-4 14t5 14.5t18.5 27l40.5 53.5h121v-67h-121v-1l97 -108v-49h-92zM421 361v33l-46 57t-19 26t-4 14t5 14.5t18.5 27l40.5 53.5h121v-67h-121v-1l97 -108v-49h-92z" />
    <glyph glyph-name="uni1784" unicode="&#x1784;" horiz-adv-x="635" 
d="M97 0v257q0 16 -11.5 22t-36.5 6v67h73q34 0 50.5 -18t16.5 -53v-200l129 117l127 -116v257q0 30 -13.5 47t-33.5 29q-34 -12 -69 -22t-70 -10q-44 0 -81 13.5t-58.5 41t-21.5 69.5v167h91v-167q0 -24 18 -40.5t52 -16.5q18 0 34.5 2.5t40.5 9.5q-15 11 -22.5 26.5
t-7.5 34.5q0 18 9.5 35.5t29.5 29t51 11.5q30 0 50 -11t30 -28.5t10 -39.5q0 -18 -5 -31.5t-19 -26.5q27 -12 44 -27.5t25 -37.5t8 -56v-341h-106l-113 103l-114 -103h-107z" />
    <glyph glyph-name="uni1785" unicode="&#x1785;" horiz-adv-x="615" 
d="M517 201v-43q0 -79 -55 -118.5t-165 -39.5q-109 0 -164 39.5t-55 118.5v226q-26 33 -37.5 51t-11.5 31q0 10 2.5 17.5t10 18t23 30l41.5 54.5h411v-67h-409q-4 -4 -6.5 -8l-4 -6.5t-1.5 -4.5q0 -13 17 -34t57 -66v-242q0 -45 31.5 -68t95.5 -23q65 0 96.5 23t31.5 68v43
h92zM517 198h-92v47q-34 0 -59 10.5t-39 31t-14 50.5q0 50 36 76t86 26q38 0 60 -15t22 -44v-182zM425 313v59q-14 0 -24.5 -3.5t-15.5 -10t-5 -16.5q0 -15 11.5 -22t33.5 -7z" />
    <glyph glyph-name="uni1786" unicode="&#x1786;" horiz-adv-x="635" 
d="M537 213v-55q0 -47 -16 -82.5t-46 -55.5t-71 -20q-33 0 -59.5 18t-50.5 43l-33.5 36t-28.5 21.5t-42 9.5v-128h-92q-25 40 -37 74.5t-12 62.5t12 42.5t37 15.5v189q-26 33 -37.5 51t-11.5 31q0 10 2.5 17.5t10 18t23 30l41.5 54.5h411v-67h-409q-4 -4 -6.5 -8l-4 -6.5
t-1.5 -4.5q0 -13 17 -34t57 -66v-205q37 -3 59 -9.5t37.5 -17.5t31.5 -28q13 -13 26 -30.5t27.5 -30t30.5 -12.5q19 0 28 14.5t12 35.5t3 41v55h92zM537 198h-92v47q-34 0 -59 10.5t-39 31t-14 50.5q0 50 36 76t86 26q38 0 60 -15t22 -44v-182zM445 313v59q-14 0 -24.5 -3.5
t-15.5 -10t-5 -16.5q0 -15 11.5 -22t33.5 -7z" />
    <glyph glyph-name="uni1787" unicode="&#x1787;" horiz-adv-x="635" 
d="M98 0v384q-26 33 -37.5 51t-11.5 31q0 10 2.5 17.5t10 18t23 30l41.5 54.5h279q17 0 28.5 6t11.5 18v64h92v-64q0 -30 -12 -50.5t-38.5 -30.5t-71.5 -10h-287q-4 -4 -6.5 -8l-4 -6.5t-1.5 -4.5q0 -8 7.5 -20t24 -31l42.5 -49v-319l128 117l127 -116v369h92v-451h-106
l-113 103l-114 -103h-106z" />
    <glyph glyph-name="uni1788" unicode="&#x1788;" horiz-adv-x="1251" 
d="M1154 379v-221q0 -52 -23 -87.5t-68.5 -53t-113.5 -17.5q-54 0 -93.5 12t-65.5 36q-26 -24 -66 -36t-96 -12q-103 0 -155 39.5t-52 118.5v270q0 45 -29 68t-87 23t-86.5 -23t-28.5 -68v-199h-92v199q0 79 52 118.5t155 39.5q104 0 156 -39.5t52 -118.5v-270
q0 -45 28.5 -68t86.5 -23q39 0 65 10t38.5 30.5t12.5 50.5v221h92v-221q0 -30 12.5 -50.5t38 -30.5t62.5 -10q38 0 63 10t37.5 30.5t12.5 50.5v221h92zM98 247h92v-28q31 0 54.5 -11t37.5 -34.5t14 -60.5q0 -52 -30 -82.5t-74 -30.5h-28q-27 0 -46.5 15t-19.5 45v187z
M190 67q15 0 24.5 5.5t14.5 15.5t5 24q0 18 -10.5 28t-33.5 11v-84zM1062 361v33l-46 57t-19 26t-4 14t5 14.5t18.5 27l40.5 53.5h121v-67h-121v-1l97 -108v-49h-92zM744 361v33l-46 57t-19 26t-4 14t5 14.5t18.5 27l40.5 53.5h121v-67h-121v-1l97 -108v-49h-92z" />
    <glyph glyph-name="uni1789" unicode="&#x1789;" horiz-adv-x="952" 
d="M683 -244q-38 0 -69 8.5t-58 22.5t-54 30q-26 16 -60 24t-72 10.5t-77 2.5h-195v58h195q53 0 98 -5.5t82 -16t64 -26.5t51.5 -27t48 -17t46.5 -6q46 0 64.5 20.5t20.5 58.5h-74v58h160v-21q0 -54 -20.5 -93t-58.5 -60t-92 -21zM503 533q25 22 62.5 40t93.5 18
q78 0 120 -22t58.5 -59t16.5 -82v-428h-92v428q0 45 -28 70.5t-84 25.5q-46 0 -71 -13.5t-50 -34.5zM98 234v217q0 37 11 67.5t36.5 49t68.5 18.5q26 0 51 -15t52 -46h2q28 30 54.5 45.5t63.5 15.5t59 -18.5t31.5 -49t9.5 -67.5v-451h-92v451q0 31 -8.5 46.5t-26.5 15.5
q-15 0 -27 -9t-22.5 -21.5t-21 -21.5t-22.5 -9t-22.5 9t-21.5 21.5t-22.5 21.5t-25.5 9q-18 0 -26.5 -15.5t-8.5 -46.5v-217h-92zM98 247h92v-28q31 0 54.5 -11t37.5 -34.5t14 -60.5q0 -52 -30 -82.5t-74 -30.5h-28q-27 0 -46.5 15t-19.5 45v187zM190 67q15 0 24.5 5.5
t14.5 15.5t5 24q0 18 -10.5 28t-33.5 11v-84z" />
    <glyph glyph-name="uni1789.a" horiz-adv-x="952" 
d="M503 533q25 22 62.5 40t93.5 18q78 0 120 -22t58.5 -59t16.5 -82v-428h-92v428q0 45 -28 70.5t-84 25.5q-46 0 -71 -13.5t-50 -34.5zM98 234v217q0 37 11 67.5t36.5 49t68.5 18.5q26 0 51 -15t52 -46h2q28 30 54.5 45.5t63.5 15.5t59 -18.5t31.5 -49t9.5 -67.5v-451h-92
v451q0 31 -8.5 46.5t-26.5 15.5q-15 0 -27 -9t-22.5 -21.5t-21 -21.5t-22.5 -9t-22.5 9t-21.5 21.5t-22.5 21.5t-25.5 9q-18 0 -26.5 -15.5t-8.5 -46.5v-217h-92zM98 247h92v-28q31 0 54.5 -11t37.5 -34.5t14 -60.5q0 -52 -30 -82.5t-74 -30.5h-28q-27 0 -46.5 15t-19.5 45
v187zM190 67q15 0 24.5 5.5t14.5 15.5t5 24q0 18 -10.5 28t-33.5 11v-84z" />
    <glyph glyph-name="uni178A" unicode="&#x178a;" horiz-adv-x="635" 
d="M98 470v140h91v-73h202q27 0 40.5 6t13.5 19v112h92v-112q0 -31 -10.5 -51.5t-38.5 -30.5t-80 -10h-310zM98 0v402h92v-321l128 117l127 -116v320h92v-402h-106l-113 103l-114 -103h-106z" />
    <glyph glyph-name="uni178B" unicode="&#x178b;" horiz-adv-x="635" 
d="M317 0q-109 0 -164 39.5t-55 118.5v328q0 19 -15 26t-44 7v67h77q37 0 55.5 -12.5t18.5 -37.5v-378q0 -30 14 -50.5t42.5 -30.5t70.5 -10q65 0 96.5 23t31.5 68v206l-79 63.5l-43.5 36t-18.5 19t-4 11.5q0 6 3 12.5t16.5 24l42.5 55.5h59q17 0 25.5 7t8.5 23v58h92v-80
q0 -39 -13 -57t-50 -18h-93l-1 -2l147 -114v-245q0 -79 -55 -118.5t-165 -39.5z" />
    <glyph glyph-name="uni178C" unicode="&#x178c;" horiz-adv-x="635" 
d="M445 -10v85h-1q-32 -21 -62 -38t-61 -27t-67 -10q-49 0 -84 21t-53.5 56.5t-18.5 80.5v128l173 25q87 13 130.5 43t43.5 94q0 29 -10.5 47t-31.5 18q-15 0 -25.5 -9t-19.5 -20q-9 -12 -19 -22t-24 -10q-11 0 -22 9t-22.5 21.5t-23 21.5t-23.5 9q-11 0 -19 -6.5t-12 -17
t-4 -23.5q0 -25 12.5 -34.5t36.5 -13.5v-67h-37q-26 0 -50 11.5t-39 36t-15 63.5q0 37 17 65t44.5 43.5t58.5 15.5q32 0 52.5 -15t47.5 -46h2q23 30 49.5 45.5t57.5 15.5q36 0 61 -19t37.5 -48t12.5 -61q0 -64 -29 -107t-87 -68.5t-145 -38.5l-86 -13v-73q0 -45 19.5 -68
t55.5 -23q25 0 56 12.5t59 31.5t46.5 39.5t18.5 35.5v48h92v-244h-92z" />
    <glyph glyph-name="uni178D" unicode="&#x178d;" horiz-adv-x="924" 
d="M830 379v-221q0 -45 -17 -80.5t-48 -56.5t-73 -21q-59 0 -93 33.5t-55 83.5h-24v67h70q14 -69 40.5 -94.5t52.5 -25.5q28 0 41.5 26t13.5 55v234h92zM98 234v217q0 37 11 67.5t36.5 49t68.5 18.5q26 0 51 -15t52 -46h2q28 30 54.5 45.5t63.5 15.5t59 -18.5t31.5 -49
t9.5 -67.5v-451h-92v451q0 31 -8.5 46.5t-26.5 15.5q-15 0 -27 -9t-22.5 -21.5t-21 -21.5t-22.5 -9t-22.5 9t-21.5 21.5t-22.5 21.5t-25.5 9q-18 0 -26.5 -15.5t-8.5 -46.5v-217h-92zM98 247h92v-28q31 0 54.5 -11t37.5 -34.5t14 -60.5q0 -52 -30 -82.5t-74 -30.5h-28
q-27 0 -46.5 15t-19.5 45v187zM190 67q15 0 24.5 5.5t14.5 15.5t5 24q0 18 -10.5 28t-33.5 11v-84zM738 361v33l-46 57t-19 26t-4 14t5 14.5t18.5 27l40.5 53.5h121v-67h-121v-1l97 -108v-49h-92z" />
    <glyph glyph-name="uni178E" unicode="&#x178e;" horiz-adv-x="1240" 
d="M98 235v193q0 79 51 118.5t153 39.5t153.5 -39.5t51.5 -118.5v-347l113 103l112 -102v346q0 79 51.5 118.5t153.5 39.5t153.5 -39.5t51.5 -118.5v-428h-92v428q0 45 -28.5 68t-84.5 23t-84.5 -23t-28.5 -68v-428h-106l-98 89l-99 -89h-106v428q0 45 -28.5 68t-84.5 23
t-84 -23t-28 -68v-193h-92zM98 247h92v-28q31 0 54.5 -11t37.5 -34.5t14 -60.5q0 -52 -30 -82.5t-74 -30.5h-28q-27 0 -46.5 15t-19.5 45v187zM190 67q15 0 24.5 5.5t14.5 15.5t5 24q0 18 -10.5 28t-33.5 11v-84z" />
    <glyph glyph-name="uni178F" unicode="&#x178f;" horiz-adv-x="635" 
d="M98 519v67h439v-67h-439zM98 247h92v-28q31 0 54.5 -11t37.5 -34.5t14 -60.5q0 -52 -30 -82.5t-74 -30.5h-28q-27 0 -46.5 15t-19.5 45v187zM190 67q15 0 24.5 5.5t14.5 15.5t5 24q0 18 -10.5 28t-33.5 11v-84zM98 229v64q0 158 219 158q220 0 220 -158v-293h-92v293
q0 45 -31.5 67.5t-96.5 22.5q-64 0 -95.5 -22.5t-31.5 -67.5v-64h-92zM98 247h92v-28q31 0 54.5 -11t37.5 -34.5t14 -60.5q0 -52 -30 -82.5t-74 -30.5h-28q-27 0 -46.5 15t-19.5 45v187zM190 67q15 0 24.5 5.5t14.5 15.5t5 24q0 18 -10.5 28t-33.5 11v-84z" />
    <glyph glyph-name="uni1790" unicode="&#x1790;" horiz-adv-x="635" 
d="M537 216v-58q0 -79 -55 -118.5t-165 -39.5q-219 0 -219 158v226q-26 33 -37.5 51t-11.5 31q0 10 2.5 17.5t10 18t23 30l41.5 54.5h283q20 0 28 6t8 18v64h92v-64q0 -46 -25.5 -68.5t-75.5 -22.5h-308q-4 -6 -7 -9.5t-4 -5.5t-1 -4q0 -8 7.5 -20t24 -31l42.5 -49v-242
q0 -45 31.5 -68t95.5 -23q65 0 96.5 23t31.5 68v58h92zM537 198h-92v47q-34 0 -59 10.5t-39 31t-14 50.5q0 50 36 76t86 26q38 0 60 -15t22 -44v-182zM445 313v59q-14 0 -24.5 -3.5t-15.5 -10t-5 -16.5q0 -15 11.5 -22t33.5 -7z" />
    <glyph glyph-name="uni1791" unicode="&#x1791;" horiz-adv-x="599" 
d="M296 0q-96 0 -144 39.5t-48 118.5v76h92v-76q0 -45 25.5 -68t74.5 -23q50 0 75.5 23t25.5 68v77q-112 17 -182 40.5t-102.5 60.5t-32.5 92q0 45 21 81t69 56.5t129 20.5q82 0 130 -21t69 -54.5t21 -72.5v-24h-92v24q0 35 -28.5 58t-99.5 23q-70 0 -99 -23t-29 -68
q0 -37 23.5 -60.5t74.5 -38t132 -26.5q6 20 21 30t36 10q19 0 32.5 -8.5t21 -21.5t7.5 -27q0 -22 -9.5 -36.5t-20.5 -19.5v-72q0 -79 -48 -118.5t-145 -39.5z" />
    <glyph glyph-name="uni1792" unicode="&#x1792;" horiz-adv-x="635" 
d="M537 215v-215h-106l-113 103l-114 -103h-106v384q-26 33 -37.5 51t-11.5 31q0 10 2 17.5t9.5 18t23 30l42.5 54.5h411v-67h-409q-4 -6 -7 -9.5t-4 -5.5t-1 -4q0 -8 7.5 -20t24 -31l42.5 -49v-319l128 117l127 -116v133h92zM537 198h-92v47q-34 0 -59 10.5t-39 31
t-14 50.5q0 50 36 76t86 26q38 0 60 -15t22 -44v-182zM445 313v59q-14 0 -24.5 -3.5t-15.5 -10t-5 -16.5q0 -15 11.5 -22t33.5 -7z" />
    <glyph glyph-name="uni1793" unicode="&#x1793;" horiz-adv-x="635" 
d="M97 0v246h92v-75q38 0 63.5 -9t43 -21.5t31.5 -25.5l34 -31t38 -17q13 0 25.5 8t21.5 26.5t9 47.5q0 27 -10.5 46t-31.5 31.5t-55 17.5q-64 11 -113 27t-81.5 38.5t-49 52t-16.5 66.5q0 45 21 81t69 56.5t129 20.5q82 0 130 -18t69 -47.5t21 -64.5q0 -27 -13 -51t-42 -39
t-79 -15h-7v60q17 0 27.5 6t16 17t5.5 25q0 15 -12 29t-38.5 22.5t-71.5 8.5q-75 0 -104.5 -23t-29.5 -68q0 -31 19.5 -53.5t58.5 -38t96 -25.5q66 -11 106.5 -33t59 -54.5t18.5 -76.5q0 -46 -20.5 -79t-54 -50.5t-73.5 -17.5q-36 0 -60 16t-50 39q-16 15 -30.5 26t-30.5 17
t-39 6v-104h-92z" />
    <glyph glyph-name="uni1794" unicode="&#x1794;" horiz-adv-x="635" 
d="M190 371v-213q0 -45 31.5 -68t95.5 -23q65 0 96.5 23t31.5 68v214h92v-214q0 -158 -220 -158q-219 0 -219 158v213h92zM445 361v33l-46 57t-19 26t-4 14t5 14.5t18.5 27l40.5 53.5h121v-67h-121v-1l97 -108v-49h-92zM98 361v33l-46 57t-19 26t-4 14t5 14.5t18.5 27
l40.5 53.5h121v-67h-121v-1l97 -108v-49h-92z" />
    <glyph glyph-name="uni1794.a" horiz-adv-x="635" 
d="M537 24v-64h-92v64h92zM98 384q-26 33 -37.5 51t-11.5 31q0 10 2.5 17.5t10 18t23 30l41.5 54.5h436v-67h-434q-4 -4 -6.5 -8l-4 -6.5t-1.5 -4.5q0 -8 7.5 -20t24 -31l42.5 -49v-242q0 -45 22 -73t64 -28q23 0 52 11.5t55.5 28.5t44 36t17.5 34v272h92v-449h-92v68h-1
q-26 -20 -53 -35.5t-56.5 -24t-66.5 -8.5q-53 0 -91 23.5t-58.5 61.5t-20.5 83v226z" />
    <glyph glyph-name="uni1794.a2" horiz-adv-x="635" 
d="M98 384q-26 33 -37.5 51t-11.5 31q0 10 2.5 17.5t10 18t23 30l41.5 54.5h436v-67h-434q-4 -4 -6.5 -8l-4 -6.5t-1.5 -4.5q0 -8 7.5 -20t24 -31l42.5 -49v-242q0 -45 22 -73t64 -28q23 0 52 11.5t55.5 28.5t44 36t17.5 34v272h92v-449h-92v68h-1q-26 -20 -53 -35.5
t-56.5 -24t-66.5 -8.5q-53 0 -91 23.5t-58.5 61.5t-20.5 83v226z" />
    <glyph glyph-name="uni1795" unicode="&#x1795;" horiz-adv-x="635" 
d="M537 215v-215h-106l-113 103l-114 -103h-106v384q-26 33 -37.5 51t-11.5 31q0 10 2.5 17.5t10 18t23 30l41.5 54.5h289q15 0 22.5 6.5t7.5 20.5v61h92v-64q0 -46 -26.5 -68.5t-91.5 -22.5h-291q-4 -6 -7 -9.5t-4 -5.5t-1 -4q0 -8 7.5 -20t24 -31l42.5 -49v-319l128 117
l127 -116v133h92zM537 198h-92v47q-34 0 -59 10.5t-39 31t-14 50.5q0 50 36 76t86 26q38 0 60 -15t22 -44v-182zM445 313v59q-14 0 -24.5 -3.5t-15.5 -10t-5 -16.5q0 -15 11.5 -22t33.5 -7z" />
    <glyph glyph-name="uni1796" unicode="&#x1796;" horiz-adv-x="635" 
d="M98 234v217q0 37 11 67.5t36.5 49t68.5 18.5q26 0 51 -15t52 -46h2q28 30 54.5 45.5t63.5 15.5t59 -18.5t31.5 -49t9.5 -67.5v-451h-92v451q0 31 -8.5 46.5t-26.5 15.5q-15 0 -27 -9t-22.5 -21.5t-21 -21.5t-22.5 -9t-22.5 9t-21.5 21.5t-22.5 21.5t-25.5 9
q-18 0 -26.5 -15.5t-8.5 -46.5v-217h-92zM98 247h92v-28q31 0 54.5 -11t37.5 -34.5t14 -60.5q0 -52 -30 -82.5t-74 -30.5h-28q-27 0 -46.5 15t-19.5 45v187zM190 67q15 0 24.5 5.5t14.5 15.5t5 24q0 18 -10.5 28t-33.5 11v-84z" />
    <glyph glyph-name="uni1797" unicode="&#x1797;" horiz-adv-x="635" 
d="M98 519v67h439v-67h-439zM124 -4q-43 0 -68.5 27t-35.5 82l52 20q6 -14 12 -24t13 -15t16 -5q8 0 13.5 6t5.5 19q0 23 -8.5 51t-17 59t-8.5 63q0 53 24.5 91.5t73 59.5t121.5 21q110 0 165 -39.5t55 -118.5v-293h-92v293q0 45 -31.5 67.5t-96.5 22.5q-64 0 -96 -29.5
t-32 -74.5q0 -30 9 -54t17.5 -51.5t8.5 -68.5q0 -38 -13.5 -62.5t-36 -35.5t-50.5 -11z" />
    <glyph glyph-name="uni1798" unicode="&#x1798;" horiz-adv-x="635" 
d="M159 259v67h316v-67h-316zM190 371v-213q0 -45 31.5 -68t95.5 -23q65 0 96.5 23t31.5 68v214h92v-214q0 -158 -220 -158q-219 0 -219 158v213h92zM445 361v33l-46 57t-19 26t-4 14t5 14.5t18.5 27l40.5 53.5h121v-67h-121v-1l97 -108v-49h-92zM98 361v33l-46 57t-19 26
t-4 14t5 14.5t18.5 27l40.5 53.5h121v-67h-121v-1l97 -108v-49h-92z" />
    <glyph glyph-name="uni1799" unicode="&#x1799;" horiz-adv-x="953" 
d="M855 378v-220q0 -67 -49 -112.5t-156 -45.5q-53 0 -92 13t-64 35h-3q-18 -17 -42.5 -27.5t-56 -15t-70.5 -5.5h-5q-81 0 -129 21t-69.5 56.5t-21.5 80.5v378q0 50 74 50h87v-67q-34 0 -51.5 -6t-17.5 -17v-338q0 -45 29 -68t99 -23q48 0 76 10t40 30.5t12 50.5v220h92
v-220q0 -45 29 -68t84 -23q56 0 84.5 23t28.5 68v220h92zM763 361v33l-46 57t-19 26t-4 14t5 14.5t18.5 27l40.5 53.5h121v-67h-121v-1l97 -108v-49h-92zM445 361v33l-46 57t-19 26t-4 14t5 14.5t18.5 27l40.5 53.5h121v-67h-121v-1l97 -108v-49h-92z" />
    <glyph glyph-name="uni179A" unicode="&#x179a;" horiz-adv-x="288" 
d="M137 361v33l-46 57t-19 26t-4 14t5 14.5t18.5 27l40.5 53.5h121v-67h-121v-1l97 -108v-49h-92zM229 376v-307q0 -37 -18 -53t-51 -16h-18q-27 0 -54 8.5t-45 32t-18 67.5q0 40 18 63.5t44 34.5t50 13v157h92zM137 67v84q-14 0 -29.5 -9t-15.5 -33t14.5 -33t30.5 -9z" />
    <glyph glyph-name="uni179B" unicode="&#x179b;" horiz-adv-x="928" 
d="M830 379v-221q0 -79 -51 -118.5t-154 -39.5q-204 0 -204 158v270q0 45 -29 68t-87 23t-86.5 -23t-28.5 -68v-193h-92v193q0 158 207 158q208 0 208 -158v-270q0 -45 28 -68t84 -23q57 0 85 23t28 68v221h92zM98 247h92v-28q31 0 54.5 -11t37.5 -34.5t14 -60.5
q0 -52 -30 -82.5t-74 -30.5h-28q-27 0 -46.5 15t-19.5 45v187zM190 67q15 0 24.5 5.5t14.5 15.5t5 24q0 18 -10.5 28t-33.5 11v-84zM738 361v33l-46 57t-19 26t-4 14t5 14.5t18.5 27l40.5 53.5h121v-67h-121v-1l97 -108v-49h-92z" />
    <glyph glyph-name="uni179C" unicode="&#x179c;" horiz-adv-x="326" 
d="M137 354v40l-61.5 59t-25 27t-5.5 14t4.5 14t18 26l39.5 52h49q18 0 26.5 6t8.5 18v64h92v-64q0 -30 -14 -50.5t-42 -30.5t-71 -10h-49v-1l122 -108v-56h-92zM229 376v-307q0 -37 -18 -53t-51 -16h-18q-27 0 -54 8.5t-45 32t-18 67.5q0 40 18 63.5t44 34.5t50 13v157h92z
M137 67v84q-14 0 -29.5 -9t-15.5 -33t14.5 -33t30.5 -9z" />
    <glyph glyph-name="uni179D" unicode="&#x179d;" horiz-adv-x="636" 
d="M376 128v67h220v-67h-220zM98 519v67h439v-67h-439zM98 0v293q0 79 55 118.5t164 39.5q110 0 165 -39.5t55 -118.5v-293h-92v293q0 45 -31.5 67.5t-96.5 22.5q-64 0 -96 -22.5t-32 -67.5v-137q17 20 40 29.5t51 9.5h62v-67h-51q-50 0 -70.5 -22.5t-31.5 -63.5v-42h-91z
" />
    <glyph glyph-name="uni179E" unicode="&#x179e;" horiz-adv-x="636" 
d="M361 259v67h225v-67h-225zM190 371v-213q0 -45 31.5 -68t95.5 -23q65 0 96.5 23t31.5 68v214h92v-214q0 -158 -220 -158q-219 0 -219 158v213h92zM445 361v33l-46 57t-19 26t-4 14t5 14.5t18.5 27l40.5 53.5h121v-67h-121v-1l97 -108v-49h-92zM98 361v33l-46 57t-19 26
t-4 14t5 14.5t18.5 27l40.5 53.5h121v-67h-121v-1l97 -108v-49h-92z" />
    <glyph glyph-name="uni179F" unicode="&#x179f;" horiz-adv-x="928" 
d="M169 419l-31 40t-13 19.5t-3 12.5t5 14.5t18.5 27l40.5 53.5h278v-67h-278v-1l65 -74zM830 378v-220q0 -79 -51 -118.5t-154 -39.5q-204 0 -204 158v135q0 45 -29 67.5t-87 22.5t-86.5 -22.5t-28.5 -67.5v-59h-92v59q0 56 23 91t69 51t115 16t115.5 -17.5t69.5 -52.5
t23 -88v-135q0 -45 28 -68t84 -23q57 0 85 23t28 68v220h92zM98 247h92v-28q31 0 54.5 -11t37.5 -34.5t14 -60.5q0 -52 -30 -82.5t-74 -30.5h-28q-27 0 -46.5 15t-19.5 45v187zM190 67q15 0 24.5 5.5t14.5 15.5t5 24q0 18 -10.5 28t-33.5 11v-84zM738 361v33l-46 57t-19 26
t-4 14t5 14.5t18.5 27l40.5 53.5h121v-67h-121v-1l97 -108v-49h-92z" />
    <glyph glyph-name="uni17A0" unicode="&#x17a0;" horiz-adv-x="928" 
d="M190 373v-215q0 -45 28.5 -68t86.5 -23q59 0 87.5 23t28.5 68v270q0 68 49 113t153 45q207 0 207 -158v-428h-92v428q0 45 -28.5 68t-84.5 23q-55 0 -83.5 -23t-28.5 -68v-270q0 -67 -49 -112.5t-159 -45.5q-109 0 -158 45.5t-49 112.5v215h92zM98 361v33l-46 57t-19 26
t-4 14t5 14.5t18.5 27l40.5 53.5h121v-67h-121v-1l97 -108v-49h-92z" />
    <glyph glyph-name="uni17A1" unicode="&#x17a1;" horiz-adv-x="846" 
d="M296 0q-96 0 -144 39.5t-48 118.5v76h92v-76q0 -45 25.5 -68t74.5 -23q50 0 75.5 23t25.5 68v77q-112 17 -182 40.5t-102.5 60.5t-32.5 92q0 45 21 81t69 56.5t129 20.5q82 0 130 -21t69 -54.5t21 -72.5v-24h-92v24q0 35 -28.5 58t-99.5 23q-70 0 -99 -23t-29 -68
q0 -37 23.5 -60.5t74.5 -38t132 -26.5q6 20 21 30t36 10q19 0 32.5 -8.5t21 -21.5t7.5 -27q0 -22 -9.5 -36.5t-20.5 -19.5v-72q0 -79 -48 -118.5t-145 -39.5zM748 377v-616h-106l-106 91l-106 -91h-97v94q0 14 -12 19.5t-37 5.5v71h63q34 0 51 -18t17 -53v-38l121 105
l120 -105v535h92zM656 361v33l-46 57t-19 26t-4 14t5 14.5t18.5 27l40.5 53.5h121v-67h-121v-1l97 -108v-49h-92z" />
    <glyph glyph-name="uni17A2" unicode="&#x17a2;" horiz-adv-x="635" 
d="M548 375v-325q0 -25 -18 -37.5t-55 -12.5h-88v67q35 0 52 6.5t17 21.5v164h-255v-209q0 -25 -18.5 -37.5t-55.5 -12.5h-87v67q35 0 52 6.5t17 21.5v280h92v-48h255v48h92zM456 361v33l-46 57t-19 26t-4 14t5 14.5t18.5 27l40.5 53.5h121v-67h-121v-1l97 -108v-49h-92z
M109 361v33l-46 57t-19 26t-4 14t5 14.5t18.5 27l40.5 53.5h121v-67h-121v-1l97 -108v-49h-92z" />
    <glyph glyph-name="uni17A3" unicode="&#x17a3;" horiz-adv-x="635" 
d="M548 375v-325q0 -25 -18 -37.5t-55 -12.5h-88v67q35 0 52 6.5t17 21.5v164h-255v-209q0 -25 -18.5 -37.5t-55.5 -12.5h-87v67q35 0 52 6.5t17 21.5v280h92v-48h255v48h92zM456 361v33l-46 57t-19 26t-4 14t5 14.5t18.5 27l40.5 53.5h121v-67h-121v-1l97 -108v-49h-92z
M109 361v33l-46 57t-19 26t-4 14t5 14.5t18.5 27l40.5 53.5h121v-67h-121v-1l97 -108v-49h-92z" />
    <glyph glyph-name="uni17A4" unicode="&#x17a4;" horiz-adv-x="933" 
d="M548 375v-325q0 -25 -18 -37.5t-55 -12.5h-88v67q35 0 52 6.5t17 21.5v164h-255v-209q0 -25 -18.5 -37.5t-55.5 -12.5h-87v67q35 0 52 6.5t17 21.5v280h92v-48h255v48h92zM456 361v33l-46 57t-19 26t-4 14t5 14.5t18.5 27l40.5 53.5h121v-67h-121v-1l97 -108v-49h-92z
M109 361v33l-46 57t-19 26t-4 14t5 14.5t18.5 27l40.5 53.5h121v-67h-121v-1l97 -108v-49h-92zM743 0v458q0 35 -15.5 48t-62.5 13h-138v67h184q51 0 77.5 -14.5t36.5 -42.5t10 -71v-458h-92z" />
    <glyph glyph-name="uni17A5" unicode="&#x17a5;" horiz-adv-x="635" 
d="M94 394q-19 25 -31.5 46.5t-12.5 34.5q0 11 5 20t21.5 29.5l50.5 65.5h279q17 0 28.5 6.5t11.5 18.5v73h92v-73q0 -30 -16.5 -50.5t-48.5 -31t-81 -10.5h-263q-9 -11 -10.5 -13.5t-1.5 -5.5q0 -8 9 -22t28 -36zM98 229v64q0 158 219 158q220 0 220 -158v-293h-92v293
q0 45 -31.5 67.5t-96.5 22.5q-64 0 -95.5 -22.5t-31.5 -67.5v-64h-92zM98 247h92v-28q31 0 54.5 -11t37.5 -34.5t14 -60.5q0 -52 -30 -82.5t-74 -30.5h-28q-27 0 -46.5 15t-19.5 45v187zM190 67q15 0 24.5 5.5t14.5 15.5t5 24q0 18 -10.5 28t-33.5 11v-84z" />
    <glyph glyph-name="uni17A6" unicode="&#x17a6;" horiz-adv-x="929" 
d="M831 555v-682q0 -39 -21 -65t-63.5 -39t-105.5 -13q-105 0 -157.5 26.5t-52.5 79.5q0 32 -25.5 48.5t-88.5 16.5q-42 0 -66.5 -7.5t-35.5 -21.5t-11 -36v-41q0 -8 13 -12t39 -4v-49h-69q-32 0 -48.5 9t-16.5 27v70q0 24 10.5 44.5t33 36.5t60 24.5t91.5 8.5t91.5 -8.5
t60.5 -24.5t33.5 -36.5t10.5 -44.5q0 -19 32 -28.5t96 -9.5q33 0 54.5 5.5t32.5 16.5t11 27v682h92zM98 229v194q0 158 219 158q220 0 220 -158v-423h-92v423q0 45 -31.5 67.5t-96.5 22.5q-64 0 -95.5 -22.5t-31.5 -67.5v-194h-92zM98 247h92v-28q31 0 54.5 -11t37.5 -34.5
t14 -60.5q0 -52 -30 -82.5t-74 -30.5h-28q-27 0 -46.5 15t-19.5 45v187zM190 67q15 0 24.5 5.5t14.5 15.5t5 24q0 18 -10.5 28t-33.5 11v-84zM739 538v73q0 56 -29 84.5t-78 28.5q-29 0 -51.5 -10t-37.5 -29h-92v244h92v-170q19 12 45 20t61 8q61 0 101.5 -19.5t60.5 -58.5
t20 -98v-73h-92z" />
    <glyph glyph-name="uni17A7" unicode="&#x17a7;" horiz-adv-x="635" 
d="M445 -4v79h-1q-23 -19 -54 -36t-66 -28t-71 -11q-79 0 -117 45.5t-38 112.5v128l173 25q87 13 130.5 42.5t43.5 81.5q0 38 -28.5 61t-99.5 23q-35 0 -59.5 -5t-39.5 -14t-22 -19.5t-7 -22.5q0 -17 12.5 -27t36.5 -10v-70h-28q-35 0 -60 12.5t-38.5 34.5t-13.5 49
q0 39 21 70.5t69 50t129 18.5q82 0 130 -20.5t69 -55t21 -77.5q0 -77 -64.5 -123t-195.5 -66l-88 -13v-73q0 -45 15.5 -68t57.5 -23q27 0 58.5 11.5t60 29t46.5 37t18 34.5v55h92v-238h-92z" />
    <glyph glyph-name="uni17A8" unicode="&#x17a8;" horiz-adv-x="635" 
d="M98 665v67h439v-67h-439zM445 -4v79h-1q-23 -19 -54 -36t-66 -28t-71 -11q-79 0 -117 45.5t-38 112.5v128l173 25q87 13 130.5 42.5t43.5 81.5q0 38 -28.5 61t-99.5 23q-35 0 -59.5 -5t-39.5 -14t-22 -19.5t-7 -22.5q0 -17 12.5 -27t36.5 -10v-70h-28q-35 0 -60 12.5
t-38.5 34.5t-13.5 49q0 39 21 70.5t69 50t129 18.5q82 0 130 -20.5t69 -55t21 -77.5q0 -77 -64.5 -123t-195.5 -66l-88 -13v-73q0 -45 15.5 -68t57.5 -23q27 0 58.5 11.5t60 29t46.5 37t18 34.5v55h92v-238h-92z" />
    <glyph glyph-name="uni17A9" unicode="&#x17a9;" horiz-adv-x="734" 
d="M582 -4v238h92v-238h-92zM445 -4v79h-1q-23 -19 -54 -36t-66 -28t-71 -11q-79 0 -117 45.5t-38 112.5v128l173 25q87 13 130.5 42.5t43.5 81.5q0 38 -28.5 61t-99.5 23q-35 0 -59.5 -5t-39.5 -14t-22 -19.5t-7 -22.5q0 -17 12.5 -27t36.5 -10v-70h-28q-35 0 -60 12.5
t-38.5 34.5t-13.5 49q0 39 21 70.5t69 50t129 18.5q82 0 130 -20.5t69 -55t21 -77.5q0 -77 -64.5 -123t-195.5 -66l-88 -13v-73q0 -45 15.5 -68t57.5 -23q27 0 58.5 11.5t60 29t46.5 37t18 34.5v55h92v-238h-92z" />
    <glyph glyph-name="uni17AA" unicode="&#x17aa;" horiz-adv-x="636" 
d="M94 536q-19 25 -31.5 46.5t-12.5 34.5q0 11 5 20t21.5 29.5l50.5 65.5h279q17 0 28.5 6.5t11.5 18.5v73h92v-73q0 -30 -16.5 -50.5t-48.5 -31t-81 -10.5h-263q-9 -11 -10.5 -13.5t-1.5 -5.5q0 -8 9 -22t28 -36zM446 -4v79h-1q-23 -19 -54 -36t-66 -28t-71 -11
q-79 0 -117 45.5t-38 112.5v128l173 25q87 13 130.5 42.5t43.5 81.5q0 38 -28.5 61t-99.5 23q-35 0 -59.5 -5t-39.5 -14t-22 -19.5t-7 -22.5q0 -17 12.5 -27t36.5 -10v-70h-28q-35 0 -60 12.5t-38.5 34.5t-13.5 49q0 39 21 70.5t69 50t129 18.5q82 0 130 -20.5t69 -55
t21 -77.5q0 -77 -64.5 -123t-195.5 -66l-88 -13v-73q0 -45 15.5 -68t57.5 -23q27 0 58.5 11.5t60 29t46.5 37t18 34.5v55h92v-238h-92z" />
    <glyph glyph-name="uni17AB" unicode="&#x17ab;" horiz-adv-x="635" 
d="M190 371v-213q0 -45 31.5 -68t95.5 -23q65 0 96.5 23t31.5 68v214h92v-214q0 -158 -220 -158q-219 0 -219 158v213h92zM445 361v33l-46 57t-19 26t-4 14t5 14.5t18.5 27l40.5 53.5h121v-67h-121v-1l97 -108v-49h-92zM98 361v33l-46 57t-19 26t-4 14t5 14.5t18.5 27
l40.5 53.5h121v-67h-121v-1l97 -108v-49h-92zM98 -244v58h146q101 0 150.5 24.5t50.5 73.5h-54v64h146v-27q0 -70 -31 -112.5t-94.5 -61.5t-161.5 -19h-152z" />
    <glyph glyph-name="uni17AC" unicode="&#x17ac;" horiz-adv-x="684" 
d="M190 371v-213q0 -45 31.5 -68t95.5 -23q65 0 96.5 23t31.5 68v214h92v-214q0 -158 -220 -158q-219 0 -219 158v213h92zM445 361v33l-46 57t-19 26t-4 14t5 14.5t18.5 27l40.5 53.5h121v-67h-121v-1l97 -108v-49h-92zM98 361v33l-46 57t-19 26t-4 14t5 14.5t18.5 27
l40.5 53.5h121v-67h-121v-1l97 -108v-49h-92zM469 -194l50 53q14 -21 30.5 -33t37.5 -12h23v-58h-28q-31 0 -60 13t-53 37zM98 -244v58h146q101 0 150.5 24.5t50.5 73.5h-54v64h146v-27q0 -70 -31 -112.5t-94.5 -61.5t-161.5 -19h-152z" />
    <glyph glyph-name="uni17AD" unicode="&#x17ad;" horiz-adv-x="636" 
d="M98 234v217q0 37 11 67.5t36.5 49t68.5 18.5q26 0 51 -15t52 -46h2q28 30 54.5 45.5t63.5 15.5t59 -18.5t31.5 -49t9.5 -67.5v-451h-92v451q0 31 -8.5 46.5t-26.5 15.5q-15 0 -27 -9t-22.5 -21.5t-21 -21.5t-22.5 -9t-22.5 9t-21.5 21.5t-22.5 21.5t-25.5 9
q-18 0 -26.5 -15.5t-8.5 -46.5v-217h-92zM98 247h92v-28q31 0 54.5 -11t37.5 -34.5t14 -60.5q0 -52 -30 -82.5t-74 -30.5h-28q-27 0 -46.5 15t-19.5 45v187zM190 67q15 0 24.5 5.5t14.5 15.5t5 24q0 18 -10.5 28t-33.5 11v-84zM99 -244v58h146q101 0 150.5 24.5t50.5 73.5
h-54v64h146v-27q0 -70 -31 -112.5t-94.5 -61.5t-161.5 -19h-152z" />
    <glyph glyph-name="uni17AE" unicode="&#x17ae;" horiz-adv-x="708" 
d="M98 234v217q0 37 11 67.5t36.5 49t68.5 18.5q26 0 51 -15t52 -46h2q28 30 54.5 45.5t63.5 15.5t59 -18.5t31.5 -49t9.5 -67.5v-451h-92v451q0 31 -8.5 46.5t-26.5 15.5q-15 0 -27 -9t-22.5 -21.5t-21 -21.5t-22.5 -9t-22.5 9t-21.5 21.5t-22.5 21.5t-25.5 9
q-18 0 -26.5 -15.5t-8.5 -46.5v-217h-92zM98 247h92v-28q31 0 54.5 -11t37.5 -34.5t14 -60.5q0 -52 -30 -82.5t-74 -30.5h-28q-27 0 -46.5 15t-19.5 45v187zM190 67q15 0 24.5 5.5t14.5 15.5t5 24q0 18 -10.5 28t-33.5 11v-84zM470 -194l50 53q14 -21 30.5 -33t37.5 -12h23
v-58h-28q-31 0 -60 13t-53 37zM99 -244v58h146q101 0 150.5 24.5t50.5 73.5h-54v64h146v-27q0 -70 -31 -112.5t-94.5 -61.5t-161.5 -19h-152z" />
    <glyph glyph-name="uni17AF" unicode="&#x17af;" horiz-adv-x="635" 
d="M98 0v372q0 10 -12 15t-37 5v70h73q34 0 51 -17.5t17 -52.5v-311l128 117l127 -116v356q0 41 -23 61t-70 20h-93q-68 0 -114.5 30.5t-46.5 93.5v99h92v-99q0 -16 7.5 -29t23 -20.5t38.5 -7.5h139q70 0 104.5 -37t34.5 -111v-438h-106l-113 103l-114 -103h-106z" />
    <glyph glyph-name="uni17B0" unicode="&#x17b0;" horiz-adv-x="635" 
d="M98 234v217q0 37 11 67.5t36.5 49t68.5 18.5q26 0 51 -15t52 -46h2q28 30 54.5 45.5t63.5 15.5t59 -18.5t31.5 -49t9.5 -67.5v-451h-92v451q0 31 -8.5 46.5t-26.5 15.5q-15 0 -27 -9t-22.5 -21.5t-21 -21.5t-22.5 -9t-22.5 9t-21.5 21.5t-22.5 21.5t-25.5 9
q-18 0 -26.5 -15.5t-8.5 -46.5v-217h-92zM98 247h92v-28q31 0 54.5 -11t37.5 -34.5t14 -60.5q0 -52 -30 -82.5t-74 -30.5h-28q-27 0 -46.5 15t-19.5 45v187zM190 67q15 0 24.5 5.5t14.5 15.5t5 24q0 18 -10.5 28t-33.5 11v-84zM251 -212q-46 0 -75.5 18t-29.5 58v61
l125 26.5t92.5 21t61.5 18t31 17.5h81v-72q0 -43 -15 -66.5t-38.5 -33t-49.5 -9.5q-25 0 -41.5 7t-27.5 14q-7 -22 -33.5 -41t-80.5 -19zM263 -161q15 0 26.5 6.5t18 17.5t6.5 24v20l-86 -19v-19q0 -9 4 -16t12 -10.5t19 -3.5zM455 -77v17l-86 -20v-16q0 -7 5 -12t14 -7.5
t21 -2.5q23 0 34.5 11.5t11.5 29.5z" />
    <glyph glyph-name="uni17B1" unicode="&#x17b1;" horiz-adv-x="645" 
d="M98 544q-19 25 -28.5 42t-9.5 27q0 9 5 19.5t21.5 32.5l50.5 67h304q41 0 70.5 -15t48.5 -45t27 -75l-77 -30q-1 34 -10.5 55.5t-25 32t-33.5 10.5h-302q-7 -9 -9.5 -12t-2.5 -7q0 -8 9 -22t28 -36zM456 -4v79h-1q-23 -19 -54 -36t-66 -28t-71 -11q-79 0 -117 45.5
t-38 112.5v128l173 25q87 13 130.5 42.5t43.5 81.5q0 38 -28.5 61t-99.5 23q-35 0 -59.5 -5t-39.5 -14t-22 -19.5t-7 -22.5q0 -17 12.5 -27t36.5 -10v-70h-28q-35 0 -60 12.5t-38.5 34.5t-13.5 49q0 39 21 70.5t69 50t129 18.5q82 0 130 -20.5t69 -55t21 -77.5
q0 -77 -64.5 -123t-195.5 -66l-88 -13v-73q0 -45 15.5 -68t57.5 -23q27 0 58.5 11.5t60 29t46.5 37t18 34.5v55h92v-238h-92z" />
    <glyph glyph-name="uni17B2" unicode="&#x17b2;" horiz-adv-x="580" 
d="M295 0q-81 0 -129 21t-69 56.5t-21 80.5v270q0 45 21.5 81t67 56.5t118.5 20.5q70 0 122 -11t86 -34l-37 -60q-19 13 -44.5 21t-57 12.5t-69.5 4.5q-39 0 -64.5 -10.5t-38 -30.5t-12.5 -50v-270q0 -45 28.5 -68t98.5 -23q48 0 79 10.5t46 31t15 50.5q0 19 -2.5 30.5
t-5.5 19t-7 12.5l-51 -45l-56 51l164 145h-185v67h185l42.5 -55t17 -24.5t3.5 -11.5q0 -11 -9.5 -21.5t-43.5 -42.5q13 -17 22 -33t13.5 -34.5t4.5 -44.5q0 -52 -24 -90.5t-75 -60t-133 -21.5z" />
    <glyph glyph-name="uni17B3" unicode="&#x17b3;" horiz-adv-x="635" 
d="M87 544q-19 25 -28.5 42.5t-9.5 29.5q0 7 5 16.5t21.5 32l50.5 67.5h246q-15 20 -22.5 41t-7.5 41q0 26 11.5 53.5t35.5 55.5l65 -33q-19 -25 -26.5 -44t-7.5 -37t7 -32.5t34 -46.5q47 -7 76 -40.5t39 -92.5l-61 -37l-88 105h-299q-7 -9 -9.5 -12t-2.5 -7q0 -8 9 -22
t28 -36zM445 -4v79h-1q-23 -19 -54 -36t-66 -28t-71 -11q-79 0 -117 45.5t-38 112.5v128l173 25q87 13 130.5 42.5t43.5 81.5q0 38 -28.5 61t-99.5 23q-35 0 -59.5 -5t-39.5 -14t-22 -19.5t-7 -22.5q0 -17 12.5 -27t36.5 -10v-70h-28q-35 0 -60 12.5t-38.5 34.5t-13.5 49
q0 39 21 70.5t69 50t129 18.5q82 0 130 -20.5t69 -55t21 -77.5q0 -77 -64.5 -123t-195.5 -66l-88 -13v-73q0 -45 15.5 -68t57.5 -23q27 0 58.5 11.5t60 29t46.5 37t18 34.5v55h92v-238h-92z" />
    <glyph glyph-name="uni17B6" unicode="&#x17b6;" horiz-adv-x="288" 
d="M98 0v458q0 35 -15.5 48t-62.5 13h-138v67h184q51 0 77.5 -14.5t36.5 -42.5t10 -71v-458h-92z" />
    <glyph glyph-name="uni17B7" unicode="&#x17b7;" 
d="M-451 684q-25 0 -37 18t-12 55q0 33 17.5 60.5t51.5 44.5t83 17q36 0 72 -10t69.5 -27t64 -39t57.5 -46v-73h-366zM-426 747h248q-27 20 -51.5 33t-46 21t-39.5 11.5t-33 3.5q-37 0 -57.5 -15t-20.5 -54z" />
    <glyph glyph-name="uni17B7.r" 
d="M-348 684q-21 0 -32 18t-11 55q0 33 15.5 60.5t45.5 44.5t73 17q29 0 58 -10t58 -27t56 -39t51 -46v-73h-314zM-326 747h209q-32 26 -57 41t-45.5 21t-37.5 6q-29 0 -49 -14.5t-20 -53.5z" />
    <glyph glyph-name="uni17B717CD" 
d="M-262 852q20 8 33 5t30 -2q32 2 50 10t25.5 24t7.5 40h86q0 -42 -24 -72.5t-62 -47.5t-81 -17h-8.5h-9.5zM-451 684q-25 0 -37 18t-12 55q0 33 17.5 60.5t51.5 44.5t83 17q36 0 72 -10t69.5 -27t64 -39t57.5 -46v-73h-366zM-426 747h248q-27 20 -51.5 33t-46 21
t-39.5 11.5t-33 3.5q-37 0 -57.5 -15t-20.5 -54z" />
    <glyph glyph-name="uni17B717CD.r" 
d="M-175 852q20 8 33 5t30 -2q32 2 50 10t25.5 24t7.5 40h86q0 -42 -24 -72.5t-62 -47.5t-81 -17h-8.5h-9.5zM-348 684q-21 0 -32 18t-11 55q0 33 15.5 60.5t45.5 44.5t73 17q29 0 58 -10t58 -27t56 -39t51 -46v-73h-314zM-326 747h209q-32 26 -57 41t-45.5 21t-37.5 6
q-29 0 -49 -14.5t-20 -53.5z" />
    <glyph glyph-name="uni17B8" unicode="&#x17b8;" 
d="M-85 684h-67v219h67v-219zM-451 684q-25 0 -37 18t-12 55q0 33 17.5 60.5t51.5 44.5t83 17q36 0 72 -10t69.5 -27t64 -39t57.5 -46v-73h-366zM-426 747h248q-27 20 -51.5 33t-46 21t-39.5 11.5t-33 3.5q-37 0 -57.5 -15t-20.5 -54z" />
    <glyph glyph-name="uni17B8.r" 
d="M-34 684h-67v219h67v-219zM-348 684q-21 0 -32 18t-11 55q0 33 15.5 60.5t45.5 44.5t73 17q29 0 58 -10t58 -27t56 -39t51 -46v-73h-314zM-326 747h209q-32 26 -57 41t-45.5 21t-37.5 6q-29 0 -49 -14.5t-20 -53.5z" />
    <glyph glyph-name="uni17B9" unicode="&#x17b9;" 
d="M-278 865q14 28 41.5 46.5t61.5 18.5q41 0 67 -24t26 -61q0 -28 -11 -51t-18 -30zM-222 848l71 -42q5 5 8 14.5t3 19.5q0 14 -9 23.5t-26 9.5q-15 0 -25.5 -6.5t-21.5 -18.5zM-451 684q-25 0 -37 18t-12 55q0 33 17.5 60.5t51.5 44.5t83 17q36 0 72 -10t69.5 -27t64 -39
t57.5 -46v-73h-366zM-426 747h248q-27 20 -51.5 33t-46 21t-39.5 11.5t-33 3.5q-37 0 -57.5 -15t-20.5 -54z" />
    <glyph glyph-name="uni17B9.r" 
d="M-196 865q11 28 34 45t48 17q34 0 56.5 -24.5t22.5 -65.5q0 -16 -5.5 -38t-10.5 -29zM-150 848l62 -43q4 5 5.5 13.5t1.5 15.5q0 13 -7.5 25.5t-23.5 12.5q-10 0 -19.5 -6t-18.5 -18zM-348 684q-21 0 -32 18t-11 55q0 33 15.5 60.5t45.5 44.5t73 17q29 0 58 -10t58 -27
t56 -39t51 -46v-73h-314zM-326 747h209q-32 26 -57 41t-45.5 21t-37.5 6q-29 0 -49 -14.5t-20 -53.5z" />
    <glyph glyph-name="uni17BA" unicode="&#x17ba;" 
d="M-152 903h67v-219h-67v219zM-259 928h67v-114h-67v114zM-451 684q-25 0 -37 18t-12 55q0 33 17.5 60.5t51.5 44.5t83 17q36 0 72 -10t69.5 -27t64 -39t57.5 -46v-73h-366zM-426 747h248q-27 20 -51.5 33t-46 21t-39.5 11.5t-33 3.5q-37 0 -57.5 -15t-20.5 -54z" />
    <glyph glyph-name="uni17BA.r" 
d="M-101 903h67v-219h-67v219zM-201 928h67v-114h-67v114zM-348 684q-21 0 -32 18t-11 55q0 33 15.5 60.5t45.5 44.5t73 17q29 0 58 -10t58 -27t56 -39t51 -46v-73h-314zM-326 747h209q-32 26 -57 41t-45.5 21t-37.5 6q-29 0 -49 -14.5t-20 -53.5z" />
    <glyph glyph-name="uni17BB" unicode="&#x17bb;" 
d="M-321 -244v152h-52v58h144v-210h-92z" />
    <glyph glyph-name="uni17BB.b" 
d="M-321 -244v152h-52v58h144v-210h-92z" />
    <glyph glyph-name="uni17BC" unicode="&#x17bc;" 
d="M-297 -244q-73 0 -107.5 28t-34.5 79v103h82v-103q0 -14 6.5 -25.5t20 -17.5t33.5 -6q30 0 45 13.5t15 35.5v103h82v-103q0 -51 -34 -79t-108 -28z" />
    <glyph glyph-name="uni17BC.b" 
d="M-297 -244q-73 0 -107.5 28t-34.5 79v103h82v-103q0 -14 6.5 -25.5t20 -17.5t33.5 -6q30 0 45 13.5t15 35.5v103h82v-103q0 -51 -34 -79t-108 -28z" />
    <glyph glyph-name="uni17BD" unicode="&#x17bd;" 
d="M-456 -244v210h87v-152l72 64l71 -63v151h87v-210h-97l-61 53l-61 -53h-98z" />
    <glyph glyph-name="uni17BD.b" 
d="M-456 -244v210h87v-152l72 64l71 -63v151h87v-210h-97l-61 53l-61 -53h-98z" />
    <glyph glyph-name="uni17BE" unicode="&#x17be;" 
d="M782 654h-67v219h67v-219zM416 654q-25 0 -37 18t-12 55q0 33 17.5 60.5t51.5 44.5t83 17q36 0 72 -10t69.5 -27t64 -39t57.5 -46v-73h-366zM441 717h248q-27 20 -51.5 33t-46 21t-39.5 11.5t-33 3.5q-37 0 -57.5 -15t-20.5 -54zM189 377v-275q0 -20 7 -27.5t25 -7.5h47
v-67h-97q-37 0 -55.5 12.5t-18.5 37.5v327h92zM97 361v33l-46 57t-19 26t-4 14t5 14.5t18.5 27l40.5 53.5h121v-67h-121v-1l97 -108v-49h-92zM367 267q-10 0 -17 7t-7 17t7 17t17 7t17 -7t7 -17t-7 -17t-17 -7zM393 368q-10 0 -17 7t-7 17t7 17t17 7t17 -7t7 -17t-7 -17
t-17 -7zM464 438q-10 0 -17 7t-7 17t7 17t17 7t17 -7t7 -17t-7 -17t-17 -7zM561 462q-10 0 -17 7t-7 17t7 17t17 7t17 -7t7 -17t-7 -17t-17 -7zM658 438q-10 0 -17 7t-7 17t7 17t17 7t17 -7t7 -17t-7 -17t-17 -7zM728 366q-10 0 -17 7t-7 17t7 17t17 7t17 -7t7 -17t-7 -17
t-17 -7zM758 267q-10 0 -17 7t-7 17t7 17t17 7t17 -7t7 -17t-7 -17t-17 -7zM730 173q-10 0 -17 7t-7 17t7 17t17 7t17 -7t7 -17t-7 -17t-17 -7zM659 101q-10 0 -17 7t-7 17t7 17t17 7t17 -7t7 -17t-7 -17t-17 -7zM561 73q-10 0 -17 7t-7 17t7 17t17 7t17 -7t7 -17t-7 -17
t-17 -7zM464 100q-10 0 -17 7t-7 17t7 17t17 7t17 -7t7 -17t-7 -17t-17 -7zM391 172q-10 0 -17 7t-7 17t7 17t17 7t17 -7t7 -17t-7 -17t-17 -7z" />
    <glyph glyph-name="uni17BF" unicode="&#x17bf;" horiz-adv-x="1171" 
d="M189 377v-275q0 -20 7 -27.5t25 -7.5h47v-67h-97q-37 0 -55.5 12.5t-18.5 37.5v327h92zM97 361v33l-46 57t-19 26t-4 14t5 14.5t18.5 27l40.5 53.5h121v-67h-121v-1l97 -108v-49h-92zM402 267q-10 0 -17 7t-7 17t7 17t17 7t17 -7t7 -17t-7 -17t-17 -7zM428 368
q-10 0 -17 7t-7 17t7 17t17 7t17 -7t7 -17t-7 -17t-17 -7zM499 438q-10 0 -17 7t-7 17t7 17t17 7t17 -7t7 -17t-7 -17t-17 -7zM596 462q-10 0 -17 7t-7 17t7 17t17 7t17 -7t7 -17t-7 -17t-17 -7zM693 438q-10 0 -17 7t-7 17t7 17t17 7t17 -7t7 -17t-7 -17t-17 -7zM763 366
q-10 0 -17 7t-7 17t7 17t17 7t17 -7t7 -17t-7 -17t-17 -7zM793 267q-10 0 -17 7t-7 17t7 17t17 7t17 -7t7 -17t-7 -17t-17 -7zM765 173q-10 0 -17 7t-7 17t7 17t17 7t17 -7t7 -17t-7 -17t-17 -7zM694 101q-10 0 -17 7t-7 17t7 17t17 7t17 -7t7 -17t-7 -17t-17 -7zM596 73
q-10 0 -17 7t-7 17t7 17t17 7t17 -7t7 -17t-7 -17t-17 -7zM499 100q-10 0 -17 7t-7 17t7 17t17 7t17 -7t7 -17t-7 -17t-17 -7zM426 172q-10 0 -17 7t-7 17t7 17t17 7t17 -7t7 -17t-7 -17t-17 -7zM1073 581v-708q0 -117 -190 -117q-189 0 -189 117v78h117v-58h-25v-20
q0 -25 24 -37.5t73 -12.5t73.5 12.5t24.5 37.5v708h92zM981 578v52q0 31 -11 51.5t-32.5 31t-54.5 10.5h-183q-41 0 -56 20.5t-15 60.5q0 26 13 52t40.5 44t69.5 18q29 0 55.5 -7.5t60.5 -26t84 -52.5q44 -29 70.5 -62t38.5 -68t12 -72v-52h-92zM702 786h189q-24 21 -47 36
t-44.5 23.5t-40.5 8.5q-24 0 -40.5 -17t-16.5 -51zM873 863l-67 31v73h67v-104zM981 802l-68 37v103h68v-140z" />
    <glyph glyph-name="uni17BF.right1" horiz-adv-x="288" 
d="M190 581v-708q0 -117 -190 -117q-189 0 -189 117v78h117v-58h-25v-20q0 -25 24 -37.5t73 -12.5t73.5 12.5t24.5 37.5v708h92zM98 578v52q0 31 -11 51.5t-32.5 31t-54.5 10.5h-183q-41 0 -56 20.5t-15 60.5q0 26 13 52t40.5 44t69.5 18q29 0 55.5 -7.5t60.5 -26t84 -52.5
q44 -29 70.5 -62t38.5 -68t12 -72v-52h-92zM-181 786h189q-24 21 -47 36t-44.5 23.5t-40.5 8.5q-24 0 -40.5 -17t-16.5 -51zM-10 863l-67 31v73h67v-104zM98 802l-68 37v103h68v-140z" />
    <glyph glyph-name="uni17BF.right2" horiz-adv-x="288" 
d="M190 581v-890q0 -39 -21 -65.5t-63.5 -39.5t-105.5 -13t-105 13t-63 39.5t-21 65.5v5h92v-6q0 -25 24 -37.5t73 -12.5t73.5 12.5t24.5 37.5v891h92zM98 578v52q0 31 -11 51.5t-32.5 31t-54.5 10.5h-183q-41 0 -56 20.5t-15 60.5q0 26 13 52t40.5 44t69.5 18
q29 0 55.5 -7.5t60.5 -26t84 -52.5q44 -29 70.5 -62t38.5 -68t12 -72v-52h-92zM-181 786h189q-24 21 -47 36t-44.5 23.5t-40.5 8.5q-24 0 -40.5 -17t-16.5 -51zM-10 863l-67 31v73h67v-104zM98 802l-68 37v103h68v-140z" />
    <glyph glyph-name="uni17BF.right3" horiz-adv-x="288" 
d="M190 581v-1149q0 -39 -21 -65.5t-63.5 -39.5t-105.5 -13t-105 13t-63 39.5t-21 65.5v5h92v-5q0 -22 24 -36.5t73 -14.5t73.5 14.5t24.5 36.5v1149h92zM98 578v52q0 31 -11 51.5t-32.5 31t-54.5 10.5h-183q-41 0 -56 20.5t-15 60.5q0 26 13 52t40.5 44t69.5 18
q29 0 55.5 -7.5t60.5 -26t84 -52.5q44 -29 70.5 -62t38.5 -68t12 -72v-52h-92zM-181 786h189q-24 21 -47 36t-44.5 23.5t-40.5 8.5q-24 0 -40.5 -17t-16.5 -51zM-10 863l-67 31v73h67v-104zM98 802l-68 37v103h68v-140z" />
    <glyph glyph-name="uni17C0" unicode="&#x17c0;" horiz-adv-x="1170" 
d="M189 377v-275q0 -20 7 -27.5t25 -7.5h47v-67h-97q-37 0 -55.5 12.5t-18.5 37.5v327h92zM97 361v33l-46 57t-19 26t-4 14t5 14.5t18.5 27l40.5 53.5h121v-67h-121v-1l97 -108v-49h-92zM394 267q-10 0 -17 7t-7 17t7 17t17 7t17 -7t7 -17t-7 -17t-17 -7zM420 368
q-10 0 -17 7t-7 17t7 17t17 7t17 -7t7 -17t-7 -17t-17 -7zM491 438q-10 0 -17 7t-7 17t7 17t17 7t17 -7t7 -17t-7 -17t-17 -7zM588 462q-10 0 -17 7t-7 17t7 17t17 7t17 -7t7 -17t-7 -17t-17 -7zM685 438q-10 0 -17 7t-7 17t7 17t17 7t17 -7t7 -17t-7 -17t-17 -7zM755 366
q-10 0 -17 7t-7 17t7 17t17 7t17 -7t7 -17t-7 -17t-17 -7zM785 267q-10 0 -17 7t-7 17t7 17t17 7t17 -7t7 -17t-7 -17t-17 -7zM757 173q-10 0 -17 7t-7 17t7 17t17 7t17 -7t7 -17t-7 -17t-17 -7zM686 101q-10 0 -17 7t-7 17t7 17t17 7t17 -7t7 -17t-7 -17t-17 -7zM588 73
q-10 0 -17 7t-7 17t7 17t17 7t17 -7t7 -17t-7 -17t-17 -7zM491 100q-10 0 -17 7t-7 17t7 17t17 7t17 -7t7 -17t-7 -17t-17 -7zM418 172q-10 0 -17 7t-7 17t7 17t17 7t17 -7t7 -17t-7 -17t-17 -7zM1072 578v-705q0 -39 -21 -65t-63.5 -39t-105.5 -13t-105 13t-63 39t-21 65
v78h117v-58h-25v-16q0 -25 24 -39.5t73 -14.5t73.5 14.5t24.5 39.5v701h92zM980 576v73q0 56 -29 84.5t-78 28.5q-29 0 -51.5 -10t-37.5 -29h-92v244h92v-170q19 12 45 20t61 8q61 0 101.5 -19.5t60.5 -58.5t20 -98v-73h-92z" />
    <glyph glyph-name="uni17C0.right1" horiz-adv-x="288" 
d="M190 578v-705q0 -39 -21 -65t-63.5 -39t-105.5 -13t-105 13t-63 39t-21 65v78h117v-58h-25v-16q0 -25 24 -39.5t73 -14.5t73.5 14.5t24.5 39.5v701h92zM98 576v73q0 56 -29 84.5t-78 28.5q-29 0 -51.5 -10t-37.5 -29h-92v244h92v-170q19 12 45 20t61 8q61 0 101.5 -19.5
t60.5 -58.5t20 -98v-73h-92z" />
    <glyph glyph-name="uni17C0.right1.high" horiz-adv-x="288" 
d="M190 608v-735q0 -39 -21 -65t-63.5 -39t-105.5 -13t-105 13t-63 39t-21 65v78h117v-58h-25v-16q0 -25 24 -39.5t73 -14.5t73.5 14.5t24.5 39.5v731h92zM98 606v73q0 56 -29 84.5t-78 28.5q-29 0 -51.5 -10t-37.5 -29h-92v244h92v-170q19 12 45 20t61 8q61 0 101.5 -19.5
t60.5 -58.5t20 -98v-73h-92z" />
    <glyph glyph-name="uni17C0.right2" horiz-adv-x="288" 
d="M190 578v-887q0 -39 -21 -65.5t-63.5 -39.5t-105.5 -13t-105 13t-63 39.5t-21 65.5v5h92v-6q0 -25 24 -37.5t73 -12.5t73.5 12.5t24.5 37.5v888h92zM98 576v73q0 56 -29 84.5t-78 28.5q-29 0 -51.5 -10t-37.5 -29h-92v244h92v-170q19 12 45 20t61 8q61 0 101.5 -19.5
t60.5 -58.5t20 -98v-73h-92z" />
    <glyph glyph-name="uni17C0.right3" horiz-adv-x="288" 
d="M190 588v-1161q0 -59 -47.5 -88.5t-142.5 -29.5q-63 0 -105 13t-63 39.5t-21 65.5v9h92v-9q0 -25 24 -38t73 -13t73.5 13t24.5 38v1161h92zM98 576v73q0 56 -29 84.5t-78 28.5q-29 0 -51.5 -10t-37.5 -29h-92v244h92v-170q19 12 45 20t61 8q61 0 101.5 -19.5t60.5 -58.5
t20 -98v-73h-92z" />
    <glyph glyph-name="uni17C1" unicode="&#x17c1;" horiz-adv-x="288" 
d="M189 377v-275q0 -20 7 -27.5t25 -7.5h47v-67h-97q-37 0 -55.5 12.5t-18.5 37.5v327h92zM97 361v33l-46 57t-19 26t-4 14t5 14.5t18.5 27l40.5 53.5h121v-67h-121v-1l97 -108v-49h-92z" />
    <glyph glyph-name="uni17C2" unicode="&#x17c2;" horiz-adv-x="288" 
d="M115 635q-29 0 -55.5 9.5t-43 29t-16.5 50.5q0 44 32.5 67.5t97.5 23.5v-63q-27 0 -41 -7t-14 -22q0 -10 8 -17.5t27 -7.5q31 0 53 17.5t34.5 52t12.5 86.5h73q0 -74 -21 -123t-59 -72.5t-88 -23.5zM189 377v-275q0 -20 7 -27.5t25 -7.5h47v-67h-97q-37 0 -55.5 12.5
t-18.5 37.5v327h92zM97 361v33l-46 57t-19 26t-4 14t5 14.5t18.5 27l40.5 53.5h121v-67h-121v-1l97 -108v-49h-92z" />
    <glyph glyph-name="uni17C3" unicode="&#x17c3;" horiz-adv-x="288" 
d="M24 635v63h96q42 0 54 12.5t12 28.5q0 18 -10 27.5t-30 9.5q-21 0 -31 -9t-17 -20h-74v105q0 12 -6 17t-18 5v54h48q30 0 40 -11.5t10 -37.5v-63q9 8 25.5 14t38.5 6q47 0 74.5 -27t27.5 -74q0 -31 -13.5 -53.5t-42 -34.5t-73.5 -12h-111zM189 377v-275q0 -20 7 -27.5
t25 -7.5h47v-67h-97q-37 0 -55.5 12.5t-18.5 37.5v327h92zM97 361v33l-46 57t-19 26t-4 14t5 14.5t18.5 27l40.5 53.5h121v-67h-121v-1l97 -108v-49h-92z" />
    <glyph glyph-name="uni17C4" unicode="&#x17c4;" horiz-adv-x="1069" 
d="M879 0v458q0 35 -15.5 48t-62.5 13h-138v67h184q51 0 77.5 -14.5t36.5 -42.5t10 -71v-458h-92zM189 377v-275q0 -20 7 -27.5t25 -7.5h47v-67h-97q-37 0 -55.5 12.5t-18.5 37.5v327h92zM97 361v33l-46 57t-19 26t-4 14t5 14.5t18.5 27l40.5 53.5h121v-67h-121v-1l97 -108
v-49h-92zM334 267q-10 0 -17 7t-7 17t7 17t17 7t17 -7t7 -17t-7 -17t-17 -7zM360 368q-10 0 -17 7t-7 17t7 17t17 7t17 -7t7 -17t-7 -17t-17 -7zM431 438q-10 0 -17 7t-7 17t7 17t17 7t17 -7t7 -17t-7 -17t-17 -7zM528 462q-10 0 -17 7t-7 17t7 17t17 7t17 -7t7 -17t-7 -17
t-17 -7zM625 438q-10 0 -17 7t-7 17t7 17t17 7t17 -7t7 -17t-7 -17t-17 -7zM695 366q-10 0 -17 7t-7 17t7 17t17 7t17 -7t7 -17t-7 -17t-17 -7zM725 267q-10 0 -17 7t-7 17t7 17t17 7t17 -7t7 -17t-7 -17t-17 -7zM697 173q-10 0 -17 7t-7 17t7 17t17 7t17 -7t7 -17t-7 -17
t-17 -7zM626 101q-10 0 -17 7t-7 17t7 17t17 7t17 -7t7 -17t-7 -17t-17 -7zM528 73q-10 0 -17 7t-7 17t7 17t17 7t17 -7t7 -17t-7 -17t-17 -7zM431 100q-10 0 -17 7t-7 17t7 17t17 7t17 -7t7 -17t-7 -17t-17 -7zM358 172q-10 0 -17 7t-7 17t7 17t17 7t17 -7t7 -17t-7 -17
t-17 -7z" />
    <glyph glyph-name="uni17C5" unicode="&#x17c5;" horiz-adv-x="1069" 
d="M189 377v-275q0 -20 7 -27.5t25 -7.5h47v-67h-97q-37 0 -55.5 12.5t-18.5 37.5v327h92zM97 361v33l-46 57t-19 26t-4 14t5 14.5t18.5 27l40.5 53.5h121v-67h-121v-1l97 -108v-49h-92zM334 267q-10 0 -17 7t-7 17t7 17t17 7t17 -7t7 -17t-7 -17t-17 -7zM360 368
q-10 0 -17 7t-7 17t7 17t17 7t17 -7t7 -17t-7 -17t-17 -7zM431 438q-10 0 -17 7t-7 17t7 17t17 7t17 -7t7 -17t-7 -17t-17 -7zM528 462q-10 0 -17 7t-7 17t7 17t17 7t17 -7t7 -17t-7 -17t-17 -7zM625 438q-10 0 -17 7t-7 17t7 17t17 7t17 -7t7 -17t-7 -17t-17 -7zM695 366
q-10 0 -17 7t-7 17t7 17t17 7t17 -7t7 -17t-7 -17t-17 -7zM725 267q-10 0 -17 7t-7 17t7 17t17 7t17 -7t7 -17t-7 -17t-17 -7zM697 173q-10 0 -17 7t-7 17t7 17t17 7t17 -7t7 -17t-7 -17t-17 -7zM626 101q-10 0 -17 7t-7 17t7 17t17 7t17 -7t7 -17t-7 -17t-17 -7zM528 73
q-10 0 -17 7t-7 17t7 17t17 7t17 -7t7 -17t-7 -17t-17 -7zM431 100q-10 0 -17 7t-7 17t7 17t17 7t17 -7t7 -17t-7 -17t-17 -7zM358 172q-10 0 -17 7t-7 17t7 17t17 7t17 -7t7 -17t-7 -17t-17 -7zM960 605h-92v145q0 21 -6 29t-28 8h-63v67h102q37 0 55.5 -12t25 -35.5
t6.5 -56.5v-145zM879 0v458q0 35 -15.5 48t-62.5 13h-138v67h184q51 0 77.5 -14.5t36.5 -42.5t10 -71v-458h-92z" />
    <glyph glyph-name="uni17C5.right" horiz-adv-x="288" 
d="M179 605h-92v145q0 21 -6 29t-28 8h-63v67h102q37 0 55.5 -12t25 -35.5t6.5 -56.5v-145zM98 0v458q0 35 -15.5 48t-62.5 13h-138v67h184q51 0 77.5 -14.5t36.5 -42.5t10 -71v-458h-92z" />
    <glyph glyph-name="uni17C6" unicode="&#x17c6;" 
d="M-296 684q-31 0 -56.5 15.5t-41 41t-15.5 56.5t15.5 56.5t41 41t56.5 15.5t56.5 -15.5t41 -41t15.5 -56.5t-15.5 -56.5t-41 -41t-56.5 -15.5zM-297 745q22 0 37.5 15t15.5 37t-15 38t-38 16q-22 0 -37 -15.5t-15 -38.5q0 -22 15.5 -37t36.5 -15z" />
    <glyph glyph-name="uni17C6.r" 
d="M-165 684q-31 0 -56.5 15.5t-41 41t-15.5 56.5t15.5 56.5t41 41t56.5 15.5t56.5 -15.5t41 -41t15.5 -56.5t-15.5 -56.5t-41 -41t-56.5 -15.5zM-166 745q22 0 37.5 15t15.5 37t-15 38t-38 16q-22 0 -37 -15.5t-15 -38.5q0 -22 15.5 -37t36.5 -15z" />
    <glyph glyph-name="uni17C7" unicode="&#x17c7;" horiz-adv-x="386" 
d="M193 363q-31 0 -56.5 15.5t-41 41t-15.5 56.5t15.5 56.5t41 41t56.5 15.5t56.5 -15.5t41 -41t15.5 -56.5t-15.5 -56.5t-41 -41t-56.5 -15.5zM192 424q22 0 37.5 15t15.5 37t-15 38t-38 16q-22 0 -37 -15.5t-15 -38.5q0 -22 15.5 -37t36.5 -15zM193 -3q-31 0 -56.5 15.5
t-41 41t-15.5 56.5t15.5 56.5t41 41t56.5 15.5t56.5 -15.5t41 -41t15.5 -56.5t-15.5 -56.5t-41 -41t-56.5 -15.5zM192 58q22 0 37.5 15t15.5 37t-15 38t-38 16q-22 0 -37 -15.5t-15 -38.5q0 -22 15.5 -37t36.5 -15z" />
    <glyph glyph-name="uni17C8" unicode="&#x17c8;" horiz-adv-x="283" 
d="M137 422q-22 0 -35.5 16t-13.5 33q0 20 14 34.5t35 14.5q20 0 34.5 -14.5t14.5 -34.5q0 -22 -16 -35.5t-33 -13.5zM137 56q-22 0 -35.5 16t-13.5 33q0 20 14 34.5t35 14.5q20 0 34.5 -14.5t14.5 -34.5q0 -22 -16 -35.5t-33 -13.5z" />
    <glyph glyph-name="uni17C9" unicode="&#x17c9;" 
d="M-410 684v195h74v-195h-74zM-258 684v195h74v-195h-74z" />
    <glyph glyph-name="uni17C9.a" 
d="M-400 684v195h74v-195h-74zM-248 684v195h74v-195h-74z" />
    <glyph glyph-name="uni17C9.r" 
d="M-400 684v195h74v-195h-74zM-268 684v195h74v-195h-74z" />
    <glyph glyph-name="uni17CA" unicode="&#x17ca;" 
d="M-517 684v67h172l48 -53l48 53h172v-67h-440z" />
    <glyph glyph-name="uni17CA.r" 
d="M-481 684v67h144l40 -53l40 53h143v-67h-367z" />
    <glyph glyph-name="uni17CB" unicode="&#x17cb;" 
d="M-334 684v195h73v-195h-73z" />
    <glyph glyph-name="uni17CB.r" 
d="M-294 733v195h73v-195h-73z" />
    <glyph glyph-name="uni17CC" unicode="&#x17cc;" 
d="M-432 695l-40 52q74 46 124.5 95.5t65.5 95.5l59 -19q-15 -30 -27 -49.5t-23 -35t-25 -33.5q52 7 97 -9.5t76 -56.5l-56 -44q-28 35 -58 46t-62 11q-22 0 -43.5 -5.5t-42.5 -17t-45 -30.5z" />
    <glyph glyph-name="uni17CC.r" 
d="M-410 695l-33 52q62 46 104 95.5t54 95.5l49 -19q-12 -30 -22 -49.5t-19.5 -35l-20.5 -33.5q29 5 55 -1t49 -22t40 -43l-47 -44q-23 35 -48.5 46t-53.5 11q-27 0 -52.5 -12.5t-54.5 -40.5z" />
    <glyph glyph-name="uni17CD" unicode="&#x17cd;" 
d="M-369 684q-59 0 -89 20.5t-30 66.5q0 24 13 43t42 30t76 11h56q56 0 74 18t18 55h86q0 -63 -47.5 -100t-119.5 -37h-74q-22 0 -36.5 -5.5t-14.5 -18.5t12.5 -19.5t38.5 -6.5h27v-57h-32z" />
    <glyph glyph-name="uni17CD.r" 
d="M-175 684q-59 0 -89 20.5t-30 66.5q0 24 13 43t42 30t76 11h10q49 0 65.5 18t16.5 55h86q0 -42 -24 -72.5t-62 -47.5t-81 -17h-18q-22 0 -36.5 -5.5t-14.5 -18.5t12.5 -19.5t38.5 -6.5h27v-57h-32z" />
    <glyph glyph-name="uni17CE" unicode="&#x17ce;" 
d="M-333 684v91h-89v68h89v91h72v-91h89v-68h-89v-91h-72z" />
    <glyph glyph-name="uni17CE.r" 
d="M-107 684v91h-84v68h84v91h60v-91h85v-68h-85v-91h-60z" />
    <glyph glyph-name="uni17CF" unicode="&#x17cf;" 
d="M-492 684v98q0 50 30.5 74.5t91.5 24.5h67q65 0 97 12t32 35h73v-14q0 -23 -15 -43.5t-41 -33.5t-60 -13h-170q-19 0 -25 -9.5t-6 -24.5v-50l122 52l122 -53v48h73v-103h-78l-118 51l-112 -51h-83z" />
    <glyph glyph-name="uni17CF.r" 
d="M-459 684v98q0 50 25.5 74.5t75.5 24.5h56q54 0 81 12t27 35h60v-19q0 -20 -13.5 -40t-38.5 -32.5t-60 -12.5h-126q-16 0 -21 -9.5t-5 -24.5v-50l102 52l102 -53v48h60v-103h-65l-98 51l-93 -51h-69z" />
    <glyph glyph-name="uni17D0" unicode="&#x17d0;" 
d="M-324 682q-45 0 -73.5 11.5t-42.5 33t-14 49.5q0 55 42 79.5t115 24.5v-59q-41 0 -62 -9.5t-21 -29.5q0 -16 13.5 -26.5t51.5 -10.5q41 0 72 17.5t48.5 52.5t17.5 87h75q0 -66 -27 -115.5t-77 -77t-118 -27.5z" />
    <glyph glyph-name="uni17D1" unicode="&#x17d1;" 
d="M-507 684v67h420v-67h-420z" />
    <glyph glyph-name="uni17D1.r" 
d="M-472 684v67h350v-67h-350z" />
    <glyph glyph-name="uni17D2" unicode="&#x17d2;" 
d="M-334 -244v80h-98v60h98v80h73v-80h98v-60h-98v-80h-73z" />
    <glyph glyph-name="uni17D3" unicode="&#x17d3;" 
d="M-297 685q-52 0 -96.5 15t-72 42.5t-27.5 64.5q0 39 27.5 66t72 41.5t96.5 14.5t96.5 -15t71.5 -42t27 -65q0 -39 -27 -66.5t-71.5 -41.5t-96.5 -14zM-297 750q31 0 55 7t37.5 20t13.5 30q0 19 -14.5 31.5t-38.5 19t-53 6.5q-22 0 -41.5 -4t-34 -11.5t-22.5 -18t-8 -23.5
q0 -18 15 -31t39 -19.5t52 -6.5z" />
    <glyph glyph-name="uni17D3.r" 
d="M-297 685q-42 0 -82.5 13t-67 40t-26.5 69q0 44 26.5 70.5t67 39t82.5 12.5t82.5 -13t66.5 -39.5t26 -69.5q0 -44 -26 -71t-66.5 -39t-82.5 -12zM-297 750q26 0 45.5 7t30 20t10.5 30q0 19 -11.5 31.5t-31 19t-43.5 6.5t-43.5 -7t-31 -20t-11.5 -30q0 -18 12 -31
t31.5 -19.5t42.5 -6.5z" />
    <glyph glyph-name="uni17D4" unicode="&#x17d4;" horiz-adv-x="586" 
d="M396 0v462q-17 -23 -42.5 -40t-57 -25.5t-68.5 -8.5q-45 0 -74 14t-42.5 37t-13.5 49q0 35 15.5 56.5t42 31.5t60.5 10h26v-67h-16q-18 0 -27.5 -9t-9.5 -21q0 -9 4.5 -16.5t14.5 -12.5t25 -5q25 0 45.5 7t39 22t37.5 40t41 62h92v-586h-92z" />
    <glyph glyph-name="uni17D5" unicode="&#x17d5;" horiz-adv-x="732" 
d="M543 0v586h92v-586h-92zM396 0v462q-17 -23 -42.5 -40t-57 -25.5t-68.5 -8.5q-45 0 -74 14t-42.5 37t-13.5 49q0 35 15.5 56.5t42 31.5t60.5 10h26v-67h-16q-18 0 -27.5 -9t-9.5 -21q0 -9 4.5 -16.5t14.5 -12.5t25 -5q25 0 45.5 7t39 22t37.5 40t41 62h92v-586h-92z" />
    <glyph glyph-name="uni17D6" unicode="&#x17d6;" horiz-adv-x="477" 
d="M80 259v67h317v-67h-317zM240 -3q-31 0 -56.5 15.5t-41 41t-15.5 56.5t15.5 56.5t41 41t56.5 15.5t56.5 -15.5t41 -41t15.5 -56.5t-15.5 -56.5t-41 -41t-56.5 -15.5zM239 58q22 0 37.5 15t15.5 37t-15 38t-38 16q-22 0 -37 -15.5t-15 -38.5q0 -22 15.5 -37t36.5 -15z
M240 363q-31 0 -56.5 15.5t-41 41t-15.5 56.5t15.5 56.5t41 41t56.5 15.5t56.5 -15.5t41 -41t15.5 -56.5t-15.5 -56.5t-41 -41t-56.5 -15.5zM239 424q22 0 37.5 15t15.5 37t-15 38t-38 16q-22 0 -37 -15.5t-15 -38.5q0 -22 15.5 -37t36.5 -15z" />
    <glyph glyph-name="uni17D7" unicode="&#x17d7;" horiz-adv-x="586" 
d="M269 -195v67h7q49 0 75 10.5t35.5 30.5t9.5 48v524h-1q-25 -22 -47 -33t-43 -11q-24 0 -38.5 11t-24.5 25t-20 25t-25 11q-17 0 -24.5 -10t-7.5 -22q0 -14 10 -24.5t30 -10.5h9v-71h-25q-54 0 -85 30.5t-31 72.5q0 32 15 56.5t40 38t55 13.5t49 -12t31.5 -28l22.5 -28
t22 -12q9 0 19 5t21 15t23 25t25 35h92v-625q0 -38 -11.5 -67.5t-35 -49t-60.5 -29.5t-87 -10h-25z" />
    <glyph glyph-name="uni17D8" unicode="&#x17d8;" horiz-adv-x="1960" 
d="M396 0v462q-17 -23 -42.5 -40t-57 -25.5t-68.5 -8.5q-45 0 -74 14t-42.5 37t-13.5 49q0 35 15.5 56.5t42 31.5t60.5 10h26v-67h-16q-18 0 -27.5 -9t-9.5 -21q0 -9 4.5 -16.5t14.5 -12.5t25 -5q25 0 45.5 7t39 22t37.5 40t41 62h92v-586h-92zM1340 379v-221
q0 -79 -51 -118.5t-154 -39.5q-204 0 -204 158v270q0 45 -29 68t-87 23t-86.5 -23t-28.5 -68v-193h-92v193q0 158 207 158q208 0 208 -158v-270q0 -45 28 -68t84 -23q57 0 85 23t28 68v221h92zM608 247h92v-28q31 0 54.5 -11t37.5 -34.5t14 -60.5q0 -52 -30 -82.5t-74 -30.5
h-28q-27 0 -46.5 15t-19.5 45v187zM700 67q15 0 24.5 5.5t14.5 15.5t5 24q0 18 -10.5 28t-33.5 11v-84zM1248 361v33l-46 57t-19 26t-4 14t5 14.5t18.5 27l40.5 53.5h121v-67h-121v-1l97 -108v-49h-92zM1742 0v462q-17 -23 -42.5 -40t-57 -25.5t-68.5 -8.5q-45 0 -74 14
t-42.5 37t-13.5 49q0 35 15.5 56.5t42 31.5t60.5 10h26v-67h-16q-18 0 -27.5 -9t-9.5 -21q0 -9 4.5 -16.5t14.5 -12.5t25 -5q25 0 45.5 7t39 22t37.5 40t41 62h92v-586h-92z" />
    <glyph glyph-name="uni17D9" unicode="&#x17d9;" horiz-adv-x="732" 
d="M366 0q-89 0 -149 32.5t-89.5 98t-29.5 162.5q0 98 29.5 163t89.5 97.5t149 32.5q90 0 149.5 -32.5t89.5 -97.5t30 -163q0 -97 -30 -162.5t-89.5 -98t-149.5 -32.5zM366 49q101 0 151.5 61t50.5 183t-50.5 183t-151.5 61q-100 0 -150.5 -61t-50.5 -183t50.5 -183
t150.5 -61zM366 98q-44 0 -74 21.5t-45 65t-15 108.5t15 108.5t45 65t74 21.5q68 0 101 -48.5t33 -146.5q0 -65 -14.5 -108.5t-44.5 -65t-75 -21.5zM366 146q23 0 38 16.5t22.5 49t7.5 81.5t-7.5 81.5t-22.5 48.5t-38 16q-22 0 -37 -16t-22.5 -48.5t-7.5 -81.5t7.5 -81.5
t22.5 -49t37 -16.5z" />
    <glyph glyph-name="uni17DA" unicode="&#x17da;" horiz-adv-x="1399" 
d="M328 0q-76 0 -127 39t-77 106t-26 151q0 89 21.5 145.5t56 88t74 44t76.5 12.5q58 0 98.5 -19t61.5 -52t21 -75q0 -45 -22 -77t-61.5 -49t-90.5 -17v60q30 0 48 12t26 31t8 41q0 18 -8 37t-27.5 32t-52.5 13t-65 -22t-52.5 -72t-20.5 -134q0 -67 14.5 -112t36.5 -71.5
t46.5 -37.5t45.5 -11q25 0 46.5 8t41.5 25t40 44t41.5 65t46.5 87l119 239h81l123 -388l101 335h81l82 -279l56 120h128v-64h-92l-60 -149h-73l-81 297l-101 -350h-81l-127 401l-97 -189q-34 -67 -62 -116.5t-57.5 -82.5t-67.5 -49.5t-92 -16.5z" />
    <glyph glyph-name="uni17DB" unicode="&#x17db;" horiz-adv-x="332" 
d="M78 259v68h214v-68h-214zM152 361v33l-46 57t-19 26t-4 14t5 14.5t18.5 27l40.5 53.5h121v-67h-121v-1l97 -108v-49h-92zM244 376v-307q0 -37 -18 -53t-51 -16h-18q-27 0 -54 8.5t-45 32t-18 67.5q0 40 18 63.5t43.5 34.5t50.5 13v157h92zM152 67v84q-14 0 -29.5 -9
t-15.5 -33t14.5 -33t30.5 -9z" />
    <glyph glyph-name="uni17DC" unicode="&#x17dc;" horiz-adv-x="733" 
d="M353 0q-67 0 -117.5 16t-78 46.5t-27.5 72.5q0 33 11 56t30.5 36.5t46 20t56.5 6.5v-67q-9 0 -20.5 -4t-20 -14.5t-8.5 -29.5q0 -39 38.5 -52.5t99.5 -13.5q55 0 88.5 16.5t48.5 42.5t15 56q0 31 -12.5 52t-47 37t-102.5 31q-49 11 -90 22.5t-71 30.5t-46 50t-16 81
q0 61 31.5 104t86.5 65.5t124 22.5q73 0 123 -16.5t76.5 -44.5t26.5 -64q0 -30 -10 -52.5t-26.5 -37.5t-37.5 -22.5t-43 -7.5v67q7 0 13 2.5t10.5 8t7 14t2.5 19.5q0 17 -11.5 29.5t-31 21t-43 13t-48.5 4.5q-33 0 -61.5 -7t-50 -22t-33.5 -37.5t-12 -54.5q0 -30 8.5 -49
t27 -31t47 -20t67.5 -16q58 -12 101.5 -27.5t72 -37.5t42.5 -51t14 -68q0 -62 -27.5 -106.5t-82.5 -67.5t-140 -23z" />
    <glyph glyph-name="uni17DD" unicode="&#x17dd;" 
d="M-507 685q0 42 15.5 73.5t43 53.5t65 33t80.5 11q44 0 81 -11t65 -33t43.5 -53.5t15.5 -73.5h-74q0 40 -19.5 65t-49.5 36.5t-62 11.5t-62 -11.5t-49 -36.5t-19 -65h-74z" />
    <glyph glyph-name="uni17DD.r" 
d="M-477 685q0 42 13.5 73.5t37.5 53.5t55.5 33t67.5 11t67.5 -11t56 -33t38 -53.5t13.5 -73.5h-74q0 40 -14 65t-37 36.5t-50 11.5t-49.5 -11.5t-36.5 -36.5t-14 -65h-74z" />
    <glyph glyph-name="uni17E0" unicode="&#x17e0;" horiz-adv-x="635" 
d="M317 0q-109 0 -164 46.5t-55 139.5v214q0 93 55 139.5t164 46.5q110 0 165 -46.5t55 -139.5v-214q0 -93 -55 -139.5t-165 -46.5zM317 67q65 0 96.5 30t31.5 89v214q0 59 -31.5 89t-96.5 30q-64 0 -96 -30t-32 -89v-214q0 -59 32 -89t96 -30z" />
    <glyph glyph-name="uni17E1" unicode="&#x17e1;" horiz-adv-x="635" 
d="M317 0q-109 0 -164 39t-55 117h91q0 -44 32 -66.5t96 -22.5q65 0 96.5 22.5t31.5 66.5v274q0 44 -31.5 66.5t-96.5 22.5q-64 0 -96 -22.5t-32 -66.5v-59q0 -19 15.5 -30t46.5 -11h66v-76h-66q-51 0 -85 13t-51 39t-17 65v59q0 78 55 117t164 39q110 0 165 -39t55 -117
v-274q0 -52 -24.5 -86.5t-73 -52t-122.5 -17.5z" />
    <glyph glyph-name="uni17E2" unicode="&#x17e2;" horiz-adv-x="752" 
d="M375 0q-139 0 -208 49t-69 146v446h-49v67h95q24 0 35 -10.5t11 -30.5v-472q0 -64 46 -96t139 -32q94 0 140.5 32t46.5 96v309l-100 -85l-101 85v-144h25v-67h-117v293h92l101 -85l100 85h92v-391q0 -97 -69.5 -146t-209.5 -49z" />
    <glyph glyph-name="uni17E3" unicode="&#x17e3;" horiz-adv-x="861" 
d="M98 0v415q0 86 47.5 128.5t141.5 42.5q49 0 84.5 -11t58.5 -33q23 22 59 33t85 11q95 0 142.5 -44t47.5 -132v-410h-92v410q0 54 -24.5 81.5t-73.5 27.5t-73 -25.5t-24 -68.5v-425h-92v425q0 43 -24.5 68.5t-73.5 25.5t-73 -27.5t-24 -81.5v-343h48v-67h-140z" />
    <glyph glyph-name="uni17E4" unicode="&#x17e4;" horiz-adv-x="635" 
d="M317 0q-109 0 -164 49t-55 146v451h-49v67h88q31 0 41.5 -18.5t10.5 -54.5v-445q0 -64 32 -96t96 -32h157l-132 152v172q0 24 11 39t32.5 21.5t53.5 6.5h98v-67h-103v-148l103 -176l-24 -67h-196z" />
    <glyph glyph-name="uni17E5" unicode="&#x17e5;" horiz-adv-x="635" 
d="M317 0q-109 0 -164.5 40.5t-55.5 120.5v258q0 33 8 55.5t25.5 38t43.5 27.5q-11 13 -17.5 26.5t-6.5 31.5q0 22 10 39.5t30.5 28.5t49.5 11q31 0 51 -11t29.5 -28.5t9.5 -35.5q0 -19 -7 -34t-21 -29q24 -7 39.5 -8.5t33.5 -1.5q23 0 38.5 8.5t23.5 22.5t8 30v124h92v-124
q0 -41 -21 -70t-56.5 -44t-80.5 -15q-38 0 -73 8.5t-70 23.5q-20 -12 -33.5 -29t-13.5 -46v-257q0 -46 32 -70t96 -24h147l-122 113v113q0 37 24.5 67.5t67.5 30.5h103v-68h-103v-129l103 -127l-25 -67h-195z" />
    <glyph glyph-name="uni17E6" unicode="&#x17e6;" horiz-adv-x="635" 
d="M317 0q-73 0 -121.5 19t-73 57t-24.5 95q0 86 43 128.5t128 42.5h73v-67h-73q-26 0 -44 -11.5t-27 -34.5t-9 -58q0 -52 32 -78t96 -26q65 0 96.5 32t31.5 96v196q0 64 -31.5 96t-96.5 32q-64 0 -96 -24.5t-32 -74.5h-91v294h91v-154q32 13 64 19.5t64 6.5
q110 0 165 -48.5t55 -146.5v-196q0 -65 -24.5 -108.5t-73 -65t-122.5 -21.5z" />
    <glyph glyph-name="uni17E7" unicode="&#x17e7;" horiz-adv-x="781" 
d="M97 0v451q0 37 11.5 67.5t35.5 49t60 18.5q29 0 52.5 -15t48.5 -46q26 31 51 46t52 15q32 0 55.5 -18.5t36.5 -49t13 -67.5v-351q0 -16 12.5 -24.5t27.5 -8.5t27 8.5t12 24.5v614h92v-594q0 -41 -15 -67.5t-44 -39.5t-72 -13t-72.5 13t-44.5 39.5t-15 67.5v331
q0 31 -7 46.5t-21 15.5q-12 0 -26 -11.5t-34 -34.5q-13 -15 -28 -15t-27 15q-19 23 -34 34.5t-26 11.5q-14 0 -21.5 -15.5t-7.5 -46.5v-384h80v-67h-172z" />
    <glyph glyph-name="uni17E8" unicode="&#x17e8;" horiz-adv-x="635" 
d="M98 0v430q0 78 55 117t164 39q33 0 65 -6.5t63 -19.5v154h92v-284h-92q0 44 -31.5 66.5t-96.5 22.5q-64 0 -96 -22.5t-32 -66.5v-349l129 117l127 -116v193q0 13 -6 18.5t-19 5.5h-88v67h150q18 0 30 -5t18.5 -16.5t6.5 -31.5v-313h-106l-113 103l-113 -103h-107z" />
    <glyph glyph-name="uni17E9" unicode="&#x17e9;" horiz-adv-x="635" 
d="M317 0q-109 0 -164 38t-55 119v79q0 49 21.5 75t45.5 36q-16 7 -31.5 20.5t-25.5 34t-10 48.5q0 45 26 75t75 45.5t118 15.5q33 0 65 -4.5t63 -14.5v147h92v-254h-92q0 29 -31.5 44t-96.5 15q-64 0 -96 -19.5t-32 -59.5q0 -29 17.5 -44.5t58.5 -15.5h199v-67h-199
q-41 0 -58 -14t-17 -42v-111q0 -39 31.5 -59t95.5 -20q65 0 96.5 19.5t31.5 59.5q0 24 -19.5 38.5t-59.5 14.5h-49v62h49q57 0 95 -13.5t57 -40t19 -64.5q0 -66 -55 -104.5t-165 -38.5z" />
    <glyph glyph-name="uni17D21780" 
d="M-513 -244v106q0 32 19 58t62 41t115 15t115 -15t61.5 -41t18.5 -58v-106h-82v106q0 32 -25 48.5t-88 16.5t-88.5 -16.5t-25.5 -48.5v-106h-82z" />
    <glyph glyph-name="uni17D21781" 
d="M-317 -244q-49 0 -86 3.5t-61.5 11.5t-36.5 20t-12 30q0 20 11.5 29t44 14.5t96.5 12.5q51 6 84.5 11.5t50.5 12.5t17 14q0 8 -12 13.5t-36 8t-60 2.5q-55 0 -82 -10t-27 -30h-51q-26 0 -31 5t-5 16q0 19 21.5 31.5t65.5 18.5t109 6t108.5 -6.5t65 -19.5t21.5 -33
q0 -15 -17 -27.5t-50.5 -22t-84.5 -16.5q-50 -6 -84 -11.5t-51 -10.5t-17 -12q0 -12 27 -18.5t82 -6.5q54 0 81 10.5t27 30.5l87 19v-30q0 -33 -48.5 -49.5t-146.5 -16.5z" />
    <glyph glyph-name="uni17D21782" 
d="M-513 -244v106q0 32 19 58t62 41t115 15t115 -15t61.5 -41t18.5 -58v-106h-82v106q0 32 -25 48.5t-88 16.5t-88.5 -16.5t-25.5 -48.5v-19l88 42l31 -53l-119 -57v-19h-82z" />
    <glyph glyph-name="uni17D21783" horiz-adv-x="294" 
d="M190 379v-495q0 -64 -35 -96t-106 -32q-28 0 -52 7t-45 21q-19 -14 -43.5 -21t-57.5 -7q-42 0 -70.5 14.5t-43.5 43t-15 70.5v23h-25v44h113v-67q0 -27 13 -41t37 -14q27 0 38.5 14t11.5 41v67h88v-67q0 -27 12.5 -41t37.5 -14t37.5 14t12.5 41v495h92zM98 361v33l-46 57
t-19 26t-4 14t5 14.5t18.5 27l40.5 53.5h121v-67h-121v-1l97 -108v-49h-92z" />
    <glyph glyph-name="uni17D21783.low" horiz-adv-x="294" 
d="M190 385v-746q0 -64 -35 -96t-106 -32q-28 0 -52 7t-45 21q-19 -14 -43.5 -21t-57.5 -7q-42 0 -70.5 14.5t-43.5 43t-15 70.5v13h-25v44h113v-57q0 -27 13 -41t37 -14q27 0 38.5 14t11.5 41v57h88v-57q0 -27 12.5 -41t37.5 -14t37.5 14t12.5 41v746h92zM98 361v33l-46 57
t-19 26t-4 14t5 14.5t18.5 27l40.5 53.5h121v-67h-121v-1l97 -108v-49h-92z" />
    <glyph glyph-name="uni17D21784" 
d="M-369 -244q-50 0 -82 11.5t-47 33t-15 49.5q0 37 21 59.5t60 33.5t93 11v-59q-46 0 -69 -9.5t-23 -29.5q0 -16 15 -26.5t57 -10.5q46 0 80 17.5t53.5 52.5t19.5 87h84q0 -66 -30 -115.5t-85.5 -77t-131.5 -27.5z" />
    <glyph glyph-name="uni17D21785" 
d="M-182 -244q-2 14 -6 26t-16 28q-56 -31 -105.5 -44t-94.5 -13q-43 0 -71.5 16t-28.5 43q0 25 19.5 44.5l39.5 41.5q15 16 23.5 28.5t14 25t8.5 27.5l78 -31q-3 -12 -7.5 -22t-13 -21t-23.5 -25q-16 -16 -33 -29.5t-17 -26.5q0 -10 11.5 -12.5t27 -0.5t26.5 5q16 4 36 10
t40.5 14t34.5 16q-8 8 -13.5 19.5t-5.5 25.5q0 25 18 42t50 17q36 0 51.5 -19t15.5 -39q0 -15 -4 -26t-9 -18q23 -29 31 -49.5t8 -52.5h-85z" />
    <glyph glyph-name="uni17D21786" 
d="M-476 -244q-28 0 -46.5 16.5t-18.5 41.5q0 28 15.5 43.5t37.5 19.5v99h82v-99q26 0 47.5 -10.5t52.5 -30.5q10 -6 18.5 -10.5t18 -7.5t20.5 -3q18 0 29 12.5t11 37.5v56h-43v55h125v-108q0 -41 -16 -65.5t-40.5 -35.5t-51.5 -11q-25 0 -43.5 6t-35 15.5l-36.5 20.5
q-17 10 -28.5 15t-27.5 5q-7 -21 -22 -41.5t-48 -20.5z" />
    <glyph glyph-name="uni17D21787" 
d="M-403 -244q-33 0 -59.5 12t-42.5 36.5t-16 61.5q0 59 34 84.5t95 25.5h17v-64h-10q-25 0 -39.5 -11t-14.5 -32q0 -19 11.5 -31t34.5 -12q19 0 34 11t27 21.5t21 10.5q10 0 23.5 -10.5t30 -21.5t35.5 -11q11 0 18.5 3.5t12.5 10t7 16.5q-35 3 -50.5 19.5t-15.5 44.5
q0 25 20 42t51 17q37 0 56.5 -21t22.5 -38h48v-64h-54q-4 -23 -18 -46t-37.5 -38t-55.5 -15q-17 0 -31.5 4.5t-29 14.5t-31.5 24q-10 -14 -22 -24t-29 -15t-43 -5z" />
    <glyph glyph-name="uni17D21788" horiz-adv-x="234" 
d="M130 377v-513q0 -37 -15.5 -61t-47 -35.5t-78.5 -11.5q-25 0 -47 7t-41 21q-19 -14 -39.5 -21t-43.5 -7q-37 0 -64.5 9.5t-42 27t-14.5 42.5v42q0 18 -10 27.5t-30 9.5q-19 0 -29 -9.5t-10 -27.5v-77h39v-44h-121v121q0 46 28.5 69t92.5 23t93 -23t29 -69v-11
q0 -16 11.5 -26.5t29.5 -10.5t30.5 10.5t12.5 26.5v85h82v-85q0 -16 12 -26.5t34 -10.5q23 0 35 10.5t12 26.5v511h92zM38 361v33l-46 57t-19 26t-4 14t5 14.5t18.5 27l40.5 53.5h121v-67h-121v-1l97 -108v-49h-92z" />
    <glyph glyph-name="uni17D21788.low" horiz-adv-x="234" 
d="M130 377v-762q0 -37 -15.5 -61t-47 -35.5t-78.5 -11.5q-25 0 -47 7t-41 21q-19 -14 -39.5 -21t-43.5 -7q-37 0 -64.5 9.5t-42 27t-14.5 42.5v26q0 18 -10 27.5t-30 9.5q-19 0 -29 -9.5t-10 -27.5v-61h39v-44h-121v105q0 46 28.5 69t92.5 23t93 -23.5t29 -70.5v-5
q0 -10 12 -17.5t30 -7.5t30 7.5t12 17.5v79h82v-66q0 -12 12 -25t34 -13q23 0 35 13t12 25v759h92zM38 361v33l-46 57t-19 26t-4 14t5 14.5t18.5 27l40.5 53.5h121v-67h-121v-1l97 -108v-49h-92z" />
    <glyph glyph-name="uni17D21789" 
d="M-242 -230q-32 0 -54.5 5.5t-42 16.5t-41.5 27t-42.5 27t-40 16.5t-37.5 5.5h-32v78h11q34 0 63.5 -5.5t55 -17.5t45.5 -30q22 -19 41 -31.5t37 -19t37 -6.5q18 0 31 6.5t19.5 20.5t6.5 34h-78v68h160v-65q0 -45 -19.5 -74t-51.5 -42.5t-68 -13.5z" />
    <glyph glyph-name="uni17D21789.a" 
d="M-854 -146v76q0 23 14 34.5t36 11.5h15q25 0 47.5 -5t43 -12t39 -14t34.5 -12q20 7 42.5 17t48 18t55.5 8h335q24 0 35 -11.5t11 -34.5v-76h-82v72h-240v-72h-82v72l-123 -43l-147 43v-37h41v-35h-123zM-281 -248q-57 0 -111.5 5.5t-106.5 12.5t-106.5 10.5t-111.5 3.5
h-137v47h137q80 0 149 -5t127 -17t106 -17.5t82 -5.5t53.5 4.5t19.5 10.5h-82v38h164v-22q0 -33 -45.5 -49t-137.5 -16z" />
    <glyph glyph-name="uni17D2178A" 
d="M-448 -244q-65 0 -65 56v50q0 32 19 58t62 41t115 15t115 -15t61.5 -41t18.5 -58v-106h-82v106q0 22 -10.5 36t-35.5 21.5t-67 7.5q-63 0 -88.5 -18t-25.5 -61q0 -18 3 -27t9.5 -12.5t17.5 -3.5h61v-49h-108z" />
    <glyph glyph-name="uni17D2178A.r" 
d="M-304 -244q-27 0 -40.5 14t-13.5 42v50q0 32 15.5 58t51.5 41t96 15t95.5 -15t51 -41t15.5 -58v-106h-82v106q0 32 -20 48.5t-60 16.5t-60.5 -15.5t-20.5 -64.5q0 -16 2.5 -25t8 -13t14.5 -4h37v-49h-90z" />
    <glyph glyph-name="uni17D2178B" 
d="M-508 -240v163q0 18 10 27.5t38 9.5h252v20h82v-20h43v-48h-43v-152h-82l-109 52l-109 -52h-82zM-426 -174l109 44l109 -44v86h-218v-86z" />
    <glyph glyph-name="uni17D2178C" 
d="M-508 -216v50q0 14 6.5 21.5t28.5 9.5q68 7 117.5 13.5t82 12.5t48.5 11t16 9v13l-108 -24l-109 24v-32h-82v51q0 21 8.5 27t29.5 6h44l109 -33l108 33h49q20 0 26.5 -6.5t6.5 -26.5v-54q0 -6 -18 -13.5t-55 -15t-93.5 -16t-132.5 -17.5v-23l217 24v20h82v-92h-82v29
l-217 -29h-53q-17 0 -23 5.5t-6 22.5z" />
    <glyph glyph-name="uni17D2178D" horiz-adv-x="303" 
d="M199 380v-624h-92q-11 21 -31.5 36t-46.5 23.5t-54 8.5h-88v-68h-82v127l-108 -57l-109 57v-83h39v-44h-121v161q0 19 6 27t25 8h32q6 0 15 -3.5t23.5 -12l36.5 -21.5t53 -33l53 33.5t35 21t22 11t14 3.5h34q20 0 26 -8t6 -28v-43h67q41 0 82.5 -8t70.5 -25v541h92z
M107 361v33l-46 57t-19 26t-4 14t5 14.5t18.5 27l40.5 53.5h121v-67h-121v-1l97 -108v-49h-92z" />
    <glyph glyph-name="uni17D2178D.low" horiz-adv-x="303" 
d="M199 375v-854h-92q-11 21 -31.5 36t-46.5 23.5t-54 8.5h-88v-68h-82v116l-108 -57l-109 57v-72h39v-44h-121v150q0 19 6 27t25 8h32q6 0 15 -3.5t23.5 -12l36.5 -21.5t53 -33l53 33.5t35 21t22 11t14 3.5h34q20 0 26 -8t6 -28v-32h67q41 0 82.5 -8t70.5 -25v771h92z
M107 361v33l-46 57t-19 26t-4 14t5 14.5t18.5 27l40.5 53.5h121v-67h-121v-1l97 -108v-49h-92z" />
    <glyph glyph-name="uni17D2178E" 
d="M-987 -244v128q0 31 18.5 51t51 30.5t74.5 10.5q59 0 97.5 -22t38.5 -66v-62l87 46l88 -46v62q0 29 17.5 48.5t48 29.5t69.5 10q43 0 75.5 -10.5t51 -30.5t18.5 -51v-128h-82v128q0 13 -7.5 21t-20.5 12t-30 4q-13 0 -26.5 -4t-22.5 -12t-9 -21v-128h-72l-98 53l-97 -53
h-72v128q0 13 -9 21t-22.5 12t-26.5 4q-17 0 -30 -4t-20.5 -12t-7.5 -21v-73h39v-55h-121z" />
    <glyph glyph-name="uni17D2178E.alt" 
d="M-987 -244v128q0 31 18.5 51t51 30.5t74.5 10.5q59 0 97.5 -22t38.5 -66v-62l87 46l88 -46v62q0 29 17.5 48.5t48 29.5t69.5 10q43 0 75.5 -10.5t51 -30.5t18.5 -51v-128h-82v128q0 13 -7.5 21t-20.5 12t-30 4q-13 0 -26.5 -4t-22.5 -12t-9 -21v-128h-72l-98 53l-97 -53
h-72v128q0 13 -9 21t-22.5 12t-26.5 4q-17 0 -30 -4t-20.5 -12t-7.5 -21v-73h39v-55h-121z" />
    <glyph glyph-name="uni17D2178F" 
d="M-448 -244q-32 0 -48.5 14t-16.5 42v50q0 32 19 58t62 41t115 15t115 -15t61.5 -41t18.5 -58v-106h-82v106q0 32 -25 48.5t-88 16.5t-88.5 -16.5t-25.5 -48.5v-41q0 -8 6.5 -12t19.5 -4h65v-49h-108z" />
    <glyph glyph-name="uni17D2178F.r" 
d="M-304 -244q-27 0 -40.5 14t-13.5 42v50q0 32 15.5 58t51.5 41t96 15t95.5 -15t51 -41t15.5 -58v-106h-82v106q0 32 -20 48.5t-60 16.5t-60.5 -15.5t-20.5 -64.5q0 -16 2.5 -25t8 -13t14.5 -4h37v-49h-90z" />
    <glyph glyph-name="uni17D21790" 
d="M-541 -244q0 72 17.5 120t52 72.5t86.5 24.5q30 0 55 -10t47.5 -26.5t43.5 -38.5l37 -38.5t25.5 -22.5t27 -11t41.5 -3v-67q-49 0 -79 10t-50.5 28t-43.5 42l-41 43t-30 22.5t-33 6.5q-15 0 -31 -8.5t-27 -27.5t-11 -52h79v-64h-166z" />
    <glyph glyph-name="uni17D21791" 
d="M-224 -244q5 6 8.5 12t3.5 12q0 5 -3.5 9.5t-10.5 3.5l-199 -12q-33 -2 -52.5 6.5t-27.5 22t-8 27.5q0 22 17.5 39.5t59.5 21.5l151 12q38 3 56.5 12t19.5 17h-39v37h126v-21q0 -21 -11 -36t-33 -23.5t-56 -12.5l-173 -20q-21 -2 -29.5 -8t-7.5 -17t10.5 -14t29.5 -1
l270 29v-55q0 -20 -8.5 -30.5t-24.5 -10.5h-69z" />
    <glyph glyph-name="uni17D21792" 
d="M-408 -244q-46 0 -75.5 18t-29.5 58v61l125 26.5t92.5 21t61.5 18t31 17.5h81v-72q0 -43 -15 -66.5t-38.5 -33t-49.5 -9.5q-25 0 -41.5 7t-27.5 14q-7 -22 -33.5 -41t-80.5 -19zM-396 -193q15 0 26.5 6.5t18 17.5t6.5 24v20l-86 -19v-19q0 -9 4 -16t12 -10.5t19 -3.5z
M-204 -109v17l-86 -20v-16q0 -7 5 -12t14 -7.5t21 -2.5q23 0 34.5 11.5t11.5 29.5z" />
    <glyph glyph-name="uni17D21793" 
d="M-187 -244q-30 0 -44 16t-16 28l-142 -10q-87 -6 -119.5 13.5t-32.5 56.5q0 29 16 45.5t49.5 24t86.5 7.5h142v39h82v-39h63v-49h-63v-36q20 -4 28.5 -16t8.5 -29q0 -19 -14.5 -35t-44.5 -16zM-247 -151v39h-142q-36 0 -53.5 -4t-17.5 -21q0 -10 7 -15.5t28.5 -6.5t64 1
t113.5 7z" />
    <glyph glyph-name="uni17D21794" horiz-adv-x="294" 
d="M190 376v-615h-110l-85 61l-85 -61h-102v190h131v-46h-49v-73l105 75l103 -74v543h92zM98 361v33l-46 57t-19 26t-4 14t5 14.5t18.5 27l40.5 53.5h121v-67h-121v-1l97 -108v-49h-92z" />
    <glyph glyph-name="uni17D21794.low" horiz-adv-x="294" 
d="M190 376v-865h-110l-85 61l-85 -61h-102v185h131v-46h-49v-68l105 75l103 -74v793h92zM98 361v33l-46 57t-19 26t-4 14t5 14.5t18.5 27l40.5 53.5h121v-67h-121v-1l97 -108v-49h-92z" />
    <glyph glyph-name="uni17D21795" 
d="M-508 -244v220h82v-149l109 64l108 -64v90h-65v59h147v-220h-82l-108 64l-109 -64h-82z" />
    <glyph glyph-name="uni17D21796" 
d="M-508 -244v220h82l109 -58l108 58h82v-220h-82v152l-108 -57l-109 57v-97h44v-55h-126z" />
    <glyph glyph-name="uni17D21797" 
d="M-565 -244v49h52v57q0 32 19 58t62 41t115 15t115 -15t61.5 -41t18.5 -58v-106h-82v106q0 32 -25 48.5t-88 16.5t-88.5 -16.5t-25.5 -48.5v-106h-134z" />
    <glyph glyph-name="uni17D21797.r" 
d="M-415 -244v49h52v57q0 32 15.5 58t52.5 41t100 15t99.5 -15t52 -41t15.5 -58v-106h-82v106q0 32 -17.5 48.5t-67.5 16.5q-49 0 -67.5 -16.5t-18.5 -48.5v-106h-134z" />
    <glyph glyph-name="uni17D21798" 
d="M-162 -244q-20 0 -34.5 9t-22.5 22.5t-11 28.5h-299v60h299v100h82v-100q25 -4 36.5 -21.5t11.5 -36.5q0 -17 -7.5 -31t-21.5 -22.5t-33 -8.5z" />
    <glyph glyph-name="uni17D21798.r" 
d="M-47 -244q-20 0 -34.5 9t-22.5 22.5t-11 28.5h-258v60h258v100h82v-100q25 -4 36.5 -21.5t11.5 -36.5q0 -25 -16.5 -43.5t-45.5 -18.5z" />
    <glyph glyph-name="uni17D21799" horiz-adv-x="298" 
d="M194 370v-473q0 -50 -27.5 -81.5t-71.5 -45.5t-93 -14q-53 0 -95.5 14.5t-67 45.5t-24.5 81v54h82v-48q0 -37 27.5 -58.5t74.5 -21.5q27 0 50.5 10t38 28t14.5 42v467h92zM102 361v33l-46 57t-19 26t-4 14t5 14.5t18.5 27l40.5 53.5h121v-67h-121v-1l97 -108v-49h-92z
" />
    <glyph glyph-name="uni17D21799.low" horiz-adv-x="303" 
d="M199 370v-677q0 -50 -28.5 -80.5t-73 -43.5t-93.5 -13q-53 0 -94.5 13.5t-65.5 43.5t-24 80v3h82v-3q0 -22 14.5 -37.5t38 -24t49.5 -8.5q27 0 50.5 8.5t38 24t14.5 37.5v677h92zM107 361v33l-46 57t-19 26t-4 14t5 14.5t18.5 27l40.5 53.5h121v-67h-121v-1l97 -108v-49
h-92z" />
    <glyph glyph-name="uni17D2179A" horiz-adv-x="287" 
d="M190 377v-474q0 -24 13 -42t35 -28t49 -10q41 0 69.5 21.5t28.5 58.5v48h92v-54q0 -50 -27 -81.5t-70.5 -45.5t-92.5 -14t-92 14t-70 45.5t-27 81.5v480h92zM98 361v33l-46 57t-19 26t-4 14t5 14.5t18.5 27l40.5 53.5h121v-67h-121v-1l97 -108v-49h-92z" />
    <glyph glyph-name="uni17D2179A.low" horiz-adv-x="287" 
d="M190 376v-680q0 -19 13 -35t35 -25.5t49 -9.5q40 0 68.5 20t29.5 48v2h92v-3q0 -47 -27.5 -77t-70.5 -43.5t-92 -13.5t-92 14t-70 44.5t-27 78.5v680h92zM98 361v33l-46 57t-19 26t-4 14t5 14.5t18.5 27l40.5 53.5h121v-67h-121v-1l97 -108v-49h-92z" />
    <glyph glyph-name="uni17D2179B" 
d="M-524 -244q0 69 11.5 112.5t30.5 67t41 32t43 8.5q27 0 46 -10t33 -28t25 -42q19 -38 27.5 -60t28.5 -22q19 0 29.5 19t15 55.5t3.5 87.5h82q0 -89 -18 -137.5t-47 -66.5t-63 -18q-44 0 -66 23t-39 59q-12 27 -20.5 44.5t-16.5 26t-21 8.5t-21 -9.5t-13 -29t-7 -49.5
t-2 -71h-82z" />
    <glyph glyph-name="uni17D2179C" 
d="M-359 -244q-43 0 -77 9t-53.5 31.5t-19.5 62.5v25l96 23t67.5 18t62 21l79.5 30h80v-38q0 -45 -18 -79t-50 -57t-74.5 -34.5t-92.5 -11.5zM-356 -182q29 0 63.5 13t59 34.5t24.5 45.5l-56.5 -22t-45 -15.5t-48.5 -13l-67 -15.5q9 -16 24 -21.5t46 -5.5z" />
    <glyph glyph-name="uni17D2179D" 
d="M-276 -172v56h180v-56h-180zM-513 -244v106q0 32 19 58t62 41t115 15t115 -15t61.5 -41t18.5 -58v-106h-82v106q0 32 -25 48.5t-88 16.5t-88.5 -16.5t-25.5 -48.5v-19l88 42l31 -53l-119 -57v-19h-82z" />
    <glyph glyph-name="uni17D2179E" horiz-adv-x="297" 
d="M193 379v-312h54v-67h-54v-239h-107l-88 61l-88 -61h-98v190h131v-46h-49v-73l104 75l103 -74v167h-68v67h68v312h92zM101 361v33l-46 57t-19 26t-4 14t5 14.5t18.5 27l40.5 53.5h121v-67h-121v-1l97 -108v-49h-92z" />
    <glyph glyph-name="uni17D2179E.low" horiz-adv-x="297" 
d="M193 379v-562h54v-67h-54v-239h-107l-88 61l-88 -61h-98v185h131v-46h-49v-68l104 75l103 -74v167h-68v67h68v562h92zM101 361v33l-46 57t-19 26t-4 14t5 14.5t18.5 27l40.5 53.5h121v-67h-121v-1l97 -108v-49h-92z" />
    <glyph glyph-name="uni17D2179F" horiz-adv-x="302" 
d="M198 383v-316h54v-67h-54v-107q0 -50 -29 -80.5t-74 -43.5t-94 -13q-53 0 -94 13.5t-64.5 45.5t-23.5 85v2h-55v49h137v-48q0 -24 14 -42t36.5 -28t49.5 -10t51 10t39 28t15 42v97h-98v67h98v316h92zM106 361v33l-46 57t-19 26t-4 14t5 14.5t18.5 27l40.5 53.5h121v-67
h-121v-1l97 -108v-49h-92z" />
    <glyph glyph-name="uni17D2179F.low" horiz-adv-x="302" 
d="M198 383v-572h54v-67h-54v-107q0 -50 -29 -80.5t-74 -43.5t-94 -13q-53 0 -94 13.5t-64.5 45.5t-23.5 85v3h-45v49h127v-49q0 -40 30 -60t70 -20q27 0 51 9t39 26.5t15 44.5v97h-98v67h98v572h92zM106 361v33l-46 57t-19 26t-4 14t5 14.5t18.5 27l40.5 53.5h121v-67h-121
v-1l97 -108v-49h-92z" />
    <glyph glyph-name="uni17D217A0" 
d="M-441 -244q-30 0 -48.5 19t-18.5 53v148h82v-126q0 -28 28 -28h12q28 0 28 30v47q0 42 23 59.5t63 17.5h69q37 0 57 -20t20 -64v-136h-82v124q0 14 -7.5 22t-22.5 8h-8q-30 0 -30 -30v-55q0 -32 -14.5 -50.5t-49.5 -18.5h-101z" />
    <glyph glyph-name="uni17D217A1" horiz-adv-x="288" 
d="M190 377v-616h-106l-106 91l-106 -91h-97v94q0 14 -12 19.5t-37 5.5v71h63q34 0 51 -18t17 -53v-38l121 105l120 -105v535h92zM98 361v33l-46 57t-19 26t-4 14t5 14.5t18.5 27l40.5 53.5h121v-67h-121v-1l97 -108v-49h-92z" />
    <glyph glyph-name="uni17D217A2" 
d="M-536 -244v55h49v165h82v-55h195v55h82v-220h-131v55h49v55h-195v-110h-131z" />
    <glyph glyph-name="uni17D217A7" 
d="M-508 -216v50q0 14 6.5 21.5t28.5 9.5q68 7 117.5 13.5t82 13t48.5 13t16 13.5v16h-217v-32h-82v32q0 23 10.5 32.5t44.5 9.5h281q23 0 34 -11.5t11 -31.5v-17q0 -16 -18 -29t-55 -23t-93.5 -19t-132.5 -18v-23l217 24v20h82v-92h-82v29l-217 -29h-53q-17 0 -23 5.5
t-6 22.5z" />
    <glyph glyph-name="uni17D217AB" 
d="M-123 -87h-92v-1l86 -85v-117q0 -48 -42.5 -81t-143.5 -33q-100 0 -142.5 33t-42.5 81v102q-28 33 -41 49.5t-13 25.5q0 5 4.5 13t17.5 25.5l38 50.5h92v-63h-92v-1l76 -85v-112q0 -32 24 -48.5t79 -16.5q56 0 80 16.5t24 48.5v97l-38 35.5t-20 22.5t-6 17q0 5 4.5 13
t17.5 25.5l38 50.5h92v-63zM-248 -477v54h121v-29q0 -55 -32 -89.5t-87 -50t-125 -15.5h-121v54h121q84 0 126 18t42 58h-45z" />
    <glyph glyph-name="uni17D217AC" 
d="M-194 -568l39 41q11 -16 23.5 -25.5t28.5 -9.5h18v-44h-22q-24 0 -46 10t-41 28zM-123 -87h-92v-1l86 -85v-117q0 -48 -42.5 -81t-143.5 -33q-100 0 -142.5 33t-42.5 81v102q-28 33 -41 49.5t-13 25.5q0 5 4.5 13t17.5 25.5l38 50.5h92v-63h-92v-1l76 -85v-112
q0 -32 24 -48.5t79 -16.5q56 0 80 16.5t24 48.5v97l-38 35.5t-20 22.5t-6 17q0 5 4.5 13t17.5 25.5l38 50.5h92v-63zM-248 -477v54h121v-29q0 -55 -32 -89.5t-87 -50t-125 -15.5h-121v54h121q84 0 126 18t42 58h-45z" />
    <glyph glyph-name="uni17D217AF" 
d="M-483 -428v143q0 9 -10.5 13.5t-33.5 4.5v64h66q31 0 46.5 -16t15.5 -48v-87l112 59l116 -58v135q0 25 -9.5 41t-28.5 24.5t-47 8.5h-85q-61 0 -103.5 27.5t-42.5 85.5v7h84v-7q0 -15 7 -26.5t21 -18.5t34 -7h127q42 0 70 -15t42 -45t14 -75v-210h-96l-103 47l-100 -47
h-96z" />
    <glyph glyph-name="uni178017C5" horiz-adv-x="924" 
d="M98 519v67h440v-67h-440zM98 0v293q0 79 55.5 118.5t164.5 39.5q110 0 165 -39.5t55 -118.5v-293h-92v293q0 45 -31.5 68t-96.5 23q-64 0 -96 -23t-32 -68v-293h-92zM815 605h-92v145q0 21 -6 29t-28 8h-63v67h102q37 0 55.5 -12t25 -35.5t6.5 -56.5v-145zM734 0v458
q0 35 -15.5 48t-62.5 13h-138v67h184q51 0 77.5 -14.5t36.5 -42.5t10 -71v-458h-92z" />
    <glyph glyph-name="uni178117C5" horiz-adv-x="923" 
d="M317 0q-81 0 -129 21t-69 56.5t-21 80.5v128l173 25q87 13 130.5 42.5t43.5 81.5q0 40 -28.5 62t-99.5 22q-70 0 -99 -20.5t-29 -42.5q0 -18 12.5 -26.5t36.5 -8.5v-70h-42q-37 0 -67.5 22.5t-30.5 71.5q0 35 21 67.5t69 53t129 20.5q82 0 130 -20.5t69 -54t21 -73.5
q0 -54 -29 -92.5t-87 -63.5t-145 -38l-86 -13v-73q0 -45 28.5 -68t98.5 -23q71 0 99.5 23t28.5 68v76h92v-76q0 -45 -21 -80.5t-69 -56.5t-130 -21zM814 605h-92v145q0 21 -6 29t-28 8h-63v67h102q37 0 55.5 -12t25 -35.5t6.5 -56.5v-145zM733 0v458q0 35 -15.5 48t-62.5 13
h-138v67h184q51 0 77.5 -14.5t36.5 -42.5t10 -71v-458h-92z" />
    <glyph glyph-name="uni178217C5" horiz-adv-x="923" 
d="M98 519v67h439v-67h-439zM98 0v293q0 79 55 118.5t164 39.5q110 0 165 -39.5t55 -118.5v-293h-92v293q0 45 -31.5 67.5t-96.5 22.5q-64 0 -96 -22.5t-32 -67.5v-137q17 20 40 29.5t51 9.5h62v-67h-51q-50 0 -70.5 -22.5t-31.5 -63.5v-42h-91zM814 605h-92v145q0 21 -6 29
t-28 8h-63v67h102q37 0 55.5 -12t25 -35.5t6.5 -56.5v-145zM733 0v458q0 35 -15.5 48t-62.5 13h-138v67h184q51 0 77.5 -14.5t36.5 -42.5t10 -71v-458h-92z" />
    </font>
</defs>
</svg>
