<?xml version="1.0" standalone="no"?>
<!DOCTYPE svg PUBLIC "-//W3C//DTD SVG 1.1//EN" "http://www.w3.org/Graphics/SVG/1.1/DTD/svg11.dtd" >
<svg>
<metadata>
Created by FontForge 20090622 at Wed May  6 16:40:54 2020
 By deploy user
Copyright 2019 Google LLC. All Rights Reserved.
</metadata>
<defs>
<font id="NotoSans-Italic" horiz-adv-x="0" >
  <font-face 
    font-family="Noto Sans"
    font-weight="400"
    font-style="italic"
    font-stretch="normal"
    units-per-em="1000"
    panose-1="2 11 5 2 4 5 4 9 2 4"
    ascent="800"
    descent="-200"
    x-height="536"
    cap-height="714"
    bbox="-665 -389 2767 1084"
    underline-thickness="50"
    underline-position="-75"
    slope="-12"
    unicode-range="U+000D-U+FFFD"
  />
<missing-glyph horiz-adv-x="600" 
d="M94 0v714h411v-714h-411zM145 51h309v612h-309v-612z" />
    <glyph glyph-name="f_f" unicode="ff" horiz-adv-x="638" 
d="M-48 -240q-19 0 -35 3t-29 7v74l27 -7.5t29 -3.5q30 0 52.5 25t35.5 89l110 522h-93l7 37l100 33l11 48q12 51 28 85.5t37.5 55t50.5 29t66 8.5q25 0 51.5 -5.5t42.5 -13.5l-23 -67q-14 5 -30.5 9.5t-36.5 4.5q-39 0 -61.5 -22t-36.5 -84l-12 -51h231l12 52q12 51 28 85
t37.5 54.5t50.5 29t66 8.5q26 0 52.5 -5.5t42.5 -13.5l-24 -67q-14 5 -30.5 9.5t-35.5 4.5q-40 0 -62.5 -22t-36.5 -84l-12 -51h116l-14 -67h-115l-112 -532q-12 -55 -32.5 -95t-52.5 -61t-81 -21q-19 0 -35.5 3t-27.5 7v74q12 -4 26 -7.5t30 -3.5q30 0 52 25.5t35 88.5
l110 522h-231l-112 -532q-12 -55 -32.5 -95t-53 -61t-80.5 -21z" />
    <glyph glyph-name="f_f_i" unicode="ffi" horiz-adv-x="896" 
d="M-48 -240q-19 0 -35 3t-29 7v74l27 -7.5t29 -3.5q30 0 52.5 25t35.5 89l110 522h-93l7 37l100 33l11 48q12 51 28 85.5t37.5 55t50.5 29t66 8.5q25 0 51.5 -5.5t42.5 -13.5l-23 -67q-14 5 -30.5 9.5t-36.5 4.5q-39 0 -61.5 -22t-36.5 -84l-12 -51h231l12 52q12 51 28 85
t37.5 54.5t50.5 29t66 8.5q26 0 52.5 -5.5t42.5 -13.5l-24 -67q-14 5 -30.5 9.5t-35.5 4.5q-40 0 -62.5 -22t-36.5 -84l-12 -51h116l-14 -67h-115l-112 -532q-12 -55 -32.5 -95t-52.5 -61t-81 -21q-19 0 -35.5 3t-27.5 7v74q12 -4 26 -7.5t30 -3.5q30 0 52 25.5t35 88.5
l110 522h-231l-112 -532q-12 -55 -32.5 -95t-53 -61t-80.5 -21zM666 0l115 536h88l-115 -536h-88zM851 625q-19 0 -33 12.5t-14 34.5q0 17 7 31.5t20.5 23.5t31.5 9q23 0 34 -12t11 -33q0 -31 -18 -48.5t-39 -17.5z" />
    <glyph glyph-name="f_f_l" unicode="ffl" horiz-adv-x="896" 
d="M-48 -240q-19 0 -35 3t-29 7v74l27 -7.5t29 -3.5q30 0 52.5 25t35.5 89l110 522h-93l7 37l100 33l11 48q12 51 28 85.5t37.5 55t50.5 29t66 8.5q25 0 51.5 -5.5t42.5 -13.5l-23 -67q-14 5 -30.5 9.5t-36.5 4.5q-39 0 -61.5 -22t-36.5 -84l-12 -51h231l12 52q12 51 28 85
t37.5 54.5t50.5 29t66 8.5q26 0 52.5 -5.5t42.5 -13.5l-24 -67q-14 5 -30.5 9.5t-35.5 4.5q-40 0 -62.5 -22t-36.5 -84l-12 -51h116l-14 -67h-115l-112 -532q-12 -55 -32.5 -95t-52.5 -61t-81 -21q-19 0 -35.5 3t-27.5 7v74q12 -4 26 -7.5t30 -3.5q30 0 52 25.5t35 88.5
l110 522h-231l-112 -532q-12 -55 -32.5 -95t-53 -61t-80.5 -21zM666 0l161 760h88l-162 -760h-87z" />
    <glyph glyph-name="fi" unicode="fi" horiz-adv-x="576" 
d="M-48 -240q-19 0 -35 3t-29 7v74l27 -7.5t29 -3.5q36 0 56 29.5t32 84.5l110 522h-93l7 37l100 33l11 48q12 51 28 85.5t37.5 55t50.5 29t66 8.5q25 0 51.5 -5.5t42.5 -13.5l-23 -67q-14 5 -30.5 9.5t-36.5 4.5q-39 0 -61.5 -22t-36.5 -84l-12 -51h115l-13 -67h-115
l-112 -532q-12 -55 -32.5 -95t-53 -61t-80.5 -21zM346 0l114 536h88l-114 -536h-88zM531 625q-21 0 -34.5 12.5t-13.5 34.5q0 17 7 31.5t20 23.5t32 9q23 0 34.5 -12t11.5 -33q0 -31 -18 -48.5t-39 -17.5z" />
    <glyph glyph-name="fl" unicode="fl" horiz-adv-x="576" 
d="M-48 -240q-19 0 -35 3t-29 7v74l27 -7.5t29 -3.5q36 0 56 29.5t32 84.5l110 522h-93l7 37l100 33l11 48q12 51 28 85.5t37.5 55t50.5 29t66 8.5q25 0 51.5 -5.5t42.5 -13.5l-23 -67q-14 5 -30.5 9.5t-36.5 4.5q-39 0 -61.5 -22t-36.5 -84l-12 -51h115l-13 -67h-115
l-112 -532q-12 -55 -32.5 -95t-53 -61t-80.5 -21zM345 0l162 760h88l-162 -760h-88z" />
    <glyph glyph-name=".notdef" horiz-adv-x="600" 
d="M94 0v714h411v-714h-411zM145 51h309v612h-309v-612z" />
    <glyph glyph-name="NULL" 
 />
    <glyph glyph-name="NULL" 
 />
    <glyph glyph-name="CR" unicode="&#xd;" horiz-adv-x="260" 
 />
    <glyph glyph-name="space" unicode=" " horiz-adv-x="260" 
 />
    <glyph glyph-name="exclam" unicode="!" horiz-adv-x="261" 
d="M77 201l91 513h107l-127 -513h-71zM73 -14q-25 0 -39 14.5t-14 39.5q0 32 18 56.5t57 24.5q23 0 37 -14t14 -40q0 -29 -17.5 -55t-55.5 -26z" />
    <glyph glyph-name="quotedbl" unicode="&#x22;" horiz-adv-x="392" 
d="M281 456l35 258h96l-75 -258h-56zM109 456l35 258h96l-75 -258h-56z" />
    <glyph glyph-name="numbersign" unicode="#" horiz-adv-x="646" 
d="M97 0l59 209h-126l6 66h139l48 162h-134l6 65h146l60 212h72l-61 -212h144l62 212h68l-60 -212h128l-7 -65h-141l-47 -162h138l-6 -66h-151l-60 -209h-72l63 209h-144l-61 -209h-69zM246 275h144l45 162h-143z" />
    <glyph glyph-name="dollar" unicode="$" horiz-adv-x="551" 
d="M166 -58l24 108q-41 2 -83 11.5t-73 24.5v80q39 -20 85 -31.5t85 -12.5l47 215q-41 15 -70.5 35t-45.5 49t-16 71q0 57 26.5 95t72.5 59.5t103 26.5l19 85h65l-18 -86q38 -3 73 -12t65 -25l-33 -71q-23 13 -54 23.5t-66 12.5l-45 -209q46 -17 76 -37t45.5 -47.5
t15.5 -66.5q0 -58 -28 -97.5t-75 -62t-106 -29.5l-24 -109h-65zM270 125q31 4 55.5 17.5t39.5 36.5t15 54q0 18 -7 32.5t-22 26.5t-40 22zM267 414l39 186q-31 -3 -55 -16t-37.5 -35t-13.5 -55q0 -17 7.5 -32t22.5 -27t37 -21z" />
    <glyph glyph-name="percent" unicode="%" horiz-adv-x="799" 
d="M113 0l530 714h78l-530 -714h-78zM195 276q-55 0 -85 37.5t-30 107.5q0 29 5 68t17.5 80t34 76.5t54.5 57t79 21.5q57 0 87 -35.5t30 -101.5q0 -27 -5.5 -66.5t-18.5 -82t-35.5 -79.5t-55 -60t-77.5 -23zM202 342q26 0 45.5 19.5t32.5 50t20.5 63.5t11 62t3.5 44
q0 41 -13 59.5t-38 18.5q-26 0 -45 -18t-32 -46t-20.5 -60.5t-11 -62.5t-3.5 -50q0 -40 12.5 -60t37.5 -20zM562 -10q-55 0 -85 37t-30 107q0 30 5 69.5t17.5 80.5t34.5 76t54.5 56.5t78.5 21.5q58 0 88 -35.5t30 -100.5q0 -27 -6 -66.5t-19 -82t-35 -80t-55 -60.5t-78 -23z
M569 56q26 0 45.5 19.5t32.5 50t20.5 64t11 62t3.5 43.5q0 41 -13 59.5t-38 18.5q-26 0 -45 -18t-31.5 -46t-20 -60.5t-11 -62.5t-3.5 -50q0 -40 12 -60t37 -20z" />
    <glyph glyph-name="ampersand" unicode="&#x26;" horiz-adv-x="673" 
d="M216 -10q-81 0 -132.5 45.5t-51.5 132.5q0 53 22 93.5t64.5 73t103.5 61.5q-19 32 -34 69.5t-15 79.5q0 51 22.5 91.5t65.5 64.5t104 24q49 0 84.5 -17.5t55 -49.5t19.5 -76q0 -50 -26.5 -86t-70.5 -63.5t-97 -54.5l132 -184q33 29 56 66.5t39 77.5h88q-17 -41 -38 -77
t-46.5 -68t-54.5 -60l99 -133h-104l-55 78q-47 -38 -100 -63t-130 -25zM233 63q36 0 65 10t55 26.5t51 36.5l-145 206q-36 -19 -68 -41t-52 -52.5t-20 -74.5q0 -34 14.5 -59t40.5 -38.5t59 -13.5zM295 433q24 12 49 26t46.5 30.5t35 37.5t13.5 48q0 35 -20 57t-58 22
q-33 0 -56 -13t-35.5 -37.5t-12.5 -58.5q0 -30 9.5 -57.5t28.5 -54.5z" />
    <glyph glyph-name="quotesingle" unicode="'" horiz-adv-x="220" 
d="M109 456l35 258h96l-75 -258h-56z" />
    <glyph glyph-name="parenleft" unicode="(" horiz-adv-x="290" 
d="M112 -158q-23 41 -39 87t-24.5 97.5t-8.5 106.5q0 89 16.5 168.5t48 150.5t77 136t104.5 126h81q-53 -59 -97.5 -124.5t-77 -138t-50.5 -151.5t-18 -166q0 -58 6.5 -109t19 -96.5t30.5 -86.5h-68z" />
    <glyph glyph-name="parenright" unicode=")" horiz-adv-x="290" 
d="M-77 -158q53 59 97.5 124.5t77 138t50 151.5t17.5 166q0 58 -6 109t-18.5 96.5t-30.5 86.5h68q23 -41 38.5 -87.5t24 -97.5t8.5 -107q0 -89 -16 -168.5t-47.5 -150.5t-77.5 -136t-105 -125h-80z" />
    <glyph glyph-name="asterisk" unicode="*" horiz-adv-x="551" 
d="M372 300l-54 195l-123 -165l-61 61l149 137l-180 53l28 78l180 -89l20 193l87 -17l-59 -186l204 10l-4 -82l-190 23l87 -185z" />
    <glyph glyph-name="plus" unicode="+" horiz-adv-x="572" 
d="M341 388h199v-71h-199v-206h-72v206h-199v71h199v207h72v-207z" />
    <glyph glyph-name="comma" unicode="," horiz-adv-x="256" 
d="M-43 -129l36 83.5l34.5 85.5t28.5 76h96l4 -11q-16 -35 -38 -75.5l-46 -81l-48 -77.5h-67z" />
    <glyph glyph-name="hyphen" unicode="-" horiz-adv-x="313" 
d="M26 227l18 81h236l-18 -81h-236z" />
    <glyph glyph-name="period" unicode="." horiz-adv-x="256" 
d="M72 -14q-25 0 -38.5 13.5t-13.5 38.5q0 33 18.5 58t58.5 25q22 0 35.5 -13.5t13.5 -39.5q0 -31 -18 -56.5t-56 -25.5z" />
    <glyph glyph-name="slash" unicode="/" horiz-adv-x="356" 
d="M-46 0l397 714h90l-396 -714h-91z" />
    <glyph glyph-name="zero" unicode="0" horiz-adv-x="551" 
d="M236 -10q-88 0 -133.5 63t-45.5 180q0 49 7 104t21.5 110.5t38 105t56.5 88.5t76.5 61.5t97.5 22.5q46 0 80 -15t56 -44.5t33 -72t11 -98.5q0 -60 -7.5 -120t-23 -117t-39.5 -105.5t-57 -85t-75.5 -57t-95.5 -20.5zM246 65q33 0 60.5 18.5t49.5 51t38.5 74.5t27.5 90.5
t16.5 99t5.5 98.5q0 74 -23.5 113.5t-71.5 39.5q-32 0 -59 -18t-50 -49.5t-40.5 -73t-29.5 -88t-18 -95t-6 -93.5q0 -81 24 -124.5t76 -43.5z" />
    <glyph glyph-name="one" unicode="1" horiz-adv-x="551" 
d="M202 0l95 442l14 63.5t14.5 61t13.5 47.5q-15 -16 -31 -28t-36 -25l-88 -55l-41 66l224 142h77l-153 -714h-89z" />
    <glyph glyph-name="two" unicode="2" horiz-adv-x="551" 
d="M3 0l16 75l227 205l85.5 79t59 63.5t34.5 59.5t11 65q0 45 -27.5 73.5t-78.5 28.5q-29 0 -55.5 -8t-50 -22t-47.5 -32l-42 60q41 33 91 55t114 22q61 0 102.5 -21t63.5 -57.5t22 -84.5q0 -58 -22 -105.5t-71.5 -100.5t-132.5 -125l-168 -146v-4h326l-15 -80h-442z" />
    <glyph glyph-name="three" unicode="3" horiz-adv-x="551" 
d="M210 -10q-58 0 -103.5 10.5t-84.5 28.5v85q35 -19 86 -34.5t103 -15.5q40 0 71 10t52 28.5t32 44.5t11 59q0 41 -17 69t-49 42.5t-78 14.5h-64l15 73h65q38 0 71.5 10t59 29.5t40.5 47t15 63.5q0 46 -28.5 70.5t-73.5 24.5q-46 0 -84 -16t-76 -42l-41 62q41 30 91.5 50
t117.5 20q60 0 101 -20t62 -55.5t21 -82.5q0 -50 -22 -91t-63.5 -68.5t-99.5 -38.5v-4q57 -10 93.5 -49.5t36.5 -104.5q0 -42 -15 -81.5t-46.5 -71t-80.5 -49.5t-118 -18z" />
    <glyph glyph-name="four" unicode="4" horiz-adv-x="551" 
d="M288 0l35 162h-317l15 80l403 472h101l-99 -474h110l-17 -78h-111l-35 -162h-85zM111 240h229l36 171q8 37 18.5 77.5t21 76.5t16.5 59h-4q-8 -13 -21 -31l-25.5 -35t-21.5 -27z" />
    <glyph glyph-name="five" unicode="5" horiz-adv-x="551" 
d="M200 -10q-31 0 -60 4.5t-55 13t-48 21.5v85q36 -22 77.5 -36t85.5 -14q53 0 90 14t60 38t34 55.5t11 65.5q0 62 -36 96t-98 34q-30 0 -56 -5t-58 -13l-37 29l97 336h329l-17 -80h-253l-60 -207q18 4 39 7t48 3q59 0 102.5 -23t67.5 -65t24 -101q0 -45 -14.5 -90.5
t-47 -83.5t-88 -61t-137.5 -23z" />
    <glyph glyph-name="six" unicode="6" horiz-adv-x="551" 
d="M251 -10q-56 0 -98.5 23.5t-66 72.5t-23.5 123q0 52 9 110t27.5 115t47.5 108t69 90q29 29 64.5 49.5t79 31.5t94.5 11q26 0 50 -3t42 -8l-18 -76q-16 5 -36.5 8.5t-47.5 3.5q-63 0 -117 -29t-94 -91t-64 -163h4q19 25 44.5 43.5t56 29t64.5 10.5q74 0 118 -47t44 -133
q0 -50 -15 -99.5t-45.5 -90t-77.5 -65t-111 -24.5zM260 64q37 0 65.5 16.5t48 44.5t29.5 63t10 73q0 56 -26 86.5t-79 30.5q-36 0 -66 -16t-50.5 -39t-29.5 -44q-4 -10 -7 -22.5t-4 -26t-1 -27.5q0 -27 6 -52t19 -44.5t34 -31t51 -11.5z" />
    <glyph glyph-name="seven" unicode="7" horiz-adv-x="551" 
d="M81 0l373 636h-347l16 78h439l-13 -70l-373 -644h-95z" />
    <glyph glyph-name="eight" unicode="8" horiz-adv-x="551" 
d="M246 -10q-69 0 -113.5 24.5t-66 65t-21.5 89.5q0 52 22.5 92t65 70.5t101.5 52.5q-25 19 -44.5 40.5t-30 48.5t-10.5 64q0 59 28 101t76.5 64.5t107.5 22.5q66 0 106 -22.5t58 -58.5t18 -77q0 -53 -23.5 -89.5t-61.5 -61.5t-82 -44q35 -21 60 -46t39 -57t14 -76
q0 -53 -25.5 -99.5t-79.5 -75t-138 -28.5zM255 63q50 0 82 18.5t47 48t15 61.5t-11 58.5t-34 48.5t-58 41q-45 -14 -81.5 -34.5t-57.5 -52t-21 -78.5q0 -52 33.5 -81.5t85.5 -29.5zM315 412q46 17 76.5 37.5t46.5 47t16 61.5q0 43 -27 68t-73 25q-35 0 -62 -14t-41.5 -39.5
t-14.5 -60.5q0 -45 22 -74t57 -51z" />
    <glyph glyph-name="nine" unicode="9" horiz-adv-x="551" 
d="M165 -10q-30 0 -61 4.5t-57 12.5v81q27 -9 56.5 -15.5t63.5 -6.5q50 0 89.5 17t70 51.5t52.5 86.5t37 122h-5q-16 -23 -39.5 -41t-52 -27.5t-60.5 -9.5q-55 0 -93.5 22t-58.5 64t-20 103q0 54 17 102.5t49.5 86.5t78.5 59.5t104 21.5q59 0 100.5 -25t63.5 -73.5
t22 -121.5q0 -52 -9 -110.5t-26 -116t-41.5 -107.5t-56.5 -85q-23 -25 -48.5 -43.5t-54 -29.5t-59 -16.5t-62.5 -5.5zM277 336q32 0 59.5 11t49 32.5t35.5 52.5q7 17 10.5 38t3.5 46q0 40 -12 70t-35 47t-57 17q-37 0 -66.5 -15t-49.5 -41.5t-30.5 -61.5t-10.5 -74
q0 -58 26 -90t77 -32z" />
    <glyph glyph-name="colon" unicode=":" horiz-adv-x="256" 
d="M151 415q-25 0 -38.5 13.5t-13.5 37.5q0 23 8 42t25.5 30.5t43.5 11.5q22 0 35.5 -13t13.5 -40q0 -31 -18 -56.5t-56 -25.5zM72 -14q-25 0 -38.5 13.5t-13.5 38.5q0 33 18.5 58t58.5 25q22 0 35.5 -13.5t13.5 -39.5q0 -31 -18 -56.5t-56 -25.5z" />
    <glyph glyph-name="semicolon" unicode=";" horiz-adv-x="256" 
d="M-49 -129l35.5 83.5l35 85.5t28.5 76h96l4 -11q-16 -35 -38 -75.5l-46 -81l-48 -77.5h-67zM151 415q-25 0 -38.5 13.5t-13.5 37.5q0 23 8 42t25.5 30.5t43.5 11.5q22 0 35.5 -13t13.5 -40q0 -31 -18 -56.5t-56 -25.5z" />
    <glyph glyph-name="less" unicode="&#x3c;" horiz-adv-x="572" 
d="M541 116l-471 207v50l471 235v-78l-377 -178l377 -158v-78z" />
    <glyph glyph-name="equal" unicode="=" horiz-adv-x="572" 
d="M76 416v71h458v-71h-458zM76 217v71h458v-71h-458z" />
    <glyph glyph-name="greater" unicode="&#x3e;" horiz-adv-x="572" 
d="M70 194l377 157l-377 179v78l471 -235v-50l-471 -207v78z" />
    <glyph glyph-name="question" unicode="?" horiz-adv-x="430" 
d="M127 201q7 43 20.5 75t37 59.5t59.5 55.5l59.5 48t44.5 51t17 66q0 44 -24 68t-70 24q-38 0 -74.5 -12.5t-69.5 -28.5l-32 67q41 22 90 36t96 14q79 0 126 -39t47 -118q0 -45 -16.5 -81.5t-48 -69.5t-78.5 -68q-39 -28 -60.5 -48t-33 -42t-19.5 -57h-71zM129 -14
q-25 0 -38.5 13.5t-13.5 38.5q0 33 18.5 58t58.5 25q22 0 35.5 -13.5t13.5 -39.5q0 -31 -18 -56.5t-56 -25.5z" />
    <glyph glyph-name="at" unicode="@" horiz-adv-x="848" 
d="M385 -91q-76 0 -137 22.5t-104.5 66.5t-67 106.5t-23.5 141.5q0 73 20.5 141.5t60.5 127.5t97 103.5t129.5 69.5t159.5 25q106 0 172.5 -41.5t98 -109t31.5 -147.5q0 -53 -10.5 -100t-29.5 -85.5t-45 -66t-58.5 -42.5t-69.5 -15q-56 0 -78.5 27t-26.5 62h-4
q-22 -37 -56 -63t-84 -26q-55 0 -88 36.5t-33 103.5q0 49 13 90.5t36.5 75t55 57.5t69 36.5t78.5 12.5q48 0 80 -9t58 -20l-47 -179q-8 -30 -12 -49.5t-4 -36.5q0 -31 14 -43t34 -12q25 0 46 13.5t37.5 37.5t28 54.5t17.5 65t6 68.5q0 66 -23.5 120t-76.5 86.5t-142 32.5
q-69 0 -127.5 -20t-105 -56t-79 -85.5t-50 -109t-17.5 -126.5q0 -84 30.5 -145.5t90 -95t147.5 -33.5q54 0 108 12.5t98 29.5v-65q-52 -21 -108 -32.5t-109 -11.5zM378 169q48 0 79.5 42.5t50.5 109.5l33 124q-10 4 -25 7.5t-35 3.5q-35 0 -65 -15.5t-53 -43t-35.5 -64.5
t-12.5 -80q0 -44 16 -64t47 -20z" />
    <glyph glyph-name="A" unicode="A" horiz-adv-x="562" 
d="M-57 0l388 714h94l88 -714h-88l-27 222h-241l-116 -222h-98zM200 302h189l-16 150q-4 38 -7.5 84t-4.5 81h-3q-16 -38 -37 -81.5l-44 -87.5z" />
    <glyph glyph-name="B" unicode="B" horiz-adv-x="600" 
d="M41 0l151 714h185q66 0 113.5 -17.5t73 -53.5t25.5 -93q0 -49 -20 -85.5t-56 -60t-85 -32.5v-5q49 -13 82 -49t33 -96q0 -73 -35.5 -122.5t-97 -74.5t-141.5 -25h-228zM146 76h126q57 0 96.5 17t60 50t20.5 79q0 48 -31 81t-105 33h-112zM217 410h117q45 0 81.5 14
t58.5 42.5t22 72.5q0 47 -30 72.5t-100 25.5h-101z" />
    <glyph glyph-name="C" unicode="C" horiz-adv-x="587" 
d="M326 -10q-79 0 -136 33t-87.5 94.5t-30.5 145.5q0 64 15 130t45.5 125t77 105.5t108.5 73.5t140 27q51 0 94 -10t80 -30l-36 -74q-27 14 -60.5 24.5t-77.5 10.5q-60 0 -107 -22t-81.5 -60t-57.5 -86.5t-34 -103t-11 -108.5q0 -91 46.5 -143.5t128.5 -52.5q41 0 80.5 8
t77.5 21v-78q-39 -14 -78.5 -22t-95.5 -8z" />
    <glyph glyph-name="D" unicode="D" horiz-adv-x="667" 
d="M41 0l151 714h169q129 0 202 -70t73 -215q0 -74 -17.5 -139.5t-52 -118.5t-85.5 -91.5t-117 -59t-147 -20.5h-176zM146 77h76q62 0 112.5 17.5t89.5 49.5t65 76t39.5 97t13.5 113q0 110 -52.5 158.5t-139.5 48.5h-85z" />
    <glyph glyph-name="E" unicode="E" horiz-adv-x="514" 
d="M41 0l151 714h362l-17 -79h-273l-47 -223h255l-15 -78h-256l-55 -255h274l-17 -79h-362z" />
    <glyph glyph-name="F" unicode="F" horiz-adv-x="477" 
d="M41 0l151 714h362l-16 -79h-274l-53 -254h256l-17 -79h-256l-64 -302h-89z" />
    <glyph glyph-name="G" unicode="G" horiz-adv-x="678" 
d="M343 -10q-127 0 -199 71t-72 198q0 78 18 148t51.5 128t81 100.5t106.5 65.5t128 23q65 0 114 -11t93 -31l-34 -78q-37 17 -80 29t-94 12q-62 0 -114.5 -28t-92 -79t-61 -120.5t-21.5 -152.5q0 -55 19.5 -99.5t60.5 -70.5t105 -26q38 0 69.5 5.5t53.5 12.5l46 211h-140
l17 78h229l-76 -349q-45 -16 -95 -26.5t-113 -10.5z" />
    <glyph glyph-name="H" unicode="H" horiz-adv-x="680" 
d="M42 0l151 714h89l-64 -302h314l64 302h88l-151 -714h-88l70 333h-314l-70 -333h-89z" />
    <glyph glyph-name="I" unicode="I" horiz-adv-x="324" 
d="M-20 0l10 49l85 20l122 576l-76 19l10 50h250l-10 -50l-86 -19l-122 -576l77 -20l-10 -49h-250z" />
    <glyph glyph-name="J" unicode="J" horiz-adv-x="273" 
d="M-80 -190q-24 0 -44.5 3.5t-31.5 8.5l3 77q15 -4 33 -7t38 -3q30 0 55 12t43 38.5t27 69.5l150 705h89l-151 -715q-14 -67 -43.5 -109t-71.5 -61t-96 -19z" />
    <glyph glyph-name="K" unicode="K" horiz-adv-x="562" 
d="M41 0l151 714h89l-74 -347l62 66l274 281h108l-310 -314l169 -400h-98l-139 346l-83 -61l-60 -285h-89z" />
    <glyph glyph-name="L" unicode="L" horiz-adv-x="478" 
d="M41 0l151 714h89l-135 -634h274l-17 -80h-362z" />
    <glyph glyph-name="M" unicode="M" horiz-adv-x="841" 
d="M40 0l151 714h126l69 -583h4l317 583h137l-148 -714h-90l90 424l18.5 82l16 69t13.5 52h-2l-344 -627h-71l-76 626h-4q-2 -20 -7 -53.5t-11.5 -71t-13.5 -72.5l-91 -429h-84z" />
    <glyph glyph-name="N" unicode="N" horiz-adv-x="707" 
d="M40 0l151 714h95l219 -590h3q3 24 8.5 57.5t12.5 70t14 69.5l84 393h85l-151 -714h-95l-221 592h-3q-2 -16 -5.5 -39.5t-8.5 -51l-10.5 -57t-11.5 -56.5l-82 -388h-84z" />
    <glyph glyph-name="O" unicode="O" horiz-adv-x="721" 
d="M337 -10q-85 0 -144.5 33.5t-90 96t-30.5 147.5q0 62 11 119.5t32.5 108.5t52.5 93t71.5 73t89 47.5t104.5 16.5q122 0 189.5 -75t67.5 -206q0 -62 -10 -119.5t-30 -108t-50 -92t-69 -71.5t-87.5 -46.5t-106.5 -16.5zM340 69q40 0 74 14t62.5 39t50.5 59.5t37 77t23 90
t8 97.5q0 95 -45 147.5t-123 52.5q-40 0 -75 -13.5t-63.5 -38t-51.5 -59t-38.5 -76.5t-23.5 -90t-8 -100q0 -63 21 -107.5t59.5 -68.5t92.5 -24z" />
    <glyph glyph-name="P" unicode="P" horiz-adv-x="567" 
d="M41 0l151 714h161q77 0 124 -23.5t68.5 -65t21.5 -97.5q0 -60 -20 -106.5t-60 -78.5t-98.5 -48t-135.5 -16h-64l-59 -279h-89zM205 354h62q64 0 111 18t72.5 56t25.5 97t-33.5 85.5t-101.5 26.5h-76z" />
    <glyph glyph-name="Q" unicode="Q" horiz-adv-x="721" 
d="M461 -170l-108 161q-4 -1 -8 -1h-8q-85 0 -144.5 33.5t-90 96t-30.5 147.5q0 62 11 119.5t32.5 108.5t52.5 93t71.5 73t89 47.5t104.5 16.5q122 0 189.5 -75t67.5 -206q0 -62 -10.5 -119.5t-31 -108t-51 -92t-69.5 -71.5t-87 -46l134 -177h-114zM340 69q41 0 75.5 14
t63 39t50 59.5t36.5 77t22.5 90t7.5 97.5q0 95 -45 147.5t-123 52.5q-40 0 -75 -13.5t-63.5 -38t-51.5 -59t-38.5 -76.5t-23.5 -90t-8 -100q0 -63 21 -107.5t59.5 -68.5t92.5 -24z" />
    <glyph glyph-name="R" unicode="R" horiz-adv-x="573" 
d="M41 0l151 714h157q110 0 165 -46t55 -135q0 -51 -17.5 -94t-56.5 -74.5t-104 -49.5l118 -315h-98l-102 295h-117l-62 -295h-89zM208 371h78q50 0 86 11.5t59.5 32t34.5 49.5t11 63q0 61 -34 85t-102 24h-76z" />
    <glyph glyph-name="S" unicode="S" horiz-adv-x="505" 
d="M185 -10q-52 0 -91.5 8t-74.5 24v88q30 -16 71.5 -29t95.5 -13q34 0 64 7.5t53 24t36.5 41.5t13.5 59q0 27 -11.5 48t-37.5 41.5t-69 44.5q-38 23 -67.5 47.5t-46 57t-16.5 78.5q0 50 18.5 88t51 65t75 40.5t90.5 13.5q56 0 98.5 -11t80.5 -31l-34 -76q-26 14 -65 26.5
t-80 12.5q-31 0 -56.5 -8t-44 -24t-29 -38.5t-10.5 -51.5q0 -30 11 -50.5t34 -37t57 -37.5q43 -26 75.5 -51t51 -58t18.5 -82q0 -54 -18.5 -94.5t-53 -67.5t-83 -41t-107.5 -14z" />
    <glyph glyph-name="T" unicode="T" horiz-adv-x="501" 
d="M152 0l134 635h-196l17 79h482l-16 -79h-196l-135 -635h-90z" />
    <glyph glyph-name="U" unicode="U" horiz-adv-x="677" 
d="M300 -10q-74 0 -123.5 23t-73.5 67t-24 108q0 17 3 42t9 53l92 431h89l-93 -436q-5 -23 -8 -48t-3 -41q0 -56 34.5 -88t102.5 -32q59 0 97.5 20.5t61.5 61t36 99.5l99 464h89l-100 -471q-16 -78 -50.5 -135t-92.5 -87.5t-145 -30.5z" />
    <glyph glyph-name="V" unicode="V" horiz-adv-x="552" 
d="M169 0l-77 714h88l45 -452q3 -27 5 -55t3.5 -55t0.5 -51h2q15 36 34 75.5l43 86.5l232 451h99l-380 -714h-95z" />
    <glyph glyph-name="W" unicode="W" horiz-adv-x="856" 
d="M137 0l-30 714h88l14 -435q2 -41 0 -85l-4 -84h3q14 39 34 89.5t41 94.5l196 420h91l20 -418q2 -31 3 -65t1.5 -65t-0.5 -56h3l19 54.5t21.5 58l23.5 59.5l187 432h95l-324 -714h-91l-22 460q-1 22 -2 46.5t-1.5 48.5t-0.5 44h-3q-10 -30 -23 -61t-36 -81l-211 -457h-92z
" />
    <glyph glyph-name="X" unicode="X" horiz-adv-x="527" 
d="M-52 0l291 378l-127 336h90l97 -273l212 273h98l-270 -340l135 -374h-94l-102 309l-232 -309h-98z" />
    <glyph glyph-name="Y" unicode="Y" horiz-adv-x="509" 
d="M150 0l58 268l-116 446h89l85 -358l234 358h101l-306 -449l-55 -265h-90z" />
    <glyph glyph-name="Z" unicode="Z" horiz-adv-x="531" 
d="M-10 0l14 70l445 564h-315l17 80h422l-13 -71l-445 -563h335l-16 -80h-444z" />
    <glyph glyph-name="bracketleft" unicode="[" horiz-adv-x="290" 
d="M-9 -158l186 872h193l-16 -72h-110l-154 -728h110l-16 -72h-193z" />
    <glyph glyph-name="backslash" unicode="\" horiz-adv-x="356" 
d="M214 0l-106 714h80l106 -714h-80z" />
    <glyph glyph-name="bracketright" unicode="]" horiz-adv-x="290" 
d="M-72 -158l15 72h110l154 728h-110l16 72h193l-186 -872h-192z" />
    <glyph glyph-name="asciicircum" unicode="^" horiz-adv-x="572" 
d="M38 267l212 452h50l234 -452h-78l-180 359l-160 -359h-78z" />
    <glyph glyph-name="underscore" unicode="_" horiz-adv-x="395" 
d="M-92 -158l15 68h397l-15 -68h-397z" />
    <glyph glyph-name="grave" unicode="`" horiz-adv-x="278" 
d="M256 606q-19 19 -40.5 46t-40.5 55t-29 49v10h94q8 -24 19 -50t24.5 -50.5l26.5 -47.5v-12h-54z" />
    <glyph glyph-name="a" unicode="a" horiz-adv-x="568" 
d="M193 -10q-43 0 -75.5 20.5t-51 61.5t-18.5 101t12.5 115.5t35.5 102.5t55.5 81.5t73 54t86.5 19.5q35 0 61.5 -13t44.5 -34t29 -46h5l32 83h67l-114 -536h-70l13 99h-4q-23 -29 -51 -54t-60.5 -40t-70.5 -15zM222 63q37 0 72.5 27t64 73t44.5 103q8 29 10.5 53.5
t2.5 45.5q0 47 -26 77t-70 30q-31 0 -58.5 -16t-50.5 -44.5t-39 -66.5t-25 -82.5t-9 -91.5q0 -54 22 -81t62 -27z" />
    <glyph glyph-name="b" unicode="b" horiz-adv-x="579" 
d="M269 -10q-36 0 -63 13t-45 34t-29 45h-5l-33 -82h-66l161 760h88l-38 -180q-7 -34 -15.5 -66.5l-14.5 -54t-7 -23.5h4q24 30 50.5 54.5t58 39.5t68.5 15q44 0 77 -20.5t51.5 -61t18.5 -100.5q0 -58 -11.5 -113t-33.5 -102.5t-54 -82.5t-72.5 -55t-89.5 -20zM262 63
q32 0 59.5 16.5t49.5 46t37.5 68t23.5 82t8 88.5q0 54 -21.5 81t-63.5 27q-22 0 -45 -11t-45 -31.5t-41 -48.5t-33.5 -61.5t-22.5 -71t-8 -77.5q0 -48 25 -78t77 -30z" />
    <glyph glyph-name="c" unicode="c" horiz-adv-x="453" 
d="M247 -10q-59 0 -104 22t-70 66.5t-25 111.5q0 58 12.5 110.5t36.5 97.5t58 78t77.5 51.5t95.5 18.5q35 0 70 -7t63 -19l-25 -73q-20 9 -47.5 17t-59.5 8q-43 0 -78 -22.5t-60.5 -61t-39 -89.5t-13.5 -108q0 -40 14 -69t40.5 -44t63.5 -15q35 0 66.5 10t62.5 23v-74
q-28 -14 -62.5 -23t-75.5 -9z" />
    <glyph glyph-name="d" unicode="d" horiz-adv-x="579" 
d="M193 -10q-43 0 -75.5 20.5t-51 61t-18.5 101.5q0 59 11.5 114t34 101.5t55 82t73 55t89.5 19.5q36 0 62 -13t44 -33.5t29 -45.5h5l6 44t7 42.5t9 45.5l37 175h87l-161 -760h-72l11 99h-4q-24 -30 -51 -55t-58 -39.5t-69 -14.5zM223 63q22 0 45 11t44.5 31.5t40.5 48.5
t33.5 61.5t22.5 71t8 77.5q0 48 -23.5 78t-76.5 30q-32 0 -59.5 -16.5t-49.5 -46t-37.5 -68t-24 -82t-8.5 -88.5q0 -54 21.5 -81t63.5 -27z" />
    <glyph glyph-name="e" unicode="e" horiz-adv-x="499" 
d="M242 -10q-62 0 -105.5 24.5t-66 70t-22.5 107.5q0 64 18.5 126.5t53.5 114t84.5 82.5t111.5 31q76 0 114.5 -33t38.5 -92q0 -39 -18 -73.5t-56 -60.5t-97 -40.5t-142 -14.5h-17q-1 -9 -1.5 -19t-0.5 -18q0 -61 30 -96.5t91 -35.5q38 0 72 11t74 30v-75q-38 -17 -74.5 -28
t-87.5 -11zM152 303h7q60 0 111 10.5t82 35t31 65.5q0 26 -17.5 42.5t-54.5 16.5q-32 0 -63 -20t-56 -58t-40 -92z" />
    <glyph glyph-name="f" unicode="f" horiz-adv-x="318" 
d="M-48 -240q-19 0 -35 3t-29 7v74l27 -7.5t29 -3.5q36 0 56 29.5t32 84.5l110 522h-93l7 37l100 33l11 48q12 51 28 85.5t37.5 55t50.5 29t66 8.5q25 0 51.5 -5.5t42.5 -13.5l-23 -67q-14 5 -30.5 9.5t-36.5 4.5q-39 0 -61.5 -22t-36.5 -84l-12 -51h115l-13 -67h-115
l-112 -532q-12 -55 -32.5 -95t-53 -61t-80.5 -21z" />
    <glyph glyph-name="g" unicode="g" horiz-adv-x="579" 
d="M186 -240q-49 0 -90.5 9.5t-70.5 24.5v81q18 -10 44 -20t56 -16t58 -6q62 0 102 30t56 100l9 38q5 23 12.5 51l12.5 47h-4q-23 -29 -49.5 -54t-58 -40t-69.5 -15q-43 0 -76 20.5t-51.5 61.5t-18.5 101q0 58 11.5 113t34 102t54.5 82.5t73 55.5t90 20q36 0 62.5 -13
t44.5 -34t29 -46h4l33 83h67l-122 -567q-16 -75 -48.5 -121t-81.5 -67t-113 -21zM223 63q23 0 45.5 11.5t44.5 32.5t40.5 49t32.5 61.5t22 71t8 75.5q0 48 -22.5 78t-75.5 30q-32 0 -59.5 -16.5t-50 -46t-38 -68t-24 -82t-8.5 -88.5q0 -54 22 -81t63 -27z" />
    <glyph glyph-name="h" unicode="h" horiz-adv-x="579" 
d="M28 0l161 760h88l-43 -197q-4 -20 -9.5 -41.5l-11 -43t-11.5 -42.5h5q19 25 45 50t59.5 42t76.5 17q42 0 72 -15.5t46.5 -45.5t16.5 -76q0 -19 -3 -39t-8 -43l-70 -326h-88l71 336q5 23 7 38.5t2 27.5q0 33 -16.5 51.5t-53.5 18.5q-34 0 -73.5 -23.5t-73 -76.5
t-52.5 -141l-49 -231h-88z" />
    <glyph glyph-name="i" unicode="i" horiz-adv-x="258" 
d="M28 0l114 536h88l-114 -536h-88zM213 625q-21 0 -34.5 12.5t-13.5 34.5q0 17 7 31.5t20 23.5t32 9q23 0 34.5 -12t11.5 -33q0 -31 -18 -48.5t-39 -17.5z" />
    <glyph glyph-name="j" unicode="j" horiz-adv-x="258" 
d="M-64 -240q-19 0 -35 3t-27 7v74q12 -4 27 -7.5t31 -3.5q20 0 36 11t27.5 32.5t18.5 54.5l128 605h87l-130 -613q-10 -50 -29.5 -86.5t-51.5 -56.5t-82 -20zM212 625q-20 0 -33.5 12.5t-13.5 34.5q0 17 7 31.5t20 23.5t32 9q23 0 34 -12t11 -33q0 -31 -18 -48.5t-39 -17.5
z" />
    <glyph glyph-name="k" unicode="k" horiz-adv-x="495" 
d="M27 0l161 760h89l-65 -302q-17 -80 -29.5 -123.5t-17.5 -57.5h2l254 259h104l-230 -230l143 -306h-97l-113 251l-72 -57l-40 -194h-89z" />
    <glyph glyph-name="l" unicode="l" horiz-adv-x="258" 
d="M27 0l162 760h88l-162 -760h-88z" />
    <glyph glyph-name="m" unicode="m" horiz-adv-x="875" 
d="M28 0l114 536h72l-11 -99h5q18 25 42.5 50t57 42t73.5 17q55 0 84.5 -31.5t35.5 -87.5h4q20 30 47.5 57t61.5 44.5t75 17.5q62 0 96 -34t34 -98q0 -24 -3 -44.5t-8 -43.5l-69 -326h-89l72 336q5 23 7 39t2 31q0 30 -16.5 48t-51.5 18q-24 0 -51 -13.5t-53 -41.5
t-47 -71.5t-34 -103.5l-51 -242h-88l71 336q5 23 7 38.5t2 27.5q0 33 -15 51.5t-50 18.5q-24 0 -51.5 -13t-53.5 -41.5t-48 -74.5t-36 -112l-49 -231h-88z" />
    <glyph glyph-name="n" unicode="n" horiz-adv-x="579" 
d="M24 0l115 539h78l-11 -99h1q19 25 44.5 50t59.5 42t77 17t74 -16t47.5 -46t16.5 -73q0 -23 -3.5 -47t-7.5 -42l-71 -325h-94l72 337q5 23 7.5 38.5t2.5 29.5q0 32 -17 48t-51 16q-33 0 -71.5 -23t-72 -75t-52.5 -140l-50 -231h-94z" />
    <glyph glyph-name="o" unicode="o" horiz-adv-x="563" 
d="M248 -8q-62 0 -107 25t-69 71.5t-24 109.5q0 49 11 98.5t32.5 93.5t53.5 78.5t75 54.5t96 20q63 0 107.5 -25t68.5 -71.5t24 -110.5q0 -49 -11 -98t-32.5 -93.5t-53.5 -78.5t-75 -54t-96 -20zM253 65q29 0 54.5 12t47.5 35.5t37.5 58t24.5 78.5t9 97q0 30 -10.5 58.5
t-34.5 47t-64 18.5q-33 0 -61 -14t-50 -39.5t-37.5 -60t-23.5 -75.5t-8 -86q0 -62 30.5 -96t85.5 -34z" />
    <glyph glyph-name="p" unicode="p" horiz-adv-x="579" 
d="M-22 -240l164 776h72l-12 -100h4q24 30 51 54.5t59 39.5t69 15q43 0 75.5 -20.5t51 -61t18.5 -101.5q0 -59 -11.5 -114t-34 -101.5t-54 -82t-72.5 -55t-89 -19.5q-36 0 -62.5 13t-44.5 34t-30 45h-5q-1 -16 -5 -44.5t-8 -46.5l-49 -231h-87zM262 63q32 0 59.5 16.5
t49.5 46t37.5 68t23.5 82t8 88.5q0 54 -21.5 81t-63.5 27q-22 0 -45 -11t-45 -31.5t-41 -48.5t-33.5 -61.5t-22.5 -71t-8 -77.5q0 -48 25 -78t77 -30z" />
    <glyph glyph-name="q" unicode="q" horiz-adv-x="579" 
d="M298 -240l48 228q3 13 8 32.5l11 41t10 37.5h-4q-23 -29 -49.5 -54t-58 -40t-69.5 -15q-43 0 -76 20.5t-51.5 61t-18.5 101.5q0 58 11.5 113t34 102t55 82.5t73.5 55.5t90 20q36 0 62 -13t44 -34t28 -46h5l33 83h66l-165 -776h-87zM223 63q22 0 45 11.5t44.5 32t40.5 49
t33 62t22 70.5t8 76q0 44 -23 76t-75 32q-32 0 -59.5 -16.5t-49.5 -46t-38 -68t-24.5 -82t-8.5 -88.5q0 -54 21.5 -81t63.5 -27z" />
    <glyph glyph-name="r" unicode="r" horiz-adv-x="398" 
d="M28 0l114 536h72l-11 -99h5q21 28 44 52.5t52 40.5t67 16q14 0 29.5 -1.5t28.5 -5.5l-19 -79q-13 3 -25.5 4.5t-25.5 1.5q-37 0 -68.5 -19.5t-56 -51.5t-41.5 -71t-25 -79l-52 -245h-88z" />
    <glyph glyph-name="s" unicode="s" horiz-adv-x="432" 
d="M155 -10q-49 0 -85.5 9.5t-64.5 24.5v81q26 -16 65.5 -29.5t81.5 -13.5q40 0 66.5 10.5t40.5 29.5t14 44q0 20 -8 34.5t-27.5 29t-54.5 33.5q-38 22 -63.5 43.5t-38.5 47.5t-13 60q0 46 22.5 80t63.5 53t96 19q49 0 90.5 -11.5t71.5 -25.5l-28 -70q-26 12 -58 22.5
t-76 10.5q-43 0 -68.5 -20.5t-25.5 -52.5q0 -17 7 -31t26.5 -28.5t54.5 -34.5q34 -20 61 -40t42.5 -46t15.5 -64q0 -54 -25.5 -91t-72.5 -55.5t-110 -18.5z" />
    <glyph glyph-name="t" unicode="t" horiz-adv-x="332" 
d="M185 -10q-54 0 -91 26t-37 91q0 15 2.5 33.5t6.5 37.5l61 291h-83l8 40l90 38l62 111h52l-27 -122h135l-14 -67h-134l-62 -292q-3 -13 -6 -29.5t-3 -30.5q0 -23 12.5 -39t40.5 -16q18 0 35 3.5t36 9.5v-67q-12 -6 -37 -12t-47 -6z" />
    <glyph glyph-name="u" unicode="u" horiz-adv-x="579" 
d="M189 -10q-40 0 -70.5 15t-47 45t-16.5 73q0 23 3.5 43.5l7.5 42.5l70 327h89l-72 -337q-4 -22 -6.5 -38t-2.5 -29q0 -32 16.5 -50.5t53.5 -18.5q34 0 73.5 24t73.5 77t53 141l49 231h87l-114 -536h-72l11 99h-5q-19 -24 -44.5 -49.5t-59 -42.5t-77.5 -17z" />
    <glyph glyph-name="v" unicode="v" horiz-adv-x="467" 
d="M110 0l-62 536h88l30 -298q3 -26 5.5 -61t4 -65.5t1.5 -44.5h3l26 57l30.5 64l26.5 53l158 295h94l-290 -536h-115z" />
    <glyph glyph-name="w" unicode="w" horiz-adv-x="723" 
d="M79 0l-22 536h86l8 -286q2 -55 0 -99.5t-4 -73.5h4l19 49.5t23.5 57l22.5 49.5l141 303h95l17 -287q1 -37 2 -85.5t-1 -86.5h4l20.5 57.5t26 67l30.5 71.5l117 263h93l-248 -536h-106l-15 290q-1 27 -1.5 51.5t0 51.5t0.5 58h-4l-17.5 -46t-19.5 -46.5l-27 -58.5
l-140 -300h-104z" />
    <glyph glyph-name="x" unicode="x" horiz-adv-x="483" 
d="M-37 0l232 276l-116 260h89l83 -198l157 198h102l-223 -264l123 -272h-89l-91 208l-165 -208h-102z" />
    <glyph glyph-name="y" unicode="y" horiz-adv-x="467" 
d="M-25 -240q-24 0 -39.5 3t-29.5 7v71q14 -4 30 -6.5t34 -2.5q41 0 69.5 25t54.5 73l35 62l-81 544h88l35 -265q5 -32 7.5 -70.5t4 -73t1.5 -55.5h3l20.5 48t29.5 66t28 56l156 294h94l-340 -626q-27 -50 -55 -83.5t-63 -50t-82 -16.5z" />
    <glyph glyph-name="z" unicode="z" horiz-adv-x="445" 
d="M-15 0l12 60l333 410h-230l14 66h325l-14 -71l-327 -399h255l-13 -66h-355z" />
    <glyph glyph-name="braceleft" unicode="{" horiz-adv-x="350" 
d="M217 -158q-70 0 -107.5 26.5t-37.5 83.5q0 16 3 32.5t7 35.5l24 105q3 16 5 29t2 25q0 35 -26 52.5t-76 17.5l17 73q58 0 93 21t45 72l33 157q11 53 32.5 84t58.5 44.5t92 13.5h18l-15 -73q-44 0 -69 -15t-36 -62l-35 -156q-11 -51 -39.5 -84t-87.5 -43v-2
q39 -10 57 -37.5t18 -66.5q0 -13 -2.5 -30t-6.5 -33l-22 -102q-3 -13 -5 -24.5t-2 -21.5q0 -29 20.5 -39t54.5 -10v-73h-13z" />
    <glyph glyph-name="bar" unicode="|" horiz-adv-x="551" 
d="M260 -241v1001h72v-1001h-72z" />
    <glyph glyph-name="braceright" unicode="}" horiz-adv-x="350" 
d="M-37 -158v73q32 0 55 6t37.5 23t21.5 48l35 156q11 51 40 83.5t87 42.5v3q-39 11 -56.5 37.5t-17.5 65.5q0 14 2.5 30.5t6.5 32.5l23 103q3 13 5 24.5t2 21.5q0 29 -23 39t-64 10l15 73h6q48 0 81 -11.5t49.5 -36t16.5 -62.5q0 -16 -2.5 -32.5t-7.5 -35.5l-24 -106
l-5.5 -28.5t-2.5 -24.5q0 -35 26.5 -52.5t75.5 -17.5l-16 -73q-58 0 -92.5 -21t-45.5 -72l-33 -157q-12 -56 -35 -87t-60 -43t-93 -12h-7z" />
    <glyph glyph-name="asciitilde" unicode="~" horiz-adv-x="572" 
d="M289 319q-36 16 -59.5 21.5t-45.5 5.5q-28 0 -59 -17t-55 -42v78q24 26 54 39.5t66 13.5q29 0 57.5 -6t74.5 -26q36 -16 59.5 -21.5t44.5 -5.5q29 0 60 17t55 42v-77q-24 -26 -54 -40t-66 -14q-28 0 -57.5 6.5t-74.5 25.5z" />
    <glyph glyph-name="uni00A0" unicode="&#xa0;" horiz-adv-x="260" 
 />
    <glyph glyph-name="exclamdown" unicode="&#xa1;" horiz-adv-x="261" 
d="M-10 -182l134 513h58l-85 -513h-107zM172 411q-25 0 -38.5 13.5t-13.5 38.5q0 33 18.5 58t57.5 25q23 0 36 -14t13 -40q0 -29 -17.5 -55t-55.5 -26z" />
    <glyph glyph-name="cent" unicode="&#xa2;" horiz-adv-x="551" 
d="M220 -10l21 105q-61 16 -97.5 64.5t-36.5 128.5q0 54 11 103.5t32 92t51 75.5t68.5 54.5t83.5 28.5l16 82h63l-18 -82q29 -2 56.5 -8t50.5 -16l-25 -73q-20 9 -47.5 17t-59.5 8q-43 0 -78 -22.5t-60.5 -61t-39.5 -89.5t-14 -108q0 -61 32 -95t87 -34q35 0 66.5 10
t61.5 24v-75q-27 -13 -61.5 -22t-78.5 -10l-20 -97h-64z" />
    <glyph glyph-name="sterling" unicode="&#xa3;" horiz-adv-x="551" 
d="M-11 0l14 74q29 7 54 23t44 44.5t28 72.5l22 102h-98l14 66h98l35 167q14 64 44.5 102t73.5 55t94 17q53 0 94.5 -12.5t71.5 -29.5l-34 -69q-24 13 -58 25.5t-76 12.5q-40 0 -75.5 -22.5t-49.5 -90.5l-33 -155h178l-14 -66h-178l-22 -101q-13 -61 -38.5 -90t-55.5 -45
h351l-17 -80h-467z" />
    <glyph glyph-name="currency" unicode="&#xa4;" horiz-adv-x="551" 
d="M461 139l-63 62q-22 -15 -48.5 -23.5t-55.5 -8.5t-56 9t-49 24l-62 -62l-46 47l62 62q-16 22 -24.5 48t-8.5 56q0 29 8.5 55.5t24.5 48.5l-63 63l47 48l62 -63q23 15 49.5 24t55.5 9t55.5 -9t48.5 -24l63 63l48 -47l-63 -63q14 -22 23.5 -49t9.5 -56q0 -30 -9 -56.5
t-24 -48.5l62 -62zM294 236q34 0 61 15.5t43 42t16 59.5q0 34 -16 60.5t-43 42.5t-61 16q-32 0 -59 -16t-42.5 -42.5t-15.5 -60.5q0 -33 15.5 -59.5t42.5 -42t59 -15.5z" />
    <glyph glyph-name="yen" unicode="&#xa5;" horiz-adv-x="551" 
d="M174 0l27 128h-141l15 67h140l16 77h-141l15 67h109l-99 375h86l84 -358l235 358h96l-258 -375h111l-14 -67h-143l-16 -77h143l-14 -67h-142l-28 -128h-81z" />
    <glyph glyph-name="brokenbar" unicode="&#xa6;" horiz-adv-x="551" 
d="M260 379v381h72v-381h-72zM260 -241v381h72v-381h-72z" />
    <glyph glyph-name="section" unicode="&#xa7;" horiz-adv-x="486" 
d="M173 -5q-50 0 -86.5 9.5t-59.5 21.5v75q26 -14 65.5 -26.5t80.5 -12.5q63 0 96.5 21.5t33.5 61.5q0 15 -9 28t-30.5 27t-57.5 30q-37 17 -64.5 36.5t-42.5 46t-15 63.5q0 38 16 66.5t42 48.5t56 34q-25 16 -41 40t-16 59q0 39 22 71t64 51t103 19q47 0 87 -9t71 -25
l-27 -63q-33 14 -65 22t-66 8q-25 0 -49.5 -7t-40 -22.5t-15.5 -41.5t22 -43.5t74 -40.5q36 -16 63.5 -35t43 -44.5t15.5 -61.5q0 -34 -14.5 -63t-39.5 -52t-58 -40q23 -15 39 -37t16 -56q0 -46 -24 -82t-71 -56.5t-118 -20.5zM281 277q32 17 57 46.5t25 66.5q0 21 -11 37
t-35.5 31.5t-65.5 32.5q-21 -6 -41.5 -20.5t-34 -36t-13.5 -48.5q0 -23 11 -40t37 -33t71 -36z" />
    <glyph glyph-name="dieresis" unicode="&#xa8;" horiz-adv-x="554" 
d="M442 631q-18 0 -30 11t-12 31q0 23 14 40t39 17q20 0 30 -11t10 -29q0 -28 -16 -43.5t-35 -15.5zM263 631q-19 0 -31 11t-12 31q0 23 14 40t39 17q14 0 23 -5t13 -14t4 -21q0 -28 -15.5 -43.5t-34.5 -15.5z" />
    <glyph glyph-name="copyright" unicode="&#xa9;" horiz-adv-x="832" 
d="M416 -10q-80 0 -147 27t-116.5 76.5t-76.5 116.5t-27 147t27 147t76.5 116.5t116.5 76.5t147 27q76 0 142.5 -27t117 -76.5t79 -116.5t28.5 -147t-27 -147t-76.5 -116.5t-116.5 -76.5t-147 -27zM431 133q-99 0 -148 61.5t-49 162.5q0 65 23 115.5t68 79t110 28.5
q31 0 63 -8t60 -22l-29 -61q-25 13 -48.5 19.5t-44.5 6.5q-59 0 -91.5 -42t-32.5 -116q0 -76 28.5 -117.5t94.5 -41.5q23 0 51.5 6.5t53.5 16.5v-64q-24 -10 -49 -17t-60 -7zM416 43q64 0 120 23t99 65.5t67 99.5t24 126q0 65 -23 122t-64.5 100t-98 67.5t-124.5 24.5
t-125 -23t-98.5 -65.5t-64.5 -99.5t-23 -126q0 -65 23 -122t64.5 -100t98.5 -67.5t125 -24.5z" />
    <glyph glyph-name="ordfeminine" unicode="&#xaa;" horiz-adv-x="339" 
d="M170 383q-24 0 -44 13t-32 38t-12 61q0 42 10.5 82.5t31 73t50.5 52t69 19.5q32 0 49.5 -15t25.5 -35h4l18 44h45l-69 -327h-47l7 56h-3q-19 -26 -43 -44t-60 -18zM189 436q22 0 40 11.5t31 30.5t22 41.5t13.5 45.5t4.5 42q0 29 -13.5 46t-41.5 17q-24 0 -43 -14.5
t-33 -39t-21 -54.5t-7 -60q0 -34 13 -50t35 -16z" />
    <glyph glyph-name="guillemotleft" unicode="&#xab;" horiz-adv-x="477" 
d="M154 54l-112 217v13l192 187l43 -43l-144 -160l82 -188zM344 54l-105 197v14l181 201l47 -38l-138 -177l76 -171z" />
    <glyph glyph-name="logicalnot" unicode="&#xac;" horiz-adv-x="572" 
d="M540 388v-260h-71v189h-399v71h470z" />
    <glyph glyph-name="uni00AD" unicode="&#xad;" horiz-adv-x="313" 
d="M26 227l18 81h236l-18 -81h-236z" />
    <glyph glyph-name="registered" unicode="&#xae;" horiz-adv-x="832" 
d="M279 138v437h128q82 0 120 -32t38 -97q0 -47 -24 -74.5t-54 -39.5l116 -194h-86l-100 173h-62v-173h-76zM355 373h50q39 0 61 20t22 51q0 35 -20 51t-64 16h-49v-138zM416 -10q-80 0 -147 27t-116.5 76.5t-76.5 116.5t-27 147t27 147t76.5 116.5t116.5 76.5t147 27
q76 0 142.5 -27t117 -76.5t79 -116.5t28.5 -147t-27 -147t-76.5 -116.5t-116.5 -76.5t-147 -27zM416 43q64 0 120 23t99 65.5t67 99.5t24 126q0 65 -23 122t-64.5 100t-98 67.5t-124.5 24.5t-125 -23t-98.5 -65.5t-64.5 -99.5t-23 -126q0 -65 23 -122t64.5 -100t98.5 -67.5
t125 -24.5z" />
    <glyph glyph-name="overscore" unicode="&#xaf;" horiz-adv-x="393" 
d="M101 760l16 67h395l-17 -67h-394z" />
    <glyph glyph-name="degree" unicode="&#xb0;" horiz-adv-x="428" 
d="M214 417q-48 0 -83.5 19.5t-55.5 54t-20 79.5q0 46 19.5 80.5t55 54t84.5 19.5q47 0 83 -19.5t56 -54t20 -80.5q0 -45 -20 -79.5t-56 -54t-83 -19.5zM215 476q48 0 70.5 26t22.5 68q0 44 -23.5 70t-69.5 26q-49 0 -72 -26t-23 -70q0 -42 23 -68t72 -26z" />
    <glyph glyph-name="plusminus" unicode="&#xb1;" horiz-adv-x="572" 
d="M70 0v71h471v-71h-471zM341 391h199v-71h-199v-206h-72v206h-199v71h199v207h72v-207z" />
    <glyph glyph-name="uni00B2" unicode="&#xb2;" horiz-adv-x="353" 
d="M71 416l12 55l129 110q40 35 65.5 61t38 49t12.5 49q0 25 -14.5 40t-42.5 15q-25 0 -48 -9.5t-47 -29.5l-31 47q31 25 64.5 37.5t73.5 12.5q42 0 67 -15t36.5 -38.5t11.5 -48.5q0 -33 -11.5 -61t-38.5 -58t-73 -68l-104 -87h191l-13 -61h-278z" />
    <glyph glyph-name="uni00B3" unicode="&#xb3;" horiz-adv-x="353" 
d="M196 409q-33 0 -62.5 7.5t-52.5 19.5v65q26 -15 57 -25t60 -10q50 0 74.5 22t24.5 59q0 32 -21.5 48t-62.5 16h-46l12 55h46q31 0 53.5 8.5t35.5 25t13 39.5q0 29 -16.5 43.5t-47.5 13.5q-26 -1 -48.5 -9.5t-43.5 -23.5l-28 48q23 18 57 30.5t76 12.5q40 0 66.5 -13
t40 -36t13.5 -52q0 -45 -27 -72.5t-75 -40.5v-4q35 -8 53.5 -32.5t18.5 -58.5q0 -38 -18.5 -69t-56 -49t-95.5 -18z" />
    <glyph glyph-name="acute" unicode="&#xb4;" horiz-adv-x="263" 
d="M115 606v13q18 19 38.5 45l40 53t33.5 49h100v-10q-10 -13 -28.5 -33t-41 -42t-45.5 -41.5t-42 -33.5h-55z" />
    <glyph glyph-name="uni03BC" unicode="&#x3bc;" horiz-adv-x="585" 
d="M-22 -240l164 776h88l-71 -337q-4 -22 -6.5 -38t-2.5 -27q0 -34 16.5 -52.5t53.5 -18.5q34 0 72.5 23.5t73 76.5t53.5 140l51 233h86l-114 -536h-72l11 99h-5q-19 -25 -44.5 -50.5t-58 -42t-74.5 -16.5q-26 0 -46 11t-33 35h-4q-2 -14 -6 -38l-7.5 -47t-6.5 -37l-32 -154
h-86z" />
    <glyph glyph-name="paragraph" unicode="&#xb6;" horiz-adv-x="655" 
d="M371 -127v400q-15 -4 -32.5 -6.5t-38.5 -2.5q-46 0 -84 12.5t-65 41t-41.5 75.5t-14.5 116q0 72 16 120t45 77t69.5 41.5t89.5 12.5h274v-887h-58v809h-102v-809h-58z" />
    <glyph glyph-name="periodcentered" unicode="&#xb7;" horiz-adv-x="256" 
d="M133 285q-25 0 -38.5 13.5t-13.5 38.5q0 33 18.5 58t58.5 25q22 0 35.5 -13.5t13.5 -39.5q0 -31 -18 -56.5t-56 -25.5z" />
    <glyph glyph-name="cedilla" unicode="&#xb8;" horiz-adv-x="205" 
d="M-40 -240q-13 0 -25 1.5t-20 3.5v52q10 -2 19.5 -3t16.5 -1q28 0 46 6t27 18t9 29q0 22 -18.5 32t-48.5 14l48 88h56l-29 -57q23 -7 43.5 -23.5t20.5 -53.5q0 -30 -16.5 -54t-49 -38t-79.5 -14z" />
    <glyph glyph-name="uni00B9" unicode="&#xb9;" horiz-adv-x="353" 
d="M190 415l53 251q5 25 13.5 56.5l14.5 52.5l-19.5 -17.5t-23.5 -19.5l-52 -34l-28 47l142 92h62l-91 -428h-71z" />
    <glyph glyph-name="ordmasculine" unicode="&#xba;" horiz-adv-x="339" 
d="M208 383q-52 0 -87 32.5t-35 98.5q0 39 10.5 76t31 67t51.5 47.5t72 17.5q63 0 91.5 -36t28.5 -92q0 -39 -9.5 -76.5t-29 -68t-50.5 -48.5t-74 -18zM213 435q25 0 44 13t31.5 35.5t18.5 50t6 57.5q0 41 -17.5 59.5t-46.5 18.5q-26 0 -45.5 -12.5t-32.5 -34t-19.5 -49
t-6.5 -57.5q0 -40 18 -60.5t50 -20.5z" />
    <glyph glyph-name="guillemotright" unicode="&#xbb;" horiz-adv-x="477" 
d="M243 54l-43 43l144 159l-82 189l61 26l112 -218v-14zM57 60l-47 37l138 175l-76 173l61 26l105 -198v-15z" />
    <glyph glyph-name="onequarter" unicode="&#xbc;" horiz-adv-x="732" 
d="M86 0l530 714h79l-530 -714h-79zM159 286l53 251q5 25 13.5 56.5l14.5 52.5l-19.5 -17.5t-23.5 -19.5l-52 -34l-28 47l142 92h62l-91 -428h-71zM536 1l20 97h-178l11 52l235 282h71l-59 -275h61l-11 -59h-63l-20 -97h-67zM461 157h108l20 92l11 49.5t12 47.5
q-4 -7 -13.5 -20.5t-20.5 -27.5t-19 -23z" />
    <glyph glyph-name="onehalf" unicode="&#xbd;" horiz-adv-x="805" 
d="M88 0l530 714h79l-530 -714h-79zM159 286l53 251q5 25 13.5 56.5l14.5 52.5l-19.5 -17.5t-23.5 -19.5l-52 -34l-28 47l142 92h62l-91 -428h-71zM435 1l12 55l129 110q40 35 65.5 61t38 49t12.5 49q0 25 -14.5 40t-42.5 15q-25 0 -48 -9.5t-47 -29.5l-31 47
q31 25 64.5 37.5t73.5 12.5q42 0 67 -15t36.5 -38.5t11.5 -48.5q0 -33 -11.5 -61t-38.5 -58t-73 -68l-104 -87h191l-13 -61h-278z" />
    <glyph glyph-name="threequarters" unicode="&#xbe;" horiz-adv-x="793" 
d="M170 279q-33 0 -62.5 7.5t-52.5 19.5v65q26 -15 57 -25t60 -10q50 0 74.5 22t24.5 59q0 32 -21.5 48t-62.5 16h-46l12 55h46q31 0 53.5 8.5t35.5 25t13 39.5q0 29 -16.5 43.5t-47.5 13.5q-26 -1 -48.5 -9.5t-43.5 -23.5l-28 48q23 18 57 30.5t76 12.5q40 0 66.5 -13
t40 -36t13.5 -52q0 -45 -27 -72.5t-75 -40.5v-4q35 -8 53.5 -32.5t18.5 -58.5q0 -38 -18.5 -69t-56 -49t-95.5 -18zM150 0l530 714h79l-530 -714h-79zM597 0l20 97h-178l11 52l235 282h71l-59 -275h61l-11 -59h-63l-20 -97h-67zM522 156h108l20 92l11 49.5t12 47.5
q-4 -7 -13.5 -20.5t-20.5 -27.5t-19 -23z" />
    <glyph glyph-name="questiondown" unicode="&#xbf;" horiz-adv-x="430" 
d="M306 330q-7 -43 -20.5 -75t-37 -59.5t-59.5 -55.5l-59.5 -48t-44.5 -51t-17 -66q0 -44 24 -68t70 -24q38 0 74.5 12.5t69.5 28.5l32 -67q-41 -22 -90 -36t-96 -14q-79 0 -126 39t-47 118q0 45 16.5 81.5t48 69.5t78.5 68q39 28 60.5 48t33 42t19.5 57h71zM304 545
q25 0 38.5 -13.5t13.5 -38.5q0 -33 -18.5 -58t-58.5 -25q-22 0 -35.5 13.5t-13.5 39.5q0 31 18 56.5t56 25.5z" />
    <glyph glyph-name="Agrave" unicode="&#xc0;" horiz-adv-x="562" 
d="M-57 0l388 714h94l88 -714h-88l-27 222h-241l-116 -222h-98zM200 302h189l-16 150q-4 38 -7.5 84t-4.5 81h-3q-16 -38 -37 -81.5l-44 -87.5zM394 784q-19 19 -40.5 46t-40.5 55t-29 49v10h94q8 -24 19 -50t24.5 -50.5l26.5 -47.5v-12h-54z" />
    <glyph glyph-name="Aacute" unicode="&#xc1;" horiz-adv-x="562" 
d="M-57 0l388 714h94l88 -714h-88l-27 222h-241l-116 -222h-98zM200 302h189l-16 150q-4 38 -7.5 84t-4.5 81h-3q-16 -38 -37 -81.5l-44 -87.5zM338 784v13q18 19 38.5 45l40 53t33.5 49h100v-10q-10 -13 -28.5 -33t-41 -42t-45.5 -41.5t-42 -33.5h-55z" />
    <glyph glyph-name="Acircumflex" unicode="&#xc2;" horiz-adv-x="562" 
d="M-57 0l388 714h94l88 -714h-88l-27 222h-241l-116 -222h-98zM200 302h189l-16 150q-4 38 -7.5 84t-4.5 81h-3q-16 -38 -37 -81.5l-44 -87.5zM227 784v13l45 42t54.5 54.5t40.5 50.5h85q10 -26 25 -52.5t31 -50.5t28 -44v-13h-55q-12 11 -25 25t-26.5 31l-27.5 35
q-30 -27 -60.5 -50.5t-56.5 -40.5h-58z" />
    <glyph glyph-name="Atilde" unicode="&#xc3;" horiz-adv-x="562" 
d="M-57 0l388 714h94l88 -714h-88l-27 222h-241l-116 -222h-98zM200 302h189l-16 150q-4 38 -7.5 84t-4.5 81h-3q-16 -38 -37 -81.5l-44 -87.5zM221 784q9 42 25 70.5t38.5 43t51.5 14.5q22 0 41 -8.5t36.5 -19l32.5 -19t28 -8.5q22 0 34 13t24 43h53q-11 -41 -27.5 -70
t-38.5 -43.5t-51 -14.5q-20 0 -38 8.5t-35 19t-33.5 19t-32.5 8.5q-21 0 -33 -14t-23 -42h-52z" />
    <glyph glyph-name="Adieresis" unicode="&#xc4;" horiz-adv-x="562" 
d="M-57 0l388 714h94l88 -714h-88l-27 222h-241l-116 -222h-98zM200 302h189l-16 150q-4 38 -7.5 84t-4.5 81h-3q-16 -38 -37 -81.5l-44 -87.5zM487 809q-18 0 -30 11t-12 31q0 23 14 40t39 17q20 0 30 -11t10 -29q0 -28 -16 -43.5t-35 -15.5zM308 809q-19 0 -31 11t-12 31
q0 23 14 40t39 17q14 0 23 -5t13 -14t4 -21q0 -28 -15.5 -43.5t-34.5 -15.5z" />
    <glyph glyph-name="Aring" unicode="&#xc5;" horiz-adv-x="562" 
d="M-57 0l388 714h94l88 -714h-88l-27 222h-241l-116 -222h-98zM200 302h189l-16 150q-4 38 -7.5 84t-4.5 81h-3q-16 -38 -37 -81.5l-44 -87.5zM396 784q-48 0 -78 27.5t-30 77.5t32 77t76 27q48 0 78.5 -27t30.5 -76q0 -51 -31 -78.5t-78 -27.5zM396 834q25 0 40.5 15
t15.5 40q0 26 -15.5 40.5t-40.5 14.5q-23 0 -39 -14.5t-16 -40.5q0 -25 14.5 -40t40.5 -15z" />
    <glyph glyph-name="AE" unicode="&#xc6;" horiz-adv-x="824" 
d="M-58 0l457 714h465l-16 -79h-274l-48 -223h256l-15 -78h-256l-54 -255h273l-17 -79h-363l47 222h-214l-139 -222h-102zM234 302h179l71 333h-41z" />
    <glyph glyph-name="Ccedilla" unicode="&#xc7;" horiz-adv-x="587" 
d="M326 -10q-79 0 -136 33t-87.5 94.5t-30.5 145.5q0 64 15 130t45.5 125t77 105.5t108.5 73.5t140 27q51 0 94 -10t80 -30l-36 -74q-27 14 -60.5 24.5t-77.5 10.5q-60 0 -107 -22t-81.5 -60t-57.5 -86.5t-34 -103t-11 -108.5q0 -91 46.5 -143.5t128.5 -52.5q41 0 80.5 8
t77.5 21v-78q-39 -14 -78.5 -22t-95.5 -8zM234 -240q-13 0 -25 1.5t-20 3.5v52q10 -2 19.5 -3t16.5 -1q28 0 46 6t27 18t9 29q0 22 -18.5 32t-48.5 14l48 88h56l-29 -57q23 -7 43.5 -23.5t20.5 -53.5q0 -30 -16.5 -54t-49 -38t-79.5 -14z" />
    <glyph glyph-name="Egrave" unicode="&#xc8;" horiz-adv-x="514" 
d="M41 0l151 714h362l-17 -79h-273l-47 -223h255l-15 -78h-256l-55 -255h274l-17 -79h-362zM388 784q-19 19 -40.5 46t-40.5 55t-29 49v10h94q8 -24 19 -50t24.5 -50.5l26.5 -47.5v-12h-54z" />
    <glyph glyph-name="Eacute" unicode="&#xc9;" horiz-adv-x="514" 
d="M41 0l151 714h362l-17 -79h-273l-47 -223h255l-15 -78h-256l-55 -255h274l-17 -79h-362zM332 784v13q18 19 38.5 45l40 53t33.5 49h100v-10q-10 -13 -28.5 -33t-41 -42t-45.5 -41.5t-42 -33.5h-55z" />
    <glyph glyph-name="Ecircumflex" unicode="&#xca;" horiz-adv-x="514" 
d="M41 0l151 714h362l-17 -79h-273l-47 -223h255l-15 -78h-256l-55 -255h274l-17 -79h-362zM221 784v13l45 42t54.5 54.5t40.5 50.5h85q10 -26 25 -52.5t31 -50.5t28 -44v-13h-55q-12 11 -25 25t-26.5 31l-27.5 35q-30 -27 -60.5 -50.5t-56.5 -40.5h-58z" />
    <glyph glyph-name="Edieresis" unicode="&#xcb;" horiz-adv-x="514" 
d="M41 0l151 714h362l-17 -79h-273l-47 -223h255l-15 -78h-256l-55 -255h274l-17 -79h-362zM481 809q-18 0 -30 11t-12 31q0 23 14 40t39 17q20 0 30 -11t10 -29q0 -28 -16 -43.5t-35 -15.5zM302 809q-19 0 -31 11t-12 31q0 23 14 40t39 17q14 0 23 -5t13 -14t4 -21
q0 -28 -15.5 -43.5t-34.5 -15.5z" />
    <glyph glyph-name="Igrave" unicode="&#xcc;" horiz-adv-x="324" 
d="M-20 0l10 49l85 20l122 576l-76 19l10 50h250l-10 -50l-86 -19l-122 -576l77 -20l-10 -49h-250zM275 784q-19 19 -40.5 46t-40.5 55t-29 49v10h94q8 -24 19 -50t24.5 -50.5l26.5 -47.5v-12h-54z" />
    <glyph glyph-name="Iacute" unicode="&#xcd;" horiz-adv-x="324" 
d="M-20 0l10 49l85 20l122 576l-76 19l10 50h250l-10 -50l-86 -19l-122 -576l77 -20l-10 -49h-250zM219 784v13q18 19 38.5 45l40 53t33.5 49h100v-10q-10 -13 -28.5 -33t-41 -42t-45.5 -41.5t-42 -33.5h-55z" />
    <glyph glyph-name="Icircumflex" unicode="&#xce;" horiz-adv-x="324" 
d="M-20 0l10 49l85 20l122 576l-76 19l10 50h250l-10 -50l-86 -19l-122 -576l77 -20l-10 -49h-250zM108 784v13l45 42t54.5 54.5t40.5 50.5h85q10 -26 25 -52.5t31 -50.5t28 -44v-13h-55q-12 11 -25 25t-26.5 31l-27.5 35q-30 -27 -60.5 -50.5t-56.5 -40.5h-58z" />
    <glyph glyph-name="Idieresis" unicode="&#xcf;" horiz-adv-x="324" 
d="M-20 0l10 49l85 20l122 576l-76 19l10 50h250l-10 -50l-86 -19l-122 -576l77 -20l-10 -49h-250zM368 809q-18 0 -30 11t-12 31q0 23 14 40t39 17q20 0 30 -11t10 -29q0 -28 -16 -43.5t-35 -15.5zM189 809q-19 0 -31 11t-12 31q0 23 14 40t39 17q14 0 23 -5t13 -14t4 -21
q0 -28 -15.5 -43.5t-34.5 -15.5z" />
    <glyph glyph-name="Eth" unicode="&#xd0;" horiz-adv-x="667" 
d="M41 0l65 315h-73l17 77h73l69 322h169q129 0 202 -70t73 -215q0 -74 -17.5 -139.5t-52 -118.5t-85.5 -91.5t-117 -59t-147 -20.5h-176zM146 77h76q62 0 112.5 17.5t89.5 49.5t65 76t39.5 97t13.5 113q0 110 -52.5 158.5t-139.5 48.5h-85l-52 -245h157l-17 -77h-157z" />
    <glyph glyph-name="Ntilde" unicode="&#xd1;" horiz-adv-x="707" 
d="M40 0l151 714h95l219 -590h3q3 24 8.5 57.5t12.5 70t14 69.5l84 393h85l-151 -714h-95l-221 592h-3q-2 -16 -5.5 -39.5t-8.5 -51l-10.5 -57t-11.5 -56.5l-82 -388h-84zM299 784q9 42 25 70.5t38.5 43t51.5 14.5q22 0 41 -8.5t36.5 -19l32.5 -19t28 -8.5q22 0 34 13t24 43
h53q-11 -41 -27.5 -70t-38.5 -43.5t-51 -14.5q-20 0 -38 8.5t-35 19t-33.5 19t-32.5 8.5q-21 0 -33 -14t-23 -42h-52z" />
    <glyph glyph-name="Ograve" unicode="&#xd2;" horiz-adv-x="721" 
d="M337 -10q-85 0 -144.5 33.5t-90 96t-30.5 147.5q0 62 11 119.5t32.5 108.5t52.5 93t71.5 73t89 47.5t104.5 16.5q122 0 189.5 -75t67.5 -206q0 -62 -10 -119.5t-30 -108t-50 -92t-69 -71.5t-87.5 -46.5t-106.5 -16.5zM340 69q40 0 74 14t62.5 39t50.5 59.5t37 77t23 90
t8 97.5q0 95 -45 147.5t-123 52.5q-40 0 -75 -13.5t-63.5 -38t-51.5 -59t-38.5 -76.5t-23.5 -90t-8 -100q0 -63 21 -107.5t59.5 -68.5t92.5 -24zM474 784q-19 19 -40.5 46t-40.5 55t-29 49v10h94q8 -24 19 -50t24.5 -50.5l26.5 -47.5v-12h-54z" />
    <glyph glyph-name="Oacute" unicode="&#xd3;" horiz-adv-x="721" 
d="M337 -10q-85 0 -144.5 33.5t-90 96t-30.5 147.5q0 62 11 119.5t32.5 108.5t52.5 93t71.5 73t89 47.5t104.5 16.5q122 0 189.5 -75t67.5 -206q0 -62 -10 -119.5t-30 -108t-50 -92t-69 -71.5t-87.5 -46.5t-106.5 -16.5zM340 69q40 0 74 14t62.5 39t50.5 59.5t37 77t23 90
t8 97.5q0 95 -45 147.5t-123 52.5q-40 0 -75 -13.5t-63.5 -38t-51.5 -59t-38.5 -76.5t-23.5 -90t-8 -100q0 -63 21 -107.5t59.5 -68.5t92.5 -24zM418 784v13q18 19 38.5 45l40 53t33.5 49h100v-10q-10 -13 -28.5 -33t-41 -42t-45.5 -41.5t-42 -33.5h-55z" />
    <glyph glyph-name="Ocircumflex" unicode="&#xd4;" horiz-adv-x="721" 
d="M337 -10q-85 0 -144.5 33.5t-90 96t-30.5 147.5q0 62 11 119.5t32.5 108.5t52.5 93t71.5 73t89 47.5t104.5 16.5q122 0 189.5 -75t67.5 -206q0 -62 -10 -119.5t-30 -108t-50 -92t-69 -71.5t-87.5 -46.5t-106.5 -16.5zM340 69q40 0 74 14t62.5 39t50.5 59.5t37 77t23 90
t8 97.5q0 95 -45 147.5t-123 52.5q-40 0 -75 -13.5t-63.5 -38t-51.5 -59t-38.5 -76.5t-23.5 -90t-8 -100q0 -63 21 -107.5t59.5 -68.5t92.5 -24zM307 784v13l45 42t54.5 54.5t40.5 50.5h85q10 -26 25 -52.5t31 -50.5t28 -44v-13h-55q-12 11 -25 25t-26.5 31l-27.5 35
q-30 -27 -60.5 -50.5t-56.5 -40.5h-58z" />
    <glyph glyph-name="Otilde" unicode="&#xd5;" horiz-adv-x="721" 
d="M337 -10q-85 0 -144.5 33.5t-90 96t-30.5 147.5q0 62 11 119.5t32.5 108.5t52.5 93t71.5 73t89 47.5t104.5 16.5q122 0 189.5 -75t67.5 -206q0 -62 -10 -119.5t-30 -108t-50 -92t-69 -71.5t-87.5 -46.5t-106.5 -16.5zM340 69q40 0 74 14t62.5 39t50.5 59.5t37 77t23 90
t8 97.5q0 95 -45 147.5t-123 52.5q-40 0 -75 -13.5t-63.5 -38t-51.5 -59t-38.5 -76.5t-23.5 -90t-8 -100q0 -63 21 -107.5t59.5 -68.5t92.5 -24zM301 784q9 42 25 70.5t38.5 43t51.5 14.5q22 0 41 -8.5t36.5 -19l32.5 -19t28 -8.5q22 0 34 13t24 43h53q-11 -41 -27.5 -70
t-38.5 -43.5t-51 -14.5q-20 0 -38 8.5t-35 19t-33.5 19t-32.5 8.5q-21 0 -33 -14t-23 -42h-52z" />
    <glyph glyph-name="Odieresis" unicode="&#xd6;" horiz-adv-x="721" 
d="M337 -10q-85 0 -144.5 33.5t-90 96t-30.5 147.5q0 62 11 119.5t32.5 108.5t52.5 93t71.5 73t89 47.5t104.5 16.5q122 0 189.5 -75t67.5 -206q0 -62 -10 -119.5t-30 -108t-50 -92t-69 -71.5t-87.5 -46.5t-106.5 -16.5zM340 69q40 0 74 14t62.5 39t50.5 59.5t37 77t23 90
t8 97.5q0 95 -45 147.5t-123 52.5q-40 0 -75 -13.5t-63.5 -38t-51.5 -59t-38.5 -76.5t-23.5 -90t-8 -100q0 -63 21 -107.5t59.5 -68.5t92.5 -24zM567 809q-18 0 -30 11t-12 31q0 23 14 40t39 17q20 0 30 -11t10 -29q0 -28 -16 -43.5t-35 -15.5zM388 809q-19 0 -31 11t-12 31
q0 23 14 40t39 17q14 0 23 -5t13 -14t4 -21q0 -28 -15.5 -43.5t-34.5 -15.5z" />
    <glyph glyph-name="multiply" unicode="&#xd7;" horiz-adv-x="572" 
d="M476 574l50 -51l-170 -170l169 -170l-50 -51l-171 169l-167 -169l-52 51l169 170l-170 169l52 52l169 -171z" />
    <glyph glyph-name="Oslash" unicode="&#xd8;" horiz-adv-x="721" 
d="M114 -41l-57 46l66 82q-26 35 -38.5 81t-12.5 99q0 62 11 119.5t32.5 108.5t52.5 93t71.5 73t89 47.5t104.5 16.5q48 0 87 -13t73 -39l63 79l58 -46l-72 -88q23 -31 35.5 -76.5t12.5 -97.5q0 -62 -10 -119.5t-30 -108t-50 -92t-69 -71.5t-87.5 -46.5t-106.5 -16.5
q-49 0 -88.5 11.5t-72.5 34.5zM340 69q40 0 74.5 14t63 39t50.5 59.5t37 77t23 90t8 97.5q0 27 -4 51t-11 43l-352 -437q20 -16 48.5 -25t62.5 -9zM185 164l353 442q-21 20 -48.5 30.5t-62.5 10.5q-40 0 -75 -13.5t-64 -38.5t-51.5 -59t-38.5 -76.5t-24 -90.5t-8 -100
q0 -30 5 -57t14 -48z" />
    <glyph glyph-name="Ugrave" unicode="&#xd9;" horiz-adv-x="677" 
d="M300 -10q-74 0 -123.5 23t-73.5 67t-24 108q0 17 3 42t9 53l92 431h89l-93 -436q-5 -23 -8 -48t-3 -41q0 -56 34.5 -88t102.5 -32q59 0 97.5 20.5t61.5 61t36 99.5l99 464h89l-100 -471q-16 -78 -50.5 -135t-92.5 -87.5t-145 -30.5zM452 784q-19 19 -40.5 46t-40.5 55
t-29 49v10h94q8 -24 19 -50t24.5 -50.5l26.5 -47.5v-12h-54z" />
    <glyph glyph-name="Uacute" unicode="&#xda;" horiz-adv-x="677" 
d="M300 -10q-74 0 -123.5 23t-73.5 67t-24 108q0 17 3 42t9 53l92 431h89l-93 -436q-5 -23 -8 -48t-3 -41q0 -56 34.5 -88t102.5 -32q59 0 97.5 20.5t61.5 61t36 99.5l99 464h89l-100 -471q-16 -78 -50.5 -135t-92.5 -87.5t-145 -30.5zM396 784v13q18 19 38.5 45l40 53
t33.5 49h100v-10q-10 -13 -28.5 -33t-41 -42t-45.5 -41.5t-42 -33.5h-55z" />
    <glyph glyph-name="Ucircumflex" unicode="&#xdb;" horiz-adv-x="677" 
d="M300 -10q-74 0 -123.5 23t-73.5 67t-24 108q0 17 3 42t9 53l92 431h89l-93 -436q-5 -23 -8 -48t-3 -41q0 -56 34.5 -88t102.5 -32q59 0 97.5 20.5t61.5 61t36 99.5l99 464h89l-100 -471q-16 -78 -50.5 -135t-92.5 -87.5t-145 -30.5zM285 784v13l45 42t54.5 54.5
t40.5 50.5h85q10 -26 25 -52.5t31 -50.5t28 -44v-13h-55q-12 11 -25 25t-26.5 31l-27.5 35q-30 -27 -60.5 -50.5t-56.5 -40.5h-58z" />
    <glyph glyph-name="Udieresis" unicode="&#xdc;" horiz-adv-x="677" 
d="M300 -10q-74 0 -123.5 23t-73.5 67t-24 108q0 17 3 42t9 53l92 431h89l-93 -436q-5 -23 -8 -48t-3 -41q0 -56 34.5 -88t102.5 -32q59 0 97.5 20.5t61.5 61t36 99.5l99 464h89l-100 -471q-16 -78 -50.5 -135t-92.5 -87.5t-145 -30.5zM545 809q-18 0 -30 11t-12 31
q0 23 14 40t39 17q20 0 30 -11t10 -29q0 -28 -16 -43.5t-35 -15.5zM366 809q-19 0 -31 11t-12 31q0 23 14 40t39 17q14 0 23 -5t13 -14t4 -21q0 -28 -15.5 -43.5t-34.5 -15.5z" />
    <glyph glyph-name="Yacute" unicode="&#xdd;" horiz-adv-x="509" 
d="M150 0l58 268l-116 446h89l85 -358l234 358h101l-306 -449l-55 -265h-90zM312 784v13q18 19 38.5 45l40 53t33.5 49h100v-10q-10 -13 -28.5 -33t-41 -42t-45.5 -41.5t-42 -33.5h-55z" />
    <glyph glyph-name="Thorn" unicode="&#xde;" horiz-adv-x="567" 
d="M41 0l151 714h89l-26 -124h72q77 0 124 -23t69 -65t22 -98q0 -60 -20.5 -106.5t-60.5 -78.5t-99 -48t-136 -16h-63l-33 -155h-89zM178 231h63q64 0 110.5 18t72.5 55.5t26 96.5q0 60 -33.5 86t-101.5 26h-77z" />
    <glyph glyph-name="germandbls" unicode="&#xdf;" horiz-adv-x="584" 
d="M-64 -240q-18 0 -34 3t-27 7v75q12 -5 25 -8t29 -3q32 0 52.5 23t31.5 75l136 638q14 66 43.5 109t76 64.5t110.5 21.5q78 0 125 -34t47 -99q0 -35 -14 -62t-36 -48t-47 -40q-31 -23 -57 -45t-26 -49q0 -15 11.5 -28.5t26.5 -24.5t25 -19q38 -32 61 -64t23 -79
q0 -64 -28 -104.5t-73 -59.5t-98 -19q-45 0 -78 9.5t-54 25.5v81q21 -16 54 -30t67 -14q60 0 90 29.5t30 71.5q0 22 -6.5 38t-21 31t-37.5 34q-42 32 -60 59t-18 58q0 34 14 58.5t36 43t45 34.5q22 15 41.5 30.5t31.5 34.5t12 42q0 32 -26 49.5t-68 17.5q-38 0 -65 -14
t-44 -41t-26 -68l-133 -632q-12 -55 -32.5 -95t-53 -61.5t-81.5 -21.5z" />
    <glyph glyph-name="agrave" unicode="&#xe0;" horiz-adv-x="568" 
d="M193 -10q-43 0 -75.5 20.5t-51 61.5t-18.5 101t12.5 115.5t35.5 102.5t55.5 81.5t73 54t86.5 19.5q35 0 61.5 -13t44.5 -34t29 -46h5l32 83h67l-114 -536h-70l13 99h-4q-23 -29 -51 -54t-60.5 -40t-70.5 -15zM222 63q37 0 72.5 27t64 73t44.5 103q8 29 10.5 53.5
t2.5 45.5q0 47 -26 77t-70 30q-31 0 -58.5 -16t-50.5 -44.5t-39 -66.5t-25 -82.5t-9 -91.5q0 -54 22 -81t62 -27zM359 606q-19 19 -40.5 46t-40.5 55t-29 49v10h94q8 -24 19 -50t24.5 -50.5l26.5 -47.5v-12h-54z" />
    <glyph glyph-name="aacute" unicode="&#xe1;" horiz-adv-x="568" 
d="M193 -10q-43 0 -75.5 20.5t-51 61.5t-18.5 101t12.5 115.5t35.5 102.5t55.5 81.5t73 54t86.5 19.5q35 0 61.5 -13t44.5 -34t29 -46h5l32 83h67l-114 -536h-70l13 99h-4q-23 -29 -51 -54t-60.5 -40t-70.5 -15zM222 63q37 0 72.5 27t64 73t44.5 103q8 29 10.5 53.5
t2.5 45.5q0 47 -26 77t-70 30q-31 0 -58.5 -16t-50.5 -44.5t-39 -66.5t-25 -82.5t-9 -91.5q0 -54 22 -81t62 -27zM303 606v13q18 19 38.5 45l40 53t33.5 49h100v-10q-10 -13 -28.5 -33t-41 -42t-45.5 -41.5t-42 -33.5h-55z" />
    <glyph glyph-name="acircumflex" unicode="&#xe2;" horiz-adv-x="568" 
d="M193 -10q-43 0 -75.5 20.5t-51 61.5t-18.5 101t12.5 115.5t35.5 102.5t55.5 81.5t73 54t86.5 19.5q35 0 61.5 -13t44.5 -34t29 -46h5l32 83h67l-114 -536h-70l13 99h-4q-23 -29 -51 -54t-60.5 -40t-70.5 -15zM222 63q37 0 72.5 27t64 73t44.5 103q8 29 10.5 53.5
t2.5 45.5q0 47 -26 77t-70 30q-31 0 -58.5 -16t-50.5 -44.5t-39 -66.5t-25 -82.5t-9 -91.5q0 -54 22 -81t62 -27zM192 606v13l45 42t54.5 54.5t40.5 50.5h85q10 -26 25 -52.5t31 -50.5t28 -44v-13h-55q-12 11 -25 25t-26.5 31l-27.5 35q-30 -27 -60.5 -50.5t-56.5 -40.5h-58
z" />
    <glyph glyph-name="atilde" unicode="&#xe3;" horiz-adv-x="568" 
d="M193 -10q-43 0 -75.5 20.5t-51 61.5t-18.5 101t12.5 115.5t35.5 102.5t55.5 81.5t73 54t86.5 19.5q35 0 61.5 -13t44.5 -34t29 -46h5l32 83h67l-114 -536h-70l13 99h-4q-23 -29 -51 -54t-60.5 -40t-70.5 -15zM222 63q37 0 72.5 27t64 73t44.5 103q8 29 10.5 53.5
t2.5 45.5q0 47 -26 77t-70 30q-31 0 -58.5 -16t-50.5 -44.5t-39 -66.5t-25 -82.5t-9 -91.5q0 -54 22 -81t62 -27zM186 606q9 42 25 70.5t38.5 43t51.5 14.5q22 0 41 -8.5t36.5 -19l32.5 -19t28 -8.5q22 0 34 13t24 43h53q-11 -41 -27.5 -70t-38.5 -43.5t-51 -14.5
q-20 0 -38 8.5t-35 19t-33.5 19t-32.5 8.5q-21 0 -33 -14t-23 -42h-52z" />
    <glyph glyph-name="adieresis" unicode="&#xe4;" horiz-adv-x="568" 
d="M193 -10q-43 0 -75.5 20.5t-51 61.5t-18.5 101t12.5 115.5t35.5 102.5t55.5 81.5t73 54t86.5 19.5q35 0 61.5 -13t44.5 -34t29 -46h5l32 83h67l-114 -536h-70l13 99h-4q-23 -29 -51 -54t-60.5 -40t-70.5 -15zM222 63q37 0 72.5 27t64 73t44.5 103q8 29 10.5 53.5
t2.5 45.5q0 47 -26 77t-70 30q-31 0 -58.5 -16t-50.5 -44.5t-39 -66.5t-25 -82.5t-9 -91.5q0 -54 22 -81t62 -27zM452 631q-18 0 -30 11t-12 31q0 23 14 40t39 17q20 0 30 -11t10 -29q0 -28 -16 -43.5t-35 -15.5zM273 631q-19 0 -31 11t-12 31q0 23 14 40t39 17q14 0 23 -5
t13 -14t4 -21q0 -28 -15.5 -43.5t-34.5 -15.5z" />
    <glyph glyph-name="aring" unicode="&#xe5;" horiz-adv-x="568" 
d="M193 -10q-43 0 -75.5 20.5t-51 61.5t-18.5 101t12.5 115.5t35.5 102.5t55.5 81.5t73 54t86.5 19.5q35 0 61.5 -13t44.5 -34t29 -46h5l32 83h67l-114 -536h-70l13 99h-4q-23 -29 -51 -54t-60.5 -40t-70.5 -15zM222 63q37 0 72.5 27t64 73t44.5 103q8 29 10.5 53.5
t2.5 45.5q0 47 -26 77t-70 30q-31 0 -58.5 -16t-50.5 -44.5t-39 -66.5t-25 -82.5t-9 -91.5q0 -54 22 -81t62 -27zM361 606q-48 0 -78 27.5t-30 77.5t32 77t76 27q48 0 78.5 -27t30.5 -76q0 -51 -31 -78.5t-78 -27.5zM361 656q25 0 40.5 15t15.5 40q0 26 -15.5 40.5
t-40.5 14.5q-23 0 -39 -14.5t-16 -40.5q0 -25 14.5 -40t40.5 -15z" />
    <glyph glyph-name="ae" unicode="&#xe6;" horiz-adv-x="820" 
d="M177 -10q-38 0 -67.5 21t-45.5 61.5t-16 99.5q0 61 12.5 116.5t35.5 102.5t54.5 81.5t70.5 54t82 19.5q32 0 55.5 -13t40 -34t26.5 -46h5l33 83h56l-14 -69q26 35 66 57t94 22q53 0 93 -30.5t40 -94.5q0 -39 -18 -73.5t-55.5 -60.5t-96.5 -40.5t-142 -14.5h-20
q-1 -9 -1.5 -19t-0.5 -18q0 -61 30 -96.5t93 -35.5q37 0 71.5 12t73.5 29v-77q-40 -18 -78.5 -27.5t-82.5 -9.5q-52 0 -92 19t-60 57l-14 -66h-59l12 99h-4q-27 -33 -53.5 -57.5t-56.5 -38t-67 -13.5zM206 63q27 0 53.5 15.5t50 43t42.5 65t31 80.5q8 28 10.5 52.5t2.5 45.5
q0 47 -21.5 77t-59.5 30q-30 0 -56.5 -16t-48.5 -44t-38 -66t-25 -82.5t-9 -91.5q0 -55 18 -82t50 -27zM479 303h9q60 0 111 10.5t81.5 34.5t30.5 64q0 32 -18.5 46.5t-44.5 14.5q-36 0 -69 -20t-58.5 -58t-41.5 -92z" />
    <glyph glyph-name="ccedilla" unicode="&#xe7;" horiz-adv-x="453" 
d="M247 -10q-59 0 -104 22t-70 66.5t-25 111.5q0 58 12.5 110.5t36.5 97.5t58 78t77.5 51.5t95.5 18.5q35 0 70 -7t63 -19l-25 -73q-20 9 -47.5 17t-59.5 8q-43 0 -78 -22.5t-60.5 -61t-39 -89.5t-13.5 -108q0 -40 14 -69t40.5 -44t63.5 -15q35 0 66.5 10t62.5 23v-74
q-28 -14 -62.5 -23t-75.5 -9zM138 -240q-13 0 -25 1.5t-20 3.5v52q10 -2 19.5 -3t16.5 -1q28 0 46 6t27 18t9 29q0 22 -18.5 32t-48.5 14l48 88h56l-29 -57q23 -7 43.5 -23.5t20.5 -53.5q0 -30 -16.5 -54t-49 -38t-79.5 -14z" />
    <glyph glyph-name="egrave" unicode="&#xe8;" horiz-adv-x="499" 
d="M242 -10q-62 0 -105.5 24.5t-66 70t-22.5 107.5q0 64 18.5 126.5t53.5 114t84.5 82.5t111.5 31q76 0 114.5 -33t38.5 -92q0 -39 -18 -73.5t-56 -60.5t-97 -40.5t-142 -14.5h-17q-1 -9 -1.5 -19t-0.5 -18q0 -61 30 -96.5t91 -35.5q38 0 72 11t74 30v-75q-38 -17 -74.5 -28
t-87.5 -11zM152 303h7q60 0 111 10.5t82 35t31 65.5q0 26 -17.5 42.5t-54.5 16.5q-32 0 -63 -20t-56 -58t-40 -92zM332 606q-19 19 -40.5 46t-40.5 55t-29 49v10h94q8 -24 19 -50t24.5 -50.5l26.5 -47.5v-12h-54z" />
    <glyph glyph-name="eacute" unicode="&#xe9;" horiz-adv-x="499" 
d="M242 -10q-62 0 -105.5 24.5t-66 70t-22.5 107.5q0 64 18.5 126.5t53.5 114t84.5 82.5t111.5 31q76 0 114.5 -33t38.5 -92q0 -39 -18 -73.5t-56 -60.5t-97 -40.5t-142 -14.5h-17q-1 -9 -1.5 -19t-0.5 -18q0 -61 30 -96.5t91 -35.5q38 0 72 11t74 30v-75q-38 -17 -74.5 -28
t-87.5 -11zM152 303h7q60 0 111 10.5t82 35t31 65.5q0 26 -17.5 42.5t-54.5 16.5q-32 0 -63 -20t-56 -58t-40 -92zM276 606v13q18 19 38.5 45l40 53t33.5 49h100v-10q-10 -13 -28.5 -33t-41 -42t-45.5 -41.5t-42 -33.5h-55z" />
    <glyph glyph-name="ecircumflex" unicode="&#xea;" horiz-adv-x="499" 
d="M242 -10q-62 0 -105.5 24.5t-66 70t-22.5 107.5q0 64 18.5 126.5t53.5 114t84.5 82.5t111.5 31q76 0 114.5 -33t38.5 -92q0 -39 -18 -73.5t-56 -60.5t-97 -40.5t-142 -14.5h-17q-1 -9 -1.5 -19t-0.5 -18q0 -61 30 -96.5t91 -35.5q38 0 72 11t74 30v-75q-38 -17 -74.5 -28
t-87.5 -11zM152 303h7q60 0 111 10.5t82 35t31 65.5q0 26 -17.5 42.5t-54.5 16.5q-32 0 -63 -20t-56 -58t-40 -92zM165 606v13l45 42t54.5 54.5t40.5 50.5h85q10 -26 25 -52.5t31 -50.5t28 -44v-13h-55q-12 11 -25 25t-26.5 31l-27.5 35q-30 -27 -60.5 -50.5t-56.5 -40.5
h-58z" />
    <glyph glyph-name="edieresis" unicode="&#xeb;" horiz-adv-x="499" 
d="M242 -10q-62 0 -105.5 24.5t-66 70t-22.5 107.5q0 64 18.5 126.5t53.5 114t84.5 82.5t111.5 31q76 0 114.5 -33t38.5 -92q0 -39 -18 -73.5t-56 -60.5t-97 -40.5t-142 -14.5h-17q-1 -9 -1.5 -19t-0.5 -18q0 -61 30 -96.5t91 -35.5q38 0 72 11t74 30v-75q-38 -17 -74.5 -28
t-87.5 -11zM152 303h7q60 0 111 10.5t82 35t31 65.5q0 26 -17.5 42.5t-54.5 16.5q-32 0 -63 -20t-56 -58t-40 -92zM425 631q-18 0 -30 11t-12 31q0 23 14 40t39 17q20 0 30 -11t10 -29q0 -28 -16 -43.5t-35 -15.5zM246 631q-19 0 -31 11t-12 31q0 23 14 40t39 17q14 0 23 -5
t13 -14t4 -21q0 -28 -15.5 -43.5t-34.5 -15.5z" />
    <glyph glyph-name="igrave" unicode="&#xec;" horiz-adv-x="258" 
d="M28 0l114 536h88l-114 -536h-88zM204 606q-19 19 -40.5 46t-40.5 55t-29 49v10h94q8 -24 19 -50t24.5 -50.5l26.5 -47.5v-12h-54z" />
    <glyph glyph-name="iacute" unicode="&#xed;" horiz-adv-x="258" 
d="M28 0l114 536h88l-114 -536h-88zM148 606v13q18 19 38.5 45l40 53t33.5 49h100v-10q-10 -13 -28.5 -33t-41 -42t-45.5 -41.5t-42 -33.5h-55z" />
    <glyph glyph-name="icircumflex" unicode="&#xee;" horiz-adv-x="258" 
d="M28 0l114 536h88l-114 -536h-88zM37 606v13l45 42t54.5 54.5t40.5 50.5h85q10 -26 25 -52.5t31 -50.5t28 -44v-13h-55q-12 11 -25 25t-26.5 31l-27.5 35q-30 -27 -60.5 -50.5t-56.5 -40.5h-58z" />
    <glyph glyph-name="idieresis" unicode="&#xef;" horiz-adv-x="258" 
d="M28 0l114 536h88l-114 -536h-88zM297 631q-18 0 -30 11t-12 31q0 23 14 40t39 17q20 0 30 -11t10 -29q0 -28 -16 -43.5t-35 -15.5zM118 631q-19 0 -31 11t-12 31q0 23 14 40t39 17q14 0 23 -5t13 -14t4 -21q0 -28 -15.5 -43.5t-34.5 -15.5z" />
    <glyph glyph-name="eth" unicode="&#xf0;" horiz-adv-x="570" 
d="M235 -10q-59 0 -102.5 22.5t-66.5 66t-23 104.5q0 58 18 110t51 92.5t80.5 64t105.5 23.5t92 -24.5t49 -56.5l3 1q1 56 -13 108.5t-57 104.5l-130 -72l-29 54l114 63q-15 14 -32.5 27.5t-37.5 26.5l47 60l47.5 -33.5t46.5 -40.5l126 70l32 -53l-115 -64q23 -30 41 -66
t28.5 -80t10.5 -100q0 -58 -9 -116t-29.5 -110.5t-53.5 -93.5t-81 -64.5t-113 -23.5zM240 63q40 0 69.5 15t50 39.5t33.5 53.5t18.5 57.5t5.5 51.5q0 22 -6 43.5t-19.5 39t-35.5 28t-54 10.5q-45 0 -77 -18.5t-52.5 -50t-30 -70t-9.5 -78.5q0 -52 24.5 -86.5t82.5 -34.5z
" />
    <glyph glyph-name="ntilde" unicode="&#xf1;" horiz-adv-x="579" 
d="M24 0l115 539h78l-11 -99h1q19 25 44.5 50t59.5 42t77 17t74 -16t47.5 -46t16.5 -73q0 -23 -3.5 -47t-7.5 -42l-71 -325h-94l72 337q5 23 7.5 38.5t2.5 29.5q0 32 -17 48t-51 16q-33 0 -71.5 -23t-72 -75t-52.5 -140l-50 -231h-94zM194 606q9 42 25 70.5t38.5 43
t51.5 14.5q22 0 41 -8.5t36.5 -19l32.5 -19t28 -8.5q22 0 34 13t24 43h53q-11 -41 -27.5 -70t-38.5 -43.5t-51 -14.5q-20 0 -38 8.5t-35 19t-33.5 19t-32.5 8.5q-21 0 -33 -14t-23 -42h-52z" />
    <glyph glyph-name="ograve" unicode="&#xf2;" horiz-adv-x="563" 
d="M248 -8q-62 0 -107 25t-69 71.5t-24 109.5q0 49 11 98.5t32.5 93.5t53.5 78.5t75 54.5t96 20q63 0 107.5 -25t68.5 -71.5t24 -110.5q0 -49 -11 -98t-32.5 -93.5t-53.5 -78.5t-75 -54t-96 -20zM253 65q29 0 54.5 12t47.5 35.5t37.5 58t24.5 78.5t9 97q0 30 -10.5 58.5
t-34.5 47t-64 18.5q-33 0 -61 -14t-50 -39.5t-37.5 -60t-23.5 -75.5t-8 -86q0 -62 30.5 -96t85.5 -34zM340 606q-19 19 -40.5 46t-40.5 55t-29 49v10h94q8 -24 19 -50t24.5 -50.5l26.5 -47.5v-12h-54z" />
    <glyph glyph-name="oacute" unicode="&#xf3;" horiz-adv-x="563" 
d="M248 -8q-62 0 -107 25t-69 71.5t-24 109.5q0 49 11 98.5t32.5 93.5t53.5 78.5t75 54.5t96 20q63 0 107.5 -25t68.5 -71.5t24 -110.5q0 -49 -11 -98t-32.5 -93.5t-53.5 -78.5t-75 -54t-96 -20zM253 65q29 0 54.5 12t47.5 35.5t37.5 58t24.5 78.5t9 97q0 30 -10.5 58.5
t-34.5 47t-64 18.5q-33 0 -61 -14t-50 -39.5t-37.5 -60t-23.5 -75.5t-8 -86q0 -62 30.5 -96t85.5 -34zM284 606v13q18 19 38.5 45l40 53t33.5 49h100v-10q-10 -13 -28.5 -33t-41 -42t-45.5 -41.5t-42 -33.5h-55z" />
    <glyph glyph-name="ocircumflex" unicode="&#xf4;" horiz-adv-x="563" 
d="M248 -8q-62 0 -107 25t-69 71.5t-24 109.5q0 49 11 98.5t32.5 93.5t53.5 78.5t75 54.5t96 20q63 0 107.5 -25t68.5 -71.5t24 -110.5q0 -49 -11 -98t-32.5 -93.5t-53.5 -78.5t-75 -54t-96 -20zM253 65q29 0 54.5 12t47.5 35.5t37.5 58t24.5 78.5t9 97q0 30 -10.5 58.5
t-34.5 47t-64 18.5q-33 0 -61 -14t-50 -39.5t-37.5 -60t-23.5 -75.5t-8 -86q0 -62 30.5 -96t85.5 -34zM173 606v13l45 42t54.5 54.5t40.5 50.5h85q10 -26 25 -52.5t31 -50.5t28 -44v-13h-55q-12 11 -25 25t-26.5 31l-27.5 35q-30 -27 -60.5 -50.5t-56.5 -40.5h-58z" />
    <glyph glyph-name="otilde" unicode="&#xf5;" horiz-adv-x="563" 
d="M248 -8q-62 0 -107 25t-69 71.5t-24 109.5q0 49 11 98.5t32.5 93.5t53.5 78.5t75 54.5t96 20q63 0 107.5 -25t68.5 -71.5t24 -110.5q0 -49 -11 -98t-32.5 -93.5t-53.5 -78.5t-75 -54t-96 -20zM253 65q29 0 54.5 12t47.5 35.5t37.5 58t24.5 78.5t9 97q0 30 -10.5 58.5
t-34.5 47t-64 18.5q-33 0 -61 -14t-50 -39.5t-37.5 -60t-23.5 -75.5t-8 -86q0 -62 30.5 -96t85.5 -34zM167 606q9 42 25 70.5t38.5 43t51.5 14.5q22 0 41 -8.5t36.5 -19l32.5 -19t28 -8.5q22 0 34 13t24 43h53q-11 -41 -27.5 -70t-38.5 -43.5t-51 -14.5q-20 0 -38 8.5
t-35 19t-33.5 19t-32.5 8.5q-21 0 -33 -14t-23 -42h-52z" />
    <glyph glyph-name="odieresis" unicode="&#xf6;" horiz-adv-x="563" 
d="M248 -8q-62 0 -107 25t-69 71.5t-24 109.5q0 49 11 98.5t32.5 93.5t53.5 78.5t75 54.5t96 20q63 0 107.5 -25t68.5 -71.5t24 -110.5q0 -49 -11 -98t-32.5 -93.5t-53.5 -78.5t-75 -54t-96 -20zM253 65q29 0 54.5 12t47.5 35.5t37.5 58t24.5 78.5t9 97q0 30 -10.5 58.5
t-34.5 47t-64 18.5q-33 0 -61 -14t-50 -39.5t-37.5 -60t-23.5 -75.5t-8 -86q0 -62 30.5 -96t85.5 -34zM433 631q-18 0 -30 11t-12 31q0 23 14 40t39 17q20 0 30 -11t10 -29q0 -28 -16 -43.5t-35 -15.5zM254 631q-19 0 -31 11t-12 31q0 23 14 40t39 17q14 0 23 -5t13 -14
t4 -21q0 -28 -15.5 -43.5t-34.5 -15.5z" />
    <glyph glyph-name="divide" unicode="&#xf7;" horiz-adv-x="572" 
d="M70 317v71h471v-71h-471zM305 121q-23 0 -39.5 14.5t-16.5 46.5q0 34 16.5 47t39.5 13t39 -13t16 -47q0 -32 -16 -46.5t-39 -14.5zM305 462q-23 0 -39.5 14.5t-16.5 46.5q0 34 16.5 47t39.5 13t39 -13t16 -47q0 -32 -16 -46.5t-39 -14.5z" />
    <glyph glyph-name="oslash" unicode="&#xf8;" horiz-adv-x="563" 
d="M82 -38l-53 41l54 67q-17 26 -25.5 57.5t-8.5 70.5q0 49 11 98.5t32 93.5t53.5 78.5t75 54.5t95.5 20q38 0 68 -8t54 -24l49 61l53 -40l-56 -62q16 -24 23 -58t7 -68q0 -49 -10.5 -99t-31.5 -95.5t-53 -81t-74.5 -56t-95.5 -20.5q-34 0 -64.5 8t-54.5 23zM253 63
q29 0 55 12t48 35.5t38.5 56.5t25.5 75.5t9 92.5q0 17 -1.5 31t-4.5 22l-244 -304q14 -10 33 -15.5t41 -5.5zM142 143l246 306q-11 9 -28 15.5t-43 6.5q-33 0 -61.5 -14t-51 -39.5t-38 -59t-24 -73t-8.5 -81.5q0 -20 2 -36t6 -25z" />
    <glyph glyph-name="ugrave" unicode="&#xf9;" horiz-adv-x="579" 
d="M189 -10q-40 0 -70.5 15t-47 45t-16.5 73q0 23 3.5 43.5l7.5 42.5l70 327h89l-72 -337q-4 -22 -6.5 -38t-2.5 -29q0 -32 16.5 -50.5t53.5 -18.5q34 0 73.5 24t73.5 77t53 141l49 231h87l-114 -536h-72l11 99h-5q-19 -24 -44.5 -49.5t-59 -42.5t-77.5 -17zM365 606
q-19 19 -40.5 46t-40.5 55t-29 49v10h94q8 -24 19 -50t24.5 -50.5l26.5 -47.5v-12h-54z" />
    <glyph glyph-name="uacute" unicode="&#xfa;" horiz-adv-x="579" 
d="M189 -10q-40 0 -70.5 15t-47 45t-16.5 73q0 23 3.5 43.5l7.5 42.5l70 327h89l-72 -337q-4 -22 -6.5 -38t-2.5 -29q0 -32 16.5 -50.5t53.5 -18.5q34 0 73.5 24t73.5 77t53 141l49 231h87l-114 -536h-72l11 99h-5q-19 -24 -44.5 -49.5t-59 -42.5t-77.5 -17zM309 606v13
q18 19 38.5 45l40 53t33.5 49h100v-10q-10 -13 -28.5 -33t-41 -42t-45.5 -41.5t-42 -33.5h-55z" />
    <glyph glyph-name="ucircumflex" unicode="&#xfb;" horiz-adv-x="579" 
d="M189 -10q-40 0 -70.5 15t-47 45t-16.5 73q0 23 3.5 43.5l7.5 42.5l70 327h89l-72 -337q-4 -22 -6.5 -38t-2.5 -29q0 -32 16.5 -50.5t53.5 -18.5q34 0 73.5 24t73.5 77t53 141l49 231h87l-114 -536h-72l11 99h-5q-19 -24 -44.5 -49.5t-59 -42.5t-77.5 -17zM198 606v13
l45 42t54.5 54.5t40.5 50.5h85q10 -26 25 -52.5t31 -50.5t28 -44v-13h-55q-12 11 -25 25t-26.5 31l-27.5 35q-30 -27 -60.5 -50.5t-56.5 -40.5h-58z" />
    <glyph glyph-name="udieresis" unicode="&#xfc;" horiz-adv-x="579" 
d="M189 -10q-40 0 -70.5 15t-47 45t-16.5 73q0 23 3.5 43.5l7.5 42.5l70 327h89l-72 -337q-4 -22 -6.5 -38t-2.5 -29q0 -32 16.5 -50.5t53.5 -18.5q34 0 73.5 24t73.5 77t53 141l49 231h87l-114 -536h-72l11 99h-5q-19 -24 -44.5 -49.5t-59 -42.5t-77.5 -17zM458 631
q-18 0 -30 11t-12 31q0 23 14 40t39 17q20 0 30 -11t10 -29q0 -28 -16 -43.5t-35 -15.5zM279 631q-19 0 -31 11t-12 31q0 23 14 40t39 17q14 0 23 -5t13 -14t4 -21q0 -28 -15.5 -43.5t-34.5 -15.5z" />
    <glyph glyph-name="yacute" unicode="&#xfd;" horiz-adv-x="467" 
d="M-25 -240q-24 0 -39.5 3t-29.5 7v71q14 -4 30 -6.5t34 -2.5q41 0 69.5 25t54.5 73l35 62l-81 544h88l35 -265q5 -32 7.5 -70.5t4 -73t1.5 -55.5h3l20.5 48t29.5 66t28 56l156 294h94l-340 -626q-27 -50 -55 -83.5t-63 -50t-82 -16.5zM234 606v13q18 19 38.5 45l40 53
t33.5 49h100v-10q-10 -13 -28.5 -33t-41 -42t-45.5 -41.5t-42 -33.5h-55z" />
    <glyph glyph-name="thorn" unicode="&#xfe;" horiz-adv-x="579" 
d="M-22 -240l211 1000h88l-38 -179q-10 -43 -19.5 -80t-17.5 -65h4q24 30 51 54.5t58.5 39.5t68.5 15q66 0 106 -46.5t40 -136.5q0 -58 -11.5 -113t-33.5 -102t-53.5 -82t-72 -55t-89.5 -20q-36 0 -63 13t-45.5 34t-30.5 45h-5q-1 -15 -4.5 -44t-7.5 -47l-49 -231h-87z
M262 63q32 0 59.5 16.5t49.5 46t37.5 68t23.5 82t8 88.5q0 54 -21.5 81t-63.5 27q-35 0 -72 -27.5t-67 -75t-45 -107.5q-3 -14 -5.5 -29.5t-4 -30.5t-1.5 -31q0 -48 24.5 -78t77.5 -30z" />
    <glyph glyph-name="ydieresis" unicode="&#xff;" horiz-adv-x="467" 
d="M-25 -240q-24 0 -39.5 3t-29.5 7v71q14 -4 30 -6.5t34 -2.5q41 0 69.5 25t54.5 73l35 62l-81 544h88l35 -265q5 -32 7.5 -70.5t4 -73t1.5 -55.5h3l20.5 48t29.5 66t28 56l156 294h94l-340 -626q-27 -50 -55 -83.5t-63 -50t-82 -16.5zM383 631q-18 0 -30 11t-12 31
q0 23 14 40t39 17q20 0 30 -11t10 -29q0 -28 -16 -43.5t-35 -15.5zM204 631q-19 0 -31 11t-12 31q0 23 14 40t39 17q14 0 23 -5t13 -14t4 -21q0 -28 -15.5 -43.5t-34.5 -15.5z" />
    <glyph glyph-name="Amacron" unicode="&#x100;" horiz-adv-x="562" 
d="M-57 0l388 714h94l88 -714h-88l-27 222h-241l-116 -222h-98zM200 302h189l-16 150q-4 38 -7.5 84t-4.5 81h-3q-16 -38 -37 -81.5l-44 -87.5zM252 784l15 71h269l-15 -71h-269z" />
    <glyph glyph-name="amacron" unicode="&#x101;" horiz-adv-x="568" 
d="M193 -10q-43 0 -75.5 20.5t-51 61.5t-18.5 101t12.5 115.5t35.5 102.5t55.5 81.5t73 54t86.5 19.5q35 0 61.5 -13t44.5 -34t29 -46h5l32 83h67l-114 -536h-70l13 99h-4q-23 -29 -51 -54t-60.5 -40t-70.5 -15zM222 63q37 0 72.5 27t64 73t44.5 103q8 29 10.5 53.5
t2.5 45.5q0 47 -26 77t-70 30q-31 0 -58.5 -16t-50.5 -44.5t-39 -66.5t-25 -82.5t-9 -91.5q0 -54 22 -81t62 -27zM217 606l15 71h269l-15 -71h-269z" />
    <glyph glyph-name="Abreve" unicode="&#x102;" horiz-adv-x="562" 
d="M-57 0l388 714h94l88 -714h-88l-27 222h-241l-116 -222h-98zM200 302h189l-16 150q-4 38 -7.5 84t-4.5 81h-3q-16 -38 -37 -81.5l-44 -87.5zM388 784q-36 0 -64 13t-44 38t-16 61v10.5t1 11.5h52q0 -19 7.5 -33t25.5 -21t47 -7q46 0 69 16.5t30 44.5h55q-16 -72 -58 -103
t-105 -31z" />
    <glyph glyph-name="abreve" unicode="&#x103;" horiz-adv-x="568" 
d="M193 -10q-43 0 -75.5 20.5t-51 61.5t-18.5 101t12.5 115.5t35.5 102.5t55.5 81.5t73 54t86.5 19.5q35 0 61.5 -13t44.5 -34t29 -46h5l32 83h67l-114 -536h-70l13 99h-4q-23 -29 -51 -54t-60.5 -40t-70.5 -15zM222 63q37 0 72.5 27t64 73t44.5 103q8 29 10.5 53.5
t2.5 45.5q0 47 -26 77t-70 30q-31 0 -58.5 -16t-50.5 -44.5t-39 -66.5t-25 -82.5t-9 -91.5q0 -54 22 -81t62 -27zM353 606q-36 0 -64 13t-44 38t-16 61v10.5t1 11.5h52q0 -19 7.5 -33t25.5 -21t47 -7q46 0 69 16.5t30 44.5h55q-16 -72 -58 -103t-105 -31z" />
    <glyph glyph-name="Aogonek" unicode="&#x104;" horiz-adv-x="562" 
d="M-57 0l388 714h94l88 -714h-88l-27 222h-241l-116 -222h-98zM200 302h189l-16 150q-4 38 -7.5 84t-4.5 81h-3q-16 -38 -37 -81.5l-44 -87.5zM411 -217q-38 0 -63.5 19.5t-25.5 60.5q0 31 13.5 55t37 44t53.5 38h61q-19 -15 -41 -34.5t-37 -42t-15 -49.5q0 -17 9 -25
t24 -8q11 0 21 1.5t19 2.5v-55q-13 -4 -27.5 -5.5t-28.5 -1.5z" />
    <glyph glyph-name="aogonek" unicode="&#x105;" horiz-adv-x="568" 
d="M193 -10q-43 0 -75.5 20.5t-51 61.5t-18.5 101t12.5 115.5t35.5 102.5t55.5 81.5t73 54t86.5 19.5q35 0 61.5 -13t44.5 -34t29 -46h5l32 83h67l-114 -536h-70l13 99h-4q-23 -29 -51 -54t-60.5 -40t-70.5 -15zM222 63q37 0 72.5 27t64 73t44.5 103q8 29 10.5 53.5
t2.5 45.5q0 47 -26 77t-70 30q-31 0 -58.5 -16t-50.5 -44.5t-39 -66.5t-25 -82.5t-9 -91.5q0 -54 22 -81t62 -27zM351 -217q-38 0 -63.5 19.5t-25.5 60.5q0 31 13.5 55t37 44t53.5 38h61q-19 -15 -41 -34.5t-37 -42t-15 -49.5q0 -17 9 -25t24 -8q11 0 21 1.5t19 2.5v-55
q-13 -4 -27.5 -5.5t-28.5 -1.5z" />
    <glyph glyph-name="Cacute" unicode="&#x106;" horiz-adv-x="587" 
d="M326 -10q-79 0 -136 33t-87.5 94.5t-30.5 145.5q0 64 15 130t45.5 125t77 105.5t108.5 73.5t140 27q51 0 94 -10t80 -30l-36 -74q-27 14 -60.5 24.5t-77.5 10.5q-60 0 -107 -22t-81.5 -60t-57.5 -86.5t-34 -103t-11 -108.5q0 -91 46.5 -143.5t128.5 -52.5q41 0 80.5 8
t77.5 21v-78q-39 -14 -78.5 -22t-95.5 -8zM406 784v13q18 19 38.5 45l40 53t33.5 49h100v-10q-10 -13 -28.5 -33t-41 -42t-45.5 -41.5t-42 -33.5h-55z" />
    <glyph glyph-name="cacute" unicode="&#x107;" horiz-adv-x="453" 
d="M247 -10q-59 0 -104 22t-70 66.5t-25 111.5q0 58 12.5 110.5t36.5 97.5t58 78t77.5 51.5t95.5 18.5q35 0 70 -7t63 -19l-25 -73q-20 9 -47.5 17t-59.5 8q-43 0 -78 -22.5t-60.5 -61t-39 -89.5t-13.5 -108q0 -40 14 -69t40.5 -44t63.5 -15q35 0 66.5 10t62.5 23v-74
q-28 -14 -62.5 -23t-75.5 -9zM268 606v13q18 19 38.5 45l40 53t33.5 49h100v-10q-10 -13 -28.5 -33t-41 -42t-45.5 -41.5t-42 -33.5h-55z" />
    <glyph glyph-name="Ccircumflex" unicode="&#x108;" horiz-adv-x="587" 
d="M326 -10q-79 0 -136 33t-87.5 94.5t-30.5 145.5q0 64 15 130t45.5 125t77 105.5t108.5 73.5t140 27q51 0 94 -10t80 -30l-36 -74q-27 14 -60.5 24.5t-77.5 10.5q-60 0 -107 -22t-81.5 -60t-57.5 -86.5t-34 -103t-11 -108.5q0 -91 46.5 -143.5t128.5 -52.5q41 0 80.5 8
t77.5 21v-78q-39 -14 -78.5 -22t-95.5 -8zM295 784v13l45 42t54.5 54.5t40.5 50.5h85q10 -26 25 -52.5t31 -50.5t28 -44v-13h-55q-12 11 -25 25t-26.5 31l-27.5 35q-30 -27 -60.5 -50.5t-56.5 -40.5h-58z" />
    <glyph glyph-name="ccircumflex" unicode="&#x109;" horiz-adv-x="453" 
d="M247 -10q-59 0 -104 22t-70 66.5t-25 111.5q0 58 12.5 110.5t36.5 97.5t58 78t77.5 51.5t95.5 18.5q35 0 70 -7t63 -19l-25 -73q-20 9 -47.5 17t-59.5 8q-43 0 -78 -22.5t-60.5 -61t-39 -89.5t-13.5 -108q0 -40 14 -69t40.5 -44t63.5 -15q35 0 66.5 10t62.5 23v-74
q-28 -14 -62.5 -23t-75.5 -9zM157 606v13l45 42t54.5 54.5t40.5 50.5h85q10 -26 25 -52.5t31 -50.5t28 -44v-13h-55q-12 11 -25 25t-26.5 31l-27.5 35q-30 -27 -60.5 -50.5t-56.5 -40.5h-58z" />
    <glyph glyph-name="Cdot" unicode="&#x10a;" horiz-adv-x="587" 
d="M326 -10q-79 0 -136 33t-87.5 94.5t-30.5 145.5q0 64 15 130t45.5 125t77 105.5t108.5 73.5t140 27q51 0 94 -10t80 -30l-36 -74q-27 14 -60.5 24.5t-77.5 10.5q-60 0 -107 -22t-81.5 -60t-57.5 -86.5t-34 -103t-11 -108.5q0 -91 46.5 -143.5t128.5 -52.5q41 0 80.5 8
t77.5 21v-78q-39 -14 -78.5 -22t-95.5 -8zM466 803q-20 0 -34 12.5t-14 34.5q0 26 15.5 45t43.5 19q16 0 26 -5.5t15 -15.5t5 -24q0 -31 -18 -48.5t-39 -17.5z" />
    <glyph glyph-name="cdot" unicode="&#x10b;" horiz-adv-x="453" 
d="M247 -10q-59 0 -104 22t-70 66.5t-25 111.5q0 58 12.5 110.5t36.5 97.5t58 78t77.5 51.5t95.5 18.5q35 0 70 -7t63 -19l-25 -73q-20 9 -47.5 17t-59.5 8q-43 0 -78 -22.5t-60.5 -61t-39 -89.5t-13.5 -108q0 -40 14 -69t40.5 -44t63.5 -15q35 0 66.5 10t62.5 23v-74
q-28 -14 -62.5 -23t-75.5 -9zM328 625q-20 0 -34 12.5t-14 34.5q0 26 15.5 45t43.5 19q16 0 26 -5.5t15 -15.5t5 -24q0 -31 -18 -48.5t-39 -17.5z" />
    <glyph glyph-name="Ccaron" unicode="&#x10c;" horiz-adv-x="587" 
d="M326 -10q-79 0 -136 33t-87.5 94.5t-30.5 145.5q0 64 15 130t45.5 125t77 105.5t108.5 73.5t140 27q51 0 94 -10t80 -30l-36 -74q-27 14 -60.5 24.5t-77.5 10.5q-60 0 -107 -22t-81.5 -60t-57.5 -86.5t-34 -103t-11 -108.5q0 -91 46.5 -143.5t128.5 -52.5q41 0 80.5 8
t77.5 21v-78q-39 -14 -78.5 -22t-95.5 -8zM412 784q-9 26 -23.5 52.5t-30 51l-28.5 43.5v13h53q13 -10 26.5 -24.5t26.5 -31.5l26 -35q31 27 62 50.5t58 40.5h57v-13l-45 -41.5t-54.5 -54.5t-41.5 -51h-86z" />
    <glyph glyph-name="ccaron" unicode="&#x10d;" horiz-adv-x="453" 
d="M247 -10q-59 0 -104 22t-70 66.5t-25 111.5q0 58 12.5 110.5t36.5 97.5t58 78t77.5 51.5t95.5 18.5q35 0 70 -7t63 -19l-25 -73q-20 9 -47.5 17t-59.5 8q-43 0 -78 -22.5t-60.5 -61t-39 -89.5t-13.5 -108q0 -40 14 -69t40.5 -44t63.5 -15q35 0 66.5 10t62.5 23v-74
q-28 -14 -62.5 -23t-75.5 -9zM274 606q-9 26 -23.5 52.5t-30 51l-28.5 43.5v13h53q13 -10 26.5 -24.5t26.5 -31.5l26 -35q31 27 62 50.5t58 40.5h57v-13l-45 -41.5t-54.5 -54.5t-41.5 -51h-86z" />
    <glyph glyph-name="Dcaron" unicode="&#x10e;" horiz-adv-x="667" 
d="M41 0l151 714h169q129 0 202 -70t73 -215q0 -74 -17.5 -139.5t-52 -118.5t-85.5 -91.5t-117 -59t-147 -20.5h-176zM146 77h76q62 0 112.5 17.5t89.5 49.5t65 76t39.5 97t13.5 113q0 110 -52.5 158.5t-139.5 48.5h-85zM397 784q-9 26 -23.5 52.5t-30 51l-28.5 43.5v13h53
q13 -10 26.5 -24.5t26.5 -31.5l26 -35q31 27 62 50.5t58 40.5h57v-13l-45 -41.5t-54.5 -54.5t-41.5 -51h-86z" />
    <glyph glyph-name="dcaron" unicode="&#x10f;" horiz-adv-x="613" 
d="M608 600v13q11 17 25 43t26.5 54.5t20.5 49.5h83v-10q-6 -16 -23 -43t-39 -56t-44 -51h-49zM193 -10q-43 0 -75.5 20.5t-51 61t-18.5 101.5q0 59 11.5 114t34 101.5t55 82t73 55t89.5 19.5q36 0 62 -13t44 -33.5t29 -45.5h5l6 44t7 42.5t9 45.5l37 175h87l-161 -760h-72
l11 99h-4q-24 -30 -51 -55t-58 -39.5t-69 -14.5zM223 63q22 0 45 11t44.5 31.5t40.5 48.5t33.5 61.5t22.5 71t8 77.5q0 48 -23.5 78t-76.5 30q-32 0 -59.5 -16.5t-49.5 -46t-37.5 -68t-24 -82t-8.5 -88.5q0 -54 21.5 -81t63.5 -27z" />
    <glyph glyph-name="Dcroat" unicode="&#x110;" horiz-adv-x="667" 
d="M41 0l65 315h-73l17 77h73l69 322h169q129 0 202 -70t73 -215q0 -74 -17.5 -139.5t-52 -118.5t-85.5 -91.5t-117 -59t-147 -20.5h-176zM146 77h76q62 0 112.5 17.5t89.5 49.5t65 76t39.5 97t13.5 113q0 110 -52.5 158.5t-139.5 48.5h-85l-52 -245h157l-17 -77h-157z" />
    <glyph glyph-name="dcroat" unicode="&#x111;" horiz-adv-x="579" 
d="M193 -10q-43 0 -75.5 20.5t-51 61t-18.5 101.5q0 58 11.5 113t33.5 102.5t53.5 82.5t72 55t89.5 20q37 0 63.5 -12.5t45 -33.5t29.5 -45h5q2 12 3.5 27t4 31t5.5 31l12 60h-178l13 66h181l18 90h87l-19 -90h73l-14 -66h-73l-128 -604h-72l11 99h-4q-24 -29 -51 -54
t-58 -40t-69 -15zM223 63q22 0 44.5 11t44.5 31.5t41 48.5t33.5 61.5t22.5 71t8 77.5q0 49 -24 79t-77 30q-32 0 -59.5 -17t-49.5 -46t-37.5 -67.5t-23.5 -82.5t-8 -89q0 -54 21.5 -81t63.5 -27z" />
    <glyph glyph-name="Emacron" unicode="&#x112;" horiz-adv-x="514" 
d="M41 0l151 714h362l-17 -79h-273l-47 -223h255l-15 -78h-256l-55 -255h274l-17 -79h-362zM246 784l15 71h269l-15 -71h-269z" />
    <glyph glyph-name="emacron" unicode="&#x113;" horiz-adv-x="499" 
d="M242 -10q-62 0 -105.5 24.5t-66 70t-22.5 107.5q0 64 18.5 126.5t53.5 114t84.5 82.5t111.5 31q76 0 114.5 -33t38.5 -92q0 -39 -18 -73.5t-56 -60.5t-97 -40.5t-142 -14.5h-17q-1 -9 -1.5 -19t-0.5 -18q0 -61 30 -96.5t91 -35.5q38 0 72 11t74 30v-75q-38 -17 -74.5 -28
t-87.5 -11zM152 303h7q60 0 111 10.5t82 35t31 65.5q0 26 -17.5 42.5t-54.5 16.5q-32 0 -63 -20t-56 -58t-40 -92zM190 606l15 71h269l-15 -71h-269z" />
    <glyph glyph-name="Ebreve" unicode="&#x114;" horiz-adv-x="514" 
d="M41 0l151 714h362l-17 -79h-273l-47 -223h255l-15 -78h-256l-55 -255h274l-17 -79h-362zM382 784q-36 0 -64 13t-44 38t-16 61v10.5t1 11.5h52q0 -19 7.5 -33t25.5 -21t47 -7q46 0 69 16.5t30 44.5h55q-16 -72 -58 -103t-105 -31z" />
    <glyph glyph-name="ebreve" unicode="&#x115;" horiz-adv-x="499" 
d="M242 -10q-62 0 -105.5 24.5t-66 70t-22.5 107.5q0 64 18.5 126.5t53.5 114t84.5 82.5t111.5 31q76 0 114.5 -33t38.5 -92q0 -39 -18 -73.5t-56 -60.5t-97 -40.5t-142 -14.5h-17q-1 -9 -1.5 -19t-0.5 -18q0 -61 30 -96.5t91 -35.5q38 0 72 11t74 30v-75q-38 -17 -74.5 -28
t-87.5 -11zM152 303h7q60 0 111 10.5t82 35t31 65.5q0 26 -17.5 42.5t-54.5 16.5q-32 0 -63 -20t-56 -58t-40 -92zM326 606q-36 0 -64 13t-44 38t-16 61v10.5t1 11.5h52q0 -19 7.5 -33t25.5 -21t47 -7q46 0 69 16.5t30 44.5h55q-16 -72 -58 -103t-105 -31z" />
    <glyph glyph-name="Edotaccent" unicode="&#x116;" horiz-adv-x="514" 
d="M41 0l151 714h362l-17 -79h-273l-47 -223h255l-15 -78h-256l-55 -255h274l-17 -79h-362zM392 803q-20 0 -34 12.5t-14 34.5q0 26 15.5 45t43.5 19q16 0 26 -5.5t15 -15.5t5 -24q0 -31 -18 -48.5t-39 -17.5z" />
    <glyph glyph-name="edotaccent" unicode="&#x117;" horiz-adv-x="499" 
d="M242 -10q-62 0 -105.5 24.5t-66 70t-22.5 107.5q0 64 18.5 126.5t53.5 114t84.5 82.5t111.5 31q76 0 114.5 -33t38.5 -92q0 -39 -18 -73.5t-56 -60.5t-97 -40.5t-142 -14.5h-17q-1 -9 -1.5 -19t-0.5 -18q0 -61 30 -96.5t91 -35.5q38 0 72 11t74 30v-75q-38 -17 -74.5 -28
t-87.5 -11zM152 303h7q60 0 111 10.5t82 35t31 65.5q0 26 -17.5 42.5t-54.5 16.5q-32 0 -63 -20t-56 -58t-40 -92zM336 625q-20 0 -34 12.5t-14 34.5q0 26 15.5 45t43.5 19q16 0 26 -5.5t15 -15.5t5 -24q0 -31 -18 -48.5t-39 -17.5z" />
    <glyph glyph-name="Eogonek" unicode="&#x118;" horiz-adv-x="514" 
d="M41 0l151 714h362l-17 -79h-273l-47 -223h255l-15 -78h-256l-55 -255h274l-17 -79h-362zM299 -217q-38 0 -63.5 19.5t-25.5 60.5q0 31 13.5 55t37 44t53.5 38h61q-19 -15 -41 -34.5t-37 -42t-15 -49.5q0 -17 9 -25t24 -8q11 0 21 1.5t19 2.5v-55q-13 -4 -27.5 -5.5
t-28.5 -1.5z" />
    <glyph glyph-name="eogonek" unicode="&#x119;" horiz-adv-x="499" 
d="M284 -217q-38 0 -63.5 19.5t-25.5 60.5q0 31 13.5 55t37 44t53.5 38l84 23q-28 -23 -55 -47.5t-44 -49.5t-17 -52q0 -17 9 -25t24 -8q11 0 21 1.5t19 2.5v-55q-13 -4 -27.5 -5.5t-28.5 -1.5zM242 -10q-62 0 -105.5 24.5t-66 70t-22.5 107.5q0 64 18.5 126.5t53.5 114
t84.5 82.5t111.5 31q76 0 114.5 -33t38.5 -92q0 -39 -18 -73.5t-56 -60.5t-97 -40.5t-142 -14.5h-17q-1 -9 -1.5 -19t-0.5 -18q0 -61 30 -96.5t91 -35.5q38 0 72 11t74 30v-75q-38 -17 -74.5 -28t-87.5 -11zM152 303h7q60 0 111 10.5t82 35t31 65.5q0 26 -17.5 42.5
t-54.5 16.5q-32 0 -63 -20t-56 -58t-40 -92z" />
    <glyph glyph-name="Ecaron" unicode="&#x11a;" horiz-adv-x="514" 
d="M41 0l151 714h362l-17 -79h-273l-47 -223h255l-15 -78h-256l-55 -255h274l-17 -79h-362zM338 784q-9 26 -23.5 52.5t-30 51l-28.5 43.5v13h53q13 -10 26.5 -24.5t26.5 -31.5l26 -35q31 27 62 50.5t58 40.5h57v-13l-45 -41.5t-54.5 -54.5t-41.5 -51h-86z" />
    <glyph glyph-name="ecaron" unicode="&#x11b;" horiz-adv-x="499" 
d="M242 -10q-62 0 -105.5 24.5t-66 70t-22.5 107.5q0 64 18.5 126.5t53.5 114t84.5 82.5t111.5 31q76 0 114.5 -33t38.5 -92q0 -39 -18 -73.5t-56 -60.5t-97 -40.5t-142 -14.5h-17q-1 -9 -1.5 -19t-0.5 -18q0 -61 30 -96.5t91 -35.5q38 0 72 11t74 30v-75q-38 -17 -74.5 -28
t-87.5 -11zM152 303h7q60 0 111 10.5t82 35t31 65.5q0 26 -17.5 42.5t-54.5 16.5q-32 0 -63 -20t-56 -58t-40 -92zM282 606q-9 26 -23.5 52.5t-30 51l-28.5 43.5v13h53q13 -10 26.5 -24.5t26.5 -31.5l26 -35q31 27 62 50.5t58 40.5h57v-13l-45 -41.5t-54.5 -54.5t-41.5 -51
h-86z" />
    <glyph glyph-name="Gcircumflex" unicode="&#x11c;" horiz-adv-x="678" 
d="M343 -10q-127 0 -199 71t-72 198q0 78 18 148t51.5 128t81 100.5t106.5 65.5t128 23q65 0 114 -11t93 -31l-34 -78q-37 17 -80 29t-94 12q-62 0 -114.5 -28t-92 -79t-61 -120.5t-21.5 -152.5q0 -55 19.5 -99.5t60.5 -70.5t105 -26q38 0 69.5 5.5t53.5 12.5l46 211h-140
l17 78h229l-76 -349q-45 -16 -95 -26.5t-113 -10.5zM315 784v13l45 42t54.5 54.5t40.5 50.5h85q10 -26 25 -52.5t31 -50.5t28 -44v-13h-55q-12 11 -25 25t-26.5 31l-27.5 35q-30 -27 -60.5 -50.5t-56.5 -40.5h-58z" />
    <glyph glyph-name="gcircumflex" unicode="&#x11d;" horiz-adv-x="579" 
d="M186 -240q-49 0 -90.5 9.5t-70.5 24.5v81q18 -10 44 -20t56 -16t58 -6q62 0 102 30t56 100l9 38q5 23 12.5 51l12.5 47h-4q-23 -29 -49.5 -54t-58 -40t-69.5 -15q-43 0 -76 20.5t-51.5 61.5t-18.5 101q0 58 11.5 113t34 102t54.5 82.5t73 55.5t90 20q36 0 62.5 -13
t44.5 -34t29 -46h4l33 83h67l-122 -567q-16 -75 -48.5 -121t-81.5 -67t-113 -21zM223 63q23 0 45.5 11.5t44.5 32.5t40.5 49t32.5 61.5t22 71t8 75.5q0 48 -22.5 78t-75.5 30q-32 0 -59.5 -16.5t-50 -46t-38 -68t-24 -82t-8.5 -88.5q0 -54 22 -81t63 -27zM188 606v13l45 42
t54.5 54.5t40.5 50.5h85q10 -26 25 -52.5t31 -50.5t28 -44v-13h-55q-12 11 -25 25t-26.5 31l-27.5 35q-30 -27 -60.5 -50.5t-56.5 -40.5h-58z" />
    <glyph glyph-name="Gbreve" unicode="&#x11e;" horiz-adv-x="678" 
d="M343 -10q-127 0 -199 71t-72 198q0 78 18 148t51.5 128t81 100.5t106.5 65.5t128 23q65 0 114 -11t93 -31l-34 -78q-37 17 -80 29t-94 12q-62 0 -114.5 -28t-92 -79t-61 -120.5t-21.5 -152.5q0 -55 19.5 -99.5t60.5 -70.5t105 -26q38 0 69.5 5.5t53.5 12.5l46 211h-140
l17 78h229l-76 -349q-45 -16 -95 -26.5t-113 -10.5zM476 784q-36 0 -64 13t-44 38t-16 61v10.5t1 11.5h52q0 -19 7.5 -33t25.5 -21t47 -7q46 0 69 16.5t30 44.5h55q-16 -72 -58 -103t-105 -31z" />
    <glyph glyph-name="gbreve" unicode="&#x11f;" horiz-adv-x="579" 
d="M186 -240q-49 0 -90.5 9.5t-70.5 24.5v81q18 -10 44 -20t56 -16t58 -6q62 0 102 30t56 100l9 38q5 23 12.5 51l12.5 47h-4q-23 -29 -49.5 -54t-58 -40t-69.5 -15q-43 0 -76 20.5t-51.5 61.5t-18.5 101q0 58 11.5 113t34 102t54.5 82.5t73 55.5t90 20q36 0 62.5 -13
t44.5 -34t29 -46h4l33 83h67l-122 -567q-16 -75 -48.5 -121t-81.5 -67t-113 -21zM223 63q23 0 45.5 11.5t44.5 32.5t40.5 49t32.5 61.5t22 71t8 75.5q0 48 -22.5 78t-75.5 30q-32 0 -59.5 -16.5t-50 -46t-38 -68t-24 -82t-8.5 -88.5q0 -54 22 -81t63 -27zM349 606
q-36 0 -64 13t-44 38t-16 61v10.5t1 11.5h52q0 -19 7.5 -33t25.5 -21t47 -7q46 0 69 16.5t30 44.5h55q-16 -72 -58 -103t-105 -31z" />
    <glyph glyph-name="Gdot" unicode="&#x120;" horiz-adv-x="678" 
d="M343 -10q-127 0 -199 71t-72 198q0 78 18 148t51.5 128t81 100.5t106.5 65.5t128 23q65 0 114 -11t93 -31l-34 -78q-37 17 -80 29t-94 12q-62 0 -114.5 -28t-92 -79t-61 -120.5t-21.5 -152.5q0 -55 19.5 -99.5t60.5 -70.5t105 -26q38 0 69.5 5.5t53.5 12.5l46 211h-140
l17 78h229l-76 -349q-45 -16 -95 -26.5t-113 -10.5zM486 803q-20 0 -34 12.5t-14 34.5q0 26 15.5 45t43.5 19q16 0 26 -5.5t15 -15.5t5 -24q0 -31 -18 -48.5t-39 -17.5z" />
    <glyph glyph-name="gdot" unicode="&#x121;" horiz-adv-x="579" 
d="M186 -240q-49 0 -90.5 9.5t-70.5 24.5v81q18 -10 44 -20t56 -16t58 -6q62 0 102 30t56 100l9 38q5 23 12.5 51l12.5 47h-4q-23 -29 -49.5 -54t-58 -40t-69.5 -15q-43 0 -76 20.5t-51.5 61.5t-18.5 101q0 58 11.5 113t34 102t54.5 82.5t73 55.5t90 20q36 0 62.5 -13
t44.5 -34t29 -46h4l33 83h67l-122 -567q-16 -75 -48.5 -121t-81.5 -67t-113 -21zM223 63q23 0 45.5 11.5t44.5 32.5t40.5 49t32.5 61.5t22 71t8 75.5q0 48 -22.5 78t-75.5 30q-32 0 -59.5 -16.5t-50 -46t-38 -68t-24 -82t-8.5 -88.5q0 -54 22 -81t63 -27zM359 625
q-20 0 -34 12.5t-14 34.5q0 26 15.5 45t43.5 19q16 0 26 -5.5t15 -15.5t5 -24q0 -31 -18 -48.5t-39 -17.5z" />
    <glyph glyph-name="uni0122" unicode="&#x122;" horiz-adv-x="678" 
d="M343 -10q-127 0 -199 71t-72 198q0 78 18 148t51.5 128t81 100.5t106.5 65.5t128 23q65 0 114 -11t93 -31l-34 -78q-37 17 -80 29t-94 12q-62 0 -114.5 -28t-92 -79t-61 -120.5t-21.5 -152.5q0 -55 19.5 -99.5t60.5 -70.5t105 -26q38 0 69.5 5.5t53.5 12.5l46 211h-140
l17 78h229l-76 -349q-45 -16 -95 -26.5t-113 -10.5zM223 -221v13q10 17 24 43t27 54.5t20 49.5h83v-10q-6 -16 -23 -43t-39 -56t-44 -51h-48z" />
    <glyph glyph-name="uni0123" unicode="&#x123;" horiz-adv-x="579" 
d="M301 606v10q7 16 24 43t39 56.5t43 50.5h49v-13q-10 -16 -24 -42.5t-26.5 -54.5t-20.5 -50h-84zM186 -240q-49 0 -90.5 9.5t-70.5 24.5v81q18 -10 44 -20t56 -16t58 -6q62 0 102 30t56 100l9 38q5 23 12.5 51l12.5 47h-4q-23 -29 -49.5 -54t-58 -40t-69.5 -15
q-43 0 -76 20.5t-51.5 61.5t-18.5 101q0 58 11.5 113t34 102t54.5 82.5t73 55.5t90 20q36 0 62.5 -13t44.5 -34t29 -46h4l33 83h67l-122 -567q-16 -75 -48.5 -121t-81.5 -67t-113 -21zM223 63q23 0 45.5 11.5t44.5 32.5t40.5 49t32.5 61.5t22 71t8 75.5q0 48 -22.5 78
t-75.5 30q-32 0 -59.5 -16.5t-50 -46t-38 -68t-24 -82t-8.5 -88.5q0 -54 22 -81t63 -27z" />
    <glyph glyph-name="Hcircumflex" unicode="&#x124;" horiz-adv-x="680" 
d="M42 0l151 714h89l-64 -302h314l64 302h88l-151 -714h-88l70 333h-314l-70 -333h-89zM284 784v13l45 42t54.5 54.5t40.5 50.5h85q10 -26 25 -52.5t31 -50.5t28 -44v-13h-55q-12 11 -25 25t-26.5 31l-27.5 35q-30 -27 -60.5 -50.5t-56.5 -40.5h-58z" />
    <glyph glyph-name="hcircumflex" unicode="&#x125;" horiz-adv-x="579" 
d="M28 0l161 760h88l-43 -197q-4 -20 -9.5 -41.5l-11 -43t-11.5 -42.5h5q19 25 45 50t59.5 42t76.5 17q42 0 72 -15.5t46.5 -45.5t16.5 -76q0 -19 -3 -39t-8 -43l-70 -326h-88l71 336q5 23 7 38.5t2 27.5q0 33 -16.5 51.5t-53.5 18.5q-34 0 -73.5 -23.5t-73 -76.5
t-52.5 -141l-49 -231h-88zM83 830v13l45 42t54.5 54.5t40.5 50.5h85q10 -26 25 -52.5t31 -50.5t28 -44v-13h-55q-12 11 -25 25t-26.5 31l-27.5 35q-30 -27 -60.5 -50.5t-56.5 -40.5h-58z" />
    <glyph glyph-name="Hbar" unicode="&#x126;" horiz-adv-x="680" 
d="M41 0l110 522h-91l15 72h91l26 120h89l-26 -120h314l26 120h90l-25 -120h91l-14 -72h-93l-110 -522h-90l70 333h-314l-70 -333h-89zM217 412h314l23 110h-314z" />
    <glyph glyph-name="hbar" unicode="&#x127;" horiz-adv-x="579" 
d="M28 0l129 604h-75l15 66h73l19 90h88l-20 -90h169l-15 -66h-167l-17.5 -71.5l-15 -60t-10.5 -44.5h5q19 25 44.5 50.5t59 42.5t76.5 17q42 0 72.5 -16t46.5 -46.5t16 -76.5q0 -19 -3 -39t-8 -43l-68 -317h-88l70 327q5 22 7 38t2 27q0 35 -17 54t-54 19q-33 0 -73 -24
t-74 -77t-53 -141l-46 -223h-88z" />
    <glyph glyph-name="Itilde" unicode="&#x128;" horiz-adv-x="324" 
d="M-20 0l10 49l85 20l122 576l-76 19l10 50h250l-10 -50l-86 -19l-122 -576l77 -20l-10 -49h-250zM102 784q9 42 25 70.5t38.5 43t51.5 14.5q22 0 41 -8.5t36.5 -19l32.5 -19t28 -8.5q22 0 34 13t24 43h53q-11 -41 -27.5 -70t-38.5 -43.5t-51 -14.5q-20 0 -38 8.5t-35 19
t-33.5 19t-32.5 8.5q-21 0 -33 -14t-23 -42h-52z" />
    <glyph glyph-name="itilde" unicode="&#x129;" horiz-adv-x="258" 
d="M28 0l114 536h88l-114 -536h-88zM31 606q9 42 25 70.5t38.5 43t51.5 14.5q22 0 41 -8.5t36.5 -19l32.5 -19t28 -8.5q22 0 34 13t24 43h53q-11 -41 -27.5 -70t-38.5 -43.5t-51 -14.5q-20 0 -38 8.5t-35 19t-33.5 19t-32.5 8.5q-21 0 -33 -14t-23 -42h-52z" />
    <glyph glyph-name="Imacron" unicode="&#x12a;" horiz-adv-x="324" 
d="M-20 0l10 49l85 20l122 576l-76 19l10 50h250l-10 -50l-86 -19l-122 -576l77 -20l-10 -49h-250zM133 784l15 71h269l-15 -71h-269z" />
    <glyph glyph-name="imacron" unicode="&#x12b;" horiz-adv-x="258" 
d="M28 0l114 536h88l-114 -536h-88zM62 606l15 71h269l-15 -71h-269z" />
    <glyph glyph-name="Ibreve" unicode="&#x12c;" horiz-adv-x="324" 
d="M-20 0l10 49l85 20l122 576l-76 19l10 50h250l-10 -50l-86 -19l-122 -576l77 -20l-10 -49h-250zM269 784q-36 0 -64 13t-44 38t-16 61v10.5t1 11.5h52q0 -19 7.5 -33t25.5 -21t47 -7q46 0 69 16.5t30 44.5h55q-16 -72 -58 -103t-105 -31z" />
    <glyph glyph-name="ibreve" unicode="&#x12d;" horiz-adv-x="258" 
d="M28 0l114 536h88l-114 -536h-88zM198 606q-36 0 -64 13t-44 38t-16 61v10.5t1 11.5h52q0 -19 7.5 -33t25.5 -21t47 -7q46 0 69 16.5t30 44.5h55q-16 -72 -58 -103t-105 -31z" />
    <glyph glyph-name="Iogonek" unicode="&#x12e;" horiz-adv-x="324" 
d="M-20 0l10 49l85 20l122 576l-76 19l10 50h250l-10 -50l-86 -19l-122 -576l77 -20l-10 -49h-250zM103 -217q-38 0 -63.5 19.5t-25.5 60.5q0 31 13.5 55t37 44t53.5 38h61q-19 -15 -41 -34.5t-37 -42t-15 -49.5q0 -17 9 -25t24 -8q11 0 21 1.5t19 2.5v-55
q-13 -4 -27.5 -5.5t-28.5 -1.5z" />
    <glyph glyph-name="iogonek" unicode="&#x12f;" horiz-adv-x="258" 
d="M28 0l114 536h88l-114 -536h-88zM213 625q-21 0 -34.5 12.5t-13.5 34.5q0 17 7 31.5t20 23.5t32 9q23 0 34.5 -12t11.5 -33q0 -31 -18 -48.5t-39 -17.5zM55 -217q-38 0 -63.5 19.5t-25.5 60.5q0 31 13.5 55t37 44t53.5 38h61q-19 -15 -41 -34.5t-37 -42t-15 -49.5
q0 -17 9 -25t24 -8q11 0 21 1.5t19 2.5v-55q-13 -4 -27.5 -5.5t-28.5 -1.5z" />
    <glyph glyph-name="Idotaccent" unicode="&#x130;" horiz-adv-x="324" 
d="M-20 0l10 49l85 20l122 576l-76 19l10 50h250l-10 -50l-86 -19l-122 -576l77 -20l-10 -49h-250zM279 803q-20 0 -34 12.5t-14 34.5q0 26 15.5 45t43.5 19q16 0 26 -5.5t15 -15.5t5 -24q0 -31 -18 -48.5t-39 -17.5z" />
    <glyph glyph-name="IJ" unicode="&#x132;" horiz-adv-x="597" 
d="M-20 0l10 49l85 20l122 576l-76 19l10 50h250l-10 -50l-86 -19l-122 -576l77 -20l-10 -49h-250zM244 -190q-24 0 -44.5 3.5t-31.5 8.5l3 77q15 -4 33 -7t38 -3q30 0 55 12t43 38.5t27 69.5l150 705h89l-151 -715q-14 -67 -43.5 -109t-71.5 -61t-96 -19z" />
    <glyph glyph-name="ij" unicode="&#x133;" horiz-adv-x="516" 
d="M28 0l114 536h88l-114 -536h-88zM213 625q-21 0 -34.5 12.5t-13.5 34.5q0 17 7 31.5t20 23.5t32 9q23 0 34.5 -12t11.5 -33q0 -31 -18 -48.5t-39 -17.5zM194 -240q-19 0 -35 3t-27 7v74q12 -4 27 -7.5t31 -3.5q20 0 36 11t27.5 32.5t18.5 54.5l128 605h87l-130 -613
q-10 -50 -29.5 -86.5t-51.5 -56.5t-82 -20zM470 625q-20 0 -33.5 12.5t-13.5 34.5q0 17 7 31.5t20 23.5t32 9q23 0 34 -12t11 -33q0 -31 -18 -48.5t-39 -17.5z" />
    <glyph glyph-name="Jcircumflex" unicode="&#x134;" horiz-adv-x="273" 
d="M-80 -190q-24 0 -44.5 3.5t-31.5 8.5l3 77q15 -4 33 -7t38 -3q30 0 55 12t43 38.5t27 69.5l150 705h89l-151 -715q-14 -67 -43.5 -109t-71.5 -61t-96 -19zM83 784v13l45 42t54.5 54.5t40.5 50.5h85q10 -26 25 -52.5t31 -50.5t28 -44v-13h-55q-12 11 -25 25t-26.5 31
l-27.5 35q-30 -27 -60.5 -50.5t-56.5 -40.5h-58z" />
    <glyph glyph-name="jcircumflex" unicode="&#x135;" horiz-adv-x="258" 
d="M-64 -240q-19 0 -35 3t-27 7v74q12 -4 27 -7.5t31 -3.5q20 0 36 11t27.5 32.5t18.5 54.5l128 605h87l-130 -613q-10 -50 -29.5 -86.5t-51.5 -56.5t-82 -20zM38 606v13l45 42t54.5 54.5t40.5 50.5h85q10 -26 25 -52.5t31 -50.5t28 -44v-13h-55q-12 11 -25 25t-26.5 31
l-27.5 35q-30 -27 -60.5 -50.5t-56.5 -40.5h-58z" />
    <glyph glyph-name="uni0136" unicode="&#x136;" horiz-adv-x="562" 
d="M41 0l151 714h89l-74 -347l62 66l274 281h108l-310 -314l169 -400h-98l-139 346l-83 -61l-60 -285h-89zM141 -221v13q10 17 24 43t27 54.5t20 49.5h83v-10q-6 -16 -23 -43t-39 -56t-44 -51h-48z" />
    <glyph glyph-name="uni0137" unicode="&#x137;" horiz-adv-x="495" 
d="M27 0l161 760h89l-65 -302q-17 -80 -29.5 -123.5t-17.5 -57.5h2l254 259h104l-230 -230l143 -306h-97l-113 251l-72 -57l-40 -194h-89zM114 -221v13q10 17 24 43t27 54.5t20 49.5h83v-10q-6 -16 -23 -43t-39 -56t-44 -51h-48z" />
    <glyph glyph-name="kgreenlandic" unicode="&#x138;" horiz-adv-x="495" 
d="M27 0l113 536h89l-30 -135q-7 -37 -17.5 -71l-16.5 -54h2l254 260h104l-230 -230l143 -306h-97l-113 251l-72 -57l-40 -194h-89z" />
    <glyph glyph-name="Lacute" unicode="&#x139;" horiz-adv-x="478" 
d="M41 0l151 714h89l-135 -634h274l-17 -80h-362zM214 784v13q18 19 38.5 45l40 53t33.5 49h100v-10q-10 -13 -28.5 -33t-41 -42t-45.5 -41.5t-42 -33.5h-55z" />
    <glyph glyph-name="lacute" unicode="&#x13a;" horiz-adv-x="258" 
d="M27 0l162 760h88l-162 -760h-88zM193 830v13q18 19 38.5 45l40 53t33.5 49h100v-10q-10 -13 -28.5 -33t-41 -42t-45.5 -41.5t-42 -33.5h-55z" />
    <glyph glyph-name="uni013B" unicode="&#x13b;" horiz-adv-x="478" 
d="M41 0l151 714h89l-135 -634h274l-17 -80h-362zM115 -221v13q10 17 24 43t27 54.5t20 49.5h83v-10q-6 -16 -23 -43t-39 -56t-44 -51h-48z" />
    <glyph glyph-name="uni013C" unicode="&#x13c;" horiz-adv-x="258" 
d="M27 0l162 760h88l-162 -760h-88zM-35 -221v13q10 17 24 43t27 54.5t20 49.5h83v-10q-6 -16 -23 -43t-39 -56t-44 -51h-48z" />
    <glyph glyph-name="Lcaron" unicode="&#x13d;" horiz-adv-x="478" 
d="M363 552v13q11 17 25 43t26.5 54.5t20.5 49.5h83v-10q-7 -16 -23.5 -43t-38.5 -56t-44 -51h-49zM41 0l151 714h89l-135 -634h274l-17 -80h-362z" />
    <glyph glyph-name="lcaron" unicode="&#x13e;" horiz-adv-x="288" 
d="M283 600v13q11 17 25 43t26.5 54.5t20.5 49.5h83v-10q-6 -16 -23 -43t-39 -56t-44 -51h-49zM27 0l162 760h88l-162 -760h-88z" />
    <glyph glyph-name="Ldot" unicode="&#x13f;" horiz-adv-x="478" 
d="M41 0l151 714h89l-135 -634h274l-17 -80h-362zM382 299q-20 0 -34 12.5t-14 34.5q0 26 15.5 45t43.5 19q16 0 26 -5.5t15 -15.5t5 -24q0 -31 -18 -48.5t-39 -17.5z" />
    <glyph glyph-name="ldot" unicode="&#x140;" horiz-adv-x="297" 
d="M27 0l162 760h88l-162 -760h-88zM294 310q-20 0 -34 12.5t-14 34.5q0 26 15.5 45t43.5 19q16 0 26 -5.5t15 -15.5t5 -24q0 -31 -18 -48.5t-39 -17.5z" />
    <glyph glyph-name="Lslash" unicode="&#x141;" horiz-adv-x="478" 
d="M40 0l53 246l-52 -30l-31 58l100 57l81 383h90l-70 -325l112 63l31 -56l-160 -92l-47 -224h273l-17 -80h-363z" />
    <glyph glyph-name="lslash" unicode="&#x142;" horiz-adv-x="258" 
d="M27 0l61 285l-55 -33l-30 55l102 62l84 391h88l-70 -332l58 34l28 -55l-104 -62l-74 -345h-88z" />
    <glyph glyph-name="Nacute" unicode="&#x143;" horiz-adv-x="707" 
d="M40 0l151 714h95l219 -590h3q3 24 8.5 57.5t12.5 70t14 69.5l84 393h85l-151 -714h-95l-221 592h-3q-2 -16 -5.5 -39.5t-8.5 -51l-10.5 -57t-11.5 -56.5l-82 -388h-84zM416 784v13q18 19 38.5 45l40 53t33.5 49h100v-10q-10 -13 -28.5 -33t-41 -42t-45.5 -41.5t-42 -33.5
h-55z" />
    <glyph glyph-name="nacute" unicode="&#x144;" horiz-adv-x="579" 
d="M24 0l115 539h78l-11 -99h1q19 25 44.5 50t59.5 42t77 17t74 -16t47.5 -46t16.5 -73q0 -23 -3.5 -47t-7.5 -42l-71 -325h-94l72 337q5 23 7.5 38.5t2.5 29.5q0 32 -17 48t-51 16q-33 0 -71.5 -23t-72 -75t-52.5 -140l-50 -231h-94zM311 606v13q18 19 38.5 45l40 53
t33.5 49h100v-10q-10 -13 -28.5 -33t-41 -42t-45.5 -41.5t-42 -33.5h-55z" />
    <glyph glyph-name="uni0145" unicode="&#x145;" horiz-adv-x="707" 
d="M40 0l151 714h95l219 -590h3q3 24 8.5 57.5t12.5 70t14 69.5l84 393h85l-151 -714h-95l-221 592h-3q-2 -16 -5.5 -39.5t-8.5 -51l-10.5 -57t-11.5 -56.5l-82 -388h-84zM190 -221v13q10 17 24 43t27 54.5t20 49.5h83v-10q-6 -16 -23 -43t-39 -56t-44 -51h-48z" />
    <glyph glyph-name="uni0146" unicode="&#x146;" horiz-adv-x="579" 
d="M24 0l115 539h78l-11 -99h1q19 25 44.5 50t59.5 42t77 17t74 -16t47.5 -46t16.5 -73q0 -23 -3.5 -47t-7.5 -42l-71 -325h-94l72 337q5 23 7.5 38.5t2.5 29.5q0 32 -17 48t-51 16q-33 0 -71.5 -23t-72 -75t-52.5 -140l-50 -231h-94zM128 -221v13q10 17 24 43t27 54.5
t20 49.5h83v-10q-6 -16 -23 -43t-39 -56t-44 -51h-48z" />
    <glyph glyph-name="Ncaron" unicode="&#x147;" horiz-adv-x="707" 
d="M40 0l151 714h95l219 -590h3q3 24 8.5 57.5t12.5 70t14 69.5l84 393h85l-151 -714h-95l-221 592h-3q-2 -16 -5.5 -39.5t-8.5 -51l-10.5 -57t-11.5 -56.5l-82 -388h-84zM422 784q-9 26 -23.5 52.5t-30 51l-28.5 43.5v13h53q13 -10 26.5 -24.5t26.5 -31.5l26 -35
q31 27 62 50.5t58 40.5h57v-13l-45 -41.5t-54.5 -54.5t-41.5 -51h-86z" />
    <glyph glyph-name="ncaron" unicode="&#x148;" horiz-adv-x="579" 
d="M24 0l115 539h78l-11 -99h1q19 25 44.5 50t59.5 42t77 17t74 -16t47.5 -46t16.5 -73q0 -23 -3.5 -47t-7.5 -42l-71 -325h-94l72 337q5 23 7.5 38.5t2.5 29.5q0 32 -17 48t-51 16q-33 0 -71.5 -23t-72 -75t-52.5 -140l-50 -231h-94zM317 606q-9 26 -23.5 52.5t-30 51
l-28.5 43.5v13h53q13 -10 26.5 -24.5t26.5 -31.5l26 -35q31 27 62 50.5t58 40.5h57v-13l-45 -41.5t-54.5 -54.5t-41.5 -51h-86z" />
    <glyph glyph-name="napostrophe" unicode="&#x149;" horiz-adv-x="657" 
d="M102 0l115 539h78l-11 -99h1q19 25 44.5 50t59.5 42t77 17t74 -16t47.5 -46t16.5 -73q0 -23 -3.5 -47t-7.5 -42l-71 -325h-94l72 337q5 23 7.5 38.5t2.5 29.5q0 32 -17 48t-51 16q-33 0 -71.5 -23t-72 -75t-52.5 -140l-50 -231h-94zM41 469l36.5 83.5l35 85.5t27.5 76h96
l4 -11q-16 -35 -37.5 -75.5t-46 -81l-48.5 -77.5h-67z" />
    <glyph glyph-name="Eng" unicode="&#x14a;" horiz-adv-x="707" 
d="M350 -189q-23 0 -44 3.5t-32 8.5l3 77q15 -4 33 -7t39 -3q29 0 54 11t43.5 35t26.5 64l-228 592h-4l-6.5 -42.5t-8 -50.5l-9.5 -55.5t-11 -55.5l-82 -388h-84l151 714h95l219 -583h3q5 28 10.5 63t13 72.5l14.5 72.5l80 375h86l-151 -714q-14 -67 -43.5 -109t-72 -61
t-95.5 -19z" />
    <glyph glyph-name="eng" unicode="&#x14b;" horiz-adv-x="579" 
d="M262 -240q-18 0 -33.5 3t-28.5 7v74q14 -4 28 -7.5t30 -3.5q20 0 35.5 11t27 33t18.5 55l86 404q5 23 7.5 39t2.5 30q0 31 -17 49t-54 18q-34 0 -73 -23.5t-73 -76.5t-53 -141l-49 -231h-88l114 536h72l-11 -99h5q19 25 44.5 50t59 42t76.5 17q41 0 71.5 -15t47 -44.5
t16.5 -72.5q0 -23 -3 -44t-8 -44l-86 -404q-10 -49 -29.5 -85.5t-52 -56.5t-82.5 -20z" />
    <glyph glyph-name="Omacron" unicode="&#x14c;" horiz-adv-x="721" 
d="M337 -10q-85 0 -144.5 33.5t-90 96t-30.5 147.5q0 62 11 119.5t32.5 108.5t52.5 93t71.5 73t89 47.5t104.5 16.5q122 0 189.5 -75t67.5 -206q0 -62 -10 -119.5t-30 -108t-50 -92t-69 -71.5t-87.5 -46.5t-106.5 -16.5zM340 69q40 0 74 14t62.5 39t50.5 59.5t37 77t23 90
t8 97.5q0 95 -45 147.5t-123 52.5q-40 0 -75 -13.5t-63.5 -38t-51.5 -59t-38.5 -76.5t-23.5 -90t-8 -100q0 -63 21 -107.5t59.5 -68.5t92.5 -24zM332 784l15 71h269l-15 -71h-269z" />
    <glyph glyph-name="omacron" unicode="&#x14d;" horiz-adv-x="563" 
d="M248 -8q-62 0 -107 25t-69 71.5t-24 109.5q0 49 11 98.5t32.5 93.5t53.5 78.5t75 54.5t96 20q63 0 107.5 -25t68.5 -71.5t24 -110.5q0 -49 -11 -98t-32.5 -93.5t-53.5 -78.5t-75 -54t-96 -20zM253 65q29 0 54.5 12t47.5 35.5t37.5 58t24.5 78.5t9 97q0 30 -10.5 58.5
t-34.5 47t-64 18.5q-33 0 -61 -14t-50 -39.5t-37.5 -60t-23.5 -75.5t-8 -86q0 -62 30.5 -96t85.5 -34zM198 606l15 71h269l-15 -71h-269z" />
    <glyph glyph-name="Obreve" unicode="&#x14e;" horiz-adv-x="721" 
d="M337 -10q-85 0 -144.5 33.5t-90 96t-30.5 147.5q0 62 11 119.5t32.5 108.5t52.5 93t71.5 73t89 47.5t104.5 16.5q122 0 189.5 -75t67.5 -206q0 -62 -10 -119.5t-30 -108t-50 -92t-69 -71.5t-87.5 -46.5t-106.5 -16.5zM340 69q40 0 74 14t62.5 39t50.5 59.5t37 77t23 90
t8 97.5q0 95 -45 147.5t-123 52.5q-40 0 -75 -13.5t-63.5 -38t-51.5 -59t-38.5 -76.5t-23.5 -90t-8 -100q0 -63 21 -107.5t59.5 -68.5t92.5 -24zM468 784q-36 0 -64 13t-44 38t-16 61v10.5t1 11.5h52q0 -19 7.5 -33t25.5 -21t47 -7q46 0 69 16.5t30 44.5h55
q-16 -72 -58 -103t-105 -31z" />
    <glyph glyph-name="obreve" unicode="&#x14f;" horiz-adv-x="563" 
d="M248 -8q-62 0 -107 25t-69 71.5t-24 109.5q0 49 11 98.5t32.5 93.5t53.5 78.5t75 54.5t96 20q63 0 107.5 -25t68.5 -71.5t24 -110.5q0 -49 -11 -98t-32.5 -93.5t-53.5 -78.5t-75 -54t-96 -20zM253 65q29 0 54.5 12t47.5 35.5t37.5 58t24.5 78.5t9 97q0 30 -10.5 58.5
t-34.5 47t-64 18.5q-33 0 -61 -14t-50 -39.5t-37.5 -60t-23.5 -75.5t-8 -86q0 -62 30.5 -96t85.5 -34zM334 606q-36 0 -64 13t-44 38t-16 61v10.5t1 11.5h52q0 -19 7.5 -33t25.5 -21t47 -7q46 0 69 16.5t30 44.5h55q-16 -72 -58 -103t-105 -31z" />
    <glyph glyph-name="Ohungarumlaut" unicode="&#x150;" horiz-adv-x="721" 
d="M337 -10q-85 0 -144.5 33.5t-90 96t-30.5 147.5q0 62 11 119.5t32.5 108.5t52.5 93t71.5 73t89 47.5t104.5 16.5q122 0 189.5 -75t67.5 -206q0 -62 -10 -119.5t-30 -108t-50 -92t-69 -71.5t-87.5 -46.5t-106.5 -16.5zM340 69q40 0 74 14t62.5 39t50.5 59.5t37 77t23 90
t8 97.5q0 95 -45 147.5t-123 52.5q-40 0 -75 -13.5t-63.5 -38t-51.5 -59t-38.5 -76.5t-23.5 -90t-8 -100q0 -63 21 -107.5t59.5 -68.5t92.5 -24zM520 784v13q18 19 38.5 45l40 53t33.5 49h90v-10q-10 -13 -28.5 -33l-40.5 -42t-45 -41.5t-42 -33.5h-46zM351 784v13
q18 19 38.5 45l40 53t33.5 49h90v-10q-10 -13 -28.5 -33l-40.5 -42t-45 -41.5t-42 -33.5h-46z" />
    <glyph glyph-name="ohungarumlaut" unicode="&#x151;" horiz-adv-x="563" 
d="M248 -8q-62 0 -107 25t-69 71.5t-24 109.5q0 49 11 98.5t32.5 93.5t53.5 78.5t75 54.5t96 20q63 0 107.5 -25t68.5 -71.5t24 -110.5q0 -49 -11 -98t-32.5 -93.5t-53.5 -78.5t-75 -54t-96 -20zM253 65q29 0 54.5 12t47.5 35.5t37.5 58t24.5 78.5t9 97q0 30 -10.5 58.5
t-34.5 47t-64 18.5q-33 0 -61 -14t-50 -39.5t-37.5 -60t-23.5 -75.5t-8 -86q0 -62 30.5 -96t85.5 -34zM386 606v13q18 19 38.5 45l40 53t33.5 49h90v-10q-10 -13 -28.5 -33l-40.5 -42t-45 -41.5t-42 -33.5h-46zM217 606v13q18 19 38.5 45l40 53t33.5 49h90v-10
q-10 -13 -28.5 -33l-40.5 -42t-45 -41.5t-42 -33.5h-46z" />
    <glyph glyph-name="OE" unicode="&#x152;" horiz-adv-x="859" 
d="M337 -10q-85 0 -144.5 33.5t-90 96t-30.5 147.5q0 74 16 142t46.5 125.5t74.5 100.5t100.5 66.5t123.5 23.5q38 0 65 -2.5t50 -8.5h351l-16 -79h-274l-48 -223h256l-16 -78h-256l-54 -255h274l-17 -79h-333q-18 -4 -37.5 -7t-40.5 -3zM340 69q17 0 32.5 2.5t28.5 6.5
l118 557q-19 5 -42 8t-50 3q-48 0 -88.5 -19t-72 -53.5t-54 -82t-34 -104t-11.5 -118.5q0 -63 21 -107.5t59.5 -68.5t92.5 -24z" />
    <glyph glyph-name="oe" unicode="&#x153;" horiz-adv-x="866" 
d="M243 -8q-89 0 -142 55.5t-53 150.5q0 49 11 98.5t33 93.5t54.5 78.5t76 54.5t98.5 20q73 0 113.5 -30t59.5 -77q36 52 86.5 81t108.5 29q65 0 106 -30.5t41 -94.5q0 -39 -17.5 -73.5t-54.5 -60.5t-95.5 -40.5t-141.5 -14.5h-21q-1 -9 -1.5 -19t-0.5 -18q0 -61 30 -96.5
t91 -35.5q38 0 71.5 11.5t73.5 29.5v-77q-40 -19 -78.5 -28t-82.5 -9q-42 0 -76 12t-58.5 35.5t-39.5 58.5q-31 -47 -79 -75.5t-113 -28.5zM248 65q35 0 63.5 14t50 39t36 60t22 77.5t7.5 90.5q0 56 -27 90t-83 34q-33 0 -61 -14t-50 -39.5t-37.5 -59.5t-23.5 -74t-8 -83
q0 -66 29.5 -100.5t81.5 -34.5zM516 303h10q60 0 111 11t82 36t31 67q0 23 -15.5 39.5t-46.5 16.5q-37 0 -70.5 -19t-60 -56.5t-41.5 -94.5z" />
    <glyph glyph-name="Racute" unicode="&#x154;" horiz-adv-x="573" 
d="M41 0l151 714h157q110 0 165 -46t55 -135q0 -51 -17.5 -94t-56.5 -74.5t-104 -49.5l118 -315h-98l-102 295h-117l-62 -295h-89zM208 371h78q50 0 86 11.5t59.5 32t34.5 49.5t11 63q0 61 -34 85t-102 24h-76zM344 784v13q18 19 38.5 45l40 53t33.5 49h100v-10
q-10 -13 -28.5 -33t-41 -42t-45.5 -41.5t-42 -33.5h-55z" />
    <glyph glyph-name="racute" unicode="&#x155;" horiz-adv-x="398" 
d="M28 0l114 536h72l-11 -99h5q21 28 44 52.5t52 40.5t67 16q14 0 29.5 -1.5t28.5 -5.5l-19 -79q-13 3 -25.5 4.5t-25.5 1.5q-37 0 -68.5 -19.5t-56 -51.5t-41.5 -71t-25 -79l-52 -245h-88zM250 606v13q18 19 38.5 45l40 53t33.5 49h100v-10q-10 -13 -28.5 -33t-41 -42
t-45.5 -41.5t-42 -33.5h-55z" />
    <glyph glyph-name="uni0156" unicode="&#x156;" horiz-adv-x="573" 
d="M41 0l151 714h157q110 0 165 -46t55 -135q0 -51 -17.5 -94t-56.5 -74.5t-104 -49.5l118 -315h-98l-102 295h-117l-62 -295h-89zM208 371h78q50 0 86 11.5t59.5 32t34.5 49.5t11 63q0 61 -34 85t-102 24h-76zM143 -221v13q10 17 24 43t27 54.5t20 49.5h83v-10
q-6 -16 -23 -43t-39 -56t-44 -51h-48z" />
    <glyph glyph-name="uni0157" unicode="&#x157;" horiz-adv-x="398" 
d="M28 0l114 536h72l-11 -99h5q21 28 44 52.5t52 40.5t67 16q14 0 29.5 -1.5t28.5 -5.5l-19 -79q-13 3 -25.5 4.5t-25.5 1.5q-37 0 -68.5 -19.5t-56 -51.5t-41.5 -71t-25 -79l-52 -245h-88zM-32 -221v13q10 17 24 43t27 54.5t20 49.5h83v-10q-6 -16 -23 -43t-39 -56t-44 -51
h-48z" />
    <glyph glyph-name="Rcaron" unicode="&#x158;" horiz-adv-x="573" 
d="M41 0l151 714h157q110 0 165 -46t55 -135q0 -51 -17.5 -94t-56.5 -74.5t-104 -49.5l118 -315h-98l-102 295h-117l-62 -295h-89zM208 371h78q50 0 86 11.5t59.5 32t34.5 49.5t11 63q0 61 -34 85t-102 24h-76zM350 784q-9 26 -23.5 52.5t-30 51l-28.5 43.5v13h53
q13 -10 26.5 -24.5t26.5 -31.5l26 -35q31 27 62 50.5t58 40.5h57v-13l-45 -41.5t-54.5 -54.5t-41.5 -51h-86z" />
    <glyph glyph-name="rcaron" unicode="&#x159;" horiz-adv-x="398" 
d="M28 0l114 536h72l-11 -99h5q21 28 44 52.5t52 40.5t67 16q14 0 29.5 -1.5t28.5 -5.5l-19 -79q-13 3 -25.5 4.5t-25.5 1.5q-37 0 -68.5 -19.5t-56 -51.5t-41.5 -71t-25 -79l-52 -245h-88zM256 606q-9 26 -23.5 52.5t-30 51l-28.5 43.5v13h53q13 -10 26.5 -24.5t26.5 -31.5
l26 -35q31 27 62 50.5t58 40.5h57v-13l-45 -41.5t-54.5 -54.5t-41.5 -51h-86z" />
    <glyph glyph-name="Sacute" unicode="&#x15a;" horiz-adv-x="505" 
d="M185 -10q-52 0 -91.5 8t-74.5 24v88q30 -16 71.5 -29t95.5 -13q34 0 64 7.5t53 24t36.5 41.5t13.5 59q0 27 -11.5 48t-37.5 41.5t-69 44.5q-38 23 -67.5 47.5t-46 57t-16.5 78.5q0 50 18.5 88t51 65t75 40.5t90.5 13.5q56 0 98.5 -11t80.5 -31l-34 -76q-26 14 -65 26.5
t-80 12.5q-31 0 -56.5 -8t-44 -24t-29 -38.5t-10.5 -51.5q0 -30 11 -50.5t34 -37t57 -37.5q43 -26 75.5 -51t51 -58t18.5 -82q0 -54 -18.5 -94.5t-53 -67.5t-83 -41t-107.5 -14zM300 784v13q18 19 38.5 45l40 53t33.5 49h100v-10q-10 -13 -28.5 -33t-41 -42t-45.5 -41.5
t-42 -33.5h-55z" />
    <glyph glyph-name="sacute" unicode="&#x15b;" horiz-adv-x="432" 
d="M155 -10q-49 0 -85.5 9.5t-64.5 24.5v81q26 -16 65.5 -29.5t81.5 -13.5q40 0 66.5 10.5t40.5 29.5t14 44q0 20 -8 34.5t-27.5 29t-54.5 33.5q-38 22 -63.5 43.5t-38.5 47.5t-13 60q0 46 22.5 80t63.5 53t96 19q49 0 90.5 -11.5t71.5 -25.5l-28 -70q-26 12 -58 22.5
t-76 10.5q-43 0 -68.5 -20.5t-25.5 -52.5q0 -17 7 -31t26.5 -28.5t54.5 -34.5q34 -20 61 -40t42.5 -46t15.5 -64q0 -54 -25.5 -91t-72.5 -55.5t-110 -18.5zM224 606v13q18 19 38.5 45l40 53t33.5 49h100v-10q-10 -13 -28.5 -33t-41 -42t-45.5 -41.5t-42 -33.5h-55z" />
    <glyph glyph-name="Scircumflex" unicode="&#x15c;" horiz-adv-x="505" 
d="M185 -10q-52 0 -91.5 8t-74.5 24v88q30 -16 71.5 -29t95.5 -13q34 0 64 7.5t53 24t36.5 41.5t13.5 59q0 27 -11.5 48t-37.5 41.5t-69 44.5q-38 23 -67.5 47.5t-46 57t-16.5 78.5q0 50 18.5 88t51 65t75 40.5t90.5 13.5q56 0 98.5 -11t80.5 -31l-34 -76q-26 14 -65 26.5
t-80 12.5q-31 0 -56.5 -8t-44 -24t-29 -38.5t-10.5 -51.5q0 -30 11 -50.5t34 -37t57 -37.5q43 -26 75.5 -51t51 -58t18.5 -82q0 -54 -18.5 -94.5t-53 -67.5t-83 -41t-107.5 -14zM189 784v13l45 42t54.5 54.5t40.5 50.5h85q10 -26 25 -52.5t31 -50.5t28 -44v-13h-55
q-12 11 -25 25t-26.5 31l-27.5 35q-30 -27 -60.5 -50.5t-56.5 -40.5h-58z" />
    <glyph glyph-name="scircumflex" unicode="&#x15d;" horiz-adv-x="432" 
d="M155 -10q-49 0 -85.5 9.5t-64.5 24.5v81q26 -16 65.5 -29.5t81.5 -13.5q40 0 66.5 10.5t40.5 29.5t14 44q0 20 -8 34.5t-27.5 29t-54.5 33.5q-38 22 -63.5 43.5t-38.5 47.5t-13 60q0 46 22.5 80t63.5 53t96 19q49 0 90.5 -11.5t71.5 -25.5l-28 -70q-26 12 -58 22.5
t-76 10.5q-43 0 -68.5 -20.5t-25.5 -52.5q0 -17 7 -31t26.5 -28.5t54.5 -34.5q34 -20 61 -40t42.5 -46t15.5 -64q0 -54 -25.5 -91t-72.5 -55.5t-110 -18.5zM113 606v13l45 42t54.5 54.5t40.5 50.5h85q10 -26 25 -52.5t31 -50.5t28 -44v-13h-55q-12 11 -25 25t-26.5 31
l-27.5 35q-30 -27 -60.5 -50.5t-56.5 -40.5h-58z" />
    <glyph glyph-name="Scedilla" unicode="&#x15e;" horiz-adv-x="505" 
d="M185 -10q-52 0 -91.5 8t-74.5 24v88q30 -16 71.5 -29t95.5 -13q34 0 64 7.5t53 24t36.5 41.5t13.5 59q0 27 -11.5 48t-37.5 41.5t-69 44.5q-38 23 -67.5 47.5t-46 57t-16.5 78.5q0 50 18.5 88t51 65t75 40.5t90.5 13.5q56 0 98.5 -11t80.5 -31l-34 -76q-26 14 -65 26.5
t-80 12.5q-31 0 -56.5 -8t-44 -24t-29 -38.5t-10.5 -51.5q0 -30 11 -50.5t34 -37t57 -37.5q43 -26 75.5 -51t51 -58t18.5 -82q0 -54 -18.5 -94.5t-53 -67.5t-83 -41t-107.5 -14zM125 -240q-13 0 -25 1.5t-20 3.5v52q10 -2 19.5 -3t16.5 -1q28 0 46 6t27 18t9 29
q0 22 -18.5 32t-48.5 14l48 88h56l-29 -57q23 -7 43.5 -23.5t20.5 -53.5q0 -30 -16.5 -54t-49 -38t-79.5 -14z" />
    <glyph glyph-name="scedilla" unicode="&#x15f;" horiz-adv-x="432" 
d="M155 -10q-49 0 -85.5 9.5t-64.5 24.5v81q26 -16 65.5 -29.5t81.5 -13.5q40 0 66.5 10.5t40.5 29.5t14 44q0 20 -8 34.5t-27.5 29t-54.5 33.5q-38 22 -63.5 43.5t-38.5 47.5t-13 60q0 46 22.5 80t63.5 53t96 19q49 0 90.5 -11.5t71.5 -25.5l-28 -70q-26 12 -58 22.5
t-76 10.5q-43 0 -68.5 -20.5t-25.5 -52.5q0 -17 7 -31t26.5 -28.5t54.5 -34.5q34 -20 61 -40t42.5 -46t15.5 -64q0 -54 -25.5 -91t-72.5 -55.5t-110 -18.5zM88 -240q-13 0 -25 1.5t-20 3.5v52q10 -2 19.5 -3t16.5 -1q28 0 46 6t27 18t9 29q0 22 -18.5 32t-48.5 14l48 88h56
l-29 -57q23 -7 43.5 -23.5t20.5 -53.5q0 -30 -16.5 -54t-49 -38t-79.5 -14z" />
    <glyph glyph-name="Scaron" unicode="&#x160;" horiz-adv-x="505" 
d="M185 -10q-52 0 -91.5 8t-74.5 24v88q30 -16 71.5 -29t95.5 -13q34 0 64 7.5t53 24t36.5 41.5t13.5 59q0 27 -11.5 48t-37.5 41.5t-69 44.5q-38 23 -67.5 47.5t-46 57t-16.5 78.5q0 50 18.5 88t51 65t75 40.5t90.5 13.5q56 0 98.5 -11t80.5 -31l-34 -76q-26 14 -65 26.5
t-80 12.5q-31 0 -56.5 -8t-44 -24t-29 -38.5t-10.5 -51.5q0 -30 11 -50.5t34 -37t57 -37.5q43 -26 75.5 -51t51 -58t18.5 -82q0 -54 -18.5 -94.5t-53 -67.5t-83 -41t-107.5 -14zM306 784q-9 26 -23.5 52.5t-30 51l-28.5 43.5v13h53q13 -10 26.5 -24.5t26.5 -31.5l26 -35
q31 27 62 50.5t58 40.5h57v-13l-45 -41.5t-54.5 -54.5t-41.5 -51h-86z" />
    <glyph glyph-name="scaron" unicode="&#x161;" horiz-adv-x="432" 
d="M155 -10q-49 0 -85.5 9.5t-64.5 24.5v81q26 -16 65.5 -29.5t81.5 -13.5q40 0 66.5 10.5t40.5 29.5t14 44q0 20 -8 34.5t-27.5 29t-54.5 33.5q-38 22 -63.5 43.5t-38.5 47.5t-13 60q0 46 22.5 80t63.5 53t96 19q49 0 90.5 -11.5t71.5 -25.5l-28 -70q-26 12 -58 22.5
t-76 10.5q-43 0 -68.5 -20.5t-25.5 -52.5q0 -17 7 -31t26.5 -28.5t54.5 -34.5q34 -20 61 -40t42.5 -46t15.5 -64q0 -54 -25.5 -91t-72.5 -55.5t-110 -18.5zM230 606q-9 26 -23.5 52.5t-30 51l-28.5 43.5v13h53q13 -10 26.5 -24.5t26.5 -31.5l26 -35q31 27 62 50.5t58 40.5
h57v-13l-45 -41.5t-54.5 -54.5t-41.5 -51h-86z" />
    <glyph glyph-name="uni021A" unicode="&#x21a;" horiz-adv-x="501" 
d="M152 0l134 635h-196l17 79h482l-16 -79h-196l-135 -635h-90zM87 -221v13q10 17 24 43t27 54.5t20 49.5h83v-10q-6 -16 -23 -43t-39 -56t-44 -51h-48z" />
    <glyph glyph-name="uni021B" unicode="&#x21b;" horiz-adv-x="332" 
d="M185 -10q-54 0 -91 26t-37 91q0 15 2.5 33.5t6.5 37.5l61 291h-83l8 40l90 38l62 111h52l-27 -122h135l-14 -67h-134l-62 -292q-3 -13 -6 -29.5t-3 -30.5q0 -23 12.5 -39t40.5 -16q18 0 35 3.5t36 9.5v-67q-12 -6 -37 -12t-47 -6zM39 -221v13q10 17 24 43t27 54.5
t20 49.5h83v-10q-6 -16 -23 -43t-39 -56t-44 -51h-48z" />
    <glyph glyph-name="Tcaron" unicode="&#x164;" horiz-adv-x="501" 
d="M152 0l134 635h-196l17 79h482l-16 -79h-196l-135 -635h-90zM314 784q-9 26 -23.5 52.5t-30 51l-28.5 43.5v13h53q13 -10 26.5 -24.5t26.5 -31.5l26 -35q31 27 62 50.5t58 40.5h57v-13l-45 -41.5t-54.5 -54.5t-41.5 -51h-86z" />
    <glyph glyph-name="tcaron" unicode="&#x165;" horiz-adv-x="332" 
d="M287 600v13q11 17 25 43t26.5 54.5t20.5 49.5h83v-10q-6 -16 -23 -43t-39 -56t-44 -51h-49zM185 -10q-54 0 -91 26t-37 91q0 15 2.5 33.5t6.5 37.5l61 291h-83l8 40l90 38l62 111h52l-27 -122h135l-14 -67h-134l-62 -292q-3 -13 -6 -29.5t-3 -30.5q0 -23 12.5 -39
t40.5 -16q18 0 35 3.5t36 9.5v-67q-12 -6 -37 -12t-47 -6z" />
    <glyph glyph-name="Tbar" unicode="&#x166;" horiz-adv-x="501" 
d="M152 0l69 327h-138l16 73h136l51 235h-196l17 79h482l-16 -79h-196l-51 -235h141l-15 -73h-141l-69 -327h-90z" />
    <glyph glyph-name="tbar" unicode="&#x167;" horiz-adv-x="332" 
d="M185 -10q-54 0 -91 26t-37 91q0 15 2.5 33.5t6.5 37.5l21 104h-67l14 66h67l26 121h-83l8 40l90 38l62 111h52l-27 -122h135l-14 -67h-134l-26 -121h118l-13 -66h-119l-22 -105q-3 -13 -6 -29.5t-3 -30.5q0 -23 12.5 -39t40.5 -16q18 0 35 3.5t36 9.5v-67q-12 -6 -37 -12
t-47 -6z" />
    <glyph glyph-name="Utilde" unicode="&#x168;" horiz-adv-x="677" 
d="M300 -10q-74 0 -123.5 23t-73.5 67t-24 108q0 17 3 42t9 53l92 431h89l-93 -436q-5 -23 -8 -48t-3 -41q0 -56 34.5 -88t102.5 -32q59 0 97.5 20.5t61.5 61t36 99.5l99 464h89l-100 -471q-16 -78 -50.5 -135t-92.5 -87.5t-145 -30.5zM279 784q9 42 25 70.5t38.5 43
t51.5 14.5q22 0 41 -8.5t36.5 -19l32.5 -19t28 -8.5q22 0 34 13t24 43h53q-11 -41 -27.5 -70t-38.5 -43.5t-51 -14.5q-20 0 -38 8.5t-35 19t-33.5 19t-32.5 8.5q-21 0 -33 -14t-23 -42h-52z" />
    <glyph glyph-name="utilde" unicode="&#x169;" horiz-adv-x="579" 
d="M189 -10q-40 0 -70.5 15t-47 45t-16.5 73q0 23 3.5 43.5l7.5 42.5l70 327h89l-72 -337q-4 -22 -6.5 -38t-2.5 -29q0 -32 16.5 -50.5t53.5 -18.5q34 0 73.5 24t73.5 77t53 141l49 231h87l-114 -536h-72l11 99h-5q-19 -24 -44.5 -49.5t-59 -42.5t-77.5 -17zM192 606
q9 42 25 70.5t38.5 43t51.5 14.5q22 0 41 -8.5t36.5 -19l32.5 -19t28 -8.5q22 0 34 13t24 43h53q-11 -41 -27.5 -70t-38.5 -43.5t-51 -14.5q-20 0 -38 8.5t-35 19t-33.5 19t-32.5 8.5q-21 0 -33 -14t-23 -42h-52z" />
    <glyph glyph-name="Umacron" unicode="&#x16a;" horiz-adv-x="677" 
d="M300 -10q-74 0 -123.5 23t-73.5 67t-24 108q0 17 3 42t9 53l92 431h89l-93 -436q-5 -23 -8 -48t-3 -41q0 -56 34.5 -88t102.5 -32q59 0 97.5 20.5t61.5 61t36 99.5l99 464h89l-100 -471q-16 -78 -50.5 -135t-92.5 -87.5t-145 -30.5zM310 784l15 71h269l-15 -71h-269z" />
    <glyph glyph-name="umacron" unicode="&#x16b;" horiz-adv-x="579" 
d="M189 -10q-40 0 -70.5 15t-47 45t-16.5 73q0 23 3.5 43.5l7.5 42.5l70 327h89l-72 -337q-4 -22 -6.5 -38t-2.5 -29q0 -32 16.5 -50.5t53.5 -18.5q34 0 73.5 24t73.5 77t53 141l49 231h87l-114 -536h-72l11 99h-5q-19 -24 -44.5 -49.5t-59 -42.5t-77.5 -17zM223 606l15 71
h269l-15 -71h-269z" />
    <glyph glyph-name="Ubreve" unicode="&#x16c;" horiz-adv-x="677" 
d="M300 -10q-74 0 -123.5 23t-73.5 67t-24 108q0 17 3 42t9 53l92 431h89l-93 -436q-5 -23 -8 -48t-3 -41q0 -56 34.5 -88t102.5 -32q59 0 97.5 20.5t61.5 61t36 99.5l99 464h89l-100 -471q-16 -78 -50.5 -135t-92.5 -87.5t-145 -30.5zM446 784q-36 0 -64 13t-44 38t-16 61
v10.5t1 11.5h52q0 -19 7.5 -33t25.5 -21t47 -7q46 0 69 16.5t30 44.5h55q-16 -72 -58 -103t-105 -31z" />
    <glyph glyph-name="ubreve" unicode="&#x16d;" horiz-adv-x="579" 
d="M189 -10q-40 0 -70.5 15t-47 45t-16.5 73q0 23 3.5 43.5l7.5 42.5l70 327h89l-72 -337q-4 -22 -6.5 -38t-2.5 -29q0 -32 16.5 -50.5t53.5 -18.5q34 0 73.5 24t73.5 77t53 141l49 231h87l-114 -536h-72l11 99h-5q-19 -24 -44.5 -49.5t-59 -42.5t-77.5 -17zM359 606
q-36 0 -64 13t-44 38t-16 61v10.5t1 11.5h52q0 -19 7.5 -33t25.5 -21t47 -7q46 0 69 16.5t30 44.5h55q-16 -72 -58 -103t-105 -31z" />
    <glyph glyph-name="Uring" unicode="&#x16e;" horiz-adv-x="677" 
d="M300 -10q-74 0 -123.5 23t-73.5 67t-24 108q0 17 3 42t9 53l92 431h89l-93 -436q-5 -23 -8 -48t-3 -41q0 -56 34.5 -88t102.5 -32q59 0 97.5 20.5t61.5 61t36 99.5l99 464h89l-100 -471q-16 -78 -50.5 -135t-92.5 -87.5t-145 -30.5zM454 784q-48 0 -78 27.5t-30 77.5
t32 77t76 27q48 0 78.5 -27t30.5 -76q0 -51 -31 -78.5t-78 -27.5zM454 834q25 0 40.5 15t15.5 40q0 26 -15.5 40.5t-40.5 14.5q-23 0 -39 -14.5t-16 -40.5q0 -25 14.5 -40t40.5 -15z" />
    <glyph glyph-name="uring" unicode="&#x16f;" horiz-adv-x="579" 
d="M189 -10q-40 0 -70.5 15t-47 45t-16.5 73q0 23 3.5 43.5l7.5 42.5l70 327h89l-72 -337q-4 -22 -6.5 -38t-2.5 -29q0 -32 16.5 -50.5t53.5 -18.5q34 0 73.5 24t73.5 77t53 141l49 231h87l-114 -536h-72l11 99h-5q-19 -24 -44.5 -49.5t-59 -42.5t-77.5 -17zM367 606
q-48 0 -78 27.5t-30 77.5t32 77t76 27q48 0 78.5 -27t30.5 -76q0 -51 -31 -78.5t-78 -27.5zM367 656q25 0 40.5 15t15.5 40q0 26 -15.5 40.5t-40.5 14.5q-23 0 -39 -14.5t-16 -40.5q0 -25 14.5 -40t40.5 -15z" />
    <glyph glyph-name="Uhungarumlaut" unicode="&#x170;" horiz-adv-x="677" 
d="M300 -10q-74 0 -123.5 23t-73.5 67t-24 108q0 17 3 42t9 53l92 431h89l-93 -436q-5 -23 -8 -48t-3 -41q0 -56 34.5 -88t102.5 -32q59 0 97.5 20.5t61.5 61t36 99.5l99 464h89l-100 -471q-16 -78 -50.5 -135t-92.5 -87.5t-145 -30.5zM498 784v13q18 19 38.5 45l40 53
t33.5 49h90v-10q-10 -13 -28.5 -33l-40.5 -42t-45 -41.5t-42 -33.5h-46zM329 784v13q18 19 38.5 45l40 53t33.5 49h90v-10q-10 -13 -28.5 -33l-40.5 -42t-45 -41.5t-42 -33.5h-46z" />
    <glyph glyph-name="uhungarumlaut" unicode="&#x171;" horiz-adv-x="579" 
d="M189 -10q-40 0 -70.5 15t-47 45t-16.5 73q0 23 3.5 43.5l7.5 42.5l70 327h89l-72 -337q-4 -22 -6.5 -38t-2.5 -29q0 -32 16.5 -50.5t53.5 -18.5q34 0 73.5 24t73.5 77t53 141l49 231h87l-114 -536h-72l11 99h-5q-19 -24 -44.5 -49.5t-59 -42.5t-77.5 -17zM411 606v13
q18 19 38.5 45l40 53t33.5 49h90v-10q-10 -13 -28.5 -33l-40.5 -42t-45 -41.5t-42 -33.5h-46zM242 606v13q18 19 38.5 45l40 53t33.5 49h90v-10q-10 -13 -28.5 -33l-40.5 -42t-45 -41.5t-42 -33.5h-46z" />
    <glyph glyph-name="Uogonek" unicode="&#x172;" horiz-adv-x="677" 
d="M300 -10q-74 0 -123.5 23t-73.5 67t-24 108q0 17 3 42t9 53l92 431h89l-93 -436q-5 -23 -8 -48t-3 -41q0 -56 34.5 -88t102.5 -32q59 0 97.5 20.5t61.5 61t36 99.5l99 464h89l-100 -471q-16 -78 -50.5 -135t-92.5 -87.5t-145 -30.5zM290 -217q-38 0 -63.5 19.5
t-25.5 60.5q0 31 13.5 55t37 44t53.5 38h61q-19 -15 -41 -34.5t-37 -42t-15 -49.5q0 -17 9 -25t24 -8q11 0 21 1.5t19 2.5v-55q-13 -4 -27.5 -5.5t-28.5 -1.5z" />
    <glyph glyph-name="uogonek" unicode="&#x173;" horiz-adv-x="579" 
d="M189 -10q-40 0 -70.5 15t-47 45t-16.5 73q0 23 3.5 43.5l7.5 42.5l70 327h89l-72 -337q-4 -22 -6.5 -38t-2.5 -29q0 -32 16.5 -50.5t53.5 -18.5q34 0 73.5 24t73.5 77t53 141l49 231h87l-114 -536h-72l11 99h-5q-19 -24 -44.5 -49.5t-59 -42.5t-77.5 -17zM351 -217
q-38 0 -63.5 19.5t-25.5 60.5q0 31 13.5 55t37 44t53.5 38h61q-19 -15 -41 -34.5t-37 -42t-15 -49.5q0 -17 9 -25t24 -8q11 0 21 1.5t19 2.5v-55q-13 -4 -27.5 -5.5t-28.5 -1.5z" />
    <glyph glyph-name="Wcircumflex" unicode="&#x174;" horiz-adv-x="856" 
d="M137 0l-30 714h88l14 -435q2 -41 0 -85l-4 -84h3q14 39 34 89.5t41 94.5l196 420h91l20 -418q2 -31 3 -65t1.5 -65t-0.5 -56h3l19 54.5t21.5 58l23.5 59.5l187 432h95l-324 -714h-91l-22 460q-1 22 -2 46.5t-1.5 48.5t-0.5 44h-3q-10 -30 -23 -61t-36 -81l-211 -457h-92z
M374 784v13l45 42t54.5 54.5t40.5 50.5h85q10 -26 25 -52.5t31 -50.5t28 -44v-13h-55q-12 11 -25 25t-26.5 31l-27.5 35q-30 -27 -60.5 -50.5t-56.5 -40.5h-58z" />
    <glyph glyph-name="wcircumflex" unicode="&#x175;" horiz-adv-x="723" 
d="M79 0l-22 536h86l8 -286q2 -55 0 -99.5t-4 -73.5h4l19 49.5t23.5 57l22.5 49.5l141 303h95l17 -287q1 -37 2 -85.5t-1 -86.5h4l20.5 57.5t26 67l30.5 71.5l117 263h93l-248 -536h-106l-15 290q-1 27 -1.5 51.5t0 51.5t0.5 58h-4l-17.5 -46t-19.5 -46.5l-27 -58.5
l-140 -300h-104zM260 606v13l45 42t54.5 54.5t40.5 50.5h85q10 -26 25 -52.5t31 -50.5t28 -44v-13h-55q-12 11 -25 25t-26.5 31l-27.5 35q-30 -27 -60.5 -50.5t-56.5 -40.5h-58z" />
    <glyph glyph-name="Ycircumflex" unicode="&#x176;" horiz-adv-x="509" 
d="M150 0l58 268l-116 446h89l85 -358l234 358h101l-306 -449l-55 -265h-90zM201 784v13l45 42t54.5 54.5t40.5 50.5h85q10 -26 25 -52.5t31 -50.5t28 -44v-13h-55q-12 11 -25 25t-26.5 31l-27.5 35q-30 -27 -60.5 -50.5t-56.5 -40.5h-58z" />
    <glyph glyph-name="ycircumflex" unicode="&#x177;" horiz-adv-x="467" 
d="M-25 -240q-24 0 -39.5 3t-29.5 7v71q14 -4 30 -6.5t34 -2.5q41 0 69.5 25t54.5 73l35 62l-81 544h88l35 -265q5 -32 7.5 -70.5t4 -73t1.5 -55.5h3l20.5 48t29.5 66t28 56l156 294h94l-340 -626q-27 -50 -55 -83.5t-63 -50t-82 -16.5zM123 606v13l45 42t54.5 54.5
t40.5 50.5h85q10 -26 25 -52.5t31 -50.5t28 -44v-13h-55q-12 11 -25 25t-26.5 31l-27.5 35q-30 -27 -60.5 -50.5t-56.5 -40.5h-58z" />
    <glyph glyph-name="Ydieresis" unicode="&#x178;" horiz-adv-x="509" 
d="M150 0l58 268l-116 446h89l85 -358l234 358h101l-306 -449l-55 -265h-90zM461 809q-18 0 -30 11t-12 31q0 23 14 40t39 17q20 0 30 -11t10 -29q0 -28 -16 -43.5t-35 -15.5zM282 809q-19 0 -31 11t-12 31q0 23 14 40t39 17q14 0 23 -5t13 -14t4 -21q0 -28 -15.5 -43.5
t-34.5 -15.5z" />
    <glyph glyph-name="Zacute" unicode="&#x179;" horiz-adv-x="531" 
d="M-10 0l14 70l445 564h-315l17 80h422l-13 -71l-445 -563h335l-16 -80h-444zM323 784v13q18 19 38.5 45l40 53t33.5 49h100v-10q-10 -13 -28.5 -33t-41 -42t-45.5 -41.5t-42 -33.5h-55z" />
    <glyph glyph-name="zacute" unicode="&#x17a;" horiz-adv-x="445" 
d="M-15 0l12 60l333 410h-230l14 66h325l-14 -71l-327 -399h255l-13 -66h-355zM242 606v13q18 19 38.5 45l40 53t33.5 49h100v-10q-10 -13 -28.5 -33t-41 -42t-45.5 -41.5t-42 -33.5h-55z" />
    <glyph glyph-name="Zdotaccent" unicode="&#x17b;" horiz-adv-x="531" 
d="M-10 0l14 70l445 564h-315l17 80h422l-13 -71l-445 -563h335l-16 -80h-444zM383 803q-20 0 -34 12.5t-14 34.5q0 26 15.5 45t43.5 19q16 0 26 -5.5t15 -15.5t5 -24q0 -31 -18 -48.5t-39 -17.5z" />
    <glyph glyph-name="zdotaccent" unicode="&#x17c;" horiz-adv-x="445" 
d="M-15 0l12 60l333 410h-230l14 66h325l-14 -71l-327 -399h255l-13 -66h-355zM302 625q-20 0 -34 12.5t-14 34.5q0 26 15.5 45t43.5 19q16 0 26 -5.5t15 -15.5t5 -24q0 -31 -18 -48.5t-39 -17.5z" />
    <glyph glyph-name="Zcaron" unicode="&#x17d;" horiz-adv-x="531" 
d="M-10 0l14 70l445 564h-315l17 80h422l-13 -71l-445 -563h335l-16 -80h-444zM329 784q-9 26 -23.5 52.5t-30 51l-28.5 43.5v13h53q13 -10 26.5 -24.5t26.5 -31.5l26 -35q31 27 62 50.5t58 40.5h57v-13l-45 -41.5t-54.5 -54.5t-41.5 -51h-86z" />
    <glyph glyph-name="zcaron" unicode="&#x17e;" horiz-adv-x="445" 
d="M-15 0l12 60l333 410h-230l14 66h325l-14 -71l-327 -399h255l-13 -66h-355zM248 606q-9 26 -23.5 52.5t-30 51l-28.5 43.5v13h53q13 -10 26.5 -24.5t26.5 -31.5l26 -35q31 27 62 50.5t58 40.5h57v-13l-45 -41.5t-54.5 -54.5t-41.5 -51h-86z" />
    <glyph glyph-name="longs" unicode="&#x17f;" horiz-adv-x="283" 
d="M-64 -240q-19 0 -34.5 3t-27.5 7v74q13 -4 26 -7.5t29 -3.5q31 0 53.5 28t33.5 86l135 640q15 69 38.5 107.5t59 54.5t84.5 16q26 0 52.5 -5.5t42.5 -13.5l-23 -67q-14 5 -31 9.5t-35 4.5q-26 0 -45 -9t-32 -32t-22 -65l-137 -650q-12 -55 -32.5 -95t-53.5 -61t-81 -21z
" />
    <glyph glyph-name="florin" unicode="&#x192;" horiz-adv-x="410" 
d="M97 -9q-37 0 -67 15.5t-47 43.5t-17 66q0 17 3 30.5t7 23.5l72 -23q-2 -7 -3 -13t-1 -14q0 -16 6.5 -29t17.5 -20t26 -7q32 0 49.5 28t27.5 77l63 300h-93l7 37l100 33l11 48q12 51 28 85.5t37.5 55t50.5 29t66 8.5q25 0 51.5 -5.5t42.5 -13.5l-23 -67q-14 5 -30.5 9.5
t-36.5 4.5q-39 0 -61 -22t-37 -84l-12 -51h115l-13 -67h-115l-63 -301q-17 -83 -53.5 -130t-108.5 -47z" />
    <glyph glyph-name="Aringacute" unicode="&#x1fa;" horiz-adv-x="562" 
d="M-57 0l341 631q-10 13 -15.5 30t-5.5 38q0 50 32 77.5t76 27.5q48 0 79 -27.5t31 -76.5q0 -29 -12 -51.5t-32 -36.5l76 -612h-87l-26 222h-242l-117 -222h-98zM201 302h189l-16 141q-4 38 -7.5 75t-5.5 69h-13l-33.5 -68.5t-38.5 -75.5zM371 644q25 0 40.5 15t15.5 40
q0 26 -15.5 41t-40.5 15q-23 0 -39 -15t-16 -41q0 -25 14.5 -40t40.5 -15zM337 829v10q18 16 37.5 36.5l38.5 42.5l34 40h110v-9q-13 -13 -41 -35.5t-59.5 -45.5t-57.5 -39h-62z" />
    <glyph glyph-name="aringacute" unicode="&#x1fb;" horiz-adv-x="568" 
d="M193 -10q-43 0 -75.5 20.5t-51 61.5t-18.5 101t12.5 115.5t35.5 102.5t55.5 81.5t73 54t86.5 19.5q35 0 61.5 -13t44.5 -34t29 -46h5l32 83h67l-114 -536h-70l13 99h-4q-23 -29 -51 -54t-60.5 -40t-70.5 -15zM222 63q37 0 72.5 27t64 73t44.5 103q8 29 10.5 53.5
t2.5 45.5q0 47 -26 77t-70 30q-31 0 -58.5 -16t-50.5 -44.5t-39 -66.5t-25 -82.5t-9 -91.5q0 -54 22 -81t62 -27zM354 585q-49 0 -79 27.5t-30 76.5q0 50 32 77.5t77 27.5q47 0 77.5 -27t30.5 -77t-30.5 -77.5t-77.5 -27.5zM354 634q23 0 39 15t16 40q0 26 -16 40.5
t-39 14.5q-25 0 -40 -14.5t-15 -40.5q0 -25 13.5 -40t41.5 -15zM323 830v9q18 16 38 37l39 42.5t33 39.5h110v-9q-13 -13 -41 -35.5t-59.5 -45t-58.5 -38.5h-61z" />
    <glyph glyph-name="AEacute" unicode="&#x1fc;" horiz-adv-x="824" 
d="M-58 0l457 714h465l-16 -79h-274l-48 -223h256l-15 -78h-256l-54 -255h273l-17 -79h-363l47 222h-214l-139 -222h-102zM234 302h179l71 333h-41zM469 784v13q18 19 38.5 45l40 53t33.5 49h100v-10q-10 -13 -28.5 -33t-41 -42t-45.5 -41.5t-42 -33.5h-55z" />
    <glyph glyph-name="aeacute" unicode="&#x1fd;" horiz-adv-x="820" 
d="M177 -10q-38 0 -67.5 21t-45.5 61.5t-16 99.5q0 61 12.5 116.5t35.5 102.5t54.5 81.5t70.5 54t82 19.5q32 0 55.5 -13t40 -34t26.5 -46h5l33 83h56l-14 -69q26 35 66 57t94 22q53 0 93 -30.5t40 -94.5q0 -39 -18 -73.5t-55.5 -60.5t-96.5 -40.5t-142 -14.5h-20
q-1 -9 -1.5 -19t-0.5 -18q0 -61 30 -96.5t93 -35.5q37 0 71.5 12t73.5 29v-77q-40 -18 -78.5 -27.5t-82.5 -9.5q-52 0 -92 19t-60 57l-14 -66h-59l12 99h-4q-27 -33 -53.5 -57.5t-56.5 -38t-67 -13.5zM206 63q27 0 53.5 15.5t50 43t42.5 65t31 80.5q8 28 10.5 52.5t2.5 45.5
q0 47 -21.5 77t-59.5 30q-30 0 -56.5 -16t-48.5 -44t-38 -66t-25 -82.5t-9 -91.5q0 -55 18 -82t50 -27zM479 303h9q60 0 111 10.5t81.5 34.5t30.5 64q0 32 -18.5 46.5t-44.5 14.5q-36 0 -69 -20t-58.5 -58t-41.5 -92zM429 606v13q18 19 38.5 45l40 53t33.5 49h100v-10
q-10 -13 -28.5 -33t-41 -42t-45.5 -41.5t-42 -33.5h-55z" />
    <glyph glyph-name="Oslashacute" unicode="&#x1fe;" horiz-adv-x="721" 
d="M114 -41l-57 46l66 82q-26 35 -38.5 81t-12.5 99q0 62 11 119.5t32.5 108.5t52.5 93t71.5 73t89 47.5t104.5 16.5q48 0 87 -13t73 -39l63 79l58 -46l-72 -88q23 -31 35.5 -76.5t12.5 -97.5q0 -62 -10 -119.5t-30 -108t-50 -92t-69 -71.5t-87.5 -46.5t-106.5 -16.5
q-49 0 -88.5 11.5t-72.5 34.5zM340 69q40 0 74.5 14t63 39t50.5 59.5t37 77t23 90t8 97.5q0 27 -4 51t-11 43l-352 -437q20 -16 48.5 -25t62.5 -9zM185 164l353 442q-21 20 -48.5 30.5t-62.5 10.5q-40 0 -75 -13.5t-64 -38.5t-51.5 -59t-38.5 -76.5t-24 -90.5t-8 -100
q0 -30 5 -57t14 -48zM425 771v13q18 19 38.5 45l40 53t33.5 49h100v-10q-10 -13 -28.5 -33t-41 -42t-45.5 -41.5t-42 -33.5h-55z" />
    <glyph glyph-name="oslashacute" unicode="&#x1ff;" horiz-adv-x="563" 
d="M82 -38l-53 41l54 67q-17 26 -25.5 57.5t-8.5 70.5q0 49 11 98.5t32 93.5t53.5 78.5t75 54.5t95.5 20q38 0 68 -8t54 -24l49 61l53 -40l-56 -62q16 -24 23 -58t7 -68q0 -49 -10.5 -99t-31.5 -95.5t-53 -81t-74.5 -56t-95.5 -20.5q-34 0 -64.5 8t-54.5 23zM253 63
q29 0 55 12t48 35.5t38.5 56.5t25.5 75.5t9 92.5q0 17 -1.5 31t-4.5 22l-244 -304q14 -10 33 -15.5t41 -5.5zM142 143l246 306q-11 9 -28 15.5t-43 6.5q-33 0 -61.5 -14t-51 -39.5t-38 -59t-24 -73t-8.5 -81.5q0 -20 2 -36t6 -25zM318 606v13q18 19 38.5 45l40 53t33.5 49
h100v-10q-10 -13 -28.5 -33t-41 -42t-45.5 -41.5t-42 -33.5h-55z" />
    <glyph glyph-name="uni0218" unicode="&#x218;" horiz-adv-x="505" 
d="M185 -10q-52 0 -91.5 8t-74.5 24v88q30 -16 71.5 -29t95.5 -13q34 0 64 7.5t53 24t36.5 41.5t13.5 59q0 27 -11.5 48t-37.5 41.5t-69 44.5q-38 23 -67.5 47.5t-46 57t-16.5 78.5q0 50 18.5 88t51 65t75 40.5t90.5 13.5q56 0 98.5 -11t80.5 -31l-34 -76q-26 14 -65 26.5
t-80 12.5q-31 0 -56.5 -8t-44 -24t-29 -38.5t-10.5 -51.5q0 -30 11 -50.5t34 -37t57 -37.5q43 -26 75.5 -51t51 -58t18.5 -82q0 -54 -18.5 -94.5t-53 -67.5t-83 -41t-107.5 -14zM89 -221v13q10 17 24 43t27 54.5t20 49.5h83v-10q-6 -16 -23 -43t-39 -56t-44 -51h-48z" />
    <glyph glyph-name="uni0219" unicode="&#x219;" horiz-adv-x="432" 
d="M155 -10q-49 0 -85.5 9.5t-64.5 24.5v81q26 -16 65.5 -29.5t81.5 -13.5q40 0 66.5 10.5t40.5 29.5t14 44q0 20 -8 34.5t-27.5 29t-54.5 33.5q-38 22 -63.5 43.5t-38.5 47.5t-13 60q0 46 22.5 80t63.5 53t96 19q49 0 90.5 -11.5t71.5 -25.5l-28 -70q-26 12 -58 22.5
t-76 10.5q-43 0 -68.5 -20.5t-25.5 -52.5q0 -17 7 -31t26.5 -28.5t54.5 -34.5q34 -20 61 -40t42.5 -46t15.5 -64q0 -54 -25.5 -91t-72.5 -55.5t-110 -18.5zM52 -221v13q10 17 24 43t27 54.5t20 49.5h83v-10q-6 -16 -23 -43t-39 -56t-44 -51h-48z" />
    <glyph glyph-name="circumflex" unicode="&#x2c6;" horiz-adv-x="392" 
d="M115 606v13l45 42t54.5 54.5t40.5 50.5h85q10 -26 25 -52.5t31 -50.5t28 -44v-13h-55q-12 11 -25 25t-26.5 31l-27.5 35q-30 -27 -60.5 -50.5t-56.5 -40.5h-58z" />
    <glyph glyph-name="caron" unicode="&#x2c7;" horiz-adv-x="392" 
d="M228 606q-9 26 -23.5 52.5t-30 51l-28.5 43.5v13h53q13 -10 26.5 -24.5t26.5 -31.5l26 -35q31 27 62 50.5t58 40.5h57v-13l-45 -41.5t-54.5 -54.5t-41.5 -51h-86z" />
    <glyph glyph-name="macron" unicode="&#x2c9;" horiz-adv-x="349" 
d="M112 606l15 71h269l-15 -71h-269z" />
    <glyph glyph-name="breve" unicode="&#x2d8;" horiz-adv-x="366" 
d="M263 606q-36 0 -64 13t-44 38t-16 61v10.5t1 11.5h52q0 -19 7.5 -33t25.5 -21t47 -7q46 0 69 16.5t30 44.5h55q-16 -72 -58 -103t-105 -31z" />
    <glyph glyph-name="dotaccent" unicode="&#x2d9;" horiz-adv-x="185" 
d="M176 625q-20 0 -34 12.5t-14 34.5q0 26 15.5 45t43.5 19q16 0 26 -5.5t15 -15.5t5 -24q0 -31 -18 -48.5t-39 -17.5z" />
    <glyph glyph-name="ring" unicode="&#x2da;" horiz-adv-x="303" 
d="M245 606q-48 0 -78 27.5t-30 77.5t32 77t76 27q48 0 78.5 -27t30.5 -76q0 -51 -31 -78.5t-78 -27.5zM245 656q25 0 40.5 15t15.5 40q0 26 -15.5 40.5t-40.5 14.5q-23 0 -39 -14.5t-16 -40.5q0 -25 14.5 -40t40.5 -15z" />
    <glyph glyph-name="ogonek" unicode="&#x2db;" horiz-adv-x="244" 
d="M46 -217q-38 0 -63.5 19.5t-25.5 60.5q0 31 13.5 55t37 44t53.5 38h61q-19 -15 -41 -34.5t-37 -42t-15 -49.5q0 -17 9 -25t24 -8q11 0 21 1.5t19 2.5v-55q-13 -4 -27.5 -5.5t-28.5 -1.5z" />
    <glyph glyph-name="tilde" unicode="&#x2dc;" horiz-adv-x="417" 
d="M112 606q9 42 25 70.5t38.5 43t51.5 14.5q22 0 41 -8.5t36.5 -19l32.5 -19t28 -8.5q22 0 34 13t24 43h53q-11 -41 -27.5 -70t-38.5 -43.5t-51 -14.5q-20 0 -38 8.5t-35 19t-33.5 19t-32.5 8.5q-21 0 -33 -14t-23 -42h-52z" />
    <glyph glyph-name="hungarumlaut" unicode="&#x2dd;" horiz-adv-x="422" 
d="M284 606v13q18 19 38.5 45l40 53t33.5 49h90v-10q-10 -13 -28.5 -33l-40.5 -42t-45 -41.5t-42 -33.5h-46zM115 606v13q18 19 38.5 45l40 53t33.5 49h90v-10q-10 -13 -28.5 -33l-40.5 -42t-45 -41.5t-42 -33.5h-46z" />
    <glyph glyph-name="tonos" unicode="&#x384;" horiz-adv-x="562" 
d="M301 606v14q10 18 21.5 42l23.5 49.5l23 50t18 44.5h94v-14q-6 -15 -20 -38t-32 -49.5l-37 -52.5t-36 -46h-55z" />
    <glyph glyph-name="dieresistonos" unicode="&#x385;" horiz-adv-x="452" 
d="M274 678v11l24.5 45.5l27 52.5t23.5 51h98v-10q-15 -21 -36.5 -47t-46 -52.5t-50.5 -50.5h-40zM192 631q-18 0 -30 11t-12 31q0 23 13.5 40t38.5 17q21 0 30.5 -11t9.5 -29q0 -28 -16 -43.5t-34 -15.5zM426 631q-18 0 -30 11t-12 31q0 23 13.5 40t38.5 17q20 0 30 -11
t10 -29q0 -28 -16 -43.5t-34 -15.5z" />
    <glyph glyph-name="Alphatonos" unicode="&#x386;" horiz-adv-x="562" 
d="M-57 0l388 714h94l88 -714h-88l-27 222h-241l-116 -222h-98zM200 302h189l-16 150q-4 38 -7.5 84t-4.5 81h-3q-16 -38 -37 -81.5l-44 -87.5zM44 514v14q10 18 21.5 42l23.5 49.5l23 50t18 44.5h94v-14q-6 -15 -20 -38t-32 -49.5l-37 -52.5t-36 -46h-55z" />
    <glyph glyph-name="anoteleia" unicode="&#x387;" horiz-adv-x="256" 
d="M152 415q-25 0 -38.5 13.5t-13.5 38.5q0 33 18.5 58t58.5 25q22 0 35.5 -13.5t13.5 -39.5q0 -31 -18 -56.5t-56 -25.5z" />
    <glyph glyph-name="Epsilontonos" unicode="&#x388;" horiz-adv-x="609" 
d="M136 0l151 714h362l-17 -79h-273l-47 -223h255l-15 -78h-256l-55 -255h274l-17 -79h-362zM48 514v14q10 18 21.5 42l23.5 49.5l23 50t18 44.5h94v-14q-6 -15 -20 -38t-32 -49.5l-37 -52.5t-36 -46h-55z" />
    <glyph glyph-name="Etatonos" unicode="&#x389;" horiz-adv-x="757" 
d="M119 0l151 714h89l-64 -302h314l64 302h88l-151 -714h-88l70 333h-314l-70 -333h-89zM38 514v14q10 18 21.5 42l23.5 49.5l23 50t18 44.5h94v-14q-6 -15 -20 -38t-32 -49.5l-37 -52.5t-36 -46h-55z" />
    <glyph glyph-name="Iotatonos" unicode="&#x38a;" horiz-adv-x="461" 
d="M117 0l10 49l85 20l122 576l-76 19l10 50h250l-10 -50l-86 -19l-122 -576l77 -20l-10 -49h-250zM38 514v14q10 18 21.5 42l23.5 49.5l23 50t18 44.5h94v-14q-6 -15 -20 -38t-32 -49.5l-37 -52.5t-36 -46h-55z" />
    <glyph glyph-name="Omicrontonos" unicode="&#x38c;" horiz-adv-x="776" 
d="M392 -10q-85 0 -144.5 33.5t-90 96t-30.5 147.5q0 62 11 119.5t32.5 108.5t52.5 93t71.5 73t89 47.5t104.5 16.5q122 0 189.5 -75t67.5 -206q0 -62 -10 -119.5t-30 -108t-50 -92t-69 -71.5t-87.5 -46.5t-106.5 -16.5zM395 69q40 0 74 14t62.5 39t50.5 59.5t37 77t23 90
t8 97.5q0 95 -45 147.5t-123 52.5q-40 0 -75 -13.5t-63.5 -38t-51.5 -59t-38.5 -76.5t-23.5 -90t-8 -100q0 -63 21 -107.5t59.5 -68.5t92.5 -24zM38 514v14q10 18 21.5 42l23.5 49.5l23 50t18 44.5h94v-14q-6 -15 -20 -38t-32 -49.5l-37 -52.5t-36 -46h-55z" />
    <glyph glyph-name="Upsilontonos" unicode="&#x38e;" horiz-adv-x="647" 
d="M288 0l58 268l-116 446h89l85 -358l234 358h101l-306 -449l-55 -265h-90zM22 514v14q10 18 21.5 42l23.5 49.5l23 50t18 44.5h94v-14q-6 -15 -20 -38t-32 -49.5l-37 -52.5t-36 -46h-55z" />
    <glyph glyph-name="Omegatonos" unicode="&#x38f;" horiz-adv-x="801" 
d="M48 514v14q10 18 21.5 42l23.5 49.5l23 50t18 44.5h94v-14q-6 -15 -20 -38t-32 -49.5l-37 -52.5t-36 -46h-55zM59 0l16 79h171q-25 25 -47.5 60.5t-36.5 84t-14 112.5q0 62 15 120t44.5 107t72 85t97.5 56.5t122 20.5q90 0 149 -36t87.5 -98.5t28.5 -140.5
q0 -63 -16 -118t-45 -101.5t-67 -84.5t-83 -67h177l-16 -79h-296l14 70q51 30 94 69t75 86t50 103.5t18 122.5q0 56 -18 100t-57 69.5t-102 25.5q-49 0 -88.5 -16.5t-69.5 -46t-50.5 -69t-30.5 -86t-10 -96.5q0 -93 27.5 -154t74.5 -108l-14 -70h-272z" />
    <glyph glyph-name="iotadieresistonos" unicode="&#x390;" horiz-adv-x="311" 
d="M174 -10q-52 0 -87.5 26t-35.5 91q0 15 3 33.5t7 39.5l75 356h88l-76 -359q-3 -13 -5.5 -29t-2.5 -30q0 -24 11 -40t40 -16q17 0 33 3.5t36 9.5v-67q-13 -6 -38 -12t-48 -6zM175 678v11l24.5 45.5l27 52.5t23.5 51h98v-10q-15 -21 -36.5 -47t-46 -52.5t-50.5 -50.5h-40z
M93 631q-18 0 -30 11t-12 31q0 23 13.5 40t38.5 17q21 0 30.5 -11t9.5 -29q0 -28 -16 -43.5t-34 -15.5zM327 631q-18 0 -30 11t-12 31q0 23 13.5 40t38.5 17q20 0 30 -11t10 -29q0 -28 -16 -43.5t-34 -15.5z" />
    <glyph glyph-name="Alpha" unicode="&#x391;" horiz-adv-x="562" 
d="M-57 0l388 714h94l88 -714h-88l-27 222h-241l-116 -222h-98zM200 302h189l-16 150q-4 38 -7.5 84t-4.5 81h-3q-16 -38 -37 -81.5l-44 -87.5z" />
    <glyph glyph-name="Beta" unicode="&#x392;" horiz-adv-x="600" 
d="M41 0l151 714h185q66 0 113.5 -17.5t73 -53.5t25.5 -93q0 -49 -20 -85.5t-56 -60t-85 -32.5v-5q49 -13 82 -49t33 -96q0 -73 -35.5 -122.5t-97 -74.5t-141.5 -25h-228zM146 76h126q57 0 96.5 17t60 50t20.5 79q0 48 -31 81t-105 33h-112zM217 410h117q45 0 81.5 14
t58.5 42.5t22 72.5q0 47 -30 72.5t-100 25.5h-101z" />
    <glyph glyph-name="Gamma" unicode="&#x393;" horiz-adv-x="478" 
d="M41 0l151 714h362l-16 -79h-274l-134 -635h-89z" />
    <glyph glyph-name="Epsilon" unicode="&#x395;" horiz-adv-x="514" 
d="M41 0l151 714h362l-17 -79h-273l-47 -223h255l-15 -78h-256l-55 -255h274l-17 -79h-362z" />
    <glyph glyph-name="Zeta" unicode="&#x396;" horiz-adv-x="531" 
d="M-10 0l14 70l445 564h-315l17 80h422l-13 -71l-445 -563h335l-16 -80h-444z" />
    <glyph glyph-name="Eta" unicode="&#x397;" horiz-adv-x="680" 
d="M42 0l151 714h89l-64 -302h314l64 302h88l-151 -714h-88l70 333h-314l-70 -333h-89z" />
    <glyph glyph-name="Theta" unicode="&#x398;" horiz-adv-x="722" 
d="M338 -10q-85 0 -144.5 33.5t-90.5 96t-31 148.5q0 62 11 119.5t32.5 108.5t53 93t71.5 72.5t89 47t105 16.5q121 0 189 -75.5t68 -206.5q0 -62 -10 -119.5t-30 -108.5t-50 -92t-69.5 -71t-87.5 -46t-106 -16zM340 69q41 0 75.5 14t63 39.5t50.5 60.5t37 77t22.5 89
t7.5 96q0 95 -45 148t-124 53q-40 0 -75 -13.5t-64 -38.5t-51.5 -59.5t-38 -76t-23.5 -89.5t-8 -99q0 -63 21 -108t59.5 -69t92.5 -24zM243 325l16 77h256l-16 -77h-256z" />
    <glyph glyph-name="Iota" unicode="&#x399;" horiz-adv-x="324" 
d="M-20 0l10 49l85 20l122 576l-76 19l10 50h250l-10 -50l-86 -19l-122 -576l77 -20l-10 -49h-250z" />
    <glyph glyph-name="Kappa" unicode="&#x39a;" horiz-adv-x="562" 
d="M41 0l151 714h89l-74 -347l62 66l274 281h108l-310 -314l169 -400h-98l-139 346l-83 -61l-60 -285h-89z" />
    <glyph glyph-name="Lambda" unicode="&#x39b;" horiz-adv-x="562" 
d="M-57 0l388 713h95l89 -713h-88l-53 452q-4 41 -7 85.5t-5 81.5q-16 -38 -36.5 -81t-46.5 -91l-238 -447h-98z" />
    <glyph glyph-name="Mu" unicode="&#x39c;" horiz-adv-x="841" 
d="M40 0l151 714h126l69 -583h4l317 583h137l-148 -714h-90l90 424l18.5 82l16 69t13.5 52h-2l-344 -627h-71l-76 626h-4q-2 -20 -7 -53.5t-11.5 -71t-13.5 -72.5l-91 -429h-84z" />
    <glyph glyph-name="Nu" unicode="&#x39d;" horiz-adv-x="707" 
d="M40 0l151 714h95l219 -590h3q3 24 8.5 57.5t12.5 70t14 69.5l84 393h85l-151 -714h-95l-221 592h-3q-2 -16 -5.5 -39.5t-8.5 -51l-10.5 -57t-11.5 -56.5l-82 -388h-84z" />
    <glyph glyph-name="Xi" unicode="&#x39e;" horiz-adv-x="517" 
d="M-14 0l16 79h437l-17 -79h-436zM118 334l16 78h314l-16 -78h-314zM139 635l17 79h398l-17 -79h-398z" />
    <glyph glyph-name="Omicron" unicode="&#x39f;" horiz-adv-x="721" 
d="M337 -10q-85 0 -144.5 33.5t-90 96t-30.5 147.5q0 62 11 119.5t32.5 108.5t52.5 93t71.5 73t89 47.5t104.5 16.5q122 0 189.5 -75t67.5 -206q0 -62 -10 -119.5t-30 -108t-50 -92t-69 -71.5t-87.5 -46.5t-106.5 -16.5zM340 69q40 0 74 14t62.5 39t50.5 59.5t37 77t23 90
t8 97.5q0 95 -45 147.5t-123 52.5q-40 0 -75 -13.5t-63.5 -38t-51.5 -59t-38.5 -76.5t-23.5 -90t-8 -100q0 -63 21 -107.5t59.5 -68.5t92.5 -24z" />
    <glyph glyph-name="Pi" unicode="&#x3a0;" horiz-adv-x="680" 
d="M41 0l151 714h493l-151 -714h-90l134 635h-314l-134 -635h-89z" />
    <glyph glyph-name="Rho" unicode="&#x3a1;" horiz-adv-x="567" 
d="M41 0l151 714h161q77 0 124 -23.5t68.5 -65t21.5 -97.5q0 -60 -20 -106.5t-60 -78.5t-98.5 -48t-135.5 -16h-64l-59 -279h-89zM205 354h62q64 0 111 18t72.5 56t25.5 97t-33.5 85.5t-101.5 26.5h-76z" />
    <glyph glyph-name="Sigma" unicode="&#x3a3;" horiz-adv-x="523" 
d="M-15 0l14 73l261 296l-134 274l14 71h423l-17 -79h-324l132 -273l-249 -283h352l-17 -79h-455z" />
    <glyph glyph-name="Tau" unicode="&#x3a4;" horiz-adv-x="501" 
d="M152 0l134 635h-196l17 79h482l-16 -79h-196l-135 -635h-90z" />
    <glyph glyph-name="Upsilon" unicode="&#x3a5;" horiz-adv-x="509" 
d="M150 0l58 268l-116 446h89l85 -358l234 358h101l-306 -449l-55 -265h-90z" />
    <glyph glyph-name="Phi" unicode="&#x3a6;" horiz-adv-x="751" 
d="M270 -10l24 110q-70 5 -119.5 32.5t-76 76t-26.5 116.5q0 63 19 118t59 97.5t104 67.5t154 28l18 88h91l-18 -88q69 -4 118.5 -30.5t76 -74t26.5 -115.5q0 -55 -17.5 -109.5t-56.5 -100t-103 -74.5t-158 -32l-24 -110h-91zM309 176l82 383q-60 0 -103.5 -18.5t-71 -50.5
t-40.5 -73t-13 -87q0 -47 17.5 -81t50 -52.5t78.5 -20.5zM401 176q60 3 103 22.5t70.5 51.5t41 73.5t13.5 87.5q0 44 -16.5 76.5t-49 51t-81.5 20.5z" />
    <glyph glyph-name="Chi" unicode="&#x3a7;" horiz-adv-x="527" 
d="M-52 0l291 378l-127 336h90l97 -273l212 273h98l-270 -340l135 -374h-94l-102 309l-232 -309h-98z" />
    <glyph glyph-name="Psi" unicode="&#x3a8;" horiz-adv-x="742" 
d="M273 0l46 218h-7q-81 0 -128.5 28.5t-67.5 73.5t-20 95q0 21 3 46.5t9 53.5l41 199h93l-44 -209q-6 -29 -8.5 -50t-2.5 -36q0 -42 15 -70t46 -41.5t78 -13.5h8l90 420h90l-89 -420h7q68 0 111 23t67.5 64.5t35.5 96.5l50 236h93l-51 -244q-11 -54 -33 -100t-58.5 -80
t-90.5 -53t-129 -19h-18l-46 -218h-90z" />
    <glyph glyph-name="Iotadieresis" unicode="&#x3aa;" horiz-adv-x="324" 
d="M-20 0l10 49l85 20l122 576l-76 19l10 50h250l-10 -50l-86 -19l-122 -576l77 -20l-10 -49h-250zM368 809q-18 0 -30 11t-12 31q0 23 14 40t39 17q20 0 30 -11t10 -29q0 -28 -16 -43.5t-35 -15.5zM189 809q-19 0 -31 11t-12 31q0 23 14 40t39 17q14 0 23 -5t13 -14t4 -21
q0 -28 -15.5 -43.5t-34.5 -15.5z" />
    <glyph glyph-name="Upsilondieresis" unicode="&#x3ab;" horiz-adv-x="509" 
d="M150 0l58 268l-116 446h89l85 -358l234 358h101l-306 -449l-55 -265h-90zM461 809q-18 0 -30 11t-12 31q0 23 14 40t39 17q20 0 30 -11t10 -29q0 -28 -16 -43.5t-35 -15.5zM282 809q-19 0 -31 11t-12 31q0 23 14 40t39 17q14 0 23 -5t13 -14t4 -21q0 -28 -15.5 -43.5
t-34.5 -15.5z" />
    <glyph glyph-name="alphatonos" unicode="&#x3ac;" horiz-adv-x="572" 
d="M193 -10q-64 0 -104.5 46t-40.5 137q0 61 12 116.5t35 102.5t55 81.5t71.5 53.5t85.5 19q57 0 89.5 -27t48.5 -65h5l13.5 27t16.5 30t19 25h72q-11 -21 -24.5 -58.5t-27 -82.5t-23.5 -89l-35 -157q-4 -16 -5.5 -29.5t-1.5 -22.5q0 -17 8.5 -26.5t22.5 -9.5q7 0 15.5 1.5
t16.5 4.5v-64q-8 -4 -26 -8.5t-35 -4.5q-29 0 -49 11t-30.5 33t-10.5 55h-3q-22 -27 -48 -49.5t-56 -36t-66 -13.5zM223 63q36 0 70.5 26.5t62 72t43.5 102.5q8 29 10.5 54.5t2.5 46.5q0 47 -25.5 77t-69.5 30q-31 0 -58.5 -16t-49.5 -44.5t-38 -66.5t-24.5 -82t-8.5 -91
q0 -55 22.5 -82t62.5 -27zM316 606v14q10 18 21.5 42l23.5 49.5l23 50t18 44.5h94v-14q-6 -15 -20 -38t-32 -49.5l-37 -52.5t-36 -46h-55z" />
    <glyph glyph-name="epsilontonos" unicode="&#x3ad;" horiz-adv-x="451" 
d="M208 -10q-89 0 -133.5 39t-44.5 99q0 48 19.5 79t53 49t74.5 25v3q-31 13 -53 39t-22 69q0 54 29 88t74.5 49.5t94.5 15.5q51 0 88.5 -9.5t69.5 -26.5l-32 -68q-21 12 -53 21.5t-69 9.5q-33 0 -60.5 -9t-43.5 -28t-16 -50q0 -30 23 -50t72 -20h61l-15 -74h-57
q-41 0 -75 -9.5t-54.5 -31t-20.5 -58.5q0 -34 24 -57.5t80 -23.5q47 0 88 14t75 30v-74q-27 -14 -72.5 -27.5t-104.5 -13.5zM270 606v14q10 18 21.5 42l23.5 49.5l23 50t18 44.5h94v-14q-6 -15 -20 -38t-32 -49.5l-37 -52.5t-36 -46h-55z" />
    <glyph glyph-name="etatonos" unicode="&#x3ae;" horiz-adv-x="579" 
d="M302 -240l123 576q5 23 7.5 39t2.5 30q0 31 -17 49t-54 18q-34 0 -73 -23.5t-73 -76.5t-53 -141l-49 -231h-88l114 536h72l-11 -99h5q19 25 44.5 50t59 42t76.5 17q41 0 71.5 -15t47 -44.5t16.5 -72.5q0 -23 -3.5 -46.5t-7.5 -41.5l-122 -566h-88zM319 606v14
q10 18 21.5 42l23.5 49.5l23 50t18 44.5h94v-14q-6 -15 -20 -38t-32 -49.5l-37 -52.5t-36 -46h-55z" />
    <glyph glyph-name="iotatonos" unicode="&#x3af;" horiz-adv-x="311" 
d="M174 -10q-52 0 -87.5 26t-35.5 91q0 15 3 33.5t7 39.5l75 356h88l-76 -359q-3 -13 -5.5 -29t-2.5 -30q0 -24 11 -40t40 -16q17 0 33 3.5t36 9.5v-67q-13 -6 -38 -12t-48 -6zM154 606v14q10 18 21.5 42l23.5 49.5l23 50t18 44.5h94v-14q-6 -15 -20 -38t-32 -49.5
l-37 -52.5t-36 -46h-55z" />
    <glyph glyph-name="upsilondieresistonos" unicode="&#x3b0;" horiz-adv-x="580" 
d="M249 -10q-89 0 -137 46.5t-48 129.5q0 20 3 42.5t12 64.5l55 263h88l-55 -260q-9 -42 -12 -64.5t-3 -40.5q0 -57 28 -83t75 -26q46 0 78.5 24.5t54 65.5t34 92t19 104.5t8.5 102.5t2 85h88q0 -71 -6 -147.5t-23.5 -147.5t-49.5 -127.5t-83.5 -90t-127.5 -33.5zM329 678
v11l24.5 45.5l27 52.5t23.5 51h98v-10q-15 -21 -36.5 -47t-46 -52.5t-50.5 -50.5h-40zM247 631q-18 0 -30 11t-12 31q0 23 13.5 40t38.5 17q21 0 30.5 -11t9.5 -29q0 -28 -16 -43.5t-34 -15.5zM481 631q-18 0 -30 11t-12 31q0 23 13.5 40t38.5 17q20 0 30 -11t10 -29
q0 -28 -16 -43.5t-34 -15.5z" />
    <glyph glyph-name="alpha" unicode="&#x3b1;" horiz-adv-x="572" 
d="M193 -10q-64 0 -104.5 46t-40.5 137q0 61 12 116.5t35 102.5t55 81.5t71.5 53.5t85.5 19q57 0 89.5 -27t48.5 -65h5l13.5 27t16.5 30t19 25h72q-11 -21 -24.5 -58.5t-27 -82.5t-23.5 -89l-35 -157q-4 -16 -5.5 -29.5t-1.5 -22.5q0 -17 8.5 -26.5t22.5 -9.5q7 0 15.5 1.5
t16.5 4.5v-64q-8 -4 -26 -8.5t-35 -4.5q-29 0 -49 11t-30.5 33t-10.5 55h-3q-22 -27 -48 -49.5t-56 -36t-66 -13.5zM223 63q36 0 70.5 26.5t62 72t43.5 102.5q8 29 10.5 54.5t2.5 46.5q0 47 -25.5 77t-69.5 30q-31 0 -58.5 -16t-49.5 -44.5t-38 -66.5t-24.5 -82t-8.5 -91
q0 -55 22.5 -82t62.5 -27z" />
    <glyph glyph-name="beta" unicode="&#x3b2;" horiz-adv-x="581" 
d="M-23 -240l165 775q14 63 40 115t74.5 83.5t128.5 31.5q57 0 97.5 -20t62 -58t21.5 -91t-19.5 -93.5t-57.5 -67t-95 -39.5q52 -11 88.5 -50.5t36.5 -114.5q0 -51 -16 -95t-46.5 -77t-75 -51t-102.5 -18t-93 17.5t-60 36.5l-61 -284h-88zM272 62q41 0 71 14t50 37t30 53
t10 61q0 60 -32 97t-110 37h-32l16 74h35q44 0 75.5 11.5t51.5 32.5t29.5 49.5t9.5 61.5q0 44 -24.5 73.5t-75.5 29.5q-47 0 -76 -22.5t-45 -59t-25 -79.5l-91 -428q24 -19 60 -30.5t73 -11.5z" />
    <glyph glyph-name="gamma" unicode="&#x3b3;" horiz-adv-x="464" 
d="M40 -240q8 41 21 82t30.5 82.5t38.5 81.5l-82 530h89l37 -285q3 -19 5 -40.5t3.5 -44t2.5 -45t1 -42.5h2q17 44 39.5 92t38.5 78l152 287h94l-284 -522q-22 -40 -40 -81.5t-32 -84.5t-24 -88h-92z" />
    <glyph glyph-name="delta" unicode="&#x3b4;" horiz-adv-x="556" 
d="M234 -10q-66 0 -110 26t-66.5 69.5t-22.5 95.5q0 75 31.5 130.5t88.5 93t133 57.5q-34 27 -60 63t-26 86q0 45 22 79.5t62.5 54.5t95.5 20q59 0 102.5 -18t71.5 -38l-35 -63q-26 16 -61.5 32t-78.5 16q-49 0 -72 -23t-23 -60q0 -25 10.5 -44t30 -36.5l45.5 -39.5
q35 -28 63 -60t44.5 -72.5t16.5 -93.5q0 -55 -16.5 -104.5t-50 -88t-82 -60.5t-113.5 -22zM243 63q39 0 69 15.5t51.5 43.5t32.5 64t11 78q0 59 -21 95.5t-48 59.5q-43 -10 -82 -29t-68 -46.5t-46 -65t-17 -85.5q0 -61 30 -95.5t88 -34.5z" />
    <glyph glyph-name="epsilon" unicode="&#x3b5;" horiz-adv-x="451" 
d="M208 -10q-89 0 -133.5 39t-44.5 99q0 48 19.5 79t53 49t74.5 25v3q-31 13 -53 39t-22 69q0 54 29 88t74.5 49.5t94.5 15.5q51 0 88.5 -9.5t69.5 -26.5l-32 -68q-21 12 -53 21.5t-69 9.5q-33 0 -60.5 -9t-43.5 -28t-16 -50q0 -30 23 -50t72 -20h61l-15 -74h-57
q-41 0 -75 -9.5t-54.5 -31t-20.5 -58.5q0 -34 24 -57.5t80 -23.5q47 0 88 14t75 30v-74q-27 -14 -72.5 -27.5t-104.5 -13.5z" />
    <glyph glyph-name="zeta" unicode="&#x3b6;" horiz-adv-x="454" 
d="M185 -202q31 27 51 48.5t30 41t10 39.5q0 19 -11 31t-31 22t-49 22q-48 20 -78 44t-44.5 58.5t-14.5 85.5q0 63 27 125t75.5 123.5t115 124.5t145.5 129q-23 -3 -54 -4.5t-71 -1.5h-102l16 74h328l-14 -67l-133.5 -118.5t-121.5 -122t-88 -124t-33 -125.5
q0 -35 9.5 -58.5t31 -40.5t58.5 -33q39 -16 66.5 -33t42.5 -40t15 -59q0 -29 -12 -54.5t-31 -47t-41 -39.5h-92z" />
    <glyph glyph-name="eta" unicode="&#x3b7;" horiz-adv-x="579" 
d="M302 -240l123 576q5 23 7.5 39t2.5 30q0 31 -17 49t-54 18q-34 0 -73 -23.5t-73 -76.5t-53 -141l-49 -231h-88l114 536h72l-11 -99h5q19 25 44.5 50t59 42t76.5 17q41 0 71.5 -15t47 -44.5t16.5 -72.5q0 -23 -3.5 -46.5t-7.5 -41.5l-122 -566h-88z" />
    <glyph glyph-name="theta" unicode="&#x3b8;" horiz-adv-x="547" 
d="M212 -10q-53 0 -89.5 23t-55.5 68.5t-19 114.5q0 29 2.5 60.5t7 64t11.5 63.5q20 90 46.5 161t62 120t81.5 74.5t106 25.5q49 0 85 -21t56.5 -68.5t20.5 -125.5q0 -24 -2.5 -54.5t-7.5 -64.5t-13 -72q-18 -84 -44.5 -152t-62 -116.5t-81.5 -74.5t-104 -26zM222 63
q34 0 62 18.5t50.5 54.5t41.5 90t36 125h-263q-8 -41 -11.5 -77.5t-3.5 -69.5q0 -73 21.5 -107t66.5 -34zM165 426h261q7 34 10.5 68.5t3.5 62.5q0 67 -21 101t-64 34q-34 0 -62 -18t-51 -52t-42 -83.5t-35 -112.5z" />
    <glyph glyph-name="iota" unicode="&#x3b9;" horiz-adv-x="311" 
d="M174 -10q-52 0 -87.5 26t-35.5 91q0 15 3 33.5t7 39.5l75 356h88l-76 -359q-3 -13 -5.5 -29t-2.5 -30q0 -24 11 -40t40 -16q17 0 33 3.5t36 9.5v-67q-13 -6 -38 -12t-48 -6z" />
    <glyph glyph-name="kappa" unicode="&#x3ba;" horiz-adv-x="495" 
d="M27 0l113 536h89l-30 -135q-7 -37 -17.5 -71l-16.5 -54h2l254 260h104l-230 -230l143 -306h-97l-113 251l-72 -57l-40 -194h-89z" />
    <glyph glyph-name="lambda" unicode="&#x3bb;" horiz-adv-x="491" 
d="M389 -10q-28 0 -47.5 9.5t-30.5 32t-16 61.5l-20 189q-4 32 -6.5 72.5t-2.5 77.5l-13.5 -33.5t-14 -32l-15 -31t-15.5 -30.5l-171 -305h-93l304 525l-9 70q-5 44 -20 71t-53 27q-14 0 -26.5 -1.5t-23.5 -3.5l-11 70q14 3 32.5 5.5t36.5 2.5q51 0 81 -17t44.5 -50.5
t20.5 -85.5l57 -499q2 -16 6.5 -28t11.5 -18.5t18 -6.5q6 0 15.5 1.5t17.5 4.5v-66q-10 -4 -26.5 -7.5t-30.5 -3.5z" />
    <glyph glyph-name="nu" unicode="&#x3bd;" horiz-adv-x="495" 
d="M114 0l-66 536h88l35 -306q5 -40 8 -77.5t5 -75.5q64 59 108 129.5t74 153t51 176.5h87q-22 -109 -58.5 -202.5t-94.5 -175.5t-145 -158h-92z" />
    <glyph glyph-name="xi" unicode="&#x3be;" horiz-adv-x="447" 
d="M178 -202q30 26 50 47t30 40.5t10 40.5q0 29 -23.5 44.5t-70.5 33.5q-45 17 -74.5 40.5t-44.5 56.5t-15 78q0 54 23.5 98.5t70 76t113.5 46.5v3q-46 14 -75.5 44t-29.5 81q0 31 12.5 57t34.5 47.5t51.5 36.5t62.5 23q-25 -2 -47 -4t-54 -2h-28l16 74h303l-15 -68h-4
q-34 0 -69.5 -6t-67 -19t-56 -31.5t-39 -43.5t-14.5 -57q0 -49 34 -76t110 -27h46l-15 -68h-38q-59 0 -113 -18.5t-88 -57t-34 -98.5q0 -31 10 -52.5t33 -37.5t63 -31q30 -11 57.5 -27t45 -40.5t17.5 -61.5q0 -30 -12 -55.5t-31 -47t-40 -39.5h-95z" />
    <glyph glyph-name="omicron" unicode="&#x3bf;" horiz-adv-x="563" 
d="M248 -8q-62 0 -107 25t-69 71.5t-24 109.5q0 49 11 98.5t32.5 93.5t53.5 78.5t75 54.5t96 20q63 0 107.5 -25t68.5 -71.5t24 -110.5q0 -49 -11 -98t-32.5 -93.5t-53.5 -78.5t-75 -54t-96 -20zM253 65q29 0 54.5 12t47.5 35.5t37.5 58t24.5 78.5t9 97q0 30 -10.5 58.5
t-34.5 47t-64 18.5q-33 0 -61 -14t-50 -39.5t-37.5 -60t-23.5 -75.5t-8 -86q0 -62 30.5 -96t85.5 -34z" />
    <glyph glyph-name="pi" unicode="&#x3c0;" horiz-adv-x="610" 
d="M444 -10q-46 0 -70.5 24t-24.5 64q0 13 2.5 29.5t6.5 39.5l65 314h-187l-100 -461h-89l100 461h-109l7 36l96 39h489l-15 -75h-104l-66 -321q-3 -13 -4.5 -25.5t-1.5 -20.5q0 -15 8 -23.5t24 -8.5q12 0 23.5 2.5t19.5 5.5v-68q-14 -4 -32 -8t-38 -4z" />
    <glyph glyph-name="rho" unicode="&#x3c1;" horiz-adv-x="573" 
d="M-22 -240l117 555q13 60 39 112.5t74 85t126 32.5q62 0 104.5 -24.5t64.5 -71.5t22 -115q0 -45 -9.5 -93.5t-29.5 -93t-50 -80t-72 -56.5t-95 -21q-49 0 -83.5 17t-62.5 45q-6 -39 -12.5 -73.5t-15.5 -76.5l-30 -142h-87zM260 63q35 0 63 16t49.5 44t35.5 63t21 73.5
t7 75.5q0 63 -25.5 100t-81.5 37q-44 0 -73 -21.5t-47 -61t-30 -93.5l-39 -180q20 -21 50 -37t70 -16z" />
    <glyph glyph-name="uni03C2" unicode="&#x3c2;" horiz-adv-x="454" 
d="M185 -208q30 27 50 50t30.5 44t10.5 41q0 16 -7 27.5t-25 22t-53 23.5q-34 14 -67 37t-54.5 64t-21.5 106q0 48 11.5 96.5t34 92t56.5 77.5t78.5 53.5t100.5 19.5q38 0 70.5 -7t61.5 -19l-25 -73q-20 9 -47.5 17t-62.5 8q-38 0 -68 -16t-52.5 -42.5t-37.5 -60t-22.5 -69
t-7.5 -68.5q0 -44 12 -72t36.5 -45.5t61.5 -32.5q31 -12 57 -27.5t42 -39.5t16 -62q0 -29 -11.5 -54.5t-30.5 -47.5t-42 -43h-94z" />
    <glyph glyph-name="sigma" unicode="&#x3c3;" horiz-adv-x="584" 
d="M246 -8q-88 0 -143 51.5t-55 168.5q0 54 11.5 103t34.5 89.5t59 70t85.5 45.5t113.5 16h248l-14 -74h-131q17 -29 31.5 -67t14.5 -102q0 -38 -8.5 -79.5t-27 -81t-48.5 -71t-72.5 -50.5t-98.5 -19zM252 65q35 0 62 13t46.5 36.5t31.5 55t17.5 69t5.5 77.5q0 47 -10 84
t-24 62h-33q-58 0 -98.5 -19.5t-65.5 -54t-36 -79.5t-11 -95q0 -78 31 -113.5t84 -35.5z" />
    <glyph glyph-name="tau" unicode="&#x3c4;" horiz-adv-x="425" 
d="M248 -10q-54 0 -91 26t-37 91q0 17 4 42t9 49l56 263h-151l7 36l95 39h315l-16 -75h-162l-57 -265l-7.5 -43t-3.5 -36q0 -23 12.5 -39t40.5 -16q17 0 34 3.5t37 9.5v-67q-12 -6 -37.5 -12t-47.5 -6z" />
    <glyph glyph-name="upsilon" unicode="&#x3c5;" horiz-adv-x="580" 
d="M249 -10q-89 0 -137 46.5t-48 129.5q0 20 3 42.5t12 64.5l55 263h88l-55 -260q-9 -42 -12 -64.5t-3 -40.5q0 -57 28 -83t75 -26q46 0 78.5 24.5t54 65.5t34 92t19 104.5t8.5 102.5t2 85h88q0 -71 -6 -147.5t-23.5 -147.5t-49.5 -127.5t-83.5 -90t-127.5 -33.5z" />
    <glyph glyph-name="phi" unicode="&#x3c6;" horiz-adv-x="679" 
d="M181 -240l49 231q-51 7 -92.5 32t-65.5 70t-24 111q0 104 41.5 182.5t122.5 154.5l56 -52q-45 -43 -74.5 -86t-44 -89.5t-14.5 -100.5q0 -53 15.5 -84.5t41 -46.5t54.5 -19l65 308q17 80 57 127t118 47q72 0 108.5 -47.5t36.5 -133.5q0 -52 -10.5 -104t-33.5 -98.5
t-60 -83.5t-89.5 -60.5t-121.5 -28.5l-48 -229h-87zM333 63q48 5 83.5 25.5t60 52t39 69.5t21 77.5t6.5 75.5q0 61 -17.5 85t-44.5 24q-35 0 -54 -27.5t-30 -83.5z" />
    <glyph glyph-name="chi" unicode="&#x3c7;" horiz-adv-x="507" 
d="M-113 -240l298 409l-29 228q-4 38 -16.5 53.5t-35.5 15.5q-8 0 -16.5 -2.5t-16.5 -4.5l-16 65q14 6 32.5 10t35.5 4q57 0 81.5 -33.5t31.5 -91.5l19 -165l196 288h93l-269 -385l33 -242q6 -39 18.5 -58.5t43.5 -19.5q11 0 21 2t19 4v-66q-13 -4 -30 -7.5t-36 -3.5
q-41 0 -65 18t-35.5 49t-16.5 70l-22 177l-219 -314h-99z" />
    <glyph glyph-name="psi" unicode="&#x3c8;" horiz-adv-x="723" 
d="M209 -240l50 232q-99 10 -144.5 60.5t-45.5 129.5q0 24 3 48t9 54l53 252h88l-53 -255q-5 -25 -8 -47.5t-3 -41.5q0 -53 25.5 -87.5t90.5 -40.5l147 695h86l-147 -693q57 6 97 30.5t66.5 66t42 98t21.5 126t6 149.5h90q0 -93 -9.5 -174t-31.5 -146.5t-60.5 -114
t-97 -76.5t-140.5 -33l-49 -232h-86z" />
    <glyph glyph-name="omega" unicode="&#x3c9;" horiz-adv-x="738" 
d="M187 -10q-69 0 -104 50t-35 131q0 59 15 121t43.5 123.5t68.5 120.5h92q-35 -54 -65 -113.5t-47.5 -122t-17.5 -127.5q0 -62 20 -86t49 -24q40 0 66 34t39 97l32 149h86l-30 -137l-4 -23t-3 -22.5t-1 -18.5q0 -38 16 -58.5t45 -20.5q33 0 57.5 20.5t42.5 54.5t29 75.5
t16 85t5 81.5q0 44 -3 82t-10 74h87q8 -36 11.5 -76.5t3.5 -76.5q0 -43 -7 -95.5t-23.5 -105t-44.5 -96t-69.5 -70t-98.5 -26.5q-30 0 -53.5 11t-39 30.5t-23.5 45.5q-27 -43 -61 -65t-84 -22z" />
    <glyph glyph-name="iotadieresis" unicode="&#x3ca;" horiz-adv-x="311" 
d="M174 -10q-52 0 -87.5 26t-35.5 91q0 15 3 33.5t7 39.5l75 356h88l-76 -359q-3 -13 -5.5 -29t-2.5 -30q0 -24 11 -40t40 -16q17 0 33 3.5t36 9.5v-67q-13 -6 -38 -12t-48 -6zM297 631q-18 0 -30 11t-12 31q0 23 14 40t39 17q20 0 30 -11t10 -29q0 -28 -16 -43.5t-35 -15.5
zM118 631q-19 0 -31 11t-12 31q0 23 14 40t39 17q14 0 23 -5t13 -14t4 -21q0 -28 -15.5 -43.5t-34.5 -15.5z" />
    <glyph glyph-name="upsilondieresis" unicode="&#x3cb;" horiz-adv-x="580" 
d="M249 -10q-89 0 -137 46.5t-48 129.5q0 20 3 42.5t12 64.5l55 263h88l-55 -260q-9 -42 -12 -64.5t-3 -40.5q0 -57 28 -83t75 -26q46 0 78.5 24.5t54 65.5t34 92t19 104.5t8.5 102.5t2 85h88q0 -71 -6 -147.5t-23.5 -147.5t-49.5 -127.5t-83.5 -90t-127.5 -33.5zM451 631
q-18 0 -30 11t-12 31q0 23 14 40t39 17q20 0 30 -11t10 -29q0 -28 -16 -43.5t-35 -15.5zM272 631q-19 0 -31 11t-12 31q0 23 14 40t39 17q14 0 23 -5t13 -14t4 -21q0 -28 -15.5 -43.5t-34.5 -15.5z" />
    <glyph glyph-name="omicrontonos" unicode="&#x3cc;" horiz-adv-x="563" 
d="M248 -8q-62 0 -107 25t-69 71.5t-24 109.5q0 49 11 98.5t32.5 93.5t53.5 78.5t75 54.5t96 20q63 0 107.5 -25t68.5 -71.5t24 -110.5q0 -49 -11 -98t-32.5 -93.5t-53.5 -78.5t-75 -54t-96 -20zM253 65q29 0 54.5 12t47.5 35.5t37.5 58t24.5 78.5t9 97q0 30 -10.5 58.5
t-34.5 47t-64 18.5q-33 0 -61 -14t-50 -39.5t-37.5 -60t-23.5 -75.5t-8 -86q0 -62 30.5 -96t85.5 -34zM290 606v14q10 18 21.5 42l23.5 49.5l23 50t18 44.5h94v-14q-6 -15 -20 -38t-32 -49.5l-37 -52.5t-36 -46h-55z" />
    <glyph glyph-name="upsilontonos" unicode="&#x3cd;" horiz-adv-x="580" 
d="M249 -10q-89 0 -137 46.5t-48 129.5q0 20 3 42.5t12 64.5l55 263h88l-55 -260q-9 -42 -12 -64.5t-3 -40.5q0 -57 28 -83t75 -26q46 0 78.5 24.5t54 65.5t34 92t19 104.5t8.5 102.5t2 85h88q0 -71 -6 -147.5t-23.5 -147.5t-49.5 -127.5t-83.5 -90t-127.5 -33.5zM308 606
v14q10 18 21.5 42l23.5 49.5l23 50t18 44.5h94v-14q-6 -15 -20 -38t-32 -49.5l-37 -52.5t-36 -46h-55z" />
    <glyph glyph-name="omegatonos" unicode="&#x3ce;" horiz-adv-x="738" 
d="M187 -10q-69 0 -104 50t-35 131q0 59 15 121t43.5 123.5t68.5 120.5h92q-35 -54 -65 -113.5t-47.5 -122t-17.5 -127.5q0 -62 20 -86t49 -24q40 0 66 34t39 97l32 149h86l-30 -137l-4 -23t-3 -22.5t-1 -18.5q0 -38 16 -58.5t45 -20.5q33 0 57.5 20.5t42.5 54.5t29 75.5
t16 85t5 81.5q0 44 -3 82t-10 74h87q8 -36 11.5 -76.5t3.5 -76.5q0 -43 -7 -95.5t-23.5 -105t-44.5 -96t-69.5 -70t-98.5 -26.5q-30 0 -53.5 11t-39 30.5t-23.5 45.5q-27 -43 -61 -65t-84 -22zM390 606v14q10 18 21.5 42l23.5 49.5l23 50t18 44.5h94v-14q-6 -15 -20 -38
t-32 -49.5l-37 -52.5t-36 -46h-55z" />
    <glyph glyph-name="uni0401" unicode="&#x401;" horiz-adv-x="514" 
d="M41 0l151 714h362l-17 -79h-273l-47 -223h255l-15 -78h-256l-55 -255h274l-17 -79h-362zM481 809q-18 0 -30 11t-12 31q0 23 14 40t39 17q20 0 30 -11t10 -29q0 -28 -16 -43.5t-35 -15.5zM302 809q-19 0 -31 11t-12 31q0 23 14 40t39 17q14 0 23 -5t13 -14t4 -21
q0 -28 -15.5 -43.5t-34.5 -15.5z" />
    <glyph glyph-name="uni0402" unicode="&#x402;" horiz-adv-x="674" 
d="M399 -10q-21 0 -40 3.5t-30 7.5v78q12 -4 29 -7t34 -3q34 0 55 12t33.5 36t18.5 59l7 36q3 17 5 33.5t2 32.5q0 41 -24.5 61t-75.5 20h-134l-76 -359h-89l135 635h-159l17 79h445l-17 -79h-197l-42 -197h125q91 0 136 -38.5t45 -112.5q0 -18 -2 -42t-6 -44l-8 -37
q-12 -60 -35.5 -98.5t-61 -57t-90.5 -18.5z" />
    <glyph glyph-name="uni0403" unicode="&#x403;" horiz-adv-x="478" 
d="M41 0l151 714h362l-16 -79h-274l-134 -635h-89zM340 784v13q18 19 38.5 45l40 53t33.5 49h100v-10q-10 -13 -28.5 -33t-41 -42t-45.5 -41.5t-42 -33.5h-55z" />
    <glyph glyph-name="uni0404" unicode="&#x404;" horiz-adv-x="587" 
d="M326 -10q-84 0 -140.5 34t-85 95.5t-28.5 143.5q0 64 15 130t45.5 125t77 105.5t108.5 73.5t140 27q50 0 93.5 -10t80.5 -30l-36 -74q-27 14 -60.5 24.5t-77.5 10.5q-54 0 -98 -18.5t-77.5 -50.5t-57 -74t-37.5 -89h300l-16 -79h-301q-3 -16 -3.5 -34t-0.5 -36
q0 -62 20.5 -105.5t59.5 -66.5t95 -23q28 0 54.5 3.5t52.5 10.5t51 15v-78q-27 -10 -53.5 -16.5t-55.5 -10t-65 -3.5z" />
    <glyph glyph-name="uni0405" unicode="&#x405;" horiz-adv-x="505" 
d="M185 -10q-52 0 -91.5 8t-74.5 24v88q30 -16 71.5 -29t95.5 -13q34 0 64 7.5t53 24t36.5 41.5t13.5 59q0 27 -11.5 48t-37.5 41.5t-69 44.5q-38 23 -67.5 47.5t-46 57t-16.5 78.5q0 50 18.5 88t51 65t75 40.5t90.5 13.5q56 0 98.5 -11t80.5 -31l-34 -76q-26 14 -65 26.5
t-80 12.5q-31 0 -56.5 -8t-44 -24t-29 -38.5t-10.5 -51.5q0 -30 11 -50.5t34 -37t57 -37.5q43 -26 75.5 -51t51 -58t18.5 -82q0 -54 -18.5 -94.5t-53 -67.5t-83 -41t-107.5 -14z" />
    <glyph glyph-name="uni0406" unicode="&#x406;" horiz-adv-x="324" 
d="M-20 0l10 49l85 20l122 576l-76 19l10 50h250l-10 -50l-86 -19l-122 -576l77 -20l-10 -49h-250z" />
    <glyph glyph-name="uni0407" unicode="&#x407;" horiz-adv-x="324" 
d="M-20 0l10 49l85 20l122 576l-76 19l10 50h250l-10 -50l-86 -19l-122 -576l77 -20l-10 -49h-250zM368 809q-18 0 -30 11t-12 31q0 23 14 40t39 17q20 0 30 -11t10 -29q0 -28 -16 -43.5t-35 -15.5zM189 809q-19 0 -31 11t-12 31q0 23 14 40t39 17q14 0 23 -5t13 -14t4 -21
q0 -28 -15.5 -43.5t-34.5 -15.5z" />
    <glyph glyph-name="uni0408" unicode="&#x408;" horiz-adv-x="273" 
d="M-80 -190q-24 0 -44.5 3.5t-31.5 8.5l3 77q15 -4 33 -7t38 -3q30 0 55 12t43 38.5t27 69.5l150 705h89l-151 -715q-14 -67 -43.5 -109t-71.5 -61t-96 -19z" />
    <glyph glyph-name="uni0409" unicode="&#x409;" horiz-adv-x="895" 
d="M30 -11q-21 0 -36.5 3.5t-25.5 7.5v78q10 -4 23.5 -7t26.5 -3q30 0 52.5 12.5t43 45t41.5 92.5q16 46 34.5 106l37.5 127.5l37.5 135l34.5 127.5h333l-63 -302h51q84 0 131 -24t66.5 -63.5t19.5 -88.5q0 -61 -20.5 -105.5t-58 -73.5t-89.5 -43t-114 -14h-163l134 634
h-161l-29 -107.5l-33 -119l-33.5 -116t-31.5 -98.5q-22 -63 -48 -109t-63.5 -70.5t-96.5 -24.5zM497 76h72q44 0 77 9.5t55 29t33 48t11 65.5q0 59 -33 83t-92 24h-67z" />
    <glyph glyph-name="uni040A" unicode="&#x40a;" horiz-adv-x="905" 
d="M41 0l151 714h89l-64 -301h272l64 301h89l-64 -301h53q83 0 130 -24t66.5 -64t19.5 -89q0 -61 -20.5 -105.5t-58 -73.5t-89 -43t-113.5 -14h-164l70 334h-272l-70 -334h-89zM507 76h72q59 0 98 17t58.5 51t19.5 84q0 59 -33 82.5t-92 23.5h-67z" />
    <glyph glyph-name="uni040B" unicode="&#x40b;" horiz-adv-x="674" 
d="M114 0l135 635h-159l17 79h445l-17 -79h-197l-42 -197h131q90 0 132.5 -38.5t42.5 -115.5q0 -17 -3 -38t-8 -45l-42 -201h-90l45 205q5 20 7 38.5t2 34.5q0 42 -24.5 61.5t-76.5 19.5h-133l-76 -359h-89z" />
    <glyph glyph-name="uni040C" unicode="&#x40c;" horiz-adv-x="562" 
d="M41 0l151 714h89l-74 -347l337 347h108l-353 -357l223 -357h-102l-216 354l-74 -354h-89zM360 784v13q18 19 38.5 45l40 53t33.5 49h100v-10q-10 -13 -28.5 -33t-41 -42t-45.5 -41.5t-42 -33.5h-55z" />
    <glyph glyph-name="uni040E" unicode="&#x40e;" horiz-adv-x="574" 
d="M389 784q-56 0 -91 15.5t-51 42.5t-16 63q0 9 1.5 18.5t2.5 14.5h77q-1 -8 -2 -14.5t-1 -13.5q0 -28 19.5 -45.5t65.5 -17.5q47 0 77.5 18.5t40.5 72.5h84q-9 -47 -33 -81.5t-66.5 -53.5t-107.5 -19zM83 -10q-22 0 -45.5 4.5t-37.5 9.5v87q17 -8 38 -13.5t43 -5.5
q27 0 49.5 7.5t42.5 24t39.5 41.5t40.5 60l-150 509h90l86 -313l12 -45.5t11 -45t9 -44.5l28 58t31 57l195 333h101l-329 -536q-42 -69 -81 -110t-80.5 -59.5t-92.5 -18.5z" />
    <glyph glyph-name="uni040F" unicode="&#x40f;" horiz-adv-x="680" 
d="M205 -188l41 188h-205l151 714h90l-135 -635h315l134 635h89l-151 -714h-204l-39 -188h-86z" />
    <glyph glyph-name="uni0410" unicode="&#x410;" horiz-adv-x="562" 
d="M-57 0l388 714h94l88 -714h-88l-27 222h-241l-116 -222h-98zM200 302h189l-16 150q-4 38 -7.5 84t-4.5 81h-3q-16 -38 -37 -81.5l-44 -87.5z" />
    <glyph glyph-name="uni0411" unicode="&#x411;" horiz-adv-x="567" 
d="M42 0l151 714h361l-17 -79h-271l-47 -223h70q84 0 131 -24t66.5 -64t19.5 -89q0 -61 -20.5 -105t-58 -73t-89.5 -43t-114 -14h-182zM147 76h90q60 0 99 17t58.5 51t19.5 84q0 59 -33 83t-92 24h-86z" />
    <glyph glyph-name="uni0412" unicode="&#x412;" horiz-adv-x="600" 
d="M41 0l151 714h185q66 0 113.5 -17.5t73 -53.5t25.5 -93q0 -49 -20 -85.5t-56 -60t-85 -32.5v-5q49 -13 82 -49t33 -96q0 -73 -35.5 -122.5t-97 -74.5t-141.5 -25h-228zM146 76h126q57 0 96.5 17t60 50t20.5 79q0 48 -31 81t-105 33h-112zM217 410h117q45 0 81.5 14
t58.5 42.5t22 72.5q0 47 -30 72.5t-100 25.5h-101z" />
    <glyph glyph-name="uni0413" unicode="&#x413;" horiz-adv-x="478" 
d="M41 0l151 714h362l-16 -79h-274l-134 -635h-89z" />
    <glyph glyph-name="uni0414" unicode="&#x414;" horiz-adv-x="630" 
d="M-84 -187l56 267h51q45 62 91.5 141t89 165.5t76 170.5t51.5 157h291l-134 -634h91l-57 -267h-85l39 187h-437l-40 -187h-83zM124 80h273l118 553h-120q-17 -56 -47.5 -129.5t-68 -151t-78 -148.5t-77.5 -124z" />
    <glyph glyph-name="uni0415" unicode="&#x415;" horiz-adv-x="514" 
d="M41 0l151 714h362l-17 -79h-273l-47 -223h255l-15 -78h-256l-55 -255h274l-17 -79h-362z" />
    <glyph glyph-name="uni0416" unicode="&#x416;" horiz-adv-x="784" 
d="M-50 0l331 376l-174 338h96l172 -340l72 340h86l-72 -340l307 340h106l-325 -358l180 -356h-99l-173 356l-75 -356h-86l75 356l-313 -356h-108z" />
    <glyph glyph-name="uni0417" unicode="&#x417;" horiz-adv-x="538" 
d="M192 -10q-58 0 -105 9.5t-88 29.5v85q36 -21 89.5 -35.5t108.5 -14.5q50 0 85.5 12t58.5 33t34 48t11 57q0 62 -41 90t-116 28h-102l15 73h95q49 0 93.5 14.5t73.5 46.5t29 87q0 50 -30 73.5t-80 23.5q-45 0 -88.5 -16t-84.5 -42l-36 64q51 34 104.5 51t122.5 17
q58 0 99 -19.5t63 -55.5t22 -84q0 -50 -22.5 -90t-63.5 -67t-98 -39v-2q40 -6 71.5 -25.5t49.5 -52t18 -79.5q0 -45 -18 -85t-54 -70t-90 -47.5t-126 -17.5z" />
    <glyph glyph-name="uni0418" unicode="&#x418;" horiz-adv-x="702" 
d="M41 0l151 714h85l-84 -393q-6 -30 -15 -68l-16.5 -72t-12.5 -52h2l452 585h104l-151 -714h-84l84 397l16 71.5l15.5 71t13.5 55.5h-2l-454 -595h-104z" />
    <glyph glyph-name="uni0419" unicode="&#x419;" horiz-adv-x="702" 
d="M459 784q-56 0 -91 15.5t-51 42.5t-16 63q0 9 1.5 18.5t2.5 14.5h77q-1 -8 -2 -14.5t-1 -13.5q0 -28 19.5 -45.5t65.5 -17.5q47 0 77.5 18.5t40.5 72.5h84q-9 -47 -33 -81.5t-66.5 -53.5t-107.5 -19zM41 0l151 714h85l-84 -393q-6 -30 -15 -68l-16.5 -72t-12.5 -52h2
l452 585h104l-151 -714h-84l84 397l16 71.5l15.5 71t13.5 55.5h-2l-454 -595h-104z" />
    <glyph glyph-name="uni041A" unicode="&#x41a;" horiz-adv-x="562" 
d="M41 0l151 714h89l-74 -347l337 347h108l-353 -357l223 -357h-102l-216 354l-74 -354h-89z" />
    <glyph glyph-name="uni041B" unicode="&#x41b;" horiz-adv-x="649" 
d="M30 -11q-21 0 -36.5 3.5t-25.5 7.5v78q10 -4 23.5 -7t26.5 -3q30 0 52.5 12.5t43 45t41.5 92.5q16 46 34.5 106l37.5 127.5l37.5 135l34.5 127.5h355l-152 -714h-90l135 634h-182l-22.5 -85l-26 -94l-27 -95l-26.5 -89.5t-25 -77.5q-22 -63 -48 -109t-63.5 -70.5
t-96.5 -24.5z" />
    <glyph glyph-name="uni041C" unicode="&#x41c;" horiz-adv-x="841" 
d="M40 0l151 714h126l69 -583h4l317 583h137l-148 -714h-90l90 424l18.5 82l16 69t13.5 52h-2l-344 -627h-71l-76 626h-4q-2 -20 -7 -53.5t-11.5 -71t-13.5 -72.5l-91 -429h-84z" />
    <glyph glyph-name="uni041D" unicode="&#x41d;" horiz-adv-x="680" 
d="M42 0l151 714h89l-64 -302h314l64 302h88l-151 -714h-88l70 333h-314l-70 -333h-89z" />
    <glyph glyph-name="uni041E" unicode="&#x41e;" horiz-adv-x="721" 
d="M337 -10q-85 0 -144.5 33.5t-90 96t-30.5 147.5q0 62 11 119.5t32.5 108.5t52.5 93t71.5 73t89 47.5t104.5 16.5q122 0 189.5 -75t67.5 -206q0 -62 -10 -119.5t-30 -108t-50 -92t-69 -71.5t-87.5 -46.5t-106.5 -16.5zM340 69q40 0 74 14t62.5 39t50.5 59.5t37 77t23 90
t8 97.5q0 95 -45 147.5t-123 52.5q-40 0 -75 -13.5t-63.5 -38t-51.5 -59t-38.5 -76.5t-23.5 -90t-8 -100q0 -63 21 -107.5t59.5 -68.5t92.5 -24z" />
    <glyph glyph-name="uni041F" unicode="&#x41f;" horiz-adv-x="680" 
d="M41 0l151 714h493l-151 -714h-90l134 635h-314l-134 -635h-89z" />
    <glyph glyph-name="uni0420" unicode="&#x420;" horiz-adv-x="567" 
d="M41 0l151 714h161q77 0 124 -23.5t68.5 -65t21.5 -97.5q0 -60 -20 -106.5t-60 -78.5t-98.5 -48t-135.5 -16h-64l-59 -279h-89zM205 354h62q64 0 111 18t72.5 56t25.5 97t-33.5 85.5t-101.5 26.5h-76z" />
    <glyph glyph-name="uni0421" unicode="&#x421;" horiz-adv-x="587" 
d="M326 -10q-79 0 -136 33t-87.5 94.5t-30.5 145.5q0 64 15 130t45.5 125t77 105.5t108.5 73.5t140 27q51 0 94 -10t80 -30l-36 -74q-27 14 -60.5 24.5t-77.5 10.5q-60 0 -107 -22t-81.5 -60t-57.5 -86.5t-34 -103t-11 -108.5q0 -91 46.5 -143.5t128.5 -52.5q41 0 80.5 8
t77.5 21v-78q-39 -14 -78.5 -22t-95.5 -8z" />
    <glyph glyph-name="uni0422" unicode="&#x422;" horiz-adv-x="501" 
d="M152 0l134 635h-196l17 79h482l-16 -79h-196l-135 -635h-90z" />
    <glyph glyph-name="uni0423" unicode="&#x423;" horiz-adv-x="574" 
d="M83 -10q-22 0 -45.5 4.5t-37.5 9.5v87q17 -8 38 -13.5t43 -5.5q27 0 49.5 7.5t42.5 24t39.5 41.5t40.5 60l-150 509h90l86 -313l12 -45.5t11 -45t9 -44.5l28 58t31 57l195 333h101l-329 -536q-42 -69 -81 -110t-80.5 -59.5t-92.5 -18.5z" />
    <glyph glyph-name="uni0424" unicode="&#x424;" horiz-adv-x="751" 
d="M270 -10l24 110q-70 5 -119.5 32.5t-76 76t-26.5 116.5q0 63 19 118t59 97.5t104 67.5t154 28l18 88h91l-18 -88q69 -4 118.5 -30.5t76 -74t26.5 -115.5q0 -55 -17.5 -109.5t-56.5 -100t-103 -74.5t-158 -32l-24 -110h-91zM309 176l82 383q-60 0 -103.5 -18.5t-71 -50.5
t-40.5 -73t-13 -87q0 -47 17.5 -81t50 -52.5t78.5 -20.5zM401 176q60 3 103 22.5t70.5 51.5t41 73.5t13.5 87.5q0 44 -16.5 76.5t-49 51t-81.5 20.5z" />
    <glyph glyph-name="uni0425" unicode="&#x425;" horiz-adv-x="527" 
d="M-52 0l291 378l-127 336h90l97 -273l212 273h98l-270 -340l135 -374h-94l-102 309l-232 -309h-98z" />
    <glyph glyph-name="uni0426" unicode="&#x426;" horiz-adv-x="671" 
d="M477 -187l40 187h-477l151 714h90l-134 -634h300l134 634h90l-134 -634h83l-58 -267h-85z" />
    <glyph glyph-name="uni0427" unicode="&#x427;" horiz-adv-x="642" 
d="M406 0l62 291q-34 -15 -84 -29t-109 -14q-50 0 -85 16t-53 46.5t-18 74.5q0 21 3 39.5t8 40.5l53 249h89l-52 -247q-4 -20 -7 -36.5t-3 -27.5q0 -37 20 -56.5t68 -19.5q50 0 98.5 12.5t88.5 26.5l72 348h90l-151 -714h-90z" />
    <glyph glyph-name="uni0428" unicode="&#x428;" horiz-adv-x="959" 
d="M40 0l151 714h90l-135 -634h253l134 634h90l-134 -634h252l134 634h89l-151 -714h-773z" />
    <glyph glyph-name="uni0429" unicode="&#x429;" horiz-adv-x="965" 
d="M771 -187l39 187h-770l151 714h90l-135 -634h253l134 634h90l-134 -634h252l134 634h89l-134 -634h83l-57 -267h-85z" />
    <glyph glyph-name="uni042A" unicode="&#x42a;" horiz-adv-x="631" 
d="M115 0l134 635h-159l17 79h248l-64 -302h65q84 0 131 -24t66.5 -64t19.5 -89q0 -61 -20.5 -105t-58 -73t-89.5 -43t-114 -14h-176zM220 76h84q60 0 99 17t58.5 51t19.5 84q0 59 -33 83t-92 24h-81z" />
    <glyph glyph-name="uni042B" unicode="&#x42b;" horiz-adv-x="792" 
d="M41 0l151 714h89l-64 -302h64q84 0 131 -24t66.5 -64t19.5 -89q0 -61 -20.5 -105t-58 -73t-89.5 -43t-114 -14h-175zM146 76h83q44 0 77.5 9.5t55.5 29t33 48t11 65.5q0 59 -33 83t-92 24h-80zM557 0l151 714h89l-151 -714h-89z" />
    <glyph glyph-name="uni042C" unicode="&#x42c;" horiz-adv-x="557" 
d="M41 0l151 714h89l-64 -302h65q84 0 131 -24t66.5 -64t19.5 -89q0 -61 -20.5 -105t-58 -73t-89.5 -43t-114 -14h-176zM146 76h84q45 0 78 9.5t55 29t33 48t11 65.5q0 59 -33 83t-92 24h-81z" />
    <glyph glyph-name="uni042D" unicode="&#x42d;" horiz-adv-x="586" 
d="M179 -10q-49 0 -90 9.5t-80 29.5v86q27 -12 53.5 -22.5t56 -17t65.5 -6.5q77 0 131.5 32.5t88 92t47.5 140.5h-301l16 79h295q0 9 0.5 19t0.5 24q0 56 -18.5 98.5t-55.5 66.5t-93 24q-47 0 -84.5 -9.5t-72.5 -21.5l-23 74q37 14 85.5 25t103.5 11q78 0 134.5 -30.5
t87 -90t30.5 -147.5q0 -71 -12.5 -139t-40 -127t-71.5 -104t-107 -70.5t-146 -25.5z" />
    <glyph glyph-name="uni042E" unicode="&#x42e;" horiz-adv-x="982" 
d="M609 -10q-91 0 -147.5 38t-82 101t-25.5 138q0 17 1 33.5l2 32.5h-157l-70 -333h-89l151 714h89l-64 -302h153q15 67 45 124t73 99.5t98 66t122 23.5q113 0 177.5 -74t64.5 -207q0 -62 -9.5 -119.5t-29 -108.5t-48 -92t-66.5 -71t-85 -46.5t-103 -16.5zM613 69
q41 0 75 15t61 41.5t47 62t33.5 77.5t20 88t6.5 93q0 98 -43 149t-117 51q-38 0 -71 -13.5t-60.5 -38t-49 -59t-36.5 -76.5t-22.5 -90t-7.5 -100q0 -55 16.5 -100.5t52.5 -72.5t95 -27z" />
    <glyph glyph-name="uni042F" unicode="&#x42f;" horiz-adv-x="575" 
d="M-39 0l251 326q-40 22 -67 59t-27 101q0 62 21.5 105.5t59 70.5t86 39.5t102.5 12.5h191l-150 -714h-90l63 296h-108l-224 -296h-108zM346 372h71l57 265h-87q-37 0 -69.5 -7.5t-56.5 -24t-37.5 -44t-13.5 -68.5q0 -54 33 -87.5t103 -33.5z" />
    <glyph glyph-name="uni0430" unicode="&#x430;" horiz-adv-x="568" 
d="M193 -10q-43 0 -75.5 20.5t-51 61.5t-18.5 101t12.5 115.5t35.5 102.5t55.5 81.5t73 54t86.5 19.5q35 0 61.5 -13t44.5 -34t29 -46h5l32 83h67l-114 -536h-70l13 99h-4q-23 -29 -51 -54t-60.5 -40t-70.5 -15zM222 63q37 0 72.5 27t64 73t44.5 103q8 29 10.5 53.5
t2.5 45.5q0 47 -26 77t-70 30q-31 0 -58.5 -16t-50.5 -44.5t-39 -66.5t-25 -82.5t-9 -91.5q0 -54 22 -81t62 -27z" />
    <glyph glyph-name="uni0431" unicode="&#x431;" horiz-adv-x="545" 
d="M240 -10q-61 0 -103.5 25.5t-65 76t-22.5 124.5q0 45 8.5 103.5t27 120t48 117.5t72 97t99.5 58q18 6 52.5 13.5l75.5 16t78 14.5t59 9l10 -72q-28 -4 -72 -12t-88.5 -17.5t-75.5 -19.5q-42 -13 -76.5 -44.5t-60.5 -79t-43 -111.5l3 -1q27 32 73 61t105 29
q76 0 113.5 -47.5t37.5 -132.5q0 -49 -9 -96.5t-28.5 -89.5t-49.5 -74t-71.5 -50t-96.5 -18zM248 63q35 0 61.5 16t44.5 43t29.5 59.5t16.5 66t5 61.5q0 60 -21 88t-63 28q-37 0 -70.5 -18t-59.5 -42.5t-42 -46.5q-4 -27 -7.5 -54t-3.5 -51q0 -45 11 -78.5t35 -52.5t64 -19z
" />
    <glyph glyph-name="uni0432" unicode="&#x432;" horiz-adv-x="541" 
d="M259 -10q-73 0 -120 27.5t-69 77t-22 116.5q0 56 12 106.5t36 92t58.5 72t79 47t98.5 16.5q57 0 97.5 -15t61.5 -45.5t21 -75.5q0 -39 -17.5 -67t-47.5 -45t-70 -26v-2q44 -11 72 -36.5t28 -77.5q0 -37 -20.5 -75.5t-68.5 -64t-129 -25.5zM265 62q44 0 72 13t41.5 34.5
t13.5 46.5q0 26 -13.5 42.5t-42 25t-73.5 8.5h-126v-11.5v-12.5q0 -77 35 -111.5t93 -34.5zM147 303h109q44 0 82.5 9t62 30.5t23.5 57.5q0 30 -21 51t-70 21q-47 0 -84.5 -19.5t-63 -57.5t-38.5 -92z" />
    <glyph glyph-name="uni0433" unicode="&#x433;" horiz-adv-x="459" 
d="M198 -10q-46 0 -85.5 14t-63.5 44t-24 78q0 39 15.5 68t41.5 49.5t58 35t64 26.5q40 16 71 30.5t48.5 34t17.5 46.5q0 25 -16 40.5t-57 15.5q-39 0 -77 -10.5t-70 -24.5l-24 70q35 13 80 25.5t100 12.5q45 0 79.5 -12.5t54 -39.5t19.5 -72q0 -35 -14 -61.5t-38 -46
t-54 -34t-62 -26.5q-45 -17 -78.5 -32.5t-51.5 -35.5t-18 -52t23.5 -51t73.5 -19q27 0 53 5.5t51 15t49 20.5v-77q-35 -16 -75 -26.5t-91 -10.5z" />
    <glyph glyph-name="uni0434" unicode="&#x434;" horiz-adv-x="566" 
d="M225 -10q-58 0 -97.5 24.5t-59.5 68.5t-20 102q0 46 10 92.5t30.5 89t50.5 75.5t69.5 52t88.5 19q40 0 67 -11.5t44.5 -31t28.5 -42.5h3q1 8 1 15.5v12.5q0 123 -33 182t-101 59q-25 0 -53.5 -6t-51.5 -16l-22 65q24 12 63 21t75 9q74 0 120.5 -35.5t69 -104t22.5 -168.5
q0 -50 -8 -104.5t-24 -107.5t-40.5 -100t-58.5 -83t-77 -56.5t-97 -20.5zM234 64q30 0 55.5 14.5t47 40t38.5 59.5t29.5 73t20.5 81q-9 32 -25.5 57.5t-40 40.5t-54.5 15q-27 0 -52 -13t-46 -37t-37 -56t-24.5 -71t-8.5 -82q0 -52 22.5 -87t74.5 -35z" />
    <glyph glyph-name="uni0435" unicode="&#x435;" horiz-adv-x="499" 
d="M242 -10q-62 0 -105.5 24.5t-66 70t-22.5 107.5q0 64 18.5 126.5t53.5 114t84.5 82.5t111.5 31q76 0 114.5 -33t38.5 -92q0 -39 -18 -73.5t-56 -60.5t-97 -40.5t-142 -14.5h-17q-1 -9 -1.5 -19t-0.5 -18q0 -61 30 -96.5t91 -35.5q38 0 72 11t74 30v-75q-38 -17 -74.5 -28
t-87.5 -11zM152 303h7q60 0 111 10.5t82 35t31 65.5q0 26 -17.5 42.5t-54.5 16.5q-32 0 -63 -20t-56 -58t-40 -92z" />
    <glyph glyph-name="uni0436" unicode="&#x436;" horiz-adv-x="845" 
d="M44 -10q-14 0 -30.5 2t-29.5 6l13 72q10 -3 23 -5t25 -2q35 0 63 16.5t50 44.5t36.5 63.5t22 74.5t7.5 76q0 58 -22 96t-74 38q-15 0 -28.5 -2t-27.5 -5v72q14 3 32 6t37 3q86 0 129 -54.5t43 -151.5q0 -9 -0.5 -18.5t-1.5 -17.5h82l49 232h81l-50 -232h79q9 40 28 82.5
t49.5 78.5t74 58.5t100.5 22.5q17 0 34 -2t35 -7l-16 -71q-11 3 -25 4.5t-27 1.5q-35 0 -63 -16.5t-49 -44.5t-35 -63.5t-21 -74t-7 -75.5q0 -58 21 -96.5t73 -38.5q17 0 29.5 2t26.5 6v-73l-31 -5t-37 -3q-57 0 -95 24.5t-57.5 70.5t-19.5 111q0 11 0.5 21t1.5 20h-83
l-50 -237h-80l51 237h-79q-10 -45 -30.5 -89t-52 -80t-75 -57t-99.5 -21z" />
    <glyph glyph-name="uni0437" unicode="&#x437;" horiz-adv-x="444" 
d="M153 -10q-43 0 -84.5 9.5t-69.5 24.5v81q26 -14 67 -28.5t94 -14.5q42 0 73 12.5t48 35t17 52.5q0 35 -20.5 57t-80.5 22h-74l17 74h49q33 0 65.5 7t53.5 27t21 58q0 30 -20.5 47.5t-62.5 17.5q-35 0 -67 -8.5t-71 -25.5l-26 67q41 20 82.5 30.5t93.5 10.5q50 0 85.5 -15
t54.5 -43t19 -68q0 -36 -14.5 -64t-42.5 -47t-69 -28v-2q43 -11 67 -39t24 -75q0 -49 -25 -89t-76 -63t-128 -23z" />
    <glyph glyph-name="uni0438" unicode="&#x438;" horiz-adv-x="579" 
d="M189 -10q-40 0 -70.5 15t-47 45t-16.5 73q0 23 3.5 43.5l7.5 42.5l70 327h89l-72 -337q-4 -22 -6.5 -38t-2.5 -29q0 -32 16.5 -50.5t53.5 -18.5q34 0 73.5 24t73.5 77t53 141l49 231h87l-114 -536h-72l11 99h-5q-19 -24 -44.5 -49.5t-59 -42.5t-77.5 -17z" />
    <glyph glyph-name="uni0439" unicode="&#x439;" horiz-adv-x="579" 
d="M360 606q-56 0 -91 15.5t-51 42.5t-16 63q0 9 1.5 18.5t2.5 14.5h77q-1 -8 -2 -14.5t-1 -13.5q0 -28 19.5 -45.5t65.5 -17.5q47 0 77.5 18.5t40.5 72.5h84q-9 -47 -33 -81.5t-66.5 -53.5t-107.5 -19zM189 -10q-40 0 -70.5 15t-47 45t-16.5 73q0 23 3.5 43.5l7.5 42.5
l70 327h89l-72 -337q-4 -22 -6.5 -38t-2.5 -29q0 -32 16.5 -50.5t53.5 -18.5q34 0 73.5 24t73.5 77t53 141l49 231h87l-114 -536h-72l11 99h-5q-19 -24 -44.5 -49.5t-59 -42.5t-77.5 -17z" />
    <glyph glyph-name="uni043A" unicode="&#x43a;" horiz-adv-x="486" 
d="M28 0l113 536h87l-55 -258l250 258h110l-265 -265l179 -271h-105l-170 267l-56 -267h-88z" />
    <glyph glyph-name="uni043B" unicode="&#x43b;" horiz-adv-x="544" 
d="M-3 -7q-13 0 -24 2.5t-17 4.5v76q7 -3 15 -4.5t18 -1.5q24 0 42.5 11.5t34.5 36.5t32.5 65t35.5 96q23 67 44 116t47.5 81.5t65.5 48.5t97 16q34 0 66 -4.5t58 -12.5l-112 -524h-89l101 463q-7 2 -17 3t-21 1q-41 0 -66.5 -19.5t-46.5 -66.5t-50 -132q-22 -62 -42 -109.5
t-43 -80t-54 -49.5t-75 -17z" />
    <glyph glyph-name="uni043C" unicode="&#x43c;" horiz-adv-x="699" 
d="M29 0l113 535h114l56 -425h2l235 425h123l-112 -535h-80l65 307l18.5 76l17.5 70h-2l-252 -453h-69l-61 452h-3q-4 -28 -11 -68.5t-15 -78.5l-62 -305h-77z" />
    <glyph glyph-name="uni043D" unicode="&#x43d;" horiz-adv-x="601" 
d="M28 0l114 536h87l-46 -223h252l48 223h88l-113 -536h-89l50 240h-252l-51 -240h-88z" />
    <glyph glyph-name="uni043E" unicode="&#x43e;" horiz-adv-x="563" 
d="M248 -8q-62 0 -107 25t-69 71.5t-24 109.5q0 49 11 98.5t32.5 93.5t53.5 78.5t75 54.5t96 20q63 0 107.5 -25t68.5 -71.5t24 -110.5q0 -49 -11 -98t-32.5 -93.5t-53.5 -78.5t-75 -54t-96 -20zM253 65q29 0 54.5 12t47.5 35.5t37.5 58t24.5 78.5t9 97q0 30 -10.5 58.5
t-34.5 47t-64 18.5q-33 0 -61 -14t-50 -39.5t-37.5 -60t-23.5 -75.5t-8 -86q0 -62 30.5 -96t85.5 -34z" />
    <glyph glyph-name="uni043F" unicode="&#x43f;" horiz-adv-x="579" 
d="M24 0l115 539h78l-11 -99h1q19 25 44.5 50t59.5 42t77 17t74 -16t47.5 -46t16.5 -73q0 -23 -3.5 -47t-7.5 -42l-71 -325h-94l72 337q5 23 7.5 38.5t2.5 29.5q0 32 -17 48t-51 16q-33 0 -71.5 -23t-72 -75t-52.5 -140l-50 -231h-94z" />
    <glyph glyph-name="uni0440" unicode="&#x440;" horiz-adv-x="579" 
d="M-22 -240l164 776h72l-12 -100h4q24 30 51 54.5t59 39.5t69 15q43 0 75.5 -20.5t51 -61t18.5 -101.5q0 -59 -11.5 -114t-34 -101.5t-54 -82t-72.5 -55t-89 -19.5q-36 0 -62.5 13t-44.5 34t-30 45h-5q-1 -16 -5 -44.5t-8 -46.5l-49 -231h-87zM262 63q32 0 59.5 16.5
t49.5 46t37.5 68t23.5 82t8 88.5q0 54 -21.5 81t-63.5 27q-22 0 -45 -11t-45 -31.5t-41 -48.5t-33.5 -61.5t-22.5 -71t-8 -77.5q0 -48 25 -78t77 -30z" />
    <glyph glyph-name="uni0441" unicode="&#x441;" horiz-adv-x="453" 
d="M247 -10q-59 0 -104 22t-70 66.5t-25 111.5q0 58 12.5 110.5t36.5 97.5t58 78t77.5 51.5t95.5 18.5q35 0 70 -7t63 -19l-25 -73q-20 9 -47.5 17t-59.5 8q-43 0 -78 -22.5t-60.5 -61t-39 -89.5t-13.5 -108q0 -40 14 -69t40.5 -44t63.5 -15q35 0 66.5 10t62.5 23v-74
q-28 -14 -62.5 -23t-75.5 -9z" />
    <glyph glyph-name="uni0442" unicode="&#x442;" horiz-adv-x="875" 
d="M28 0l114 536h72l-11 -99h5q18 25 42.5 50t57 42t73.5 17q55 0 84.5 -31.5t35.5 -87.5h4q20 30 47.5 57t61.5 44.5t75 17.5q62 0 96 -34t34 -98q0 -24 -3 -44.5t-8 -43.5l-69 -326h-89l72 336q5 23 7 39t2 31q0 30 -16.5 48t-51.5 18q-24 0 -51 -13.5t-53 -41.5
t-47 -71.5t-34 -103.5l-51 -242h-88l71 336q5 23 7 38.5t2 27.5q0 33 -15 51.5t-50 18.5q-24 0 -51.5 -13t-53.5 -41.5t-48 -74.5t-36 -112l-49 -231h-88z" />
    <glyph glyph-name="uni0443" unicode="&#x443;" horiz-adv-x="467" 
d="M-25 -240q-24 0 -39.5 3t-29.5 7v71q14 -4 30 -6.5t34 -2.5q41 0 69.5 25t54.5 73l35 62l-81 544h88l35 -265q5 -32 7.5 -70.5t4 -73t1.5 -55.5h3l20.5 48t29.5 66t28 56l156 294h94l-340 -626q-27 -50 -55 -83.5t-63 -50t-82 -16.5z" />
    <glyph glyph-name="uni0444" unicode="&#x444;" horiz-adv-x="672" 
d="M188 -240l49 231q-61 8 -103 37t-64 77.5t-22 113.5q0 50 12.5 97.5t37.5 87.5t61.5 71t85.5 49t109 20l46 216h81l-46 -216q89 -12 140 -68t51 -156q0 -54 -13.5 -102.5t-40 -89.5t-64 -71.5t-85.5 -47t-105 -17.5l-49 -232h-81zM253 65l86 406q-52 -3 -90.5 -25
t-62.5 -57.5t-36 -79t-12 -88.5q0 -47 14.5 -81t40.5 -53t60 -22zM334 65q43 2 76.5 17.5t57.5 41t39 57t22 66.5t7 69q0 49 -14.5 81.5t-40.5 50.5t-60 21z" />
    <glyph glyph-name="uni0445" unicode="&#x445;" horiz-adv-x="483" 
d="M-37 0l232 276l-116 260h89l83 -198l157 198h102l-223 -264l123 -272h-89l-91 208l-165 -208h-102z" />
    <glyph glyph-name="uni0446" unicode="&#x446;" horiz-adv-x="597" 
d="M393 -186l40 179q-20 6 -33 18t-19 33.5t-6 52.5h-4q-19 -26 -44.5 -51t-59.5 -40.5t-77 -15.5q-41 0 -71.5 15t-47 45t-16.5 73q0 23 3.5 43.5l7.5 42.5l70 327h89l-72 -337q-4 -22 -6.5 -38t-2.5 -29q0 -32 16.5 -50.5t53.5 -18.5q34 0 73.5 24t73.5 77t53 141l49 231
h87l-80 -378q-4 -19 -6 -33t-2 -26q0 -17 9.5 -27.5t28.5 -10.5q8 0 18 2t20 5l-56 -254h-89z" />
    <glyph glyph-name="uni0447" unicode="&#x447;" horiz-adv-x="559" 
d="M326 0l32 151q7 35 16.5 68l16.5 58h-4q-20 -27 -46 -47.5t-57.5 -32.5t-69.5 -12q-45 0 -75.5 15.5t-46 46.5t-15.5 75q0 19 4 43l8 48l26 123h89l-27 -130q-6 -26 -8.5 -43.5t-2.5 -32.5q0 -40 19.5 -55.5t53.5 -15.5q35 0 71.5 19t68.5 67t51 135l12 56h88l-114 -536
h-90z" />
    <glyph glyph-name="uni0448" unicode="&#x448;" horiz-adv-x="875" 
d="M185 -10q-62 0 -96 34t-34 98q0 24 3.5 45l7.5 43l69 326h89l-71 -336l-7 -38.5t-3 -31.5q0 -30 16.5 -48t51.5 -18q33 0 69 24t67.5 75t48.5 131l52 242h88l-72 -336q-4 -22 -6.5 -38t-2.5 -28q0 -33 15 -51.5t50 -18.5q25 0 52.5 13t53.5 41.5t48 74.5t35 112l49 231
h88l-114 -536h-72l11 99h-5q-18 -24 -42.5 -49.5t-56.5 -42.5t-73 -17q-27 0 -48.5 8t-36.5 23.5t-24 37.5t-12 50h-4q-20 -29 -47 -56.5t-61.5 -45t-75.5 -17.5z" />
    <glyph glyph-name="uni0449" unicode="&#x449;" horiz-adv-x="893" 
d="M690 -186l39 179q-20 6 -33 18t-19.5 33.5t-7.5 52.5h-3q-17 -25 -42 -50t-57 -41t-73 -16q-55 0 -85 32t-36 87h-4q-20 -29 -47 -56.5t-61 -45t-76 -17.5q-62 0 -96 34t-34 98q0 24 3.5 44.5l7.5 43.5l69 326h89l-71 -337l-7 -38t-3 -31q0 -30 16.5 -48t51.5 -18
q32 0 68.5 23.5t68 74.5t48.5 132l52 242h88l-72 -337q-4 -22 -6.5 -38t-2.5 -27q0 -34 15 -52t50 -18q25 0 52.5 13t53.5 41.5t48 74.5t35 112l49 231h88l-80 -378q-3 -16 -5 -32t-2 -27q0 -19 10 -28.5t27 -9.5q13 0 22.5 3t16.5 4l-57 -254h-88z" />
    <glyph glyph-name="uni044A" unicode="&#x44a;" horiz-adv-x="600" 
d="M326 -10q-53 0 -92.5 16.5t-60.5 51t-21 86.5q0 20 3.5 46t7.5 48l48 223h-170l16 75h258l-50 -233q24 5 51.5 8.5t55.5 3.5q56 0 92.5 -16.5t54.5 -48.5t18 -77q0 -49 -22.5 -90.5t-69 -67t-119.5 -25.5zM333 62q31 0 53 8.5t36 23t21 33.5t7 39q0 29 -11.5 45.5t-34 24
t-56.5 7.5q-25 0 -49.5 -2.5t-48.5 -7.5q-6 -29 -8.5 -48t-2.5 -33q0 -41 21 -65.5t73 -24.5z" />
    <glyph glyph-name="uni044B" unicode="&#x44b;" horiz-adv-x="728" 
d="M236 -10q-53 0 -92.5 16.5t-60.5 51t-21 86.5q0 20 3.5 46t7.5 48l63 298h89l-50 -233q24 5 51.5 8.5t55.5 3.5q54 0 90.5 -16.5t54.5 -48t18 -76.5q0 -50 -22.5 -92t-68.5 -67t-118 -25zM241 62q31 0 53 8.5t36 23t21 33t7 39.5q0 29 -11.5 46t-34 24t-55.5 7
q-25 0 -49.5 -2.5t-47.5 -7.5q-6 -29 -8.5 -47.5t-2.5 -33.5q0 -43 21.5 -66.5t70.5 -23.5zM498 0l113 536h88l-114 -536h-87z" />
    <glyph glyph-name="uni044C" unicode="&#x44c;" horiz-adv-x="523" 
d="M241 -10q-56 0 -96.5 16.5t-61.5 51t-21 87.5q0 20 3.5 45.5t7.5 47.5l63 298h89l-51 -233q26 5 56 8.5t62 3.5q61 0 98 -18t54 -50t17 -74q0 -49 -24.5 -90.5t-73 -67t-122.5 -25.5zM249 62q33 0 56.5 8.5t39 22.5t22.5 33t7 40q0 24 -10 41.5t-32.5 26.5t-60.5 9
q-31 0 -59 -2.5t-52 -7.5q-6 -28 -8.5 -47.5t-2.5 -33.5q0 -38 21 -64t79 -26z" />
    <glyph glyph-name="uni044D" unicode="&#x44d;" horiz-adv-x="458" 
d="M135 -10q-40 0 -74 8t-51 16v79q30 -13 60 -21t65 -8q47 0 83 20.5t60 59.5t34 94h-230l15 74h224v7.5v7.5q0 51 -13.5 83t-40 47t-65.5 15q-32 0 -61.5 -8t-55.5 -20l-26 67q30 14 67 24t85 10q68 0 112 -26t65.5 -74.5t21.5 -115.5q0 -52 -9.5 -101.5t-29.5 -92.5
t-52.5 -75.5t-78 -51t-105.5 -18.5z" />
    <glyph glyph-name="uni044E" unicode="&#x44e;" horiz-adv-x="786" 
d="M480 -8q-94 0 -142.5 58t-48.5 148q0 13 0.5 24.5t0.5 17.5h-123l-51 -240h-88l114 536h87l-46 -223h119q16 57 40.5 100.5t56 72t68.5 43t79 14.5q64 0 106 -26.5t63.5 -73t21.5 -107.5q0 -52 -10.5 -102t-31.5 -93.5t-52 -77t-72 -52.5t-91 -19zM486 65q27 0 51 13
t44.5 37t35 58.5t22.5 78t8 94.5q0 56 -26.5 90t-75.5 34q-34 0 -61 -16t-47 -43.5t-33 -62.5t-19.5 -74.5t-6.5 -78.5q0 -58 26.5 -94t81.5 -36z" />
    <glyph glyph-name="uni044F" unicode="&#x44f;" horiz-adv-x="532" 
d="M21 -6q-13 0 -23.5 2t-17.5 4v70q5 -1 11.5 -2t13.5 -1q18 0 30.5 7.5t24.5 25.5t27 48q10 21 22.5 39.5t29 33t39.5 22.5q-32 10 -52.5 28t-30.5 42.5t-10 52.5q0 36 13.5 67t40 54t66 36t92.5 13h204l-113 -536h-87l45 211h-65q-31 0 -51 -10.5t-34 -30.5t-29 -51
q-19 -40 -37.5 -68t-43.5 -42.5t-65 -14.5zM274 286h88l37 175h-116q-36 0 -60.5 -11.5t-37.5 -32.5t-13 -51q0 -45 29.5 -62.5t72.5 -17.5z" />
    <glyph glyph-name="uni0451" unicode="&#x451;" horiz-adv-x="499" 
d="M242 -10q-62 0 -105.5 24.5t-66 70t-22.5 107.5q0 64 18.5 126.5t53.5 114t84.5 82.5t111.5 31q76 0 114.5 -33t38.5 -92q0 -39 -18 -73.5t-56 -60.5t-97 -40.5t-142 -14.5h-17q-1 -9 -1.5 -19t-0.5 -18q0 -61 30 -96.5t91 -35.5q38 0 72 11t74 30v-75q-38 -17 -74.5 -28
t-87.5 -11zM152 303h7q60 0 111 10.5t82 35t31 65.5q0 26 -17.5 42.5t-54.5 16.5q-32 0 -63 -20t-56 -58t-40 -92zM425 631q-18 0 -30 11t-12 31q0 23 14 40t39 17q20 0 30 -11t10 -29q0 -28 -16 -43.5t-35 -15.5zM246 631q-19 0 -31 11t-12 31q0 23 14 40t39 17q14 0 23 -5
t13 -14t4 -21q0 -28 -15.5 -43.5t-34.5 -15.5z" />
    <glyph glyph-name="uni0452" unicode="&#x452;" horiz-adv-x="579" 
d="M262 -240q-18 0 -34 3t-28 7v75q13 -5 27.5 -8t30.5 -3q20 0 35.5 11t27 33t18.5 55l82 383q5 23 7.5 38.5t2.5 27.5q0 33 -17 51.5t-54 18.5q-34 0 -73 -23.5t-73 -76.5t-53 -141l-45 -211h-88l128 604h-74l15 66h73l19 90h88l-20 -90h169l-15 -66h-166l-11 -50
q-7 -35 -15 -66.5t-20 -69.5h5q19 28 44 52.5t59 40t77 15.5q42 0 72.5 -15.5t46.5 -46t16 -76.5q0 -19 -3 -39t-8 -43l-82 -383q-10 -50 -29.5 -86.5t-52 -56.5t-82.5 -20z" />
    <glyph glyph-name="uni0453" unicode="&#x453;" horiz-adv-x="459" 
d="M198 -10q-46 0 -85.5 14t-63.5 44t-24 78q0 39 15.5 68t41.5 49.5t58 35t64 26.5q40 16 71 30.5t48.5 34t17.5 46.5q0 25 -16 40.5t-57 15.5q-39 0 -77 -10.5t-70 -24.5l-24 70q35 13 80 25.5t100 12.5q45 0 79.5 -12.5t54 -39.5t19.5 -72q0 -35 -14 -61.5t-38 -46
t-54 -34t-62 -26.5q-45 -17 -78.5 -32.5t-51.5 -35.5t-18 -52t23.5 -51t73.5 -19q27 0 53 5.5t51 15t49 20.5v-77q-35 -16 -75 -26.5t-91 -10.5zM294 606v13q18 19 38.5 45l40 53t33.5 49h100v-10q-10 -13 -28.5 -33t-41 -42t-45.5 -41.5t-42 -33.5h-55z" />
    <glyph glyph-name="uni0454" unicode="&#x454;" horiz-adv-x="453" 
d="M247 -10q-59 0 -104 22t-70 66.5t-25 111.5q0 49 10.5 99.5t32 96.5t55 82t79 57t103.5 21q35 0 70 -7t63 -19l-25 -73q-20 9 -47.5 17t-59.5 8q-37 0 -71 -17.5t-60.5 -53t-42.5 -89.5h225l-17 -74h-224q-1 -12 -1.5 -23t-0.5 -24q0 -36 13 -65t39.5 -46t66.5 -17
q39 0 68.5 10t60.5 23v-74q-28 -14 -62.5 -23t-75.5 -9z" />
    <glyph glyph-name="uni0455" unicode="&#x455;" horiz-adv-x="432" 
d="M155 -10q-49 0 -85.5 9.5t-64.5 24.5v81q26 -16 65.5 -29.5t81.5 -13.5q40 0 66.5 10.5t40.5 29.5t14 44q0 20 -8 34.5t-27.5 29t-54.5 33.5q-38 22 -63.5 43.5t-38.5 47.5t-13 60q0 46 22.5 80t63.5 53t96 19q49 0 90.5 -11.5t71.5 -25.5l-28 -70q-26 12 -58 22.5
t-76 10.5q-43 0 -68.5 -20.5t-25.5 -52.5q0 -17 7 -31t26.5 -28.5t54.5 -34.5q34 -20 61 -40t42.5 -46t15.5 -64q0 -54 -25.5 -91t-72.5 -55.5t-110 -18.5z" />
    <glyph glyph-name="uni0456" unicode="&#x456;" horiz-adv-x="258" 
d="M28 0l114 536h88l-114 -536h-88zM213 625q-21 0 -34.5 12.5t-13.5 34.5q0 17 7 31.5t20 23.5t32 9q23 0 34.5 -12t11.5 -33q0 -31 -18 -48.5t-39 -17.5z" />
    <glyph glyph-name="uni0457" unicode="&#x457;" horiz-adv-x="258" 
d="M28 0l114 536h88l-114 -536h-88zM297 631q-18 0 -30 11t-12 31q0 23 14 40t39 17q20 0 30 -11t10 -29q0 -28 -16 -43.5t-35 -15.5zM118 631q-19 0 -31 11t-12 31q0 23 14 40t39 17q14 0 23 -5t13 -14t4 -21q0 -28 -15.5 -43.5t-34.5 -15.5z" />
    <glyph glyph-name="uni0458" unicode="&#x458;" horiz-adv-x="258" 
d="M-64 -240q-19 0 -35 3t-27 7v74q12 -4 27 -7.5t31 -3.5q20 0 36 11t27.5 32.5t18.5 54.5l128 605h87l-130 -613q-10 -50 -29.5 -86.5t-51.5 -56.5t-82 -20zM212 625q-20 0 -33.5 12.5t-13.5 34.5q0 17 7 31.5t20 23.5t32 9q23 0 34 -12t11 -33q0 -31 -18 -48.5t-39 -17.5
z" />
    <glyph glyph-name="uni0459" unicode="&#x459;" horiz-adv-x="772" 
d="M498 -10q-53 0 -92.5 16.5t-60.5 51t-21 86.5q0 20 3.5 46t7.5 48l47 225q-5 2 -13.5 3t-16.5 1q-31 0 -52 -19t-41 -66.5t-49 -132.5q-21 -62 -40.5 -109.5t-43 -80t-54.5 -49.5t-74 -17q-13 0 -24.5 2.5t-17.5 4.5v76q5 -2 14 -4t19 -2q24 0 42.5 11.5t34.5 36.5
t32.5 65t35.5 96q21 63 40.5 111.5t43.5 82t60 51t91 17.5q32 0 62.5 -5.5t51.5 -12.5l-47 -220q25 5 52.5 8.5t55.5 3.5q56 0 92.5 -16.5t54.5 -48.5t18 -77q0 -49 -22.5 -90.5t-69 -67t-119.5 -25.5zM505 62q31 0 53 8.5t36 23t21 33.5t7 39q0 29 -11.5 45.5t-34 24
t-56.5 7.5q-25 0 -50 -2.5t-48 -7.5q-6 -29 -8.5 -48t-2.5 -33q0 -41 21 -65.5t73 -24.5z" />
    <glyph glyph-name="uni045A" unicode="&#x45a;" horiz-adv-x="818" 
d="M544 -10q-53 0 -92.5 16.5t-61 51t-21.5 86.5q0 14 1.5 30.5t4.5 33.5t6 32h-214l-50 -240h-89l115 536h87l-47 -223h214l48 223h88l-50 -233q23 5 51 8.5t56 3.5q55 0 91.5 -16.5t55 -48.5t18.5 -77q0 -49 -22.5 -90.5t-69 -67t-119.5 -25.5zM550 62q31 0 53.5 8.5
t36.5 23t20.5 33.5t6.5 39q0 29 -11.5 45.5t-33.5 24t-56 7.5q-25 0 -50 -2.5t-49 -7.5q-6 -30 -8.5 -48.5t-2.5 -33.5q0 -40 21.5 -64.5t72.5 -24.5z" />
    <glyph glyph-name="uni045B" unicode="&#x45b;" horiz-adv-x="579" 
d="M28 0l129 604h-75l15 66h73l19 90h88l-20 -90h169l-15 -66h-167l-17.5 -71.5l-15 -60t-10.5 -44.5h5q19 25 44.5 50.5t59 42.5t76.5 17q42 0 72.5 -16t46.5 -46.5t16 -76.5q0 -19 -3 -39t-8 -43l-68 -317h-88l70 327q5 22 7 38t2 27q0 35 -17 54t-54 19q-33 0 -73 -24
t-74 -77t-53 -141l-46 -223h-88z" />
    <glyph glyph-name="uni045C" unicode="&#x45c;" horiz-adv-x="486" 
d="M28 0l113 536h87l-55 -258l250 258h110l-265 -265l179 -271h-105l-170 267l-56 -267h-88zM280 606v13q18 19 38.5 45l40 53t33.5 49h100v-10q-10 -13 -28.5 -33t-41 -42t-45.5 -41.5t-42 -33.5h-55z" />
    <glyph glyph-name="uni045E" unicode="&#x45e;" horiz-adv-x="467" 
d="M285 606q-56 0 -91 15.5t-51 42.5t-16 63q0 9 1.5 18.5t2.5 14.5h77q-1 -8 -2 -14.5t-1 -13.5q0 -28 19.5 -45.5t65.5 -17.5q47 0 77.5 18.5t40.5 72.5h84q-9 -47 -33 -81.5t-66.5 -53.5t-107.5 -19zM-25 -240q-24 0 -39.5 3t-29.5 7v71q14 -4 30 -6.5t34 -2.5
q41 0 69.5 25t54.5 73l35 62l-81 544h88l35 -265q5 -32 7.5 -70.5t4 -73t1.5 -55.5h3l20.5 48t29.5 66t28 56l156 294h94l-340 -626q-27 -50 -55 -83.5t-63 -50t-82 -16.5z" />
    <glyph glyph-name="uni045F" unicode="&#x45f;" horiz-adv-x="579" 
d="M189 -10q-40 0 -70.5 15t-47 45t-16.5 73q0 23 3.5 43.5l7.5 42.5l70 327h89l-72 -337q-4 -22 -6.5 -38t-2.5 -29q0 -32 16.5 -50.5t53.5 -18.5q34 0 73.5 24t73.5 77t53 141l49 231h87l-114 -536h-72l11 99h-5q-19 -24 -44.5 -49.5t-59 -42.5t-77.5 -17zM150 -240
l40 182l73 24h20l-45 -206h-88z" />
    <glyph glyph-name="uni0490" unicode="&#x490;" horiz-adv-x="478" 
d="M41 0l151 714h274l31 146h85l-49 -226h-269l-134 -634h-89z" />
    <glyph glyph-name="uni0491" unicode="&#x491;" horiz-adv-x="390" 
d="M28 0l114 536h196l34 155h89l-48 -221h-198l-99 -470h-88z" />
    <glyph glyph-name="Wgrave" unicode="&#x1e80;" horiz-adv-x="856" 
d="M137 0l-30 714h88l14 -435q2 -41 0 -85l-4 -84h3q14 39 34 89.5t41 94.5l196 420h91l20 -418q2 -31 3 -65t1.5 -65t-0.5 -56h3l19 54.5t21.5 58l23.5 59.5l187 432h95l-324 -714h-91l-22 460q-1 22 -2 46.5t-1.5 48.5t-0.5 44h-3q-10 -30 -23 -61t-36 -81l-211 -457h-92z
M541 784q-19 19 -40.5 46t-40.5 55t-29 49v10h94q8 -24 19 -50t24.5 -50.5l26.5 -47.5v-12h-54z" />
    <glyph glyph-name="wgrave" unicode="&#x1e81;" horiz-adv-x="723" 
d="M79 0l-22 536h86l8 -286q2 -55 0 -99.5t-4 -73.5h4l19 49.5t23.5 57l22.5 49.5l141 303h95l17 -287q1 -37 2 -85.5t-1 -86.5h4l20.5 57.5t26 67l30.5 71.5l117 263h93l-248 -536h-106l-15 290q-1 27 -1.5 51.5t0 51.5t0.5 58h-4l-17.5 -46t-19.5 -46.5l-27 -58.5
l-140 -300h-104zM427 606q-19 19 -40.5 46t-40.5 55t-29 49v10h94q8 -24 19 -50t24.5 -50.5l26.5 -47.5v-12h-54z" />
    <glyph glyph-name="Wacute" unicode="&#x1e82;" horiz-adv-x="856" 
d="M137 0l-30 714h88l14 -435q2 -41 0 -85l-4 -84h3q14 39 34 89.5t41 94.5l196 420h91l20 -418q2 -31 3 -65t1.5 -65t-0.5 -56h3l19 54.5t21.5 58l23.5 59.5l187 432h95l-324 -714h-91l-22 460q-1 22 -2 46.5t-1.5 48.5t-0.5 44h-3q-10 -30 -23 -61t-36 -81l-211 -457h-92z
M485 784v13q18 19 38.5 45l40 53t33.5 49h100v-10q-10 -13 -28.5 -33t-41 -42t-45.5 -41.5t-42 -33.5h-55z" />
    <glyph glyph-name="wacute" unicode="&#x1e83;" horiz-adv-x="723" 
d="M79 0l-22 536h86l8 -286q2 -55 0 -99.5t-4 -73.5h4l19 49.5t23.5 57l22.5 49.5l141 303h95l17 -287q1 -37 2 -85.5t-1 -86.5h4l20.5 57.5t26 67l30.5 71.5l117 263h93l-248 -536h-106l-15 290q-1 27 -1.5 51.5t0 51.5t0.5 58h-4l-17.5 -46t-19.5 -46.5l-27 -58.5
l-140 -300h-104zM371 606v13q18 19 38.5 45l40 53t33.5 49h100v-10q-10 -13 -28.5 -33t-41 -42t-45.5 -41.5t-42 -33.5h-55z" />
    <glyph glyph-name="Wdieresis" unicode="&#x1e84;" horiz-adv-x="856" 
d="M137 0l-30 714h88l14 -435q2 -41 0 -85l-4 -84h3q14 39 34 89.5t41 94.5l196 420h91l20 -418q2 -31 3 -65t1.5 -65t-0.5 -56h3l19 54.5t21.5 58l23.5 59.5l187 432h95l-324 -714h-91l-22 460q-1 22 -2 46.5t-1.5 48.5t-0.5 44h-3q-10 -30 -23 -61t-36 -81l-211 -457h-92z
M634 809q-18 0 -30 11t-12 31q0 23 14 40t39 17q20 0 30 -11t10 -29q0 -28 -16 -43.5t-35 -15.5zM455 809q-19 0 -31 11t-12 31q0 23 14 40t39 17q14 0 23 -5t13 -14t4 -21q0 -28 -15.5 -43.5t-34.5 -15.5z" />
    <glyph glyph-name="wdieresis" unicode="&#x1e85;" horiz-adv-x="723" 
d="M79 0l-22 536h86l8 -286q2 -55 0 -99.5t-4 -73.5h4l19 49.5t23.5 57l22.5 49.5l141 303h95l17 -287q1 -37 2 -85.5t-1 -86.5h4l20.5 57.5t26 67l30.5 71.5l117 263h93l-248 -536h-106l-15 290q-1 27 -1.5 51.5t0 51.5t0.5 58h-4l-17.5 -46t-19.5 -46.5l-27 -58.5
l-140 -300h-104zM520 631q-18 0 -30 11t-12 31q0 23 14 40t39 17q20 0 30 -11t10 -29q0 -28 -16 -43.5t-35 -15.5zM341 631q-19 0 -31 11t-12 31q0 23 14 40t39 17q14 0 23 -5t13 -14t4 -21q0 -28 -15.5 -43.5t-34.5 -15.5z" />
    <glyph glyph-name="Ygrave" unicode="&#x1ef2;" horiz-adv-x="509" 
d="M150 0l58 268l-116 446h89l85 -358l234 358h101l-306 -449l-55 -265h-90zM368 784q-19 19 -40.5 46t-40.5 55t-29 49v10h94q8 -24 19 -50t24.5 -50.5l26.5 -47.5v-12h-54z" />
    <glyph glyph-name="ygrave" unicode="&#x1ef3;" horiz-adv-x="467" 
d="M-25 -240q-24 0 -39.5 3t-29.5 7v71q14 -4 30 -6.5t34 -2.5q41 0 69.5 25t54.5 73l35 62l-81 544h88l35 -265q5 -32 7.5 -70.5t4 -73t1.5 -55.5h3l20.5 48t29.5 66t28 56l156 294h94l-340 -626q-27 -50 -55 -83.5t-63 -50t-82 -16.5zM290 606q-19 19 -40.5 46t-40.5 55
t-29 49v10h94q8 -24 19 -50t24.5 -50.5l26.5 -47.5v-12h-54z" />
    <glyph glyph-name="endash" unicode="&#x2013;" horiz-adv-x="480" 
d="M26 228l18 81h403l-17 -81h-404z" />
    <glyph glyph-name="emdash" unicode="&#x2014;" horiz-adv-x="960" 
d="M26 228l18 81h883l-17 -81h-884z" />
    <glyph glyph-name="uni2015" unicode="&#x2015;" horiz-adv-x="960" 
d="M26 228l18 81h883l-17 -81h-884z" />
    <glyph glyph-name="underscoredbl" unicode="&#x2017;" horiz-adv-x="395" 
d="M-75 -90l14 64h397l-14 -64h-397zM-101 -222l14 64h397l-14 -64h-397z" />
    <glyph glyph-name="quoteleft" unicode="&#x2018;" horiz-adv-x="174" 
d="M63 469l-3 11q16 36 37.5 76t46 81l47.5 77h67l-26.5 -62l-26.5 -64.5l-25 -62.5t-21 -56h-96z" />
    <glyph glyph-name="quoteright" unicode="&#x2019;" horiz-adv-x="174" 
d="M60 469l36.5 83.5l35 85.5t27.5 76h96l4 -11q-16 -35 -37.5 -75.5t-46 -81l-48.5 -77.5h-67z" />
    <glyph glyph-name="quotesinglbase" unicode="&#x201a;" horiz-adv-x="243" 
d="M-49 -129l35.5 83.5l35 85.5t28.5 76h96l4 -11q-16 -35 -38 -75.5l-46 -81l-48 -77.5h-67z" />
    <glyph glyph-name="quotereversed" unicode="&#x201b;" horiz-adv-x="174" 
d="M151 469q-10 36 -18 76.5t-13 81.5t-8 76l8 11h85q0 -30 0.5 -61t1.5 -62.5t2.5 -62t3.5 -59.5h-62z" />
    <glyph glyph-name="quotedblleft" unicode="&#x201c;" horiz-adv-x="358" 
d="M247 469l-4 11q16 36 38 76t47 81l48 77h66l-35.5 -83l-35 -85.5t-28.5 -76.5h-96zM63 469l-3 11q16 36 37.5 76t46 81l47.5 77h67l-26.5 -62l-26.5 -64.5l-25 -62.5t-21 -56h-96z" />
    <glyph glyph-name="quotedblright" unicode="&#x201d;" horiz-adv-x="358" 
d="M244 469l36 83.5l34 85.5l28 76h97l4 -11q-15 -35 -37 -75.5t-47 -81l-49 -77.5h-66zM60 469l36.5 83.5l35 85.5t27.5 76h96l4 -11q-16 -35 -37.5 -75.5t-46 -81l-48.5 -77.5h-67z" />
    <glyph glyph-name="quotedblbase" unicode="&#x201e;" horiz-adv-x="426" 
d="M134 -129l36 83.5l34.5 85.5t28.5 76h96l4 -11q-16 -35 -38 -75.5l-46 -81l-47 -77.5h-68zM-49 -129l35.5 83.5l35 85.5t28.5 76h96l4 -11q-16 -35 -38 -75.5l-46 -81l-48 -77.5h-67z" />
    <glyph glyph-name="dagger" unicode="&#x2020;" horiz-adv-x="470" 
d="M122 0l132 499l-149 -16l18 88l143 -16l18 205h104l-70 -205l159 16l-18 -88l-153 15l-80 -498h-104z" />
    <glyph glyph-name="daggerdbl" unicode="&#x2021;" horiz-adv-x="470" 
d="M125 0l65 184l-158 -15l19 87l152 -15l8 143l50 135l-158 -16l19 88l152 -16l13 185h105l-65 -185l159 16l-19 -88l-153 16l-6 -135l-52 -143l159 15l-19 -87l-153 15l-13 -184h-105z" />
    <glyph glyph-name="bullet" unicode="&#x2022;" horiz-adv-x="376" 
d="M208 241q-47 0 -79 29t-32 95q0 45 14.5 72.5t40 39.5t56.5 12t56 -12t40 -39.5t15 -72.5q0 -44 -15 -71.5t-40 -40t-56 -12.5z" />
    <glyph glyph-name="ellipsis" unicode="&#x2026;" horiz-adv-x="769" 
d="M72 -14q-25 0 -38.5 13.5t-13.5 38.5q0 33 18.5 58t58.5 25q22 0 35.5 -13.5t13.5 -39.5q0 -31 -18 -56.5t-56 -25.5zM329 -14q-25 0 -38.5 13.5t-13.5 38.5q0 33 18.5 58t58.5 25q22 0 35.5 -13.5t13.5 -39.5q0 -31 -18 -56.5t-56 -25.5zM585 -14q-25 0 -38.5 13.5
t-13.5 38.5q0 33 18.5 58t58.5 25q22 0 35.5 -13.5t13.5 -39.5q0 -31 -18 -56.5t-56 -25.5z" />
    <glyph glyph-name="perthousand" unicode="&#x2030;" horiz-adv-x="1126" 
d="M113 0l530 714h78l-530 -714h-78zM195 276q-55 0 -85 37.5t-30 107.5q0 29 5 68t17.5 80t34 76.5t54.5 57t79 21.5q57 0 87 -35.5t30 -101.5q0 -27 -5.5 -66.5t-18.5 -82t-35.5 -79.5t-55 -60t-77.5 -23zM202 342q26 0 45.5 19.5t32.5 50t20.5 63.5t11 62t3.5 44
q0 41 -13 59.5t-38 18.5q-26 0 -45 -18t-32 -46t-20.5 -60.5t-11 -62.5t-3.5 -50q0 -40 12.5 -60t37.5 -20zM562 -10q-55 0 -85 37t-30 107q0 30 5 69.5t17.5 80.5t34.5 76t54.5 56.5t78.5 21.5q58 0 88 -35.5t30 -100.5q0 -27 -6 -66.5t-19 -82t-35 -80t-55 -60.5t-78 -23z
M569 56q26 0 45.5 19.5t32.5 50t20.5 64t11 62t3.5 43.5q0 41 -13 59.5t-38 18.5q-26 0 -45 -18t-31.5 -46t-20 -60.5t-11 -62.5t-3.5 -50q0 -40 12 -60t37 -20zM890 -10q-55 0 -85.5 37t-30.5 107q0 30 5 69.5t17.5 80.5t34.5 76t55 56.5t79 21.5q57 0 87 -35.5t30 -100.5
q0 -27 -6 -66.5t-19 -82t-35 -80t-54.5 -60.5t-77.5 -23zM897 56q26 0 45.5 19.5t32 50t20 64t11 62t3.5 43.5q0 41 -13 59.5t-37 18.5q-26 0 -45 -18t-32 -46t-20.5 -60.5t-11 -62.5t-3.5 -50q0 -40 12 -60t38 -20z" />
    <glyph glyph-name="minute" unicode="&#x2032;" horiz-adv-x="220" 
d="M68 456l127 258h96l-167 -258h-56z" />
    <glyph glyph-name="second" unicode="&#x2033;" horiz-adv-x="389" 
d="M237 456l127 258h96l-167 -258h-56zM68 456l127 258h96l-167 -258h-56z" />
    <glyph glyph-name="guilsinglleft" unicode="&#x2039;" horiz-adv-x="287" 
d="M154 54l-112 214v14l192 189l43 -43l-144 -163l82 -185z" />
    <glyph glyph-name="guilsinglright" unicode="&#x203a;" horiz-adv-x="287" 
d="M53 54l-43 43l144 163l-82 185l61 26l111 -214v-13z" />
    <glyph glyph-name="exclamdbl" unicode="&#x203c;" horiz-adv-x="494" 
d="M310 201l91 513h107l-127 -513h-71zM306 -14q-25 0 -39 14.5t-14 39.5q0 32 18 56.5t57 24.5q23 0 37 -14t14 -40q0 -29 -17.5 -55t-55.5 -26zM77 201l91 513h107l-127 -513h-71zM73 -14q-25 0 -39 14.5t-14 39.5q0 32 18 56.5t57 24.5q23 0 37 -14t14 -40
q0 -29 -17.5 -55t-55.5 -26z" />
    <glyph glyph-name="fraction" unicode="&#x2044;" horiz-adv-x="130" 
d="M-240 0l530 714h79l-530 -714h-79z" />
    <glyph glyph-name="uni207F" unicode="&#x207f;" horiz-adv-x="376" 
d="M68.6006 287l74.7529 323.387h50.7021l-7.15039 -59.3975h0.649414q12.3506 14.999 28.9268 29.999q16.5752 14.999 38.6758 25.1992q22.1016 10.1992 50.0518 10.1992q27.9512 0 48.1025 -9.59961q20.1504 -9.59961 30.876 -27.5986q10.7256 -18 10.7256 -43.7988
q0 -13.7988 -2.27539 -28.1982t-4.875 -25.1992l-46.1514 -194.992h-61.1025l46.8018 202.191q3.25 13.7998 4.875 23.0996t1.625 17.6992q0 19.1992 -11.0508 28.7988q-11.0498 9.59961 -33.1504 9.59961q-21.4512 0 -46.4775 -13.7998q-25.0254 -13.7988 -46.8018 -44.998
q-21.7754 -31.1982 -34.126 -83.9961l-32.501 -138.595h-61.1025z" />
    <glyph glyph-name="franc" unicode="&#x20a3;" horiz-adv-x="551" 
d="M77 0l27 128h-84l14 66h84l110 520h355l-17 -79h-269l-54 -254h252l-17 -79h-251l-24 -108h137l-13 -66h-137l-28 -128h-85z" />
    <glyph glyph-name="afii08941" unicode="&#x20a4;" horiz-adv-x="551" 
d="M-11 0l14 74q35 8 60 26.5t41.5 49t25.5 73.5h-93l15 67h94l15 77h-97l16 67h96l24 115q12 55 38 93.5t69 59.5t105 21q50 0 94 -12.5t72 -29.5l-34 -69q-24 14 -61.5 26t-72.5 12q-55 0 -84.5 -30t-40.5 -83l-22 -103h178l-15 -67h-177l-17 -77h178l-14 -67h-178
q-8 -36 -20.5 -62.5t-30.5 -46t-45 -34.5h351l-17 -80h-467z" />
    <glyph glyph-name="peseta" unicode="&#x20a7;" horiz-adv-x="737" 
d="M27 0l152 714h105q73 0 119 -22.5t68.5 -63t22.5 -96.5t-17.5 -102.5t-54 -80t-92 -52t-132.5 -18.5h-25l-60 -279h-86zM190 354h16q59 0 97 15t60.5 39.5t31.5 54t9 58.5q0 59 -33 87.5t-98 28.5h-25zM574 -10q-54 0 -77.5 27t-23.5 67q0 14 3 34t10 50l38 178h-73l8 40
l81 38l50 91h54l-23 -102h98l-13 -67h-98l-41 -184q-4 -22 -6 -36.5t-2 -24.5q0 -18 10 -28.5t29 -10.5q17 0 32.5 4t28.5 8v-67q-16 -7 -38 -12t-47 -5z" />
    <glyph glyph-name="Euro" unicode="&#x20ac;" horiz-adv-x="551" 
d="M329 -10q-64 0 -113 27.5t-76.5 84t-27.5 143.5h-82l13 66h74q2 13 4.5 27.5t5.5 28l5 22.5h-73l14 67h77q29 81 73.5 141t103 93t129.5 33q50 0 84.5 -12.5t64.5 -32.5l-41 -71q-22 15 -49.5 26.5t-62.5 11.5q-44 0 -83.5 -21t-71.5 -63t-55 -105h204l-13 -67h-212
l-6.5 -24t-5.5 -26.5l-4 -27.5h183l-15 -66h-172q0 -62 16.5 -101t48 -57t75.5 -18q35 0 66.5 7.5t60.5 19.5v-77q-27 -12 -63 -20.5t-76 -8.5z" />
    <glyph glyph-name="uni2105" unicode="&#x2105;" horiz-adv-x="777" 
d="M95 0l535 714h78l-533 -714h-80zM529 -4q-57 0 -89.5 33t-32.5 92q0 39 10 76.5t30.5 67t52.5 47.5t75 18q59 0 91.5 -35.5t32.5 -96.5q0 -43 -11 -80t-32.5 -64.5t-53 -42.5t-73.5 -15zM536 48q26 0 44 14.5t29 37.5t16 48.5t5 47.5q0 38 -15 59t-45 21q-26 0 -44 -14
t-29.5 -36.5t-16.5 -49t-5 -50.5q0 -37 15 -57.5t46 -20.5zM248 385q-55 0 -90 32t-35 98q0 37 11.5 73t34.5 65.5t59 47t85 17.5q24 0 44 -4.5t39 -12.5l-19 -51q-16 7 -33 11.5t-37 4.5q-27 0 -48.5 -12t-36.5 -33t-22.5 -47.5t-7.5 -55.5q0 -38 16.5 -58.5t48.5 -20.5
q23 0 41 5.5l33 10.5v-52q-15 -7 -37.5 -12.5t-45.5 -5.5z" />
    <glyph glyph-name="uni2113" unicode="&#x2113;" horiz-adv-x="520" 
d="M302 -10q-41 0 -76 16.5t-56.5 54.5t-21.5 103v113q-22 -8 -46 -15t-48 -13v59q26 7 49 14.5l45 14.5v239q0 41 14.5 74.5t46 53.5t83.5 20q39 0 67.5 -17.5t44 -50t15.5 -79.5q0 -65 -24.5 -118.5t-67.5 -93.5t-97 -63v-135q0 -50 19.5 -79.5t61.5 -29.5q35 0 61.5 22.5
t30.5 80.5h51q-2 -54 -20 -92.5t-50.5 -58.5t-81.5 -20zM230 366q60 32 91 84t31 124q0 31 -6.5 51t-20 30.5t-33.5 10.5q-38 0 -50 -25.5t-12 -66.5v-208z" />
    <glyph glyph-name="uni2116" unicode="&#x2116;" horiz-adv-x="953" 
d="M27 0l151 714h100l169 -587l11 61.5t13 68l13 64.5l84 393h80l-151 -714h-97l-172 597q-3 -22 -7 -47.5t-9 -53t-10.5 -54.5l-10.5 -53l-83 -389h-81zM597 0l15 71h235l-16 -71h-234zM750 134q-58 0 -90.5 35t-32.5 97q0 39 11 76t32 66.5t52.5 47t72.5 17.5
q57 0 90.5 -36.5t33.5 -97.5q0 -28 -8 -63t-27 -67.5t-51.5 -53.5t-82.5 -21zM755 192q25 0 43 12.5t30 33.5t17.5 46.5t5.5 51.5q0 38 -15 57.5t-46 19.5q-24 0 -41.5 -12.5t-29.5 -33.5t-18 -46.5t-6 -51.5q0 -37 15 -57t45 -20z" />
    <glyph glyph-name="trademark" unicode="&#x2122;" horiz-adv-x="773" 
d="M325 362v352h94l94 -271l97 271h91v-352h-64v204q0 8 1 31.5t2 35.5h-4l-101 -271h-53l-96 271h-4q1 -16 2 -36t1 -26v-209h-60zM118 362v298h-101v54h266v-54h-102v-298h-63z" />
    <glyph glyph-name="uni03A9" unicode="&#x3a9;" horiz-adv-x="732" 
d="M-10 0l16 79h171q-25 25 -47.5 60.5t-36.5 84t-14 112.5q0 62 15 120t44.5 107t72 85t97.5 56.5t122 20.5q90 0 149 -36t87.5 -98.5t28.5 -140.5q0 -63 -16 -118t-45 -101.5t-67 -84.5t-83 -67h177l-16 -79h-296l14 70q51 30 94 69t75 86t50 103.5t18 122.5q0 56 -18 100
t-57 69.5t-102 25.5q-49 0 -88.5 -16.5t-69.5 -46t-50.5 -69t-30.5 -86t-10 -96.5q0 -93 27.5 -154t74.5 -108l-14 -70h-272z" />
    <glyph glyph-name="estimated" unicode="&#x212e;" horiz-adv-x="619" 
d="M320 -17q-84 0 -142 39t-87.5 102t-29.5 135t23 124t60.5 86t83.5 50t92 16q74 0 132.5 -33.5t92.5 -95.5t34 -147h-404v-174q22 -23 61 -41.5t84 -18.5q73 0 116 30t77 84l35 -20q-23 -37 -52.5 -68t-71.5 -49.5t-104 -18.5zM175 301h291v135q-19 20 -57 39t-90 19
q-49 0 -85 -17t-59 -40v-136z" />
    <glyph glyph-name="oneeighth" unicode="&#x215b;" horiz-adv-x="802" 
d="M85 0l530 714h79l-530 -714h-79zM159 285l53 251q5 25 13.5 56.5l14.5 52.5l-19.5 -17.5t-23.5 -19.5l-52 -34l-28 47l142 92h62l-91 -428h-71zM574 -9q-56 0 -91.5 28.5t-35.5 78.5q0 45 27.5 77t82.5 52q-24 18 -38.5 38.5t-14.5 55.5q0 33 17 59t49 40.5t77 14.5
q58 0 87 -29t29 -69t-26.5 -69t-72.5 -45q30 -19 48 -43t18 -61t-19 -66t-54 -45.5t-83 -16.5zM580 46q38 -1 59 19.5t21 51.5q0 26 -17.5 46t-40.5 32q-37 -13 -62.5 -34t-25.5 -56q0 -27 18.5 -42.5t47.5 -16.5zM618 251q27 10 52 27t25 53q0 23 -15.5 36t-39.5 13
q-33 0 -51 -17t-18 -43t14 -41.5t33 -27.5z" />
    <glyph glyph-name="threeeighths" unicode="&#x215c;" horiz-adv-x="841" 
d="M170 278q-33 0 -62.5 7.5t-52.5 19.5v65q26 -15 57 -25t60 -10q50 0 74.5 22t24.5 59q0 32 -21.5 48t-62.5 16h-46l12 55h46q31 0 53.5 8.5t35.5 25t13 39.5q0 29 -16.5 43.5t-47.5 13.5q-26 -1 -48.5 -9.5t-43.5 -23.5l-28 48q23 18 57 30.5t76 12.5q40 0 66.5 -13
t40 -36t13.5 -52q0 -45 -27 -72.5t-75 -40.5v-4q35 -8 53.5 -32.5t18.5 -58.5q0 -38 -18.5 -69t-56 -49t-95.5 -18zM134 0l530 714h79l-530 -714h-79zM613 -10q-56 0 -91.5 28.5t-35.5 78.5q0 45 27.5 77t82.5 52q-24 18 -38.5 38.5t-14.5 55.5q0 33 17 59t49 40.5t77 14.5
q58 0 87 -29t29 -69t-26.5 -69t-72.5 -45q30 -19 48 -43t18 -61t-19 -66t-54 -45.5t-83 -16.5zM619 45q38 -1 59 19.5t21 51.5q0 26 -17.5 46t-40.5 32q-37 -13 -62.5 -34t-25.5 -56q0 -27 18.5 -42.5t47.5 -16.5zM657 250q27 10 52 27t25 53q0 23 -15.5 36t-39.5 13
q-33 0 -51 -17t-18 -43t14 -41.5t33 -27.5z" />
    </font>
</defs>
</svg>
