<?xml version="1.0" standalone="no"?>
<!DOCTYPE svg PUBLIC "-//W3C//DTD SVG 1.1//EN" "http://www.w3.org/Graphics/SVG/1.1/DTD/svg11.dtd" >
<svg>
<metadata>
Created by FontForge 20090622 at Wed May  6 16:02:34 2020
 By deploy user
Copyright 2015-2019 Google LLC. All Rights Reserved.
</metadata>
<defs>
<font id="NotoSansMono-Regular" horiz-adv-x="600" >
  <font-face 
    font-family="Noto Sans Mono"
    font-weight="400"
    font-stretch="normal"
    units-per-em="1000"
    panose-1="2 11 5 9 4 5 4 2 2 4"
    ascent="800"
    descent="-200"
    x-height="536"
    cap-height="714"
    bbox="-616 -389 1800 1229"
    underline-thickness="50"
    underline-position="-75"
    unicode-range="U+000D-U+1F67F"
  />
<missing-glyph 
d="M94 0v714h411v-714h-411zM145 51h309v612h-309v-612z" />
    <glyph glyph-name=".notdef" 
d="M94 0v714h411v-714h-411zM145 51h309v612h-309v-612z" />
    <glyph glyph-name="NULL" horiz-adv-x="0" 
 />
    <glyph glyph-name="CR" unicode="&#xd;" 
 />
    <glyph glyph-name="space" unicode=" " 
 />
    <glyph glyph-name="exclam" unicode="!" 
d="M262 202l-16 512h109l-16 -512h-77zM300 -10q-26 0 -44 16t-18 52q0 38 18 53t44 15t44 -15t18 -53q0 -36 -18 -52t-44 -16z" />
    <glyph glyph-name="quotedbl" unicode="&#x22;" 
d="M365 456l-20 258h95l-20 -258h-55zM180 456l-20 258h95l-20 -258h-55z" />
    <glyph glyph-name="numbersign" unicode="#" 
d="M101 0l38 209h-119v67h132l32 160h-127v66h139l40 212h72l-40 -212h124l40 212h69l-40 -212h119v-66h-132l-31 -160h129v-67h-142l-41 -209h-71l41 209h-123l-39 -209h-70zM223 276h123l31 160h-123z" />
    <glyph glyph-name="dollar" unicode="$" 
d="M263 -58v92q-50 1 -95.5 9.5t-77.5 23.5v85q34 -16 80.5 -28t92.5 -13v217q-60 20 -101 43.5t-61.5 58t-20.5 85.5q0 50 22.5 87t63.5 58.5t97 25.5v73h64v-72q50 -1 90 -11.5t76 -25.5l-27 -74q-32 13 -67 22.5t-72 12.5v-216q64 -19 107 -40.5t64.5 -55t21.5 -87.5
q0 -70 -50.5 -116.5t-142.5 -57.5v-96h-64zM327 116q56 7 81.5 32.5t25.5 65.5q0 25 -9.5 41.5t-32.5 28.5t-65 23v-191zM263 417v192q-33 -3 -54.5 -15.5t-32 -32.5t-10.5 -46q0 -25 9 -43.5t30 -31.5t58 -23z" />
    <glyph glyph-name="percent" unicode="%" 
d="M83 0l356 714h77l-356 -714h-77zM456 -9q-61 0 -101.5 44.5t-40.5 125.5t38.5 125t105.5 44q61 0 101.5 -44t40.5 -125t-39 -125.5t-105 -44.5zM457 49q34 0 51 27t17 85q0 59 -17 84.5t-51 25.5t-51.5 -25.5t-17.5 -84.5q0 -58 17.5 -85t51.5 -27zM142 383
q-61 0 -101.5 44.5t-40.5 125.5t38.5 125t105.5 44q61 0 101.5 -44t40.5 -125t-39 -125.5t-105 -44.5zM143 441q34 0 51 27t17 85q0 59 -17 84.5t-51 25.5t-51.5 -25.5t-17.5 -84.5q0 -58 17.5 -85t51.5 -27z" />
    <glyph glyph-name="ampersand" unicode="&#x26;" 
d="M224 -10q-59 0 -100.5 24t-63 66.5t-21.5 95.5q0 57 22.5 99.5t58.5 76t77 62.5q23 16 51 40t49 55.5t21 70.5q0 36 -19 56t-50 20t-49.5 -21t-18.5 -59q0 -26 8.5 -54t23 -54t31.5 -48l337 -420h-107l-282 364q-22 29 -43.5 63t-35.5 72.5t-14 78.5q0 66 40 106.5
t110 40.5t110 -40.5t40 -104.5q0 -50 -23 -90t-58 -71.5t-70 -59.5q-29 -23 -57.5 -48.5t-47 -57t-18.5 -72.5q0 -48 29 -81t80 -33q37 0 69.5 17.5t59.5 47.5t47.5 66.5t34 75.5t19.5 75h83q-10 -57 -29.5 -110t-48.5 -98.5t-66 -79t-82 -52.5t-97 -19z" />
    <glyph glyph-name="quotesingle" unicode="'" 
d="M272 456l-20 258h95l-20 -258h-55z" />
    <glyph glyph-name="parenleft" unicode="(" 
d="M347 -158q-76 88 -111.5 199.5t-35.5 232.5q0 122 35.5 235.5t111.5 204.5h83q-70 -94 -105.5 -207t-35.5 -232q0 -116 35.5 -227.5t104.5 -205.5h-82z" />
    <glyph glyph-name="parenright" unicode=")" 
d="M253 714q76 -88 111.5 -199.5t35.5 -232.5q0 -122 -35.5 -235.5t-111.5 -204.5h-83q70 94 105.5 207t35.5 232q0 116 -35.5 227.5t-104.5 205.5h82z" />
    <glyph glyph-name="asterisk" unicode="*" 
d="M381 334l-81 155l-80 -154l-74 47l106 134l-162 21l14 75l170 -43l-14 177h79l-12 -177l171 47l15 -82l-161 -20l106 -133z" />
    <glyph glyph-name="plus" unicode="+" 
d="M265 121v196h-185v71h185v197h72v-197h183v-71h-183v-196h-72z" />
    <glyph glyph-name="comma" unicode="," 
d="M211 -140q11 44 21 91.5l19 93.5t14 84h107l8 -12q-7 -29 -18 -61.5t-23.5 -66l-26 -66.5t-27.5 -63h-74z" />
    <glyph glyph-name="hyphen" unicode="-" 
d="M150 230v80h300v-80h-300z" />
    <glyph glyph-name="period" unicode="." 
d="M300 -10q-26 0 -44 16t-18 52q0 38 18 53t44 15t44 -15t18 -53q0 -36 -18 -52t-44 -16z" />
    <glyph glyph-name="slash" unicode="/" 
d="M120 0l274 714h86l-274 -714h-86z" />
    <glyph glyph-name="zero" unicode="0" 
d="M299 -10q-83 0 -136 44t-78 126.5t-25 197.5q0 116 24 197.5t76.5 125t138.5 43.5q84 0 137.5 -43t78.5 -125t25 -198q0 -87 -13.5 -155t-42 -115.5t-74.5 -72.5t-111 -25zM185 100l-59 52l280 474l52 -66zM299 69q82 0 121 70.5t39 218.5q0 95 -17 158.5t-52.5 96
t-90.5 32.5q-54 0 -88 -31t-50.5 -94.5t-16.5 -161.5q0 -139 35.5 -214t119.5 -75z" />
    <glyph glyph-name="one" unicode="1" 
d="M283 0v446q0 28 0.5 60.5t1.5 63t2 52.5q-16 -9 -29 -15t-39 -19l-83 -43l-39 68l199 101h73v-714h-86zM133 0v60l150 10h86l151 -10v-60h-387z" />
    <glyph glyph-name="two" unicode="2" 
d="M70 0v76l190 187q50 49 85 91.5t53.5 83.5t18.5 86q0 64 -35 92.5t-89 28.5q-47 0 -88.5 -19t-77.5 -48l-50 62q27 24 60 43t73 30t86 11q64 0 111.5 -23t73.5 -66.5t26 -107.5q0 -54 -19.5 -102.5t-56 -95t-87.5 -96.5l-153 -149v-4h354v-80h-475z" />
    <glyph glyph-name="three" unicode="3" 
d="M261 -10q-43 0 -93 8.5t-94 30.5v85q44 -22 95 -33.5t98 -11.5q87 0 127 37t40 97q0 46 -21.5 73.5t-61.5 40t-98 12.5h-74v80h74q52 0 87 16.5t53.5 46t18.5 67.5q0 50 -31.5 78t-92.5 28q-51 0 -93.5 -17.5t-72.5 -37.5l-45 61q38 30 93 51.5t124 21.5t115.5 -23
t70 -62.5t23.5 -91.5q0 -48 -18.5 -83.5t-52 -57.5t-78.5 -30v-3q56 -7 94 -29t57.5 -58.5t19.5 -87.5q0 -60 -28 -107t-86 -74t-150 -27z" />
    <glyph glyph-name="four" unicode="4" 
d="M360 0v160h-310v74l294 484h102v-481h104v-77h-104v-160h-86zM137 237h223v178q0 27 0.5 57t1.5 59t2 53.5t2 41.5h-4q-7 -19 -20.5 -45t-23.5 -43z" />
    <glyph glyph-name="five" unicode="5" 
d="M257 -10q-47 0 -95 10t-82 29v85q34 -22 78 -33.5t91 -11.5q84 0 131 35.5t47 109.5q0 50 -21 83.5t-59.5 50.5t-90.5 17q-28 0 -60 -4.5t-57 -10.5l-44 28l27 336h356v-80h-279l-19 -206q21 5 51.5 7.5t53.5 2.5q65 0 118 -24t84.5 -72.5t31.5 -121.5
q0 -70 -30.5 -121.5t-89 -80t-142.5 -28.5z" />
    <glyph glyph-name="six" unicode="6" 
d="M308 -10q-57 0 -103 19.5t-78 59t-49.5 99.5t-17.5 140q0 77 13.5 151t49.5 134t101 95.5t168 35.5q20 0 46.5 -2t42.5 -7v-79q-17 6 -40 9t-46 3q-72 0 -119 -22.5t-74 -61.5t-39 -90.5t-14 -109.5h6q13 25 36 45t56 31.5t75 11.5q100 0 159 -58t59 -164
q0 -74 -28.5 -128t-80.5 -83t-123 -29zM307 65q65 0 106 38.5t41 126.5q0 74 -36.5 113t-107.5 39q-48 0 -84.5 -20t-56.5 -51t-20 -64q0 -26 6.5 -52t19 -49.5t31.5 -41.5t44.5 -28.5t56.5 -10.5z" />
    <glyph glyph-name="seven" unicode="7" 
d="M174 0l275 634h-389v80h480v-71l-271 -643h-95z" />
    <glyph glyph-name="eight" unicode="8" 
d="M295 -10q-69 0 -120 23t-79 65.5t-28 100.5q0 51 20 87.5t53 63t73 44.5q-32 19 -60.5 44.5t-45.5 59t-17 76.5q0 56 29 94t77 57t104 19t103 -19t75.5 -57t28.5 -94q0 -66 -38.5 -107.5t-96.5 -68.5q44 -22 80 -49.5t57 -63.5t21 -85q0 -55 -29 -98t-81.5 -67.5
t-125.5 -24.5zM298 63q71 0 108.5 34.5t37.5 87.5q0 36 -17.5 61t-52 47t-87.5 47q-40 -18 -69.5 -40.5t-45.5 -52t-16 -67.5q0 -51 34 -84t108 -33zM301 414q34 15 61 33t43 43t16 59q0 49 -33 74.5t-89 25.5q-55 0 -88 -25t-33 -75q0 -37 18 -62t46 -42t59 -31z" />
    <glyph glyph-name="nine" unicode="9" 
d="M217 -10q-23 0 -47 2.5t-41 6.5v79q17 -6 38.5 -9t45.5 -3q68 0 113 22.5t71.5 62t39 90.5t14.5 109h-6q-13 -25 -36.5 -45t-56 -31.5t-74.5 -11.5q-100 0 -159 58.5t-59 167.5q0 73 28.5 125.5t81 81.5t124.5 29q55 0 100.5 -19t78 -59.5t50 -103.5t17.5 -151
q0 -54 -8 -110.5t-28.5 -108.5t-57 -93t-93 -65t-136.5 -24zM287 332q47 0 84 18.5t58.5 51.5t21.5 75q0 26 -9.5 55.5t-28.5 56t-49 43.5t-71 17q-67 0 -107 -40t-40 -122q0 -81 37.5 -118t103.5 -37z" />
    <glyph glyph-name="colon" unicode=":" 
d="M301 410q-26 0 -44 16t-18 52q0 38 18 53t44 15t43.5 -15t17.5 -53q0 -36 -17.5 -52t-43.5 -16zM300 -10q-26 0 -44 16t-18 52q0 38 18 53t44 15t43.5 -15t17.5 -53q0 -36 -17.5 -52t-43.5 -16z" />
    <glyph glyph-name="semicolon" unicode=";" 
d="M211 -140q11 44 21 91.5l19 93.5t14 84h107l8 -12q-7 -29 -18 -61.5t-23.5 -66l-26 -66.5t-27.5 -63h-74zM323 410q-26 0 -44 16t-18 52q0 38 18 53t44 15t44 -15t18 -53q0 -36 -18 -52t-44 -16z" />
    <glyph glyph-name="less" unicode="&#x3c;" 
d="M510 116v78l-326 157l326 179v78l-420 -235v-50z" />
    <glyph glyph-name="equal" unicode="=" 
d="M70 407v80h460v-80h-460zM70 217v80h460v-80h-460z" />
    <glyph glyph-name="greater" unicode="&#x3e;" 
d="M90 116v78l326 157l-326 179v78l420 -235v-50z" />
    <glyph glyph-name="question" unicode="?" 
d="M230 202v18q0 38 9 66t31.5 53.5t60.5 52.5q34 24 54.5 45t30 46t9.5 62q0 44 -32.5 72.5t-94.5 28.5q-52 0 -93.5 -12.5t-82.5 -31.5l-32 75q41 18 88.5 32.5t114.5 14.5t115.5 -21.5t75 -60.5t26.5 -93q0 -47 -12 -81t-36.5 -61.5t-63.5 -56.5t-58.5 -49.5t-25.5 -40.5
t-6 -49v-9h-78zM273 -10q-26 0 -44 16t-18 52q0 38 18 53t44 15t44 -15t18 -53q0 -36 -18 -52t-44 -16z" />
    <glyph glyph-name="at" unicode="@" 
d="M324 -89q-100 0 -169 47t-104.5 133.5t-35.5 202.5q0 92 19.5 169t58 133t95.5 87t131 31q81 0 140.5 -43t92.5 -123t33 -191q0 -46 -6.5 -90t-20 -80t-36 -57.5t-55.5 -21.5q-34 0 -53 27t-24 61h-2q-14 -37 -42 -62.5t-70 -25.5q-61 0 -94 52t-33 136q0 66 21 116.5
t59.5 79t91.5 28.5q36 0 71 -7.5t54 -15.5l-11 -203q-1 -8 -1 -18.5v-18.5q0 -52 11 -69t24 -17q18 0 29 25.5t15.5 68t4.5 93.5q0 139 -55.5 214.5t-144.5 75.5q-76 0 -128.5 -44t-79 -122.5t-26.5 -184.5q0 -98 27 -170t81 -110.5t135 -38.5q50 0 92 11t77 27v-65
q-36 -18 -77 -29t-95 -11zM289 171q37 0 52 42.5t19 109.5l7 124q-10 4 -23 7t-27 3q-33 0 -52.5 -24t-28.5 -61t-9 -78q0 -65 17 -94t45 -29z" />
    <glyph glyph-name="A" unicode="A" 
d="M20 0l232 717h95l233 -717h-92l-159 512q-3 12 -8.5 29.5t-11 39l-10.5 41.5q-4 -20 -9.5 -41.5l-10.5 -39.5t-9 -29l-159 -512h-91zM154 219l30 80h227l26 -80h-283z" />
    <glyph glyph-name="B" unicode="B" 
d="M95 0v714h192q110 0 174 -39.5t64 -135.5q0 -70 -34 -110t-94 -50v-5q41 -7 74.5 -25t53.5 -52t20 -90q0 -65 -27.5 -111.5t-78.5 -71t-122 -24.5h-222zM180 78h121q86 0 119 36t33 93q0 39 -14.5 67.5t-49 44t-94.5 15.5h-115v-256zM180 412h115q75 0 107 28.5t32 86.5
q0 59 -34.5 84t-119.5 25h-100v-224z" />
    <glyph glyph-name="C" unicode="C" 
d="M365 -10q-105 0 -171 47t-97 129.5t-31 190.5q0 85 20 152.5t59 115.5t95 73.5t129 25.5q52 0 97.5 -11t83.5 -31l-34 -73q-31 17 -70.5 26t-76.5 9q-51 0 -90.5 -19t-66 -55.5t-40.5 -90t-14 -122.5q0 -88 21.5 -152t67.5 -98t120 -34q34 0 73.5 7.5t78.5 23.5v-85
q-40 -15 -76.5 -22t-77.5 -7z" />
    <glyph glyph-name="D" unicode="D" 
d="M70 0v714h173q95 0 165 -40t108.5 -117.5t38.5 -192.5q0 -120 -39.5 -201t-113.5 -122t-179 -41h-153zM160 78h54q128 0 188.5 72t60.5 211q0 95 -27.5 155.5t-79 90t-123.5 29.5h-73v-558z" />
    <glyph glyph-name="E" unicode="E" 
d="M95 0v714h420v-80h-330v-221h311v-80h-311v-253h330v-80h-420z" />
    <glyph glyph-name="F" unicode="F" 
d="M95 0v714h420v-80h-330v-252h311v-80h-311v-302h-90z" />
    <glyph glyph-name="G" unicode="G" 
d="M340 -10q-97 0 -163 40.5t-99 120t-33 195.5q0 120 35 204.5t103.5 129t168.5 44.5q51 0 92 -11t78 -31l-32 -75q-25 16 -59 26t-77 10q-72 0 -120.5 -34.5t-72.5 -99.5t-24 -159q0 -80 19.5 -143.5t65 -100t122.5 -36.5q32 0 56 5t43 10v212h-130v80h217v-350
q-37 -15 -85.5 -26t-104.5 -11z" />
    <glyph glyph-name="H" unicode="H" 
d="M70 0v714h90v-301h280v301h90v-714h-90v333h-280v-333h-90z" />
    <glyph glyph-name="I" unicode="I" 
d="M110 0v62l144 13v564l-144 13v62h380v-62l-146 -13v-564l146 -13v-62h-380z" />
    <glyph glyph-name="J" unicode="J" 
d="M252 -10q-38 0 -81 8t-71 21v85q23 -10 64 -20.5t81 -10.5t69 15.5t45 49.5t16 91v485h90v-497q0 -72 -24 -123t-71.5 -77.5t-117.5 -26.5z" />
    <glyph glyph-name="K" unicode="K" 
d="M70 0v714h90v-384l35 55t39 56l204 273h103l-239 -323l248 -391h-103l-206 330l-81 -93v-237h-90z" />
    <glyph glyph-name="L" unicode="L" 
d="M115 0v714h90v-631h310v-83h-400z" />
    <glyph glyph-name="M" unicode="M" 
d="M50 0v714h129l119 -419h3l119 419h130v-714h-85v387q0 20 0.5 40l1 40.5t1.5 40.5l2 40t3 39l4 37h-4l-132 -446h-83l-133 447h-4q2 -15 4 -33t3.5 -38l3 -41.5t2 -43l1 -42.5t0.5 -40v-387h-85z" />
    <glyph glyph-name="N" unicode="N" 
d="M70 0v714h119l260 -595h3q-3 29 -4.5 55.5t-2.5 52t-1.5 52.5t-0.5 57v378h87v-714h-109l-273 622h-4q2 -28 4.5 -56t4.5 -56t3 -56t1 -56v-398h-87z" />
    <glyph glyph-name="O" unicode="O" 
d="M299 -10q-67 0 -115 26.5t-79 75t-45.5 116t-14.5 149.5q0 110 26.5 193t83 129.5t145.5 46.5q67 0 115 -26t79 -75t46 -116t15 -150t-15 -151t-46 -116.5t-79.5 -75t-115.5 -26.5zM301 70q60 0 95.5 34.5t51 99t15.5 154.5q0 136 -36 212t-125 76q-60 0 -96.5 -34.5
t-52.5 -99t-16 -154.5t16 -154.5t52 -99t96 -34.5z" />
    <glyph glyph-name="P" unicode="P" 
d="M95 0v714h204q128 0 187 -54.5t59 -154.5q0 -59 -24.5 -112t-81 -85.5t-153.5 -32.5h-101v-275h-90zM185 353h91q59 0 98.5 15t59 47.5t19.5 84.5q0 74 -39.5 105t-122.5 31h-106v-283z" />
    <glyph glyph-name="Q" unicode="Q" 
d="M441 -180l-104 207l60 66l144 -273h-100zM299 -10q-67 0 -115 26.5t-79 75t-45.5 116t-14.5 149.5q0 110 26.5 193t83 129.5t145.5 46.5q67 0 115 -26t79 -75t46 -116t15 -150t-15 -151t-46 -116.5t-79.5 -75t-115.5 -26.5zM301 70q60 0 95.5 34.5t51 99t15.5 154.5
q0 136 -36 212t-125 76q-60 0 -96.5 -34.5t-52.5 -99t-16 -154.5t16 -154.5t52 -99t96 -34.5z" />
    <glyph glyph-name="R" unicode="R" 
d="M95 0v714h167q84 0 139.5 -22.5t83.5 -66.5t28 -111q0 -56 -18 -94.5t-48.5 -63t-68.5 -38.5l191 -318h-100l-172 292h-112v-292h-90zM185 370h74q59 0 94 15.5t51 46t16 74.5q0 71 -38.5 100.5t-124.5 29.5h-72v-266z" />
    <glyph glyph-name="S" unicode="S" 
d="M281 -10q-57 0 -110.5 10.5t-85.5 26.5v83q37 -16 90 -29.5t108 -13.5q51 0 85.5 14t51.5 42t17 69q0 34 -14 54t-49.5 38.5t-99.5 46.5q-42 19 -82 42t-65.5 61t-25.5 100t27.5 104t78.5 64t122 22q54 0 102 -11.5t84 -28.5l-29 -75q-34 16 -76 25.5t-83 9.5
q-39 0 -69.5 -11t-47.5 -35.5t-17 -65.5q0 -35 14.5 -57t46.5 -38.5t82 -38.5q57 -24 100.5 -48.5t68 -60.5t24.5 -98q0 -48 -15.5 -85t-47 -63t-77.5 -39.5t-108 -13.5z" />
    <glyph glyph-name="T" unicode="T" 
d="M255 0v634h-210v80h510v-80h-210v-634h-90z" />
    <glyph glyph-name="U" unicode="U" 
d="M298 -10q-82 0 -132.5 32.5t-73 92t-22.5 139.5v460h90v-455q0 -56 12.5 -99t43 -66.5t84.5 -23.5q57 0 87.5 25t41.5 68.5t11 96.5v454h90v-462q0 -74 -22 -133.5t-73 -94t-137 -34.5z" />
    <glyph glyph-name="V" unicode="V" 
d="M255 0l-230 714h94l139 -464q9 -29 16.5 -57.5l14.5 -55t12 -50.5h3q5 24 11.5 50.5l14 56t16.5 59.5l134 461h95l-226 -714h-94z" />
    <glyph glyph-name="W" unicode="W" 
d="M105 0l-80 714h83q4 -39 7.5 -78.5t7.5 -79t7.5 -79t7.5 -78.5q3 -31 6 -66t5.5 -70.5t4.5 -67.5l3.5 -57.5t1.5 -39.5h2q3 17 8 42.5l11 54.5t12.5 57.5l11.5 51.5l54 232h86l56 -234l13 -54.5t13 -56t10.5 -52l7.5 -41.5h2q1 14 2 37.5t2.5 53t3.5 64.5t5 72.5l6 76.5
q3 31 5.5 62.5t5.5 62.5t5.5 62l5 62.5t5.5 62.5h83l-72 -714h-97l-79 328q-7 30 -12 54.5t-8 42t-5 25.5h-2q-1 -8 -3.5 -25t-7.5 -41.5t-12 -55.5l-76 -328h-96z" />
    <glyph glyph-name="X" unicode="X" 
d="M35 0l223 369l-208 345h97l153 -273l155 273h95l-207 -346l222 -368h-93l-171 296l-170 -296h-96z" />
    <glyph glyph-name="Y" unicode="Y" 
d="M257 0v278l-222 436h99l167 -361l168 361h96l-222 -436v-278h-86z" />
    <glyph glyph-name="Z" unicode="Z" 
d="M95 0v71l317 565h-297v78h390v-71l-313 -563h313v-80h-410z" />
    <glyph glyph-name="bracketleft" unicode="[" 
d="M240 -158v872h225v-72h-139v-728h139v-72h-225z" />
    <glyph glyph-name="backslash" unicode="\" 
d="M480 0l-274 714h-86l274 -714h86z" />
    <glyph glyph-name="bracketright" unicode="]" 
d="M360 724v-872h-225v72h139v728h-139v72h225z" />
    <glyph glyph-name="asciicircum" unicode="^" 
d="M50 267l214 452h50l236 -452h-78l-182 359l-162 -359h-78z" />
    <glyph glyph-name="underscore" unicode="_" 
d="M0 -154v80h600v-80h-600z" />
    <glyph glyph-name="grave" unicode="`" 
d="M331 606q-17 14 -38 33.5t-41.5 41t-37 41.5t-25.5 34v10h105q11 -22 27.5 -49.5t35 -53.5t33.5 -45v-12h-59z" />
    <glyph glyph-name="a" unicode="a" 
d="M246 -10q-79 0 -127.5 39t-48.5 118q0 58 28 96.5t82.5 58t132.5 21.5l115 3v22q0 72 -36 98.5t-97 26.5q-43 0 -82 -11t-74 -31l-31 68q38 19 84.5 33t107.5 14q101 0 155.5 -45.5t54.5 -141.5v-359h-72l-10 74h-4q-22 -28 -48.5 -46.5t-58.5 -28t-71 -9.5zM261 63
q45 0 83 16.5t61 50t23 84.5v48l-96 -3q-64 -2 -103 -15.5t-56.5 -37t-17.5 -56.5q0 -46 29 -66.5t77 -20.5z" />
    <glyph glyph-name="b" unicode="b" 
d="M329 -10q-59 0 -99.5 23.5t-63.5 54.5h-6l-8 -68h-72v760h87v-184q0 -28 -0.5 -55t-3.5 -55h4q21 32 61 56t101 24q48 0 88 -17.5t68.5 -52.5t44 -87t15.5 -120q0 -69 -15.5 -121t-44.5 -87.5t-68.5 -53t-87.5 -17.5zM312 63q73 0 107 53t34 153q0 98 -34 151t-108 53
q-69 0 -106.5 -52.5t-37.5 -149.5q0 -101 35.5 -154.5t109.5 -53.5z" />
    <glyph glyph-name="c" unicode="c" 
d="M338 -10q-78 0 -135 28.5t-87.5 89t-30.5 156.5q0 103 33.5 165t93 89.5t135.5 27.5q47 0 85.5 -9.5t72.5 -27.5l-27 -73q-32 17 -62 24.5t-65 7.5q-61 0 -99.5 -22.5t-56.5 -67t-18 -112.5q0 -71 19 -115t57.5 -64t94.5 -20q44 0 83 9.5t68 22.5v-79q-30 -14 -74 -22
t-87 -8z" />
    <glyph glyph-name="d" unicode="d" 
d="M274 -10q-49 0 -89.5 17t-69.5 52t-44.5 88t-15.5 124q0 89 25.5 150.5t76.5 93t127 31.5q37 0 65.5 -10t49 -27.5t32.5 -40.5h6q-1 10 -2.5 23.5t-2.5 28t-1 27.5v213h89v-760h-74l-10 72h-4q-15 -24 -36.5 -42.5t-51 -29t-70.5 -10.5zM291 63q71 0 105.5 49.5
t34.5 134.5v20q0 59 -13 105.5t-43 73.5t-81 27q-70 0 -108.5 -52t-38.5 -159q0 -99 35.5 -149t108.5 -50z" />
    <glyph glyph-name="e" unicode="e" 
d="M337 -10q-86 0 -148 32t-95.5 93.5t-33.5 150.5q0 88 32 150.5t89 96t133 33.5q70 0 120.5 -31t78 -87.5t27.5 -135.5v-41h-389q2 -70 26.5 -111t67 -58.5t98.5 -17.5q44 0 87 12t86 32v-80q-46 -20 -92 -29t-87 -9zM153 323h297q-2 47 -18 80.5t-45.5 51.5t-72.5 18
q-67 0 -108.5 -40.5t-52.5 -109.5z" />
    <glyph glyph-name="f" unicode="f" 
d="M241 0v461h-175v62l175 13v61q0 64 24.5 100.5t68.5 52t102 15.5q44 0 77 -6t57 -14l-20 -69q-20 6 -50 10.5t-59 4.5q-52 0 -81 -22t-29 -84v-49h202v-75h-202v-461h-90z" />
    <glyph glyph-name="g" unicode="g" 
d="M276 -245q-55 0 -103.5 10.5t-89.5 27.5v80q40 -23 92.5 -34.5t97.5 -11.5q91 0 127 42.5t36 116.5v19q0 12 0.5 23t2.5 34h-4q-28 -41 -65.5 -56.5t-90.5 -15.5q-106 0 -165 72.5t-59 202.5q0 131 58.5 206t160.5 75q54 0 91 -17.5t66 -58.5h5l12 66h72v-550
q0 -76 -26 -127.5t-80 -77.5t-138 -26zM296 63q33 0 59.5 10.5t45 33t28.5 57t10 82.5v21q0 73 -17.5 118.5t-50.5 66.5t-78 21q-76 0 -111 -53.5t-35 -151.5q0 -100 36.5 -152.5t112.5 -52.5z" />
    <glyph glyph-name="h" unicode="h" 
d="M80 0v760h90v-216q0 -19 -1.5 -48t-2.5 -46h5q17 33 42.5 54t57.5 31.5t68 10.5q83 0 134.5 -46.5t51.5 -149.5v-350h-90v332q0 73 -31 107t-88 34q-44 0 -77 -23t-51 -66.5t-18 -105.5v-278h-90z" />
    <glyph glyph-name="i" unicode="i" 
d="M80 0v60l191 15v386l-175 13v62h265v-461l179 -15v-60h-460zM307 633q-26 0 -44.5 16t-18.5 47q0 33 18.5 48.5t44.5 15.5t44.5 -15.5t18.5 -48.5q0 -31 -18.5 -47t-44.5 -16z" />
    <glyph glyph-name="j" unicode="j" 
d="M192 -245q-31 0 -68.5 5t-63.5 12v79q18 -6 38.5 -10.5t42 -7.5t41.5 -3q45 0 72.5 14.5t40 44t12.5 74.5v498l-175 13v62h265v-588q0 -93 -53.5 -143t-151.5 -50zM342 633q-26 0 -44 16t-18 48t17.5 47.5t44.5 15.5q26 0 44.5 -15.5t18.5 -47.5q0 -33 -19 -48.5
t-44 -15.5z" />
    <glyph glyph-name="k" unicode="k" 
d="M105 0v760h90v-366q0 -21 -1 -47t-2.5 -53t-3.5 -51h2q19 25 36.5 45.5l36.5 42.5l185 205h108l-213 -231l227 -305h-104l-183 252l-88 -85v-167h-90z" />
    <glyph glyph-name="l" unicode="l" 
d="M80 0v60l196 15v610l-190 13v62h280v-685l174 -15v-60h-460z" />
    <glyph glyph-name="m" unicode="m" 
d="M50 0v536h62l13 -59h5q13 27 28 42t32.5 21t38.5 6q41 0 63.5 -19.5t34.5 -57.5h3q17 37 42.5 57t67.5 20q41 0 65.5 -21t35 -64t10.5 -111v-350h-80v335q0 42 -3.5 71.5t-14.5 45.5t-36 16q-24 0 -41 -22.5t-26 -66.5t-9 -111v-268h-80v335q0 43 -5 72.5t-17.5 45
t-37.5 15.5q-26 0 -42 -24.5t-22.5 -69t-6.5 -106.5v-268h-80z" />
    <glyph glyph-name="n" unicode="n" 
d="M80 0v536h72l13 -79h5q16 31 41.5 50.5t59.5 29t74 9.5q81 0 130.5 -45.5t49.5 -142.5v-358h-90v342q0 68 -27.5 99.5t-88.5 31.5q-82 0 -115.5 -52t-33.5 -146v-275h-90z" />
    <glyph glyph-name="o" unicode="o" 
d="M301 -10q-52 0 -97 17t-78.5 52t-52 87.5t-18.5 123.5q0 93 31.5 154t86.5 91.5t125 30.5t126 -30.5t88.5 -92t32.5 -156.5q0 -70 -18.5 -122t-51 -86.5t-77 -51.5t-97.5 -17zM300 63q52 0 86 25t51 71.5t17 109.5q0 64 -17 109.5t-51.5 70t-86.5 24.5
q-78 0 -116.5 -54.5t-38.5 -149.5q0 -63 17.5 -109.5t52 -71.5t86.5 -25z" />
    <glyph glyph-name="p" unicode="p" 
d="M80 -240v776h74l11 -73h4q16 26 38 44.5t52 28.5t70 10q49 0 89 -17.5t68.5 -52.5t43.5 -87t15 -120q0 -91 -26.5 -153.5t-75 -94t-114.5 -31.5q-39 0 -69.5 11t-52.5 29t-38 39h-6q3 -19 4.5 -39.5t1.5 -40.5v-229h-89zM310 63q75 0 109 51.5t34 156.5
q0 103 -33.5 152.5t-110.5 49.5q-73 0 -106.5 -47.5t-33.5 -136.5v-20q0 -95 30.5 -150.5t110.5 -55.5z" />
    <glyph glyph-name="q" unicode="q" 
d="M431 -240v229q0 13 0.5 27t1.5 28t1 28h-3q-22 -34 -59.5 -58t-97.5 -24q-48 0 -88.5 17.5t-69.5 52.5t-45 87t-16 120q0 69 16 121t46 87t70 53t88 18q59 0 96.5 -24t59.5 -58h4l13 72h72v-776h-89zM290 63q70 0 105.5 46t35.5 138v20q0 97 -31.5 151.5t-111.5 54.5
q-73 0 -107 -53t-34 -154q0 -92 34.5 -147.5t108.5 -55.5z" />
    <glyph glyph-name="r" unicode="r" 
d="M62 0v60l163 15v386l-147 13v62h219l12 -98h4q28 53 61.5 80.5t88.5 27.5q34 0 60.5 -6t48.5 -16l-24 -79q-16 9 -38 15.5t-47 6.5q-43 0 -76 -27t-52 -72t-19 -99v-194l156 -15v-60h-410z" />
    <glyph glyph-name="s" unicode="s" 
d="M279 -10q-50 0 -95.5 9t-78.5 25v83q35 -16 77.5 -29.5t101.5 -13.5q66 0 93.5 20.5t27.5 59.5q0 21 -9.5 34.5t-36.5 27.5t-79 36q-52 23 -89 43t-57 47.5t-20 70.5q0 48 24.5 79.5t71 47.5t110.5 16q44 0 84 -8t83 -26l-27 -70q-40 17 -73.5 23t-66.5 6
q-62 0 -90.5 -16t-28.5 -50q0 -22 12.5 -37t41 -29t75.5 -34q53 -22 90 -41t56 -45.5t19 -72.5q0 -51 -24.5 -85.5t-72.5 -52.5t-119 -18z" />
    <glyph glyph-name="t" unicode="t" 
d="M402 -10q-57 0 -102 15t-71.5 53t-26.5 105v298h-146v62l146 16l18 140h72v-143h209v-75h-209v-281q0 -40 11.5 -66t37.5 -38.5t67 -12.5q26 0 56 5t52 10v-72q-24 -6 -53 -11t-61 -5z" />
    <glyph glyph-name="u" unicode="u" 
d="M261 -10q-95 0 -140.5 47.5t-45.5 141.5v357h90v-343q0 -64 26.5 -97t91.5 -33q56 0 88 23.5t45.5 67.5t13.5 106v276h90v-536h-72l-13 72h-5q-19 -30 -44 -48t-56 -26t-69 -8z" />
    <glyph glyph-name="v" unicode="v" 
d="M243 0l-198 536h92l112 -318l23.5 -67l25.5 -75h3q13 40 26.5 75.5t23.5 66.5l109 318h94l-200 -536h-111z" />
    <glyph glyph-name="w" unicode="w" 
d="M102 0l-86 536h84l39 -265q6 -37 8.5 -66l5 -59t4.5 -71h3l8.5 47.5t13 66t16.5 65.5l52 181h99l50 -181q9 -30 17 -64.5l14.5 -65t8.5 -49.5h3q3 40 5 69.5t5 58.5t9 68l42 265h82l-88 -536h-108l-48 188l-21 82t-19 81h-3q-8 -40 -19.5 -81l-22.5 -82l-49 -188h-105z
" />
    <glyph glyph-name="x" unicode="x" 
d="M45 0l203 274l-193 262h101l144 -201l144 201h101l-194 -262l203 -274h-101l-153 213l-154 -213h-101z" />
    <glyph glyph-name="y" unicode="y" 
d="M136 -245q-20 0 -39 2.5t-33 5.5v69q12 -2 28.5 -4t32.5 -2q31 0 51.5 10t36 31t28.5 55l29 73l-225 541h88l128 -315q13 -31 25.5 -69t22.5 -73h3q7 25 15 49.5l15.5 48.5l14.5 45l105 314h92l-225 -606q-19 -52 -41.5 -91.5t-58 -61.5t-93.5 -22z" />
    <glyph glyph-name="z" unicode="z" 
d="M90 0v61l315 406h-299v69h396v-71l-305 -389h313v-76h-420z" />
    <glyph glyph-name="braceleft" unicode="{" 
d="M460 -158q-61 1 -105.5 18t-68.5 52.5t-24 88.5v147q0 51 -31.5 72.5t-90.5 21.5v73q59 1 90.5 22t31.5 71v148q0 53 25 88t70 52.5t103 17.5v-72q-34 -1 -59 -11t-38.5 -30t-13.5 -53v-144q0 -51 -27 -81.5t-82 -40.5v-6q56 -10 82.5 -40.5t26.5 -81.5v-147
q0 -49 29 -70.5t82 -22.5v-72z" />
    <glyph glyph-name="bar" unicode="|" 
d="M264 -240v1000h73v-1000h-73z" />
    <glyph glyph-name="braceright" unicode="}" 
d="M140 714q61 -1 105.5 -18t68.5 -52.5t24 -88.5v-147q0 -51 31.5 -72.5t90.5 -21.5v-73q-59 -1 -90.5 -22t-31.5 -71v-148q0 -53 -25 -88t-70 -52.5t-103 -17.5v72q34 1 59 11t38.5 30t13.5 53v144q0 51 27 81.5t82 40.5v6q-56 10 -82.5 40.5t-26.5 81.5v147
q0 49 -29 70.5t-82 22.5v72z" />
    <glyph glyph-name="asciitilde" unicode="~" 
d="M85 287v78q24 26 54 39.5t66 13.5q25 0 48.5 -7t62.5 -25q29 -13 47.5 -20t36.5 -7q29 0 60 17t55 42v-77q-24 -26 -54 -40t-66 -14q-25 0 -49 8t-63 24q-29 13 -47.5 20t-36.5 7q-28 0 -59 -17t-55 -42z" />
    <glyph glyph-name="uni00A0" unicode="&#xa0;" 
 />
    <glyph glyph-name="exclamdown" unicode="&#xa1;" 
d="M338 327l16 -512h-109l16 512h77zM300 539q26 0 44 -16t18 -52q0 -38 -18 -53t-44 -15t-44 15t-18 53q0 36 18 52t44 16z" />
    <glyph glyph-name="cent" unicode="&#xa2;" 
d="M295 -10v100q-62 9 -108 39t-71.5 87t-25.5 146q0 87 25.5 145.5t72 91t107.5 41.5v84h68v-80q41 -1 81.5 -9.5t65.5 -19.5l-26 -73q-26 10 -61 18t-73 8q-58 0 -95.5 -22.5t-56 -68t-18.5 -114.5t19 -113t56 -65t91 -21q47 0 85.5 8.5t69.5 21.5v-77
q-27 -13 -61.5 -20.5t-77.5 -9.5v-97h-67z" />
    <glyph glyph-name="sterling" unicode="&#xa3;" 
d="M90 0v74q27 7 48 23.5t33 45t12 72.5v105h-90v66h90v148q0 89 50.5 139t133.5 50q46 0 81 -10.5t68 -30.5l-31 -68q-28 18 -55 26t-55 8q-52 0 -78 -28.5t-26 -94.5v-139h177v-66h-177v-104q0 -27 -9 -54.5t-23 -49t-30 -32.5h316v-80h-435z" />
    <glyph glyph-name="currency" unicode="&#xa4;" 
d="M481 131l-68 65q-24 -16 -52 -25.5t-60 -9.5t-61.5 10t-52.5 26l-67 -65l-49 48l66 67q-16 24 -26 53t-10 60t10 60t26 52l-67 69l50 48l67 -65q23 17 52.5 26.5t61.5 9.5t59.5 -9.5t52.5 -26.5l68 65l49 -48l-65 -68q15 -23 25.5 -52.5t10.5 -61.5q0 -31 -9.5 -60
t-26.5 -53l64 -67zM301 229q37 0 67 15.5t47.5 45t17.5 70.5q0 42 -17.5 72t-47.5 46t-67 16q-36 0 -66 -16t-48 -46t-18 -72q0 -41 18 -70.5t48 -45t66 -15.5z" />
    <glyph glyph-name="yen" unicode="&#xa5;" 
d="M256 0v129h-144v64h144v82h-144v64h115l-192 375h93l171 -349l174 349h92l-196 -375h119v-64h-146v-82h146v-64h-146v-129h-86z" />
    <glyph glyph-name="brokenbar" unicode="&#xa6;" 
d="M263 379v381h73v-381h-73zM263 -241v381h73v-381h-73z" />
    <glyph glyph-name="section" unicode="&#xa7;" 
d="M276 -10q-55 0 -96 8.5t-71 24.5v74q21 -10 48.5 -20t59 -16.5t62.5 -6.5q71 0 99.5 22.5t28.5 50.5q0 20 -9 36t-36.5 32.5t-81.5 37.5q-51 20 -87.5 40.5t-56 49.5t-19.5 72q0 49 25 79.5t56 45.5q-37 19 -57.5 48.5t-20.5 69.5q0 59 49.5 93t143.5 34q56 0 94.5 -9.5
t73.5 -23.5l-26 -63q-32 15 -64.5 23t-80.5 8q-59 0 -83.5 -16.5t-24.5 -43.5q0 -18 11 -33.5t38.5 -31t77.5 -34.5q51 -19 87 -40.5t55 -49.5t19 -68q0 -50 -23.5 -82.5t-53.5 -49.5q36 -19 56 -48t20 -70q0 -68 -56 -105.5t-157 -37.5zM351 280q24 14 45 35.5t21 54.5
q0 25 -13.5 45t-47 38t-94.5 37q-28 -7 -51 -30t-23 -55q0 -24 13.5 -43t44.5 -36.5t84 -37.5z" />
    <glyph glyph-name="dieresis" unicode="&#xa8;" 
d="M415 622q-22 0 -38 14.5t-16 44.5q0 31 16 44t38 13t38.5 -13t16.5 -44q0 -30 -16.5 -44.5t-38.5 -14.5zM186 622q-22 0 -38 14.5t-16 44.5q0 31 16 44t38 13t38.5 -13t16.5 -44q0 -30 -16.5 -44.5t-38.5 -14.5z" />
    <glyph glyph-name="copyright" unicode="&#xa9;" 
d="M300 104q-80 0 -137.5 32.5t-88 90t-30.5 132.5q0 77 32 134.5t90 90t136 32.5q79 0 135.5 -32.5t87.5 -90t31 -132.5q0 -77 -32 -135t-89.5 -90t-134.5 -32zM312 200q-73 0 -108 43.5t-35 112.5q0 72 37 117.5t105 45.5q23 0 46 -5.5t42 -15.5l-21 -47q-17 9 -33.5 13
t-31.5 4q-41 0 -63.5 -28t-22.5 -84q0 -51 20.5 -79t63.5 -28q17 0 37 4t38 11v-49q-16 -7 -34 -11t-40 -4zM300 151q61 0 106.5 25t71.5 71.5t26 110.5t-25.5 111t-71.5 72.5t-108 25.5q-60 0 -106 -25t-71.5 -71t-25.5 -110q0 -63 25.5 -110.5t71.5 -73.5t107 -26z" />
    <glyph glyph-name="ordfeminine" unicode="&#xaa;" 
d="M255 383q-47 0 -75 24.5t-28 71.5q0 35 17 58.5t52 35.5t89 14l56 2v22q0 33 -20.5 46t-51.5 13q-26 0 -51.5 -7.5t-48.5 -18.5l-22 49q26 13 58 21t69 8q63 0 96 -27t33 -86v-220h-47l-12 42q-20 -21 -48 -34.5t-66 -13.5zM275 434q46 0 68.5 23.5t22.5 63.5v23l-48 -2
q-60 -2 -81 -17.5t-21 -42.5t15.5 -37.5t43.5 -10.5z" />
    <glyph glyph-name="guillemotleft" unicode="&#xab;" 
d="M453 52l-170 205v13l170 206l58 -42l-136 -170l136 -171zM257 53l-168 204v13l168 206l59 -44l-136 -168l135 -171z" />
    <glyph glyph-name="logicalnot" unicode="&#xac;" 
d="M444 128v189h-369v71h440v-260h-71z" />
    <glyph glyph-name="uni00AD" unicode="&#xad;" 
d="M150 230v80h300v-80h-300z" />
    <glyph glyph-name="registered" unicode="&#xae;" 
d="M300 104q-80 0 -137.5 32.5t-88 90t-30.5 132.5q0 77 32 134.5t90 90t136 32.5q79 0 135.5 -32.5t87.5 -90t31 -132.5q0 -77 -32 -135t-89.5 -90t-134.5 -32zM300 151q61 0 106.5 25t71.5 71.5t26 110.5t-25.5 111t-71.5 72.5t-108 25.5q-60 0 -106 -25t-71.5 -71
t-25.5 -110q0 -63 25.5 -110.5t71.5 -73.5t107 -26zM210 207v309h87q57 0 84 -24.5t27 -66.5q0 -37 -17.5 -58t-37.5 -29l81 -131h-61l-69 118h-43v-118h-51zM261 369h35q27 0 43.5 13t16.5 39q0 25 -15 37t-46 12h-34v-101z" />
    <glyph glyph-name="overscore" unicode="&#xaf;" 
d="M152 618v71h297v-71h-297z" />
    <glyph glyph-name="degree" unicode="&#xb0;" 
d="M301 421q-45 0 -79.5 20t-53.5 54t-19 77t20 77.5t54.5 54.5t77.5 20q42 0 76 -20t54 -54.5t20 -77.5t-19 -77t-53 -54t-78 -20zM302 480q38 0 63.5 24.5t25.5 67.5t-25.5 67.5t-63.5 24.5q-40 0 -66 -24t-26 -68q0 -42 27.5 -67t64.5 -25z" />
    <glyph glyph-name="plusminus" unicode="&#xb1;" 
d="M262 124v196h-186v71h186v197h72v-197h186v-71h-186v-196h-72zM80 0v71h440v-71h-440z" />
    <glyph glyph-name="uni00B2" unicode="&#xb2;" 
d="M155 416v54l115 112q42 40 64 64.5t30 43.5t8 41q0 32 -20 48t-52 16q-30 0 -54.5 -11.5t-50.5 -31.5l-35 46q29 25 63.5 40t77.5 15q65 0 102 -31.5t37 -86.5q0 -33 -13 -60t-39 -55t-65 -65l-81 -77h213v-62h-300z" />
    <glyph glyph-name="uni00B3" unicode="&#xb3;" 
d="M278 408q-33 0 -63 6.5t-60 21.5v63q34 -16 65.5 -25t61.5 -9q47 0 69 20.5t22 53.5q0 38 -27 54.5t-76 16.5h-57v55h57q47 0 68.5 19.5t21.5 50.5q0 32 -18.5 46.5t-47.5 14.5q-25 0 -50 -10.5t-51 -27.5l-36 46q31 23 63 36t76 13q67 0 101.5 -30.5t34.5 -80.5
q0 -40 -19.5 -65.5t-46.5 -35.5v-3q36 -7 57.5 -32.5t21.5 -68.5q0 -56 -40.5 -92.5t-126.5 -36.5z" />
    <glyph glyph-name="acute" unicode="&#xb4;" 
d="M246 606v12q15 19 32.5 45l34.5 53.5t28 49.5h106v-10q-12 -18 -37 -46.5t-53.5 -57t-52.5 -46.5h-58z" />
    <glyph glyph-name="uni00B5" unicode="&#xb5;" 
d="M75 -240v467h90v-467h-90zM261 -10q-95 0 -140.5 47.5t-45.5 141.5v357h90v-343q0 -64 26.5 -97t91.5 -33q56 0 88 23.5t45.5 67.5t13.5 106v276h90v-536h-72l-13 72h-5q-19 -30 -44 -48t-56 -26t-69 -8z" />
    <glyph glyph-name="paragraph" unicode="&#xb6;" 
d="M321 -127v400q-16 -4 -38.5 -6.5t-42.5 -2.5q-57 0 -100 23t-66.5 77t-23.5 145q0 96 26 150.5t72 77.5t107 23h284v-887h-58v831h-102v-831h-58z" />
    <glyph glyph-name="periodcentered" unicode="&#xb7;" 
d="M300 272q-26 0 -44 16t-18 52q0 38 18 53t44 15t44 -15t18 -53q0 -36 -18 -52t-44 -16z" />
    <glyph glyph-name="cedilla" unicode="&#xb8;" 
d="M250 -240q-16 0 -29.5 1.5t-21.5 3.5v55q9 -2 24 -3.5t29 -1.5q35 0 54.5 9.5t19.5 33.5q0 26 -23.5 38t-67.5 18l43 91h58l-26 -58q36 -8 61.5 -27.5t25.5 -60.5q0 -46 -37 -72.5t-110 -26.5z" />
    <glyph glyph-name="uni00B9" unicode="&#xb9;" 
d="M283 416v276q0 26 0.5 45t1.5 40q-10 -9 -21 -17t-23 -15l-59 -33l-34 56l133 76h67v-428h-65zM180 416v51l106 7h55l114 -7v-51h-275z" />
    <glyph glyph-name="ordmasculine" unicode="&#xba;" 
d="M298 383q-66 0 -105.5 43.5t-39.5 126.5q0 82 39.5 125.5t107.5 43.5q44 0 77 -19.5t51 -57t18 -92.5q0 -84 -40 -127t-108 -43zM299 436q44 0 63.5 29.5t19.5 87.5q0 40 -8.5 65.5t-27 38t-47.5 12.5q-43 0 -63 -31t-20 -85q0 -58 19.5 -87.5t63.5 -29.5z" />
    <glyph glyph-name="guillemotright" unicode="&#xbb;" 
d="M148 477l170 -205v-13l-170 -206l-58 42l136 170l-136 171zM344 476l168 -204v-13l-168 -206l-59 44l136 168l-135 171z" />
    <glyph glyph-name="onequarter" unicode="&#xbc;" 
d="M83 0l370 714h76l-369 -714h-77zM32 367v51l80 7h55l88 -7v-51h-223zM458 0v78h-158v52l155 219h67v-215h52v-56h-52v-78h-64zM370 134h88v74q0 20 1 32.5t1 30.5q-4 -9 -11.5 -21l-15.5 -24zM109 367v195q0 26 0.5 45t1.5 40q-10 -9 -21 -17t-23 -15l-29 -16l-34 56
l103 59h67v-347h-65z" />
    <glyph glyph-name="onehalf" unicode="&#xbd;" 
d="M83 0l370 714h76l-369 -714h-77zM32 367v51l80 7h55l88 -7v-51h-223zM331 0v54l89 84q32 30 48.5 47.5t23 31.5t6.5 31q0 24 -14.5 36.5t-37.5 12.5q-22 0 -39.5 -9.5t-36.5 -24.5l-35 46q23 20 50.5 33t61.5 13q56 0 87.5 -27.5t31.5 -75.5q0 -26 -10 -47t-30.5 -43
t-52.5 -51l-55 -49h156v-62h-243zM109 367v195q0 26 0.5 45t1.5 40q-10 -9 -21 -17t-23 -15l-29 -16l-34 56l103 59h67v-347h-65z" />
    <glyph glyph-name="threequarters" unicode="&#xbe;" 
d="M83 0l370 714h76l-369 -714h-77zM458 0v78h-158v52l155 219h67v-215h52v-56h-52v-78h-64zM370 134h88v74q0 20 1 32.5t1 30.5q-4 -9 -11.5 -21l-15.5 -24zM118 361q-25 0 -47 4.5t-44 14.5v63q26 -12 49.5 -18.5t45.5 -6.5q35 0 51.5 14.5t16.5 38.5q0 26 -20.5 36.5
t-55.5 10.5h-48v55h48q35 0 51 13.5t16 35.5q0 23 -14 33.5t-36 10.5q-19 0 -37.5 -8t-38.5 -21l-36 46q26 18 52 29t62 11q59 0 89.5 -26.5t30.5 -69.5q0 -31 -14.5 -50t-35.5 -25v-3q59 -17 59 -78q0 -49 -34 -79.5t-110 -30.5z" />
    <glyph glyph-name="questiondown" unicode="&#xbf;" 
d="M346 327v-18q0 -38 -9 -66t-31.5 -53.5t-60.5 -52.5q-34 -24 -54.5 -45t-30 -46t-9.5 -62q0 -44 32.5 -72.5t94.5 -28.5q52 0 93.5 12.5t82.5 31.5l32 -75q-41 -18 -88.5 -32.5t-114.5 -14.5t-115.5 21.5t-75 60.5t-26.5 93q0 47 12 81t36.5 61.5t63.5 56.5t58.5 49.5
t25.5 40.5t6 49v9h78zM303 539q26 0 44 -16t18 -52q0 -38 -18 -53t-44 -15t-44 15t-18 53q0 36 18 52t44 16z" />
    <glyph glyph-name="Agrave" unicode="&#xc0;" 
d="M20 0l232 717h95l233 -717h-92l-159 512q-3 12 -8.5 29.5t-11 39l-10.5 41.5q-4 -20 -9.5 -41.5l-10.5 -39.5t-9 -29l-159 -512h-91zM154 219l30 80h227l26 -80h-283zM311 784q-17 14 -38 33.5t-41.5 41t-37 41.5t-25.5 34v10h105q11 -22 27.5 -49.5t35 -53.5t33.5 -45
v-12h-59z" />
    <glyph glyph-name="Aacute" unicode="&#xc1;" 
d="M20 0l232 717h95l233 -717h-92l-159 512q-3 12 -8.5 29.5t-11 39l-10.5 41.5q-4 -20 -9.5 -41.5l-10.5 -39.5t-9 -29l-159 -512h-91zM154 219l30 80h227l26 -80h-283zM259 784v12q15 19 32.5 45l34.5 53.5t28 49.5h106v-10q-12 -18 -37 -46.5t-53.5 -57t-52.5 -46.5h-58z
" />
    <glyph glyph-name="Acircumflex" unicode="&#xc2;" 
d="M20 0l232 717h95l233 -717h-92l-159 512q-3 12 -8.5 29.5t-11 39l-10.5 41.5q-4 -20 -9.5 -41.5l-10.5 -39.5t-9 -29l-159 -512h-91zM154 219l30 80h227l26 -80h-283zM131 784v11l42.5 46t45.5 53.5t35 49.5h90q12 -22 34.5 -49.5t47 -54l43.5 -45.5v-11h-62
q-26 16 -54 43l-55 54l-54 -53.5t-53 -43.5h-60z" />
    <glyph glyph-name="Atilde" unicode="&#xc3;" 
d="M20 0l232 717h95l233 -717h-92l-159 512q-3 12 -8.5 29.5t-11 39l-10.5 41.5q-4 -20 -9.5 -41.5l-10.5 -39.5t-9 -29l-159 -512h-91zM154 219l30 80h227l26 -80h-283zM120 784q3 30 11.5 53.5t22.5 40t33 25.5t43 9q21 0 40.5 -8.5t37.5 -20t34.5 -20t32.5 -8.5
q23 0 35.5 14.5t19.5 43.5h50q-6 -58 -34 -93t-75 -35q-21 0 -40 8.5t-36.5 20t-34.5 20t-34 8.5q-24 0 -36 -14.5t-19 -43.5h-51z" />
    <glyph glyph-name="Adieresis" unicode="&#xc4;" 
d="M20 0l232 717h95l233 -717h-92l-159 512q-3 12 -8.5 29.5t-11 39l-10.5 41.5q-4 -20 -9.5 -41.5l-10.5 -39.5t-9 -29l-159 -512h-91zM154 219l30 80h227l26 -80h-283zM414 800q-22 0 -38 14.5t-16 44.5q0 31 16 44t38 13t38.5 -13t16.5 -44q0 -30 -16.5 -44.5
t-38.5 -14.5zM185 800q-22 0 -38 14.5t-16 44.5q0 31 16 44t38 13t38.5 -13t16.5 -44q0 -30 -16.5 -44.5t-38.5 -14.5z" />
    <glyph glyph-name="Aring" unicode="&#xc5;" 
d="M20 0l232 717h95l233 -717h-92l-159 512q-3 12 -8.5 29.5t-11 39l-10.5 41.5q-4 -20 -9.5 -41.5l-10.5 -39.5t-9 -29l-159 -512h-91zM154 219l30 80h227l26 -80h-283zM299 784q-49 0 -79 28t-30 78t30 77.5t79 27.5q47 0 79 -27.5t32 -76.5q0 -51 -31.5 -79t-79.5 -28z
M299 836q24 0 39 14.5t15 39.5q0 26 -15.5 40t-38.5 14q-22 0 -37.5 -14t-15.5 -40q0 -25 15 -39.5t38 -14.5z" />
    <glyph glyph-name="AE" unicode="&#xc6;" 
d="M20 0l160 714h363v-80h-180v-221h161v-79h-161v-254h180v-80h-266v634h-35l-135 -634h-87zM123 219l21 77h156v-77h-177z" />
    <glyph glyph-name="Ccedilla" unicode="&#xc7;" 
d="M365 -10q-105 0 -171 47t-97 129.5t-31 190.5q0 85 20 152.5t59 115.5t95 73.5t129 25.5q52 0 97.5 -11t83.5 -31l-34 -73q-31 17 -70.5 26t-76.5 9q-51 0 -90.5 -19t-66 -55.5t-40.5 -90t-14 -122.5q0 -88 21.5 -152t67.5 -98t120 -34q34 0 73.5 7.5t78.5 23.5v-85
q-40 -15 -76.5 -22t-77.5 -7zM298 -240q-16 0 -29.5 1.5t-21.5 3.5v55q9 -2 24 -3.5t29 -1.5q35 0 54.5 9.5t19.5 33.5q0 26 -23.5 38t-67.5 18l43 91h58l-26 -58q36 -8 61.5 -27.5t25.5 -60.5q0 -46 -37 -72.5t-110 -26.5z" />
    <glyph glyph-name="Egrave" unicode="&#xc8;" 
d="M95 0v714h420v-80h-330v-221h311v-80h-311v-253h330v-80h-420zM317 784q-17 14 -38 33.5t-41.5 41t-37 41.5t-25.5 34v10h105q11 -22 27.5 -49.5t35 -53.5t33.5 -45v-12h-59z" />
    <glyph glyph-name="Eacute" unicode="&#xc9;" 
d="M95 0v714h420v-80h-330v-221h311v-80h-311v-253h330v-80h-420zM265 784v12q15 19 32.5 45l34.5 53.5t28 49.5h106v-10q-12 -18 -37 -46.5t-53.5 -57t-52.5 -46.5h-58z" />
    <glyph glyph-name="Ecircumflex" unicode="&#xca;" 
d="M95 0v714h420v-80h-330v-221h311v-80h-311v-253h330v-80h-420zM137 784v11l42.5 46t45.5 53.5t35 49.5h90q12 -22 34.5 -49.5t47 -54l43.5 -45.5v-11h-62q-26 16 -54 43l-55 54l-54 -53.5t-53 -43.5h-60z" />
    <glyph glyph-name="Edieresis" unicode="&#xcb;" 
d="M95 0v714h420v-80h-330v-221h311v-80h-311v-253h330v-80h-420zM420 800q-22 0 -38 14.5t-16 44.5q0 31 16 44t38 13t38.5 -13t16.5 -44q0 -30 -16.5 -44.5t-38.5 -14.5zM191 800q-22 0 -38 14.5t-16 44.5q0 31 16 44t38 13t38.5 -13t16.5 -44q0 -30 -16.5 -44.5
t-38.5 -14.5z" />
    <glyph glyph-name="Igrave" unicode="&#xcc;" 
d="M110 0v62l144 13v564l-144 13v62h380v-62l-146 -13v-564l146 -13v-62h-380zM311 784q-17 14 -38 33.5t-41.5 41t-37 41.5t-25.5 34v10h105q11 -22 27.5 -49.5t35 -53.5t33.5 -45v-12h-59z" />
    <glyph glyph-name="Iacute" unicode="&#xcd;" 
d="M110 0v62l144 13v564l-144 13v62h380v-62l-146 -13v-564l146 -13v-62h-380zM259 784v12q15 19 32.5 45l34.5 53.5t28 49.5h106v-10q-12 -18 -37 -46.5t-53.5 -57t-52.5 -46.5h-58z" />
    <glyph glyph-name="Icircumflex" unicode="&#xce;" 
d="M110 0v62l144 13v564l-144 13v62h380v-62l-146 -13v-564l146 -13v-62h-380zM131 784v11l42.5 46t45.5 53.5t35 49.5h90q12 -22 34.5 -49.5t47 -54l43.5 -45.5v-11h-62q-26 16 -54 43l-55 54l-54 -53.5t-53 -43.5h-60z" />
    <glyph glyph-name="Idieresis" unicode="&#xcf;" 
d="M110 0v62l144 13v564l-144 13v62h380v-62l-146 -13v-564l146 -13v-62h-380zM414 800q-22 0 -38 14.5t-16 44.5q0 31 16 44t38 13t38.5 -13t16.5 -44q0 -30 -16.5 -44.5t-38.5 -14.5zM185 800q-22 0 -38 14.5t-16 44.5q0 31 16 44t38 13t38.5 -13t16.5 -44
q0 -30 -16.5 -44.5t-38.5 -14.5z" />
    <glyph glyph-name="Eth" unicode="&#xd0;" 
d="M0 314v78h292v-78h-292zM80 0v714h173q95 0 165 -40t108.5 -117.5t38.5 -192.5q0 -120 -39.5 -201t-113.5 -122t-179 -41h-153zM170 78h54q128 0 188.5 72t60.5 211q0 95 -27.5 155.5t-79 90t-123.5 29.5h-73v-558z" />
    <glyph glyph-name="Ntilde" unicode="&#xd1;" 
d="M70 0v714h119l260 -595h3q-3 29 -4.5 55.5t-2.5 52t-1.5 52.5t-0.5 57v378h87v-714h-109l-273 622h-4q2 -28 4.5 -56t4.5 -56t3 -56t1 -56v-398h-87zM125 784q3 30 11.5 53.5t22.5 40t33 25.5t43 9q21 0 40.5 -8.5t37.5 -20t34.5 -20t32.5 -8.5q23 0 35.5 14.5t19.5 43.5
h50q-6 -58 -34 -93t-75 -35q-21 0 -40 8.5t-36.5 20t-34.5 20t-34 8.5q-24 0 -36 -14.5t-19 -43.5h-51z" />
    <glyph glyph-name="Ograve" unicode="&#xd2;" 
d="M299 -10q-67 0 -115 26.5t-79 75t-45.5 116t-14.5 149.5q0 110 26.5 193t83 129.5t145.5 46.5q67 0 115 -26t79 -75t46 -116t15 -150t-15 -151t-46 -116.5t-79.5 -75t-115.5 -26.5zM301 70q60 0 95.5 34.5t51 99t15.5 154.5q0 136 -36 212t-125 76q-60 0 -96.5 -34.5
t-52.5 -99t-16 -154.5t16 -154.5t52 -99t96 -34.5zM311 784q-17 14 -38 33.5t-41.5 41t-37 41.5t-25.5 34v10h105q11 -22 27.5 -49.5t35 -53.5t33.5 -45v-12h-59z" />
    <glyph glyph-name="Oacute" unicode="&#xd3;" 
d="M299 -10q-67 0 -115 26.5t-79 75t-45.5 116t-14.5 149.5q0 110 26.5 193t83 129.5t145.5 46.5q67 0 115 -26t79 -75t46 -116t15 -150t-15 -151t-46 -116.5t-79.5 -75t-115.5 -26.5zM301 70q60 0 95.5 34.5t51 99t15.5 154.5q0 136 -36 212t-125 76q-60 0 -96.5 -34.5
t-52.5 -99t-16 -154.5t16 -154.5t52 -99t96 -34.5zM259 784v12q15 19 32.5 45l34.5 53.5t28 49.5h106v-10q-12 -18 -37 -46.5t-53.5 -57t-52.5 -46.5h-58z" />
    <glyph glyph-name="Ocircumflex" unicode="&#xd4;" 
d="M299 -10q-67 0 -115 26.5t-79 75t-45.5 116t-14.5 149.5q0 110 26.5 193t83 129.5t145.5 46.5q67 0 115 -26t79 -75t46 -116t15 -150t-15 -151t-46 -116.5t-79.5 -75t-115.5 -26.5zM301 70q60 0 95.5 34.5t51 99t15.5 154.5q0 136 -36 212t-125 76q-60 0 -96.5 -34.5
t-52.5 -99t-16 -154.5t16 -154.5t52 -99t96 -34.5zM131 784v11l42.5 46t45.5 53.5t35 49.5h90q12 -22 34.5 -49.5t47 -54l43.5 -45.5v-11h-62q-26 16 -54 43l-55 54l-54 -53.5t-53 -43.5h-60z" />
    <glyph glyph-name="Otilde" unicode="&#xd5;" 
d="M299 -10q-67 0 -115 26.5t-79 75t-45.5 116t-14.5 149.5q0 110 26.5 193t83 129.5t145.5 46.5q67 0 115 -26t79 -75t46 -116t15 -150t-15 -151t-46 -116.5t-79.5 -75t-115.5 -26.5zM301 70q60 0 95.5 34.5t51 99t15.5 154.5q0 136 -36 212t-125 76q-60 0 -96.5 -34.5
t-52.5 -99t-16 -154.5t16 -154.5t52 -99t96 -34.5zM120 784q3 30 11.5 53.5t22.5 40t33 25.5t43 9q21 0 40.5 -8.5t37.5 -20t34.5 -20t32.5 -8.5q23 0 35.5 14.5t19.5 43.5h50q-6 -58 -34 -93t-75 -35q-21 0 -40 8.5t-36.5 20t-34.5 20t-34 8.5q-24 0 -36 -14.5t-19 -43.5
h-51z" />
    <glyph glyph-name="Odieresis" unicode="&#xd6;" 
d="M299 -10q-67 0 -115 26.5t-79 75t-45.5 116t-14.5 149.5q0 110 26.5 193t83 129.5t145.5 46.5q67 0 115 -26t79 -75t46 -116t15 -150t-15 -151t-46 -116.5t-79.5 -75t-115.5 -26.5zM301 70q60 0 95.5 34.5t51 99t15.5 154.5q0 136 -36 212t-125 76q-60 0 -96.5 -34.5
t-52.5 -99t-16 -154.5t16 -154.5t52 -99t96 -34.5zM414 800q-22 0 -38 14.5t-16 44.5q0 31 16 44t38 13t38.5 -13t16.5 -44q0 -30 -16.5 -44.5t-38.5 -14.5zM185 800q-22 0 -38 14.5t-16 44.5q0 31 16 44t38 13t38.5 -13t16.5 -44q0 -30 -16.5 -44.5t-38.5 -14.5z" />
    <glyph glyph-name="multiply" unicode="&#xd7;" 
d="M136 138l-50 49l164 166l-165 165l50 50l165 -166l167 166l49 -49l-166 -166l165 -166l-49 -49l-167 164z" />
    <glyph glyph-name="Oslash" unicode="&#xd8;" 
d="M121 -38l-65 35l430 752l64 -35zM299 -10q-67 0 -115 26.5t-79 75t-45.5 116t-14.5 149.5q0 110 26.5 193t83 129.5t145.5 46.5q67 0 115 -26t79 -75t46 -116t15 -150t-15 -151t-46 -116.5t-79.5 -75t-115.5 -26.5zM301 70q60 0 95.5 34.5t51 99t15.5 154.5
q0 136 -36 212t-125 76q-60 0 -96.5 -34.5t-52.5 -99t-16 -154.5t16 -154.5t52 -99t96 -34.5z" />
    <glyph glyph-name="Ugrave" unicode="&#xd9;" 
d="M298 -10q-82 0 -132.5 32.5t-73 92t-22.5 139.5v460h90v-455q0 -56 12.5 -99t43 -66.5t84.5 -23.5q57 0 87.5 25t41.5 68.5t11 96.5v454h90v-462q0 -74 -22 -133.5t-73 -94t-137 -34.5zM311 784q-17 14 -38 33.5t-41.5 41t-37 41.5t-25.5 34v10h105q11 -22 27.5 -49.5
t35 -53.5t33.5 -45v-12h-59z" />
    <glyph glyph-name="Uacute" unicode="&#xda;" 
d="M298 -10q-82 0 -132.5 32.5t-73 92t-22.5 139.5v460h90v-455q0 -56 12.5 -99t43 -66.5t84.5 -23.5q57 0 87.5 25t41.5 68.5t11 96.5v454h90v-462q0 -74 -22 -133.5t-73 -94t-137 -34.5zM259 784v12q15 19 32.5 45l34.5 53.5t28 49.5h106v-10q-12 -18 -37 -46.5t-53.5 -57
t-52.5 -46.5h-58z" />
    <glyph glyph-name="Ucircumflex" unicode="&#xdb;" 
d="M298 -10q-82 0 -132.5 32.5t-73 92t-22.5 139.5v460h90v-455q0 -56 12.5 -99t43 -66.5t84.5 -23.5q57 0 87.5 25t41.5 68.5t11 96.5v454h90v-462q0 -74 -22 -133.5t-73 -94t-137 -34.5zM131 784v11l42.5 46t45.5 53.5t35 49.5h90q12 -22 34.5 -49.5t47 -54l43.5 -45.5
v-11h-62q-26 16 -54 43l-55 54l-54 -53.5t-53 -43.5h-60z" />
    <glyph glyph-name="Udieresis" unicode="&#xdc;" 
d="M298 -10q-82 0 -132.5 32.5t-73 92t-22.5 139.5v460h90v-455q0 -56 12.5 -99t43 -66.5t84.5 -23.5q57 0 87.5 25t41.5 68.5t11 96.5v454h90v-462q0 -74 -22 -133.5t-73 -94t-137 -34.5zM414 800q-22 0 -38 14.5t-16 44.5q0 31 16 44t38 13t38.5 -13t16.5 -44
q0 -30 -16.5 -44.5t-38.5 -14.5zM185 800q-22 0 -38 14.5t-16 44.5q0 31 16 44t38 13t38.5 -13t16.5 -44q0 -30 -16.5 -44.5t-38.5 -14.5z" />
    <glyph glyph-name="Yacute" unicode="&#xdd;" 
d="M257 0v278l-222 436h99l167 -361l168 361h96l-222 -436v-278h-86zM259 784v12q15 19 32.5 45l34.5 53.5t28 49.5h106v-10q-12 -18 -37 -46.5t-53.5 -57t-52.5 -46.5h-58z" />
    <glyph glyph-name="Thorn" unicode="&#xde;" 
d="M95 0v714h90v-130h114q128 0 187 -54.5t59 -154.5q0 -59 -24.5 -112t-81 -85.5t-153.5 -32.5h-101v-145h-90zM185 223h91q59 0 98.5 15t59 47.5t19.5 84.5q0 68 -39.5 102t-122.5 34h-106v-283z" />
    <glyph glyph-name="germandbls" unicode="&#xdf;" 
d="M385 -10q-43 0 -79 9t-62 25v81q26 -16 64 -29t80 -13q53 0 76 23.5t23 66.5q0 25 -8.5 41t-28.5 32t-57 41q-37 26 -61 46t-35.5 41t-11.5 49q0 34 13.5 57t34 39.5l40.5 32t33.5 34t13.5 44.5q0 41 -34.5 60t-90.5 19q-35 0 -65 -9.5t-48.5 -32.5t-18.5 -66v-581h-88
v584q0 67 29 106.5t78.5 57t112.5 17.5q65 0 113.5 -16.5t75.5 -48.5t27 -80q0 -36 -14 -62t-35 -45.5t-42 -35.5t-35 -32.5t-14 -37.5q0 -13 8 -23.5t27.5 -23.5t52.5 -37q35 -24 61 -47t40.5 -52.5t14.5 -73.5q0 -55 -24 -90.5t-66.5 -52.5t-99.5 -17z" />
    <glyph glyph-name="agrave" unicode="&#xe0;" 
d="M246 -10q-79 0 -127.5 39t-48.5 118q0 58 28 96.5t82.5 58t132.5 21.5l115 3v22q0 72 -36 98.5t-97 26.5q-43 0 -82 -11t-74 -31l-31 68q38 19 84.5 33t107.5 14q101 0 155.5 -45.5t54.5 -141.5v-359h-72l-10 74h-4q-22 -28 -48.5 -46.5t-58.5 -28t-71 -9.5zM261 63
q45 0 83 16.5t61 50t23 84.5v48l-96 -3q-64 -2 -103 -15.5t-56.5 -37t-17.5 -56.5q0 -46 29 -66.5t77 -20.5zM316 606q-17 14 -38 33.5t-41.5 41t-37 41.5t-25.5 34v10h105q11 -22 27.5 -49.5t35 -53.5t33.5 -45v-12h-59z" />
    <glyph glyph-name="aacute" unicode="&#xe1;" 
d="M246 -10q-79 0 -127.5 39t-48.5 118q0 58 28 96.5t82.5 58t132.5 21.5l115 3v22q0 72 -36 98.5t-97 26.5q-43 0 -82 -11t-74 -31l-31 68q38 19 84.5 33t107.5 14q101 0 155.5 -45.5t54.5 -141.5v-359h-72l-10 74h-4q-22 -28 -48.5 -46.5t-58.5 -28t-71 -9.5zM261 63
q45 0 83 16.5t61 50t23 84.5v48l-96 -3q-64 -2 -103 -15.5t-56.5 -37t-17.5 -56.5q0 -46 29 -66.5t77 -20.5zM264 606v12q15 19 32.5 45l34.5 53.5t28 49.5h106v-10q-12 -18 -37 -46.5t-53.5 -57t-52.5 -46.5h-58z" />
    <glyph glyph-name="acircumflex" unicode="&#xe2;" 
d="M246 -10q-79 0 -127.5 39t-48.5 118q0 58 28 96.5t82.5 58t132.5 21.5l115 3v22q0 72 -36 98.5t-97 26.5q-43 0 -82 -11t-74 -31l-31 68q38 19 84.5 33t107.5 14q101 0 155.5 -45.5t54.5 -141.5v-359h-72l-10 74h-4q-22 -28 -48.5 -46.5t-58.5 -28t-71 -9.5zM261 63
q45 0 83 16.5t61 50t23 84.5v48l-96 -3q-64 -2 -103 -15.5t-56.5 -37t-17.5 -56.5q0 -46 29 -66.5t77 -20.5zM136 606v11l42.5 46t45.5 53.5t35 49.5h90q12 -22 34.5 -49.5t47 -54l43.5 -45.5v-11h-62q-26 16 -54 43l-55 54l-54 -53.5t-53 -43.5h-60z" />
    <glyph glyph-name="atilde" unicode="&#xe3;" 
d="M246 -10q-79 0 -127.5 39t-48.5 118q0 58 28 96.5t82.5 58t132.5 21.5l115 3v22q0 72 -36 98.5t-97 26.5q-43 0 -82 -11t-74 -31l-31 68q38 19 84.5 33t107.5 14q101 0 155.5 -45.5t54.5 -141.5v-359h-72l-10 74h-4q-22 -28 -48.5 -46.5t-58.5 -28t-71 -9.5zM261 63
q45 0 83 16.5t61 50t23 84.5v48l-96 -3q-64 -2 -103 -15.5t-56.5 -37t-17.5 -56.5q0 -46 29 -66.5t77 -20.5zM125 606q3 30 11.5 53.5t22.5 40t33 25.5t43 9q21 0 40.5 -8.5t37.5 -20t34.5 -20t32.5 -8.5q23 0 35.5 14.5t19.5 43.5h50q-6 -58 -34 -93t-75 -35q-21 0 -40 8.5
t-36.5 20t-34.5 20t-34 8.5q-24 0 -36 -14.5t-19 -43.5h-51z" />
    <glyph glyph-name="adieresis" unicode="&#xe4;" 
d="M246 -10q-79 0 -127.5 39t-48.5 118q0 58 28 96.5t82.5 58t132.5 21.5l115 3v22q0 72 -36 98.5t-97 26.5q-43 0 -82 -11t-74 -31l-31 68q38 19 84.5 33t107.5 14q101 0 155.5 -45.5t54.5 -141.5v-359h-72l-10 74h-4q-22 -28 -48.5 -46.5t-58.5 -28t-71 -9.5zM261 63
q45 0 83 16.5t61 50t23 84.5v48l-96 -3q-64 -2 -103 -15.5t-56.5 -37t-17.5 -56.5q0 -46 29 -66.5t77 -20.5zM419 622q-22 0 -38 14.5t-16 44.5q0 31 16 44t38 13t38.5 -13t16.5 -44q0 -30 -16.5 -44.5t-38.5 -14.5zM190 622q-22 0 -38 14.5t-16 44.5q0 31 16 44t38 13
t38.5 -13t16.5 -44q0 -30 -16.5 -44.5t-38.5 -14.5z" />
    <glyph glyph-name="aring" unicode="&#xe5;" 
d="M246 -10q-79 0 -127.5 39t-48.5 118q0 58 28 96.5t82.5 58t132.5 21.5l115 3v22q0 72 -36 98.5t-97 26.5q-43 0 -82 -11t-74 -31l-31 68q38 19 84.5 33t107.5 14q101 0 155.5 -45.5t54.5 -141.5v-359h-72l-10 74h-4q-22 -28 -48.5 -46.5t-58.5 -28t-71 -9.5zM261 63
q45 0 83 16.5t61 50t23 84.5v48l-96 -3q-64 -2 -103 -15.5t-56.5 -37t-17.5 -56.5q0 -46 29 -66.5t77 -20.5zM304 606q-49 0 -79 28t-30 78t30 77.5t79 27.5q47 0 79 -27.5t32 -76.5q0 -51 -31.5 -79t-79.5 -28zM304 658q24 0 39 14.5t15 39.5q0 26 -15.5 40t-38.5 14
q-22 0 -37.5 -14t-15.5 -40q0 -25 15 -39.5t38 -14.5z" />
    <glyph glyph-name="ae" unicode="&#xe6;" 
d="M145 -10q-51 0 -88 39t-37 121q0 53 19 90.5t55 58t86 21.5l78 2v34q0 65 -20 91t-58 26q-23 0 -48.5 -10.5t-45.5 -27.5l-31 64q25 20 61.5 33.5t67.5 13.5q48 0 79.5 -19t47.5 -60q17 38 48 58.5t74 20.5q46 0 79 -28t50.5 -81.5t17.5 -130.5v-55h-245q1 -69 16 -110.5
t41.5 -59.5t60.5 -18q32 0 58.5 10t55.5 32v-79q-28 -19 -55 -27.5t-63 -8.5q-48 0 -89 23.5t-63 84.5q-25 -58 -61.5 -83t-90.5 -25zM161 63q25 0 46.5 14t35 47.5t13.5 89.5v45l-45 -3q-58 -4 -84.5 -30.5t-26.5 -76.5q0 -45 18 -65.5t43 -20.5zM337 321h161q0 50 -7.5 84
t-23.5 51t-43 17q-35 0 -59.5 -39t-27.5 -113z" />
    <glyph glyph-name="ccedilla" unicode="&#xe7;" 
d="M338 -10q-78 0 -135 28.5t-87.5 89t-30.5 156.5q0 103 33.5 165t93 89.5t135.5 27.5q47 0 85.5 -9.5t72.5 -27.5l-27 -73q-32 17 -62 24.5t-65 7.5q-61 0 -99.5 -22.5t-56.5 -67t-18 -112.5q0 -71 19 -115t57.5 -64t94.5 -20q44 0 83 9.5t68 22.5v-79q-30 -14 -74 -22
t-87 -8zM279 -240q-16 0 -29.5 1.5t-21.5 3.5v55q9 -2 24 -3.5t29 -1.5q35 0 54.5 9.5t19.5 33.5q0 26 -23.5 38t-67.5 18l43 91h58l-26 -58q36 -8 61.5 -27.5t25.5 -60.5q0 -46 -37 -72.5t-110 -26.5z" />
    <glyph glyph-name="egrave" unicode="&#xe8;" 
d="M337 -10q-86 0 -148 32t-95.5 93.5t-33.5 150.5q0 88 32 150.5t89 96t133 33.5q70 0 120.5 -31t78 -87.5t27.5 -135.5v-41h-389q2 -70 26.5 -111t67 -58.5t98.5 -17.5q44 0 87 12t86 32v-80q-46 -20 -92 -29t-87 -9zM153 323h297q-2 47 -18 80.5t-45.5 51.5t-72.5 18
q-67 0 -108.5 -40.5t-52.5 -109.5zM315 606q-17 14 -38 33.5t-41.5 41t-37 41.5t-25.5 34v10h105q11 -22 27.5 -49.5t35 -53.5t33.5 -45v-12h-59z" />
    <glyph glyph-name="eacute" unicode="&#xe9;" 
d="M337 -10q-86 0 -148 32t-95.5 93.5t-33.5 150.5q0 88 32 150.5t89 96t133 33.5q70 0 120.5 -31t78 -87.5t27.5 -135.5v-41h-389q2 -70 26.5 -111t67 -58.5t98.5 -17.5q44 0 87 12t86 32v-80q-46 -20 -92 -29t-87 -9zM153 323h297q-2 47 -18 80.5t-45.5 51.5t-72.5 18
q-67 0 -108.5 -40.5t-52.5 -109.5zM263 606v12q15 19 32.5 45l34.5 53.5t28 49.5h106v-10q-12 -18 -37 -46.5t-53.5 -57t-52.5 -46.5h-58z" />
    <glyph glyph-name="ecircumflex" unicode="&#xea;" 
d="M337 -10q-86 0 -148 32t-95.5 93.5t-33.5 150.5q0 88 32 150.5t89 96t133 33.5q70 0 120.5 -31t78 -87.5t27.5 -135.5v-41h-389q2 -70 26.5 -111t67 -58.5t98.5 -17.5q44 0 87 12t86 32v-80q-46 -20 -92 -29t-87 -9zM153 323h297q-2 47 -18 80.5t-45.5 51.5t-72.5 18
q-67 0 -108.5 -40.5t-52.5 -109.5zM135 606v11l42.5 46t45.5 53.5t35 49.5h90q12 -22 34.5 -49.5t47 -54l43.5 -45.5v-11h-62q-26 16 -54 43l-55 54l-54 -53.5t-53 -43.5h-60z" />
    <glyph glyph-name="edieresis" unicode="&#xeb;" 
d="M337 -10q-86 0 -148 32t-95.5 93.5t-33.5 150.5q0 88 32 150.5t89 96t133 33.5q70 0 120.5 -31t78 -87.5t27.5 -135.5v-41h-389q2 -70 26.5 -111t67 -58.5t98.5 -17.5q44 0 87 12t86 32v-80q-46 -20 -92 -29t-87 -9zM153 323h297q-2 47 -18 80.5t-45.5 51.5t-72.5 18
q-67 0 -108.5 -40.5t-52.5 -109.5zM418 622q-22 0 -38 14.5t-16 44.5q0 31 16 44t38 13t38.5 -13t16.5 -44q0 -30 -16.5 -44.5t-38.5 -14.5zM189 622q-22 0 -38 14.5t-16 44.5q0 31 16 44t38 13t38.5 -13t16.5 -44q0 -30 -16.5 -44.5t-38.5 -14.5z" />
    <glyph glyph-name="igrave" unicode="&#xec;" 
d="M80 0v60l191 15v386l-175 13v62h265v-461l179 -15v-60h-460zM311 606q-17 14 -38 33.5t-41.5 41t-37 41.5t-25.5 34v10h105q11 -22 27.5 -49.5t35 -53.5t33.5 -45v-12h-59z" />
    <glyph glyph-name="iacute" unicode="&#xed;" 
d="M80 0v60l191 15v386l-175 13v62h265v-461l179 -15v-60h-460zM259 606v12q15 19 32.5 45l34.5 53.5t28 49.5h106v-10q-12 -18 -37 -46.5t-53.5 -57t-52.5 -46.5h-58z" />
    <glyph glyph-name="icircumflex" unicode="&#xee;" 
d="M80 0v60l191 15v386l-175 13v62h265v-461l179 -15v-60h-460zM131 606v11l42.5 46t45.5 53.5t35 49.5h90q12 -22 34.5 -49.5t47 -54l43.5 -45.5v-11h-62q-26 16 -54 43l-55 54l-54 -53.5t-53 -43.5h-60z" />
    <glyph glyph-name="idieresis" unicode="&#xef;" 
d="M80 0v60l191 15v386l-175 13v62h265v-461l179 -15v-60h-460zM414 622q-22 0 -38 14.5t-16 44.5q0 31 16 44t38 13t38.5 -13t16.5 -44q0 -30 -16.5 -44.5t-38.5 -14.5zM185 622q-22 0 -38 14.5t-16 44.5q0 31 16 44t38 13t38.5 -13t16.5 -44q0 -30 -16.5 -44.5
t-38.5 -14.5z" />
    <glyph glyph-name="eth" unicode="&#xf0;" 
d="M301 -10q-72 0 -127.5 29.5t-87 84t-31.5 129.5t29 128.5t81.5 82.5t124.5 29q53 0 92.5 -14t63.5 -44l4 2q-15 47 -42 89t-62.5 78t-77.5 66.5t-88 54.5l36 60q75 -36 135.5 -87t104 -114.5t66.5 -136.5t23 -152q0 -142 -65.5 -213.5t-178.5 -71.5zM303 62q53 0 87 21.5
t50 64t16 103.5q0 42 -16.5 76t-50.5 54.5t-86 20.5q-56 0 -91 -20t-51.5 -58t-16.5 -94q0 -49 16.5 -87t52 -59.5t90.5 -21.5zM196 533l-38 55l299 172l38 -54z" />
    <glyph glyph-name="ntilde" unicode="&#xf1;" 
d="M80 0v536h72l13 -79h5q16 31 41.5 50.5t59.5 29t74 9.5q81 0 130.5 -45.5t49.5 -142.5v-358h-90v342q0 68 -27.5 99.5t-88.5 31.5q-82 0 -115.5 -52t-33.5 -146v-275h-90zM132 606q3 30 11.5 53.5t22.5 40t33 25.5t43 9q21 0 40.5 -8.5t37.5 -20t34.5 -20t32.5 -8.5
q23 0 35.5 14.5t19.5 43.5h50q-6 -58 -34 -93t-75 -35q-21 0 -40 8.5t-36.5 20t-34.5 20t-34 8.5q-24 0 -36 -14.5t-19 -43.5h-51z" />
    <glyph glyph-name="ograve" unicode="&#xf2;" 
d="M301 -10q-52 0 -97 17t-78.5 52t-52 87.5t-18.5 123.5q0 93 31.5 154t86.5 91.5t125 30.5t126 -30.5t88.5 -92t32.5 -156.5q0 -70 -18.5 -122t-51 -86.5t-77 -51.5t-97.5 -17zM300 63q52 0 86 25t51 71.5t17 109.5q0 64 -17 109.5t-51.5 70t-86.5 24.5
q-78 0 -116.5 -54.5t-38.5 -149.5q0 -63 17.5 -109.5t52 -71.5t86.5 -25zM311 606q-17 14 -38 33.5t-41.5 41t-37 41.5t-25.5 34v10h105q11 -22 27.5 -49.5t35 -53.5t33.5 -45v-12h-59z" />
    <glyph glyph-name="oacute" unicode="&#xf3;" 
d="M301 -10q-52 0 -97 17t-78.5 52t-52 87.5t-18.5 123.5q0 93 31.5 154t86.5 91.5t125 30.5t126 -30.5t88.5 -92t32.5 -156.5q0 -70 -18.5 -122t-51 -86.5t-77 -51.5t-97.5 -17zM300 63q52 0 86 25t51 71.5t17 109.5q0 64 -17 109.5t-51.5 70t-86.5 24.5
q-78 0 -116.5 -54.5t-38.5 -149.5q0 -63 17.5 -109.5t52 -71.5t86.5 -25zM259 606v12q15 19 32.5 45l34.5 53.5t28 49.5h106v-10q-12 -18 -37 -46.5t-53.5 -57t-52.5 -46.5h-58z" />
    <glyph glyph-name="ocircumflex" unicode="&#xf4;" 
d="M301 -10q-52 0 -97 17t-78.5 52t-52 87.5t-18.5 123.5q0 93 31.5 154t86.5 91.5t125 30.5t126 -30.5t88.5 -92t32.5 -156.5q0 -70 -18.5 -122t-51 -86.5t-77 -51.5t-97.5 -17zM300 63q52 0 86 25t51 71.5t17 109.5q0 64 -17 109.5t-51.5 70t-86.5 24.5
q-78 0 -116.5 -54.5t-38.5 -149.5q0 -63 17.5 -109.5t52 -71.5t86.5 -25zM131 606v11l42.5 46t45.5 53.5t35 49.5h90q12 -22 34.5 -49.5t47 -54l43.5 -45.5v-11h-62q-26 16 -54 43l-55 54l-54 -53.5t-53 -43.5h-60z" />
    <glyph glyph-name="otilde" unicode="&#xf5;" 
d="M301 -10q-52 0 -97 17t-78.5 52t-52 87.5t-18.5 123.5q0 93 31.5 154t86.5 91.5t125 30.5t126 -30.5t88.5 -92t32.5 -156.5q0 -70 -18.5 -122t-51 -86.5t-77 -51.5t-97.5 -17zM300 63q52 0 86 25t51 71.5t17 109.5q0 64 -17 109.5t-51.5 70t-86.5 24.5
q-78 0 -116.5 -54.5t-38.5 -149.5q0 -63 17.5 -109.5t52 -71.5t86.5 -25zM120 606q3 30 11.5 53.5t22.5 40t33 25.5t43 9q21 0 40.5 -8.5t37.5 -20t34.5 -20t32.5 -8.5q23 0 35.5 14.5t19.5 43.5h50q-6 -58 -34 -93t-75 -35q-21 0 -40 8.5t-36.5 20t-34.5 20t-34 8.5
q-24 0 -36 -14.5t-19 -43.5h-51z" />
    <glyph glyph-name="odieresis" unicode="&#xf6;" 
d="M301 -10q-52 0 -97 17t-78.5 52t-52 87.5t-18.5 123.5q0 93 31.5 154t86.5 91.5t125 30.5t126 -30.5t88.5 -92t32.5 -156.5q0 -70 -18.5 -122t-51 -86.5t-77 -51.5t-97.5 -17zM300 63q52 0 86 25t51 71.5t17 109.5q0 64 -17 109.5t-51.5 70t-86.5 24.5
q-78 0 -116.5 -54.5t-38.5 -149.5q0 -63 17.5 -109.5t52 -71.5t86.5 -25zM414 622q-22 0 -38 14.5t-16 44.5q0 31 16 44t38 13t38.5 -13t16.5 -44q0 -30 -16.5 -44.5t-38.5 -14.5zM185 622q-22 0 -38 14.5t-16 44.5q0 31 16 44t38 13t38.5 -13t16.5 -44q0 -30 -16.5 -44.5
t-38.5 -14.5z" />
    <glyph glyph-name="divide" unicode="&#xf7;" 
d="M80 317v71h440v-71h-440zM299 121q-23 0 -39.5 14.5t-16.5 46.5q0 34 16.5 47t39.5 13t39 -13t16 -47q0 -32 -16 -46.5t-39 -14.5zM299 462q-23 0 -39.5 14.5t-16.5 46.5q0 34 16.5 47t39.5 13t39 -13t16 -47q0 -32 -16 -46.5t-39 -14.5z" />
    <glyph glyph-name="oslash" unicode="&#xf8;" 
d="M132 -33l-58 39l400 560l59 -38zM301 -10q-52 0 -97 17t-78.5 52t-52 87.5t-18.5 123.5q0 93 31.5 154t86.5 91.5t125 30.5t126 -30.5t88.5 -92t32.5 -156.5q0 -70 -18.5 -122t-51 -86.5t-77 -51.5t-97.5 -17zM300 63q52 0 86 25t51 71.5t17 109.5q0 64 -17 109.5
t-51.5 70t-86.5 24.5q-78 0 -116.5 -54.5t-38.5 -149.5q0 -63 17.5 -109.5t52 -71.5t86.5 -25z" />
    <glyph glyph-name="ugrave" unicode="&#xf9;" 
d="M261 -10q-95 0 -140.5 47.5t-45.5 141.5v357h90v-343q0 -64 26.5 -97t91.5 -33q56 0 88 23.5t45.5 67.5t13.5 106v276h90v-536h-72l-13 72h-5q-19 -30 -44 -48t-56 -26t-69 -8zM311 606q-17 14 -38 33.5t-41.5 41t-37 41.5t-25.5 34v10h105q11 -22 27.5 -49.5t35 -53.5
t33.5 -45v-12h-59z" />
    <glyph glyph-name="uacute" unicode="&#xfa;" 
d="M261 -10q-95 0 -140.5 47.5t-45.5 141.5v357h90v-343q0 -64 26.5 -97t91.5 -33q56 0 88 23.5t45.5 67.5t13.5 106v276h90v-536h-72l-13 72h-5q-19 -30 -44 -48t-56 -26t-69 -8zM259 606v12q15 19 32.5 45l34.5 53.5t28 49.5h106v-10q-12 -18 -37 -46.5t-53.5 -57
t-52.5 -46.5h-58z" />
    <glyph glyph-name="ucircumflex" unicode="&#xfb;" 
d="M261 -10q-95 0 -140.5 47.5t-45.5 141.5v357h90v-343q0 -64 26.5 -97t91.5 -33q56 0 88 23.5t45.5 67.5t13.5 106v276h90v-536h-72l-13 72h-5q-19 -30 -44 -48t-56 -26t-69 -8zM131 606v11l42.5 46t45.5 53.5t35 49.5h90q12 -22 34.5 -49.5t47 -54l43.5 -45.5v-11h-62
q-26 16 -54 43l-55 54l-54 -53.5t-53 -43.5h-60z" />
    <glyph glyph-name="udieresis" unicode="&#xfc;" 
d="M261 -10q-95 0 -140.5 47.5t-45.5 141.5v357h90v-343q0 -64 26.5 -97t91.5 -33q56 0 88 23.5t45.5 67.5t13.5 106v276h90v-536h-72l-13 72h-5q-19 -30 -44 -48t-56 -26t-69 -8zM414 622q-22 0 -38 14.5t-16 44.5q0 31 16 44t38 13t38.5 -13t16.5 -44q0 -30 -16.5 -44.5
t-38.5 -14.5zM185 622q-22 0 -38 14.5t-16 44.5q0 31 16 44t38 13t38.5 -13t16.5 -44q0 -30 -16.5 -44.5t-38.5 -14.5z" />
    <glyph glyph-name="yacute" unicode="&#xfd;" 
d="M136 -245q-20 0 -39 2.5t-33 5.5v69q12 -2 28.5 -4t32.5 -2q31 0 51.5 10t36 31t28.5 55l29 73l-225 541h88l128 -315q13 -31 25.5 -69t22.5 -73h3q7 25 15 49.5l15.5 48.5l14.5 45l105 314h92l-225 -606q-19 -52 -41.5 -91.5t-58 -61.5t-93.5 -22zM259 606v12
q15 19 32.5 45l34.5 53.5t28 49.5h106v-10q-12 -18 -37 -46.5t-53.5 -57t-52.5 -46.5h-58z" />
    <glyph glyph-name="thorn" unicode="&#xfe;" 
d="M80 -240v1000h89v-209q0 -22 -1 -44t-3 -44h4q16 26 38 44.5t52 28.5t70 10q49 0 89 -17.5t68.5 -52.5t43.5 -87t15 -120q0 -91 -26.5 -153.5t-75 -94t-114.5 -31.5q-39 0 -69.5 11t-52.5 29t-38 39h-6q3 -19 4.5 -39.5t1.5 -40.5v-229h-89zM310 63q75 0 109 51.5
t34 156.5q0 103 -33.5 152.5t-110.5 49.5q-73 0 -106.5 -47.5t-33.5 -136.5v-20q0 -95 30.5 -150.5t110.5 -55.5z" />
    <glyph glyph-name="ydieresis" unicode="&#xff;" 
d="M136 -245q-20 0 -39 2.5t-33 5.5v69q12 -2 28.5 -4t32.5 -2q31 0 51.5 10t36 31t28.5 55l29 73l-225 541h88l128 -315q13 -31 25.5 -69t22.5 -73h3q7 25 15 49.5l15.5 48.5l14.5 45l105 314h92l-225 -606q-19 -52 -41.5 -91.5t-58 -61.5t-93.5 -22zM414 622
q-22 0 -38 14.5t-16 44.5q0 31 16 44t38 13t38.5 -13t16.5 -44q0 -30 -16.5 -44.5t-38.5 -14.5zM185 622q-22 0 -38 14.5t-16 44.5q0 31 16 44t38 13t38.5 -13t16.5 -44q0 -30 -16.5 -44.5t-38.5 -14.5z" />
    <glyph glyph-name="Amacron" unicode="&#x100;" 
d="M20 0l232 717h95l233 -717h-92l-159 512q-3 12 -8.5 29.5t-11 39l-10.5 41.5q-4 -20 -9.5 -41.5l-10.5 -39.5t-9 -29l-159 -512h-91zM154 219l30 80h227l26 -80h-283zM151 796v71h297v-71h-297z" />
    <glyph glyph-name="amacron" unicode="&#x101;" 
d="M246 -10q-79 0 -127.5 39t-48.5 118q0 58 28 96.5t82.5 58t132.5 21.5l115 3v22q0 72 -36 98.5t-97 26.5q-43 0 -82 -11t-74 -31l-31 68q38 19 84.5 33t107.5 14q101 0 155.5 -45.5t54.5 -141.5v-359h-72l-10 74h-4q-22 -28 -48.5 -46.5t-58.5 -28t-71 -9.5zM261 63
q45 0 83 16.5t61 50t23 84.5v48l-96 -3q-64 -2 -103 -15.5t-56.5 -37t-17.5 -56.5q0 -46 29 -66.5t77 -20.5zM156 618v71h297v-71h-297z" />
    <glyph glyph-name="Abreve" unicode="&#x102;" 
d="M20 0l232 717h95l233 -717h-92l-159 512q-3 12 -8.5 29.5t-11 39l-10.5 41.5q-4 -20 -9.5 -41.5l-10.5 -39.5t-9 -29l-159 -512h-91zM154 219l30 80h227l26 -80h-283zM296 784q-71 0 -110.5 38t-41.5 96h58q7 -30 22.5 -45t35.5 -20.5t39 -5.5q31 0 59.5 13.5t37.5 57.5
h59q-1 -58 -42.5 -96t-116.5 -38z" />
    <glyph glyph-name="abreve" unicode="&#x103;" 
d="M246 -10q-79 0 -127.5 39t-48.5 118q0 58 28 96.5t82.5 58t132.5 21.5l115 3v22q0 72 -36 98.5t-97 26.5q-43 0 -82 -11t-74 -31l-31 68q38 19 84.5 33t107.5 14q101 0 155.5 -45.5t54.5 -141.5v-359h-72l-10 74h-4q-22 -28 -48.5 -46.5t-58.5 -28t-71 -9.5zM261 63
q45 0 83 16.5t61 50t23 84.5v48l-96 -3q-64 -2 -103 -15.5t-56.5 -37t-17.5 -56.5q0 -46 29 -66.5t77 -20.5zM301 606q-71 0 -110.5 38t-41.5 96h58q7 -30 22.5 -45t35.5 -20.5t39 -5.5q31 0 59.5 13.5t37.5 57.5h59q-1 -58 -42.5 -96t-116.5 -38z" />
    <glyph glyph-name="Aogonek" unicode="&#x104;" 
d="M20 0l232 717h95l233 -717h-92l-159 512q-3 12 -8.5 29.5t-11 39l-10.5 41.5q-4 -20 -9.5 -41.5l-10.5 -39.5t-9 -29l-159 -512h-91zM154 219l30 80h227l26 -80h-283zM544 -220q-54 0 -79 25t-25 64q0 33 14.5 60.5t36 49t41.5 36.5l48 -15q-33 -31 -50.5 -58t-17.5 -57
q0 -25 13 -35.5t38 -10.5q11 0 22.5 1.5t19.5 4.5v-56q-14 -4 -28.5 -6.5t-32.5 -2.5z" />
    <glyph glyph-name="aogonek" unicode="&#x105;" 
d="M246 -10q-79 0 -127.5 39t-48.5 118q0 58 28 96.5t82.5 58t132.5 21.5l115 3v22q0 72 -36 98.5t-97 26.5q-43 0 -82 -11t-74 -31l-31 68q38 19 84.5 33t107.5 14q101 0 155.5 -45.5t54.5 -141.5v-359h-72l-10 74h-4q-22 -28 -48.5 -46.5t-58.5 -28t-71 -9.5zM261 63
q45 0 83 16.5t61 50t23 84.5v48l-96 -3q-64 -2 -103 -15.5t-56.5 -37t-17.5 -56.5q0 -46 29 -66.5t77 -20.5zM468 -220q-54 0 -79 25t-25 64q0 33 14.5 60.5t36 49t41.5 36.5l48 -15q-33 -31 -50.5 -58t-17.5 -57q0 -25 13 -35.5t38 -10.5q11 0 22.5 1.5t19.5 4.5v-56
q-14 -4 -28.5 -6.5t-32.5 -2.5z" />
    <glyph glyph-name="Cacute" unicode="&#x106;" 
d="M365 -10q-105 0 -171 47t-97 129.5t-31 190.5q0 85 20 152.5t59 115.5t95 73.5t129 25.5q52 0 97.5 -11t83.5 -31l-34 -73q-31 17 -70.5 26t-76.5 9q-51 0 -90.5 -19t-66 -55.5t-40.5 -90t-14 -122.5q0 -88 21.5 -152t67.5 -98t120 -34q34 0 73.5 7.5t78.5 23.5v-85
q-40 -15 -76.5 -22t-77.5 -7zM318 784v12q15 19 32.5 45l34.5 53.5t28 49.5h106v-10q-12 -18 -37 -46.5t-53.5 -57t-52.5 -46.5h-58z" />
    <glyph glyph-name="cacute" unicode="&#x107;" 
d="M338 -10q-78 0 -135 28.5t-87.5 89t-30.5 156.5q0 103 33.5 165t93 89.5t135.5 27.5q47 0 85.5 -9.5t72.5 -27.5l-27 -73q-32 17 -62 24.5t-65 7.5q-61 0 -99.5 -22.5t-56.5 -67t-18 -112.5q0 -71 19 -115t57.5 -64t94.5 -20q44 0 83 9.5t68 22.5v-79q-30 -14 -74 -22
t-87 -8zM287 606v12q15 19 32.5 45l34.5 53.5t28 49.5h106v-10q-12 -18 -37 -46.5t-53.5 -57t-52.5 -46.5h-58z" />
    <glyph glyph-name="Ccircumflex" unicode="&#x108;" 
d="M365 -10q-105 0 -171 47t-97 129.5t-31 190.5q0 85 20 152.5t59 115.5t95 73.5t129 25.5q52 0 97.5 -11t83.5 -31l-34 -73q-31 17 -70.5 26t-76.5 9q-51 0 -90.5 -19t-66 -55.5t-40.5 -90t-14 -122.5q0 -88 21.5 -152t67.5 -98t120 -34q34 0 73.5 7.5t78.5 23.5v-85
q-40 -15 -76.5 -22t-77.5 -7zM190 784v11l42.5 46t45.5 53.5t35 49.5h90q12 -22 34.5 -49.5t47 -54l43.5 -45.5v-11h-62q-26 16 -54 43l-55 54l-54 -53.5t-53 -43.5h-60z" />
    <glyph glyph-name="ccircumflex" unicode="&#x109;" 
d="M338 -10q-78 0 -135 28.5t-87.5 89t-30.5 156.5q0 103 33.5 165t93 89.5t135.5 27.5q47 0 85.5 -9.5t72.5 -27.5l-27 -73q-32 17 -62 24.5t-65 7.5q-61 0 -99.5 -22.5t-56.5 -67t-18 -112.5q0 -71 19 -115t57.5 -64t94.5 -20q44 0 83 9.5t68 22.5v-79q-30 -14 -74 -22
t-87 -8zM159 606v11l42.5 46t45.5 53.5t35 49.5h90q12 -22 34.5 -49.5t47 -54l43.5 -45.5v-11h-62q-26 16 -54 43l-55 54l-54 -53.5t-53 -43.5h-60z" />
    <glyph glyph-name="Cdot" unicode="&#x10a;" 
d="M365 -10q-105 0 -171 47t-97 129.5t-31 190.5q0 85 20 152.5t59 115.5t95 73.5t129 25.5q52 0 97.5 -11t83.5 -31l-34 -73q-31 17 -70.5 26t-76.5 9q-51 0 -90.5 -19t-66 -55.5t-40.5 -90t-14 -122.5q0 -88 21.5 -152t67.5 -98t120 -34q34 0 73.5 7.5t78.5 23.5v-85
q-40 -15 -76.5 -22t-77.5 -7zM358 811q-26 0 -44.5 16t-18.5 47q0 33 18.5 48.5t44.5 15.5t44.5 -15.5t18.5 -48.5q0 -31 -18.5 -47t-44.5 -16z" />
    <glyph glyph-name="cdot" unicode="&#x10b;" 
d="M338 -10q-78 0 -135 28.5t-87.5 89t-30.5 156.5q0 103 33.5 165t93 89.5t135.5 27.5q47 0 85.5 -9.5t72.5 -27.5l-27 -73q-32 17 -62 24.5t-65 7.5q-61 0 -99.5 -22.5t-56.5 -67t-18 -112.5q0 -71 19 -115t57.5 -64t94.5 -20q44 0 83 9.5t68 22.5v-79q-30 -14 -74 -22
t-87 -8zM327 633q-26 0 -44.5 16t-18.5 47q0 33 18.5 48.5t44.5 15.5t44.5 -15.5t18.5 -48.5q0 -31 -18.5 -47t-44.5 -16z" />
    <glyph glyph-name="Ccaron" unicode="&#x10c;" 
d="M365 -10q-105 0 -171 47t-97 129.5t-31 190.5q0 85 20 152.5t59 115.5t95 73.5t129 25.5q52 0 97.5 -11t83.5 -31l-34 -73q-31 17 -70.5 26t-76.5 9q-51 0 -90.5 -19t-66 -55.5t-40.5 -90t-14 -122.5q0 -88 21.5 -152t67.5 -98t120 -34q34 0 73.5 7.5t78.5 23.5v-85
q-40 -15 -76.5 -22t-77.5 -7zM313 784q-13 23 -35 49.5t-46 52.5l-42 45v13h60q26 -17 54 -41t53 -51q27 27 55 51t54 41h62v-13l-43.5 -45t-47 -52.5t-34.5 -49.5h-90z" />
    <glyph glyph-name="ccaron" unicode="&#x10d;" 
d="M338 -10q-78 0 -135 28.5t-87.5 89t-30.5 156.5q0 103 33.5 165t93 89.5t135.5 27.5q47 0 85.5 -9.5t72.5 -27.5l-27 -73q-32 17 -62 24.5t-65 7.5q-61 0 -99.5 -22.5t-56.5 -67t-18 -112.5q0 -71 19 -115t57.5 -64t94.5 -20q44 0 83 9.5t68 22.5v-79q-30 -14 -74 -22
t-87 -8zM282 606q-13 23 -35 49.5t-46 52.5l-42 45v13h60q26 -17 54 -41t53 -51q27 27 55 51t54 41h62v-13l-43.5 -45t-47 -52.5t-34.5 -49.5h-90z" />
    <glyph glyph-name="Dcaron" unicode="&#x10e;" 
d="M70 0v714h173q95 0 165 -40t108.5 -117.5t38.5 -192.5q0 -120 -39.5 -201t-113.5 -122t-179 -41h-153zM160 78h54q128 0 188.5 72t60.5 211q0 95 -27.5 155.5t-79 90t-123.5 29.5h-73v-558zM231 784q-13 23 -35 49.5t-46 52.5l-42 45v13h60q26 -17 54 -41t53 -51
q27 27 55 51t54 41h62v-13l-43.5 -45t-47 -52.5t-34.5 -49.5h-90z" />
    <glyph glyph-name="dcaron" unicode="&#x10f;" 
d="M245 -10q-45 0 -82 17t-63.5 52t-40.5 87.5t-14 123.5q0 90 23.5 151.5t69 93t111.5 31.5q39 0 66 -10t45 -27.5t31 -40.5h6q-1 12 -2.5 25t-2.5 28t-1 30v209h89v-760h-74l-10 72h-4q-22 -37 -57.5 -59.5t-89.5 -22.5zM261 63q66 0 98 49.5t32 134.5v20q0 58 -12 104.5
t-39.5 74t-74.5 27.5q-41 0 -69.5 -23t-43.5 -69.5t-15 -118.5q0 -100 30.5 -149.5t93.5 -49.5zM522 600v12q5 14 10 33t9.5 39.5t8 40t5.5 35.5h87v-8q-4 -18 -15.5 -45.5t-26.5 -56t-30 -50.5h-48z" />
    <glyph glyph-name="Dcroat" unicode="&#x110;" 
d="M0 314v78h292v-78h-292zM80 0v714h173q95 0 165 -40t108.5 -117.5t38.5 -192.5q0 -120 -39.5 -201t-113.5 -122t-179 -41h-153zM170 78h54q128 0 188.5 72t60.5 211q0 95 -27.5 155.5t-79 90t-123.5 29.5h-73v-558z" />
    <glyph glyph-name="dcroat" unicode="&#x111;" 
d="M274 -10q-49 0 -89.5 17t-69.5 51.5t-44.5 87t-15.5 123.5q0 88 25.5 148.5t76.5 92t127 31.5q37 0 65.5 -10t49 -27.5t32.5 -40.5h6q-1 13 -2.5 26t-2.5 26.5t-1 26.5v218h89v-760h-74l-10 72h-4q-15 -24 -36.5 -42.5t-51 -29t-70.5 -10.5zM291 63q71 0 105.5 49
t34.5 133v20q0 58 -13 103.5t-43 72.5t-81 27q-70 0 -108.5 -51t-38.5 -157q0 -98 35.5 -147.5t108.5 -49.5zM254 604v66h346v-66h-346z" />
    <glyph glyph-name="Emacron" unicode="&#x112;" 
d="M95 0v714h420v-80h-330v-221h311v-80h-311v-253h330v-80h-420zM157 796v71h297v-71h-297z" />
    <glyph glyph-name="emacron" unicode="&#x113;" 
d="M337 -10q-86 0 -148 32t-95.5 93.5t-33.5 150.5q0 88 32 150.5t89 96t133 33.5q70 0 120.5 -31t78 -87.5t27.5 -135.5v-41h-389q2 -70 26.5 -111t67 -58.5t98.5 -17.5q44 0 87 12t86 32v-80q-46 -20 -92 -29t-87 -9zM153 323h297q-2 47 -18 80.5t-45.5 51.5t-72.5 18
q-67 0 -108.5 -40.5t-52.5 -109.5zM155 618v71h297v-71h-297z" />
    <glyph glyph-name="Ebreve" unicode="&#x114;" 
d="M95 0v714h420v-80h-330v-221h311v-80h-311v-253h330v-80h-420zM302 784q-71 0 -110.5 38t-41.5 96h58q7 -30 22.5 -45t35.5 -20.5t39 -5.5q31 0 59.5 13.5t37.5 57.5h59q-1 -58 -42.5 -96t-116.5 -38z" />
    <glyph glyph-name="ebreve" unicode="&#x115;" 
d="M337 -10q-86 0 -148 32t-95.5 93.5t-33.5 150.5q0 88 32 150.5t89 96t133 33.5q70 0 120.5 -31t78 -87.5t27.5 -135.5v-41h-389q2 -70 26.5 -111t67 -58.5t98.5 -17.5q44 0 87 12t86 32v-80q-46 -20 -92 -29t-87 -9zM153 323h297q-2 47 -18 80.5t-45.5 51.5t-72.5 18
q-67 0 -108.5 -40.5t-52.5 -109.5zM300 606q-71 0 -110.5 38t-41.5 96h58q7 -30 22.5 -45t35.5 -20.5t39 -5.5q31 0 59.5 13.5t37.5 57.5h59q-1 -58 -42.5 -96t-116.5 -38z" />
    <glyph glyph-name="Edotaccent" unicode="&#x116;" 
d="M95 0v714h420v-80h-330v-221h311v-80h-311v-253h330v-80h-420zM305 811q-26 0 -44.5 16t-18.5 47q0 33 18.5 48.5t44.5 15.5t44.5 -15.5t18.5 -48.5q0 -31 -18.5 -47t-44.5 -16z" />
    <glyph glyph-name="edotaccent" unicode="&#x117;" 
d="M337 -10q-86 0 -148 32t-95.5 93.5t-33.5 150.5q0 88 32 150.5t89 96t133 33.5q70 0 120.5 -31t78 -87.5t27.5 -135.5v-41h-389q2 -70 26.5 -111t67 -58.5t98.5 -17.5q44 0 87 12t86 32v-80q-46 -20 -92 -29t-87 -9zM153 323h297q-2 47 -18 80.5t-45.5 51.5t-72.5 18
q-67 0 -108.5 -40.5t-52.5 -109.5zM303 633q-26 0 -44.5 16t-18.5 47q0 33 18.5 48.5t44.5 15.5t44.5 -15.5t18.5 -48.5q0 -31 -18.5 -47t-44.5 -16z" />
    <glyph glyph-name="Eogonek" unicode="&#x118;" 
d="M95 0v714h420v-80h-330v-221h311v-80h-311v-253h330v-80h-420zM425 -220q-54 0 -79 25t-25 64q0 33 14.5 60.5t36 49t41.5 36.5l48 -15q-33 -31 -50.5 -58t-17.5 -57q0 -25 13 -35.5t38 -10.5q11 0 22.5 1.5t19.5 4.5v-56q-14 -4 -28.5 -6.5t-32.5 -2.5z" />
    <glyph glyph-name="eogonek" unicode="&#x119;" 
d="M447 -220q-55 0 -80 28t-25 68q0 36 17 64.5t43.5 50t55.5 37.5h58q-27 -20 -50.5 -41.5t-37.5 -45t-14 -51.5q0 -27 13.5 -39t38.5 -12q9 0 21 1.5t20 4.5v-56q-14 -4 -28.5 -6.5t-31.5 -2.5zM337 -10q-86 0 -148 32t-95.5 93.5t-33.5 150.5q0 88 32 150.5t89 96
t133 33.5q70 0 120.5 -31t78 -87.5t27.5 -135.5v-41h-389q2 -70 26.5 -111t67 -58.5t98.5 -17.5q44 0 87 12t86 32v-80q-46 -20 -92 -29t-87 -9zM153 323h297q-2 47 -18 80.5t-45.5 51.5t-72.5 18q-67 0 -108.5 -40.5t-52.5 -109.5z" />
    <glyph glyph-name="Ecaron" unicode="&#x11a;" 
d="M95 0v714h420v-80h-330v-221h311v-80h-311v-253h330v-80h-420zM260 784q-13 23 -35 49.5t-46 52.5l-42 45v13h60q26 -17 54 -41t53 -51q27 27 55 51t54 41h62v-13l-43.5 -45t-47 -52.5t-34.5 -49.5h-90z" />
    <glyph glyph-name="ecaron" unicode="&#x11b;" 
d="M337 -10q-86 0 -148 32t-95.5 93.5t-33.5 150.5q0 88 32 150.5t89 96t133 33.5q70 0 120.5 -31t78 -87.5t27.5 -135.5v-41h-389q2 -70 26.5 -111t67 -58.5t98.5 -17.5q44 0 87 12t86 32v-80q-46 -20 -92 -29t-87 -9zM153 323h297q-2 47 -18 80.5t-45.5 51.5t-72.5 18
q-67 0 -108.5 -40.5t-52.5 -109.5zM258 606q-13 23 -35 49.5t-46 52.5l-42 45v13h60q26 -17 54 -41t53 -51q27 27 55 51t54 41h62v-13l-43.5 -45t-47 -52.5t-34.5 -49.5h-90z" />
    <glyph glyph-name="Gcircumflex" unicode="&#x11c;" 
d="M340 -10q-97 0 -163 40.5t-99 120t-33 195.5q0 120 35 204.5t103.5 129t168.5 44.5q51 0 92 -11t78 -31l-32 -75q-25 16 -59 26t-77 10q-72 0 -120.5 -34.5t-72.5 -99.5t-24 -159q0 -80 19.5 -143.5t65 -100t122.5 -36.5q32 0 56 5t43 10v212h-130v80h217v-350
q-37 -15 -85.5 -26t-104.5 -11zM153 784v11l42.5 46t45.5 53.5t35 49.5h90q12 -22 34.5 -49.5t47 -54l43.5 -45.5v-11h-62q-26 16 -54 43l-55 54l-54 -53.5t-53 -43.5h-60z" />
    <glyph glyph-name="gcircumflex" unicode="&#x11d;" 
d="M276 -245q-55 0 -103.5 10.5t-89.5 27.5v80q40 -23 92.5 -34.5t97.5 -11.5q91 0 127 42.5t36 116.5v19q0 12 0.5 23t2.5 34h-4q-28 -41 -65.5 -56.5t-90.5 -15.5q-106 0 -165 72.5t-59 202.5q0 131 58.5 206t160.5 75q54 0 91 -17.5t66 -58.5h5l12 66h72v-550
q0 -76 -26 -127.5t-80 -77.5t-138 -26zM296 63q33 0 59.5 10.5t45 33t28.5 57t10 82.5v21q0 73 -17.5 118.5t-50.5 66.5t-78 21q-76 0 -111 -53.5t-35 -151.5q0 -100 36.5 -152.5t112.5 -52.5zM131 606v11l42.5 46t45.5 53.5t35 49.5h90q12 -22 34.5 -49.5t47 -54
l43.5 -45.5v-11h-62q-26 16 -54 43l-55 54l-54 -53.5t-53 -43.5h-60z" />
    <glyph glyph-name="Gbreve" unicode="&#x11e;" 
d="M340 -10q-97 0 -163 40.5t-99 120t-33 195.5q0 120 35 204.5t103.5 129t168.5 44.5q51 0 92 -11t78 -31l-32 -75q-25 16 -59 26t-77 10q-72 0 -120.5 -34.5t-72.5 -99.5t-24 -159q0 -80 19.5 -143.5t65 -100t122.5 -36.5q32 0 56 5t43 10v212h-130v80h217v-350
q-37 -15 -85.5 -26t-104.5 -11zM318 784q-71 0 -110.5 38t-41.5 96h58q7 -30 22.5 -45t35.5 -20.5t39 -5.5q31 0 59.5 13.5t37.5 57.5h59q-1 -58 -42.5 -96t-116.5 -38z" />
    <glyph glyph-name="gbreve" unicode="&#x11f;" 
d="M276 -245q-55 0 -103.5 10.5t-89.5 27.5v80q40 -23 92.5 -34.5t97.5 -11.5q91 0 127 42.5t36 116.5v19q0 12 0.5 23t2.5 34h-4q-28 -41 -65.5 -56.5t-90.5 -15.5q-106 0 -165 72.5t-59 202.5q0 131 58.5 206t160.5 75q54 0 91 -17.5t66 -58.5h5l12 66h72v-550
q0 -76 -26 -127.5t-80 -77.5t-138 -26zM296 63q33 0 59.5 10.5t45 33t28.5 57t10 82.5v21q0 73 -17.5 118.5t-50.5 66.5t-78 21q-76 0 -111 -53.5t-35 -151.5q0 -100 36.5 -152.5t112.5 -52.5zM296 606q-71 0 -110.5 38t-41.5 96h58q7 -30 22.5 -45t35.5 -20.5t39 -5.5
q31 0 59.5 13.5t37.5 57.5h59q-1 -58 -42.5 -96t-116.5 -38z" />
    <glyph glyph-name="Gdot" unicode="&#x120;" 
d="M340 -10q-97 0 -163 40.5t-99 120t-33 195.5q0 120 35 204.5t103.5 129t168.5 44.5q51 0 92 -11t78 -31l-32 -75q-25 16 -59 26t-77 10q-72 0 -120.5 -34.5t-72.5 -99.5t-24 -159q0 -80 19.5 -143.5t65 -100t122.5 -36.5q32 0 56 5t43 10v212h-130v80h217v-350
q-37 -15 -85.5 -26t-104.5 -11zM321 811q-26 0 -44.5 16t-18.5 47q0 33 18.5 48.5t44.5 15.5t44.5 -15.5t18.5 -48.5q0 -31 -18.5 -47t-44.5 -16z" />
    <glyph glyph-name="gdot" unicode="&#x121;" 
d="M276 -245q-55 0 -103.5 10.5t-89.5 27.5v80q40 -23 92.5 -34.5t97.5 -11.5q91 0 127 42.5t36 116.5v19q0 12 0.5 23t2.5 34h-4q-28 -41 -65.5 -56.5t-90.5 -15.5q-106 0 -165 72.5t-59 202.5q0 131 58.5 206t160.5 75q54 0 91 -17.5t66 -58.5h5l12 66h72v-550
q0 -76 -26 -127.5t-80 -77.5t-138 -26zM296 63q33 0 59.5 10.5t45 33t28.5 57t10 82.5v21q0 73 -17.5 118.5t-50.5 66.5t-78 21q-76 0 -111 -53.5t-35 -151.5q0 -100 36.5 -152.5t112.5 -52.5zM299 633q-26 0 -44.5 16t-18.5 47q0 33 18.5 48.5t44.5 15.5t44.5 -15.5
t18.5 -48.5q0 -31 -18.5 -47t-44.5 -16z" />
    <glyph glyph-name="uni0122" unicode="&#x122;" 
d="M340 -10q-97 0 -163 40.5t-99 120t-33 195.5q0 120 35 204.5t103.5 129t168.5 44.5q51 0 92 -11t78 -31l-32 -75q-25 16 -59 26t-77 10q-72 0 -120.5 -34.5t-72.5 -99.5t-24 -159q0 -80 19.5 -143.5t65 -100t122.5 -36.5q32 0 56 5t43 10v212h-130v80h217v-350
q-37 -15 -85.5 -26t-104.5 -11zM254 -221v12q8 17 16.5 43.5t15.5 55t9 49.5h87v-7q-4 -18 -16.5 -46t-29 -56.5t-34.5 -50.5h-48z" />
    <glyph glyph-name="uni0123" unicode="&#x123;" 
d="M235 606v8q5 18 17 45.5t28.5 56t34.5 50.5h49v-12q-8 -17 -16.5 -43.5t-15.5 -54.5t-10 -50h-87zM276 -245q-55 0 -103.5 10.5t-89.5 27.5v80q40 -23 92.5 -34.5t97.5 -11.5q91 0 127 42.5t36 116.5v19q0 12 0.5 23t2.5 34h-4q-28 -41 -65.5 -56.5t-90.5 -15.5
q-106 0 -165 72.5t-59 202.5q0 131 58.5 206t160.5 75q54 0 91 -17.5t66 -58.5h5l12 66h72v-550q0 -76 -26 -127.5t-80 -77.5t-138 -26zM296 63q33 0 59.5 10.5t45 33t28.5 57t10 82.5v21q0 73 -17.5 118.5t-50.5 66.5t-78 21q-76 0 -111 -53.5t-35 -151.5
q0 -100 36.5 -152.5t112.5 -52.5z" />
    <glyph glyph-name="Hcircumflex" unicode="&#x124;" 
d="M70 0v714h90v-301h280v301h90v-714h-90v333h-280v-333h-90zM131 784v11l42.5 46t45.5 53.5t35 49.5h90q12 -22 34.5 -49.5t47 -54l43.5 -45.5v-11h-62q-26 16 -54 43l-55 54l-54 -53.5t-53 -43.5h-60z" />
    <glyph glyph-name="hcircumflex" unicode="&#x125;" 
d="M80 0v760h90v-216q0 -19 -1.5 -48t-2.5 -46h5q17 33 42.5 54t57.5 31.5t68 10.5q83 0 134.5 -46.5t51.5 -149.5v-350h-90v332q0 73 -31 107t-88 34q-44 0 -77 -23t-51 -66.5t-18 -105.5v-278h-90zM-43 830v11l42.5 46t45.5 53.5t35 49.5h90q12 -22 34.5 -49.5t47 -54
l43.5 -45.5v-11h-62q-26 16 -54 43l-55 54l-54 -53.5t-53 -43.5h-60z" />
    <glyph glyph-name="Hbar" unicode="&#x126;" 
d="M0 523v72h600v-72h-600zM70 0v714h90v-301h280v301h90v-714h-90v333h-280v-333h-90z" />
    <glyph glyph-name="hbar" unicode="&#x127;" 
d="M0 604v66h346v-66h-346zM80 0v760h90v-216q0 -19 -1.5 -48t-2.5 -46h5q17 33 42.5 54t57.5 31.5t68 10.5q83 0 134.5 -46.5t51.5 -149.5v-350h-90v332q0 73 -31 107t-88 34q-44 0 -77 -23t-51 -66.5t-18 -105.5v-278h-90z" />
    <glyph glyph-name="Itilde" unicode="&#x128;" 
d="M110 0v62l144 13v564l-144 13v62h380v-62l-146 -13v-564l146 -13v-62h-380zM120 784q3 30 11.5 53.5t22.5 40t33 25.5t43 9q21 0 40.5 -8.5t37.5 -20t34.5 -20t32.5 -8.5q23 0 35.5 14.5t19.5 43.5h50q-6 -58 -34 -93t-75 -35q-21 0 -40 8.5t-36.5 20t-34.5 20t-34 8.5
q-24 0 -36 -14.5t-19 -43.5h-51z" />
    <glyph glyph-name="itilde" unicode="&#x129;" 
d="M80 0v60l191 15v386l-175 13v62h265v-461l179 -15v-60h-460zM120 606q3 30 11.5 53.5t22.5 40t33 25.5t43 9q21 0 40.5 -8.5t37.5 -20t34.5 -20t32.5 -8.5q23 0 35.5 14.5t19.5 43.5h50q-6 -58 -34 -93t-75 -35q-21 0 -40 8.5t-36.5 20t-34.5 20t-34 8.5q-24 0 -36 -14.5
t-19 -43.5h-51z" />
    <glyph glyph-name="Imacron" unicode="&#x12a;" 
d="M110 0v62l144 13v564l-144 13v62h380v-62l-146 -13v-564l146 -13v-62h-380zM151 796v71h297v-71h-297z" />
    <glyph glyph-name="imacron" unicode="&#x12b;" 
d="M80 0v60l191 15v386l-175 13v62h265v-461l179 -15v-60h-460zM151 618v71h297v-71h-297z" />
    <glyph glyph-name="Ibreve" unicode="&#x12c;" 
d="M110 0v62l144 13v564l-144 13v62h380v-62l-146 -13v-564l146 -13v-62h-380zM296 784q-71 0 -110.5 38t-41.5 96h58q7 -30 22.5 -45t35.5 -20.5t39 -5.5q31 0 59.5 13.5t37.5 57.5h59q-1 -58 -42.5 -96t-116.5 -38z" />
    <glyph glyph-name="ibreve" unicode="&#x12d;" 
d="M80 0v60l191 15v386l-175 13v62h265v-461l179 -15v-60h-460zM296 606q-71 0 -110.5 38t-41.5 96h58q7 -30 22.5 -45t35.5 -20.5t39 -5.5q31 0 59.5 13.5t37.5 57.5h59q-1 -58 -42.5 -96t-116.5 -38z" />
    <glyph glyph-name="Iogonek" unicode="&#x12e;" 
d="M110 0v62l144 13v564l-144 13v62h380v-62l-146 -13v-564l146 -13v-62h-380zM407 -220q-54 0 -79 25t-25 64q0 33 14.5 60.5t36 49t41.5 36.5l48 -15q-33 -31 -50.5 -58t-17.5 -57q0 -25 13 -35.5t38 -10.5q11 0 22.5 1.5t19.5 4.5v-56q-14 -4 -28.5 -6.5t-32.5 -2.5z" />
    <glyph glyph-name="iogonek" unicode="&#x12f;" 
d="M80 0v60l191 15v386l-175 13v62h265v-461l179 -15v-60h-460zM307 633q-26 0 -44.5 16t-18.5 47q0 33 18.5 48.5t44.5 15.5t44.5 -15.5t18.5 -48.5q0 -31 -18.5 -47t-44.5 -16zM425 -220q-54 0 -79 25t-25 64q0 33 14.5 60.5t36 49t41.5 36.5l48 -15q-33 -31 -50.5 -58
t-17.5 -57q0 -25 13 -35.5t38 -10.5q11 0 22.5 1.5t19.5 4.5v-56q-14 -4 -28.5 -6.5t-32.5 -2.5z" />
    <glyph glyph-name="Idotaccent" unicode="&#x130;" 
d="M110 0v62l144 13v564l-144 13v62h380v-62l-146 -13v-564l146 -13v-62h-380zM299 811q-26 0 -44.5 16t-18.5 47q0 33 18.5 48.5t44.5 15.5t44.5 -15.5t18.5 -48.5q0 -31 -18.5 -47t-44.5 -16z" />
    <glyph glyph-name="IJ" unicode="&#x132;" 
d="M270 -10q-29 0 -62 3.5t-61.5 10.5t-44.5 15v85q14 -6 40 -13.5t58.5 -12.5t62.5 -5q44 0 77 15.5t51.5 49.5t18.5 91v485h90v-497q0 -72 -26.5 -123t-77.5 -77.5t-126 -26.5zM100 200v514h90v-514h-90z" />
    <glyph glyph-name="ij" unicode="&#x133;" 
d="M271 -245q-33 0 -73 5t-68 12v79q19 -6 41.5 -10.5t46 -7.5t44.5 -3q48 0 78 14.5t43.5 44t13.5 74.5v573h90v-588q0 -93 -56 -143t-160 -50zM117 0v536h90v-536h-90zM163 633q-26 0 -44.5 16t-18.5 48t18 47.5t45 15.5q26 0 44.5 -15.5t18.5 -47.5q0 -33 -19 -48.5
t-44 -15.5zM437 633q-26 0 -44 16t-18 48t17.5 47.5t44.5 15.5q26 0 44.5 -15.5t18.5 -47.5q0 -33 -19 -48.5t-44 -15.5z" />
    <glyph glyph-name="Jcircumflex" unicode="&#x134;" 
d="M252 -10q-38 0 -81 8t-71 21v85q23 -10 64 -20.5t81 -10.5t69 15.5t45 49.5t16 91v485h90v-497q0 -72 -24 -123t-71.5 -77.5t-117.5 -26.5zM251 784v11l42.5 46t45.5 53.5t35 49.5h90q12 -22 34.5 -49.5t47 -54l43.5 -45.5v-11h-62q-26 16 -54 43l-55 54l-54 -53.5
t-53 -43.5h-60z" />
    <glyph glyph-name="jcircumflex" unicode="&#x135;" 
d="M192 -245q-31 0 -68.5 5t-63.5 12v79q18 -6 38.5 -10.5t42 -7.5t41.5 -3q45 0 72.5 14.5t40 44t12.5 74.5v498l-175 13v62h265v-588q0 -93 -53.5 -143t-151.5 -50zM171 606v11l42.5 46t45.5 53.5t35 49.5h90q12 -22 34.5 -49.5t47 -54l43.5 -45.5v-11h-62q-26 16 -54 43
l-55 54l-54 -53.5t-53 -43.5h-60z" />
    <glyph glyph-name="uni0136" unicode="&#x136;" 
d="M70 0v714h90v-384l35 55t39 56l204 273h103l-239 -323l248 -391h-103l-206 330l-81 -93v-237h-90zM227 -221v12q8 17 16.5 43.5t15.5 55t9 49.5h87v-7q-4 -18 -16.5 -46t-29 -56.5t-34.5 -50.5h-48z" />
    <glyph glyph-name="uni0137" unicode="&#x137;" 
d="M105 0v760h90v-366q0 -21 -1 -47t-2.5 -53t-3.5 -51h2q19 25 36.5 45.5l36.5 42.5l185 205h108l-213 -231l227 -305h-104l-183 252l-88 -85v-167h-90zM256 -221v12q8 17 16.5 43.5t15.5 55t9 49.5h87v-7q-4 -18 -16.5 -46t-29 -56.5t-34.5 -50.5h-48z" />
    <glyph glyph-name="kgreenlandic" unicode="&#x138;" 
d="M105 0v536h90v-142q0 -21 -1 -47t-2.5 -53t-3.5 -51h2l36 45.5l37 42.5l185 205h108l-213 -231l227 -305h-104l-183 252l-88 -85v-167h-90z" />
    <glyph glyph-name="Lacute" unicode="&#x139;" 
d="M115 0v714h90v-631h310v-83h-400zM120 784v12q15 19 32.5 45l34.5 53.5t28 49.5h106v-10q-12 -18 -37 -46.5t-53.5 -57t-52.5 -46.5h-58z" />
    <glyph glyph-name="lacute" unicode="&#x13a;" 
d="M80 0v60l196 15v610l-190 13v62h280v-685l174 -15v-60h-460zM259 830v12q15 19 32.5 45l34.5 53.5t28 49.5h106v-10q-12 -18 -37 -46.5t-53.5 -57t-52.5 -46.5h-58z" />
    <glyph glyph-name="uni013B" unicode="&#x13b;" 
d="M115 0v714h90v-631h310v-83h-400zM247 -221v12q8 17 16.5 43.5t15.5 55t9 49.5h87v-7q-4 -18 -16.5 -46t-29 -56.5t-34.5 -50.5h-48z" />
    <glyph glyph-name="uni013C" unicode="&#x13c;" 
d="M80 0v60l196 15v610l-190 13v62h280v-685l174 -15v-60h-460zM239 -221v12q8 17 16.5 43.5t15.5 55t9 49.5h87v-7q-4 -18 -16.5 -46t-29 -56.5t-34.5 -50.5h-48z" />
    <glyph glyph-name="Lcaron" unicode="&#x13d;" 
d="M384 554v12q5 14 10 33t9.5 39.5t8 40t5.5 35.5h87v-8q-4 -18 -15.5 -45.5t-26.5 -56t-30 -50.5h-48zM115 0v714h90v-631h310v-83h-400z" />
    <glyph glyph-name="lcaron" unicode="&#x13e;" 
d="M443 600v12q5 14 10 33t9.5 39.5t8 40t5.5 35.5h87v-8q-4 -18 -15.5 -45.5t-26.5 -56t-30 -50.5h-48zM80 0v60l196 15v610l-190 13v62h280v-685l174 -15v-60h-460z" />
    <glyph glyph-name="Ldot" unicode="&#x13f;" 
d="M115 0v714h90v-631h310v-83h-400zM453 304q-26 0 -44 16t-18 52q0 38 18 53t44 15t44 -15t18 -53q0 -36 -18 -52t-44 -16z" />
    <glyph glyph-name="ldot" unicode="&#x140;" 
d="M600 343q-26 0 -44 16t-18 52q0 38 18 53t44 15t44 -15t18 -53q0 -36 -18 -52t-44 -16zM80 0v60l196 15v610l-190 13v62h280v-685l174 -15v-60h-460z" />
    <glyph glyph-name="Lslash" unicode="&#x141;" 
d="M89 213l-35 60l311 184l36 -63zM155 0v714h90v-631h310v-83h-400z" />
    <glyph glyph-name="lslash" unicode="&#x142;" 
d="M180 237l-36 59l308 191l37 -59zM80 0v60l196 15v610l-190 13v62h280v-685l174 -15v-60h-460z" />
    <glyph glyph-name="Nacute" unicode="&#x143;" 
d="M70 0v714h119l260 -595h3q-3 29 -4.5 55.5t-2.5 52t-1.5 52.5t-0.5 57v378h87v-714h-109l-273 622h-4q2 -28 4.5 -56t4.5 -56t3 -56t1 -56v-398h-87zM264 784v12q15 19 32.5 45l34.5 53.5t28 49.5h106v-10q-12 -18 -37 -46.5t-53.5 -57t-52.5 -46.5h-58z" />
    <glyph glyph-name="nacute" unicode="&#x144;" 
d="M80 0v536h72l13 -79h5q16 31 41.5 50.5t59.5 29t74 9.5q81 0 130.5 -45.5t49.5 -142.5v-358h-90v342q0 68 -27.5 99.5t-88.5 31.5q-82 0 -115.5 -52t-33.5 -146v-275h-90zM271 606v12q15 19 32.5 45l34.5 53.5t28 49.5h106v-10q-12 -18 -37 -46.5t-53.5 -57t-52.5 -46.5
h-58z" />
    <glyph glyph-name="uni0145" unicode="&#x145;" 
d="M70 0v714h119l260 -595h3q-3 29 -4.5 55.5t-2.5 52t-1.5 52.5t-0.5 57v378h87v-714h-109l-273 622h-4q2 -28 4.5 -56t4.5 -56t3 -56t1 -56v-398h-87zM217 -221v12q8 17 16.5 43.5t15.5 55t9 49.5h87v-7q-4 -18 -16.5 -46t-29 -56.5t-34.5 -50.5h-48z" />
    <glyph glyph-name="uni0146" unicode="&#x146;" 
d="M80 0v536h72l13 -79h5q16 31 41.5 50.5t59.5 29t74 9.5q81 0 130.5 -45.5t49.5 -142.5v-358h-90v342q0 68 -27.5 99.5t-88.5 31.5q-82 0 -115.5 -52t-33.5 -146v-275h-90zM223 -221v12q8 17 16.5 43.5t15.5 55t9 49.5h87v-7q-4 -18 -16.5 -46t-29 -56.5t-34.5 -50.5h-48z
" />
    <glyph glyph-name="Ncaron" unicode="&#x147;" 
d="M70 0v714h119l260 -595h3q-3 29 -4.5 55.5t-2.5 52t-1.5 52.5t-0.5 57v378h87v-714h-109l-273 622h-4q2 -28 4.5 -56t4.5 -56t3 -56t1 -56v-398h-87zM259 784q-13 23 -35 49.5t-46 52.5l-42 45v13h60q26 -17 54 -41t53 -51q27 27 55 51t54 41h62v-13l-43.5 -45t-47 -52.5
t-34.5 -49.5h-90z" />
    <glyph glyph-name="ncaron" unicode="&#x148;" 
d="M80 0v536h72l13 -79h5q16 31 41.5 50.5t59.5 29t74 9.5q81 0 130.5 -45.5t49.5 -142.5v-358h-90v342q0 68 -27.5 99.5t-88.5 31.5q-82 0 -115.5 -52t-33.5 -146v-275h-90zM266 606q-13 23 -35 49.5t-46 52.5l-42 45v13h60q26 -17 54 -41t53 -51q27 27 55 51t54 41h62v-13
l-43.5 -45t-47 -52.5t-34.5 -49.5h-90z" />
    <glyph glyph-name="napostrophe" unicode="&#x149;" 
d="M95 0v536h72l13 -79h5q16 31 40 50.5t55.5 29t69.5 9.5q79 0 127 -45.5t48 -142.5v-358h-90v342q0 68 -29 99.5t-82 31.5q-74 0 -106.5 -52t-32.5 -146v-275h-90zM-50 469l14 62l13.5 64.5l12 62.5t9.5 56h103l7 -11q-9 -35 -23 -75.5t-30 -81t-33 -77.5h-73z" />
    <glyph glyph-name="Eng" unicode="&#x14a;" 
d="M342 -190q-25 0 -43.5 3.5t-32.5 9.5v76q16 -4 35.5 -7t36.5 -3q28 0 52.5 10t40 36t15.5 73v74h84v-76q0 -100 -51 -148t-137 -48zM70 0v714h119l260 -595h3q-3 29 -4.5 55.5t-2.5 52t-1.5 52.5t-0.5 57v378h87v-714h-109l-273 622h-4q2 -28 4.5 -56t4.5 -56t3 -56
t1 -56v-398h-87z" />
    <glyph glyph-name="eng" unicode="&#x14b;" 
d="M380 -240q-24 0 -41 3.5t-30 8.5v71q14 -4 28 -7t32 -3q29 0 47.5 17.5t18.5 66.5v327l90 6v-330q0 -50 -15.5 -86t-47.5 -55t-82 -19zM80 0v536h72l13 -79h5q16 31 41.5 50.5t59.5 29t74 9.5q81 0 130.5 -45.5t49.5 -142.5v-358h-90v342q0 68 -27.5 99.5t-88.5 31.5
q-82 0 -115.5 -52t-33.5 -146v-275h-90z" />
    <glyph glyph-name="Omacron" unicode="&#x14c;" 
d="M299 -10q-67 0 -115 26.5t-79 75t-45.5 116t-14.5 149.5q0 110 26.5 193t83 129.5t145.5 46.5q67 0 115 -26t79 -75t46 -116t15 -150t-15 -151t-46 -116.5t-79.5 -75t-115.5 -26.5zM301 70q60 0 95.5 34.5t51 99t15.5 154.5q0 136 -36 212t-125 76q-60 0 -96.5 -34.5
t-52.5 -99t-16 -154.5t16 -154.5t52 -99t96 -34.5zM151 796v71h297v-71h-297z" />
    <glyph glyph-name="omacron" unicode="&#x14d;" 
d="M301 -10q-52 0 -97 17t-78.5 52t-52 87.5t-18.5 123.5q0 93 31.5 154t86.5 91.5t125 30.5t126 -30.5t88.5 -92t32.5 -156.5q0 -70 -18.5 -122t-51 -86.5t-77 -51.5t-97.5 -17zM300 63q52 0 86 25t51 71.5t17 109.5q0 64 -17 109.5t-51.5 70t-86.5 24.5
q-78 0 -116.5 -54.5t-38.5 -149.5q0 -63 17.5 -109.5t52 -71.5t86.5 -25zM151 618v71h297v-71h-297z" />
    <glyph glyph-name="Obreve" unicode="&#x14e;" 
d="M299 -10q-67 0 -115 26.5t-79 75t-45.5 116t-14.5 149.5q0 110 26.5 193t83 129.5t145.5 46.5q67 0 115 -26t79 -75t46 -116t15 -150t-15 -151t-46 -116.5t-79.5 -75t-115.5 -26.5zM301 70q60 0 95.5 34.5t51 99t15.5 154.5q0 136 -36 212t-125 76q-60 0 -96.5 -34.5
t-52.5 -99t-16 -154.5t16 -154.5t52 -99t96 -34.5zM296 784q-71 0 -110.5 38t-41.5 96h58q7 -30 22.5 -45t35.5 -20.5t39 -5.5q31 0 59.5 13.5t37.5 57.5h59q-1 -58 -42.5 -96t-116.5 -38z" />
    <glyph glyph-name="obreve" unicode="&#x14f;" 
d="M301 -10q-52 0 -97 17t-78.5 52t-52 87.5t-18.5 123.5q0 93 31.5 154t86.5 91.5t125 30.5t126 -30.5t88.5 -92t32.5 -156.5q0 -70 -18.5 -122t-51 -86.5t-77 -51.5t-97.5 -17zM300 63q52 0 86 25t51 71.5t17 109.5q0 64 -17 109.5t-51.5 70t-86.5 24.5
q-78 0 -116.5 -54.5t-38.5 -149.5q0 -63 17.5 -109.5t52 -71.5t86.5 -25zM296 606q-71 0 -110.5 38t-41.5 96h58q7 -30 22.5 -45t35.5 -20.5t39 -5.5q31 0 59.5 13.5t37.5 57.5h59q-1 -58 -42.5 -96t-116.5 -38z" />
    <glyph glyph-name="Ohungarumlaut" unicode="&#x150;" 
d="M299 -10q-67 0 -115 26.5t-79 75t-45.5 116t-14.5 149.5q0 110 26.5 193t83 129.5t145.5 46.5q67 0 115 -26t79 -75t46 -116t15 -150t-15 -151t-46 -116.5t-79.5 -75t-115.5 -26.5zM301 70q60 0 95.5 34.5t51 99t15.5 154.5q0 136 -36 212t-125 76q-60 0 -96.5 -34.5
t-52.5 -99t-16 -154.5t16 -154.5t52 -99t96 -34.5zM316 784v12q14 19 30 45l31.5 53.5t25.5 49.5h96v-10q-10 -17 -33 -46t-50 -57.5t-50 -46.5h-50zM140 784v12q14 19 30 45t31 53.5t26 49.5h96v-10q-10 -17 -33 -46t-50 -57.5t-50 -46.5h-50z" />
    <glyph glyph-name="ohungarumlaut" unicode="&#x151;" 
d="M301 -10q-52 0 -97 17t-78.5 52t-52 87.5t-18.5 123.5q0 93 31.5 154t86.5 91.5t125 30.5t126 -30.5t88.5 -92t32.5 -156.5q0 -70 -18.5 -122t-51 -86.5t-77 -51.5t-97.5 -17zM300 63q52 0 86 25t51 71.5t17 109.5q0 64 -17 109.5t-51.5 70t-86.5 24.5
q-78 0 -116.5 -54.5t-38.5 -149.5q0 -63 17.5 -109.5t52 -71.5t86.5 -25zM316 606v12q14 19 30 45l31.5 53.5t25.5 49.5h96v-10q-10 -17 -33 -46t-50 -57.5t-50 -46.5h-50zM140 606v12q14 19 30 45t31 53.5t26 49.5h96v-10q-10 -17 -33 -46t-50 -57.5t-50 -46.5h-50z" />
    <glyph glyph-name="OE" unicode="&#x152;" 
d="M240 -10q-71 0 -115 46t-64.5 129t-20.5 194q0 83 12 150t37.5 115t66 74t96.5 26q20 0 39 -2.5t36 -7.5h243v-80h-173v-221h154v-79h-154v-254h173v-80h-259q-16 -4 -34 -7t-37 -3zM245 70q19 0 35.5 4.5t29.5 11.5v543q-13 8 -29.5 12t-34.5 4q-30 0 -52 -19.5
t-35.5 -57t-20 -90.5t-6.5 -120q0 -89 11.5 -154t36.5 -99.5t65 -34.5z" />
    <glyph glyph-name="oe" unicode="&#x153;" 
d="M190 -10q-54 0 -91.5 33.5t-57 97t-19.5 152.5q0 66 10.5 117t32 86t52.5 53t72 18q48 0 77.5 -24.5t49.5 -71.5q13 32 31 53t41 31.5t50 10.5q50 0 81.5 -31.5t46 -85.5t14.5 -120v-56h-224q1 -66 11.5 -109t32.5 -64.5t58 -21.5q23 0 47.5 8.5t54.5 27.5v-70
q-28 -17 -54.5 -25.5t-55.5 -8.5q-46 0 -78.5 23t-54.5 74q-19 -48 -50 -72.5t-77 -24.5zM194 60q29 0 47.5 22t27 68t8.5 117q0 70 -8.5 116t-27 69.5t-49.5 23.5q-47 0 -68.5 -52.5t-21.5 -153.5q0 -106 23 -158t69 -52zM357 317h148q0 45 -7 81.5t-22 58.5t-41 22
q-17 0 -31 -10.5t-24 -31t-16 -50.5t-7 -70z" />
    <glyph glyph-name="Racute" unicode="&#x154;" 
d="M95 0v714h167q84 0 139.5 -22.5t83.5 -66.5t28 -111q0 -56 -18 -94.5t-48.5 -63t-68.5 -38.5l191 -318h-100l-172 292h-112v-292h-90zM185 370h74q59 0 94 15.5t51 46t16 74.5q0 71 -38.5 100.5t-124.5 29.5h-72v-266zM259 784v12q15 19 32.5 45l34.5 53.5t28 49.5h106
v-10q-12 -18 -37 -46.5t-53.5 -57t-52.5 -46.5h-58z" />
    <glyph glyph-name="racute" unicode="&#x155;" 
d="M62 0v60l163 15v386l-147 13v62h219l12 -98h4q28 53 61.5 80.5t88.5 27.5q34 0 60.5 -6t48.5 -16l-24 -79q-16 9 -38 15.5t-47 6.5q-43 0 -76 -27t-52 -72t-19 -99v-194l156 -15v-60h-410zM299 606v12q15 19 32.5 45l34.5 53.5t28 49.5h106v-10q-12 -18 -37 -46.5
t-53.5 -57t-52.5 -46.5h-58z" />
    <glyph glyph-name="uni0156" unicode="&#x156;" 
d="M95 0v714h167q84 0 139.5 -22.5t83.5 -66.5t28 -111q0 -56 -18 -94.5t-48.5 -63t-68.5 -38.5l191 -318h-100l-172 292h-112v-292h-90zM185 370h74q59 0 94 15.5t51 46t16 74.5q0 71 -38.5 100.5t-124.5 29.5h-72v-266zM247 -221v12q8 17 16.5 43.5t15.5 55t9 49.5h87v-7
q-4 -18 -16.5 -46t-29 -56.5t-34.5 -50.5h-48z" />
    <glyph glyph-name="uni0157" unicode="&#x157;" 
d="M62 0v60l163 15v386l-147 13v62h219l12 -98h4q28 53 61.5 80.5t88.5 27.5q34 0 60.5 -6t48.5 -16l-24 -79q-16 9 -38 15.5t-47 6.5q-43 0 -76 -27t-52 -72t-19 -99v-194l156 -15v-60h-410zM188 -221v12q8 17 16.5 43.5t15.5 55t9 49.5h87v-7q-4 -18 -16.5 -46t-29 -56.5
t-34.5 -50.5h-48z" />
    <glyph glyph-name="Rcaron" unicode="&#x158;" 
d="M95 0v714h167q84 0 139.5 -22.5t83.5 -66.5t28 -111q0 -56 -18 -94.5t-48.5 -63t-68.5 -38.5l191 -318h-100l-172 292h-112v-292h-90zM185 370h74q59 0 94 15.5t51 46t16 74.5q0 71 -38.5 100.5t-124.5 29.5h-72v-266zM254 784q-13 23 -35 49.5t-46 52.5l-42 45v13h60
q26 -17 54 -41t53 -51q27 27 55 51t54 41h62v-13l-43.5 -45t-47 -52.5t-34.5 -49.5h-90z" />
    <glyph glyph-name="rcaron" unicode="&#x159;" 
d="M62 0v60l163 15v386l-147 13v62h219l12 -98h4q28 53 61.5 80.5t88.5 27.5q34 0 60.5 -6t48.5 -16l-24 -79q-16 9 -38 15.5t-47 6.5q-43 0 -76 -27t-52 -72t-19 -99v-194l156 -15v-60h-410zM294 606q-13 23 -35 49.5t-46 52.5l-42 45v13h60q26 -17 54 -41t53 -51
q27 27 55 51t54 41h62v-13l-43.5 -45t-47 -52.5t-34.5 -49.5h-90z" />
    <glyph glyph-name="Sacute" unicode="&#x15a;" 
d="M281 -10q-57 0 -110.5 10.5t-85.5 26.5v83q37 -16 90 -29.5t108 -13.5q51 0 85.5 14t51.5 42t17 69q0 34 -14 54t-49.5 38.5t-99.5 46.5q-42 19 -82 42t-65.5 61t-25.5 100t27.5 104t78.5 64t122 22q54 0 102 -11.5t84 -28.5l-29 -75q-34 16 -76 25.5t-83 9.5
q-39 0 -69.5 -11t-47.5 -35.5t-17 -65.5q0 -35 14.5 -57t46.5 -38.5t82 -38.5q57 -24 100.5 -48.5t68 -60.5t24.5 -98q0 -48 -15.5 -85t-47 -63t-77.5 -39.5t-108 -13.5zM278 784v12q15 19 32.5 45l34.5 53.5t28 49.5h106v-10q-12 -18 -37 -46.5t-53.5 -57t-52.5 -46.5h-58z
" />
    <glyph glyph-name="sacute" unicode="&#x15b;" 
d="M279 -10q-50 0 -95.5 9t-78.5 25v83q35 -16 77.5 -29.5t101.5 -13.5q66 0 93.5 20.5t27.5 59.5q0 21 -9.5 34.5t-36.5 27.5t-79 36q-52 23 -89 43t-57 47.5t-20 70.5q0 48 24.5 79.5t71 47.5t110.5 16q44 0 84 -8t83 -26l-27 -70q-40 17 -73.5 23t-66.5 6
q-62 0 -90.5 -16t-28.5 -50q0 -22 12.5 -37t41 -29t75.5 -34q53 -22 90 -41t56 -45.5t19 -72.5q0 -51 -24.5 -85.5t-72.5 -52.5t-119 -18zM264 606v12q15 19 32.5 45l34.5 53.5t28 49.5h106v-10q-12 -18 -37 -46.5t-53.5 -57t-52.5 -46.5h-58z" />
    <glyph glyph-name="Scircumflex" unicode="&#x15c;" 
d="M281 -10q-57 0 -110.5 10.5t-85.5 26.5v83q37 -16 90 -29.5t108 -13.5q51 0 85.5 14t51.5 42t17 69q0 34 -14 54t-49.5 38.5t-99.5 46.5q-42 19 -82 42t-65.5 61t-25.5 100t27.5 104t78.5 64t122 22q54 0 102 -11.5t84 -28.5l-29 -75q-34 16 -76 25.5t-83 9.5
q-39 0 -69.5 -11t-47.5 -35.5t-17 -65.5q0 -35 14.5 -57t46.5 -38.5t82 -38.5q57 -24 100.5 -48.5t68 -60.5t24.5 -98q0 -48 -15.5 -85t-47 -63t-77.5 -39.5t-108 -13.5zM150 784v11l42.5 46t45.5 53.5t35 49.5h90q12 -22 34.5 -49.5t47 -54l43.5 -45.5v-11h-62
q-26 16 -54 43l-55 54l-54 -53.5t-53 -43.5h-60z" />
    <glyph glyph-name="scircumflex" unicode="&#x15d;" 
d="M279 -10q-50 0 -95.5 9t-78.5 25v83q35 -16 77.5 -29.5t101.5 -13.5q66 0 93.5 20.5t27.5 59.5q0 21 -9.5 34.5t-36.5 27.5t-79 36q-52 23 -89 43t-57 47.5t-20 70.5q0 48 24.5 79.5t71 47.5t110.5 16q44 0 84 -8t83 -26l-27 -70q-40 17 -73.5 23t-66.5 6
q-62 0 -90.5 -16t-28.5 -50q0 -22 12.5 -37t41 -29t75.5 -34q53 -22 90 -41t56 -45.5t19 -72.5q0 -51 -24.5 -85.5t-72.5 -52.5t-119 -18zM136 606v11l42.5 46t45.5 53.5t35 49.5h90q12 -22 34.5 -49.5t47 -54l43.5 -45.5v-11h-62q-26 16 -54 43l-55 54l-54 -53.5t-53 -43.5
h-60z" />
    <glyph glyph-name="Scedilla" unicode="&#x15e;" 
d="M281 -10q-57 0 -110.5 10.5t-85.5 26.5v83q37 -16 90 -29.5t108 -13.5q51 0 85.5 14t51.5 42t17 69q0 34 -14 54t-49.5 38.5t-99.5 46.5q-42 19 -82 42t-65.5 61t-25.5 100t27.5 104t78.5 64t122 22q54 0 102 -11.5t84 -28.5l-29 -75q-34 16 -76 25.5t-83 9.5
q-39 0 -69.5 -11t-47.5 -35.5t-17 -65.5q0 -35 14.5 -57t46.5 -38.5t82 -38.5q57 -24 100.5 -48.5t68 -60.5t24.5 -98q0 -48 -15.5 -85t-47 -63t-77.5 -39.5t-108 -13.5zM247 -240q-16 0 -29.5 1.5t-21.5 3.5v55q9 -2 24 -3.5t29 -1.5q35 0 54.5 9.5t19.5 33.5
q0 26 -23.5 38t-67.5 18l43 91h58l-26 -58q36 -8 61.5 -27.5t25.5 -60.5q0 -46 -37 -72.5t-110 -26.5z" />
    <glyph glyph-name="scedilla" unicode="&#x15f;" 
d="M279 -10q-50 0 -95.5 9t-78.5 25v83q35 -16 77.5 -29.5t101.5 -13.5q66 0 93.5 20.5t27.5 59.5q0 21 -9.5 34.5t-36.5 27.5t-79 36q-52 23 -89 43t-57 47.5t-20 70.5q0 48 24.5 79.5t71 47.5t110.5 16q44 0 84 -8t83 -26l-27 -70q-40 17 -73.5 23t-66.5 6
q-62 0 -90.5 -16t-28.5 -50q0 -22 12.5 -37t41 -29t75.5 -34q53 -22 90 -41t56 -45.5t19 -72.5q0 -51 -24.5 -85.5t-72.5 -52.5t-119 -18zM252 -240q-16 0 -29.5 1.5t-21.5 3.5v55q9 -2 24 -3.5t29 -1.5q35 0 54.5 9.5t19.5 33.5q0 26 -23.5 38t-67.5 18l43 91h58l-26 -58
q36 -8 61.5 -27.5t25.5 -60.5q0 -46 -37 -72.5t-110 -26.5z" />
    <glyph glyph-name="Scaron" unicode="&#x160;" 
d="M281 -10q-57 0 -110.5 10.5t-85.5 26.5v83q37 -16 90 -29.5t108 -13.5q51 0 85.5 14t51.5 42t17 69q0 34 -14 54t-49.5 38.5t-99.5 46.5q-42 19 -82 42t-65.5 61t-25.5 100t27.5 104t78.5 64t122 22q54 0 102 -11.5t84 -28.5l-29 -75q-34 16 -76 25.5t-83 9.5
q-39 0 -69.5 -11t-47.5 -35.5t-17 -65.5q0 -35 14.5 -57t46.5 -38.5t82 -38.5q57 -24 100.5 -48.5t68 -60.5t24.5 -98q0 -48 -15.5 -85t-47 -63t-77.5 -39.5t-108 -13.5zM273 784q-13 23 -35 49.5t-46 52.5l-42 45v13h60q26 -17 54 -41t53 -51q27 27 55 51t54 41h62v-13
l-43.5 -45t-47 -52.5t-34.5 -49.5h-90z" />
    <glyph glyph-name="scaron" unicode="&#x161;" 
d="M279 -10q-50 0 -95.5 9t-78.5 25v83q35 -16 77.5 -29.5t101.5 -13.5q66 0 93.5 20.5t27.5 59.5q0 21 -9.5 34.5t-36.5 27.5t-79 36q-52 23 -89 43t-57 47.5t-20 70.5q0 48 24.5 79.5t71 47.5t110.5 16q44 0 84 -8t83 -26l-27 -70q-40 17 -73.5 23t-66.5 6
q-62 0 -90.5 -16t-28.5 -50q0 -22 12.5 -37t41 -29t75.5 -34q53 -22 90 -41t56 -45.5t19 -72.5q0 -51 -24.5 -85.5t-72.5 -52.5t-119 -18zM259 606q-13 23 -35 49.5t-46 52.5l-42 45v13h60q26 -17 54 -41t53 -51q27 27 55 51t54 41h62v-13l-43.5 -45t-47 -52.5t-34.5 -49.5
h-90z" />
    <glyph glyph-name="uni021A" unicode="&#x21a;" 
d="M255 0v634h-210v80h510v-80h-210v-634h-90zM217 -221v12q8 17 16.5 43.5t15.5 55t9 49.5h87v-7q-4 -18 -16.5 -46t-29 -56.5t-34.5 -50.5h-48z" />
    <glyph glyph-name="uni021B" unicode="&#x21b;" 
d="M402 -10q-57 0 -102 15t-71.5 53t-26.5 105v298h-146v62l146 16l18 140h72v-143h209v-75h-209v-281q0 -40 11.5 -66t37.5 -38.5t67 -12.5q26 0 56 5t52 10v-72q-24 -6 -53 -11t-61 -5zM291 -221v12q8 17 16.5 43.5t15.5 55t9 49.5h87v-7q-4 -18 -16.5 -46t-29 -56.5
t-34.5 -50.5h-48z" />
    <glyph glyph-name="Tcaron" unicode="&#x164;" 
d="M255 0v634h-210v80h510v-80h-210v-634h-90zM254 784q-13 23 -35 49.5t-46 52.5l-42 45v13h60q26 -17 54 -41t53 -51q27 27 55 51t54 41h62v-13l-43.5 -45t-47 -52.5t-34.5 -49.5h-90z" />
    <glyph glyph-name="tcaron" unicode="&#x165;" 
d="M392 611v12q5 14 10 33t9.5 39.5t8 40t5.5 35.5h87v-8q-4 -18 -15.5 -45.5t-26.5 -56t-30 -50.5h-48zM402 -10q-57 0 -102 15t-71.5 53t-26.5 105v298h-146v62l146 16l18 140h72v-143h209v-75h-209v-281q0 -40 11.5 -66t37.5 -38.5t67 -12.5q26 0 56 5t52 10v-72
q-24 -6 -53 -11t-61 -5z" />
    <glyph glyph-name="Tbar" unicode="&#x166;" 
d="M107 325v74h387v-74h-387zM255 0v634h-210v80h510v-80h-210v-634h-90z" />
    <glyph glyph-name="tbar" unicode="&#x167;" 
d="M56 280v66h460v-66h-460zM402 -10q-57 0 -102 15t-71.5 53t-26.5 105v298h-146v62l146 16l18 140h72v-143h209v-75h-209v-281q0 -40 11.5 -66t37.5 -38.5t67 -12.5q26 0 56 5t52 10v-72q-24 -6 -53 -11t-61 -5z" />
    <glyph glyph-name="Utilde" unicode="&#x168;" 
d="M298 -10q-82 0 -132.5 32.5t-73 92t-22.5 139.5v460h90v-455q0 -56 12.5 -99t43 -66.5t84.5 -23.5q57 0 87.5 25t41.5 68.5t11 96.5v454h90v-462q0 -74 -22 -133.5t-73 -94t-137 -34.5zM120 784q3 30 11.5 53.5t22.5 40t33 25.5t43 9q21 0 40.5 -8.5t37.5 -20t34.5 -20
t32.5 -8.5q23 0 35.5 14.5t19.5 43.5h50q-6 -58 -34 -93t-75 -35q-21 0 -40 8.5t-36.5 20t-34.5 20t-34 8.5q-24 0 -36 -14.5t-19 -43.5h-51z" />
    <glyph glyph-name="utilde" unicode="&#x169;" 
d="M261 -10q-95 0 -140.5 47.5t-45.5 141.5v357h90v-343q0 -64 26.5 -97t91.5 -33q56 0 88 23.5t45.5 67.5t13.5 106v276h90v-536h-72l-13 72h-5q-19 -30 -44 -48t-56 -26t-69 -8zM120 606q3 30 11.5 53.5t22.5 40t33 25.5t43 9q21 0 40.5 -8.5t37.5 -20t34.5 -20t32.5 -8.5
q23 0 35.5 14.5t19.5 43.5h50q-6 -58 -34 -93t-75 -35q-21 0 -40 8.5t-36.5 20t-34.5 20t-34 8.5q-24 0 -36 -14.5t-19 -43.5h-51z" />
    <glyph glyph-name="Umacron" unicode="&#x16a;" 
d="M298 -10q-82 0 -132.5 32.5t-73 92t-22.5 139.5v460h90v-455q0 -56 12.5 -99t43 -66.5t84.5 -23.5q57 0 87.5 25t41.5 68.5t11 96.5v454h90v-462q0 -74 -22 -133.5t-73 -94t-137 -34.5zM151 796v71h297v-71h-297z" />
    <glyph glyph-name="umacron" unicode="&#x16b;" 
d="M261 -10q-95 0 -140.5 47.5t-45.5 141.5v357h90v-343q0 -64 26.5 -97t91.5 -33q56 0 88 23.5t45.5 67.5t13.5 106v276h90v-536h-72l-13 72h-5q-19 -30 -44 -48t-56 -26t-69 -8zM151 618v71h297v-71h-297z" />
    <glyph glyph-name="Ubreve" unicode="&#x16c;" 
d="M298 -10q-82 0 -132.5 32.5t-73 92t-22.5 139.5v460h90v-455q0 -56 12.5 -99t43 -66.5t84.5 -23.5q57 0 87.5 25t41.5 68.5t11 96.5v454h90v-462q0 -74 -22 -133.5t-73 -94t-137 -34.5zM296 784q-71 0 -110.5 38t-41.5 96h58q7 -30 22.5 -45t35.5 -20.5t39 -5.5
q31 0 59.5 13.5t37.5 57.5h59q-1 -58 -42.5 -96t-116.5 -38z" />
    <glyph glyph-name="ubreve" unicode="&#x16d;" 
d="M261 -10q-95 0 -140.5 47.5t-45.5 141.5v357h90v-343q0 -64 26.5 -97t91.5 -33q56 0 88 23.5t45.5 67.5t13.5 106v276h90v-536h-72l-13 72h-5q-19 -30 -44 -48t-56 -26t-69 -8zM296 606q-71 0 -110.5 38t-41.5 96h58q7 -30 22.5 -45t35.5 -20.5t39 -5.5q31 0 59.5 13.5
t37.5 57.5h59q-1 -58 -42.5 -96t-116.5 -38z" />
    <glyph glyph-name="Uring" unicode="&#x16e;" 
d="M298 -10q-82 0 -132.5 32.5t-73 92t-22.5 139.5v460h90v-455q0 -56 12.5 -99t43 -66.5t84.5 -23.5q57 0 87.5 25t41.5 68.5t11 96.5v454h90v-462q0 -74 -22 -133.5t-73 -94t-137 -34.5zM299 784q-49 0 -79 28t-30 78t30 77.5t79 27.5q47 0 79 -27.5t32 -76.5
q0 -51 -31.5 -79t-79.5 -28zM299 836q24 0 39 14.5t15 39.5q0 26 -15.5 40t-38.5 14q-22 0 -37.5 -14t-15.5 -40q0 -25 15 -39.5t38 -14.5z" />
    <glyph glyph-name="uring" unicode="&#x16f;" 
d="M261 -10q-95 0 -140.5 47.5t-45.5 141.5v357h90v-343q0 -64 26.5 -97t91.5 -33q56 0 88 23.5t45.5 67.5t13.5 106v276h90v-536h-72l-13 72h-5q-19 -30 -44 -48t-56 -26t-69 -8zM299 606q-49 0 -79 28t-30 78t30 77.5t79 27.5q47 0 79 -27.5t32 -76.5q0 -51 -31.5 -79
t-79.5 -28zM299 658q24 0 39 14.5t15 39.5q0 26 -15.5 40t-38.5 14q-22 0 -37.5 -14t-15.5 -40q0 -25 15 -39.5t38 -14.5z" />
    <glyph glyph-name="Uhungarumlaut" unicode="&#x170;" 
d="M298 -10q-82 0 -132.5 32.5t-73 92t-22.5 139.5v460h90v-455q0 -56 12.5 -99t43 -66.5t84.5 -23.5q57 0 87.5 25t41.5 68.5t11 96.5v454h90v-462q0 -74 -22 -133.5t-73 -94t-137 -34.5zM316 784v12q14 19 30 45l31.5 53.5t25.5 49.5h96v-10q-10 -17 -33 -46t-50 -57.5
t-50 -46.5h-50zM140 784v12q14 19 30 45t31 53.5t26 49.5h96v-10q-10 -17 -33 -46t-50 -57.5t-50 -46.5h-50z" />
    <glyph glyph-name="uhungarumlaut" unicode="&#x171;" 
d="M261 -10q-95 0 -140.5 47.5t-45.5 141.5v357h90v-343q0 -64 26.5 -97t91.5 -33q56 0 88 23.5t45.5 67.5t13.5 106v276h90v-536h-72l-13 72h-5q-19 -30 -44 -48t-56 -26t-69 -8zM316 606v12q14 19 30 45l31.5 53.5t25.5 49.5h96v-10q-10 -17 -33 -46t-50 -57.5t-50 -46.5
h-50zM140 606v12q14 19 30 45t31 53.5t26 49.5h96v-10q-10 -17 -33 -46t-50 -57.5t-50 -46.5h-50z" />
    <glyph glyph-name="Uogonek" unicode="&#x172;" 
d="M337 -220q-54 0 -79 28t-25 71q0 37 21 65t52 49t59 36l50 -15q-35 -21 -59.5 -41t-37.5 -41t-13 -45q0 -25 13 -36.5t38 -11.5q11 0 22.5 1.5t19.5 4.5v-56q-14 -4 -28.5 -6.5t-32.5 -2.5zM298 -10q-82 0 -132.5 32.5t-73 92t-22.5 139.5v460h90v-455q0 -56 12.5 -99
t43 -66.5t84.5 -23.5q57 0 87.5 25t41.5 68.5t11 96.5v454h90v-462q0 -74 -22 -133.5t-73 -94t-137 -34.5z" />
    <glyph glyph-name="uogonek" unicode="&#x173;" 
d="M261 -10q-95 0 -140.5 47.5t-45.5 141.5v357h90v-343q0 -64 26.5 -97t91.5 -33q56 0 88 23.5t45.5 67.5t13.5 106v276h90v-536h-72l-13 72h-5q-19 -30 -44 -48t-56 -26t-69 -8zM479 -220q-54 0 -79 25t-25 64q0 33 14.5 60.5t36 49t41.5 36.5l48 -15q-33 -31 -50.5 -58
t-17.5 -57q0 -25 13 -35.5t38 -10.5q11 0 22.5 1.5t19.5 4.5v-56q-14 -4 -28.5 -6.5t-32.5 -2.5z" />
    <glyph glyph-name="Wcircumflex" unicode="&#x174;" 
d="M105 0l-80 714h83q4 -39 7.5 -78.5t7.5 -79t7.5 -79t7.5 -78.5q3 -31 6 -66t5.5 -70.5t4.5 -67.5l3.5 -57.5t1.5 -39.5h2q3 17 8 42.5l11 54.5t12.5 57.5l11.5 51.5l54 232h86l56 -234l13 -54.5t13 -56t10.5 -52l7.5 -41.5h2q1 14 2 37.5t2.5 53t3.5 64.5t5 72.5l6 76.5
q3 31 5.5 62.5t5.5 62.5t5.5 62l5 62.5t5.5 62.5h83l-72 -714h-97l-79 328q-7 30 -12 54.5t-8 42t-5 25.5h-2q-1 -8 -3.5 -25t-7.5 -41.5t-12 -55.5l-76 -328h-96zM131 784v11l42.5 46t45.5 53.5t35 49.5h90q12 -22 34.5 -49.5t47 -54l43.5 -45.5v-11h-62q-26 16 -54 43
l-55 54l-54 -53.5t-53 -43.5h-60z" />
    <glyph glyph-name="wcircumflex" unicode="&#x175;" 
d="M102 0l-86 536h84l39 -265q6 -37 8.5 -66l5 -59t4.5 -71h3l8.5 47.5t13 66t16.5 65.5l52 181h99l50 -181q9 -30 17 -64.5l14.5 -65t8.5 -49.5h3q3 40 5 69.5t5 58.5t9 68l42 265h82l-88 -536h-108l-48 188l-21 82t-19 81h-3q-8 -40 -19.5 -81l-22.5 -82l-49 -188h-105z
M132 606v11l42.5 46t45.5 53.5t35 49.5h90q12 -22 34.5 -49.5t47 -54l43.5 -45.5v-11h-62q-26 16 -54 43l-55 54l-54 -53.5t-53 -43.5h-60z" />
    <glyph glyph-name="Ycircumflex" unicode="&#x176;" 
d="M257 0v278l-222 436h99l167 -361l168 361h96l-222 -436v-278h-86zM131 784v11l42.5 46t45.5 53.5t35 49.5h90q12 -22 34.5 -49.5t47 -54l43.5 -45.5v-11h-62q-26 16 -54 43l-55 54l-54 -53.5t-53 -43.5h-60z" />
    <glyph glyph-name="ycircumflex" unicode="&#x177;" 
d="M136 -245q-20 0 -39 2.5t-33 5.5v69q12 -2 28.5 -4t32.5 -2q31 0 51.5 10t36 31t28.5 55l29 73l-225 541h88l128 -315q13 -31 25.5 -69t22.5 -73h3q7 25 15 49.5l15.5 48.5l14.5 45l105 314h92l-225 -606q-19 -52 -41.5 -91.5t-58 -61.5t-93.5 -22zM131 606v11l42.5 46
t45.5 53.5t35 49.5h90q12 -22 34.5 -49.5t47 -54l43.5 -45.5v-11h-62q-26 16 -54 43l-55 54l-54 -53.5t-53 -43.5h-60z" />
    <glyph glyph-name="Ydieresis" unicode="&#x178;" 
d="M257 0v278l-222 436h99l167 -361l168 361h96l-222 -436v-278h-86zM414 800q-22 0 -38 14.5t-16 44.5q0 31 16 44t38 13t38.5 -13t16.5 -44q0 -30 -16.5 -44.5t-38.5 -14.5zM185 800q-22 0 -38 14.5t-16 44.5q0 31 16 44t38 13t38.5 -13t16.5 -44q0 -30 -16.5 -44.5
t-38.5 -14.5z" />
    <glyph glyph-name="Zacute" unicode="&#x179;" 
d="M95 0v71l317 565h-297v78h390v-71l-313 -563h313v-80h-410zM271 784v12q15 19 32.5 45l34.5 53.5t28 49.5h106v-10q-12 -18 -37 -46.5t-53.5 -57t-52.5 -46.5h-58z" />
    <glyph glyph-name="zacute" unicode="&#x17a;" 
d="M90 0v61l315 406h-299v69h396v-71l-305 -389h313v-76h-420zM269 606v12q15 19 32.5 45l34.5 53.5t28 49.5h106v-10q-12 -18 -37 -46.5t-53.5 -57t-52.5 -46.5h-58z" />
    <glyph glyph-name="Zdotaccent" unicode="&#x17b;" 
d="M95 0v71l317 565h-297v78h390v-71l-313 -563h313v-80h-410zM311 811q-26 0 -44.5 16t-18.5 47q0 33 18.5 48.5t44.5 15.5t44.5 -15.5t18.5 -48.5q0 -31 -18.5 -47t-44.5 -16z" />
    <glyph glyph-name="zdotaccent" unicode="&#x17c;" 
d="M90 0v61l315 406h-299v69h396v-71l-305 -389h313v-76h-420zM309 633q-26 0 -44.5 16t-18.5 47q0 33 18.5 48.5t44.5 15.5t44.5 -15.5t18.5 -48.5q0 -31 -18.5 -47t-44.5 -16z" />
    <glyph glyph-name="Zcaron" unicode="&#x17d;" 
d="M95 0v71l317 565h-297v78h390v-71l-313 -563h313v-80h-410zM266 784q-13 23 -35 49.5t-46 52.5l-42 45v13h60q26 -17 54 -41t53 -51q27 27 55 51t54 41h62v-13l-43.5 -45t-47 -52.5t-34.5 -49.5h-90z" />
    <glyph glyph-name="zcaron" unicode="&#x17e;" 
d="M90 0v61l315 406h-299v69h396v-71l-305 -389h313v-76h-420zM264 606q-13 23 -35 49.5t-46 52.5l-42 45v13h60q26 -17 54 -41t53 -51q27 27 55 51t54 41h62v-13l-43.5 -45t-47 -52.5t-34.5 -49.5h-90z" />
    <glyph glyph-name="longs" unicode="&#x17f;" 
d="M221 0v577q0 69 25.5 110t71.5 59.5t107 18.5q38 0 71 -5.5t52 -13.5l-23 -69q-16 5 -44.5 10t-56.5 5q-55 0 -85 -28t-30 -102v-562h-88z" />
    <glyph glyph-name="florin" unicode="&#x192;" 
d="M200 -16q-70 0 -107 39t-37 97q0 14 2 26.5t5 22.5l88 -20q-1 -6 -2.5 -13.5t-1.5 -15.5q0 -29 15 -45t40 -16q30 0 44.5 23.5t14.5 66.5v312h-165v62l165 13v61q0 64 23 100.5t65 52t97 15.5q41 0 71.5 -6t52.5 -14l-20 -69q-19 6 -46 10.5t-53 4.5q-48 0 -74 -22
t-26 -84v-49h182v-75h-182v-313q0 -47 -15.5 -84.5t-48.5 -58.5t-87 -21z" />
    <glyph glyph-name="Aringacute" unicode="&#x1fa;" 
d="M20 0l232 717h95l233 -717h-92l-159 512q-3 12 -8.5 29.5t-11 39l-10.5 41.5q-4 -20 -9.5 -41.5l-10.5 -39.5t-9 -29l-159 -512h-91zM154 219l30 80h227l26 -80h-283zM299 666q-49 0 -79 28t-30 78t30 77.5t79 27.5q47 0 79 -27.5t32 -76.5q0 -51 -31.5 -79t-79.5 -28z
M299 718q24 0 39 14.5t15 39.5q0 26 -15.5 40t-38.5 14q-22 0 -37.5 -14t-15.5 -40q0 -25 15 -39.5t38 -14.5zM259 915v12q15 19 32.5 45l34.5 53.5t28 49.5h106v-10q-12 -18 -37 -46.5t-53.5 -57t-52.5 -46.5h-58z" />
    <glyph glyph-name="aringacute" unicode="&#x1fb;" 
d="M246 -10q-79 0 -127.5 39t-48.5 118q0 58 28 96.5t82.5 58t132.5 21.5l115 3v22q0 72 -36 98.5t-97 26.5q-43 0 -82 -11t-74 -31l-31 68q38 19 84.5 33t107.5 14q101 0 155.5 -45.5t54.5 -141.5v-359h-72l-10 74h-4q-22 -28 -48.5 -46.5t-58.5 -28t-71 -9.5zM261 63
q45 0 83 16.5t61 50t23 84.5v48l-96 -3q-64 -2 -103 -15.5t-56.5 -37t-17.5 -56.5q0 -46 29 -66.5t77 -20.5zM304 606q-49 0 -79 28t-30 78t30 77.5t79 27.5q47 0 79 -27.5t32 -76.5q0 -51 -31.5 -79t-79.5 -28zM304 658q24 0 39 14.5t15 39.5q0 26 -15.5 40t-38.5 14
q-22 0 -37.5 -14t-15.5 -40q0 -25 15 -39.5t38 -14.5zM264 887v12q15 19 32.5 45l34.5 53.5t28 49.5h106v-10q-12 -18 -37 -46.5t-53.5 -57t-52.5 -46.5h-58z" />
    <glyph glyph-name="AEacute" unicode="&#x1fc;" 
d="M20 0l160 714h363v-80h-180v-221h161v-79h-161v-254h180v-80h-266v634h-35l-135 -634h-87zM123 219l21 77h156v-77h-177zM284 784v12q15 19 32.5 45l34.5 53.5t28 49.5h106v-10q-12 -18 -37 -46.5t-53.5 -57t-52.5 -46.5h-58z" />
    <glyph glyph-name="aeacute" unicode="&#x1fd;" 
d="M145 -10q-51 0 -88 39t-37 121q0 53 19 90.5t55 58t86 21.5l78 2v34q0 65 -20 91t-58 26q-23 0 -48.5 -10.5t-45.5 -27.5l-31 64q25 20 61.5 33.5t67.5 13.5q48 0 79.5 -19t47.5 -60q17 38 48 58.5t74 20.5q46 0 79 -28t50.5 -81.5t17.5 -130.5v-55h-245q1 -69 16 -110.5
t41.5 -59.5t60.5 -18q32 0 58.5 10t55.5 32v-79q-28 -19 -55 -27.5t-63 -8.5q-48 0 -89 23.5t-63 84.5q-25 -58 -61.5 -83t-90.5 -25zM161 63q25 0 46.5 14t35 47.5t13.5 89.5v45l-45 -3q-58 -4 -84.5 -30.5t-26.5 -76.5q0 -45 18 -65.5t43 -20.5zM337 321h161q0 50 -7.5 84
t-23.5 51t-43 17q-35 0 -59.5 -39t-27.5 -113zM259 606v12q15 19 32.5 45l34.5 53.5t28 49.5h106v-10q-12 -18 -37 -46.5t-53.5 -57t-52.5 -46.5h-58z" />
    <glyph glyph-name="Oslashacute" unicode="&#x1fe;" 
d="M121 -38l-65 35l430 752l64 -35zM299 -10q-67 0 -115 26.5t-79 75t-45.5 116t-14.5 149.5q0 110 26.5 193t83 129.5t145.5 46.5q67 0 115 -26t79 -75t46 -116t15 -150t-15 -151t-46 -116.5t-79.5 -75t-115.5 -26.5zM301 70q60 0 95.5 34.5t51 99t15.5 154.5
q0 136 -36 212t-125 76q-60 0 -96.5 -34.5t-52.5 -99t-16 -154.5t16 -154.5t52 -99t96 -34.5zM259 784v12q15 19 32.5 45l34.5 53.5t28 49.5h106v-10q-12 -18 -37 -46.5t-53.5 -57t-52.5 -46.5h-58z" />
    <glyph glyph-name="oslashacute" unicode="&#x1ff;" 
d="M132 -33l-58 39l400 560l59 -38zM301 -10q-52 0 -97 17t-78.5 52t-52 87.5t-18.5 123.5q0 93 31.5 154t86.5 91.5t125 30.5t126 -30.5t88.5 -92t32.5 -156.5q0 -70 -18.5 -122t-51 -86.5t-77 -51.5t-97.5 -17zM300 63q52 0 86 25t51 71.5t17 109.5q0 64 -17 109.5
t-51.5 70t-86.5 24.5q-78 0 -116.5 -54.5t-38.5 -149.5q0 -63 17.5 -109.5t52 -71.5t86.5 -25zM259 606v12q15 19 32.5 45l34.5 53.5t28 49.5h106v-10q-12 -18 -37 -46.5t-53.5 -57t-52.5 -46.5h-58z" />
    <glyph glyph-name="uni0218" unicode="&#x218;" 
d="M281 -10q-57 0 -110.5 10.5t-85.5 26.5v83q37 -16 90 -29.5t108 -13.5q51 0 85.5 14t51.5 42t17 69q0 34 -14 54t-49.5 38.5t-99.5 46.5q-42 19 -82 42t-65.5 61t-25.5 100t27.5 104t78.5 64t122 22q54 0 102 -11.5t84 -28.5l-29 -75q-34 16 -76 25.5t-83 9.5
q-39 0 -69.5 -11t-47.5 -35.5t-17 -65.5q0 -35 14.5 -57t46.5 -38.5t82 -38.5q57 -24 100.5 -48.5t68 -60.5t24.5 -98q0 -48 -15.5 -85t-47 -63t-77.5 -39.5t-108 -13.5zM217 -221v12q8 17 16.5 43.5t15.5 55t9 49.5h87v-7q-4 -18 -16.5 -46t-29 -56.5t-34.5 -50.5h-48z" />
    <glyph glyph-name="uni0219" unicode="&#x219;" 
d="M279 -10q-50 0 -95.5 9t-78.5 25v83q35 -16 77.5 -29.5t101.5 -13.5q66 0 93.5 20.5t27.5 59.5q0 21 -9.5 34.5t-36.5 27.5t-79 36q-52 23 -89 43t-57 47.5t-20 70.5q0 48 24.5 79.5t71 47.5t110.5 16q44 0 84 -8t83 -26l-27 -70q-40 17 -73.5 23t-66.5 6
q-62 0 -90.5 -16t-28.5 -50q0 -22 12.5 -37t41 -29t75.5 -34q53 -22 90 -41t56 -45.5t19 -72.5q0 -51 -24.5 -85.5t-72.5 -52.5t-119 -18zM222 -221v12q8 17 16.5 43.5t15.5 55t9 49.5h87v-7q-4 -18 -16.5 -46t-29 -56.5t-34.5 -50.5h-48z" />
    <glyph glyph-name="circumflex" unicode="&#x2c6;" 
d="M131 606v11l42.5 46t45.5 53.5t35 49.5h90q12 -22 34.5 -49.5t47 -54l43.5 -45.5v-11h-62q-26 16 -54 43l-55 54l-54 -53.5t-53 -43.5h-60z" />
    <glyph glyph-name="caron" unicode="&#x2c7;" 
d="M254 606q-13 23 -35 49.5t-46 52.5l-42 45v13h60q26 -17 54 -41t53 -51q27 27 55 51t54 41h62v-13l-43.5 -45t-47 -52.5t-34.5 -49.5h-90z" />
    <glyph glyph-name="macron" unicode="&#x2c9;" 
d="M151 618v71h297v-71h-297z" />
    <glyph glyph-name="breve" unicode="&#x2d8;" 
d="M297 606q-71 0 -110.5 38t-41.5 96h58q7 -30 22.5 -45t35.5 -20.5t39 -5.5q31 0 59.5 13.5t37.5 57.5h59q-1 -58 -42.5 -96t-116.5 -38z" />
    <glyph glyph-name="dotaccent" unicode="&#x2d9;" 
d="M300 633q-26 0 -44.5 16t-18.5 47q0 33 18.5 48.5t44.5 15.5t44.5 -15.5t18.5 -48.5q0 -31 -18.5 -47t-44.5 -16z" />
    <glyph glyph-name="ring" unicode="&#x2da;" 
d="M299 606q-49 0 -79 28t-30 78t30 77.5t79 27.5q47 0 79 -27.5t32 -76.5q0 -51 -31.5 -79t-79.5 -28zM299 658q24 0 39 14.5t15 39.5q0 26 -15.5 40t-38.5 14q-22 0 -37.5 -14t-15.5 -40q0 -25 15 -39.5t38 -14.5z" />
    <glyph glyph-name="ogonek" unicode="&#x2db;" 
d="M325 -220q-54 0 -79 25t-25 64q0 33 14.5 60.5t36 49t41.5 36.5l48 -15q-33 -31 -50.5 -58t-17.5 -57q0 -25 13 -35.5t38 -10.5q11 0 22.5 1.5t19.5 4.5v-56q-14 -4 -28.5 -6.5t-32.5 -2.5z" />
    <glyph glyph-name="tilde" unicode="&#x2dc;" 
d="M120 606q3 30 11.5 53.5t22.5 40t33 25.5t43 9q21 0 40.5 -8.5t37.5 -20t34.5 -20t32.5 -8.5q23 0 35.5 14.5t19.5 43.5h50q-6 -58 -34 -93t-75 -35q-21 0 -40 8.5t-36.5 20t-34.5 20t-34 8.5q-24 0 -36 -14.5t-19 -43.5h-51z" />
    <glyph glyph-name="hungarumlaut" unicode="&#x2dd;" 
d="M331 606v12q14 19 30 45l31.5 53.5t25.5 49.5h96v-10q-10 -17 -33 -46t-50 -57.5t-50 -46.5h-50zM155 606v12q14 19 30 45t31 53.5t26 49.5h96v-10q-10 -17 -33 -46t-50 -57.5t-50 -46.5h-50z" />
    <glyph glyph-name="tonos" unicode="&#x384;" 
d="M270 606v14q5 18 10.5 41.5t10 49l8.5 50t6 44.5h94v-11q-5 -22 -17 -55.5t-27.5 -69t-31.5 -63.5h-53z" />
    <glyph glyph-name="dieresistonos" unicode="&#x385;" 
d="M267 678v12q8 20 16.5 45.5t16 52.5t12.5 50h96v-10q-10 -21 -26 -47t-35 -52.5l-38 -50.5h-42zM190 631q-19 0 -32.5 12.5t-13.5 37.5q0 26 13.5 37.5t32.5 11.5t32.5 -11.5t13.5 -37.5q0 -25 -13.5 -37.5t-32.5 -12.5zM409 631q-20 0 -33 12.5t-13 37.5q0 26 13 37.5
t33 11.5q18 0 32 -11.5t14 -37.5q0 -25 -14 -37.5t-32 -12.5z" />
    <glyph glyph-name="Alphatonos" unicode="&#x386;" 
d="M20 0l232 717h95l233 -717h-92l-159 512q-3 12 -8.5 29.5t-11 39l-10.5 41.5q-4 -20 -9.5 -41.5l-10.5 -39.5t-9 -29l-159 -512h-91zM154 219l30 80h227l26 -80h-283zM14 606v14q5 18 10.5 41.5t10 49l8.5 50t6 44.5h94v-11q-5 -22 -17 -55.5t-27.5 -69t-31.5 -63.5h-53z
" />
    <glyph glyph-name="anoteleia" unicode="&#x387;" 
d="M300 410q-26 0 -44 16t-18 52q0 38 18 53t44 15t44 -15t18 -53q0 -36 -18 -52t-44 -16z" />
    <glyph glyph-name="Epsilontonos" unicode="&#x388;" 
d="M124 0v714h391v-80h-301v-221h282v-80h-282v-253h301v-80h-391zM-42 606v14q5 18 10.5 41.5t10 49l8.5 50t6 44.5h94v-11q-5 -22 -17 -55.5t-27.5 -69t-31.5 -63.5h-53z" />
    <glyph glyph-name="Etatonos" unicode="&#x389;" 
d="M111 0v714h90v-301h239v301h90v-714h-90v333h-239v-333h-90zM-26 606v14q5 18 10.5 41.5t10 49l8.5 50t6 44.5h94v-11q-5 -22 -17 -55.5t-27.5 -69t-31.5 -63.5h-53z" />
    <glyph glyph-name="Iotatonos" unicode="&#x38a;" 
d="M130 0v62l144 13v564l-144 13v62h380v-62l-146 -13v-564l146 -13v-62h-380zM-26 606v14q5 18 10.5 41.5t10 49l8.5 50t6 44.5h94v-11q-5 -22 -17 -55.5t-27.5 -69t-31.5 -63.5h-53z" />
    <glyph glyph-name="Omicrontonos" unicode="&#x38c;" 
d="M299 -10q-67 0 -115 26.5t-79 75t-45.5 116t-14.5 149.5q0 110 26.5 193t83 129.5t145.5 46.5q67 0 115 -26t79 -75t46 -116t15 -150t-15 -151t-46 -116.5t-79.5 -75t-115.5 -26.5zM301 70q60 0 95.5 34.5t51 99t15.5 154.5q0 136 -36 212t-125 76q-60 0 -96.5 -34.5
t-52.5 -99t-16 -154.5t16 -154.5t52 -99t96 -34.5zM-1 606v14q5 18 10.5 41.5t10 49l8.5 50t6 44.5h94v-11q-5 -22 -17 -55.5t-27.5 -69t-31.5 -63.5h-53z" />
    <glyph glyph-name="Upsilontonos" unicode="&#x38e;" 
d="M317 0v278l-182 436h99l127 -351l128 351h96l-182 -436v-278h-86zM-8 606v14q5 18 10.5 41.5t10 49l8.5 50t6 44.5h94v-11q-5 -22 -17 -55.5t-27.5 -69t-31.5 -63.5h-53z" />
    <glyph glyph-name="Omegatonos" unicode="&#x38f;" 
d="M20 0v76h134q-29 30 -53 78.5t-38 112.5t-14 137q0 103 29.5 174t86 108.5t136.5 37.5q81 0 136.5 -37.5t84 -109t28.5 -173.5q0 -74 -14 -138t-38 -112.5t-53 -77.5h135v-76h-229v67q60 56 84 136t24 177q0 88 -16.5 147.5t-51 90t-89.5 30.5q-53 0 -89 -28.5t-54 -87.5
t-18 -149q0 -68 11.5 -126t35.5 -105.5t61 -84.5v-67h-229zM-1 606v14q5 18 10.5 41.5t10 49l8.5 50t6 44.5h94v-11q-5 -22 -17 -55.5t-27.5 -69t-31.5 -63.5h-53z" />
    <glyph glyph-name="iotadieresistonos" unicode="&#x390;" 
d="M407 -10q-44 0 -78.5 14.5t-54 51t-19.5 101.5v379h87v-378q0 -32 8 -53.5t25 -32t44 -10.5q22 0 45.5 3.5t36.5 7.5v-67q-14 -7 -41 -11.5t-53 -4.5zM283 678v12q8 20 16.5 45.5t16 52.5t12.5 50h96v-10q-10 -21 -26 -47t-35 -52.5l-38 -50.5h-42zM206 631
q-19 0 -32.5 12.5t-13.5 37.5q0 26 13.5 37.5t32.5 11.5t32.5 -11.5t13.5 -37.5q0 -25 -13.5 -37.5t-32.5 -12.5zM425 631q-20 0 -33 12.5t-13 37.5q0 26 13 37.5t33 11.5q18 0 32 -11.5t14 -37.5q0 -25 -14 -37.5t-32 -12.5z" />
    <glyph glyph-name="Alpha" unicode="&#x391;" 
d="M20 0l232 717h95l233 -717h-92l-159 512q-3 12 -8.5 29.5t-11 39l-10.5 41.5q-4 -20 -9.5 -41.5l-10.5 -39.5t-9 -29l-159 -512h-91zM154 219l30 80h227l26 -80h-283z" />
    <glyph glyph-name="Beta" unicode="&#x392;" 
d="M95 0v714h192q110 0 174 -39.5t64 -135.5q0 -70 -34 -110t-94 -50v-5q41 -7 74.5 -25t53.5 -52t20 -90q0 -65 -27.5 -111.5t-78.5 -71t-122 -24.5h-222zM180 78h121q86 0 119 36t33 93q0 39 -14.5 67.5t-49 44t-94.5 15.5h-115v-256zM180 412h115q75 0 107 28.5t32 86.5
q0 59 -34.5 84t-119.5 25h-100v-224z" />
    <glyph glyph-name="Gamma" unicode="&#x393;" 
d="M115 0v714h400v-80h-310v-634h-90z" />
    <glyph glyph-name="uni0394" unicode="&#x394;" 
d="M20 0v55l234 659h90l236 -660v-54h-560zM116 79h365l-128 372l-20.5 59t-19 55.5t-15.5 50.5q-6 -24 -14 -50.5l-17 -54.5t-19 -56z" />
    <glyph glyph-name="Epsilon" unicode="&#x395;" 
d="M95 0v714h420v-80h-330v-221h311v-80h-311v-253h330v-80h-420z" />
    <glyph glyph-name="Zeta" unicode="&#x396;" 
d="M95 0v71l317 565h-297v78h390v-71l-313 -563h313v-80h-410z" />
    <glyph glyph-name="Eta" unicode="&#x397;" 
d="M70 0v714h90v-301h280v301h90v-714h-90v333h-280v-333h-90z" />
    <glyph glyph-name="Theta" unicode="&#x398;" 
d="M199 324v78h202v-78h-202zM299 -10q-67 0 -115 26.5t-79 75t-45.5 116t-14.5 149.5q0 110 26.5 193t83 129.5t145.5 46.5q67 0 115 -26t79 -75t46 -116t15 -150t-15 -151t-46 -116.5t-79.5 -75t-115.5 -26.5zM301 70q60 0 95.5 34.5t51 99t15.5 154.5q0 136 -36 212
t-125 76q-60 0 -96.5 -34.5t-52.5 -99t-16 -154.5t16 -154.5t52 -99t96 -34.5z" />
    <glyph glyph-name="Iota" unicode="&#x399;" 
d="M110 0v62l144 13v564l-144 13v62h380v-62l-146 -13v-564l146 -13v-62h-380z" />
    <glyph glyph-name="Kappa" unicode="&#x39a;" 
d="M70 0v714h90v-384l35 55t39 56l204 273h103l-239 -323l248 -391h-103l-206 330l-81 -93v-237h-90z" />
    <glyph glyph-name="Lambda" unicode="&#x39b;" 
d="M20 0l232 714h94l234 -714h-95l-138 450q-9 32 -18 60.5l-17 55t-14 50.5q-5 -24 -12 -50.5l-15 -55t-18 -59.5l-138 -451h-95z" />
    <glyph glyph-name="Mu" unicode="&#x39c;" 
d="M50 0v714h129l119 -419h3l119 419h130v-714h-85v387q0 20 0.5 40l1 40.5t1.5 40.5l2 40t3 39l4 37h-4l-132 -446h-83l-133 447h-4q2 -15 4 -33t3.5 -38l3 -41.5t2 -43l1 -42.5t0.5 -40v-387h-85z" />
    <glyph glyph-name="Nu" unicode="&#x39d;" 
d="M70 0v714h119l260 -595h3q-3 29 -4.5 55.5t-2.5 52t-1.5 52.5t-0.5 57v378h87v-714h-109l-273 622h-4q2 -28 4.5 -56t4.5 -56t3 -56t1 -56v-398h-87z" />
    <glyph glyph-name="Xi" unicode="&#x39e;" 
d="M70 0v79h460v-79h-460zM120 334v78h360v-78h-360zM90 635v79h420v-79h-420z" />
    <glyph glyph-name="Omicron" unicode="&#x39f;" 
d="M299 -10q-67 0 -115 26.5t-79 75t-45.5 116t-14.5 149.5q0 110 26.5 193t83 129.5t145.5 46.5q67 0 115 -26t79 -75t46 -116t15 -150t-15 -151t-46 -116.5t-79.5 -75t-115.5 -26.5zM301 70q60 0 95.5 34.5t51 99t15.5 154.5q0 136 -36 212t-125 76q-60 0 -96.5 -34.5
t-52.5 -99t-16 -154.5t16 -154.5t52 -99t96 -34.5z" />
    <glyph glyph-name="Pi" unicode="&#x3a0;" 
d="M70 0v714h460v-714h-89v635h-281v-635h-90z" />
    <glyph glyph-name="Rho" unicode="&#x3a1;" 
d="M95 0v714h204q128 0 187 -54.5t59 -154.5q0 -59 -24.5 -112t-81 -85.5t-153.5 -32.5h-101v-275h-90zM185 353h91q59 0 98.5 15t59 47.5t19.5 84.5q0 74 -39.5 105t-122.5 31h-106v-283z" />
    <glyph glyph-name="Sigma" unicode="&#x3a3;" 
d="M95 0v74l204 299l-198 266v75h375v-80h-205h-35.5t-31.5 1l195 -261l-205 -296q26 0 51 0.5t52 0.5h208v-79h-410z" />
    <glyph glyph-name="Tau" unicode="&#x3a4;" 
d="M255 0v634h-210v80h510v-80h-210v-634h-90z" />
    <glyph glyph-name="Upsilon" unicode="&#x3a5;" 
d="M257 0v278l-222 436h99l167 -361l168 361h96l-222 -436v-278h-86z" />
    <glyph glyph-name="Phi" unicode="&#x3a6;" 
d="M259 -10v110q-51 0 -91.5 19.5t-69 55t-43.5 85t-15 109.5q0 76 24.5 136t73.5 95.5t121 35.5v88h82v-88q54 0 95 -19.5t68.5 -55t41.5 -84t14 -107.5t-14 -108.5t-41.5 -85.5t-68.5 -56t-95 -20v-110h-82zM259 173v390q-44 0 -74 -22t-45 -65t-15 -106q0 -64 15 -108
t45 -66.5t74 -22.5zM341 173q44 0 74 23t45.5 67.5t15.5 109.5q0 63 -15 105.5t-45 63.5t-75 21v-390z" />
    <glyph glyph-name="Chi" unicode="&#x3a7;" 
d="M35 0l223 369l-208 345h97l153 -273l155 273h95l-207 -346l222 -368h-93l-171 296l-170 -296h-96z" />
    <glyph glyph-name="Psi" unicode="&#x3a8;" 
d="M259 0v213q-83 0 -131 30.5t-68 89t-20 140.5v241h84v-235q0 -56 9 -99t38 -67.5t88 -24.5v426h82v-426q50 1 79.5 19.5t42.5 60.5t13 111v235h84v-253q0 -75 -21 -131t-69 -86.5t-129 -30.5v-213h-82z" />
    <glyph glyph-name="uni03A9" unicode="&#x3a9;" 
d="M20 0v76h134q-29 30 -53 78.5t-38 112.5t-14 137q0 103 29.5 174t86 108.5t136.5 37.5q81 0 136.5 -37.5t84 -109t28.5 -173.5q0 -74 -14 -138t-38 -112.5t-53 -77.5h135v-76h-229v67q60 56 84 136t24 177q0 88 -16.5 147.5t-51 90t-89.5 30.5q-53 0 -89 -28.5t-54 -87.5
t-18 -149q0 -68 11.5 -126t35.5 -105.5t61 -84.5v-67h-229z" />
    <glyph glyph-name="Iotadieresis" unicode="&#x3aa;" 
d="M110 0v62l144 13v564l-144 13v62h380v-62l-146 -13v-564l146 -13v-62h-380zM414 800q-22 0 -38 14.5t-16 44.5q0 31 16 44t38 13t38.5 -13t16.5 -44q0 -30 -16.5 -44.5t-38.5 -14.5zM185 800q-22 0 -38 14.5t-16 44.5q0 31 16 44t38 13t38.5 -13t16.5 -44
q0 -30 -16.5 -44.5t-38.5 -14.5z" />
    <glyph glyph-name="Upsilondieresis" unicode="&#x3ab;" 
d="M257 0v278l-222 436h99l167 -361l168 361h96l-222 -436v-278h-86zM414 800q-22 0 -38 14.5t-16 44.5q0 31 16 44t38 13t38.5 -13t16.5 -44q0 -30 -16.5 -44.5t-38.5 -14.5zM185 800q-22 0 -38 14.5t-16 44.5q0 31 16 44t38 13t38.5 -13t16.5 -44q0 -30 -16.5 -44.5
t-38.5 -14.5z" />
    <glyph glyph-name="alphatonos" unicode="&#x3ac;" 
d="M258 -10q-93 0 -148 69.5t-55 207.5q0 135 55 207t155 72q53 0 89.5 -20.5t62.5 -61.5h6q5 17 13 37t19 35h69q-7 -22 -13 -58t-9 -76t-3 -76v-208q0 -31 12 -43.5t29 -12.5q8 0 17 2t13 3v-64q-7 -4 -23 -8.5t-36 -4.5q-31 0 -56 17t-36 65h-7q-13 -20 -33 -39
t-49.5 -31t-71.5 -12zM278 63q46 0 75.5 22t44 66.5t14.5 109.5v6q0 95 -30.5 150t-104.5 55q-69 0 -100 -51t-31 -152q0 -110 34 -158t98 -48zM270 606v14q5 18 10.5 41.5t10 49l8.5 50t6 44.5h94v-11q-5 -22 -17 -55.5t-27.5 -69t-31.5 -63.5h-53z" />
    <glyph glyph-name="epsilontonos" unicode="&#x3ad;" 
d="M327 -10q-115 0 -170 44.5t-55 111.5q0 40 16.5 65.5t43.5 41t59 24.5v5q-30 9 -52.5 25t-35 40.5t-12.5 56.5q0 45 26.5 77t73 48.5t106.5 16.5q58 0 99.5 -10t81.5 -28l-33 -70q-33 15 -67.5 25t-81.5 10q-60 0 -90.5 -19t-30.5 -57q0 -44 41.5 -63t111.5 -19h56v-72
h-73q-76 0 -113.5 -23t-37.5 -69q0 -33 19 -52.5t51 -28t72 -8.5q56 0 98.5 13t75.5 29v-77q-31 -16 -74 -26.5t-105 -10.5zM270 606v14q5 18 10.5 41.5t10 49l8.5 50t6 44.5h94v-11q-5 -22 -17 -55.5t-27.5 -69t-31.5 -63.5h-53z" />
    <glyph glyph-name="etatonos" unicode="&#x3ae;" 
d="M435 -244v397h90v-397h-90zM80 0v536h72l13 -79h5q16 31 41.5 50.5t59.5 29t74 9.5q81 0 130.5 -45.5t49.5 -142.5v-358h-90v342q0 68 -27.5 99.5t-88.5 31.5q-82 0 -115.5 -52t-33.5 -146v-275h-90zM270 606v14q5 18 10.5 41.5t10 49l8.5 50t6 44.5h94v-11
q-5 -22 -17 -55.5t-27.5 -69t-31.5 -63.5h-53z" />
    <glyph glyph-name="iotatonos" unicode="&#x3af;" 
d="M407 -10q-44 0 -78.5 14.5t-54 51t-19.5 101.5v379h87v-378q0 -32 8 -53.5t25 -32t44 -10.5q22 0 45.5 3.5t36.5 7.5v-67q-14 -7 -41 -11.5t-53 -4.5zM270 606v14q5 18 10.5 41.5t10 49l8.5 50t6 44.5h94v-11q-5 -22 -17 -55.5t-27.5 -69t-31.5 -63.5h-53z" />
    <glyph glyph-name="upsilondieresistonos" unicode="&#x3b0;" 
d="M308 -10q-89 0 -138.5 33.5t-69.5 91t-20 128.5v293h88v-290q0 -57 15.5 -98t48 -63.5t83.5 -22.5q74 0 110 57t36 177q0 70 -8 125t-23 115h88q11 -39 18 -76.5t10.5 -77.5t3.5 -90q0 -155 -61.5 -228.5t-180.5 -73.5zM267 678v12q8 20 16.5 45.5t16 52.5t12.5 50h96
v-10q-10 -21 -26 -47t-35 -52.5l-38 -50.5h-42zM190 631q-19 0 -32.5 12.5t-13.5 37.5q0 26 13.5 37.5t32.5 11.5t32.5 -11.5t13.5 -37.5q0 -25 -13.5 -37.5t-32.5 -12.5zM409 631q-20 0 -33 12.5t-13 37.5q0 26 13 37.5t33 11.5q18 0 32 -11.5t14 -37.5q0 -25 -14 -37.5
t-32 -12.5z" />
    <glyph glyph-name="alpha" unicode="&#x3b1;" 
d="M258 -10q-93 0 -148 69.5t-55 207.5q0 135 55 207t155 72q53 0 89.5 -20.5t62.5 -61.5h6q5 17 13 37t19 35h69q-7 -22 -13 -58t-9 -76t-3 -76v-208q0 -31 12 -43.5t29 -12.5q8 0 17 2t13 3v-64q-7 -4 -23 -8.5t-36 -4.5q-31 0 -56 17t-36 65h-7q-13 -20 -33 -39
t-49.5 -31t-71.5 -12zM278 63q46 0 75.5 22t44 66.5t14.5 109.5v6q0 95 -30.5 150t-104.5 55q-69 0 -100 -51t-31 -152q0 -110 34 -158t98 -48z" />
    <glyph glyph-name="beta" unicode="&#x3b2;" 
d="M80 -240v775q0 81 28.5 131.5t78 74.5t112.5 24q67 0 119 -21.5t81.5 -63.5t29.5 -106q0 -72 -39 -114t-113 -54v-4q91 -10 137.5 -59t46.5 -140q0 -103 -63 -158t-170 -55q-55 0 -94.5 12t-65.5 26v-268h-88zM318 62q84 0 119.5 38.5t35.5 108.5q0 53 -22 86.5t-61 49.5
t-91 16h-53v74h43q78 0 114 37t36 98q0 62 -38.5 92t-103.5 30q-34 0 -63.5 -14t-47.5 -49t-18 -98v-426q25 -16 62.5 -29.5t87.5 -13.5z" />
    <glyph glyph-name="gamma" unicode="&#x3b3;" 
d="M211 -240q0 28 6.5 70t18 88.5t26.5 87.5l-217 530h91l113 -281q11 -26 22 -58t20 -61t12 -47h4q3 16 11.5 46t19 62t18.5 54l107 285h91l-199 -523q-15 -40 -26 -86t-17 -89.5t-6 -77.5h-95z" />
    <glyph glyph-name="delta" unicode="&#x3b4;" 
d="M299 -10q-71 0 -126.5 26.5t-86.5 76t-31 119.5q0 65 26.5 113t73.5 80.5t106 50.5q-56 32 -90 70.5t-34 93.5q0 46 23.5 77t65 47t95.5 16q63 0 113.5 -17t88.5 -37l-38 -69q-33 19 -76 35t-90 16q-52 0 -72.5 -20.5t-20.5 -49.5t17.5 -49.5t48 -39l68.5 -40.5
q57 -33 98.5 -67.5t64 -79t22.5 -110.5q0 -77 -30.5 -131t-86 -82.5t-129.5 -28.5zM299 63q74 0 114.5 44.5t40.5 123.5q0 73 -33 114.5t-90 72.5q-42 -10 -84.5 -33t-71 -64t-28.5 -104q0 -47 18 -82t52 -53.5t82 -18.5z" />
    <glyph glyph-name="epsilon" unicode="&#x3b5;" 
d="M327 -10q-115 0 -170 44.5t-55 111.5q0 40 16.5 65.5t43.5 41t59 24.5v5q-30 9 -52.5 25t-35 40.5t-12.5 56.5q0 45 26.5 77t73 48.5t106.5 16.5q58 0 99.5 -10t81.5 -28l-33 -70q-33 15 -67.5 25t-81.5 10q-60 0 -90.5 -19t-30.5 -57q0 -44 41.5 -63t111.5 -19h56v-72
h-73q-76 0 -113.5 -23t-37.5 -69q0 -33 19 -52.5t51 -28t72 -8.5q56 0 98.5 13t75.5 29v-77q-31 -16 -74 -26.5t-105 -10.5z" />
    <glyph glyph-name="zeta" unicode="&#x3b6;" 
d="M371 -195q24 32 43 68.5t19 63.5q0 14 -8 26t-33.5 22.5t-79.5 19.5q-48 8 -84 25t-60 43.5t-36.5 64t-12.5 86.5q0 75 24 137.5t65.5 117.5t95.5 107l113 105q-11 -1 -33 -2t-51.5 -1.5t-63.5 -0.5h-120v73h372v-66q-103 -87 -165.5 -155.5t-93.5 -123.5t-41.5 -100
t-10.5 -85q0 -57 20 -86.5t58 -44t92 -25.5q38 -8 65 -18.5t44 -25t24.5 -32t7.5 -38.5q0 -44 -19.5 -83.5t-43.5 -71.5h-87z" />
    <glyph glyph-name="eta" unicode="&#x3b7;" 
d="M435 -244v397h90v-397h-90zM80 0v536h72l13 -79h5q16 31 41.5 50.5t59.5 29t74 9.5q81 0 130.5 -45.5t49.5 -142.5v-358h-90v342q0 68 -27.5 99.5t-88.5 31.5q-82 0 -115.5 -52t-33.5 -146v-275h-90z" />
    <glyph glyph-name="theta" unicode="&#x3b8;" 
d="M298 -10q-124 0 -182.5 103t-58.5 284q0 122 24 209t77.5 133t139.5 46q125 0 184.5 -101.5t59.5 -286.5q0 -121 -24.5 -207.5t-78 -133t-141.5 -46.5zM298 62q78 0 115 72t40 217h-307q2 -143 37.5 -216t114.5 -73zM146 424h306q-5 134 -41 201.5t-113 67.5
q-76 0 -111.5 -67.5t-40.5 -201.5z" />
    <glyph glyph-name="iota" unicode="&#x3b9;" 
d="M407 -10q-44 0 -78.5 14.5t-54 51t-19.5 101.5v379h87v-378q0 -32 8 -53.5t25 -32t44 -10.5q22 0 45.5 3.5t36.5 7.5v-67q-14 -7 -41 -11.5t-53 -4.5z" />
    <glyph glyph-name="kappa" unicode="&#x3ba;" 
d="M105 0v536h90v-142q0 -21 -1 -47t-2.5 -53t-3.5 -51h2l36 45.5l37 42.5l185 205h108l-213 -231l227 -305h-104l-183 252l-88 -85v-167h-90z" />
    <glyph glyph-name="lambda" unicode="&#x3bb;" 
d="M525 -10q-24 0 -42 8t-30.5 26t-23.5 47l-73 205l-18.5 53.5t-19 58t-12.5 47.5h-4q-9 -35 -23.5 -75t-31.5 -79l-122 -281h-91l231 526l-27 75q-16 43 -35 67.5t-62 24.5q-18 0 -31.5 -2t-24.5 -4v71q14 3 31 5.5t35 2.5q52 0 83.5 -18t53 -55t41.5 -95l173 -482
q7 -18 14 -30t16 -18t20 -6q8 0 16.5 2t13.5 3v-65q-7 -3 -16 -6t-19 -4.5t-22 -1.5z" />
    <glyph glyph-name="uni03BC" unicode="&#x3bc;" 
d="M75 -240v508h90v-508h-90zM261 -10q-95 0 -140.5 47.5t-45.5 141.5v357h90v-343q0 -64 26.5 -97t91.5 -33q56 0 88 23.5t45.5 67.5t13.5 106v276h90v-536h-72l-13 72h-5q-19 -30 -44 -48t-56 -26t-69 -8z" />
    <glyph glyph-name="nu" unicode="&#x3bd;" 
d="M242 0l-177 536h91l88 -288l18.5 -57.5l20.5 -65t15 -51.5h4q56 63 87.5 132.5t44.5 151t13 178.5h87q0 -105 -17.5 -195.5t-60 -174t-119.5 -166.5h-95z" />
    <glyph glyph-name="xi" unicode="&#x3be;" 
d="M374 -195q23 32 41 69t18 63q0 21 -13.5 32.5t-40.5 19.5t-68 16q-20 4 -46 11.5t-52.5 20.5t-49 34t-36 53t-13.5 77q0 80 41 127.5t99 66.5v6q-33 10 -56.5 27t-36.5 44t-13 64q0 48 19 78.5t51 49t70 29.5q-9 -1 -26.5 -2.5t-39.5 -2.5t-47 -1h-30v73h346v-68h-26
q-43 0 -84.5 -9.5t-74.5 -28.5t-53 -48.5t-20 -68.5q0 -49 37.5 -76.5t125.5 -27.5h83v-67h-86q-60 0 -102 -20t-63.5 -55.5t-21.5 -83.5q0 -47 21 -72t60 -37.5t93 -24.5q51 -12 81 -27t43 -36.5t13 -51.5q0 -42 -19 -81.5t-41 -71.5h-83z" />
    <glyph glyph-name="omicron" unicode="&#x3bf;" 
d="M301 -10q-52 0 -97 17t-78.5 52t-52 87.5t-18.5 123.5q0 93 31.5 154t86.5 91.5t125 30.5t126 -30.5t88.5 -92t32.5 -156.5q0 -70 -18.5 -122t-51 -86.5t-77 -51.5t-97.5 -17zM300 63q52 0 86 25t51 71.5t17 109.5q0 64 -17 109.5t-51.5 70t-86.5 24.5
q-78 0 -116.5 -54.5t-38.5 -149.5q0 -63 17.5 -109.5t52 -71.5t86.5 -25z" />
    <glyph glyph-name="pi" unicode="&#x3c0;" 
d="M481 -10q-55 0 -83 32t-28 96v345h-137v-463h-87v463h-109v38l72 35h453v-73h-105v-339q0 -35 13 -48.5t33 -13.5q14 0 25.5 3t18.5 7v-69q-8 -4 -25.5 -8.5t-40.5 -4.5z" />
    <glyph glyph-name="rho" unicode="&#x3c1;" 
d="M80 -240v515q0 91 29 151t82 90t125 30q67 0 118.5 -32t81 -94t29.5 -152t-28.5 -152t-81 -94t-124.5 -32q-40 0 -77 11.5t-65 33.5h-5q2 -16 3.5 -52t1.5 -81v-142h-89zM310 63q77 0 111 52t34 153q0 103 -33.5 153.5t-109.5 50.5q-73 0 -108 -49.5t-35 -148.5v-162
q28 -25 64.5 -37t76.5 -12z" />
    <glyph glyph-name="uni03C2" unicode="&#x3c2;" 
d="M364 -195q23 32 41.5 69.5t18.5 65.5q0 19 -11 29.5t-37.5 18.5t-73.5 18q-46 11 -86 27t-69 43t-45.5 71t-16.5 110q0 97 35 161t97 96t142 32q44 0 82.5 -8.5t66.5 -20.5l-28 -73q-26 10 -56.5 17.5t-68.5 7.5q-63 0 -102.5 -25t-58 -74t-18.5 -120q0 -45 9.5 -73
t31.5 -46t59 -30.5t93 -26.5q37 -9 68.5 -21t50.5 -34t19 -62q0 -41 -19 -81.5t-41 -70.5h-83z" />
    <glyph glyph-name="sigma" unicode="&#x3c3;" 
d="M301 -10q-74 0 -129.5 30.5t-86 90t-30.5 145.5q0 101 35.5 162.5t100 89.5t152.5 28h247v-73h-130q39 -37 63 -91t24 -126t-27.5 -130t-82.5 -92t-136 -34zM303 63q81 0 117.5 51t36.5 130q0 65 -21.5 120.5t-61.5 98.5h-31q-99 0 -148 -47t-49 -160q0 -56 16 -100
t51 -68.5t90 -24.5z" />
    <glyph glyph-name="tau" unicode="&#x3c4;" 
d="M395 -11q-46 0 -85 13.5t-63 49.5t-24 103v307h-144v39l73 35h369v-74h-209v-298q0 -38 12 -61t34 -33t50 -10q22 0 45.5 3.5t39.5 7.5v-66q-14 -6 -41.5 -11t-56.5 -5z" />
    <glyph glyph-name="upsilon" unicode="&#x3c5;" 
d="M308 -10q-89 0 -138.5 33.5t-69.5 91t-20 128.5v293h88v-290q0 -57 15.5 -98t48 -63.5t83.5 -22.5q74 0 110 57t36 177q0 70 -8 125t-23 115h88q11 -39 18 -76.5t10.5 -77.5t3.5 -90q0 -155 -61.5 -228.5t-180.5 -73.5z" />
    <glyph glyph-name="phi" unicode="&#x3c6;" 
d="M254 -240v232q-63 5 -107.5 38.5t-68 93t-23.5 142.5q0 55 10.5 103t31.5 90.5t53 82.5l66 -41q-44 -55 -58.5 -109t-14.5 -113q0 -67 11.5 -111.5t36 -69t63.5 -32.5v302q0 87 30.5 133t94.5 46q60 0 96.5 -36t53 -94.5t16.5 -127.5q0 -82 -22.5 -146.5t-67.5 -104
t-114 -46.5v-232h-87zM340 66q35 5 61 32t40.5 76t14.5 118q0 53 -8.5 94t-24 64t-37.5 23q-19 0 -29 -13t-13.5 -37.5t-3.5 -59.5v-297z" />
    <glyph glyph-name="chi" unicode="&#x3c7;" 
d="M494 -243q-43 0 -70.5 13.5t-44 34.5t-25 45t-14.5 44l-51 188l-150 -322h-94l204 410l-58 213q-11 41 -29.5 63t-46.5 22q-7 0 -15.5 -1.5t-15.5 -4.5v69q11 3 26.5 5.5t32.5 2.5q36 0 59 -13.5t38.5 -40.5t25.5 -68l44 -172l130 291h94l-187 -376l70 -239
q9 -31 21 -51.5t29.5 -30.5t43.5 -10q11 0 22.5 1.5t20.5 2.5v-68q-11 -3 -26 -5.5t-34 -2.5z" />
    <glyph glyph-name="psi" unicode="&#x3c8;" 
d="M269 -240v231q-58 2 -100.5 31t-65.5 86.5t-23 142.5v286h83v-282q0 -91 25.5 -138t80.5 -52v695h79v-695q60 5 86.5 59t26.5 164q0 61 -7.5 123t-23.5 126h82q17 -70 25 -130.5t8 -116.5q0 -99 -23 -164.5t-67 -98t-107 -36.5v-231h-79z" />
    <glyph glyph-name="omega" unicode="&#x3c9;" 
d="M197 -10q-67 0 -104.5 70t-37.5 203q0 47 5 91.5t15 90t26 92.5h85q-18 -49 -28 -94.5t-14 -89t-4 -87.5q0 -105 17 -151.5t49 -46.5q29 0 42 35.5t13 111.5v133h78v-133q0 -75 13 -111t41 -36q33 0 50.5 48t17.5 146q0 46 -4.5 93t-14.5 93t-27 89h84
q23 -69 34.5 -136.5t11.5 -136.5q0 -67 -10 -118t-29 -86t-45.5 -52.5t-59.5 -17.5q-38 0 -63.5 24t-36.5 67h-2q-10 -43 -35.5 -67t-66.5 -24z" />
    <glyph glyph-name="iotadieresis" unicode="&#x3ca;" 
d="M407 -10q-44 0 -78.5 14.5t-54 51t-19.5 101.5v379h87v-378q0 -32 8 -53.5t25 -32t44 -10.5q22 0 45.5 3.5t36.5 7.5v-67q-14 -7 -41 -11.5t-53 -4.5zM414 622q-22 0 -38 14.5t-16 44.5q0 31 16 44t38 13t38.5 -13t16.5 -44q0 -30 -16.5 -44.5t-38.5 -14.5zM185 622
q-22 0 -38 14.5t-16 44.5q0 31 16 44t38 13t38.5 -13t16.5 -44q0 -30 -16.5 -44.5t-38.5 -14.5z" />
    <glyph glyph-name="upsilondieresis" unicode="&#x3cb;" 
d="M308 -10q-89 0 -138.5 33.5t-69.5 91t-20 128.5v293h88v-290q0 -57 15.5 -98t48 -63.5t83.5 -22.5q74 0 110 57t36 177q0 70 -8 125t-23 115h88q11 -39 18 -76.5t10.5 -77.5t3.5 -90q0 -155 -61.5 -228.5t-180.5 -73.5zM415 622q-22 0 -38 14.5t-16 44.5q0 31 16 44
t38 13t38.5 -13t16.5 -44q0 -30 -16.5 -44.5t-38.5 -14.5zM186 622q-22 0 -38 14.5t-16 44.5q0 31 16 44t38 13t38.5 -13t16.5 -44q0 -30 -16.5 -44.5t-38.5 -14.5z" />
    <glyph glyph-name="omicrontonos" unicode="&#x3cc;" 
d="M301 -10q-52 0 -97 17t-78.5 52t-52 87.5t-18.5 123.5q0 93 31.5 154t86.5 91.5t125 30.5t126 -30.5t88.5 -92t32.5 -156.5q0 -70 -18.5 -122t-51 -86.5t-77 -51.5t-97.5 -17zM300 63q52 0 86 25t51 71.5t17 109.5q0 64 -17 109.5t-51.5 70t-86.5 24.5
q-78 0 -116.5 -54.5t-38.5 -149.5q0 -63 17.5 -109.5t52 -71.5t86.5 -25zM270 606v14q5 18 10.5 41.5t10 49l8.5 50t6 44.5h94v-11q-5 -22 -17 -55.5t-27.5 -69t-31.5 -63.5h-53z" />
    <glyph glyph-name="upsilontonos" unicode="&#x3cd;" 
d="M308 -10q-89 0 -138.5 33.5t-69.5 91t-20 128.5v293h88v-290q0 -57 15.5 -98t48 -63.5t83.5 -22.5q74 0 110 57t36 177q0 70 -8 125t-23 115h88q11 -39 18 -76.5t10.5 -77.5t3.5 -90q0 -155 -61.5 -228.5t-180.5 -73.5zM270 606v14q5 18 10.5 41.5t10 49l8.5 50t6 44.5
h94v-11q-5 -22 -17 -55.5t-27.5 -69t-31.5 -63.5h-53z" />
    <glyph glyph-name="omegatonos" unicode="&#x3ce;" 
d="M197 -10q-67 0 -104.5 70t-37.5 203q0 47 5 91.5t15 90t26 92.5h85q-18 -49 -28 -94.5t-14 -89t-4 -87.5q0 -105 17 -151.5t49 -46.5q29 0 42 35.5t13 111.5v133h78v-133q0 -75 13 -111t41 -36q33 0 50.5 48t17.5 146q0 46 -4.5 93t-14.5 93t-27 89h84
q23 -69 34.5 -136.5t11.5 -136.5q0 -67 -10 -118t-29 -86t-45.5 -52.5t-59.5 -17.5q-38 0 -63.5 24t-36.5 67h-2q-10 -43 -35.5 -67t-66.5 -24zM270 606v14q5 18 10.5 41.5t10 49l8.5 50t6 44.5h94v-11q-5 -22 -17 -55.5t-27.5 -69t-31.5 -63.5h-53z" />
    <glyph glyph-name="uni0401" unicode="&#x401;" 
d="M95 0v714h420v-80h-330v-221h311v-80h-311v-253h330v-80h-420zM419 800q-22 0 -38 14.5t-16 44.5q0 31 16 44t38 13t38.5 -13t16.5 -44q0 -30 -16.5 -44.5t-38.5 -14.5zM190 800q-22 0 -38 14.5t-16 44.5q0 31 16 44t38 13t38.5 -13t16.5 -44q0 -30 -16.5 -44.5
t-38.5 -14.5z" />
    <glyph glyph-name="uni0402" unicode="&#x402;" 
d="M364 -10q-19 0 -35.5 3t-28.5 8v77q13 -5 26.5 -7.5t26.5 -2.5q24 0 43.5 9t30.5 31t11 62v86q0 54 -26.5 80t-88.5 26h-113v-362h-87v637h-123v77h404v-77h-194v-198h120q95 0 145 -44.5t50 -128.5v-102q0 -84 -43.5 -129t-117.5 -45z" />
    <glyph glyph-name="uni0403" unicode="&#x403;" 
d="M115 0v714h400v-80h-310v-634h-90zM297 784v12q15 19 32.5 45l34.5 53.5t28 49.5h106v-10q-12 -18 -37 -46.5t-53.5 -57t-52.5 -46.5h-58z" />
    <glyph glyph-name="uni0404" unicode="&#x404;" 
d="M382 -10q-112 0 -187 45.5t-112.5 127t-37.5 189.5q0 110 38.5 194t115 131.5t189.5 47.5q53 0 95 -11t78 -31l-33 -74q-31 17 -65 27.5t-78 10.5q-56 0 -99.5 -17.5t-74.5 -49.5t-49 -75.5t-24 -94.5h331v-77h-332q3 -78 31 -137.5t83.5 -93.5t139.5 -34q43 0 78.5 8.5
t67.5 21.5v-78q-33 -15 -72 -22.5t-83 -7.5z" />
    <glyph glyph-name="uni0405" unicode="&#x405;" 
d="M281 -10q-57 0 -110.5 10.5t-85.5 26.5v83q37 -16 90 -29.5t108 -13.5q51 0 85.5 14t51.5 42t17 69q0 34 -14 54t-49.5 38.5t-99.5 46.5q-42 19 -82 42t-65.5 61t-25.5 100t27.5 104t78.5 64t122 22q54 0 102 -11.5t84 -28.5l-29 -75q-34 16 -76 25.5t-83 9.5
q-39 0 -69.5 -11t-47.5 -35.5t-17 -65.5q0 -35 14.5 -57t46.5 -38.5t82 -38.5q57 -24 100.5 -48.5t68 -60.5t24.5 -98q0 -48 -15.5 -85t-47 -63t-77.5 -39.5t-108 -13.5z" />
    <glyph glyph-name="uni0406" unicode="&#x406;" 
d="M110 0v62l144 13v564l-144 13v62h380v-62l-146 -13v-564l146 -13v-62h-380z" />
    <glyph glyph-name="uni0407" unicode="&#x407;" 
d="M110 0v62l144 13v564l-144 13v62h380v-62l-146 -13v-564l146 -13v-62h-380zM414 800q-22 0 -38 14.5t-16 44.5q0 31 16 44t38 13t38.5 -13t16.5 -44q0 -30 -16.5 -44.5t-38.5 -14.5zM185 800q-22 0 -38 14.5t-16 44.5q0 31 16 44t38 13t38.5 -13t16.5 -44
q0 -30 -16.5 -44.5t-38.5 -14.5z" />
    <glyph glyph-name="uni0408" unicode="&#x408;" 
d="M252 -10q-38 0 -81 8t-71 21v85q23 -10 64 -20.5t81 -10.5t69 15.5t45 49.5t16 91v485h90v-497q0 -72 -24 -123t-71.5 -77.5t-117.5 -26.5z" />
    <glyph glyph-name="uni0409" unicode="&#x409;" 
d="M59 -10q-16 0 -27.5 2.5t-21.5 6.5v72q6 -3 13 -5t18 -2q26 0 42 29t24 96q5 40 9.5 91t9 115.5t8.5 143.5t8 175h197v-79h-125q-2 -55 -4.5 -107.5t-5.5 -103t-6.5 -97t-8 -88.5t-9.5 -79q-7 -53 -22 -91t-39 -58.5t-60 -20.5zM380 75h30q53 0 75 34t22 101
q0 68 -23.5 98t-80.5 30h-23v-263zM298 0v714h82v-300h22q70 0 111 -25t59 -70.5t18 -107.5q0 -98 -43.5 -154.5t-137.5 -56.5h-111z" />
    <glyph glyph-name="uni040A" unicode="&#x40a;" 
d="M50 0v714h87v-299h203v-77h-203v-338h-87zM275 0v714h87v-300h33q104 0 149.5 -54.5t45.5 -149.5q0 -97 -47 -153.5t-141 -56.5h-127zM362 75h35q53 0 78.5 34t25.5 101q0 68 -27 98t-84 30h-28v-263z" />
    <glyph glyph-name="uni040B" unicode="&#x40b;" 
d="M122 0v636h-122v78h418v-78h-208v-197h122q47 0 83 -11.5t60.5 -34t37 -55.5t12.5 -77v-261h-87v256q0 36 -11 59.5t-36 34.5t-66 11h-115v-361h-88z" />
    <glyph glyph-name="uni040C" unicode="&#x40c;" 
d="M70 0v714h87v-344l284 344h97l-285 -345l297 -369h-101l-292 365v-365h-87zM259 784v12q15 19 32.5 45l34.5 53.5t28 49.5h106v-10q-12 -18 -37 -46.5t-53.5 -57t-52.5 -46.5h-58z" />
    <glyph glyph-name="uni040E" unicode="&#x40e;" 
d="M154 -10q-22 0 -41.5 3.5t-36.5 9.5v83q16 -7 34 -11.5t37 -4.5q29 0 49 11t36.5 38.5t33.5 75.5l-231 519h94l156 -360q5 -10 9 -22l8.5 -25t8.5 -27h4q3 12 6.5 24t7.5 24t8 22l136 364h92l-196 -511q-28 -74 -56.5 -121.5t-66 -69.5t-92.5 -22zM297 784
q-71 0 -110.5 38t-41.5 96h58q7 -30 22.5 -45t35.5 -20.5t39 -5.5q31 0 59.5 13.5t37.5 57.5h59q-1 -58 -42.5 -96t-116.5 -38z" />
    <glyph glyph-name="uni040F" unicode="&#x40f;" 
d="M257 -191v241h87v-241h-87zM70 714h87v-637h287v637h86v-714h-460v714z" />
    <glyph glyph-name="uni0410" unicode="&#x410;" 
d="M20 0l232 717h95l233 -717h-92l-159 512q-3 12 -8.5 29.5t-11 39l-10.5 41.5q-4 -20 -9.5 -41.5l-10.5 -39.5t-9 -29l-159 -512h-91zM154 219l30 80h227l26 -80h-283z" />
    <glyph glyph-name="uni0411" unicode="&#x411;" 
d="M95 0v714h410v-77h-323v-223h124q88 0 140.5 -24.5t75.5 -70t23 -109.5q0 -99 -56.5 -154.5t-174.5 -55.5h-219zM182 76h127q77 0 112 33.5t35 100.5q0 46 -16 74t-50 41t-89 13h-119v-262z" />
    <glyph glyph-name="uni0412" unicode="&#x412;" 
d="M95 0v714h192q110 0 174 -39.5t64 -135.5q0 -70 -34 -110t-94 -50v-5q41 -7 74.5 -25t53.5 -52t20 -90q0 -65 -27.5 -111.5t-78.5 -71t-122 -24.5h-222zM180 78h121q86 0 119 36t33 93q0 39 -14.5 67.5t-49 44t-94.5 15.5h-115v-256zM180 412h115q75 0 107 28.5t32 86.5
q0 59 -34.5 84t-119.5 25h-100v-224z" />
    <glyph glyph-name="uni0413" unicode="&#x413;" 
d="M115 0v714h400v-80h-310v-634h-90z" />
    <glyph glyph-name="uni0414" unicode="&#x414;" 
d="M20 -191v269h49q32 71 58 148t45.5 158t31 164t14.5 166h274v-636h78v-269h-83v191h-384v-191h-83zM161 78h245v558h-109q-4 -67 -15.5 -140.5t-29.5 -147t-41 -142.5t-50 -128z" />
    <glyph glyph-name="uni0415" unicode="&#x415;" 
d="M95 0v714h420v-80h-330v-221h311v-80h-311v-253h330v-80h-420z" />
    <glyph glyph-name="uni0416" unicode="&#x416;" 
d="M10 0l166 368l-160 346h90l154 -346v346h82v-346l151 346h90l-158 -346l165 -368h-93l-155 362v-362h-82v362l-158 -362h-92z" />
    <glyph glyph-name="uni0417" unicode="&#x417;" 
d="M265 -10q-67 0 -115 10t-86 27v83q36 -19 86.5 -32t109.5 -13q94 0 138 34t44 101q0 69 -51 101t-153 32h-97v75h95q66 0 108.5 14.5t62.5 43.5t20 71q0 55 -36 83.5t-104 28.5q-67 0 -106 -19t-69 -39l-42 63q38 26 91 48t133 22q74 0 123.5 -22.5t74 -62.5t24.5 -92
q0 -71 -40 -114.5t-121 -57.5v-4q92 -10 134.5 -54.5t42.5 -117.5q0 -63 -29 -110t-88 -73t-150 -26z" />
    <glyph glyph-name="uni0418" unicode="&#x418;" 
d="M70 0v714h83v-409q0 -19 -0.5 -41.5t-1.5 -45.5l-2 -45t-2 -41h4l277 582h102v-714h-83v413q0 21 0.5 45t1.5 47.5t2.5 44.5t2.5 37h-4l-279 -587h-101z" />
    <glyph glyph-name="uni0419" unicode="&#x419;" 
d="M70 0v714h83v-409q0 -19 -0.5 -41.5t-1.5 -45.5l-2 -45t-2 -41h4l277 582h102v-714h-83v413q0 21 0.5 45t1.5 47.5t2.5 44.5t2.5 37h-4l-279 -587h-101zM297 784q-71 0 -110.5 38t-41.5 96h58q7 -30 22.5 -45t35.5 -20.5t39 -5.5q31 0 59.5 13.5t37.5 57.5h59
q-1 -58 -42.5 -96t-116.5 -38z" />
    <glyph glyph-name="uni041A" unicode="&#x41a;" 
d="M70 0v714h87v-344l284 344h97l-285 -345l297 -369h-101l-292 365v-365h-87z" />
    <glyph glyph-name="uni041B" unicode="&#x41b;" 
d="M66 -10q-16 0 -31 3t-26 9v74q9 -4 20.5 -7t24.5 -3q25 0 40 19t24 53.5t16 81.5q5 32 12 83.5t15 117.5l16.5 140.5t16.5 152.5h336v-714h-87v635h-175l-12.5 -118t-13.5 -122.5t-14.5 -113.5t-13.5 -90q-11 -67 -28 -112t-45 -67t-75 -22z" />
    <glyph glyph-name="uni041C" unicode="&#x41c;" 
d="M50 0v714h129l119 -419h3l119 419h130v-714h-85v387q0 20 0.5 40l1 40.5t1.5 40.5l2 40t3 39l4 37h-4l-132 -446h-83l-133 447h-4q2 -15 4 -33t3.5 -38l3 -41.5t2 -43l1 -42.5t0.5 -40v-387h-85z" />
    <glyph glyph-name="uni041D" unicode="&#x41d;" 
d="M70 0v714h90v-301h280v301h90v-714h-90v333h-280v-333h-90z" />
    <glyph glyph-name="uni041E" unicode="&#x41e;" 
d="M299 -10q-67 0 -115 26.5t-79 75t-45.5 116t-14.5 149.5q0 110 26.5 193t83 129.5t145.5 46.5q67 0 115 -26t79 -75t46 -116t15 -150t-15 -151t-46 -116.5t-79.5 -75t-115.5 -26.5zM301 70q60 0 95.5 34.5t51 99t15.5 154.5q0 136 -36 212t-125 76q-60 0 -96.5 -34.5
t-52.5 -99t-16 -154.5t16 -154.5t52 -99t96 -34.5z" />
    <glyph glyph-name="uni041F" unicode="&#x41f;" 
d="M70 0v714h460v-714h-86v637h-287v-637h-87z" />
    <glyph glyph-name="uni0420" unicode="&#x420;" 
d="M95 0v714h204q128 0 187 -54.5t59 -154.5q0 -59 -24.5 -112t-81 -85.5t-153.5 -32.5h-101v-275h-90zM185 353h91q59 0 98.5 15t59 47.5t19.5 84.5q0 74 -39.5 105t-122.5 31h-106v-283z" />
    <glyph glyph-name="uni0421" unicode="&#x421;" 
d="M365 -10q-105 0 -171 47t-97 129.5t-31 190.5q0 85 20 152.5t59 115.5t95 73.5t129 25.5q52 0 97.5 -11t83.5 -31l-34 -73q-31 17 -70.5 26t-76.5 9q-51 0 -90.5 -19t-66 -55.5t-40.5 -90t-14 -122.5q0 -88 21.5 -152t67.5 -98t120 -34q34 0 73.5 7.5t78.5 23.5v-85
q-40 -15 -76.5 -22t-77.5 -7z" />
    <glyph glyph-name="uni0422" unicode="&#x422;" 
d="M255 0v634h-210v80h510v-80h-210v-634h-90z" />
    <glyph glyph-name="uni0423" unicode="&#x423;" 
d="M154 -10q-22 0 -41.5 3.5t-36.5 9.5v83q16 -7 34 -11.5t37 -4.5q29 0 49 11t36.5 38.5t33.5 75.5l-231 519h94l156 -360q5 -10 9 -22l8.5 -25t8.5 -27h4q3 12 6.5 24t7.5 24t8 22l136 364h92l-196 -511q-28 -74 -56.5 -121.5t-66 -69.5t-92.5 -22z" />
    <glyph glyph-name="uni0424" unicode="&#x424;" 
d="M258 -10v110q-61 1 -103.5 23t-69 60t-38.5 86.5t-12 102.5t13 101.5t40 84t69 57.5t101 21v88h86v-88q60 -1 102 -21t68 -56t38.5 -83.5t12.5 -103.5q0 -54 -12 -103t-38.5 -86.5t-68.5 -59.5t-102 -23v-110h-86zM258 174v388q-73 -1 -104 -51.5t-31 -138.5
q0 -62 14.5 -106t44.5 -67.5t76 -24.5zM344 174q46 1 75.5 25t43.5 68t14 105q0 90 -30.5 139.5t-102.5 50.5v-388z" />
    <glyph glyph-name="uni0425" unicode="&#x425;" 
d="M35 0l223 369l-208 345h97l153 -273l155 273h95l-207 -346l222 -368h-93l-171 296l-170 -296h-96z" />
    <glyph glyph-name="uni0426" unicode="&#x426;" 
d="M70 0v714h87v-637h287v637h86v-714h-460zM516 -191v191h-36v78h120v-269h-84z" />
    <glyph glyph-name="uni0427" unicode="&#x427;" 
d="M443 0v293q-48 -21 -94.5 -33t-93.5 -12q-91 0 -138 47t-47 135v284h87v-270q0 -62 27.5 -90t91.5 -28q38 0 79.5 10t87.5 29v349h87v-714h-87z" />
    <glyph glyph-name="uni0428" unicode="&#x428;" 
d="M50 0v714h83v-636h125v636h83v-636h126v636h83v-714h-500z" />
    <glyph glyph-name="uni0429" unicode="&#x429;" 
d="M516 -191v191h-36v78h120v-269h-84zM50 0v714h83v-636h125v636h83v-636h126v636h83v-714h-500z" />
    <glyph glyph-name="uni042A" unicode="&#x42a;" 
d="M0 636v78h152v-78h-152zM115 0v714h87v-300h125q84 0 136.5 -25t77 -70.5t24.5 -108.5q0 -97 -58.5 -153.5t-172.5 -56.5h-219zM202 76h127q73 0 110 33.5t37 100.5q0 46 -17 74t-51 41t-86 13h-120v-262z" />
    <glyph glyph-name="uni042B" unicode="&#x42b;" 
d="M50 0v714h87v-300h63q70 0 112.5 -25t62.5 -70.5t20 -108.5q0 -97 -47 -153.5t-141 -56.5h-157zM137 75h65q53 0 78.5 34t25.5 101q0 46 -12 74t-36.5 41t-62.5 13h-58v-263zM463 0v714h87v-714h-87z" />
    <glyph glyph-name="uni042C" unicode="&#x42c;" 
d="M95 0v714h87v-300h125q84 0 136.5 -25t77 -70.5t24.5 -108.5q0 -97 -58.5 -153.5t-172.5 -56.5h-219zM182 76h127q73 0 110 33.5t37 100.5q0 46 -17 74t-51 41t-86 13h-120v-262z" />
    <glyph glyph-name="uni042D" unicode="&#x42d;" 
d="M218 -10q112 0 187 45.5t112.5 127t37.5 189.5q0 110 -38.5 194t-115 131.5t-189.5 47.5q-53 0 -95 -11t-78 -31l33 -74q31 17 65 27.5t78 10.5q56 0 99.5 -17.5t74.5 -49.5t49 -75.5t24 -94.5h-331v-77h332q-3 -78 -31 -137.5t-83.5 -93.5t-139.5 -34q-43 0 -78.5 8.5
t-67.5 21.5v-78q33 -15 72 -22.5t83 -7.5z" />
    <glyph glyph-name="uni042E" unicode="&#x42e;" 
d="M392 -10q-63 0 -98.5 47.5t-49.5 132t-14 193.5t14 190.5t49.5 126.5t99.5 45q62 0 97.5 -43.5t50 -124t14.5 -192.5q0 -82 -7 -150.5t-25 -119t-49.5 -78t-81.5 -27.5zM63 0v714h87v-302h131v-78h-131v-334h-87zM393 68q29 0 44.5 34t22 99t6.5 159t-6.5 157.5t-22 96.5
t-43.5 33t-45 -33.5t-24 -97.5t-7 -158t7 -158.5t23.5 -98t44.5 -33.5z" />
    <glyph glyph-name="uni042F" unicode="&#x42f;" 
d="M505 0v714h-167q-84 0 -139.5 -22.5t-83.5 -66.5t-28 -111q0 -56 18 -94.5t48.5 -63t68.5 -38.5l-191 -318h100l172 292h112v-292h90zM415 370h-74q-59 0 -94 15.5t-51 46t-16 74.5q0 71 38.5 100.5t124.5 29.5h72v-266z" />
    <glyph glyph-name="uni0430" unicode="&#x430;" 
d="M246 -10q-79 0 -127.5 39t-48.5 118q0 58 28 96.5t82.5 58t132.5 21.5l115 3v22q0 72 -36 98.5t-97 26.5q-43 0 -82 -11t-74 -31l-31 68q38 19 84.5 33t107.5 14q101 0 155.5 -45.5t54.5 -141.5v-359h-72l-10 74h-4q-22 -28 -48.5 -46.5t-58.5 -28t-71 -9.5zM261 63
q45 0 83 16.5t61 50t23 84.5v48l-96 -3q-64 -2 -103 -15.5t-56.5 -37t-17.5 -56.5q0 -46 29 -66.5t77 -20.5z" />
    <glyph glyph-name="uni0431" unicode="&#x431;" 
d="M304 -10q-59 0 -105 20.5t-78 63.5t-49 109.5t-17 159.5q0 101 22 175.5t72 124t133 75.5q23 7 60 16.5t79.5 18t80.5 12.5l12 -75q-25 -3 -53.5 -7.5t-57.5 -10t-54.5 -11t-43.5 -11.5q-54 -16 -88.5 -46t-52 -76.5t-21.5 -112.5h6q16 22 43 41t63.5 31t80.5 12
q68 0 114.5 -29.5t70.5 -84.5t24 -131q0 -85 -29.5 -144t-83.5 -89.5t-128 -30.5zM309 62q46 0 79 19.5t51 60.5t18 106q0 86 -33.5 133t-103.5 47q-45 0 -82.5 -17t-62.5 -40.5t-34 -44.5q0 -60 9 -108.5t28 -83t51.5 -53.5t79.5 -19z" />
    <glyph glyph-name="uni0432" unicode="&#x432;" 
d="M130 0v537h210q54 0 94.5 -14t62.5 -43.5t22 -76.5q0 -49 -24.5 -78t-68.5 -39v-4q47 -7 77.5 -38t30.5 -86q0 -48 -20.5 -83.5t-62.5 -55t-107 -19.5h-214zM215 68h122q55 0 83 22t28 71q0 46 -28.5 66t-82.5 20h-122v-179zM215 315h116q52 0 77 19.5t25 59.5
q0 37 -23.5 55.5t-74.5 18.5h-120v-153z" />
    <glyph glyph-name="uni0433" unicode="&#x433;" 
d="M187 0v537h316v-73h-231v-464h-85z" />
    <glyph glyph-name="uni0434" unicode="&#x434;" 
d="M59 -187v260h43q37 64 61.5 140.5t37 159t13.5 164.5h258v-464h68v-260h-82v187h-317v-187h-82zM189 73h201v394h-102q-3 -65 -15 -135t-33 -137t-51 -122z" />
    <glyph glyph-name="uni0435" unicode="&#x435;" 
d="M337 -10q-86 0 -148 32t-95.5 93.5t-33.5 150.5q0 88 32 150.5t89 96t133 33.5q70 0 120.5 -31t78 -87.5t27.5 -135.5v-41h-389q2 -70 26.5 -111t67 -58.5t98.5 -17.5q44 0 87 12t86 32v-80q-46 -20 -92 -29t-87 -9zM153 323h297q-2 47 -18 80.5t-45.5 51.5t-72.5 18
q-67 0 -108.5 -40.5t-52.5 -109.5z" />
    <glyph glyph-name="uni0436" unicode="&#x436;" 
d="M10 0l170 283l-157 254h88l148 -255v255h80v-255l149 255h88l-157 -254l170 -283h-92l-158 278v-278h-80v278l-158 -278h-91z" />
    <glyph glyph-name="uni0437" unicode="&#x437;" 
d="M266 -10q-58 0 -108 11.5t-83 27.5v77q33 -16 83 -30.5t110 -14.5q49 0 83 10t51.5 31t17.5 53q0 44 -38.5 67.5t-130.5 23.5h-66v69h58q51 0 86 9t53 28t18 47q0 39 -30 58t-92 19q-48 0 -85 -9t-69 -24l-31 64q39 19 87 29.5t102 10.5q65 0 110 -17t68.5 -48t23.5 -73
q0 -47 -28.5 -77.5t-86.5 -44.5v-4q38 -8 69.5 -24t50 -42.5t18.5 -67.5q0 -45 -25 -81t-78.5 -57t-137.5 -21z" />
    <glyph glyph-name="uni0438" unicode="&#x438;" 
d="M80 0v537h81v-314q0 -12 -0.5 -27t-1.5 -32t-1.5 -32.5t-1.5 -29.5l264 435h100v-537h-80v305q0 18 0.5 41.5t1.5 47.5t2 41l-264 -435h-100z" />
    <glyph glyph-name="uni0439" unicode="&#x439;" 
d="M80 0v537h81v-314q0 -12 -0.5 -27t-1.5 -32t-1.5 -32.5t-1.5 -29.5l264 435h100v-537h-80v305q0 18 0.5 41.5t1.5 47.5t2 41l-264 -435h-100zM300 606q-71 0 -110.5 38t-41.5 96h58q7 -30 22.5 -45t35.5 -20.5t39 -5.5q31 0 59.5 13.5t37.5 57.5h59q-1 -58 -42.5 -96
t-116.5 -38z" />
    <glyph glyph-name="uni043A" unicode="&#x43a;" 
d="M105 0v537h85v-258l254 258h110l-263 -256l279 -281h-109l-271 275v-275h-85z" />
    <glyph glyph-name="uni043B" unicode="&#x43b;" 
d="M97 -7q-12 0 -23 2t-19 6v68q5 -2 11 -3.5t13 -1.5q23 0 41 28.5t31.5 87t23 147.5t15.5 209h330v-536h-85v464h-169q-10 -165 -29.5 -269t-52.5 -153t-87 -49z" />
    <glyph glyph-name="uni043C" unicode="&#x43c;" 
d="M50 0v537h116l133 -426l135 426h116v-537h-79v317q0 23 1.5 52t4.5 63h-4l-138 -432h-73l-135 432h-4q2 -31 3.5 -61.5t1.5 -54.5v-316h-78z" />
    <glyph glyph-name="uni043D" unicode="&#x43d;" 
d="M80 0v536h85v-222h271v222h84v-536h-84v242h-271v-242h-85z" />
    <glyph glyph-name="uni043E" unicode="&#x43e;" 
d="M301 -10q-52 0 -97 17t-78.5 52t-52 87.5t-18.5 123.5q0 93 31.5 154t86.5 91.5t125 30.5t126 -30.5t88.5 -92t32.5 -156.5q0 -70 -18.5 -122t-51 -86.5t-77 -51.5t-97.5 -17zM300 63q52 0 86 25t51 71.5t17 109.5q0 64 -17 109.5t-51.5 70t-86.5 24.5
q-78 0 -116.5 -54.5t-38.5 -149.5q0 -63 17.5 -109.5t52 -71.5t86.5 -25z" />
    <glyph glyph-name="uni043F" unicode="&#x43f;" 
d="M80 0v537h440v-537h-84v464h-271v-464h-85z" />
    <glyph glyph-name="uni0440" unicode="&#x440;" 
d="M80 -240v776h74l11 -73h4q16 26 38 44.5t52 28.5t70 10q49 0 89 -17.5t68.5 -52.5t43.5 -87t15 -120q0 -91 -26.5 -153.5t-75 -94t-114.5 -31.5q-39 0 -69.5 11t-52.5 29t-38 39h-6q3 -19 4.5 -39.5t1.5 -40.5v-229h-89zM310 63q75 0 109 51.5t34 156.5
q0 103 -33.5 152.5t-110.5 49.5q-73 0 -106.5 -47.5t-33.5 -136.5v-20q0 -95 30.5 -150.5t110.5 -55.5z" />
    <glyph glyph-name="uni0441" unicode="&#x441;" 
d="M338 -10q-78 0 -135 28.5t-87.5 89t-30.5 156.5q0 103 33.5 165t93 89.5t135.5 27.5q47 0 85.5 -9.5t72.5 -27.5l-27 -73q-32 17 -62 24.5t-65 7.5q-61 0 -99.5 -22.5t-56.5 -67t-18 -112.5q0 -71 19 -115t57.5 -64t94.5 -20q44 0 83 9.5t68 22.5v-79q-30 -14 -74 -22
t-87 -8z" />
    <glyph glyph-name="uni0442" unicode="&#x442;" 
d="M257 0v465h-189v72h463v-72h-190v-465h-84z" />
    <glyph glyph-name="uni0443" unicode="&#x443;" 
d="M136 -245q-20 0 -39 2.5t-33 5.5v69q12 -2 28.5 -4t32.5 -2q31 0 51.5 10t36 31t28.5 55l29 73l-225 541h88l128 -315q13 -31 25.5 -69t22.5 -73h3q7 25 15 49.5l15.5 48.5l14.5 45l105 314h92l-225 -606q-19 -52 -41.5 -91.5t-58 -61.5t-93.5 -22z" />
    <glyph glyph-name="uni0444" unicode="&#x444;" 
d="M258 -240v232q-93 10 -148 82t-55 195q0 119 52 192t152 83v216h82v-216q65 -7 110.5 -43.5t69.5 -95.5t24 -136q0 -78 -23.5 -137.5t-69 -95.5t-111.5 -44v-232h-83zM259 64v409q-59 -7 -88 -60t-29 -144q0 -57 12.5 -101.5t38.5 -71.5t66 -32zM341 64q41 6 66.5 33
t38 71.5t12.5 100.5q0 90 -29.5 142.5t-87.5 60.5v-408z" />
    <glyph glyph-name="uni0445" unicode="&#x445;" 
d="M45 0l203 274l-193 262h101l144 -201l144 201h101l-194 -262l203 -274h-101l-153 213l-154 -213h-101z" />
    <glyph glyph-name="uni0446" unicode="&#x446;" 
d="M517 -187v187h-53v72h136v-259h-83zM80 536h85v-464h271v464h84v-537h-440v537z" />
    <glyph glyph-name="uni0447" unicode="&#x447;" 
d="M436 0v235q-37 -28 -76 -43t-87 -15q-94 0 -143.5 48.5t-49.5 137.5v173h84v-173q0 -60 33 -87.5t94 -27.5q41 0 76 15.5t69 40.5v232h84v-536h-84z" />
    <glyph glyph-name="uni0448" unicode="&#x448;" 
d="M50 0v537h85v-464h123v464h84v-464h124v464h84v-537h-500z" />
    <glyph glyph-name="uni0449" unicode="&#x449;" 
d="M516 -186v186h-21v72h105v-258h-84zM50 0v537h85v-464h123v464h84v-464h124v464h84v-537h-500z" />
    <glyph glyph-name="uni044A" unicode="&#x44a;" 
d="M0 463v73h197v-73h-197zM130 0v536h85v-220h136q96 0 144.5 -38.5t48.5 -115.5q0 -51 -21 -87.5t-64 -55.5t-108 -19h-221zM215 68h133q51 0 81.5 22t30.5 68q0 47 -29 68t-84 21h-132v-179z" />
    <glyph glyph-name="uni044B" unicode="&#x44b;" 
d="M50 0v537h80v-221h91q92 0 136.5 -38.5t44.5 -115.5q0 -76 -44.5 -119t-136.5 -43h-171zM130 68h86q47 0 74.5 21.5t27.5 68.5t-25.5 68t-75.5 21h-87v-179zM466 0v537h84v-537h-84z" />
    <glyph glyph-name="uni044C" unicode="&#x44c;" 
d="M130 0v536h85v-220h136q96 0 144.5 -38.5t48.5 -115.5q0 -51 -21 -87.5t-64 -55.5t-108 -19h-221zM215 68h133q51 0 81.5 22t30.5 68q0 47 -29 68t-84 21h-132v-179z" />
    <glyph glyph-name="uni044D" unicode="&#x44d;" 
d="M438 242v69h-262v-69h262zM262 -10q78 0 135 28.5t87.5 89t30.5 156.5q0 103 -33.5 165t-93 89.5t-135.5 27.5q-47 0 -85.5 -9.5t-72.5 -27.5l27 -73q32 17 62 24.5t65 7.5q61 0 99.5 -22.5t56.5 -67t18 -112.5q0 -71 -19 -115t-57.5 -64t-94.5 -20q-44 0 -83 9.5
t-68 22.5v-79q30 -14 74 -22t87 -8z" />
    <glyph glyph-name="uni044E" unicode="&#x44e;" 
d="M396 -10q-49 0 -86 29.5t-57 92t-20 160.5q0 101 19.5 161t56.5 87t87 27q54 0 90.5 -32t55.5 -93.5t19 -149.5q0 -136 -42.5 -209t-122.5 -73zM63 0v537h85v-223h151v-72h-151v-242h-85zM396 62q41 0 59.5 52.5t18.5 157.5q0 67 -8 112t-25.5 67.5t-44.5 22.5t-44 -23
t-25 -68t-8 -111q0 -70 8 -116.5t25.5 -70t43.5 -23.5z" />
    <glyph glyph-name="uni044F" unicode="&#x44f;" 
d="M73 0l143 228q-50 12 -83 49t-33 102q0 76 48.5 117t132.5 41h220v-537h-84v217h-121l-127 -217h-96zM298 287h119v181h-127q-55 0 -81 -24.5t-26 -65.5q0 -46 30 -68.5t85 -22.5z" />
    <glyph glyph-name="uni0451" unicode="&#x451;" 
d="M337 -10q-86 0 -148 32t-95.5 93.5t-33.5 150.5q0 88 32 150.5t89 96t133 33.5q70 0 120.5 -31t78 -87.5t27.5 -135.5v-41h-389q2 -70 26.5 -111t67 -58.5t98.5 -17.5q44 0 87 12t86 32v-80q-46 -20 -92 -29t-87 -9zM153 323h297q-2 47 -18 80.5t-45.5 51.5t-72.5 18
q-67 0 -108.5 -40.5t-52.5 -109.5zM424 622q-22 0 -38 14.5t-16 44.5q0 31 16 44t38 13t38.5 -13t16.5 -44q0 -30 -16.5 -44.5t-38.5 -14.5zM195 622q-22 0 -38 14.5t-16 44.5q0 31 16 44t38 13t38.5 -13t16.5 -44q0 -30 -16.5 -44.5t-38.5 -14.5z" />
    <glyph glyph-name="uni0452" unicode="&#x452;" 
d="M395 -240q-17 0 -32 3t-26 7v72q11 -4 22.5 -6.5t22.5 -2.5q25 0 39 19t14 65v416l90 11v-425q0 -51 -15 -86.5t-44 -54t-71 -18.5zM0 604v66h346v-66h-346zM80 0v760h90v-216q0 -19 -1.5 -48t-2.5 -46h5q17 33 42.5 54t57.5 31.5t68 10.5q83 0 134.5 -46.5t51.5 -149.5
v-350h-90v332q0 73 -31 107t-88 34q-44 0 -77 -23t-51 -66.5t-18 -105.5v-278h-90z" />
    <glyph glyph-name="uni0453" unicode="&#x453;" 
d="M187 0v537h316v-73h-231v-464h-85zM290 606v12q15 19 32.5 45l34.5 53.5t28 49.5h106v-10q-12 -18 -37 -46.5t-53.5 -57t-52.5 -46.5h-58z" />
    <glyph glyph-name="uni0454" unicode="&#x454;" 
d="M162 242v69h262v-69h-262zM338 -10q-78 0 -135 28.5t-87.5 89t-30.5 156.5q0 103 33.5 165t93 89.5t135.5 27.5q47 0 85.5 -9.5t72.5 -27.5l-27 -73q-32 17 -62 24.5t-65 7.5q-61 0 -99.5 -22.5t-56.5 -67t-18 -112.5q0 -71 19 -115t57.5 -64t94.5 -20q44 0 83 9.5
t68 22.5v-79q-30 -14 -74 -22t-87 -8z" />
    <glyph glyph-name="uni0455" unicode="&#x455;" 
d="M279 -10q-50 0 -95.5 9t-78.5 25v83q35 -16 77.5 -29.5t101.5 -13.5q66 0 93.5 20.5t27.5 59.5q0 21 -9.5 34.5t-36.5 27.5t-79 36q-52 23 -89 43t-57 47.5t-20 70.5q0 48 24.5 79.5t71 47.5t110.5 16q44 0 84 -8t83 -26l-27 -70q-40 17 -73.5 23t-66.5 6
q-62 0 -90.5 -16t-28.5 -50q0 -22 12.5 -37t41 -29t75.5 -34q53 -22 90 -41t56 -45.5t19 -72.5q0 -51 -24.5 -85.5t-72.5 -52.5t-119 -18z" />
    <glyph glyph-name="uni0456" unicode="&#x456;" 
d="M80 0v60l191 15v386l-175 13v62h265v-461l179 -15v-60h-460zM307 633q-26 0 -44.5 16t-18.5 47q0 33 18.5 48.5t44.5 15.5t44.5 -15.5t18.5 -48.5q0 -31 -18.5 -47t-44.5 -16z" />
    <glyph glyph-name="uni0457" unicode="&#x457;" 
d="M80 0v60l191 15v386l-175 13v62h265v-461l179 -15v-60h-460zM414 622q-22 0 -38 14.5t-16 44.5q0 31 16 44t38 13t38.5 -13t16.5 -44q0 -30 -16.5 -44.5t-38.5 -14.5zM185 622q-22 0 -38 14.5t-16 44.5q0 31 16 44t38 13t38.5 -13t16.5 -44q0 -30 -16.5 -44.5
t-38.5 -14.5z" />
    <glyph glyph-name="uni0458" unicode="&#x458;" 
d="M192 -245q-31 0 -68.5 5t-63.5 12v79q18 -6 38.5 -10.5t42 -7.5t41.5 -3q45 0 72.5 14.5t40 44t12.5 74.5v498l-175 13v62h265v-588q0 -93 -53.5 -143t-151.5 -50zM342 633q-26 0 -44 16t-18 48t17.5 47.5t44.5 15.5q26 0 44.5 -15.5t18.5 -47.5q0 -33 -19 -48.5
t-44 -15.5z" />
    <glyph glyph-name="uni0459" unicode="&#x459;" 
d="M56 -6q-14 0 -23.5 2t-17.5 4v61q5 -1 10.5 -2.5t12.5 -1.5q15 0 28 9t24.5 36t20.5 79.5t15.5 139t9.5 216.5h195v-74h-126q-4 -139 -14 -230t-27.5 -143.5t-44 -74t-63.5 -21.5zM361 68h37q44 0 70 21.5t26 68.5t-24.5 68t-70.5 21h-38v-179zM284 0v537h77v-221h37
q86 0 128.5 -38.5t42.5 -115.5q0 -76 -42.5 -119t-128.5 -43h-114z" />
    <glyph glyph-name="uni045A" unicode="&#x45a;" 
d="M255 0v537h80v-221h51q58 0 95.5 -17t56.5 -51.5t19 -85.5q0 -76 -42.5 -119t-128.5 -43h-131zM50 0v537h86v-220h149v-72h-149v-245h-86zM335 68h46q43 0 67.5 21.5t24.5 68.5t-23 68t-68 21h-47v-179z" />
    <glyph glyph-name="uni045B" unicode="&#x45b;" 
d="M0 604v66h346v-66h-346zM80 0v760h90v-216q0 -19 -1.5 -48t-2.5 -46h5q17 33 42.5 54t57.5 31.5t68 10.5q83 0 134.5 -46.5t51.5 -149.5v-350h-90v332q0 73 -31 107t-88 34q-44 0 -77 -23t-51 -66.5t-18 -105.5v-278h-90z" />
    <glyph glyph-name="uni045C" unicode="&#x45c;" 
d="M105 0v537h85v-258l254 258h110l-263 -256l279 -281h-109l-271 275v-275h-85zM279 606v12q15 19 32.5 45l34.5 53.5t28 49.5h106v-10q-12 -18 -37 -46.5t-53.5 -57t-52.5 -46.5h-58z" />
    <glyph glyph-name="uni045E" unicode="&#x45e;" 
d="M136 -245q-20 0 -39 2.5t-33 5.5v69q12 -2 28.5 -4t32.5 -2q31 0 51.5 10t36 31t28.5 55l29 73l-225 541h88l128 -315q13 -31 25.5 -69t22.5 -73h3q7 25 15 49.5l15.5 48.5l14.5 45l105 314h92l-225 -606q-19 -52 -41.5 -91.5t-58 -61.5t-93.5 -22zM297 606
q-71 0 -110.5 38t-41.5 96h58q7 -30 22.5 -45t35.5 -20.5t39 -5.5q31 0 59.5 13.5t37.5 57.5h59q-1 -58 -42.5 -96t-116.5 -38z" />
    <glyph glyph-name="uni045F" unicode="&#x45f;" 
d="M259 -186v206h82v-206h-82zM80 536h85v-464h271v464h84v-537h-440v537z" />
    <glyph glyph-name="uni0490" unicode="&#x490;" 
d="M433 634v228h82v-228h-82zM115 0v714h400v-80h-310v-634h-90z" />
    <glyph glyph-name="uni0491" unicode="&#x491;" 
d="M421 464v228h82v-228h-82zM187 0v537h316v-73h-231v-464h-85z" />
    <glyph glyph-name="Wgrave" unicode="&#x1e80;" 
d="M105 0l-80 714h83q4 -39 7.5 -78.5t7.5 -79t7.5 -79t7.5 -78.5q3 -31 6 -66t5.5 -70.5t4.5 -67.5l3.5 -57.5t1.5 -39.5h2q3 17 8 42.5l11 54.5t12.5 57.5l11.5 51.5l54 232h86l56 -234l13 -54.5t13 -56t10.5 -52l7.5 -41.5h2q1 14 2 37.5t2.5 53t3.5 64.5t5 72.5l6 76.5
q3 31 5.5 62.5t5.5 62.5t5.5 62l5 62.5t5.5 62.5h83l-72 -714h-97l-79 328q-7 30 -12 54.5t-8 42t-5 25.5h-2q-1 -8 -3.5 -25t-7.5 -41.5t-12 -55.5l-76 -328h-96zM311 784q-17 14 -38 33.5t-41.5 41t-37 41.5t-25.5 34v10h105q11 -22 27.5 -49.5t35 -53.5t33.5 -45v-12h-59
z" />
    <glyph glyph-name="wgrave" unicode="&#x1e81;" 
d="M102 0l-86 536h84l39 -265q6 -37 8.5 -66l5 -59t4.5 -71h3l8.5 47.5t13 66t16.5 65.5l52 181h99l50 -181q9 -30 17 -64.5l14.5 -65t8.5 -49.5h3q3 40 5 69.5t5 58.5t9 68l42 265h82l-88 -536h-108l-48 188l-21 82t-19 81h-3q-8 -40 -19.5 -81l-22.5 -82l-49 -188h-105z
M312 606q-17 14 -38 33.5t-41.5 41t-37 41.5t-25.5 34v10h105q11 -22 27.5 -49.5t35 -53.5t33.5 -45v-12h-59z" />
    <glyph glyph-name="Wacute" unicode="&#x1e82;" 
d="M105 0l-80 714h83q4 -39 7.5 -78.5t7.5 -79t7.5 -79t7.5 -78.5q3 -31 6 -66t5.5 -70.5t4.5 -67.5l3.5 -57.5t1.5 -39.5h2q3 17 8 42.5l11 54.5t12.5 57.5l11.5 51.5l54 232h86l56 -234l13 -54.5t13 -56t10.5 -52l7.5 -41.5h2q1 14 2 37.5t2.5 53t3.5 64.5t5 72.5l6 76.5
q3 31 5.5 62.5t5.5 62.5t5.5 62l5 62.5t5.5 62.5h83l-72 -714h-97l-79 328q-7 30 -12 54.5t-8 42t-5 25.5h-2q-1 -8 -3.5 -25t-7.5 -41.5t-12 -55.5l-76 -328h-96zM259 784v12q15 19 32.5 45l34.5 53.5t28 49.5h106v-10q-12 -18 -37 -46.5t-53.5 -57t-52.5 -46.5h-58z" />
    <glyph glyph-name="wacute" unicode="&#x1e83;" 
d="M102 0l-86 536h84l39 -265q6 -37 8.5 -66l5 -59t4.5 -71h3l8.5 47.5t13 66t16.5 65.5l52 181h99l50 -181q9 -30 17 -64.5l14.5 -65t8.5 -49.5h3q3 40 5 69.5t5 58.5t9 68l42 265h82l-88 -536h-108l-48 188l-21 82t-19 81h-3q-8 -40 -19.5 -81l-22.5 -82l-49 -188h-105z
M260 606v12q15 19 32.5 45l34.5 53.5t28 49.5h106v-10q-12 -18 -37 -46.5t-53.5 -57t-52.5 -46.5h-58z" />
    <glyph glyph-name="Wdieresis" unicode="&#x1e84;" 
d="M105 0l-80 714h83q4 -39 7.5 -78.5t7.5 -79t7.5 -79t7.5 -78.5q3 -31 6 -66t5.5 -70.5t4.5 -67.5l3.5 -57.5t1.5 -39.5h2q3 17 8 42.5l11 54.5t12.5 57.5l11.5 51.5l54 232h86l56 -234l13 -54.5t13 -56t10.5 -52l7.5 -41.5h2q1 14 2 37.5t2.5 53t3.5 64.5t5 72.5l6 76.5
q3 31 5.5 62.5t5.5 62.5t5.5 62l5 62.5t5.5 62.5h83l-72 -714h-97l-79 328q-7 30 -12 54.5t-8 42t-5 25.5h-2q-1 -8 -3.5 -25t-7.5 -41.5t-12 -55.5l-76 -328h-96zM414 800q-22 0 -38 14.5t-16 44.5q0 31 16 44t38 13t38.5 -13t16.5 -44q0 -30 -16.5 -44.5t-38.5 -14.5z
M185 800q-22 0 -38 14.5t-16 44.5q0 31 16 44t38 13t38.5 -13t16.5 -44q0 -30 -16.5 -44.5t-38.5 -14.5z" />
    <glyph glyph-name="wdieresis" unicode="&#x1e85;" 
d="M102 0l-86 536h84l39 -265q6 -37 8.5 -66l5 -59t4.5 -71h3l8.5 47.5t13 66t16.5 65.5l52 181h99l50 -181q9 -30 17 -64.5l14.5 -65t8.5 -49.5h3q3 40 5 69.5t5 58.5t9 68l42 265h82l-88 -536h-108l-48 188l-21 82t-19 81h-3q-8 -40 -19.5 -81l-22.5 -82l-49 -188h-105z
M415 622q-22 0 -38 14.5t-16 44.5q0 31 16 44t38 13t38.5 -13t16.5 -44q0 -30 -16.5 -44.5t-38.5 -14.5zM186 622q-22 0 -38 14.5t-16 44.5q0 31 16 44t38 13t38.5 -13t16.5 -44q0 -30 -16.5 -44.5t-38.5 -14.5z" />
    <glyph glyph-name="Ygrave" unicode="&#x1ef2;" 
d="M257 0v278l-222 436h99l167 -361l168 361h96l-222 -436v-278h-86zM311 784q-17 14 -38 33.5t-41.5 41t-37 41.5t-25.5 34v10h105q11 -22 27.5 -49.5t35 -53.5t33.5 -45v-12h-59z" />
    <glyph glyph-name="ygrave" unicode="&#x1ef3;" 
d="M136 -245q-20 0 -39 2.5t-33 5.5v69q12 -2 28.5 -4t32.5 -2q31 0 51.5 10t36 31t28.5 55l29 73l-225 541h88l128 -315q13 -31 25.5 -69t22.5 -73h3q7 25 15 49.5l15.5 48.5l14.5 45l105 314h92l-225 -606q-19 -52 -41.5 -91.5t-58 -61.5t-93.5 -22zM311 606
q-17 14 -38 33.5t-41.5 41t-37 41.5t-25.5 34v10h105q11 -22 27.5 -49.5t35 -53.5t33.5 -45v-12h-59z" />
    <glyph glyph-name="endash" unicode="&#x2013;" 
d="M100 230v80h400v-80h-400z" />
    <glyph glyph-name="emdash" unicode="&#x2014;" 
d="M0 230v80h600v-80h-600z" />
    <glyph glyph-name="uni2015" unicode="&#x2015;" 
d="M0 230v80h600v-80h-600z" />
    <glyph glyph-name="underscoredbl" unicode="&#x2017;" 
d="M0 -279v80h600v-80h-600zM0 -154v80h600v-80h-600z" />
    <glyph glyph-name="quoteleft" unicode="&#x2018;" 
d="M230 469l-6 11q9 35 23 76t30.5 82t32.5 76h65l-19 -81.5t-18 -86t-13 -77.5h-95z" />
    <glyph glyph-name="quoteright" unicode="&#x2019;" 
d="M210 469l14 62l13.5 64.5l12 62.5t9.5 56h103l7 -11q-9 -35 -23 -75.5t-30 -81t-33 -77.5h-73z" />
    <glyph glyph-name="quotesinglbase" unicode="&#x201a;" 
d="M211 -140q11 44 21 91.5l19 93.5t14 84h107l8 -12q-7 -29 -18 -61.5t-23.5 -66l-26 -66.5t-27.5 -63h-74z" />
    <glyph glyph-name="quotereversed" unicode="&#x201b;" 
d="M311 469l-33 76.5t-31 81.5t-23 76l7 11h95q5 -35 13 -77.5t18 -86l19 -81.5h-65z" />
    <glyph glyph-name="quotedblleft" unicode="&#x201c;" 
d="M138 469l-6 11q9 35 23 76t30.5 82t32.5 76h65l-19 -81.5t-18 -86t-13 -77.5h-95zM323 469l-6 11q9 35 23 76t30.5 82t32.5 76h65l-19 -81.5t-18 -86t-13 -77.5h-95z" />
    <glyph glyph-name="quotedblright" unicode="&#x201d;" 
d="M461 714l6 -11q-9 -35 -23 -76t-30.5 -82t-32.5 -76h-65l19 81.5t18 86t13 77.5h95zM276 714l6 -11q-9 -35 -23 -76t-30.5 -82t-32.5 -76h-65l19 81.5t18 86t13 77.5h95z" />
    <glyph glyph-name="quotedblbase" unicode="&#x201e;" 
d="M326 -140q11 44 21 91.5l19 93.5t14 84h107l8 -12q-7 -29 -18 -61.5t-23.5 -66l-26 -66.5t-27.5 -63h-74zM133 -140q11 44 21 91.5l19 93.5t14 84h107l8 -12q-7 -29 -18 -61.5t-23.5 -66l-26 -66.5t-27.5 -63h-74z" />
    <glyph glyph-name="dagger" unicode="&#x2020;" 
d="M245 0l24 499l-161 -15v87l161 -15l-24 204h100l-25 -204l171 15v-87l-171 15l25 -499h-100z" />
    <glyph glyph-name="daggerdbl" unicode="&#x2021;" 
d="M248 0l24 185l-168 -14v85l168 -15l-21 143l21 135l-168 -15v85l168 -15l-24 186h101l-24 -186l171 15v-85l-171 15l21 -135l-21 -143l171 15v-85l-171 14l24 -185h-101z" />
    <glyph glyph-name="bullet" unicode="&#x2022;" 
d="M300 241q-47 0 -79 29t-32 95q0 68 32 96t79 28q31 0 56 -12t40 -39.5t15 -72.5q0 -44 -15 -71.5t-40 -40t-56 -12.5z" />
    <glyph glyph-name="ellipsis" unicode="&#x2026;" 
d="M500 -10q-26 0 -44 16t-18 52q0 38 18 53t44 15t44 -15t18 -53q0 -36 -18 -52t-44 -16zM300 -10q-26 0 -44 16t-18 52q0 38 18 53t44 15t44 -15t18 -53q0 -36 -18 -52t-44 -16zM100 -10q-26 0 -44 16t-18 52q0 38 18 53t44 15t44 -15t18 -53q0 -36 -18 -52t-44 -16z" />
    <glyph glyph-name="perthousand" unicode="&#x2030;" 
d="M22 291l411 262h120l-410 -262h-121zM229 -9q-48 0 -80 39.5t-32 110.5t30.5 110t83.5 39q48 0 80 -39t32 -110t-30.5 -110.5t-83.5 -39.5zM230 49q19 0 28.5 22.5t9.5 69.5q0 48 -9.5 69t-28.5 21t-29 -21t-10 -69q0 -47 10 -69.5t29 -22.5zM471 -9q-48 0 -80 39.5
t-32 110.5t30.5 110t83.5 39q48 0 80 -39t32 -110t-30.5 -110.5t-83.5 -39.5zM472 49q19 0 28.5 22.5t9.5 69.5q0 48 -9.5 69t-28.5 21t-29 -21t-10 -69q0 -47 10 -69.5t29 -22.5zM127 423q-49 0 -80.5 39.5t-31.5 110.5t31 110t83 39q48 0 80 -39t32 -110t-30.5 -110.5
t-83.5 -39.5zM128 481q19 0 28.5 22.5t9.5 69.5q0 48 -9.5 69t-28.5 21t-29 -21t-10 -69q0 -47 10 -69.5t29 -22.5z" />
    <glyph glyph-name="minute" unicode="&#x2032;" 
d="M190 456l129 258h90l-161 -258h-58z" />
    <glyph glyph-name="second" unicode="&#x2033;" 
d="M102 456l129 258h90l-161 -258h-58zM278 456l129 258h90l-161 -258h-58z" />
    <glyph glyph-name="guilsinglleft" unicode="&#x2039;" 
d="M352 56l-168 201v13l168 201l63 -36l-140 -171l140 -171z" />
    <glyph glyph-name="guilsinglright" unicode="&#x203a;" 
d="M247 503l168 -201v-13l-168 -201l-63 36l140 171l-140 171z" />
    <glyph glyph-name="exclamdbl" unicode="&#x203c;" 
d="M129 202l-16 512h109l-16 -512h-77zM167 -10q-26 0 -44 16t-18 52q0 38 18 53t44 15t44 -15t18 -53q0 -36 -18 -52t-44 -16zM395 202l-16 512h109l-16 -512h-77zM433 -10q-26 0 -44 16t-18 52q0 38 18 53t44 15t44 -15t18 -53q0 -36 -18 -52t-44 -16z" />
    <glyph glyph-name="fraction" unicode="&#x2044;" horiz-adv-x="0" 
d="M-190 0l304 714h76l-303 -714h-77z" />
    <glyph glyph-name="uni207F" unicode="&#x207f;" 
d="M155.002 287v321.587h46.8018l8.4502 -47.3984h3.25q10.4004 18.5996 26.9766 30.2988q16.5752 11.7002 38.6758 17.3994q22.1016 5.7002 48.1025 5.7002q52.6514 0 84.8281 -27.2988q32.1758 -27.2988 32.1758 -85.4971v-214.791h-58.502v205.191
q0 40.7988 -17.876 59.6982q-17.875 18.8984 -57.5273 18.8984q-53.3018 0 -75.0771 -31.1982q-21.7764 -31.1992 -21.7764 -87.5967v-164.993h-58.502z" />
    <glyph glyph-name="franc" unicode="&#x20a3;" 
d="M165 0v714h355v-80h-265v-232h246v-80h-246v-322h-90zM60 130v65h343v-65h-343z" />
    <glyph glyph-name="afii08941" unicode="&#x20a4;" 
d="M58 0v74q31 7 53.5 25t34.5 50t12 79h-97v66h97v78h-97v65h97v66q0 69 21 118t65.5 75.5t116.5 26.5q56 0 99.5 -11t77.5 -28l-31 -69q-31 14 -67.5 24t-77.5 10q-53 0 -84.5 -29t-31.5 -95v-88h202v-65h-202v-78h202v-66h-203q0 -43 -8.5 -72t-24 -47t-35.5 -29h384v-80
h-503z" />
    <glyph glyph-name="peseta" unicode="&#x20a7;" 
d="M50 0v714h134q111 0 160 -50t49 -139q0 -60 -20.5 -107t-69.5 -73.5t-135 -26.5h-31v-318h-87zM527 -6q-58 0 -88.5 30t-30.5 92v140h-79v35l80 33l17 125h57v-133h117v-60h-117v-123q0 -33 13.5 -51t45.5 -18q13 0 30.5 3t27.5 6v-65q-11 -5 -30.5 -9.5t-42.5 -4.5z
M137 403h26q67 0 100 27.5t33 88.5q0 57 -28.5 84.5t-89.5 27.5h-41v-228z" />
    <glyph glyph-name="Euro" unicode="&#x20ac;" 
d="M403 -10q-84 0 -141.5 32.5t-91.5 90t-48 133.5h-80v65h72q-1 12 -1 20v21q0 11 0.5 21.5t0.5 16.5h-72v65h79q13 81 47 141t92.5 93.5t142.5 33.5q46 0 90 -11t85 -35l-37 -72q-28 15 -65.5 28t-79.5 13q-48 0 -85.5 -21t-62.5 -63t-38 -107h244v-65h-251q-1 -10 -1 -19
v-19v-19.5t1 -21.5h251v-65h-243q12 -56 37 -96t65 -61t95 -21q38 0 77.5 9.5t70.5 22.5v-78q-31 -13 -68.5 -22.5t-84.5 -9.5z" />
    <glyph glyph-name="uni2105" unicode="&#x2105;" 
d="M159 386q-69 0 -114 41.5t-45 129.5q0 59 21.5 96.5t58.5 55t83 17.5q26 0 52 -6t44 -15l-20 -56q-19 8 -38 12.5t-39 4.5q-46 0 -68.5 -27.5t-22.5 -81.5t23 -83t69 -29q23 0 45.5 6.5t44.5 16.5v-61q-19 -10 -41.5 -15.5t-52.5 -5.5zM108 0l304 714h76l-303 -714h-77z
M452 -15q-66 0 -105.5 43.5t-39.5 126.5q0 82 39.5 125.5t107.5 43.5q44 0 77 -19.5t51 -57t18 -92.5q0 -84 -40 -127t-108 -43zM453 38q44 0 63.5 29.5t19.5 87.5q0 40 -8.5 65.5t-27 38t-47.5 12.5q-43 0 -63 -31t-20 -85q0 -58 19.5 -87.5t63.5 -29.5z" />
    <glyph glyph-name="uni2113" unicode="&#x2113;" 
d="M348 -10q-41 0 -76 16.5t-56.5 54.5t-21.5 103v113q-22 -8 -46 -15t-48 -13v59q26 7 49 14.5l45 14.5v239q0 41 14.5 74.5t46 53.5t83.5 20q58 0 92.5 -38.5t34.5 -108.5q0 -65 -24.5 -118.5t-67.5 -93.5t-97 -63v-135q0 -50 19.5 -79.5t61.5 -29.5q35 0 61.5 22.5
t30.5 80.5h51q-2 -54 -20 -92.5t-50.5 -58.5t-81.5 -20zM276 366q60 32 91 84t31 124q0 46 -15 69t-45 23q-38 0 -50 -25.5t-12 -66.5v-208z" />
    <glyph glyph-name="uni2116" unicode="&#x2116;" 
d="M43 0v714h101l122 -622h4q-4 61 -6.5 111.5t-2.5 112.5v398h62v-714h-101l-122 622h-4l4 -56t3 -56t1.5 -56t0.5 -56v-398h-62zM389 0v69h156v-69h-156zM467 130q-31 0 -56.5 23t-40 69.5t-14.5 116.5q0 105 31 156.5t78 51.5q32 0 57.5 -22.5t40 -68.5t14.5 -117
q0 -70 -14.5 -116.5t-39 -69.5t-56.5 -23zM467 196q24 0 35.5 39t11.5 106q0 44 -5.5 75.5t-16 48.5t-26.5 17q-23 0 -34.5 -38t-11.5 -106q0 -65 12 -103.5t35 -38.5z" />
    <glyph glyph-name="trademark" unicode="&#x2122;" 
d="M274 362v352h94l64 -271l67 271h91v-352h-64v204q0 8 1 31.5t2 35.5h-4l-71 -271h-53l-66 271h-4q1 -16 2 -36t1 -26v-209h-60zM85 362v298h-95v54h246v-54h-88v-298h-63z" />
    <glyph glyph-name="uni2126" unicode="&#x2126;" 
d="M20 0v76h134q-29 30 -53 78.5t-38 112.5t-14 137q0 103 29.5 174t86 108.5t136.5 37.5q81 0 136.5 -37.5t84 -109t28.5 -173.5q0 -74 -14 -138t-38 -112.5t-53 -77.5h135v-76h-229v67q60 56 84 136t24 177q0 88 -16.5 147.5t-51 90t-89.5 30.5q-53 0 -89 -28.5t-54 -87.5
t-18 -149q0 -68 11.5 -126t35.5 -105.5t61 -84.5v-67h-229z" />
    <glyph glyph-name="estimated" unicode="&#x212e;" 
d="M308 -17q-86 0 -144.5 38.5t-88 102t-29.5 139.5q0 70 23 121.5t61 85t84.5 49.5t94.5 16q71 0 128.5 -33.5t92 -95.5t34.5 -147h-404v-174q22 -22 59.5 -41t91.5 -19q68 0 112 32t75 82l35 -20q-23 -37 -53 -68t-71.5 -49.5t-100.5 -18.5zM160 301h291v135
q-19 20 -57 39t-91 19q-46 0 -82 -16.5t-61 -40.5v-136z" />
    <glyph glyph-name="oneeighth" unicode="&#x215b;" horiz-adv-x="1200" 
d="M283 286v276q0 26 0.5 45t1.5 40q-10 -9 -21 -17t-23 -15l-59 -33l-34 56l133 76h67v-428h-65zM180 286v51l106 7h55l114 -7v-51h-275zM896 -6q-71 0 -111 31.5t-40 84.5q0 44 24 71.5t58 44.5q-33 20 -51 41t-18 56q0 38 19.5 63.5t52.5 38.5t71 13q57 0 98.5 -26
t41.5 -79q0 -39 -22.5 -63.5t-54.5 -40.5q41 -16 66 -43.5t25 -68.5q0 -56 -43.5 -89.5t-115.5 -33.5zM899 50q45 0 67 18t22 46t-25 47.5t-76 39.5q-36 -16 -56 -37t-20 -50q0 -28 22 -46t66 -18zM901 254q32 11 53 28.5t21 45.5q0 26 -20 40.5t-55 14.5t-55 -14.5
t-20 -40.5t21.5 -44t54.5 -30zM430 0l304 714h76l-303 -714h-77z" />
    <glyph glyph-name="threeeighths" unicode="&#x215c;" horiz-adv-x="1200" 
d="M278 278q-33 0 -63 6.5t-60 21.5v63q34 -16 65.5 -25t61.5 -9q47 0 69 20.5t22 53.5q0 38 -27 54.5t-76 16.5h-57v55h57q47 0 68.5 19.5t21.5 50.5q0 32 -18.5 46.5t-47.5 14.5q-25 0 -50 -10.5t-51 -27.5l-36 46q31 23 63 36t76 13q67 0 101.5 -30.5t34.5 -80.5
q0 -40 -19.5 -65.5t-46.5 -35.5v-3q36 -7 57.5 -32.5t21.5 -68.5q0 -56 -40.5 -92.5t-126.5 -36.5zM896 -6q-71 0 -111 31.5t-40 84.5q0 44 24 71.5t58 44.5q-33 20 -51 41t-18 56q0 38 19.5 63.5t52.5 38.5t71 13q57 0 98.5 -26t41.5 -79q0 -39 -22.5 -63.5t-54.5 -40.5
q41 -16 66 -43.5t25 -68.5q0 -56 -43.5 -89.5t-115.5 -33.5zM899 50q45 0 67 18t22 46t-25 47.5t-76 39.5q-36 -16 -56 -37t-20 -50q0 -28 22 -46t66 -18zM901 254q32 11 53 28.5t21 45.5q0 26 -20 40.5t-55 14.5t-55 -14.5t-20 -40.5t21.5 -44t54.5 -30zM410 0l304 714h76
l-303 -714h-77z" />
    <glyph glyph-name="fiveeighths" unicode="&#x215d;" horiz-adv-x="1200" 
d="M278 277q-31 0 -64 6.5t-54 19.5v67q26 -16 56.5 -25.5t64.5 -9.5q38 0 61 20t23 63q0 38 -22.5 59t-63.5 21q-26 0 -44.5 -4t-33.5 -8l-31 20l16 208h230v-55h-172l-9 -109q12 2 26.5 4t31.5 2q61 0 101.5 -35t40.5 -104q0 -64 -40 -102t-117 -38zM896 -6
q-71 0 -111 31.5t-40 84.5q0 44 24 71.5t58 44.5q-33 20 -51 41t-18 56q0 38 19.5 63.5t52.5 38.5t71 13q57 0 98.5 -26t41.5 -79q0 -39 -22.5 -63.5t-54.5 -40.5q41 -16 66 -43.5t25 -68.5q0 -56 -43.5 -89.5t-115.5 -33.5zM899 50q45 0 67 18t22 46t-25 47.5t-76 39.5
q-36 -16 -56 -37t-20 -50q0 -28 22 -46t66 -18zM901 254q32 11 53 28.5t21 45.5q0 26 -20 40.5t-55 14.5t-55 -14.5t-20 -40.5t21.5 -44t54.5 -30zM410 0l304 714h76l-303 -714h-77z" />
    <glyph glyph-name="seveneighths" unicode="&#x215e;" horiz-adv-x="1200" 
d="M215 287l165 368h-215v60h285v-49l-161 -379h-74zM896 -6q-71 0 -111 31.5t-40 84.5q0 44 24 71.5t58 44.5q-33 20 -51 41t-18 56q0 38 19.5 63.5t52.5 38.5t71 13q57 0 98.5 -26t41.5 -79q0 -39 -22.5 -63.5t-54.5 -40.5q41 -16 66 -43.5t25 -68.5q0 -56 -43.5 -89.5
t-115.5 -33.5zM899 50q45 0 67 18t22 46t-25 47.5t-76 39.5q-36 -16 -56 -37t-20 -50q0 -28 22 -46t66 -18zM901 254q32 11 53 28.5t21 45.5q0 26 -20 40.5t-55 14.5t-55 -14.5t-20 -40.5t21.5 -44t54.5 -30zM370 0l304 714h76l-303 -714h-77z" />
    <glyph glyph-name="partialdiff" unicode="&#x2202;" 
d="M222 -10q-65 0 -103.5 27.5t-54.5 71.5t-16 92q0 47 13.5 101t43.5 102t77.5 79t114.5 31q49 0 82.5 -18.5t58.5 -54.5q1 9 1.5 19t0.5 23q0 86 -34 135.5t-99 49.5q-31 0 -66 -11t-61 -29v84q25 12 62.5 21t77.5 9q60 0 100 -21.5t64 -59t34 -86.5t10 -104
q0 -59 -11 -123.5t-34 -124.5t-59 -108t-86.5 -76.5t-115.5 -28.5zM229 64q39 0 71.5 23t57.5 61.5t41.5 86t23.5 96.5q-10 38 -38 66.5t-75 28.5q-44 0 -76 -24.5t-53 -62.5t-31.5 -80t-10.5 -78q0 -50 21.5 -83.5t68.5 -33.5z" />
    <glyph glyph-name="uni2206" unicode="&#x2206;" 
d="M20 0v55l234 659h90l236 -660v-54h-560zM116 79h365l-128 372l-20.5 59t-19 55.5t-15.5 50.5q-6 -24 -14 -50.5l-17 -54.5t-19 -56z" />
    <glyph glyph-name="minus" unicode="&#x2212;" 
d="M70 308v80h460v-80h-460z" />
    <glyph glyph-name="radical" unicode="&#x221a;" 
d="M241 -7l-135 380h-88v70h143l113 -329l250 713h78l-296 -834h-65z" />
    <glyph glyph-name="infinity" unicode="&#x221e;" 
d="M152 198q-65 0 -106 42.5t-41 109.5q0 45 18.5 80.5t51 56t74.5 20.5q38 0 68.5 -17t56 -47t48.5 -71q18 -31 34.5 -56t37 -40t49.5 -15q39 0 62 26t23 64t-23 64t-61 26q-28 0 -48.5 -15t-38 -40.5t-36.5 -57.5q-20 -34 -42.5 -63.5t-52.5 -48t-74 -18.5zM449 196
q-39 0 -69 17t-53.5 46t-43.5 64q-17 31 -35.5 58.5t-41 44.5t-53.5 17q-37 0 -59 -25t-22 -65q0 -37 21 -63.5t64 -26.5q30 0 51 13.5t38.5 39t36.5 59.5q14 25 30.5 48.5t36.5 42t45 29t56 10.5q42 0 74.5 -19.5t50.5 -54t18 -78.5q0 -43 -18 -79t-50.5 -57t-76.5 -21z
" />
    <glyph glyph-name="approxequal" unicode="&#x2248;" 
d="M64 385v78q25 26 53.5 39.5t70.5 13.5q29 0 57 -7t71 -25q25 -10 50 -18.5t50 -8.5q37 0 67 18.5t52 40.5v-77q-25 -26 -53.5 -40t-71.5 -14q-34 0 -62 8.5t-65 23.5q-28 12 -52 19.5t-47 7.5q-37 0 -67 -18t-53 -41zM64 190v78q25 26 53.5 39.5t70.5 13.5q29 0 57 -7
t71 -25q25 -10 50 -18.5t50 -8.5q37 0 67 18.5t52 40.5v-77q-25 -26 -53.5 -40t-71.5 -14q-34 0 -62 8.5t-65 23.5q-28 12 -52 19.5t-47 7.5q-37 0 -67 -18t-53 -41z" />
    <glyph glyph-name="notequal" unicode="&#x2260;" 
d="M211 79l-74 31l242 519l75 -32zM70 407v80h460v-80h-460zM70 217v80h460v-80h-460z" />
    <glyph glyph-name="lessequal" unicode="&#x2264;" 
d="M536 119v78l-377 157l377 179v78l-471 -235v-50zM536 0v71h-471v-71h471z" />
    <glyph glyph-name="greaterequal" unicode="&#x2265;" 
d="M64 119v78l377 157l-377 179v78l471 -235v-50zM64 0v71h471v-71h-471z" />
    <glyph glyph-name="lozenge" unicode="&#x25ca;" 
d="M281 0l-220 359l220 360h38l220 -360l-220 -359h-38zM300 105l152 254l-152 254l-151 -254z" />
    <glyph glyph-name="uni0326" unicode="&#x326;" horiz-adv-x="0" 
d="M-83 -221v12q8 17 16.5 43.5t15.5 55t9 49.5h87v-7q-4 -18 -16.5 -46t-29 -56.5t-34.5 -50.5h-48z" />
    <glyph glyph-name="uni2074" unicode="&#x2074;" 
d="M330 416v96h-200v52l202 283h61v-279h67v-56h-67v-96h-63zM200 568h130v97q0 21 1 49t2 52q-5 -11 -21 -35.5l-27 -41.5z" />
    <glyph glyph-name="uni2075" unicode="&#x2075;" 
d="M278 407q-31 0 -64 6.5t-54 19.5v67q26 -16 56.5 -25.5t64.5 -9.5q38 0 61 20t23 63q0 38 -22.5 59t-63.5 21q-26 0 -44.5 -4t-33.5 -8l-31 20l16 208h230v-55h-172l-9 -109q12 2 26.5 4t31.5 2q61 0 101.5 -35t40.5 -104q0 -64 -40 -102t-117 -38z" />
    <glyph glyph-name="uni2077" unicode="&#x2077;" 
d="M215 416l165 368h-215v60h285v-49l-161 -379h-74z" />
    <glyph glyph-name="uni2078" unicode="&#x2078;" 
d="M296 408q-71 0 -111 31.5t-40 84.5q0 44 24 71.5t58 44.5q-33 20 -51 41t-18 56q0 38 19.5 63.5t52.5 38.5t71 13q57 0 98.5 -26t41.5 -79q0 -39 -22.5 -63.5t-54.5 -40.5q41 -16 66 -43.5t25 -68.5q0 -56 -43.5 -89.5t-115.5 -33.5zM299 464q45 0 67 18t22 46t-25 47.5
t-76 39.5q-36 -16 -56 -37t-20 -50q0 -28 22 -46t66 -18zM301 668q32 11 53 28.5t21 45.5q0 26 -20 40.5t-55 14.5t-55 -14.5t-20 -40.5t21.5 -44t54.5 -30z" />
    <glyph glyph-name="uni2000" unicode="&#x2000;" 
 />
    <glyph glyph-name="uni2001" unicode="&#x2001;" 
 />
    <glyph glyph-name="uni2002" unicode="&#x2002;" 
 />
    <glyph glyph-name="uni2003" unicode="&#x2003;" 
 />
    <glyph glyph-name="uni2004" unicode="&#x2004;" 
 />
    <glyph glyph-name="uni2005" unicode="&#x2005;" 
 />
    <glyph glyph-name="uni2006" unicode="&#x2006;" 
 />
    <glyph glyph-name="uni2007" unicode="&#x2007;" 
 />
    <glyph glyph-name="uni2008" unicode="&#x2008;" 
 />
    <glyph glyph-name="uni2009" unicode="&#x2009;" 
 />
    <glyph glyph-name="uni200A" unicode="&#x200a;" 
 />
    <glyph glyph-name="uni200B" unicode="&#x200b;" horiz-adv-x="0" 
 />
    <glyph glyph-name="uniFFFC" unicode="&#xfffc;" horiz-adv-x="1200" 
d="M389 160q-66 0 -97 40.5t-31 106.5q0 67 31 107t97 40t97 -40t31 -107q0 -66 -31 -106.5t-97 -40.5zM136 -187v148h54v-95h94v-53h-148zM136 19v132h54v-132h-54zM343 -187v53h132v-53h-132zM136 210v133h54v-133h-54zM534 -187v53h133v-53h-133zM725 -187v53h133v-53
h-133zM136 402v132h54v-132h-54zM389 211q35 0 50.5 25.5t15.5 70.5t-15.5 70.5t-50.5 25.5q-34 0 -50 -25.5t-16 -70.5t16 -70.5t50 -25.5zM136 593v148h148v-54h-94v-94h-54zM916 -187v53h95v95h53v-148h-148zM618 214h36q24 0 33 10.5t9 28.5q0 16 -9 26t-35 10h-34v-75z
M558 164v286h84q53 0 80.5 -16t27.5 -57q0 -24 -11.5 -40t-32.5 -20v-4q22 -4 37 -18t15 -48q0 -39 -26.5 -61t-72.5 -22h-101zM618 337h32q23 0 31.5 8t8.5 24q0 17 -10 24t-33 7h-29v-63zM1011 19v132h53v-132h-53zM343 687v54h132v-54h-132zM823 161q-24 0 -39 5v50
q8 -1 15.5 -2.5t17.5 -1.5q18 0 30 8.5t12 33.5v196h61v-194q0 -49 -27 -72t-70 -23zM1011 210v133h53v-133h-53zM534 687v54h133v-54h-133zM1011 402v132h53v-132h-53zM725 687v54h133v-54h-133zM1011 593v94h-95v54h148v-148h-53z" />
    <glyph glyph-name="uniFFFD" unicode="&#xfffd;" horiz-adv-x="1200" 
d="M599 -156l-458 458l458 458l459 -458zM584 -21q27 0 47.5 15.5t20.5 50.5q0 37 -20.5 52t-47.5 15q-29 0 -49 -15t-20 -52q0 -35 20 -50.5t49 -15.5zM528 179h103v23q0 25 10 40t43 40q44 33 65 64.5t21 80.5q0 67 -46 104t-126 37q-42 0 -86 -14t-78 -34l40 -87
q33 17 64 28t58 11q31 0 46 -14t15 -37q0 -28 -13 -45.5t-46 -43.5q-37 -29 -53.5 -57t-16.5 -67v-29z" />
    <glyph glyph-name="uni01F0" unicode="&#x1f0;" 
d="M192 -245q-31 0 -68.5 5t-63.5 12v79q18 -6 38.5 -10.5t42 -7.5t41.5 -3q45 0 72.5 14.5t40 44t12.5 74.5v498l-175 13v62h265v-588q0 -93 -53.5 -143t-151.5 -50zM294 606q-13 23 -35 49.5t-46 52.5l-42 45v13h60q26 -17 54 -41t53 -51q27 27 55 51t54 41h62v-13
l-43.5 -45t-47 -52.5t-34.5 -49.5h-90z" />
    <glyph glyph-name="uni02BC" unicode="&#x2bc;" 
d="M210 469l14 62l13.5 64.5l12 62.5t9.5 56h103l7 -11q-9 -35 -23 -75.5t-30 -81t-33 -77.5h-73z" />
    <glyph glyph-name="uni03D1" unicode="&#x3d1;" 
d="M298 -10q-124 0 -182.5 103t-58.5 284q0 122 24 209t77.5 133t139.5 46q125 0 184.5 -101.5t59.5 -286.5q0 -121 -24.5 -207.5t-78 -133t-141.5 -46.5zM298 62q78 0 115 72t40 217h-307q2 -143 37.5 -216t114.5 -73zM146 424h306q-5 134 -41 201.5t-113 67.5
q-76 0 -111.5 -67.5t-40.5 -201.5z" />
    <glyph glyph-name="uni03D2" unicode="&#x3d2;" 
d="M257 0v278l-222 436h99l167 -361l168 361h96l-222 -436v-278h-86z" />
    <glyph glyph-name="uni03D6" unicode="&#x3d6;" 
d="M481 -10q-55 0 -83 32t-28 96v345h-137v-463h-87v463h-109v38l72 35h453v-73h-105v-339q0 -35 13 -48.5t33 -13.5q14 0 25.5 3t18.5 7v-69q-8 -4 -25.5 -8.5t-40.5 -4.5z" />
    <glyph glyph-name="uni1E3E" unicode="&#x1e3e;" 
d="M50 0v714h129l119 -419h3l119 419h130v-714h-85v387q0 20 0.5 40l1 40.5t1.5 40.5l2 40t3 39l4 37h-4l-132 -446h-83l-133 447h-4q2 -15 4 -33t3.5 -38l3 -41.5t2 -43l1 -42.5t0.5 -40v-387h-85zM264 784v12q15 19 32.5 45l34.5 53.5t28 49.5h106v-10q-12 -18 -37 -46.5
t-53.5 -57t-52.5 -46.5h-58z" />
    <glyph glyph-name="uni1E3F" unicode="&#x1e3f;" 
d="M50 0v536h62l13 -59h5q13 27 28 42t32.5 21t38.5 6q41 0 63.5 -19.5t34.5 -57.5h3q17 37 42.5 57t67.5 20q41 0 65.5 -21t35 -64t10.5 -111v-350h-80v335q0 42 -3.5 71.5t-14.5 45.5t-36 16q-24 0 -41 -22.5t-26 -66.5t-9 -111v-268h-80v335q0 43 -5 72.5t-17.5 45
t-37.5 15.5q-26 0 -42 -24.5t-22.5 -69t-6.5 -106.5v-268h-80zM285 606v12q15 19 32.5 45l34.5 53.5t28 49.5h106v-10q-12 -18 -37 -46.5t-53.5 -57t-52.5 -46.5h-58z" />
    <glyph glyph-name="uni1E00" unicode="&#x1e00;" 
d="M20 0l232 717h95l233 -717h-92l-159 512q-3 12 -8.5 29.5t-11 39l-10.5 41.5q-4 -20 -9.5 -41.5l-10.5 -39.5t-9 -29l-159 -512h-91zM154 219l30 80h227l26 -80h-283zM299 -251q-49 0 -79 28t-30 78t30 77.5t79 27.5q47 0 79 -27.5t32 -76.5q0 -51 -31.5 -79t-79.5 -28z
M299 -199q24 0 39 14.5t15 39.5q0 26 -15.5 40t-38.5 14q-22 0 -37.5 -14t-15.5 -40q0 -25 15 -39.5t38 -14.5z" />
    <glyph glyph-name="uni1E01" unicode="&#x1e01;" 
d="M246 -10q-79 0 -127.5 39t-48.5 118q0 58 28 96.5t82.5 58t132.5 21.5l115 3v22q0 72 -36 98.5t-97 26.5q-43 0 -82 -11t-74 -31l-31 68q38 19 84.5 33t107.5 14q101 0 155.5 -45.5t54.5 -141.5v-359h-72l-10 74h-4q-22 -28 -48.5 -46.5t-58.5 -28t-71 -9.5zM261 63
q45 0 83 16.5t61 50t23 84.5v48l-96 -3q-64 -2 -103 -15.5t-56.5 -37t-17.5 -56.5q0 -46 29 -66.5t77 -20.5zM299 -251q-49 0 -79 28t-30 78t30 77.5t79 27.5q47 0 79 -27.5t32 -76.5q0 -51 -31.5 -79t-79.5 -28zM299 -199q24 0 39 14.5t15 39.5q0 26 -15.5 40t-38.5 14
q-22 0 -37.5 -14t-15.5 -40q0 -25 15 -39.5t38 -14.5z" />
    <glyph glyph-name="uni02F3" unicode="&#x2f3;" 
d="M299 -271q-49 0 -79 28t-30 78t30 77.5t79 27.5q47 0 79 -27.5t32 -76.5q0 -51 -31.5 -79t-79.5 -28zM299 -219q24 0 39 14.5t15 39.5q0 26 -15.5 40t-38.5 14q-22 0 -37.5 -14t-15.5 -40q0 -25 15 -39.5t38 -14.5z" />
    <glyph glyph-name="partialdiff.mir" 
d="M249 -10q-55 0 -97 23.5t-65.5 74t-23.5 130.5q0 47 9 103t27.5 113t47.5 108t69 90q44 43 102.5 66.5t132.5 23.5q29 0 55 -3.5t44 -8.5l-18 -75q-16 5 -38.5 9t-51.5 4q-61 0 -113.5 -23.5t-91.5 -80.5t-63 -158h4q29 38 69 60.5t92 22.5q49 0 85 -21t56 -61.5
t20 -99.5q0 -39 -9.5 -80.5t-29 -80.5t-49.5 -69.5t-70.5 -48.5t-92.5 -18zM258 64q38 0 66.5 19.5t48.5 51t30 68.5t10 73q0 60 -27 91t-72 31q-35 0 -65 -16t-51.5 -39t-31.5 -44q-7 -16 -11.5 -45.5t-4.5 -53.5q0 -34 11 -65.5t35 -51t62 -19.5z" />
    <glyph glyph-name="Ohorn" unicode="&#x1a0;" 
d="M299 -10q-67 0 -115 26.5t-79 75t-45.5 116t-14.5 149.5q0 110 26.5 193t83 129.5t145.5 46.5q67 0 115 -26t79 -75t46 -116t15 -150t-15 -151t-46 -116.5t-79.5 -75t-115.5 -26.5zM301 70q60 0 95.5 34.5t51 99t15.5 154.5q0 136 -36 212t-125 76q-60 0 -96.5 -34.5
t-52.5 -99t-16 -154.5t16 -154.5t52 -99t96 -34.5zM493 576l-22 51q29 16 47.5 39t18.5 68q0 17 -4 34.5t-16 43.5l69 31l12 -8q9 -28 12.5 -49t3.5 -39q0 -36 -13 -67t-39.5 -56.5t-68.5 -47.5z" />
    <glyph glyph-name="ohorn" unicode="&#x1a1;" 
d="M301 -10q-52 0 -97 17t-78.5 52t-52 87.5t-18.5 123.5q0 93 31.5 154t86.5 91.5t125 30.5t126 -30.5t88.5 -92t32.5 -156.5q0 -70 -18.5 -122t-51 -86.5t-77 -51.5t-97.5 -17zM300 63q52 0 86 25t51 71.5t17 109.5q0 64 -17 109.5t-51.5 70t-86.5 24.5
q-78 0 -116.5 -54.5t-38.5 -149.5q0 -63 17.5 -109.5t52 -71.5t86.5 -25zM472 436l-22 51q29 16 47.5 39t18.5 68q0 17 -4 34.5t-16 43.5l69 31l12 -8q9 -28 12.5 -49t3.5 -39q0 -36 -13 -67t-39.5 -56.5t-68.5 -47.5z" />
    <glyph glyph-name="Uhorn" unicode="&#x1af;" 
d="M298 -10q-82 0 -132.5 32.5t-73 92t-22.5 139.5v460h90v-455q0 -56 12.5 -99t43 -66.5t84.5 -23.5q57 0 87.5 25t41.5 68.5t11 96.5v454h90v-462q0 -74 -22 -133.5t-73 -94t-137 -34.5zM506 557l-22 51q29 16 47.5 39t18.5 68q0 17 -4 34.5t-16 43.5l69 31l12 -8
q9 -28 12.5 -49t3.5 -39q0 -36 -13 -67t-39.5 -56.5t-68.5 -47.5z" />
    <glyph glyph-name="uhorn" unicode="&#x1b0;" 
d="M261 -10q-95 0 -140.5 47.5t-45.5 141.5v357h90v-343q0 -64 26.5 -97t91.5 -33q56 0 88 23.5t45.5 67.5t13.5 106v276h90v-536h-72l-13 72h-5q-19 -30 -44 -48t-56 -26t-69 -8zM496 471l-22 51q29 16 47.5 39t18.5 68q0 17 -4 34.5t-16 43.5l69 31l12 -8q9 -28 12.5 -49
t3.5 -39q0 -36 -13 -67t-39.5 -56.5t-68.5 -47.5z" />
    <glyph glyph-name="uni0400" unicode="&#x400;" 
d="M95 0v714h420v-80h-330v-221h311v-80h-311v-253h330v-80h-420zM316 784q-17 14 -38 33.5t-41.5 41t-37 41.5t-25.5 34v10h105q11 -22 27.5 -49.5t35 -53.5t33.5 -45v-12h-59z" />
    <glyph glyph-name="uni040D" unicode="&#x40d;" 
d="M70 0v714h83v-409q0 -19 -0.5 -41.5t-1.5 -45.5l-2 -45t-2 -41h4l277 582h102v-714h-83v413q0 21 0.5 45t1.5 47.5t2.5 44.5t2.5 37h-4l-279 -587h-101zM311 784q-17 14 -38 33.5t-41.5 41t-37 41.5t-25.5 34v10h105q11 -22 27.5 -49.5t35 -53.5t33.5 -45v-12h-59z" />
    <glyph glyph-name="uni0450" unicode="&#x450;" 
d="M337 -10q-86 0 -148 32t-95.5 93.5t-33.5 150.5q0 88 32 150.5t89 96t133 33.5q70 0 120.5 -31t78 -87.5t27.5 -135.5v-41h-389q2 -70 26.5 -111t67 -58.5t98.5 -17.5q44 0 87 12t86 32v-80q-46 -20 -92 -29t-87 -9zM153 323h297q-2 47 -18 80.5t-45.5 51.5t-72.5 18
q-67 0 -108.5 -40.5t-52.5 -109.5zM321 606q-17 14 -38 33.5t-41.5 41t-37 41.5t-25.5 34v10h105q11 -22 27.5 -49.5t35 -53.5t33.5 -45v-12h-59z" />
    <glyph glyph-name="uni045D" unicode="&#x45d;" 
d="M80 0v537h81v-314q0 -12 -0.5 -27t-1.5 -32t-1.5 -32.5t-1.5 -29.5l264 435h100v-537h-80v305q0 18 0.5 41.5t1.5 47.5t2 41l-264 -435h-100zM314 606q-17 14 -38 33.5t-41.5 41t-37 41.5t-25.5 34v10h105q11 -22 27.5 -49.5t35 -53.5t33.5 -45v-12h-59z" />
    <glyph glyph-name="uni0460" unicode="&#x460;" 
d="M124 0q-29 82 -49 167t-33 174.5t-20 182.5t-10 190h78q3 -91 9.5 -175.5t16 -159.5t22 -139.5t26.5 -115.5h3l12.5 60.5t16.5 71.5l65 262q-4 52 -7 100t-4 96h82q0 -64 5.5 -130t14.5 -130t20.5 -124.5t24 -114.5t24.5 -99h2q13 44 23 94.5t18 107t13.5 119t8.5 132
t4 145.5h77q-1 -136 -12 -260.5t-34.5 -237.5t-63.5 -216h-73q-20 53 -38.5 115t-32.5 126t-22 122l-88 -363h-79z" />
    <glyph glyph-name="uni0461" unicode="&#x461;" 
d="M124 0q-38 82 -61.5 168.5t-35 178.5t-15.5 189h75q3 -69 10 -131.5t17.5 -118.5t23.5 -104t27 -87h3l12.5 44t16.5 52l66 201q-4 38 -7 73t-4 71h80q0 -60 8 -121.5t21.5 -120t29 -110.5t30.5 -94h2q16 41 28.5 89.5t21.5 103.5t14 118.5t6 134.5h74q-1 -102 -12 -195.5
t-34.5 -178.5t-63.5 -162h-71q-20 39 -38.5 85.5t-33 95t-23.5 91.5l-90 -272h-77z" />
    <glyph glyph-name="uni0462" unicode="&#x462;" 
d="M140 0v536h-133v76h133v102h90v-102h193v-76h-193v-124h75q94 0 149 -27t79 -73t24 -103q0 -95 -58 -152t-179 -57h-180zM230 76h80q77 0 116 33t39 100q0 46 -19.5 73t-57 39t-93.5 12h-65v-257z" />
    <glyph glyph-name="uni0463" unicode="&#x463;" 
d="M132 0v463h-117v73h117v108h87v-108h169v-73h-169v-148h151q110 0 163.5 -38t53.5 -113t-51.5 -119.5t-167.5 -44.5h-236zM219 71h145q59 0 97.5 20t38.5 68t-35.5 65.5t-102.5 17.5h-143v-171z" />
    <glyph glyph-name="uni0464" unicode="&#x464;" 
d="M470 -10q-72 0 -120.5 44.5t-73.5 122t-28 176.5h-91v-333h-84v714h84v-305h93q5 76 21.5 134.5t45.5 99t71 61.5t97 21q38 0 63 -9t42 -18l-29 -71q-18 9 -37 15.5t-49 6.5q-33 0 -58 -16.5t-42 -48t-27.5 -76t-13.5 -99.5h193v-76h-194q1 -60 10.5 -109.5t28 -84.5
t46.5 -54t67 -19q30 0 50.5 6t37.5 14v-74q-18 -10 -42.5 -16t-60.5 -6z" />
    <glyph glyph-name="uni0465" unicode="&#x465;" 
d="M460 -10q-65 0 -111 27.5t-71 84t-28 142.5h-113v-244h-84v537h84v-228h114q5 75 31.5 128t75 81.5t119.5 28.5q30 0 59 -6.5t46 -15.5l-26 -66q-12 7 -33.5 12.5t-42.5 5.5q-69 0 -105.5 -41t-40.5 -127h176v-65h-176q2 -61 17.5 -102t45.5 -61.5t75 -20.5q26 0 51.5 6
t44.5 15v-70q-14 -8 -45 -14.5t-63 -6.5z" />
    <glyph glyph-name="uni0466" unicode="&#x466;" 
d="M4 0l254 714h83l254 -714h-85l-116 330h-58v-330h-74v330h-58l-117 -330h-83zM231 407h137l-43 129q-10 29 -15.5 48t-10.5 40q-5 -21 -10 -40t-15 -48z" />
    <glyph glyph-name="uni0467" unicode="&#x467;" 
d="M18 0l227 536h108l228 -536h-90l-99 235h-53v-235h-79v235h-55l-97 -235h-90zM233 307h132l-29 73l-20.5 54.5t-14.5 42.5h-4q-7 -24 -16 -47l-19 -49z" />
    <glyph glyph-name="uni0468" unicode="&#x468;" horiz-adv-x="1200" 
d="M160 0v714h90v-302h332l139 302h88l327 -714h-104l-148 333h-77v-333h-85v333h-78l-149 -333h-102l153 333h-296v-333h-90zM678 411h170l-39 95q-8 21 -16.5 40.5t-15.5 39.5t-13 40q-5 -20 -12.5 -40t-16 -40.5l-18.5 -44.5z" />
    <glyph glyph-name="uni0469" unicode="&#x469;" 
d="M55 0v537h76v-226h148l69 226h90l158 -537h-81l-66 238h-23v-238h-72v238h-23l-65 -238h-77l72 249h-130v-249h-76zM348 297h85l-25 92l-10 38.5t-6 31.5h-2q-3 -16 -7 -31l-11 -40z" />
    <glyph glyph-name="uni046A" unicode="&#x46a;" 
d="M6 0l58 223q16 59 33 98.5t45 61t74 26.5l-148 250v55h463v-55l-150 -250q45 -5 73.5 -27t47.5 -61.5t33 -96.5l58 -224h-92l-51 216q-11 47 -24 74t-33 39.5t-53 13.5v-343h-82v343q-33 -1 -53.5 -13.5t-33 -40t-23.5 -74.5l-50 -215h-92zM299 419l127 223h-252z" />
    <glyph glyph-name="uni046B" unicode="&#x46b;" 
d="M1 0l60 164q15 40 31 71.5t45 51.5t80 25l-155 173v51h475v-51l-154 -173q52 -5 80 -24.5t44 -51t31 -72.5l60 -164h-84l-60 162q-12 34 -25 53t-33.5 27.5t-56.5 8.5v-251h-78v251q-38 0 -58.5 -8t-32.5 -27.5t-25 -53.5l-61 -162h-83zM300 313l131 151h-263z" />
    <glyph glyph-name="uni046C" unicode="&#x46c;" horiz-adv-x="1200" 
d="M137 0v714h90v-302h437l-216 236v66h615v-66l-223 -241q76 -4 118 -27t64.5 -63t39.5 -96l67 -221h-89l-67 219q-15 49 -32.5 74.5t-49 35t-90.5 9.5v-338h-91v338q-59 0 -91 -11t-48 -36.5t-30 -71.5l-65 -219h-94l70 225q14 44 26.5 69t28.5 39h-280v-333h-90zM756 417
l198 216h-397z" />
    <glyph glyph-name="uni046D" unicode="&#x46d;" horiz-adv-x="1200" 
d="M145 0v536h86v-223h421l-181 162v61h558v-61l-186 -164q52 -4 83.5 -16t50 -31t30 -44.5t23.5 -55.5l63 -164h-88l-63 162q-10 25 -20 42t-25.5 27t-40.5 14.5t-65 4.5v-250h-81v250q-40 0 -65.5 -4.5t-41 -14.5t-25.5 -27t-20 -42l-64 -162h-87l63 164q9 24 19 44t21 32
h-279v-240h-86zM750 316l165 148h-329z" />
    <glyph glyph-name="uni046E" unicode="&#x46e;" 
d="M524 -214q-11 8 -36.5 16.5t-81.5 8.5q-22 0 -52 -1t-60 -2.5t-54 -1.5q-78 0 -120.5 16t-59 44.5t-16.5 64.5q0 37 13.5 62t41 40t69 23t97.5 12q29 2 59.5 6t57 16.5t43 38t16.5 70.5q0 73 -50 103.5t-149 30.5h-101v75h87q74 0 118 15.5t63 44t19 66.5q0 65 -38.5 92
t-105.5 27q-56 0 -96.5 -17t-75.5 -43l-42 60q34 23 70 41t89 25l-37 41.5l-39 41.5l-33 34v13h64q24 -16 54 -42.5t55 -52.5l41 47t46.5 37.5t56.5 14.5q14 0 26.5 -2.5t20.5 -4.5v-57q-6 2 -15.5 4t-17.5 2q-25 0 -51 -21t-49 -54q78 -11 121.5 -57t43.5 -118
q0 -45 -17.5 -80t-53 -58t-89.5 -31v-4q98 -13 137 -58t39 -117q0 -55 -17.5 -91t-46.5 -58t-64 -33t-71 -15.5t-66 -6.5q-38 -2 -68 -6.5t-46.5 -16t-16.5 -37.5q0 -30 25 -39.5t74 -9.5q27 0 58 1.5l62 3t58 1.5q47 0 72 -5.5t39 -13.5v-85z" />
    <glyph glyph-name="uni046F" unicode="&#x46f;" 
d="M505 -194q-14 10 -40.5 15.5t-56.5 5.5q-20 0 -53.5 -2l-69 -4t-62.5 -2q-67 0 -105 16t-53.5 43t-15.5 61q0 43 18.5 68t50 37.5t69.5 17t77 6.5q43 2 78.5 7t56.5 22.5t21 54.5q0 46 -38 70t-131 24h-66v69h58q77 0 117 21t40 65q0 38 -30.5 56.5t-93.5 18.5
q-46 0 -83 -9t-69 -24l-31 64q29 14 63.5 23.5t71.5 13.5q-24 30 -50.5 58t-44.5 45v13h64q24 -17 50 -41l54 -51q19 23 40 45t47 36.5t57 14.5q14 0 27 -2.5t20 -4.5v-57q-6 2 -15 3.5t-17 1.5q-22 0 -45.5 -15.5t-51.5 -50.5q59 -14 90 -48t31 -83q0 -46 -28.5 -76.5
t-86.5 -44.5v-4q39 -8 70 -23.5t49.5 -43t18.5 -71.5q0 -48 -21 -77t-55 -44t-74.5 -20.5t-78.5 -7.5q-60 -3 -92 -6.5t-44.5 -13t-12.5 -31.5q0 -29 21.5 -41.5t79.5 -12.5q31 0 62 2.5t61.5 4.5t56.5 2q37 0 60 -5.5t35 -14.5v-74z" />
    <glyph glyph-name="uni0470" unicode="&#x470;" 
d="M259 0v213q-83 0 -131 30.5t-68 89t-20 140.5v241h84v-235q0 -56 9 -99t38 -67.5t88 -24.5v426h82v-426q50 1 79.5 19.5t42.5 60.5t13 111v235h84v-253q0 -75 -21 -131t-69 -86.5t-129 -30.5v-213h-82z" />
    <glyph glyph-name="uni0471" unicode="&#x471;" 
d="M269 -240v231q-58 2 -100.5 31t-65.5 86.5t-23 142.5v286h83v-282q0 -91 25.5 -138t80.5 -52v695h79v-695q60 5 86.5 59t26.5 164q0 61 -7.5 123t-23.5 126h82q17 -70 25 -130.5t8 -116.5q0 -99 -23 -164.5t-67 -98t-107 -36.5v-231h-79z" />
    <glyph glyph-name="uni0472" unicode="&#x472;" 
d="M91 321v78h418v-78h-418zM299 -10q-67 0 -115 26.5t-79 75t-45.5 116t-14.5 149.5q0 110 26.5 193t83 129.5t145.5 46.5q67 0 115 -26t79 -75t46 -116t15 -150t-15 -151t-46 -116.5t-79.5 -75t-115.5 -26.5zM301 70q60 0 95.5 34.5t51 99t15.5 154.5q0 136 -36 212
t-125 76q-60 0 -96.5 -34.5t-52.5 -99t-16 -154.5t16 -154.5t52 -99t96 -34.5z" />
    <glyph glyph-name="uni0473" unicode="&#x473;" 
d="M94 233v78h418v-78h-418zM301 -10q-52 0 -97 17t-78.5 52t-52 87.5t-18.5 123.5q0 93 31.5 154t86.5 91.5t125 30.5t126 -30.5t88.5 -92t32.5 -156.5q0 -70 -18.5 -122t-51 -86.5t-77 -51.5t-97.5 -17zM300 63q52 0 86 25t51 71.5t17 109.5q0 64 -17 109.5t-51.5 70
t-86.5 24.5q-78 0 -116.5 -54.5t-38.5 -149.5q0 -63 17.5 -109.5t52 -71.5t86.5 -25z" />
    <glyph glyph-name="uni0474" unicode="&#x474;" 
d="M226 0l-227 714h94l139 -457q10 -32 18 -61l15 -54.5t12 -49.5q5 25 11.5 53t15 59t16.5 64l64 253q19 73 38.5 116.5t48 63t72.5 19.5q20 0 33.5 -2.5t23.5 -5.5v-74q-8 3 -19 5.5t-25 2.5q-23 0 -37 -14t-24.5 -43.5t-23.5 -76.5l-142 -512h-103z" />
    <glyph glyph-name="uni0475" unicode="&#x475;" 
d="M225 0l-218 536h92l139 -355q17 -41 27.5 -72.5t14.5 -46.5h4q6 20 18.5 56.5l24.5 70.5l78 218q19 52 36 81t42.5 41t66.5 12q12 0 22 -2t19 -4v-68q-6 2 -15.5 3.5t-18.5 1.5q-30 0 -44 -20t-30 -62l-146 -390h-112z" />
    <glyph glyph-name="uni0476" unicode="&#x476;" 
d="M226 0l-227 714h94l139 -457q10 -32 18 -61l15 -54.5t12 -49.5q5 25 11.5 53t15 59t16.5 64l64 253q19 73 38.5 116.5t48 63t72.5 19.5q20 0 33.5 -2.5t23.5 -5.5v-74q-8 3 -19 5.5t-25 2.5q-23 0 -37 -14t-24.5 -43.5t-23.5 -76.5l-142 -512h-103zM379 784
q-17 14 -36.5 33.5t-39 41.5t-34.5 42t-23 33v10h97l25.5 -49.5t30.5 -53.5t30 -45v-12h-50zM203 784q-17 14 -36.5 33.5t-39 41.5t-34.5 42t-23 33v10h97l25.5 -49.5t30.5 -53.5t30 -45v-12h-50z" />
    <glyph glyph-name="uni0477" unicode="&#x477;" 
d="M225 0l-218 536h92l139 -355q17 -41 27.5 -72.5t14.5 -46.5h4q6 20 18.5 56.5l24.5 70.5l78 218q19 52 36 81t42.5 41t66.5 12q12 0 22 -2t19 -4v-68q-6 2 -15.5 3.5t-18.5 1.5q-30 0 -44 -20t-30 -62l-146 -390h-112zM372 606q-17 14 -36.5 33.5t-39 41.5t-34.5 42
t-23 33v10h97l25.5 -49.5t30.5 -53.5t30 -45v-12h-50zM196 606q-17 14 -36.5 33.5t-39 41.5t-34.5 42t-23 33v10h97l25.5 -49.5t30.5 -53.5t30 -45v-12h-50z" />
    <glyph glyph-name="uni0478" unicode="&#x478;" horiz-adv-x="1200" 
d="M299 -10q-67 0 -115 26.5t-79 75t-45.5 116t-14.5 149.5q0 110 26.5 193t83 129.5t145.5 46.5q67 0 115 -26t79 -75t46 -116t15 -150t-15 -151t-46 -116.5t-79.5 -75t-115.5 -26.5zM301 70q60 0 95.5 34.5t51 99t15.5 154.5q0 136 -36 212t-125 76q-60 0 -96.5 -34.5
t-52.5 -99t-16 -154.5t16 -154.5t52 -99t96 -34.5zM736 -245q-20 0 -39 2.5t-33 5.5v69q12 -2 28.5 -4t32.5 -2q31 0 51.5 10t36 31t28.5 55l29 73l-225 541h88l128 -315q13 -31 25.5 -69t22.5 -73h3q7 25 15 49.5l15.5 48.5l14.5 45l105 314h92l-225 -606
q-19 -52 -41.5 -91.5t-58 -61.5t-93.5 -22z" />
    <glyph glyph-name="uni0479" unicode="&#x479;" horiz-adv-x="1200" 
d="M301 -10q-52 0 -97 17t-78.5 52t-52 87.5t-18.5 123.5q0 93 31.5 154t86.5 91.5t125 30.5t126 -30.5t88.5 -92t32.5 -156.5q0 -70 -18.5 -122t-51 -86.5t-77 -51.5t-97.5 -17zM300 63q52 0 86 25t51 71.5t17 109.5q0 64 -17 109.5t-51.5 70t-86.5 24.5
q-78 0 -116.5 -54.5t-38.5 -149.5q0 -63 17.5 -109.5t52 -71.5t86.5 -25zM736 -245q-20 0 -39 2.5t-33 5.5v69q12 -2 28.5 -4t32.5 -2q31 0 51.5 10t36 31t28.5 55l29 73l-225 541h88l128 -315q13 -31 25.5 -69t22.5 -73h3q7 25 15 49.5l15.5 48.5l14.5 45l105 314h92
l-225 -606q-19 -52 -41.5 -91.5t-58 -61.5t-93.5 -22z" />
    <glyph glyph-name="uni047A" unicode="&#x47a;" 
d="M299 -10q-67 0 -115 26.5t-79 75t-45.5 116t-14.5 149.5q0 110 26.5 193t83 129.5t145.5 46.5q67 0 115 -26t79 -75t46 -116t15 -150t-15 -151t-46 -116.5t-79.5 -75t-115.5 -26.5zM301 63q64 0 101 35.5t53.5 101.5t16.5 158q0 93 -16 159t-53.5 101t-100.5 35
q-64 0 -102 -35.5t-55 -101.5t-17 -158t17 -158t55 -101.5t101 -35.5zM301 600q-31 0 -44.5 24.5t-13.5 58.5q0 35 13.5 59t44.5 24t44 -24t13 -59q0 -34 -13 -58.5t-44 -24.5zM301 -48q-31 0 -44.5 24.5t-13.5 58.5q0 35 13.5 59t44.5 24t44 -24t13 -59q0 -34 -13 -58.5
t-44 -24.5z" />
    <glyph glyph-name="uni047B" unicode="&#x47b;" 
d="M301 -10q-52 0 -97 17t-78.5 52t-52 87.5t-18.5 123.5q0 93 31.5 154t86.5 91.5t125 30.5t126 -30.5t88.5 -92t32.5 -156.5q0 -70 -18.5 -122t-51 -86.5t-77 -51.5t-97.5 -17zM300 59q53 0 88 25.5t52 73t17 111.5q0 65 -17.5 111t-52.5 71t-88 25q-80 0 -119.5 -55
t-39.5 -152q0 -64 17.5 -111.5t53 -73t89.5 -25.5zM301 426q-31 0 -44.5 24.5t-13.5 58.5q0 35 13.5 59t44.5 24t44 -24t13 -59q0 -34 -13 -58.5t-44 -24.5zM301 -48q-31 0 -44.5 24.5t-13.5 58.5q0 35 13.5 59t44.5 24t44 -24t13 -59q0 -34 -13 -58.5t-44 -24.5z" />
    <glyph glyph-name="uni047C" unicode="&#x47c;" 
d="M133 911v15q0 27 8 47t22.5 33.5t35.5 20t48 6.5q29 0 56 -9t56 -20t61.5 -20t70.5 -9h6v-62h-8q-42 0 -77.5 8.5t-64.5 19l-53 19t-45 8.5q-25 0 -38.5 -14t-13.5 -43h-64zM238 752v36q29 9 44 21t15 25q0 10 -7.5 14.5t-17 8t-17 10.5t-7.5 20q0 19 13 28.5t35 9.5
q28 0 44.5 -17t16.5 -46q0 -26 -13.5 -47.5t-40 -37.5t-65.5 -25zM194 -10q-37 0 -67.5 20t-52 63.5t-33 115.5t-11.5 175q0 87 11 154.5t32.5 113t54.5 69t76 23.5q24 0 42 -6t34 -15l-23 -68q-11 8 -23 12.5t-23 4.5q-34 0 -55.5 -34.5t-31.5 -99.5t-10 -158
q0 -86 6.5 -143.5t18 -91t28 -48t37.5 -14.5q17 0 30.5 6.5t24.5 17.5v235h83v-234q11 -12 24 -18.5t32 -6.5q22 0 38.5 14.5t28 48t17 91t5.5 143.5q0 93 -9 158t-29 99.5t-54 34.5q-14 0 -26.5 -4.5t-23.5 -12.5l-23 68q18 10 38 15.5t46 5.5q44 0 75.5 -24t51.5 -70.5
t29.5 -113.5t9.5 -152q0 -104 -12 -175.5t-34 -115.5t-53 -63.5t-70 -19.5q-35 0 -58.5 11.5t-44.5 31.5q-21 -20 -47 -31.5t-59 -11.5z" />
    <glyph glyph-name="uni047D" unicode="&#x47d;" 
d="M127 760v15q0 27 7.5 46.5t22.5 33t36 20t48 6.5q29 0 56 -8.5t56 -20t61 -20t70 -8.5h7v-63h-8q-43 0 -78 8.5t-64 19.5l-53 19.5t-45 8.5q-25 0 -38.5 -13.5t-13.5 -43.5h-64zM232 601v35q29 10 43.5 22.5t14.5 25.5q0 10 -7 14.5t-16.5 8t-17 10t-7.5 19.5
q0 19 12.5 28.5t35.5 9.5q28 0 44.5 -17t16.5 -46q0 -26 -13.5 -48t-40 -37.5t-65.5 -24.5zM192 -10q-42 0 -70.5 22t-46 61t-25.5 89.5t-8 106.5q0 91 17.5 152.5t52 93.5t86.5 32q21 0 41 -5.5t39 -16.5l-23 -64q-10 7 -22 11t-24 4q-28 0 -47 -22.5t-28 -68t-9 -115.5
q0 -40 4 -77.5t13 -67.5t24 -47.5t37 -17.5q14 0 28.5 6.5t28.5 19.5v204h80v-204q14 -13 28 -19.5t27 -6.5q25 0 43 24.5t27.5 71.5t9.5 114q0 70 -9.5 115.5t-28 68t-47.5 22.5q-12 0 -23.5 -4t-22.5 -11l-23 64q20 11 39.5 16.5t40.5 5.5q52 0 87 -32t52.5 -93.5
t17.5 -152.5q0 -136 -38.5 -207.5t-113.5 -71.5q-31 0 -57.5 12t-48.5 36q-22 -24 -49 -36t-59 -12z" />
    <glyph glyph-name="uni047E" unicode="&#x47e;" 
d="M137 783l-39 84v16h404v-16l-40 -84h-16l-24 50h-91l-24 -50h-16l-24 50h-90l-24 -50h-16zM124 0q-29 82 -49 167t-33 174.5t-20 182.5t-10 190h78q3 -91 9.5 -175.5t16 -159.5t22 -139.5t26.5 -115.5h3l12.5 60.5t16.5 71.5l65 262q-4 52 -7 100t-4 96h82
q0 -64 5.5 -130t14.5 -130t20.5 -124.5t24 -114.5t24.5 -99h2q13 44 23 94.5t18 107t13.5 119t8.5 132t4 145.5h77q-1 -136 -12 -260.5t-34.5 -237.5t-63.5 -216h-73q-20 53 -38.5 115t-32.5 126t-22 122l-88 -363h-79z" />
    <glyph glyph-name="uni047F" unicode="&#x47f;" 
d="M137 605l-39 84v16h404v-16l-40 -84h-16l-24 50h-91l-24 -50h-16l-24 50h-90l-24 -50h-16zM124 0q-38 82 -61.5 168.5t-35 178.5t-15.5 189h75q3 -69 10 -131.5t17.5 -118.5t23.5 -104t27 -87h3l12.5 44t16.5 52l66 201q-4 38 -7 73t-4 71h80q0 -60 8 -121.5t21.5 -120
t29 -110.5t30.5 -94h2q16 41 28.5 89.5t21.5 103.5t14 118.5t6 134.5h74q-1 -102 -12 -195.5t-34.5 -178.5t-63.5 -162h-71q-20 39 -38.5 85.5t-33 95t-23.5 91.5l-90 -272h-77z" />
    <glyph glyph-name="uni0480" unicode="&#x480;" 
d="M387 -10q-112 0 -183 47t-104.5 129.5t-33.5 190.5q0 85 20 152.5t59 115.5t95 73.5t129 25.5q49 0 96 -11t85 -31l-36 -73q-31 17 -69.5 26t-75.5 9q-51 0 -90.5 -19t-66 -55.5t-40.5 -90t-14 -122.5q0 -88 24 -152t75 -98t132 -34q22 0 46 3t49 9v-84q-24 -5 -47.5 -8
t-49.5 -3zM394 -240v250l90 58v-308h-90z" />
    <glyph glyph-name="uni0481" unicode="&#x481;" 
d="M350 -240v230q-127 0 -196 66.5t-69 208.5q0 99 32 161t92 91t144 29q47 0 87 -11.5t65 -24.5l-27 -74q-25 14 -56.5 23t-73.5 9q-57 0 -95 -21.5t-57 -66t-19 -114.5t19 -114.5t56 -65.5t90 -21q32 0 54 6t42 15v-326h-88z" />
    <glyph glyph-name="uni0482" unicode="&#x482;" 
d="M162 -2l-60 33l89 156l-140 81l33 57l141 -82l99 173l-141 81l34 58l140 -82l90 155l59 -34l-90 -155l141 -81l-34 -57l-139 81l-100 -172l140 -82l-33 -57l-140 81z" />
    <glyph glyph-name="uni0488" unicode="&#x488;" horiz-adv-x="0" 
d="M-89 579q2 40 22.5 63t62.5 23q39 0 61 -24t24 -62h-32q-3 25 -18 35.5t-35 10.5q-25 0 -38.5 -10t-15.5 -36h-31zM81 422q2 40 22.5 63.5t61.5 23.5q40 0 62 -24.5t24 -62.5h-32q-2 26 -18 36.5t-36 10.5q-25 0 -38 -10t-15 -37h-31zM131 236q2 40 22.5 63t61.5 23
q40 0 61.5 -24t23.5 -62h-32q-2 26 -17.5 36t-35.5 10q-25 0 -38.5 -9.5t-15.5 -36.5h-30zM81 44q2 40 22.5 63.5t61.5 23.5q40 0 62 -24.5t24 -62.5h-32q-2 26 -18 36t-36 10q-25 0 -38 -9.5t-15 -36.5h-31zM-89 -109q2 39 22.5 62.5t62.5 23.5q39 0 61 -24t24 -62h-32
q-3 25 -18 35.5t-35 10.5q-25 0 -38.5 -10t-15.5 -36h-31zM-256 44q2 40 22 63.5t62 23.5q39 0 61 -24.5t25 -62.5h-33q-1 26 -17 36t-36 10q-25 0 -38 -9.5t-16 -36.5h-30zM-301 236q2 40 22.5 63t61.5 23q40 0 62 -24t24 -62h-32q-2 26 -17.5 36t-36.5 10
q-24 0 -37.5 -9.5t-15.5 -36.5h-31zM-256 422q2 40 22 63.5t62 23.5q39 0 61 -24.5t25 -62.5h-33q-1 26 -17 36.5t-36 10.5q-25 0 -38 -10t-16 -37h-30z" />
    <glyph glyph-name="uni0489" unicode="&#x489;" horiz-adv-x="0" 
d="M217 449l-48 48l1 8q23 13 49.5 26.5t54.5 25.5t54 22l34 -33l-76 -48.5t-69 -48.5zM-328 -60l-34 33l76 49t69 48l48 -48l-1 -8q-22 -13 -49 -26l-55 -25.5t-54 -22.5zM-294 216q-37 10 -81.5 26.5t-82.5 33.5v47q41 -10 88 -19.5t83 -14.5v-68zM-53 -188q10 41 19.5 88
t14.5 83h68l5 -7q-10 -37 -26.5 -81.5t-33.5 -82.5h-47zM286 -103l-48.5 76t-48.5 69l48 48l8 -1q13 -22 26.5 -49t25.5 -55t22 -54zM-238 428l-8 1q-19 34 -39 76.5t-35 81.5l33 34l49 -76t48 -69zM458 216q-41 10 -88 19.5t-83 14.5v68l7 5q25 -6 53.5 -16l57 -21
t53.5 -23v-47zM-48 557l-5 7q7 25 16.5 53.5t21 57l22.5 53.5h47q-10 -41 -19.5 -88t-14.5 -83h-68z" />
    <glyph glyph-name="uni048A" unicode="&#x48a;" 
d="M440 -188l67 188h-34v71h127l-72 -259h-88zM70 0v714h83v-409q0 -19 -0.5 -41.5t-1.5 -45.5l-2 -45t-2 -41h4l277 582h102v-714h-83v413q0 21 0.5 45t1.5 47.5t2.5 44.5t2.5 37h-4l-279 -587h-101zM297 767q-71 0 -110.5 38t-41.5 96h58q7 -30 22.5 -45t35.5 -20.5
t39 -5.5q31 0 59.5 13.5t37.5 57.5h59q-1 -58 -42.5 -96t-116.5 -38z" />
    <glyph glyph-name="uni048B" unicode="&#x48b;" 
d="M447 -185l61 185h-30l3 74h119l-63 -259h-90zM80 0v537h81v-314q0 -12 -0.5 -27t-1.5 -32t-1.5 -32.5t-1.5 -29.5l264 435h100v-537h-80v305q0 18 0.5 41.5t1.5 47.5t2 41l-264 -435h-100zM297 606q-71 0 -110.5 38t-41.5 96h58q7 -30 22.5 -45t35.5 -20.5t39 -5.5
q31 0 59.5 13.5t37.5 57.5h59q-1 -58 -42.5 -96t-116.5 -38z" />
    <glyph glyph-name="uni048C" unicode="&#x48c;" 
d="M13 546v78h338v-78h-338zM95 0v714h87v-300h125q84 0 136.5 -25t77 -70.5t24.5 -108.5q0 -97 -58.5 -153.5t-172.5 -56.5h-219zM182 76h127q73 0 110 33.5t37 100.5q0 46 -17 74t-51 41t-86 13h-120v-262z" />
    <glyph glyph-name="uni048D" unicode="&#x48d;" 
d="M97 0v574h-76v67h76v119h88v-119h148v-67h-148v-258h143q111 0 164.5 -38.5t53.5 -113.5q0 -50 -22.5 -87t-71 -57t-126.5 -20h-229zM185 71h137q60 0 98 20t38 68t-35 65.5t-103 17.5h-135v-171z" />
    <glyph glyph-name="uni048E" unicode="&#x48e;" 
d="M480 203l-170 227l55 42l166 -226zM95 0v714h204q128 0 187 -54.5t59 -154.5q0 -59 -24.5 -112t-81 -85.5t-153.5 -32.5h-101v-275h-90zM185 353h91q59 0 98.5 15t59 47.5t19.5 84.5q0 74 -39.5 105t-122.5 31h-106v-283z" />
    </font>
</defs>
</svg>
