<?xml version="1.0" standalone="no"?>
<!DOCTYPE svg PUBLIC "-//W3C//DTD SVG 1.1//EN" "http://www.w3.org/Graphics/SVG/1.1/DTD/svg11.dtd" >
<svg xmlns="http://www.w3.org/2000/svg">
<metadata></metadata>
<defs>
<font id="textablack_italic" horiz-adv-x="1060" >
<font-face units-per-em="2048" ascent="1638" descent="-410" />
<missing-glyph horiz-adv-x="405" />
<glyph horiz-adv-x="0" />
<glyph horiz-adv-x="682" />
<glyph horiz-adv-x="0" />
<glyph horiz-adv-x="0" />
<glyph unicode="&#xd;" horiz-adv-x="215" />
<glyph unicode=" "  horiz-adv-x="405" />
<glyph unicode="&#x09;" horiz-adv-x="405" />
<glyph unicode="&#xa0;" horiz-adv-x="405" />
<glyph unicode="!" horiz-adv-x="501" d="M408 438h-193l39 791h336zM98 135q0 79 59.5 137t139.5 58q65 0 108.5 -44.5t43.5 -109.5q0 -78 -61 -135t-140 -57q-66 0 -108 43t-42 108z" />
<glyph unicode="&#x22;" horiz-adv-x="720" d="M391 973h-172l84 428h248zM721 973h-172l84 428h248z" />
<glyph unicode="#" horiz-adv-x="1376" d="M1196 901h248l-64 -168h-245l-99 -270h250l-63 -168h-248l-107 -295h-180l107 295h-273l-106 -295h-180l106 295h-242l62 168h241l99 270h-244l61 168h244l107 293h180l-107 -293h273l106 293h181zM584 463h272l98 270h-272z" />
<glyph unicode="$" horiz-adv-x="1107" d="M272 365q14 -10 38 -26t93 -47.5t132 -41.5l34 242l-12 4q-179 56 -267.5 133t-88.5 202q0 175 122.5 292t352.5 130l31 213h120l-30 -213q80 -4 148.5 -19t109.5 -33.5t70.5 -36t40.5 -28.5l12 -12l-195 -241q-10 9 -28.5 22.5t-77 40t-119.5 35.5l-29 -215 q187 -55 281 -136t94 -208q0 -84 -31 -160.5t-90 -138.5t-154 -101.5t-213 -46.5l-26 -194h-121l27 196q-81 6 -154 24.5t-119 41t-80.5 44t-49.5 35.5l-15 15zM549 885q0 -50 63 -78l25 172q-88 -16 -88 -94zM748 362q0 50 -64 84l-29 -194q45 10 69 39t24 71z" />
<glyph unicode="%" horiz-adv-x="1394" d="M530 1255q118 0 184 -75t66 -185q0 -88 -40.5 -165.5t-118.5 -127t-175 -49.5q-116 0 -182.5 76t-66.5 186q0 137 94 238.5t239 101.5zM1470 1229l-1148 -1229h-234l1153 1229h229zM508 1100q-119 0 -119 -185q0 -104 80 -104q119 0 119 182q0 107 -80 107zM1124 586 q118 0 184 -75t66 -185q0 -88 -40.5 -165.5t-118.5 -127t-175 -49.5q-116 0 -182.5 76t-66.5 186q0 137 94 238.5t239 101.5zM1104 430q-121 0 -121 -184q0 -105 80 -105q119 0 119 183q0 106 -78 106z" />
<glyph unicode="&#x26;" horiz-adv-x="1353" d="M1360 618q-60 -204 -215 -372l219 -246h-401l-56 63q-157 -83 -323 -83q-235 0 -347 86.5t-112 236.5q0 72 21.5 131.5t63.5 104t86.5 75.5t106.5 62l-14 18q-76 100 -76 207q0 148 123.5 251t327.5 103q169 0 265.5 -77t96.5 -201q0 -72 -23.5 -131.5t-69 -104 t-93.5 -75.5t-115 -62l144 -162q78 106 118 240zM602 901q0 -43 66 -121q80 32 121.5 64.5t41.5 79.5q0 41 -25 65.5t-75 24.5q-64 0 -96.5 -33.5t-32.5 -79.5zM627 231q59 0 123 25l-189 229q-104 -66 -104 -139q0 -50 43 -82.5t127 -32.5z" />
<glyph unicode="'" horiz-adv-x="393" d="M393 973h-174l84 428h248z" />
<glyph unicode="(" horiz-adv-x="616" d="M444 588q-18 -141 -12 -250t29 -187.5t47.5 -128.5t44.5 -74l20 -24l-223 -205q-4 3 -10.5 10t-26 31t-37.5 52t-42 73.5t-43 95t-36 117.5t-25.5 140t-7 163t14.5 187q17 122 51.5 236t76 198.5t88 158.5t89.5 123.5t77.5 85t55.5 52.5l21 16l166 -205 q-10 -8 -27.5 -23.5t-64.5 -74.5t-86.5 -128.5t-80.5 -188t-59 -250.5z" />
<glyph unicode=")" horiz-adv-x="618" d="M350 741q0 100 -14.5 189.5t-36 146t-42.5 98.5t-35 60l-15 18l223 205q9 -9 24.5 -27t55 -82.5t69.5 -139t55 -196.5t25 -255q0 -114 -16 -222.5t-43.5 -195.5t-63 -167t-75 -141t-78.5 -113.5t-74.5 -88.5t-63 -61.5t-43.5 -37.5l-16 -12l-166 205q7 5 19 15t46 46 t65.5 78.5t69.5 113.5t65 149.5t46 187.5t19 227z" />
<glyph unicode="*" horiz-adv-x="790" d="M451 1085l-230 41l80 174l203 -108l2 242h180l-72 -244l238 110l31 -174l-242 -41l145 -180l-163 -104l-86 215l-146 -215l-133 104z" />
<glyph unicode="+" horiz-adv-x="1019" d="M729 721h326l-33 -238h-326l-45 -317h-237l45 317h-326l33 238h326l47 334h237z" />
<glyph unicode="," horiz-adv-x="471" d="M45 -100q113 24 141 86q-44 11 -72 48.5t-28 88.5q0 76 56 131t132 55q70 0 113.5 -49.5t30.5 -116.5l-2 -8v-2q-10 -65 -37 -126.5t-69.5 -114t-105 -91t-136.5 -53.5z" />
<glyph unicode="-" horiz-adv-x="761" d="M176 588h574l-33 -238h-574z" />
<glyph unicode="." horiz-adv-x="464" d="M229 -20q-63 0 -103 40.5t-40 102.5q0 76 56 131t132 55q63 0 104.5 -42t41.5 -105q0 -74 -57.5 -128t-133.5 -54z" />
<glyph unicode="/" horiz-adv-x="1286" d="M8 -229l1174 1833h288l-1173 -1833h-289z" />
<glyph unicode="0" horiz-adv-x="1290" d="M641 -29q-123 0 -218.5 43.5t-153.5 119.5t-87.5 172t-29.5 208q0 113 27.5 221t83.5 202t134.5 165t187.5 112t236 41q124 0 220 -43t154.5 -118.5t88 -171t29.5 -207.5q0 -113 -27.5 -220.5t-83.5 -202.5t-134.5 -166.5t-188.5 -113t-238 -41.5zM682 258q152 0 237 121 t85 311q0 130 -56.5 205.5t-165.5 75.5q-153 0 -237 -121t-84 -311q0 -130 56 -205.5t165 -75.5z" />
<glyph unicode="1" horiz-adv-x="700" d="M205 1229h547l-174 -1229h-297l137 973h-250z" />
<glyph unicode="2" horiz-adv-x="1085" d="M117 215l516 432q66 54 95.5 95t29.5 100q0 55 -39.5 92t-110.5 37q-69 0 -132.5 -27.5t-145.5 -89.5l-123 238q7 7 20 18t58 39t95.5 49.5t131.5 39t166 17.5q206 0 321 -101.5t115 -250.5q0 -107 -42.5 -200.5t-151.5 -182.5l-322 -264h436l-37 -256h-911z" />
<glyph unicode="3" horiz-adv-x="1069" d="M387 532l27 179l280 262h-461l35 256h852l-28 -211l-293 -275q126 -27 190 -105.5t64 -199.5q0 -93 -36 -175.5t-105 -148.5t-182.5 -104.5t-256.5 -38.5q-83 0 -156 17.5t-117.5 42t-77 49t-46.5 42.5l-13 17l183 217q4 -5 12 -12.5t34 -27t54.5 -34.5t72 -27.5 t87.5 -12.5q109 0 166 47.5t57 120.5q0 122 -184 122h-158z" />
<glyph unicode="4" horiz-adv-x="1193" d="M106 473l736 756h284l-102 -721h178l-35 -254h-178l-35 -254h-297l35 254h-616zM465 508h262l47 326l-254 -267q-14 -15 -27 -27t-19 -17l-7 -5z" />
<glyph unicode="5" d="M553 973l-31 -189q58 4 90 4q451 0 451 -329q0 -99 -36 -185.5t-106.5 -155t-184.5 -108t-259 -39.5q-81 0 -153 17.5t-116.5 42t-78 49t-47.5 42.5l-14 17l180 215q4 -5 12 -12.5t34.5 -26.5t55 -34t72.5 -27t88 -12q110 0 167.5 44t57.5 115q0 65 -58 105.5t-190 40.5 q-68 0 -134 -8.5t-98 -17.5l-32 -9l-22 14l116 703h775l-35 -256h-504z" />
<glyph unicode="6" horiz-adv-x="1161" d="M520 709q34 36 100.5 56.5t137.5 20.5q184 0 291.5 -85.5t107.5 -243.5q0 -143 -77.5 -254.5t-203 -169.5t-274.5 -58q-97 0 -177.5 27.5t-144 84t-99.5 151.5t-36 221q0 218 75.5 394t223 281t342.5 105q81 0 151.5 -14.5t114 -35.5t75 -42.5t44.5 -36.5l13 -14 l-193 -240q-60 58 -110.5 80t-130.5 22q-93 0 -151 -52t-73 -154zM676 557q-82 0 -141.5 -48t-59.5 -128q0 -62 41 -100.5t115 -38.5q90 0 145 50.5t55 125.5q0 61 -41 100t-114 39z" />
<glyph unicode="7" horiz-adv-x="999" d="M225 1229h918l-29 -213l-659 -1016h-338l645 973h-572z" />
<glyph unicode="8" horiz-adv-x="1138" d="M565 -29q-210 0 -326 98t-116 250q0 104 49 187t141 137q-82 79 -82 209q0 81 32.5 152.5t94 128t161.5 89.5t226 33q204 0 308 -89t104 -228q0 -180 -153 -295q114 -77 114 -233q0 -90 -38.5 -170t-108.5 -139.5t-175 -94.5t-231 -35zM672 735q72 0 124 43t52 103 q0 51 -38.5 85.5t-98.5 34.5q-69 0 -121.5 -44.5t-52.5 -102.5q0 -50 38 -84.5t97 -34.5zM801 395q0 59 -43 98t-115 39q-83 0 -140 -50.5t-57 -119.5q0 -58 42 -97.5t112 -39.5q84 0 142.5 51t58.5 119z" />
<glyph unicode="9" horiz-adv-x="1161" d="M584 256q92 0 150 52t73 155l6 41q-40 -33 -104 -54.5t-134 -21.5q-184 0 -291.5 86t-107.5 244q0 86 29.5 163t81.5 134.5t121.5 99t152 63t170.5 21.5q97 0 177.5 -27.5t144 -83.5t99.5 -151t36 -221q0 -218 -75.5 -394.5t-223 -281.5t-342.5 -105q-81 0 -151.5 15 t-113.5 36t-74.5 42t-44.5 36l-13 15l192 239q60 -58 110 -80t132 -22zM858 838q0 59 -38 97t-118 38q-89 0 -144.5 -50.5t-55.5 -125.5q0 -61 41 -100.5t114 -39.5q89 0 145 55.5t56 125.5z" />
<glyph unicode=":" horiz-adv-x="505" d="M186 688q0 76 56.5 131t132.5 55q63 0 103 -42t40 -105q0 -74 -57 -128t-133 -54q-63 0 -102.5 40.5t-39.5 102.5zM106 123q0 76 56.5 131t132.5 55q63 0 104 -42t41 -105q0 -74 -57 -128t-133 -54q-63 0 -103.5 40.5t-40.5 102.5z" />
<glyph unicode=";" horiz-adv-x="507" d="M328 545q-63 0 -102.5 40.5t-39.5 102.5q0 76 56.5 131t132.5 55q63 0 103 -42t40 -105q0 -74 -57 -128t-133 -54zM66 -100q113 24 141 86q-45 11 -73 48.5t-28 88.5q0 76 56.5 131t132.5 55q70 0 113 -49.5t30 -116.5l-2 -8v-2q-10 -65 -37 -126.5t-69.5 -114t-105 -91 t-136.5 -53.5z" />
<glyph unicode="&#x3c;" horiz-adv-x="749" d="M172 733l602 311l-45 -321l-348 -111l315 -114l-45 -320l-512 318z" />
<glyph unicode="=" horiz-adv-x="913" d="M233 913h705l-33 -237h-704zM178 524h705l-33 -237h-705z" />
<glyph unicode="&#x3e;" horiz-adv-x="749" d="M750 496l-603 -318l46 320l348 114l-318 111l45 321l514 -311z" />
<glyph unicode="?" horiz-adv-x="931" d="M213 1133q5 5 15.5 13.5t47 30t78 37.5t107.5 29.5t137 13.5q180 0 288.5 -83t108.5 -224q0 -92 -33.5 -161t-83 -110t-101 -73t-95 -67.5t-55.5 -75.5l-13 -39h-237l8 61q7 51 29 92t50 65.5t59.5 50.5t57.5 47.5t43 54.5t17 73q0 46 -32 71.5t-93 25.5q-41 0 -86 -17 t-70 -34l-24 -17zM291 131q0 74 57 128t133 54q63 0 102.5 -40.5t39.5 -102.5q0 -76 -56.5 -131t-132.5 -55q-63 0 -103 42t-40 105z" />
<glyph unicode="@" horiz-adv-x="2029" d="M1505 104q-56 0 -102 11t-74.5 29t-50 39t-32 42.5t-17 39.5t-7.5 29l-1 11h-11q-14 -22 -30 -42t-46.5 -48t-64.5 -48.5t-82.5 -35t-101.5 -14.5q-142 0 -229 86.5t-87 234.5q0 125 44 234.5t117 184.5t168.5 118t197.5 43q181 0 223 -152l41 131h252l-115 -452 q-2 -7 -6.5 -23t-7 -26t-4.5 -29.5t-2 -42.5q0 -67 42 -107.5t111 -40.5q130 0 209.5 126.5t79.5 326.5q0 101 -26 197.5t-82 184.5t-135 154t-193.5 105t-249.5 39q-199 0 -381.5 -78t-312 -206.5t-206.5 -300t-77 -353.5q0 -206 93.5 -377t261.5 -270.5t376 -99.5 q72 0 145 12t125.5 29t94.5 34t63 29l21 12l34 -104q-8 -5 -22.5 -13.5t-64 -30.5t-103.5 -39t-138 -30.5t-171 -13.5q-189 0 -348.5 68.5t-265.5 184.5t-165 269.5t-59 323.5q0 209 86 404.5t233 342.5t356 235.5t441 88.5q178 0 330.5 -61.5t256.5 -166.5t163 -247.5 t59 -302.5q0 -174 -64.5 -319t-192.5 -235t-296 -90zM1020 401q88 0 146.5 67.5t58.5 156.5q0 112 -119 112q-85 0 -144 -62t-59 -155q0 -53 31 -86t86 -33z" />
<glyph unicode="A" horiz-adv-x="1224" d="M1243 0h-319l-45 221h-471l-107 -221h-319l641 1229h323zM520 455h311l-92 454z" />
<glyph unicode="B" horiz-adv-x="1228" d="M1217 406q0 -186 -135.5 -296t-374.5 -110h-580l172 1229h571q194 0 290.5 -75.5t96.5 -213.5q0 -95 -49.5 -172.5t-134.5 -122.5l-2 -16q71 -24 108.5 -83.5t37.5 -139.5zM934 866q0 46 -28.5 76.5t-76.5 30.5h-268l-35 -242h262q61 0 103.5 40t42.5 95zM496 510 l-35 -254h284q63 0 107.5 42t44.5 97q0 43 -28 77t-76 38h-297z" />
<glyph unicode="C" horiz-adv-x="1130" d="M1128 123q-6 -6 -18 -16.5t-53.5 -36.5t-88.5 -46t-123 -36.5t-157 -16.5q-174 0 -300.5 75.5t-188.5 200t-62 281.5q0 145 53 277.5t147 232t232 158.5t299 59q81 0 151.5 -15.5t114 -37.5t75 -43.5t44.5 -36.5l13 -16l-201 -227q-3 4 -8.5 10t-26.5 22t-45.5 28t-66 22 t-87.5 10q-145 0 -250.5 -99t-127.5 -258q-23 -159 54.5 -257.5t223.5 -98.5q46 0 89.5 9.5t73 23t52.5 27t34 22.5l11 10z" />
<glyph unicode="D" horiz-adv-x="1304" d="M1339 694q0 -144 -54.5 -272t-151 -221t-235 -147t-298.5 -54h-473l172 1229h473q263 0 415 -149t152 -386zM561 973l-100 -717h153q171 0 293.5 113.5t122.5 298.5q0 146 -87.5 225.5t-227.5 79.5h-154z" />
<glyph unicode="E" horiz-adv-x="1091" d="M995 506h-499l-35 -250h596l-37 -256h-893l172 1229h893l-35 -256h-596l-33 -234h500z" />
<glyph unicode="F" horiz-adv-x="1099" d="M995 504h-499l-72 -504h-297l172 1229h901l-35 -256h-604l-33 -236h500z" />
<glyph unicode="G" horiz-adv-x="1312" d="M762 731h612l-24 -178q-37 -263 -218.5 -421.5t-449.5 -158.5q-129 0 -233 43t-172 118.5t-104 175.5t-36 216q0 146 53.5 279t147 232.5t231.5 158.5t297 59q64 0 121.5 -8.5t99 -22t76.5 -30t57.5 -32.5t38.5 -29.5t23 -22.5l6 -8l-211 -230q-3 4 -9.5 10.5t-30 24 t-50.5 30.5t-72 23.5t-94 10.5q-155 0 -265 -116.5t-110 -293.5q0 -136 76.5 -219.5t198.5 -83.5t197.5 63t89.5 162l2 15h-281z" />
<glyph unicode="H" horiz-adv-x="1351" d="M1225 -2h-297l69 500h-503l-70 -500h-297l172 1231h297l-70 -498h504l70 498h297z" />
<glyph unicode="I" horiz-adv-x="550" d="M424 0h-297l172 1229h297z" />
<glyph unicode="J" horiz-adv-x="954" d="M207 330q7 -7 20.5 -18t60 -29.5t97.5 -18.5q103 0 156.5 54t70.5 174l105 737h295l-113 -799q-14 -91 -53 -170.5t-104 -145.5t-165.5 -104.5t-224.5 -38.5q-65 0 -122 12.5t-92 29.5t-60.5 34.5t-35.5 30.5l-11 12z" />
<glyph unicode="K" horiz-adv-x="1261" d="M524 715l537 514h362l-4 -27l-522 -500l358 -673l-4 -29h-317l-258 492l-211 -205l-41 -287h-297l172 1229h297z" />
<glyph unicode="L" horiz-adv-x="1028" d="M127 0l172 1229h297l-135 -973h549l-37 -256h-846z" />
<glyph unicode="M" horiz-adv-x="1495" d="M1171 678l-315 -352h-125l-215 354l-96 -680h-295l174 1229h240l307 -527l454 527h240l-170 -1229h-295z" />
<glyph unicode="N" horiz-adv-x="1368" d="M1241 0h-229l-490 717l-100 -717h-295l172 1229h229l492 -705l98 705h295z" />
<glyph unicode="O" horiz-adv-x="1376" d="M682 -29q-164 0 -289.5 76.5t-190.5 204t-65 283.5q0 143 56.5 275.5t153 230t231.5 156t284 58.5q166 0 292.5 -75.5t192.5 -202.5t66 -283q0 -143 -57 -276t-153.5 -231t-233 -157t-287.5 -59zM723 260q156 0 268.5 115t112.5 291q0 136 -78.5 219.5t-202.5 83.5 q-152 0 -264.5 -115.5t-112.5 -290.5q0 -135 78 -219t199 -84z" />
<glyph unicode="P" horiz-adv-x="1183" d="M842 1229q191 0 305.5 -101.5t114.5 -263.5q0 -205 -150.5 -333t-384.5 -128h-246l-57 -403h-297l172 1229h543zM952 838q0 66 -45 100.5t-121 34.5h-225l-45 -318h227q90 0 149.5 48.5t59.5 134.5z" />
<glyph unicode="Q" horiz-adv-x="1376" d="M682 -29q-164 0 -289.5 76.5t-190.5 204t-65 283.5q0 143 56.5 275.5t153 230t231.5 156t284 58.5q166 0 292.5 -75.5t192.5 -202.5t66 -283q0 -203 -109 -374.5t-292 -268.5l94 -254h-326l-55 176q-7 0 -21.5 -1t-21.5 -1zM723 260q156 0 268.5 115t112.5 291 q0 136 -78.5 219.5t-202.5 83.5q-152 0 -264.5 -115.5t-112.5 -290.5q0 -135 78 -219t199 -84z" />
<glyph unicode="R" horiz-adv-x="1228" d="M842 1229q190 0 305 -102t115 -263q0 -140 -76.5 -248t-208.5 -165l-4 -23l219 -408l-2 -20h-320l-198 403h-191l-57 -403h-297l172 1229h543zM952 838q0 66 -45 100.5t-121 34.5h-225l-45 -318h227q90 0 149.5 48.5t59.5 134.5z" />
<glyph unicode="S" horiz-adv-x="1091" d="M262 365q6 -5 18 -13t48 -28.5t72.5 -36t88 -28.5t97.5 -13q75 0 113 31t38 85q0 41 -40.5 71t-149.5 63q-179 56 -268 133t-89 202q0 187 137.5 305.5t395.5 118.5q94 0 174 -13.5t127.5 -32.5t81.5 -38.5t48 -32.5l13 -14l-194 -241q-5 4 -13.5 11t-38 24.5t-61 31 t-79.5 24.5t-97 11q-145 0 -145 -100q0 -39 39 -63.5t137 -53.5q189 -55 284 -136.5t95 -209.5q0 -88 -34 -167.5t-98.5 -143t-168.5 -101t-234 -37.5q-95 0 -180.5 17t-140 41t-95 48t-57.5 41l-18 17z" />
<glyph unicode="T" horiz-adv-x="1083" d="M221 1229h989l-36 -256h-347l-137 -973h-297l137 973h-346z" />
<glyph unicode="U" horiz-adv-x="1310" d="M651 -29q-162 0 -276.5 73.5t-162.5 200.5t-26 285l99 699h297l-99 -699q-18 -120 35.5 -195t173.5 -75q124 0 196.5 74t90.5 196l98 699h297l-98 -699q-35 -243 -205 -401t-420 -158z" />
<glyph unicode="V" horiz-adv-x="1224" d="M154 1229h319l182 -912l441 912h319l-641 -1229h-323z" />
<glyph unicode="W" horiz-adv-x="1636" d="M909 690l-301 -690h-229l-186 1229h325l64 -651l292 651h222l112 -656l252 656h328l-531 -1229h-229z" />
<glyph unicode="X" horiz-adv-x="1208" d="M918 629l272 -629h-361l-159 471l-64 -109l-225 -362h-358l442 629l-266 600h360l121 -342l33 -115l67 115l215 342h359z" />
<glyph unicode="Y" horiz-adv-x="1122" d="M993 1229h320l-537 -752l-65 -477h-297l65 473l-325 756h319l154 -373l37 -125l69 125z" />
<glyph unicode="Z" horiz-adv-x="1134" d="M92 223l713 750h-586l35 256h979l-33 -234l-698 -739h598l-37 -256h-1002z" />
<glyph unicode="[" horiz-adv-x="686" d="M307 1434h545l-35 -238h-266l-172 -1225h266l-33 -237h-544z" />
<glyph unicode="\" horiz-adv-x="833" d="M279 1634h288l181 -1896h-293z" />
<glyph unicode="]" horiz-adv-x="686" d="M33 -29h266l172 1225h-266l35 238h544l-239 -1700h-545z" />
<glyph unicode="^" horiz-adv-x="788" d="M559 1202l-131 -184h-213l301 401h150l194 -401h-223z" />
<glyph unicode="_" horiz-adv-x="1050" d="M59 -82h906l-33 -237h-905z" />
<glyph unicode="`" horiz-adv-x="571" d="M236 1296l331 50l23 -328h-197z" />
<glyph unicode="a" d="M827 750l64 110h192l-120 -860h-193l-33 111h-12q-3 -5 -10 -14t-31.5 -31.5t-53.5 -40t-77.5 -31.5t-103.5 -14q-155 0 -249 102.5t-94 275.5q0 149 63.5 269.5t170.5 187t233 66.5q55 0 100.5 -13.5t70.5 -32.5t42 -38.5t23 -32.5l6 -14h12zM748 471q0 77 -37.5 122.5 t-104.5 45.5q-86 0 -142 -69t-56 -175q0 -78 37 -126t102 -48q89 0 145 70.5t56 179.5z" />
<glyph unicode="b" d="M272 1239h295l-65 -461h12q2 4 7.5 11t25 25t43.5 31.5t65 24.5t88 11q149 0 239.5 -106t90.5 -277q0 -152 -63.5 -271.5t-169 -183t-232.5 -63.5q-40 0 -75 7.5t-59 19.5t-43.5 26.5t-31 28.5t-19 26t-10.5 20l-3 7h-13l-61 -115h-195zM436 393q0 -79 37 -125.5 t102 -46.5q86 0 142.5 71.5t56.5 176.5q0 76 -37 123t-102 47q-89 0 -144 -68.5t-55 -177.5z" />
<glyph unicode="c" horiz-adv-x="831" d="M516 -20q-189 0 -299.5 110.5t-110.5 282.5q0 140 67.5 256t191 184t276.5 68q50 0 95 -8t74.5 -19.5t51.5 -23t32 -19.5l9 -8l-102 -211q-8 5 -22.5 13t-58 21t-85.5 13q-99 0 -164 -68t-65 -174q0 -80 45.5 -128t123.5 -48q42 0 86.5 11.5t68.5 23.5l24 12l45 -207 q-4 -3 -12.5 -8.5t-36 -19.5t-58 -24.5t-78.5 -19.5t-98 -9z" />
<glyph unicode="d" horiz-adv-x="1062" d="M776 782l66 457h295l-174 -1239h-193l-33 111h-12q-3 -5 -10 -14t-31.5 -31.5t-53.5 -40t-77.5 -31.5t-103.5 -14q-155 0 -249 102.5t-94 275.5q0 224 134.5 373.5t324.5 149.5q46 0 83.5 -10t58 -24.5t34.5 -29.5t19 -25l4 -10h12zM748 471q0 77 -37.5 122.5 t-104.5 45.5q-86 0 -142 -69t-56 -175q0 -78 37 -126t102 -48q89 0 145 70.5t56 179.5z" />
<glyph unicode="e" horiz-adv-x="944" d="M868 80q-5 -4 -15 -11.5t-43.5 -26t-71 -32.5t-97 -25.5t-121.5 -11.5q-195 0 -304.5 112t-109.5 284q0 216 147 364t361 148q167 0 261 -95.5t94 -263.5q0 -33 -4.5 -70.5t-9.5 -59.5l-5 -21h-561q-1 -86 44.5 -126t139.5 -40q56 0 111.5 16.5t83.5 32.5l27 16zM575 668 q-111 0 -161 -138h276q6 63 -23.5 100.5t-91.5 37.5z" />
<glyph unicode="f" horiz-adv-x="716" d="M571 633l-88 -633h-295l88 633h-141l33 227h139l4 25q28 175 129 270.5t269 95.5q57 0 110.5 -10.5t78.5 -20.5l24 -10l-123 -213q-23 13 -72 13q-46 0 -78.5 -30t-38.5 -77l-6 -43h213l-33 -227h-213z" />
<glyph unicode="g" d="M971 57q-27 -191 -160.5 -307.5t-355.5 -116.5q-230 0 -328 131l162 177q66 -84 190 -84q85 0 135 49t62 143l4 33h-12q-3 -4 -8 -11t-24.5 -24.5t-43.5 -31t-65 -24.5t-87 -11q-149 0 -240 105.5t-91 276.5q0 115 37.5 213t101 164.5t149 104t181.5 37.5q57 0 103 -15 t71.5 -36t42.5 -42t23 -36l5 -15h11l63 123h186zM748 467q0 79 -37 125.5t-105 46.5q-86 0 -142 -71.5t-56 -176.5q0 -76 38 -123t103 -47q89 0 144 68.5t55 177.5z" />
<glyph unicode="h" horiz-adv-x="1058" d="M274 1239h299l-63 -457h8q36 44 97.5 72.5t142.5 28.5q153 0 231 -101.5t53 -273.5l-71 -506h-295l67 481q8 59 -26 99.5t-92 40.5q-56 0 -101 -37t-55 -92l-70 -494h-299z" />
<glyph unicode="i" horiz-adv-x="495" d="M387 971q-64 0 -104.5 38.5t-40.5 100.5q0 77 55.5 129.5t134.5 52.5q65 0 106.5 -40t41.5 -103q0 -75 -57.5 -126.5t-135.5 -51.5zM221 860h295l-121 -860h-295z" />
<glyph unicode="j" horiz-adv-x="497" d="M385 971q-64 0 -104.5 38.5t-40.5 100.5q0 77 55.5 129.5t134.5 52.5q65 0 106.5 -40t41.5 -103q0 -75 -57.5 -126.5t-135.5 -51.5zM-23 -76h52q62 0 69 64l123 872h297l-125 -889q-19 -132 -105.5 -211t-215.5 -79h-129z" />
<glyph unicode="k" horiz-adv-x="985" d="M1085 860l-333 -375l229 -485h-322l-139 315l-94 -96l-31 -219h-295l174 1239h295l-98 -696l266 317h348z" />
<glyph unicode="l" horiz-adv-x="495" d="M274 1239h295l-174 -1239h-295z" />
<glyph unicode="m" horiz-adv-x="1630" d="M395 0h-295l121 860h178l31 -117h14q112 138 289 138q99 0 171.5 -37.5t109.5 -106.5h10q113 146 287 146q164 0 245 -101.5t56 -275.5l-72 -506h-295l68 483q8 61 -22.5 100.5t-92.5 39.5t-105.5 -34.5t-54.5 -90.5l-69 -498h-295l67 483q8 61 -22.5 100.5t-93.5 39.5 q-65 0 -109 -38.5t-53 -101.5z" />
<glyph unicode="n" horiz-adv-x="1058" d="M221 860h178l31 -117h14q65 75 130 107.5t161 32.5q164 0 247 -102t58 -275l-71 -506h-295l67 483q8 60 -23.5 100t-94.5 40q-59 0 -103 -36.5t-55 -92.5l-70 -494h-295z" />
<glyph unicode="o" horiz-adv-x="1015" d="M1030 485q0 -147 -74.5 -264t-193.5 -179t-256 -62q-174 0 -287 107t-113 282q0 147 74.5 266t194.5 182.5t258 63.5q173 0 285 -109t112 -287zM539 211q89 0 145.5 72.5t56.5 187.5q0 80 -38 129t-103 49q-91 0 -148 -73t-57 -187q0 -82 38.5 -130t105.5 -48z" />
<glyph unicode="p" horiz-adv-x="1062" d="M406 78l-56 -397h-295l166 1179h187l28 -117h13q3 6 10 15t32.5 33t56 42t81 33t106.5 15q153 0 247.5 -102.5t94.5 -274.5q0 -225 -133.5 -374.5t-322.5 -149.5q-47 0 -85 10t-59 24.5t-35.5 29t-19.5 24.5l-4 10h-12zM438 389q0 -78 36.5 -123t103.5 -45q86 0 142 69 t56 175q0 78 -37 126t-102 48q-89 0 -144 -70t-55 -180z" />
<glyph unicode="q" d="M918 -319h-295l57 401h-12q-3 -4 -8 -11t-24.5 -24.5t-43.5 -31t-65 -24.5t-87 -11q-149 0 -240 105.5t-91 276.5q0 115 37.5 213t101 164.5t149 104t181.5 37.5q57 0 103 -15t71.5 -36t42.5 -42t23 -36l5 -15h11l63 123h186zM748 467q0 79 -37 125.5t-105 46.5 q-86 0 -142 -71.5t-56 -176.5q0 -76 38 -123t103 -47q89 0 144 68.5t55 177.5z" />
<glyph unicode="r" horiz-adv-x="647" d="M707 610h-45q-83 0 -139 -51.5t-68 -142.5l-60 -416h-295l121 860h178l31 -117h12q86 117 254 117h45z" />
<glyph unicode="s" horiz-adv-x="882" d="M178 270q14 -9 38.5 -23t93 -37.5t128.5 -23.5q109 0 109 56q0 20 -22 34.5t-57.5 24.5t-78 21.5t-85 30.5t-78 44.5t-57.5 70.5t-22 103q0 136 106.5 223t293.5 87q73 0 138.5 -8t107.5 -19.5t73.5 -23t45.5 -19.5l14 -8l-113 -211q-4 3 -12.5 8.5t-35.5 19t-55.5 23.5 t-71.5 18.5t-85 8.5q-96 0 -96 -54q0 -22 30.5 -38t75.5 -24.5t98.5 -26.5t98.5 -42.5t75.5 -74t30.5 -117.5q0 -141 -107.5 -227t-326.5 -86q-74 0 -139.5 9.5t-106 22.5t-70 26t-41.5 22l-12 10z" />
<glyph unicode="t" horiz-adv-x="720" d="M291 860l37 262h295l-37 -262h192l-33 -227h-192l-45 -326q-10 -76 65 -76q19 0 39 6.5t30 12.5l11 6l52 -201q-44 -32 -113 -53.5t-135 -21.5q-150 0 -208 85t-38 228l47 340h-141l33 227h141z" />
<glyph unicode="u" horiz-adv-x="1056" d="M782 860h295l-121 -860h-200l-35 115h-12q-109 -135 -267 -135q-164 0 -246 100.5t-57 273.5l72 506h293l-68 -485q-9 -65 20.5 -106.5t92.5 -41.5q65 0 110.5 42.5t53.5 99.5z" />
<glyph unicode="v" horiz-adv-x="948" d="M580 0h-211l-260 860h321l80 -436q11 -44 6 -76h14q4 29 27 76l203 436h321z" />
<glyph unicode="w" horiz-adv-x="1380" d="M1077 0h-250l-59 383q-8 63 -2 115h-12q-4 -37 -37 -115l-168 -383h-246l-186 860h311l47 -436q4 -50 4 -76h10q3 21 29 86l166 426h254l47 -426q4 -37 4 -86h10q4 24 25 76l170 436h311z" />
<glyph unicode="x" horiz-adv-x="958" d="M350 434l-200 426h329l88 -246h6l158 246h330l-342 -426l225 -434h-330l-90 258h-6l-166 -258h-327z" />
<glyph unicode="y" horiz-adv-x="1054" d="M1075 860l-112 -803q-27 -191 -161 -308.5t-356 -117.5q-109 0 -194 34.5t-135 98.5l162 177q66 -84 192 -84q176 0 207 192l4 25q-40 -42 -104 -68t-138 -26q-164 0 -246 100.5t-57 273.5l72 506h293l-68 -485q-9 -65 20.5 -106.5t92.5 -41.5q68 0 115.5 37t60.5 101 l70 495h282z" />
<glyph unicode="z" horiz-adv-x="884" d="M66 0l22 166l438 459h-368l32 235h748l-20 -149l-433 -475h365l-33 -236h-751z" />
<glyph unicode="{" horiz-adv-x="653" d="M178 694q57 0 85.5 31.5t39.5 105.5l43 297q46 322 422 336l6 -243q-71 -12 -98 -30.5t-35 -76.5l-47 -328q-10 -73 -51.5 -123t-104.5 -69l-2 -19q58 -17 85.5 -68t17.5 -122l-47 -326q-2 -15 -2.5 -27.5t2 -22t6 -16.5t11.5 -12.5t15 -9.5t19.5 -7.5t23.5 -5.5t29 -5 l-76 -244q-373 14 -327 336l43 295q10 73 -11 105t-78 32h-47l31 217h47z" />
<glyph unicode="|" horiz-adv-x="477" d="M336 -262h-268l235 1669h268z" />
<glyph unicode="}" horiz-adv-x="653" d="M719 694l-31 -217h-47q-57 0 -85.5 -31.5t-39.5 -105.5l-43 -295q-46 -322 -422 -336l-6 244q71 12 98 30t35 76l47 326q11 72 52 122.5t104 67.5l2 19q-58 19 -85 69t-17 123l47 328q2 15 2.5 27.5t-2.5 22t-6.5 16.5t-11 13t-15 9.5t-20 7t-24 6t-28.5 5.5l76 243 q374 -14 328 -336l-43 -297q-10 -73 10.5 -105t77.5 -32h47z" />
<glyph unicode="~" horiz-adv-x="962" d="M725 694q39 0 77.5 12t57.5 24l19 13l69 -182q-4 -4 -11 -9.5t-31.5 -21t-51 -27t-68.5 -21t-86 -9.5q-56 0 -144 33t-148 33q-40 0 -79 -12.5t-58 -24.5l-19 -13l-66 181q4 4 11.5 10t32 21.5t51 27.5t68 21.5t83.5 9.5q56 0 144.5 -33t148.5 -33z" />
<glyph unicode="&#xa1;" horiz-adv-x="481" d="M166 692q0 79 60 136t139 57q66 0 108.5 -43.5t42.5 -108.5q0 -79 -60 -136.5t-139 -57.5q-65 0 -108 44t-43 109zM358 -360h-335l182 790h192z" />
<glyph unicode="&#xa2;" horiz-adv-x="876" d="M436 172q-136 30 -213.5 134t-77.5 247q0 104 39.5 197.5t109 161.5t169.5 108t215 41l47 168h104l-49 -176q49 -8 89.5 -24t56.5 -28l16 -12l-102 -217q-51 33 -123 43l-113 -414h10q42 0 86.5 12t68.5 24l24 12l45 -213q-4 -3 -12.5 -8t-36 -18.5t-58 -23.5t-78.5 -18 t-98 -8h-16l-43 -160h-105zM444 578q0 -100 62 -146l104 379q-76 -22 -121 -83.5t-45 -149.5z" />
<glyph unicode="&#xa3;" horiz-adv-x="1067" d="M979 0h-887l37 256q4 1 16.5 8t34.5 22t42 33.5t36.5 46t20.5 56.5q2 20 2 76h-119l28 196h80q-2 23 -2 82q0 205 146 336t389 131q67 0 128 -13.5t100.5 -32.5t70 -38.5t44.5 -32.5l13 -14l-211 -246q-3 4 -8 9.5t-22 21t-36 27t-48 21t-60 9.5q-180 0 -180 -209 q0 -39 2 -51h330l-29 -196h-299v-21q0 -114 -66 -221h484z" />
<glyph unicode="&#xa5;" horiz-adv-x="1271" d="M1067 1229h319l-407 -572h221l-26 -196h-326l-12 -80h325l-26 -197h-326l-25 -184h-297l25 184h-313l26 197h316l10 80h-313l26 196h209l-246 572h320l153 -373l37 -125l70 125z" />
<glyph unicode="&#xa6;" horiz-adv-x="497" d="M209 676l98 702h268l-98 -702h-268zM70 -313l98 700h268l-98 -700h-268z" />
<glyph unicode="&#xa7;" horiz-adv-x="1138" d="M225 291q6 -4 16.5 -10t46.5 -21.5t75 -27.5t98.5 -21.5t120.5 -9.5q163 0 163 69q0 30 -39 51.5t-145 51.5q-43 12 -69.5 19.5t-68.5 22.5t-68 28.5t-57 34.5t-49 43.5t-30 52.5t-12 65q0 46 19 86.5t37 59.5t36 32q-49 43 -49 123q0 145 128 230t378 85 q86 0 162.5 -10.5t124 -25t82.5 -29t50 -24.5l15 -11l-150 -207q-5 3 -15 8.5t-42 19t-66.5 23.5t-87.5 18.5t-106 8.5q-129 0 -129 -61q0 -27 30.5 -45.5t108.5 -40.5q169 -47 230 -74q176 -76 176 -201q0 -48 -19.5 -93t-38.5 -67t-39 -38q52 -52 52 -121 q0 -134 -139.5 -225t-397.5 -91q-93 0 -176.5 13t-136.5 31.5t-92.5 37.5t-56.5 32l-17 13zM522 723q-20 -13 -20 -49q0 -71 184 -123l129 -37l5 6q4 7 7.5 13.5t7 17t3.5 20.5q0 17 -7.5 31t-26 26t-34.5 20.5t-49 19t-53 16t-62 16.5z" />
<glyph unicode="&#xa8;" horiz-adv-x="931" d="M340 1423q0 59 49 106.5t107 47.5q51 0 85.5 -37t34.5 -88q0 -58 -49.5 -105t-109.5 -47q-47 0 -82 36.5t-35 86.5zM715 1423q0 59 48.5 106.5t106.5 47.5q50 0 84.5 -36.5t34.5 -88.5q0 -58 -49 -105t-109 -47q-47 0 -81.5 36.5t-34.5 86.5z" />
<glyph unicode="&#xa9;" horiz-adv-x="1370" d="M860 1239q125 0 226.5 -42.5t167.5 -116t101.5 -171.5t35.5 -211q0 -142 -51.5 -271.5t-142.5 -226.5t-224.5 -154.5t-288.5 -57.5q-125 0 -227 42.5t-168.5 116t-102.5 172t-36 211.5q0 141 52.5 270.5t144 226.5t225.5 154.5t288 57.5zM848 1153q-176 0 -316 -85 t-215 -224.5t-75 -304.5q0 -131 51.5 -235t156 -167t246.5 -63q131 0 245.5 49.5t193 133t123.5 195.5t45 234q0 132 -52 236.5t-157 167.5t-246 63zM928 723q-4 4 -11.5 10t-35 16.5t-58.5 10.5q-73 0 -120.5 -47t-47.5 -119q0 -58 33.5 -91.5t93.5 -33.5q31 0 60 9.5 t42 18.5l13 9l80 -144q-3 -3 -9.5 -8t-28.5 -18t-47 -23t-65.5 -18t-83.5 -8q-140 0 -217 80t-77 204q0 154 107.5 263.5t279.5 109.5q44 0 82 -8t61 -19.5t39.5 -23t23.5 -19.5l7 -8z" />
<glyph unicode="&#xaa;" horiz-adv-x="790" d="M156 733q0 113 91 181.5t238 68.5q98 0 148 -35l2 10q12 67 -22.5 100.5t-110.5 33.5q-100 0 -180 -41l-37 151q14 6 38 15t94 24.5t134 15.5q165 0 231 -76.5t45 -226.5l-55 -393h-143l-21 70h-12q-70 -86 -223 -86q-94 0 -155.5 52t-61.5 136zM360 762q0 -36 27 -59 t80 -23q54 0 98.5 34t44.5 77q0 35 -31.5 55t-84.5 20q-63 0 -98.5 -30t-35.5 -74z" />
<glyph unicode="&#xab;" horiz-adv-x="1054" d="M119 446l321 390h244l-4 -19l-309 -381l-2 -18l202 -383l-4 -19h-243l-211 387zM553 446l321 390h244l-4 -19l-309 -381l-2 -18l203 -383l-5 -19h-243l-211 387z" />
<glyph unicode="&#xac;" horiz-adv-x="1155" d="M176 709h967l-99 -709h-241l65 471h-725z" />
<glyph unicode="&#xad;" horiz-adv-x="761" d="M176 588h574l-33 -238h-574z" />
<glyph unicode="&#xae;" horiz-adv-x="1081" d="M1118 842q0 -107 -39 -205.5t-107.5 -173t-170 -118.5t-219.5 -44q-125 0 -217 56.5t-137.5 149.5t-45.5 208q0 144 65.5 266.5t189 198t278.5 75.5q126 0 219 -56t138.5 -148.5t45.5 -208.5zM1026 831q0 148 -87.5 242t-236.5 94q-184 0 -306 -125.5t-122 -316.5 q0 -146 87 -241t233 -95q186 0 309 128t123 314zM696 993q75 0 119.5 -37t44.5 -100q0 -90 -84 -143v-2l58 -107l-5 -24h-131l-53 100h-72l-14 -100h-125l58 413h204zM602 881l-14 -93h76q29 0 46 13.5t17 38.5q0 41 -49 41h-76z" />
<glyph unicode="&#xaf;" horiz-adv-x="1077" d="M465 1542h604l-25 -174h-604z" />
<glyph unicode="&#xb0;" horiz-adv-x="577" d="M481 1378q97 0 155 -55t58 -139q0 -103 -78.5 -175.5t-195.5 -72.5q-97 0 -155 55t-58 139q0 103 78.5 175.5t195.5 72.5zM463 1237q-42 0 -67 -25.5t-25 -64.5q0 -29 17.5 -47.5t51.5 -18.5q41 0 68 25.5t27 62.5q0 30 -19.5 49t-52.5 19z" />
<glyph unicode="&#xb1;" horiz-adv-x="1058" d="M467 393l39 289h-311l34 238h312l43 305h241l-43 -305h305l-34 -238h-305l-39 -289h-242zM963 35h-859l33 237h858z" />
<glyph unicode="&#xb2;" horiz-adv-x="677" d="M211 844l266 211q58 44 58 88q0 25 -18 41t-48 16q-33 0 -60 -13.5t-75 -49.5l-86 153q4 4 11.5 10.5t33.5 23t54 29t71.5 23t87.5 10.5q114 0 175.5 -58.5t61.5 -145.5q0 -130 -104 -211l-135 -105h209l-23 -166h-500z" />
<glyph unicode="&#xb3;" horiz-adv-x="645" d="M272 1368h476l-19 -125l-125 -133q53 -20 82 -61.5t29 -96.5q0 -115 -84 -191.5t-236 -76.5q-46 0 -86 9t-64.5 22t-42 26t-24.5 22l-8 9l121 139q4 -5 12 -13t39.5 -21t69.5 -13q100 0 100 70q0 53 -74 53h-96l12 86l119 127h-225z" />
<glyph unicode="&#xb4;" horiz-adv-x="571" d="M414 1018h-189l140 297l331 -27z" />
<glyph unicode="&#xb5;" horiz-adv-x="1073" d="M66 -262l81 579q0 7 5 37l71 506h293l-67 -485q-9 -65 20 -106.5t92 -41.5q65 0 110.5 42.5t53.5 99.5l70 491h295l-121 -860h-201l-35 115h-12q-109 -135 -266 -135q-26 0 -62 4l-31 -246h-296z" />
<glyph unicode="&#xb6;" horiz-adv-x="1144" d="M756 250h-109q-221 0 -356 114.5t-135 317.5q0 173 85.5 299.5t226 188t316.5 61.5h406l-197 -1399h-297z" />
<glyph unicode="&#xb7;" horiz-adv-x="477" d="M168 715q0 79 59 136.5t138 57.5q65 0 108 -44t43 -109q0 -79 -60 -136t-139 -57q-65 0 -107 43.5t-42 108.5z" />
<glyph unicode="&#xb8;" horiz-adv-x="421" d="M78 -109l72 115h131l-37 -67q53 0 83.5 -30.5t30.5 -84.5q0 -78 -57.5 -127t-155.5 -49q-57 0 -101.5 17t-60.5 33l-16 17l78 101q30 -24 53 -33.5t56 -9.5q69 0 69 45q0 35 -49 35q-16 0 -30 -3.5t-20 -6.5l-7 -3z" />
<glyph unicode="&#xb9;" horiz-adv-x="460" d="M231 1368h318l-94 -668h-191l70 500h-127z" />
<glyph unicode="&#xba;" horiz-adv-x="782" d="M569 1255q128 0 208.5 -84t80.5 -223q0 -174 -114 -285.5t-275 -111.5q-130 0 -211.5 82.5t-81.5 216.5q0 177 115.5 291t277.5 114zM545 1087q-77 0 -123.5 -62.5t-46.5 -158.5q0 -68 31 -107.5t88 -39.5q77 0 122.5 61.5t45.5 157.5q0 69 -30 109t-87 40z" />
<glyph unicode="&#xbb;" horiz-adv-x="1054" d="M623 403l-322 -387h-244l2 19l312 383l2 18l-203 381l2 19h244l213 -390zM1057 403l-322 -387h-243l2 19l311 383l2 18l-203 381l2 19h244l213 -390z" />
<glyph unicode="&#xbc;" horiz-adv-x="1357" d="M59 0l1153 1229h230l-1153 -1231zM272 1229h318l-92 -668h-191l70 500h-127zM692 260l426 408h146l-54 -375h113l-23 -156h-112l-19 -137h-182l19 137h-332zM920 289l49 4h59l12 88l7 43h-3l-88 -98l-36 -35v-2z" />
<glyph unicode="&#xbd;" horiz-adv-x="1462" d="M57 0l1151 1229h232l-1153 -1229h-230zM281 1229h317l-92 -668h-191l70 500h-127zM889 0h500l22 166h-209l135 104q105 82 105 211q0 87 -62 146t-176 59q-44 0 -87 -10t-72.5 -24t-53 -28t-34.5 -24l-11 -10l86 -154q48 37 75 50.5t60 13.5q30 0 48 -16.5t18 -41.5 q0 -45 -57 -88l-267 -211z" />
<glyph unicode="&#xbe;" horiz-adv-x="1433" d="M254 1229h475l-18 -125l-125 -133q53 -20 81.5 -61.5t28.5 -96.5q0 -115 -83.5 -191.5t-235.5 -76.5q-46 0 -86 9t-64.5 22t-42 26t-24.5 22l-8 9l120 139q4 -5 12 -13t39.5 -21t69.5 -13q101 0 101 70q0 53 -74 53h-96l12 86l119 127h-226zM156 0l1153 1229h229 l-1149 -1229h-233zM784 246l426 407h146l-51 -374h98l-23 -156h-98l-16 -123h-185l17 123h-330zM1012 274l51 5h57l13 88l6 43h-4l-84 -99l-37 -35z" />
<glyph unicode="&#xbf;" horiz-adv-x="915" d="M756 737q0 -74 -57.5 -128t-133.5 -54q-63 0 -103 40.5t-40 102.5q0 76 56.5 131.5t131.5 55.5q63 0 104.5 -42.5t41.5 -105.5zM831 -264q-5 -5 -15.5 -13.5t-46.5 -30t-77 -38t-106.5 -30t-136.5 -13.5q-180 0 -290 83t-110 224q0 92 33.5 161t83.5 110.5t101.5 73.5 t95 67.5t55.5 75.5l12 38h240l-8 -61q-8 -60 -38 -106t-66 -74t-71.5 -55t-59.5 -64t-24 -84q0 -46 32.5 -71t92.5 -25q41 0 86.5 17t71.5 33l25 17z" />
<glyph unicode="&#xc0;" horiz-adv-x="1224" d="M528 1579l332 49l23 -328h-197zM1243 0h-319l-45 221h-471l-107 -221h-319l641 1229h323zM520 455h311l-92 454z" />
<glyph unicode="&#xc1;" horiz-adv-x="1224" d="M891 1300h-189l140 297l332 -26zM1243 0h-319l-45 221h-471l-107 -221h-319l641 1229h323zM520 455h311l-92 454z" />
<glyph unicode="&#xc2;" horiz-adv-x="1224" d="M815 1430l-104 -130h-195l211 291h225l127 -291h-196zM1243 0h-319l-45 221h-471l-107 -221h-319l641 1229h323zM520 455h311l-92 454z" />
<glyph unicode="&#xc3;" horiz-adv-x="1224" d="M954 1311q-53 0 -98.5 18.5t-80.5 36.5t-62 18q-44 0 -64 -51l-12 -33l-205 19l23 76q30 98 94.5 153.5t157.5 55.5q53 0 98 -18.5t79.5 -37t61.5 -18.5q46 0 66 51l12 33l205 -19l-23 -75q-30 -98 -94.5 -153.5t-157.5 -55.5zM1243 0h-319l-45 221h-471l-107 -221h-319 l641 1229h323zM520 455h311l-92 454z" />
<glyph unicode="&#xc4;" horiz-adv-x="1224" d="M489 1423q0 59 49 106.5t107 47.5q51 0 86 -37t35 -88q0 -58 -50 -105t-110 -47q-47 0 -82 36.5t-35 86.5zM864 1423q0 59 49 106.5t107 47.5q50 0 84.5 -36.5t34.5 -88.5q0 -58 -49 -105t-109 -47q-47 0 -82 36.5t-35 86.5zM1243 0h-319l-45 221h-471l-107 -221h-319 l641 1229h323zM520 455h311l-92 454z" />
<glyph unicode="&#xc5;" horiz-adv-x="1224" d="M573 1421q0 94 69 153.5t200 59.5q106 0 160.5 -45t54.5 -119q0 -92 -69 -151t-200 -59q-106 0 -160.5 44.5t-54.5 116.5zM905 1456q0 57 -80 57q-46 0 -71 -20t-25 -55q0 -58 78 -58q47 0 72.5 19.5t25.5 56.5zM1243 0h-319l-45 221h-471l-107 -221h-319l641 1229h323z M520 455h311l-92 454z" />
<glyph unicode="&#xc6;" horiz-adv-x="1847" d="M973 1229h979l-35 -256h-637l-35 -242h500l-33 -233h-500l-32 -242h637l-37 -256h-934l33 236h-379l-185 -236h-352zM690 475h223l48 340h-5z" />
<glyph unicode="&#xc7;" horiz-adv-x="1130" d="M528 -109l54 89q-212 31 -328.5 181.5t-116.5 366.5q0 145 53 277.5t147 232t232 158.5t299 59q81 0 151.5 -15.5t114 -37.5t75 -43.5t44.5 -36.5l13 -16l-201 -227q-3 4 -8.5 10t-26.5 22t-45.5 28t-66 22t-87.5 10q-145 0 -250.5 -99t-127.5 -258q-23 -159 54.5 -257.5 t223.5 -98.5q46 0 89.5 9.5t73 23t52.5 27t34 22.5l11 10l137 -227q-6 -6 -17 -15.5t-50.5 -35t-84 -45t-116 -37t-147.5 -19.5l-19 -32q53 0 84 -30.5t31 -84.5q0 -78 -57.5 -127t-155.5 -49q-57 0 -101.5 17t-60.5 33l-16 17l78 101q30 -24 52.5 -33.5t55.5 -9.5 q70 0 70 45q0 35 -49 35q-16 0 -30.5 -3.5t-20.5 -6.5l-7 -3z" />
<glyph unicode="&#xc8;" horiz-adv-x="1091" d="M535 1579l331 49l23 -328h-197zM995 506h-499l-35 -250h596l-37 -256h-893l172 1229h893l-35 -256h-596l-33 -234h500z" />
<glyph unicode="&#xc9;" horiz-adv-x="1091" d="M870 1300h-188l139 297l332 -26zM995 506h-499l-35 -250h596l-37 -256h-893l172 1229h893l-35 -256h-596l-33 -234h500z" />
<glyph unicode="&#xca;" horiz-adv-x="1091" d="M797 1430l-105 -130h-194l211 291h225l127 -291h-197zM995 506h-499l-35 -250h596l-37 -256h-893l172 1229h893l-35 -256h-596l-33 -234h500z" />
<glyph unicode="&#xcb;" horiz-adv-x="1091" d="M479 1423q0 59 49 106.5t107 47.5q51 0 86 -37t35 -88q0 -58 -50 -105t-110 -47q-47 0 -82 36.5t-35 86.5zM854 1423q0 59 49 106.5t107 47.5q50 0 84 -36.5t34 -88.5q0 -58 -48.5 -105t-108.5 -47q-47 0 -82 36.5t-35 86.5zM995 506h-499l-35 -250h596l-37 -256h-893 l172 1229h893l-35 -256h-596l-33 -234h500z" />
<glyph unicode="&#xcc;" horiz-adv-x="550" d="M188 1579l332 49l23 -328h-197zM424 0h-297l172 1229h297z" />
<glyph unicode="&#xcd;" horiz-adv-x="550" d="M551 1300h-189l140 297l332 -26zM424 0h-297l172 1229h297z" />
<glyph unicode="&#xce;" horiz-adv-x="550" d="M479 1430l-104 -130h-195l211 291h225l127 -291h-196zM424 0h-297l172 1229h297z" />
<glyph unicode="&#xcf;" horiz-adv-x="550" d="M154 1423q0 59 48.5 106.5t106.5 47.5q51 0 86 -37t35 -88q0 -58 -50 -105t-110 -47q-47 0 -81.5 36.5t-34.5 86.5zM528 1423q0 59 49 106.5t107 47.5q50 0 84.5 -36.5t34.5 -88.5q0 -58 -49 -105t-109 -47q-47 0 -82 36.5t-35 86.5zM424 0h-297l172 1229h297z" />
<glyph unicode="&#xd0;" horiz-adv-x="1308" d="M137 754h94l68 475h473q263 0 415 -149t152 -386q0 -144 -54.5 -272t-151 -221t-235 -147t-298.5 -54h-473l68 489h-95zM561 973l-31 -219h236l-37 -265h-235l-33 -233h153q171 0 293.5 113.5t122.5 298.5q0 146 -87.5 225.5t-227.5 79.5h-154z" />
<glyph unicode="&#xd1;" horiz-adv-x="1368" d="M1024 1311q-53 0 -99 18.5t-81 36.5t-62 18q-43 0 -63 -51l-12 -33l-205 19l22 76q30 98 94.5 153.5t157.5 55.5q53 0 98.5 -18.5t80 -37t61.5 -18.5q45 0 65 51l13 33l204 -19l-22 -75q-30 -98 -94.5 -153.5t-157.5 -55.5zM1241 0h-229l-490 717l-100 -717h-295 l172 1229h229l492 -705l98 705h295z" />
<glyph unicode="&#xd2;" horiz-adv-x="1376" d="M606 1579l332 49l23 -328h-197zM682 -29q-164 0 -289.5 76.5t-190.5 204t-65 283.5q0 143 56.5 275.5t153 230t231.5 156t284 58.5q166 0 292.5 -75.5t192.5 -202.5t66 -283q0 -143 -57 -276t-153.5 -231t-233 -157t-287.5 -59zM723 260q156 0 268.5 115t112.5 291 q0 136 -78.5 219.5t-202.5 83.5q-152 0 -264.5 -115.5t-112.5 -290.5q0 -135 78 -219t199 -84z" />
<glyph unicode="&#xd3;" horiz-adv-x="1376" d="M954 1300h-188l139 297l332 -26zM682 -29q-164 0 -289.5 76.5t-190.5 204t-65 283.5q0 143 56.5 275.5t153 230t231.5 156t284 58.5q166 0 292.5 -75.5t192.5 -202.5t66 -283q0 -143 -57 -276t-153.5 -231t-233 -157t-287.5 -59zM723 260q156 0 268.5 115t112.5 291 q0 136 -78.5 219.5t-202.5 83.5q-152 0 -264.5 -115.5t-112.5 -290.5q0 -135 78 -219t199 -84z" />
<glyph unicode="&#xd4;" horiz-adv-x="1376" d="M891 1430l-105 -130h-194l211 291h225l127 -291h-197zM682 -29q-164 0 -289.5 76.5t-190.5 204t-65 283.5q0 143 56.5 275.5t153 230t231.5 156t284 58.5q166 0 292.5 -75.5t192.5 -202.5t66 -283q0 -143 -57 -276t-153.5 -231t-233 -157t-287.5 -59zM723 260 q156 0 268.5 115t112.5 291q0 136 -78.5 219.5t-202.5 83.5q-152 0 -264.5 -115.5t-112.5 -290.5q0 -135 78 -219t199 -84z" />
<glyph unicode="&#xd5;" horiz-adv-x="1376" d="M1022 1311q-53 0 -99 18.5t-81 36.5t-62 18q-43 0 -63 -51l-12 -33l-205 19l22 76q30 98 94.5 153.5t157.5 55.5q53 0 98.5 -18.5t80 -37t61.5 -18.5q45 0 65 51l13 33l204 -19l-22 -75q-30 -98 -94.5 -153.5t-157.5 -55.5zM682 -29q-164 0 -289.5 76.5t-190.5 204 t-65 283.5q0 143 56.5 275.5t153 230t231.5 156t284 58.5q166 0 292.5 -75.5t192.5 -202.5t66 -283q0 -143 -57 -276t-153.5 -231t-233 -157t-287.5 -59zM723 260q156 0 268.5 115t112.5 291q0 136 -78.5 219.5t-202.5 83.5q-152 0 -264.5 -115.5t-112.5 -290.5 q0 -135 78 -219t199 -84z" />
<glyph unicode="&#xd6;" horiz-adv-x="1376" d="M565 1423q0 59 49 106.5t107 47.5q51 0 86 -37t35 -88q0 -58 -50 -105t-110 -47q-47 0 -82 36.5t-35 86.5zM940 1423q0 59 49 106.5t107 47.5q50 0 84 -36.5t34 -88.5q0 -58 -48.5 -105t-108.5 -47q-47 0 -82 36.5t-35 86.5zM682 -29q-164 0 -289.5 76.5t-190.5 204 t-65 283.5q0 143 56.5 275.5t153 230t231.5 156t284 58.5q166 0 292.5 -75.5t192.5 -202.5t66 -283q0 -143 -57 -276t-153.5 -231t-233 -157t-287.5 -59zM723 260q156 0 268.5 115t112.5 291q0 136 -78.5 219.5t-202.5 83.5q-152 0 -264.5 -115.5t-112.5 -290.5 q0 -135 78 -219t199 -84z" />
<glyph unicode="&#xd7;" horiz-adv-x="1052" d="M127 340l319 281l-239 280l188 166l242 -281l319 281l144 -166l-322 -280l242 -281l-189 -166l-241 281l-320 -281z" />
<glyph unicode="&#xd8;" horiz-adv-x="1417" d="M705 -29q-203 0 -347 115l-96 -86h-301l268 242q-69 132 -69 293q0 143 56.5 275.5t153 230t231.5 156t284 58.5q206 0 346 -112l94 86h301l-264 -240q74 -135 74 -295q0 -143 -57 -276t-153.5 -231t-233 -157t-287.5 -59zM469 563q0 -44 10 -96l514 463q-67 39 -147 39 q-152 0 -264.5 -115.5t-112.5 -290.5zM745 260q156 0 268.5 115t112.5 291q0 57 -14 100l-516 -465q65 -41 149 -41z" />
<glyph unicode="&#xd9;" horiz-adv-x="1310" d="M573 1579l332 49l23 -328h-197zM651 -29q-162 0 -276.5 73.5t-162.5 200.5t-26 285l99 699h297l-99 -699q-18 -120 35.5 -195t173.5 -75q124 0 196.5 74t90.5 196l98 699h297l-98 -699q-35 -243 -205 -401t-420 -158z" />
<glyph unicode="&#xda;" horiz-adv-x="1310" d="M924 1300h-189l139 297l332 -26zM651 -29q-162 0 -276.5 73.5t-162.5 200.5t-26 285l99 699h297l-99 -699q-18 -120 35.5 -195t173.5 -75q124 0 196.5 74t90.5 196l98 699h297l-98 -699q-35 -243 -205 -401t-420 -158z" />
<glyph unicode="&#xdb;" horiz-adv-x="1310" d="M860 1430l-104 -130h-195l211 291h225l127 -291h-196zM651 -29q-162 0 -276.5 73.5t-162.5 200.5t-26 285l99 699h297l-99 -699q-18 -120 35.5 -195t173.5 -75q124 0 196.5 74t90.5 196l98 699h297l-98 -699q-35 -243 -205 -401t-420 -158z" />
<glyph unicode="&#xdc;" horiz-adv-x="1310" d="M537 1423q0 59 48.5 106.5t106.5 47.5q51 0 86 -37t35 -88q0 -58 -50 -105t-110 -47q-47 0 -81.5 36.5t-34.5 86.5zM911 1423q0 59 49 106.5t107 47.5q50 0 84.5 -36.5t34.5 -88.5q0 -58 -49 -105t-109 -47q-47 0 -82 36.5t-35 86.5zM651 -29q-162 0 -276.5 73.5 t-162.5 200.5t-26 285l99 699h297l-99 -699q-18 -120 35.5 -195t173.5 -75q124 0 196.5 74t90.5 196l98 699h297l-98 -699q-35 -243 -205 -401t-420 -158z" />
<glyph unicode="&#xdd;" horiz-adv-x="1122" d="M846 1368h-189l140 297l331 -27zM993 1229h320l-537 -752l-65 -477h-297l65 473l-325 756h319l154 -373l37 -125l69 125z" />
<glyph unicode="&#xde;" horiz-adv-x="1210" d="M571 1049h267q203 0 317.5 -98t114.5 -271q0 -158 -77 -273t-206 -172t-293 -57h-245l-25 -178h-297l172 1229h297zM958 633q0 76 -51.5 118t-138.5 42h-233l-52 -369h236q108 0 173.5 54.5t65.5 154.5z" />
<glyph unicode="&#xdf;" horiz-adv-x="1021" d="M584 690q103 21 138.5 68t35.5 116q0 50 -26.5 78.5t-78.5 28.5q-56 0 -93 -38t-46 -101l-119 -842h-295l117 827q27 187 150.5 294.5t322.5 107.5q168 0 270.5 -95.5t102.5 -232.5q0 -97 -46.5 -173.5t-123.5 -115.5q58 -28 89.5 -86t31.5 -139q0 -171 -119 -283 t-295 -112l-115 8l27 186h47q87 0 135.5 46.5t48.5 125.5q0 58 -36.5 90.5t-104.5 32.5h-47z" />
<glyph unicode="&#xe0;" d="M399 1296l332 50l23 -328h-197zM827 750l64 110h192l-120 -860h-193l-33 111h-12q-3 -5 -10 -14t-31.5 -31.5t-53.5 -40t-77.5 -31.5t-103.5 -14q-155 0 -249 102.5t-94 275.5q0 149 63.5 269.5t170.5 187t233 66.5q55 0 100.5 -13.5t70.5 -32.5t42 -38.5t23 -32.5l6 -14 h12zM748 471q0 77 -37.5 122.5t-104.5 45.5q-86 0 -142 -69t-56 -175q0 -78 37 -126t102 -48q89 0 145 70.5t56 179.5z" />
<glyph unicode="&#xe1;" d="M735 1018h-188l139 297l332 -27zM827 750l64 110h192l-120 -860h-193l-33 111h-12q-3 -5 -10 -14t-31.5 -31.5t-53.5 -40t-77.5 -31.5t-103.5 -14q-155 0 -249 102.5t-94 275.5q0 149 63.5 269.5t170.5 187t233 66.5q55 0 100.5 -13.5t70.5 -32.5t42 -38.5t23 -32.5 l6 -14h12zM748 471q0 77 -37.5 122.5t-104.5 45.5q-86 0 -142 -69t-56 -175q0 -78 37 -126t102 -48q89 0 145 70.5t56 179.5z" />
<glyph unicode="&#xe2;" d="M674 1147l-105 -129h-194l211 291h225l127 -291h-197zM827 750l64 110h192l-120 -860h-193l-33 111h-12q-3 -5 -10 -14t-31.5 -31.5t-53.5 -40t-77.5 -31.5t-103.5 -14q-155 0 -249 102.5t-94 275.5q0 149 63.5 269.5t170.5 187t233 66.5q55 0 100.5 -13.5t70.5 -32.5 t42 -38.5t23 -32.5l6 -14h12zM748 471q0 77 -37.5 122.5t-104.5 45.5q-86 0 -142 -69t-56 -175q0 -78 37 -126t102 -48q89 0 145 70.5t56 179.5z" />
<glyph unicode="&#xe3;" d="M803 1030q-53 0 -99 18.5t-81 37t-62 18.5q-43 0 -63 -51l-13 -33l-204 18l22 76q30 98 94.5 153.5t157.5 55.5q53 0 98.5 -18.5t80 -37t61.5 -18.5q45 0 65 51l12 33l205 -18l-22 -76q-30 -98 -94.5 -153.5t-157.5 -55.5zM827 750l64 110h192l-120 -860h-193l-33 111 h-12q-3 -5 -10 -14t-31.5 -31.5t-53.5 -40t-77.5 -31.5t-103.5 -14q-155 0 -249 102.5t-94 275.5q0 149 63.5 269.5t170.5 187t233 66.5q55 0 100.5 -13.5t70.5 -32.5t42 -38.5t23 -32.5l6 -14h12zM748 471q0 77 -37.5 122.5t-104.5 45.5q-86 0 -142 -69t-56 -175 q0 -78 37 -126t102 -48q89 0 145 70.5t56 179.5z" />
<glyph unicode="&#xe4;" d="M340 1139q0 59 49 106t107 47q51 0 85.5 -37t34.5 -88q0 -58 -49.5 -104.5t-109.5 -46.5q-47 0 -82 36.5t-35 86.5zM715 1139q0 59 48.5 106t106.5 47q50 0 84.5 -36.5t34.5 -88.5q0 -58 -49 -104.5t-109 -46.5q-47 0 -81.5 36.5t-34.5 86.5zM827 750l64 110h192 l-120 -860h-193l-33 111h-12q-3 -5 -10 -14t-31.5 -31.5t-53.5 -40t-77.5 -31.5t-103.5 -14q-155 0 -249 102.5t-94 275.5q0 149 63.5 269.5t170.5 187t233 66.5q55 0 100.5 -13.5t70.5 -32.5t42 -38.5t23 -32.5l6 -14h12zM748 471q0 77 -37.5 122.5t-104.5 45.5 q-86 0 -142 -69t-56 -175q0 -78 37 -126t102 -48q89 0 145 70.5t56 179.5z" />
<glyph unicode="&#xe5;" d="M432 1171q0 94 68.5 153.5t199.5 59.5q106 0 160.5 -44.5t54.5 -118.5q0 -93 -68.5 -152t-199.5 -59q-106 0 -160.5 44.5t-54.5 116.5zM764 1206q0 58 -80 58q-45 0 -70.5 -20.5t-25.5 -55.5q0 -58 78 -58q47 0 72.5 19.5t25.5 56.5zM827 750l64 110h192l-120 -860h-193 l-33 111h-12q-3 -5 -10 -14t-31.5 -31.5t-53.5 -40t-77.5 -31.5t-103.5 -14q-155 0 -249 102.5t-94 275.5q0 149 63.5 269.5t170.5 187t233 66.5q55 0 100.5 -13.5t70.5 -32.5t42 -38.5t23 -32.5l6 -14h12zM748 471q0 77 -37.5 122.5t-104.5 45.5q-86 0 -142 -69t-56 -175 q0 -78 37 -126t102 -48q89 0 145 70.5t56 179.5z" />
<glyph unicode="&#xe6;" horiz-adv-x="1486" d="M1409 86q-5 -4 -15 -11.5t-43.5 -25.5t-71 -32t-97 -25.5t-121.5 -11.5q-198 0 -307 106q-138 -106 -361 -106q-159 0 -241 65t-82 166q0 307 426 307q73 0 161 -18l5 30q9 61 -35.5 93t-130.5 32q-50 0 -106.5 -17.5t-87.5 -34.5l-32 -17l-61 217q6 3 17.5 8.5t48.5 19 t76 23.5t98 18.5t116 8.5q195 0 295 -97q135 97 293 97q168 0 262 -95.5t94 -263.5q0 -33 -5 -70.5t-10 -59.5l-5 -21h-561q6 -160 186 -160q56 0 111 16.5t83 32.5l27 16zM1116 668q-54 0 -96.5 -35.5t-65.5 -102.5h277q6 63 -23.5 100.5t-91.5 37.5zM465 172 q72 0 114.5 43.5t53.5 112.5l4 22q-65 17 -135 17q-71 0 -109.5 -30.5t-38.5 -84.5q0 -38 28.5 -59t82.5 -21z" />
<glyph unicode="&#xe7;" horiz-adv-x="831" d="M322 -109l65 105q-133 35 -207 136t-74 241t67.5 256t191 184t276.5 68q50 0 95 -8t74.5 -19.5t51.5 -23t32 -19.5l9 -8l-102 -211q-8 5 -22.5 13t-58 21t-85.5 13q-99 0 -164 -68t-65 -174q0 -80 45.5 -128t123.5 -48q42 0 86.5 11.5t68.5 23.5l24 12l45 -207 q-4 -3 -12.5 -8.5t-36 -19.5t-58 -24.5t-78.5 -19.5t-98 -9h-6l-23 -41q53 0 84 -30.5t31 -84.5q0 -78 -57.5 -127t-155.5 -49q-57 0 -101.5 17t-60.5 33l-16 17l78 101q30 -24 52.5 -33.5t55.5 -9.5q70 0 70 45q0 35 -49 35q-16 0 -30.5 -3.5t-21.5 -6.5l-6 -3z" />
<glyph unicode="&#xe8;" horiz-adv-x="944" d="M340 1296l332 50l22 -328h-196zM868 80q-5 -4 -15 -11.5t-43.5 -26t-71 -32.5t-97 -25.5t-121.5 -11.5q-195 0 -304.5 112t-109.5 284q0 216 147 364t361 148q167 0 261 -95.5t94 -263.5q0 -33 -4.5 -70.5t-9.5 -59.5l-5 -21h-561q-1 -86 44.5 -126t139.5 -40 q56 0 111.5 16.5t83.5 32.5l27 16zM575 668q-111 0 -161 -138h276q6 63 -23.5 100.5t-91.5 37.5z" />
<glyph unicode="&#xe9;" horiz-adv-x="944" d="M731 1018h-188l139 297l332 -27zM868 80q-5 -4 -15 -11.5t-43.5 -26t-71 -32.5t-97 -25.5t-121.5 -11.5q-195 0 -304.5 112t-109.5 284q0 216 147 364t361 148q167 0 261 -95.5t94 -263.5q0 -33 -4.5 -70.5t-9.5 -59.5l-5 -21h-561q-1 -86 44.5 -126t139.5 -40 q56 0 111.5 16.5t83.5 32.5l27 16zM575 668q-111 0 -161 -138h276q6 63 -23.5 100.5t-91.5 37.5z" />
<glyph unicode="&#xea;" horiz-adv-x="944" d="M649 1147l-104 -129h-195l211 291h225l127 -291h-196zM868 80q-5 -4 -15 -11.5t-43.5 -26t-71 -32.5t-97 -25.5t-121.5 -11.5q-195 0 -304.5 112t-109.5 284q0 216 147 364t361 148q167 0 261 -95.5t94 -263.5q0 -33 -4.5 -70.5t-9.5 -59.5l-5 -21h-561q-1 -86 44.5 -126 t139.5 -40q56 0 111.5 16.5t83.5 32.5l27 16zM575 668q-111 0 -161 -138h276q6 63 -23.5 100.5t-91.5 37.5z" />
<glyph unicode="&#xeb;" horiz-adv-x="944" d="M315 1073q0 59 49 106.5t107 47.5q51 0 86 -37t35 -88q0 -58 -50 -105t-110 -47q-47 0 -82 36.5t-35 86.5zM690 1073q0 59 49 106.5t107 47.5q50 0 84.5 -36.5t34.5 -88.5q0 -58 -49 -105t-109 -47q-47 0 -82 36.5t-35 86.5zM868 80q-5 -4 -15 -11.5t-43.5 -26t-71 -32.5 t-97 -25.5t-121.5 -11.5q-195 0 -304.5 112t-109.5 284q0 216 147 364t361 148q167 0 261 -95.5t94 -263.5q0 -33 -4.5 -70.5t-9.5 -59.5l-5 -21h-561q-1 -86 44.5 -126t139.5 -40q56 0 111.5 16.5t83.5 32.5l27 16zM575 668q-111 0 -161 -138h276q6 63 -23.5 100.5 t-91.5 37.5z" />
<glyph unicode="&#xec;" horiz-adv-x="495" d="M123 1296l332 50l22 -328h-196zM221 860h295l-121 -860h-295z" />
<glyph unicode="&#xed;" horiz-adv-x="495" d="M487 1018h-188l139 297l332 -27zM221 860h295l-121 -860h-295z" />
<glyph unicode="&#xee;" horiz-adv-x="495" d="M416 1147l-105 -129h-194l211 291h225l127 -291h-197zM221 860h295l-121 -860h-295z" />
<glyph unicode="&#xef;" horiz-adv-x="495" d="M96 1139q0 59 49 106t107 47q51 0 86 -37t35 -88q0 -58 -50 -104.5t-110 -46.5q-47 0 -82 36.5t-35 86.5zM471 1139q0 59 49 106t107 47q50 0 84 -36.5t34 -88.5q0 -58 -48.5 -104.5t-108.5 -46.5q-47 0 -82 36.5t-35 86.5zM221 860h295l-121 -860h-295z" />
<glyph unicode="&#xf0;" horiz-adv-x="1044" d="M520 -23q-187 0 -300.5 104.5t-113.5 283.5q0 221 155.5 366.5t385.5 145.5h17v8q-29 43 -52 96l-30 70l-213 -119l-70 158l215 120l-111 258l5 23h282l64 -145l227 127l70 -158l-226 -127l160 -357q50 -128 67 -208t5 -181l-2 -16q-26 -207 -173.5 -328t-361.5 -121z M762 467q0 78 -40 124t-110 46q-89 0 -147.5 -70t-58.5 -172q0 -78 39.5 -128t107.5 -50q91 0 150 72t59 178z" />
<glyph unicode="&#xf1;" horiz-adv-x="1058" d="M817 1028q-53 0 -99 18.5t-81 37t-62 18.5q-43 0 -63 -51l-12 -33l-205 18l22 76q30 98 94.5 153.5t157.5 55.5q53 0 98.5 -18.5t80 -37t61.5 -18.5q45 0 65 51l13 33l205 -18l-23 -76q-30 -98 -94.5 -153.5t-157.5 -55.5zM221 860h178l31 -117h14q65 75 130 107.5 t161 32.5q164 0 247 -102t58 -275l-71 -506h-295l67 483q8 60 -23.5 100t-94.5 40q-59 0 -103 -36.5t-55 -92.5l-70 -494h-295z" />
<glyph unicode="&#xf2;" horiz-adv-x="1015" d="M387 1296l332 50l22 -328h-196zM1030 485q0 -147 -74.5 -264t-193.5 -179t-256 -62q-174 0 -287 107t-113 282q0 147 74.5 266t194.5 182.5t258 63.5q173 0 285 -109t112 -287zM539 211q89 0 145.5 72.5t56.5 187.5q0 80 -38 129t-103 49q-91 0 -148 -73t-57 -187 q0 -82 38.5 -130t105.5 -48z" />
<glyph unicode="&#xf3;" horiz-adv-x="1015" d="M741 1018h-188l139 297l332 -27zM1030 485q0 -147 -74.5 -264t-193.5 -179t-256 -62q-174 0 -287 107t-113 282q0 147 74.5 266t194.5 182.5t258 63.5q173 0 285 -109t112 -287zM539 211q89 0 145.5 72.5t56.5 187.5q0 80 -38 129t-103 49q-91 0 -148 -73t-57 -187 q0 -82 38.5 -130t105.5 -48z" />
<glyph unicode="&#xf4;" horiz-adv-x="1015" d="M674 1147l-105 -129h-194l211 291h225l127 -291h-197zM1030 485q0 -147 -74.5 -264t-193.5 -179t-256 -62q-174 0 -287 107t-113 282q0 147 74.5 266t194.5 182.5t258 63.5q173 0 285 -109t112 -287zM539 211q89 0 145.5 72.5t56.5 187.5q0 80 -38 129t-103 49 q-91 0 -148 -73t-57 -187q0 -82 38.5 -130t105.5 -48z" />
<glyph unicode="&#xf5;" horiz-adv-x="1015" d="M797 1030q-53 0 -99 18.5t-81 37t-62 18.5q-43 0 -63 -51l-13 -33l-205 18l23 76q30 98 94.5 153.5t157.5 55.5q53 0 98 -18.5t79.5 -37t61.5 -18.5q46 0 66 51l12 33l205 -18l-22 -76q-30 -98 -94.5 -153.5t-157.5 -55.5zM1030 485q0 -147 -74.5 -264t-193.5 -179 t-256 -62q-174 0 -287 107t-113 282q0 147 74.5 266t194.5 182.5t258 63.5q173 0 285 -109t112 -287zM539 211q89 0 145.5 72.5t56.5 187.5q0 80 -38 129t-103 49q-91 0 -148 -73t-57 -187q0 -82 38.5 -130t105.5 -48z" />
<glyph unicode="&#xf6;" horiz-adv-x="1015" d="M350 1141q0 59 49 106t107 47q51 0 86 -37t35 -88q0 -58 -50 -104.5t-110 -46.5q-47 0 -82 36.5t-35 86.5zM725 1141q0 59 49 106t107 47q50 0 84 -36.5t34 -88.5q0 -58 -48.5 -104.5t-108.5 -46.5q-47 0 -82 36.5t-35 86.5zM1030 485q0 -147 -74.5 -264t-193.5 -179 t-256 -62q-174 0 -287 107t-113 282q0 147 74.5 266t194.5 182.5t258 63.5q173 0 285 -109t112 -287zM539 211q89 0 145.5 72.5t56.5 187.5q0 80 -38 129t-103 49q-91 0 -148 -73t-57 -187q0 -82 38.5 -130t105.5 -48z" />
<glyph unicode="&#xf7;" horiz-adv-x="989" d="M459 971q0 79 59 136.5t139 57.5q64 0 107 -44t43 -109q0 -79 -60 -136t-139 -57q-65 0 -107 43.5t-42 108.5zM166 725h858l-33 -238h-858zM352 211q0 79 59 137t138 58q65 0 108 -44.5t43 -109.5q0 -79 -59.5 -136t-138.5 -57q-65 0 -107.5 43.5t-42.5 108.5z" />
<glyph unicode="&#xf8;" horiz-adv-x="1015" d="M1030 485q0 -147 -74.5 -264t-193.5 -179t-256 -62q-142 0 -248 73l-59 -53h-187l158 143q-64 95 -64 226q0 147 74.5 266t194.5 182.5t258 63.5q136 0 237 -72l58 51h188l-155 -139q69 -97 69 -236zM395 389q0 -29 2 -43l281 279q-30 24 -78 24q-91 0 -148 -73t-57 -187 zM539 211q89 0 145.5 72.5t56.5 187.5q0 19 -4 47l-284 -278q37 -29 86 -29z" />
<glyph unicode="&#xf9;" horiz-adv-x="1056" d="M391 1296l332 50l22 -328h-196zM782 860h295l-121 -860h-200l-35 115h-12q-109 -135 -267 -135q-164 0 -246 100.5t-57 273.5l72 506h293l-68 -485q-9 -65 20.5 -106.5t92.5 -41.5q65 0 110.5 42.5t53.5 99.5z" />
<glyph unicode="&#xfa;" horiz-adv-x="1056" d="M743 1018h-188l139 297l332 -27zM782 860h295l-121 -860h-200l-35 115h-12q-109 -135 -267 -135q-164 0 -246 100.5t-57 273.5l72 506h293l-68 -485q-9 -65 20.5 -106.5t92.5 -41.5q65 0 110.5 42.5t53.5 99.5z" />
<glyph unicode="&#xfb;" horiz-adv-x="1056" d="M670 1147l-105 -129h-194l211 291h225l127 -291h-197zM782 860h295l-121 -860h-200l-35 115h-12q-109 -135 -267 -135q-164 0 -246 100.5t-57 273.5l72 506h293l-68 -485q-9 -65 20.5 -106.5t92.5 -41.5q65 0 110.5 42.5t53.5 99.5z" />
<glyph unicode="&#xfc;" horiz-adv-x="1056" d="M348 1143q0 59 49 106t107 47q51 0 86 -37t35 -88q0 -58 -50 -104.5t-110 -46.5q-47 0 -82 36.5t-35 86.5zM723 1143q0 59 49 106t107 47q50 0 84 -36.5t34 -88.5q0 -58 -48.5 -104.5t-108.5 -46.5q-47 0 -82 36.5t-35 86.5zM782 860h295l-121 -860h-200l-35 115h-12 q-109 -135 -267 -135q-164 0 -246 100.5t-57 273.5l72 506h293l-68 -485q-9 -65 20.5 -106.5t92.5 -41.5q65 0 110.5 42.5t53.5 99.5z" />
<glyph unicode="&#xfd;" horiz-adv-x="1054" d="M766 1018h-188l139 297l332 -27zM1075 860l-112 -803q-27 -191 -161 -308.5t-356 -117.5q-109 0 -194 34.5t-135 98.5l162 177q66 -84 192 -84q176 0 207 192l4 25q-40 -42 -104 -68t-138 -26q-164 0 -246 100.5t-57 273.5l72 506h293l-68 -485q-9 -65 20.5 -106.5 t92.5 -41.5q68 0 115.5 37t60.5 101l70 495h282z" />
<glyph unicode="&#xfe;" horiz-adv-x="1062" d="M410 96l-60 -415h-295l217 1548h295l-63 -455h10q3 4 9 11.5t27 26t45 32.5t64 25.5t84 11.5q154 0 244 -101t90 -274q0 -150 -63 -271.5t-168 -188t-228 -66.5q-46 0 -83.5 12t-57.5 29t-33.5 34t-17.5 29l-4 12h-12zM438 389q0 -78 36.5 -123t103.5 -45q86 0 142 69 t56 175q0 78 -37 126t-102 48q-89 0 -144 -70t-55 -180z" />
<glyph unicode="&#xff;" horiz-adv-x="1054" d="M367 1141q0 59 48.5 106t106.5 47q51 0 86 -37t35 -88q0 -58 -50 -104.5t-110 -46.5q-47 0 -81.5 36.5t-34.5 86.5zM741 1141q0 59 49 106t107 47q50 0 84.5 -36.5t34.5 -88.5q0 -58 -49 -104.5t-109 -46.5q-47 0 -82 36.5t-35 86.5zM1075 860l-112 -803 q-27 -191 -161 -308.5t-356 -117.5q-109 0 -194 34.5t-135 98.5l162 177q66 -84 192 -84q176 0 207 192l4 25q-40 -42 -104 -68t-138 -26q-164 0 -246 100.5t-57 273.5l72 506h293l-68 -485q-9 -65 20.5 -106.5t92.5 -41.5q68 0 115.5 37t60.5 101l70 495h282z" />
<glyph unicode="&#x152;" horiz-adv-x="2074" d="M1980 506h-499l-35 -250h596l-37 -256h-893l16 123q-199 -152 -446 -152q-164 0 -289.5 76.5t-190.5 204t-65 283.5q0 143 56.5 275.5t153 230t231.5 156t284 58.5q123 0 226.5 -43t175.5 -120l20 137h893l-35 -256h-596l-33 -234h500zM723 260q156 0 268.5 115 t112.5 291q0 136 -78.5 219.5t-202.5 83.5q-152 0 -264.5 -115.5t-112.5 -290.5q0 -135 78 -219t199 -84z" />
<glyph unicode="&#x153;" horiz-adv-x="1673" d="M1597 80q-5 -4 -15 -11.5t-43.5 -26t-71 -32.5t-97 -25.5t-121.5 -11.5q-122 0 -211.5 45.5t-140.5 126.5q-75 -79 -176.5 -122t-214.5 -43q-174 0 -287 107t-113 282q0 147 74.5 266t194.5 182.5t258 63.5q105 0 192 -44t140 -122q70 78 168 122t210 44q167 0 261 -95.5 t94 -263.5q0 -33 -5 -70.5t-9 -59.5l-5 -21h-561q-1 -86 45 -126t140 -40q56 0 111 16.5t82 32.5l28 16zM1305 668q-53 0 -95.5 -35t-66.5 -103h276q6 63 -23 100.5t-91 37.5zM539 211q89 0 145.5 72.5t56.5 187.5q0 80 -38 129t-103 49q-91 0 -148 -73t-57 -187 q0 -82 38.5 -130t105.5 -48z" />
<glyph unicode="&#x178;" horiz-adv-x="1122" d="M444 1423q0 59 49 106.5t107 47.5q51 0 86 -37t35 -88q0 -58 -50 -105t-110 -47q-47 0 -82 36.5t-35 86.5zM819 1423q0 59 49 106.5t107 47.5q50 0 84.5 -36.5t34.5 -88.5q0 -58 -49 -105t-109 -47q-47 0 -82 36.5t-35 86.5zM993 1229h320l-537 -752l-65 -477h-297 l65 473l-325 756h319l154 -373l37 -125l69 125z" />
<glyph unicode="&#x2c6;" horiz-adv-x="759" d="M594 1430l-105 -130h-194l211 291h225l127 -291h-196z" />
<glyph unicode="&#x2dc;" horiz-adv-x="993" d="M823 1311q-53 0 -98.5 18.5t-80.5 36.5t-62 18q-44 0 -64 -51l-12 -33l-205 19l23 76q30 98 94 153.5t157 55.5q53 0 98.5 -18.5t80 -37t61.5 -18.5q46 0 66 51l12 33l205 -19l-23 -75q-30 -98 -94.5 -153.5t-157.5 -55.5z" />
<glyph unicode="&#x2000;" horiz-adv-x="832" />
<glyph unicode="&#x2001;" horiz-adv-x="1665" />
<glyph unicode="&#x2002;" horiz-adv-x="832" />
<glyph unicode="&#x2003;" horiz-adv-x="1665" />
<glyph unicode="&#x2004;" horiz-adv-x="555" />
<glyph unicode="&#x2005;" horiz-adv-x="416" />
<glyph unicode="&#x2006;" horiz-adv-x="277" />
<glyph unicode="&#x2007;" horiz-adv-x="277" />
<glyph unicode="&#x2008;" horiz-adv-x="208" />
<glyph unicode="&#x2009;" horiz-adv-x="333" />
<glyph unicode="&#x200a;" horiz-adv-x="92" />
<glyph unicode="&#x2010;" horiz-adv-x="761" d="M176 588h574l-33 -238h-574z" />
<glyph unicode="&#x2011;" horiz-adv-x="761" d="M176 588h574l-33 -238h-574z" />
<glyph unicode="&#x2012;" horiz-adv-x="761" d="M176 588h574l-33 -238h-574z" />
<glyph unicode="&#x2013;" horiz-adv-x="915" d="M213 707h686l-33 -238h-686z" />
<glyph unicode="&#x2014;" horiz-adv-x="1433" d="M213 707h1204l-33 -238h-1204z" />
<glyph unicode="&#x2018;" horiz-adv-x="468" d="M551 1077q-111 -23 -143 -86q46 -12 74 -49t28 -88q0 -76 -56 -131t-132 -55q-71 0 -116.5 50t-27.5 116l2 6v4q6 132 102.5 243.5t245.5 141.5z" />
<glyph unicode="&#x2019;" horiz-adv-x="468" d="M195 819q113 21 141 84q-45 12 -72.5 50t-27.5 89q0 76 56.5 131.5t131.5 55.5q70 0 113 -49.5t30 -116.5l-2 -8v-2q-19 -137 -110 -246.5t-238 -138.5z" />
<glyph unicode="&#x201a;" horiz-adv-x="471" d="M422 133q0 -130 -101.5 -242.5t-252.5 -142.5l-23 152q113 21 141 84q-46 12 -73 50t-27 89q0 76 56 131t132 55q72 0 110 -42t38 -113v-21z" />
<glyph unicode="&#x201c;" horiz-adv-x="876" d="M176 844q0 130 101.5 242.5t252.5 142.5l23 -152q-113 -21 -141 -84q46 -12 73 -50t27 -89q0 -76 -56 -131t-132 -55q-72 0 -110 42t-38 113v21zM582 844q0 130 101.5 242.5t252.5 142.5l22 -152q-113 -21 -141 -84q46 -12 73.5 -50t27.5 -89q0 -76 -56.5 -131 t-132.5 -55q-72 0 -109.5 42t-37.5 113v21z" />
<glyph unicode="&#x201d;" horiz-adv-x="847" d="M545 1053q0 -129 -101.5 -242t-253.5 -143l-22 151q113 21 141 84q-46 12 -73 50t-27 89q0 76 56.5 131.5t131.5 55.5q72 0 110 -42.5t38 -113.5v-20zM950 1053q0 -130 -101.5 -242.5t-252.5 -142.5l-23 151q114 21 142 84q-46 12 -73.5 50t-27.5 89q0 76 56.5 131.5 t132.5 55.5q71 0 109 -42.5t38 -113.5v-20z" />
<glyph unicode="&#x201e;" horiz-adv-x="847" d="M393 133q0 -130 -101.5 -242.5t-252.5 -142.5l-23 152q114 21 142 84q-46 12 -73.5 50t-27.5 89q0 76 56.5 131t132.5 55q72 0 109.5 -42t37.5 -113v-21zM799 133q0 -129 -101.5 -242t-253.5 -143l-22 152q113 21 141 84q-46 12 -73 50t-27 89q0 76 56 131t132 55 q72 0 110 -42t38 -113v-21z" />
<glyph unicode="&#x2022;" horiz-adv-x="677" d="M432 670q79 0 131.5 -55t52.5 -134q0 -96 -73.5 -165.5t-169.5 -69.5q-79 0 -132 54t-53 132q0 96 74 167t170 71z" />
<glyph unicode="&#x2026;" horiz-adv-x="1579" d="M92 135q0 79 59.5 137t139.5 58q65 0 108 -44.5t43 -109.5q0 -78 -60.5 -135t-139.5 -57q-66 0 -108 43t-42 108zM637 135q0 79 59.5 137t139.5 58q65 0 108 -44.5t43 -109.5q0 -78 -61 -135t-140 -57q-65 0 -107 43t-42 108zM1182 135q0 79 59 137t139 58 q65 0 108.5 -44.5t43.5 -109.5q0 -78 -61 -135t-140 -57q-65 0 -107 43t-42 108z" />
<glyph unicode="&#x202f;" horiz-adv-x="333" />
<glyph unicode="&#x2039;" horiz-adv-x="620" d="M119 446l321 390h244l-4 -19l-309 -381l-2 -18l202 -383l-4 -19h-243l-211 387z" />
<glyph unicode="&#x203a;" horiz-adv-x="620" d="M623 403l-322 -387h-244l2 19l312 383l2 18l-203 381l2 19h244l213 -390z" />
<glyph unicode="&#x205f;" horiz-adv-x="416" />
<glyph unicode="&#x20ac;" horiz-adv-x="1228" d="M893 381h-277q57 -117 213 -117q56 0 109.5 22.5t79.5 45.5l26 22l140 -227q-6 -6 -17 -16t-50 -36t-82 -46t-111 -36t-140 -16q-217 0 -341.5 110t-153.5 294h-168l26 197h136q2 25 5 45t5 27l2 7h-135l26 197h170q81 182 237 291.5t372 109.5q72 0 135 -15.5 t101.5 -37.5t67 -43.5t40.5 -36.5l12 -16l-203 -227q-3 4 -8 10t-23 21.5t-38 27.5t-53 21.5t-68 9.5q-154 0 -242 -115h272l-26 -197h-330q-8 -30 -12 -79h330z" />
<glyph unicode="&#x2122;" horiz-adv-x="1511" d="M756 1067h-178l-70 -492h-184l69 492h-178l23 162h540zM786 575l93 654h122l179 -281l258 281h123l-93 -654h-184l43 297l-139 -151h-80l-94 151l-43 -297h-185z" />
<glyph unicode="&#x25fc;" horiz-adv-x="860" d="M0 860h860v-860h-860v860z" />
</font>
</defs>
</svg>
