<?xml version="1.0" standalone="no"?>
<!DOCTYPE svg PUBLIC "-//W3C//DTD SVG 1.1//EN" "http://www.w3.org/Graphics/SVG/1.1/DTD/svg11.dtd" >
<svg xmlns="http://www.w3.org/2000/svg">
<metadata></metadata>
<defs>
<font id="textalight" horiz-adv-x="1196" >
<font-face units-per-em="2048" ascent="1638" descent="-410" />
<missing-glyph horiz-adv-x="479" />
<glyph horiz-adv-x="0" />
<glyph horiz-adv-x="682" />
<glyph horiz-adv-x="0" />
<glyph horiz-adv-x="0" />
<glyph unicode="&#xd;" horiz-adv-x="94" />
<glyph unicode=" "  horiz-adv-x="479" />
<glyph unicode="&#x09;" horiz-adv-x="479" />
<glyph unicode="&#xa0;" horiz-adv-x="479" />
<glyph unicode="!" horiz-adv-x="387" d="M223 303h-59l-25 926h107zM119 59q0 31 21.5 53.5t52.5 22.5q32 0 53.5 -22.5t21.5 -53.5t-21.5 -53t-53.5 -22q-31 0 -52.5 22t-21.5 53z" />
<glyph unicode="&#x22;" horiz-adv-x="585" d="M172 973h-53l33 428h100zM420 973h-53l34 428h99z" />
<glyph unicode="#" horiz-adv-x="1232" d="M915 848h248l-14 -66h-248l-82 -376h236l-15 -66h-235l-76 -340h-70l74 340h-342l-76 -340h-69l73 340h-249l14 66h250l84 376h-240l15 66h239l76 346h72l-78 -346h344l76 346h71zM406 406h342l83 376h-344z" />
<glyph unicode="$" horiz-adv-x="1036" d="M147 180q5 -5 14 -12.5t41 -27.5t67.5 -36t92.5 -30t117 -17v541q-95 30 -156 57t-116 66t-81 91.5t-26 121.5q0 140 103 225t276 94v213h80v-213q71 -2 134 -14.5t102.5 -28.5t68.5 -31.5t42 -26.5l12 -11l-50 -76q-4 4 -12 10t-37 22.5t-62 29.5t-86.5 25t-111.5 15 v-497q97 -29 165 -59.5t121 -73t79 -99.5t26 -131q0 -141 -99.5 -231.5t-291.5 -100.5v-194h-80v194q-72 2 -137.5 17t-108.5 34.5t-75.5 39t-47.5 32.5l-14 13zM193 936q0 -91 68.5 -143t217.5 -99v473q-127 -9 -206.5 -69t-79.5 -162zM858 307q0 101 -72.5 159.5 t-226.5 108.5v-516q150 9 224.5 74.5t74.5 173.5z" />
<glyph unicode="%" horiz-adv-x="1325" d="M338 1255q117 0 183.5 -88t66.5 -217q0 -127 -67 -216t-183 -89q-118 0 -185 89t-67 216q0 129 67 217t185 88zM1202 1229l-975 -1229h-102l975 1229h102zM338 1180q-80 0 -125 -65t-45 -165q0 -97 45 -162t125 -65q79 0 123.5 65t44.5 162q0 99 -44.5 164.5t-123.5 65.5 zM985 594q117 0 184.5 -88t67.5 -217q0 -127 -68 -216t-184 -89t-184 89t-68 216q0 129 67.5 217t184.5 88zM985 518q-79 0 -123.5 -65t-44.5 -164q0 -97 44.5 -162.5t123.5 -65.5q80 0 124 65.5t44 162.5q0 100 -44 164.5t-124 64.5z" />
<glyph unicode="&#x26;" horiz-adv-x="1185" d="M1087 578q-24 -215 -135 -373l205 -205h-129l-131 135q-150 -160 -375 -160q-189 0 -303.5 93.5t-114.5 238.5q0 54 16 101t40 81.5t63.5 68t74.5 55.5t85 49l-16 16q-77 79 -113.5 146t-36.5 151q0 121 83.5 200.5t215.5 79.5t212.5 -76t80.5 -198q0 -43 -10.5 -80.5 t-32.5 -69t-45.5 -56.5t-60.5 -50.5t-66 -43t-72 -40.5l371 -377q92 140 108 334zM309 975q0 -71 30 -124t103 -128l19 -21q42 22 67 36t59 35.5t54.5 41t40 44.5t28.5 54t9 62q0 92 -55.5 147.5t-149.5 55.5q-89 0 -147 -56t-58 -147zM520 55q191 0 318 140l-396 403 q-55 -30 -93 -56t-74.5 -61t-55 -78t-18.5 -94q0 -112 92 -183t227 -71z" />
<glyph unicode="'" horiz-adv-x="337" d="M172 973h-53l33 428h100z" />
<glyph unicode="(" horiz-adv-x="542" d="M182 588q0 -95 14 -185.5t34.5 -159.5t53.5 -137t60 -112.5t64.5 -92.5t58 -70t49.5 -52l-53 -58q-36 36 -56.5 57.5t-65 75t-73 99t-66 119.5t-59 146.5t-37.5 169.5t-16 200t16 200t38 170t59 146t65.5 119t72.5 98.5t65.5 74l56.5 56.5l53 -57q-43 -44 -73.5 -78.5 t-84 -114.5t-88 -160t-61.5 -201.5t-27 -252.5z" />
<glyph unicode=")" horiz-adv-x="542" d="M360 588q0 95 -14 185t-34.5 159t-53 137t-59.5 112t-64.5 92t-58 70.5t-49.5 51.5l51 57q35 -33 57.5 -56t65.5 -74.5t73 -98t66.5 -119t59 -146t38 -170.5t15.5 -200t-15.5 -199.5t-38 -170t-59.5 -146.5t-66 -119.5t-73 -99t-66 -75t-57 -57.5l-51 58q34 35 59 63.5 t69 85.5t75.5 120t63.5 144.5t49 183t17 212.5z" />
<glyph unicode="*" horiz-adv-x="808" d="M375 1108l-275 57l33 101l252 -127l-29 286h99l-35 -286l256 127l33 -101l-275 -55l189 -217l-84 -59l-136 253l-135 -253l-82 59z" />
<glyph unicode="+" horiz-adv-x="991" d="M537 649h358v-78h-358v-360h-80v360h-361v78h361v373h80v-373z" />
<glyph unicode="," horiz-adv-x="403" d="M274 33q0 -101 -56.5 -170.5t-160.5 -89.5l-16 57q70 13 113 58t45 94q-30 2 -50 22t-20 49q0 31 21.5 52.5t50.5 21.5q31 0 52 -21.5t21 -52.5v-20z" />
<glyph unicode="-" horiz-adv-x="819" d="M129 508h559v-76h-559v76z" />
<glyph unicode="." horiz-adv-x="395" d="M197 -18q-30 0 -52 21t-22 50q0 30 22 52t52 22q31 0 52 -21.5t21 -52.5q0 -29 -21 -50t-52 -21z" />
<glyph unicode="/" horiz-adv-x="1105" d="M45 -227l920 1831h94l-918 -1831h-96z" />
<glyph unicode="0" horiz-adv-x="1198" d="M600 -29q-152 0 -266.5 86t-172 230t-57.5 323q0 184 58 329t171.5 230.5t266.5 85.5t266 -85.5t170.5 -230.5t57.5 -329q0 -134 -33.5 -250t-95.5 -203t-156 -136.5t-209 -49.5zM600 57q98 0 175.5 44.5t126 121t74 175.5t25.5 212q0 115 -25.5 215.5t-74 177.5 t-126 121.5t-175.5 44.5q-130 0 -223 -77.5t-136.5 -201.5t-43.5 -280q0 -113 25.5 -212t74.5 -175.5t127 -121t176 -44.5z" />
<glyph unicode="1" horiz-adv-x="557" d="M27 1229h376v-1229h-90v1145h-286v84z" />
<glyph unicode="2" horiz-adv-x="987" d="M98 66l543 548q73 73 102 136t29 143q0 121 -81.5 198.5t-215.5 77.5q-57 0 -112.5 -16t-93.5 -38t-68.5 -46t-44 -39t-15.5 -18l-53 69q6 7 17 19t48.5 42t79 52.5t107.5 41.5t135 19q182 0 285.5 -99t103.5 -259q0 -95 -32.5 -170t-110.5 -156l-485 -487h655v-84h-793 v66z" />
<glyph unicode="3" horiz-adv-x="993" d="M330 612v64l430 469h-649v84h768v-80l-416 -457h35q183 0 284 -88t101 -260q0 -161 -113 -267t-303 -106q-73 0 -138.5 17t-106.5 41t-72 48t-44 41l-14 17l55 64q4 -6 13 -15.5t39 -34t64 -43t88.5 -34t113.5 -15.5q152 0 240 81t88 210q0 126 -78.5 195t-227.5 69h-157 z" />
<glyph unicode="4" horiz-adv-x="1079" d="M51 375l694 854h70v-836h203v-86h-203v-307h-90v307h-674v68zM172 393h553v680l-535 -659l-18 -17v-4z" />
<glyph unicode="5" horiz-adv-x="972" d="M252 1145l-12 -451q101 29 227 29q193 0 304.5 -98.5t111.5 -264.5q0 -182 -114 -285.5t-302 -103.5q-72 0 -137 17t-106.5 41t-72.5 48t-45 41l-14 17l55 64q4 -6 13 -15.5t39 -34t64 -43t88.5 -34t113.5 -15.5q149 0 238.5 79.5t89.5 223.5q0 129 -90.5 205t-237.5 76 q-79 0 -151.5 -12.5t-106 -24.5t-33.5 -14l-22 18l16 621h661v-84h-577z" />
<glyph unicode="6" horiz-adv-x="1058" d="M199 604q0 -44 2 -67q47 97 141 154t221 57q180 0 292 -112.5t112 -270.5q0 -159 -116 -276.5t-292 -117.5q-205 0 -327.5 158t-122.5 475q0 165 37 292t102.5 204t148.5 116t181 39q72 0 134.5 -18t100.5 -43.5t66 -51t39 -43.5l12 -18l-56 -65q-4 6 -11.5 16.5t-35 37 t-58.5 46.5t-83 36.5t-108 16.5q-80 0 -146.5 -31.5t-119.5 -96.5t-83 -176.5t-30 -260.5zM563 662q-133 0 -230 -78t-114 -197q34 -168 124 -249t216 -81q133 0 225.5 89.5t92.5 218.5q0 125 -88.5 211t-225.5 86z" />
<glyph unicode="7" horiz-adv-x="866" d="M55 1229h785v-66l-551 -1163h-109l547 1145h-672v84z" />
<glyph unicode="8" horiz-adv-x="1040" d="M520 -29q-184 0 -299 104.5t-115 254.5q0 106 59.5 188t160.5 123q-90 40 -140.5 115t-50.5 168q0 144 105.5 237.5t279.5 93.5t278.5 -93.5t104.5 -237.5q0 -93 -50 -168.5t-140 -114.5q102 -41 161.5 -122.5t59.5 -188.5q0 -150 -115.5 -254.5t-298.5 -104.5zM520 678 q132 0 211.5 71t79.5 177q0 103 -80 173t-211 70q-133 0 -213 -70t-80 -173q0 -106 80 -177t213 -71zM842 330q0 117 -92 192.5t-230 75.5t-229.5 -75.5t-91.5 -192.5q0 -115 91 -194t230 -79t230.5 79t91.5 194z" />
<glyph unicode="9" horiz-adv-x="1060" d="M862 614q0 26 -4 88q-47 -98 -143.5 -156.5t-222.5 -58.5q-177 0 -290.5 110.5t-113.5 266.5q0 163 115 277t293 114q210 0 333 -157.5t123 -481.5q0 -322 -128 -483.5t-337 -161.5q-49 0 -94.5 8.5t-79 22.5t-62.5 31t-48.5 34t-33 31t-19.5 22l-7 9l56 66q4 -6 12 -15 t35.5 -33t58 -42t80 -33t102.5 -15q174 0 276.5 137t98.5 420zM492 573q135 0 232 78.5t112 198.5q-35 164 -124.5 241.5t-215.5 77.5q-135 0 -226.5 -87.5t-91.5 -217.5q0 -123 90.5 -207t223.5 -84z" />
<glyph unicode=":" horiz-adv-x="405" d="M174 750q-18 10 -22.5 31t6.5 40q10 19 32 24.5t41 -5.5q19 -12 24 -33.5t-7 -40.5q-10 -20 -32 -24t-42 8zM174 18q-18 10 -22.5 32t6.5 40q10 20 32.5 25t40.5 -6q19 -12 24 -33.5t-7 -40.5q-10 -18 -32 -23t-42 6z" />
<glyph unicode=";" horiz-adv-x="481" d="M252 721q-29 0 -51.5 21.5t-22.5 50.5q0 30 22 51.5t52 21.5q31 0 52.5 -21t21.5 -52q0 -29 -21.5 -50.5t-52.5 -21.5zM326 43q0 -103 -56.5 -172.5t-160.5 -89.5l-17 57q71 14 113.5 58t44.5 94q-30 2 -51 22.5t-21 50.5q0 29 22.5 51.5t51.5 22.5q30 0 52 -22t22 -52 v-20z" />
<glyph unicode="&#x3c;" horiz-adv-x="770" d="M86 627l543 413v-100l-447 -340l447 -342v-100l-543 413v56z" />
<glyph unicode="=" horiz-adv-x="937" d="M135 831h668v-77h-668v77zM135 440h668v-78h-668v78z" />
<glyph unicode="&#x3e;" horiz-adv-x="770" d="M682 571l-543 -413v100l449 342l-449 340v100l543 -413v-56z" />
<glyph unicode="?" horiz-adv-x="841" d="M61 1147q5 4 13.5 11t39 24t64.5 30t88.5 24t112.5 11q179 0 283 -83.5t104 -229.5q0 -61 -18 -113t-47.5 -88.5t-65 -69t-71.5 -61t-65.5 -57t-49 -65t-21.5 -77.5l-4 -108h-59v125q0 52 23 98t57 78.5t74.5 69.5t74.5 71t57 84t23 107q0 106 -79 170.5t-216 64.5 q-49 0 -96 -9.5t-78.5 -22.5t-56.5 -26t-36 -23l-12 -9zM322 51q0 31 21.5 52.5t53.5 21.5q31 0 52.5 -21.5t21.5 -52.5q0 -32 -21.5 -55t-52.5 -23q-32 0 -53.5 22.5t-21.5 55.5z" />
<glyph unicode="@" horiz-adv-x="2048" d="M1528 104q-112 0 -184 64.5t-80 163.5h-17q-45 -87 -130.5 -148t-207.5 -61q-152 0 -250 104t-98 275q0 228 132 370t321 142q123 0 195.5 -55.5t101.5 -131.5l37 170h65l-63 -516q-7 -47 -7 -106q0 -87 53.5 -141t137.5 -54q149 0 239.5 131t90.5 336q0 121 -37 237 t-109 215.5t-170.5 175t-229.5 118.5t-278 43q-189 0 -354 -70t-278 -188.5t-177.5 -276t-64.5 -330.5t66.5 -332.5t180 -277t275.5 -188t344 -70.5q77 0 150 12t123 29.5t89 34.5t58 29l18 12l37 -68q-7 -5 -20 -13.5t-59 -30t-97 -38t-132.5 -30t-166.5 -13.5 q-163 0 -311.5 50t-262 139t-198 206.5t-128.5 258t-44 288.5q0 151 44 292t128.5 258.5t199 205.5t264.5 137t316 49q192 0 362 -69t289.5 -185t189 -275t69.5 -333q0 -152 -50.5 -275t-147.5 -196.5t-224 -73.5zM932 201q158 0 255 133t97 340q0 111 -73.5 186.5 t-194.5 75.5q-151 0 -258 -118.5t-107 -307.5q0 -144 78 -226.5t203 -82.5z" />
<glyph unicode="A" d="M1155 0h-94l-133 322h-660l-133 -322h-94l514 1229h86zM303 406h590l-295 712z" />
<glyph unicode="B" horiz-adv-x="1224" d="M1122 332q0 -164 -113 -248t-304 -84h-523v1229h494q191 0 298 -85t107 -245q0 -105 -52.5 -174.5t-145.5 -99.5v-7q109 -27 174 -100.5t65 -185.5zM989 895q0 126 -84.5 188t-228.5 62h-404v-486h404q149 0 231 61.5t82 174.5zM272 575v-491h437q144 0 232.5 64.5 t88.5 187.5q0 113 -87.5 174.5t-227.5 64.5h-443z" />
<glyph unicode="C" horiz-adv-x="1169" d="M1104 135q-5 -7 -16 -18t-48.5 -39t-80.5 -50t-113 -39.5t-146 -17.5q-174 0 -313 84.5t-216 230.5t-77 324q0 182 77 329t216 231.5t313 84.5q76 0 145 -16.5t114.5 -40.5t79.5 -47.5t49 -40.5l16 -16l-51 -68q-5 6 -15 15.5t-44 34t-71.5 43.5t-97.5 34.5t-123 15.5 q-150 0 -269 -76.5t-183 -204t-64 -278.5q0 -149 64 -274.5t183.5 -202t268.5 -76.5q63 0 122.5 15t99 37t70 44t44.5 37l15 15z" />
<glyph unicode="D" horiz-adv-x="1286" d="M1190 614q0 -188 -83 -328.5t-226 -213t-326 -72.5h-373v1229h373q183 0 326 -72.5t226 -213.5t83 -329zM272 1145v-1061h281q114 0 213 36.5t173 103.5t116.5 167.5t42.5 222.5q0 162 -73.5 284t-196.5 184.5t-275 62.5h-281z" />
<glyph unicode="E" horiz-adv-x="1105" d="M920 580h-648v-496h746v-84h-836v1229h836v-84h-746v-481h648v-84z" />
<glyph unicode="F" horiz-adv-x="1075" d="M918 580h-646v-580h-90v1229h836v-84h-746v-481h646v-84z" />
<glyph unicode="G" horiz-adv-x="1312" d="M664 655h571v-71q0 -285 -143.5 -449t-393.5 -164q-135 0 -248.5 49.5t-190.5 135t-120 203t-43 251.5q0 137 43.5 255.5t121.5 204.5t192 135.5t249 49.5q60 0 116 -9t98 -23.5t79 -31.5t62 -34.5t43 -32t26 -23.5l9 -9l-54 -68q-5 6 -15.5 15.5t-46.5 34.5t-76.5 44.5 t-106 35t-134.5 15.5q-158 0 -276.5 -77t-178 -203t-59.5 -279q0 -112 34.5 -212t98.5 -176t161.5 -120.5t215.5 -44.5q200 0 322 130t125 352v32h-481v84z" />
<glyph unicode="H" horiz-adv-x="1308" d="M1126 0h-90v571h-764v-571h-90v1229h90v-574h764v574h90v-1229z" />
<glyph unicode="I" horiz-adv-x="454" d="M272 0h-90v1229h90v-1229z" />
<glyph unicode="J" horiz-adv-x="856" d="M88 133q10 -8 28 -20.5t75.5 -33t117.5 -20.5q289 0 289 338v832h90v-848q0 -208 -98 -308t-275 -100q-49 0 -94.5 9t-76 21t-54.5 25.5t-35 22t-12 10.5z" />
<glyph unicode="K" horiz-adv-x="1132" d="M272 498l715 731h100v-19l-477 -489l480 -703v-18h-91q-346 503 -452 655l-275 -280v-375h-90v1229h90v-731z" />
<glyph unicode="L" horiz-adv-x="989" d="M182 0v1229h90v-1145h672v-84h-762z" />
<glyph unicode="M" horiz-adv-x="1478" d="M1206 1071l-446 -586h-41l-447 584v-1069h-90v1229h78l479 -629l482 629h77v-1229h-92v1071z" />
<glyph unicode="N" horiz-adv-x="1359" d="M1180 0h-80l-828 1081v-1081h-90v1229h80l828 -1079v1079h90v-1229z" />
<glyph unicode="O" horiz-adv-x="1390" d="M694 -29q-133 0 -245.5 49.5t-189.5 135t-120 203t-43 251.5q0 137 43 255.5t120 204.5t189.5 135.5t245.5 49.5q179 0 316.5 -84.5t210.5 -231t73 -329.5q0 -180 -73 -325t-211 -229.5t-316 -84.5zM694 57q117 0 214.5 44.5t161 120.5t98 176t34.5 212q0 114 -34.5 215 t-98 178t-160.5 121.5t-215 44.5q-154 0 -270.5 -77t-176 -203t-59.5 -279q0 -112 35 -212t98.5 -176t160 -120.5t212.5 -44.5z" />
<glyph unicode="P" horiz-adv-x="1167" d="M639 1229q215 0 337 -109t122 -295q0 -191 -123.5 -303t-339.5 -112h-363v-410h-90v1229h457zM1008 823q0 149 -101 235.5t-270 86.5h-365v-651h365q170 0 270.5 87t100.5 242z" />
<glyph unicode="Q" horiz-adv-x="1390" d="M694 -29q-133 0 -245.5 49.5t-189.5 135t-120 203t-43 251.5q0 137 43 255.5t120 204.5t189.5 135.5t245.5 49.5q179 0 316.5 -84.5t210.5 -231t73 -329.5q0 -208 -98.5 -368.5t-269.5 -227.5l164 -264h-105l-145 238q-76 -17 -146 -17zM694 57q117 0 214.5 44.5 t161 120.5t98 176t34.5 212q0 114 -34.5 215t-98 178t-160.5 121.5t-215 44.5q-154 0 -270.5 -77t-176 -203t-59.5 -279q0 -112 35 -212t98.5 -176t160 -120.5t212.5 -44.5z" />
<glyph unicode="R" horiz-adv-x="1210" d="M637 1229q218 0 339.5 -106t121.5 -298q0 -151 -82.5 -250.5t-222.5 -132.5v-4l325 -413v-25h-92l-338 428h-416v-428h-90v1229h455zM1006 823q0 155 -99 238.5t-270 83.5h-365v-633h387q155 0 251 81t96 230z" />
<glyph unicode="S" horiz-adv-x="1034" d="M145 180q5 -5 15 -13.5t44.5 -29.5t73.5 -37t101.5 -29.5t128.5 -13.5q176 0 262 66.5t86 183.5q0 46 -16 83t-42.5 64.5t-73 52.5t-95.5 43t-121 40q-82 25 -136.5 45.5t-111 50t-89 63t-53 80.5t-20.5 105q0 149 115.5 235t306.5 86q79 0 148.5 -11.5t112.5 -28.5 t75 -34t46 -29l13 -11l-49 -76q-5 4 -14 11t-41 25t-68.5 32t-97 25t-125.5 11q-142 0 -236 -61t-94 -172q0 -41 16.5 -75t42.5 -58t74 -47.5t94.5 -40t119.5 -39.5q103 -30 173.5 -60.5t127 -73.5t83.5 -101t27 -134q0 -150 -111.5 -242t-328.5 -92q-77 0 -148 14 t-117.5 34.5t-81.5 41t-51 34.5l-16 14z" />
<glyph unicode="T" horiz-adv-x="1038" d="M49 1229h940v-84h-426v-1145h-90v1145h-424v84z" />
<glyph unicode="U" horiz-adv-x="1284" d="M641 -27q-224 0 -350.5 145t-126.5 390v721h90v-721q0 -207 100 -329t287 -122q190 0 288.5 121.5t98.5 329.5v721h90v-721q0 -246 -125 -390.5t-352 -144.5z" />
<glyph unicode="V" d="M41 1229h94l463 -1118l463 1118h94l-514 -1229h-86z" />
<glyph unicode="W" horiz-adv-x="1611" d="M805 1085l-307 -1085h-78l-371 1229h92l314 -1086l307 1086h88l305 -1086l313 1086h95l-371 -1229h-78z" />
<glyph unicode="X" horiz-adv-x="1046" d="M584 631l428 -631h-109l-336 498l-45 77l-45 -77l-336 -498h-104l422 631l-406 598h109l325 -479l37 -66l37 66l324 479h106z" />
<glyph unicode="Y" horiz-adv-x="1099" d="M950 1229h105l-461 -758v-471h-90v473l-459 756h107l362 -608l33 -68h6l37 68z" />
<glyph unicode="Z" horiz-adv-x="1054" d="M66 63l804 1082h-790v84h913v-64l-800 -1081h778v-84h-905v63z" />
<glyph unicode="[" horiz-adv-x="591" d="M139 1434h420v-78h-332v-1544h332v-78h-420v1700z" />
<glyph unicode="\" horiz-adv-x="688" d="M76 1636h90l446 -1898h-90z" />
<glyph unicode="]" horiz-adv-x="591" d="M31 -188h334v1544h-334v78h422v-1700h-422v78z" />
<glyph unicode="^" horiz-adv-x="835" d="M418 1317l-221 -299h-82l270 375h68l268 -375h-82z" />
<glyph unicode="_" horiz-adv-x="1099" d="M96 -82h905v-78h-905v78z" />
<glyph unicode="`" horiz-adv-x="530" d="M160 1294l114 17l113 -293h-63z" />
<glyph unicode="a" horiz-adv-x="950" d="M809 0h-61l-13 152h-6q-44 -75 -131 -123.5t-199 -48.5q-157 0 -242 75.5t-85 190.5q0 120 96.5 196t286.5 76q158 0 270 -53v53q0 137 -72 210t-217 73q-62 0 -126.5 -18t-97.5 -36l-34 -18l-35 76q5 3 14.5 8t41 18.5t65 23.5t83.5 18t99 8q185 0 274 -98t89 -267v-516 zM725 389q-117 60 -262 60q-156 0 -228.5 -55t-72.5 -146q0 -84 63.5 -139.5t184.5 -55.5q132 0 223.5 81t91.5 165v90z" />
<glyph unicode="b" horiz-adv-x="1075" d="M150 1239h88v-561h4q3 8 9.5 22t33.5 49t62 61.5t98 48.5t137 22q170 0 285.5 -126.5t115.5 -324.5q0 -199 -115.5 -324.5t-287.5 -125.5q-55 0 -104 11.5t-83.5 30t-63 41t-46.5 45t-30 41t-17 29.5l-5 12h-4l-12 -190h-65v1239zM233 430q0 -87 27.5 -158.5t73.5 -118.5 t106.5 -72.5t126.5 -25.5q138 0 232 105.5t94 269.5t-94 269.5t-232 105.5q-66 0 -126.5 -25.5t-106.5 -72.5t-73.5 -118.5t-27.5 -158.5z" />
<glyph unicode="c" horiz-adv-x="856" d="M512 -20q-184 0 -303 122.5t-119 323.5q0 203 119 329t303 126q50 0 95 -8t74.5 -19.5t51.5 -23t31 -19.5l10 -8l-31 -68q-10 8 -28.5 19.5t-78 31t-122.5 19.5q-138 0 -236 -103.5t-98 -275.5q0 -171 97.5 -271t236.5 -100q63 0 120 17.5t83 35.5l26 17l29 -68 q-3 -3 -10 -8.5t-31 -18.5t-51.5 -23t-73 -18.5t-94.5 -8.5z" />
<glyph unicode="d" horiz-adv-x="1075" d="M838 684v555h88v-1239h-64l-14 186h-4q-3 -8 -10 -22t-35.5 -49.5t-64 -62.5t-99 -49.5t-137.5 -22.5q-173 0 -290.5 125.5t-117.5 324.5q0 198 117 324.5t289 126.5q73 0 135 -20.5t98 -49.5t61 -57.5t34 -49.5l10 -20h4zM844 430q0 172 -98 273.5t-238 101.5 q-139 0 -233.5 -105.5t-94.5 -269.5t94.5 -269.5t233.5 -105.5q140 0 238 101.5t98 273.5z" />
<glyph unicode="e" horiz-adv-x="940" d="M813 74q-4 -4 -12 -10t-36.5 -22.5t-60.5 -29t-84 -22.5t-108 -10q-189 0 -304.5 121.5t-115.5 324.5q0 207 110 331t285 124t273 -115.5t98 -304.5v-23h-678v-12q0 -173 95.5 -272t240.5 -99q47 0 91 9t73.5 21.5t52 25t33.5 21.5l10 9zM485 803q-119 0 -199 -75 t-100 -216h582q-11 131 -84 211t-199 80z" />
<glyph unicode="f" horiz-adv-x="581" d="M39 786v74h166v98q0 136 75.5 214.5t200.5 78.5q44 0 82.5 -7t54.5 -14l17 -7l-29 -74q-51 25 -127 25q-83 0 -134.5 -55.5t-51.5 -157.5v-101h264v-74h-264v-786h-88v786h-166z" />
<glyph unicode="g" horiz-adv-x="937" d="M698 788v-6q4 -1 10.5 -4.5t23 -18.5t29.5 -34.5t23.5 -56.5t10.5 -82q0 -116 -86 -200.5t-234 -84.5q-120 0 -201 59q-56 -19 -81 -44t-25 -62q0 -34 25.5 -58t101.5 -41.5t205 -21.5q201 -4 299 -69.5t98 -178.5t-111.5 -188.5t-304.5 -75.5q-196 0 -297.5 65 t-101.5 177q0 147 184 219q-103 24 -140.5 68t-37.5 104q0 101 133 156q-59 74 -59 178q0 122 84 205.5t229 83.5q60 0 113 -17h297v-72h-187zM475 805q-109 0 -173 -63t-64 -154t64 -152t173 -61q112 0 177 61t65 152q0 92 -65.5 154.5t-176.5 62.5zM500 57q-70 0 -125 6 q-114 -38 -160.5 -87t-46.5 -113q0 -78 80 -123t233 -45q158 0 243 52t85 138q0 75 -78 123t-231 49z" />
<glyph unicode="h" horiz-adv-x="1038" d="M150 1239h88v-516h4q1 2 15 19t24.5 27.5t30 29t42 31t51 25.5t64.5 19.5t76 6.5q167 0 261.5 -111.5t94.5 -290.5v-479h-88v469q0 149 -74 242.5t-211 93.5q-72 0 -129.5 -28t-90.5 -72t-50.5 -90t-19.5 -89v-526h-88v1239z" />
<glyph unicode="i" horiz-adv-x="397" d="M199 1100q-30 0 -51 20t-21 49t21.5 49.5t50.5 20.5t49 -20.5t20 -49.5t-20 -49t-49 -20zM154 860h88v-860h-88v860z" />
<glyph unicode="j" horiz-adv-x="397" d="M199 1100q-30 0 -51 20t-21 49t21.5 49.5t50.5 20.5t49 -20.5t20 -49.5t-20 -49t-49 -20zM6 -244h21q127 0 127 144v960h88v-964q0 -108 -48.5 -161.5t-152.5 -53.5h-35v75z" />
<glyph unicode="k" horiz-adv-x="876" d="M838 860l-410 -366l420 -494h-113l-370 436l-127 -114v-322h-88v1239h88v-801h2l479 422h119z" />
<glyph unicode="l" horiz-adv-x="403" d="M158 1239h88v-1239h-88v1239z" />
<glyph unicode="m" horiz-adv-x="1691" d="M150 860h63l12 -155h6l11 17q12 17 17.5 23t20.5 24t27 27.5t31.5 25t40 24t46 18t55.5 13.5t63 4q121 0 205 -55t120 -150h9q1 2 16.5 28.5t27.5 43.5t40 45t58 45t78.5 30t104.5 13q166 0 259 -111t93 -291v-479h-88v471q0 148 -72 241t-208 93q-73 0 -130.5 -29.5 t-90 -76t-49.5 -95.5t-19 -96v-508h-88v514q0 128 -73.5 209.5t-209.5 81.5q-59 0 -108 -19t-81 -48.5t-54.5 -67t-33 -73.5t-11.5 -69v-528h-88v860z" />
<glyph unicode="n" horiz-adv-x="1038" d="M238 0h-88v860h63l12 -155h6q14 22 23 34.5t38.5 43t60.5 49t83 34t111 15.5q166 0 260 -111.5t94 -290.5v-479h-88v471q0 148 -74 241t-211 93q-59 0 -109 -19.5t-82.5 -50.5t-55.5 -70t-33 -75.5t-10 -69.5v-520z" />
<glyph unicode="o" horiz-adv-x="1028" d="M938 426q0 -202 -122 -324t-302 -122q-182 0 -303 122t-121 324t122 328.5t302 126.5q179 0 301.5 -127t122.5 -328zM514 53q138 0 237 102.5t99 270.5q0 169 -99.5 275t-236.5 106t-236.5 -106t-99.5 -275q0 -168 99 -270.5t237 -102.5z" />
<glyph unicode="p" horiz-adv-x="1075" d="M238 176v-495h-88v1179h63l14 -180h9q2 4 5.5 11.5t17 28t30 39.5t45.5 42.5t62.5 40t81.5 28t102 11.5q172 0 287.5 -126t115.5 -325q0 -198 -115.5 -324t-285.5 -126q-74 0 -136.5 20t-98.5 49t-61.5 58t-34.5 49l-9 20h-4zM233 430q0 -87 27.5 -158.5t73.5 -118.5 t106.5 -72.5t126.5 -25.5q138 0 232 105.5t94 269.5t-94 269.5t-232 105.5q-66 0 -126.5 -25.5t-106.5 -72.5t-73.5 -118.5t-27.5 -158.5z" />
<glyph unicode="q" horiz-adv-x="1075" d="M926 -319h-88v501h-4q-3 -8 -9.5 -21.5t-33 -48.5t-61 -61.5t-97.5 -48.5t-137 -22q-172 0 -289 126t-117 324q0 199 117.5 325t290.5 126q55 0 103.5 -11.5t82 -30t62 -41t45.5 -45.5t29 -41.5t17 -29.5l5 -12h4l14 190h66v-1179zM844 430q0 172 -98 273.5t-238 101.5 q-139 0 -233.5 -105.5t-94.5 -269.5t94.5 -269.5t233.5 -105.5q140 0 238 101.5t98 273.5z" />
<glyph unicode="r" horiz-adv-x="550" d="M528 786h-39q-111 0 -179.5 -79t-71.5 -195v-512h-88v860h63l12 -166h4q8 17 19 34.5t33.5 42.5t50 43.5t69 32t88.5 13.5h39v-74z" />
<glyph unicode="s" horiz-adv-x="819" d="M129 137q5 -3 13.5 -8.5t37 -19.5t60 -24.5t79 -19t95.5 -8.5q122 0 182.5 45.5t60.5 118.5q0 48 -31.5 82t-81.5 53.5t-110 35t-120.5 33.5t-110.5 43t-81.5 70.5t-31.5 108.5q0 107 78.5 170.5t230.5 63.5q88 0 165 -17t110 -34l33 -17l-35 -78q-11 8 -32.5 19 t-91.5 30t-145 19q-231 0 -231 -154q0 -47 31.5 -78.5t81.5 -48.5t110.5 -31t120.5 -32t110 -44t81.5 -74t31.5 -116q0 -109 -78 -176t-245 -67q-62 0 -119 9.5t-93.5 22.5t-64 26t-39.5 22l-12 10z" />
<glyph unicode="t" horiz-adv-x="608" d="M199 860v262h88v-262h264v-74h-264v-569q0 -160 145 -160q31 0 63 9.5t48 18.5l16 9l29 -67q-7 -5 -19.5 -13t-55.5 -21t-89 -13q-110 0 -167.5 62.5t-57.5 172.5v571h-166v74h166z" />
<glyph unicode="u" horiz-adv-x="1030" d="M879 0h-58l-18 154h-4q-31 -52 -65 -84q-99 -90 -251 -90q-166 0 -256 110.5t-90 290.5v479h88v-471q0 -149 69 -241.5t204 -92.5q73 0 131 28t91.5 71.5t51 89t19.5 88.5v528h88v-860z" />
<glyph unicode="v" horiz-adv-x="927" d="M494 0h-60l-397 860h100l309 -706q15 -30 15 -52h6q0 20 16 52l310 706h98z" />
<glyph unicode="w" horiz-adv-x="1320" d="M967 0h-86l-209 715q-8 20 -8 41h-7q0 -16 -10 -41l-209 -715h-82l-307 860h94l234 -706q12 -32 12 -52h10q0 4 3 13.5t6.5 21t5.5 17.5l209 706h82l206 -706q13 -35 13 -52h10q0 15 14 52l236 706h88z" />
<glyph unicode="x" horiz-adv-x="854" d="M373 453l-305 407h104l252 -352h6l254 352h102l-305 -405l336 -455h-106l-281 397h-6l-285 -397h-102z" />
<glyph unicode="y" horiz-adv-x="903" d="M295 -319h-94l215 415l-383 764h100l311 -635q15 -40 15 -51h6q0 19 12 51l311 635h91z" />
<glyph unicode="z" horiz-adv-x="849" d="M655 784h-575v76h692v-51l-573 -733h573v-76h-694v53z" />
<glyph unicode="{" horiz-adv-x="485" d="M80 635q59 0 96 49t37 139v432q0 95 43 147t135 62l12 -78q-54 -8 -76 -39t-22 -106v-420q0 -186 -108 -225v-14q108 -36 108 -222v-430q0 -74 22.5 -105.5t75.5 -39.5l-12 -76q-92 9 -135 60.5t-43 146.5v442q0 89 -37 140t-96 51h-33v86h33z" />
<glyph unicode="|" horiz-adv-x="364" d="M223 -262h-84v1669h84v-1669z" />
<glyph unicode="}" horiz-adv-x="485" d="M436 635v-86h-33q-58 0 -94.5 -51t-36.5 -140v-442q0 -95 -43 -146.5t-135 -60.5l-14 76q55 8 76.5 39.5t21.5 105.5v430q0 87 28.5 145.5t82.5 76.5v14q-111 40 -111 225v420q0 75 -21.5 106t-76.5 39l14 78q92 -10 135 -62t43 -147v-432q0 -90 36 -139t95 -49h33z" />
<glyph unicode="~" horiz-adv-x="935" d="M614 616q44 0 83 11.5t56 22.5l17 12l33 -56q-7 -7 -21 -18t-63 -29t-105 -18q-52 0 -142 30.5t-150 30.5q-44 0 -83 -11t-56 -23l-17 -11l-31 55q7 7 21 18t62.5 29.5t103.5 18.5q52 0 142 -31t150 -31z" />
<glyph unicode="&#xa1;" horiz-adv-x="364" d="M109 807q0 32 21 55t52 23t53.5 -23t22.5 -55q0 -31 -22.5 -53.5t-53.5 -22.5q-30 0 -51.5 22.5t-21.5 53.5zM236 -360h-107l23 923h59z" />
<glyph unicode="&#xa2;" horiz-adv-x="884" d="M393 174q-135 39 -216 152.5t-81 277.5q0 200 117 325t297 130l22 170h72l-22 -174q57 -6 107 -24t71 -33l22 -15l-28 -70q-8 6 -22.5 15.5t-62.5 27.5t-98 23l-98 -739q32 -4 51 -4q63 0 120.5 17t83.5 33l26 17l26 -67q-4 -3 -11 -8.5t-32 -19t-52.5 -23.5t-72 -18.5 t-90.5 -8.5q-19 0 -59 4l-21 -162h-71zM186 604q0 -129 61 -220t159 -128l94 725q-131 -9 -222.5 -112t-91.5 -265z" />
<glyph unicode="&#xa3;" horiz-adv-x="1015" d="M889 0h-750v84h2l-2 2q5 3 13.5 8.5t30 27.5t38 48t30 71t13.5 95q0 18 -2.5 37.5t-8 46t-9.5 42.5t-13.5 51.5t-13.5 49.5h-133v74h113q-25 112 -25 209q0 77 26 146.5t75.5 126t131.5 89.5t185 33q64 0 121.5 -14t94 -33.5t63.5 -39.5t39 -34l12 -14l-58 -66 q-4 5 -11 12.5t-33 27.5t-55 35t-76.5 27.5t-98.5 12.5q-80 0 -142.5 -25.5t-100 -69.5t-56.5 -99.5t-19 -118.5q0 -84 27 -205h487v-74h-469q4 -17 14.5 -59t15 -61.5t9 -49.5t4.5 -53q0 -154 -98 -256h629v-84z" />
<glyph unicode="&#xa5;" horiz-adv-x="1142" d="M973 1229h104l-418 -686h314v-76h-357v-180h357v-76h-357v-211h-90v211h-360v76h360v180h-360v76h317l-415 686h106l363 -608l32 -68h6l37 68z" />
<glyph unicode="&#xa6;" horiz-adv-x="372" d="M145 676v702h84v-702h-84zM145 -313v702h84v-702h-84z" />
<glyph unicode="&#xa7;" horiz-adv-x="1036" d="M143 160q5 -4 15.5 -11t46.5 -24.5t76.5 -30.5t104.5 -24t132 -11q166 0 246 46t80 120q0 78 -63.5 118.5t-262.5 102.5q-156 45 -223.5 95t-67.5 118q0 83 78 123q-192 81 -192 222q0 113 106.5 182t312.5 69q76 0 144.5 -9.5t111.5 -22.5t75.5 -26t46.5 -23l14 -9 l-52 -75q-5 3 -13.5 9t-40 20.5t-68 25.5t-95.5 20t-123 9q-159 0 -238 -44.5t-79 -121.5q0 -72 66.5 -117.5t214.5 -85.5q331 -91 331 -232q0 -79 -69 -127q97 -44 141.5 -96.5t44.5 -124.5q0 -107 -104.5 -179.5t-319.5 -72.5q-81 0 -155 11.5t-122 27.5t-84 32.5 t-53 27.5l-16 12zM465 729q-11 2 -82 25q-24 -9 -45 -30.5t-21 -59.5q0 -40 52 -72t182 -70l131 -45q53 35 53 94q0 45 -64.5 82t-205.5 76z" />
<glyph unicode="&#xa8;" horiz-adv-x="854" d="M170 1444q0 31 22.5 53.5t51.5 22.5q30 0 52.5 -23t22.5 -53t-22.5 -53t-52.5 -23q-29 0 -51.5 22.5t-22.5 53.5zM465 1444q0 31 22.5 53.5t53.5 22.5q29 0 51 -22.5t22 -53.5t-22 -53.5t-51 -22.5q-31 0 -53.5 22.5t-22.5 53.5z" />
<glyph unicode="&#xa9;" horiz-adv-x="1425" d="M713 1233q185 0 326 -84.5t213.5 -225t72.5 -311.5t-72.5 -311t-213.5 -224.5t-326 -84.5q-183 0 -324.5 84.5t-215 224.5t-73.5 311q0 127 43.5 240.5t121 197.5t194 133.5t254.5 49.5zM713 1171q-124 0 -227.5 -44t-172.5 -119.5t-107 -177.5t-38 -218q0 -115 38 -217 t107 -178t172.5 -120t227.5 -44t228 44t174 120t108.5 178t38.5 217q0 116 -38.5 218t-108.5 177.5t-174 119.5t-228 44zM901 817q-2 3 -7 7t-21.5 15t-35 19.5t-49 15.5t-63.5 7q-117 0 -186.5 -76.5t-69.5 -190.5t69.5 -190t186.5 -76q49 0 93 16t64 32l19 16l37 -54 q-3 -3 -8.5 -8t-25 -18t-42.5 -23t-60.5 -18t-78.5 -8q-150 0 -238 94.5t-88 236.5t88.5 238t237.5 96q42 0 79.5 -8t61.5 -19.5t41.5 -23t24.5 -19.5l8 -8z" />
<glyph unicode="&#xaa;" horiz-adv-x="825" d="M92 760q0 98 76 156.5t203 58.5q174 0 239 -88v53q0 121 -48 184.5t-173 63.5q-28 0 -56 -3.5t-49 -8.5t-41 -11.5t-32 -12t-21 -9.5l-10 -4l-26 65q13 6 35 15t86.5 23.5t123.5 14.5q83 0 141 -23t90 -67t46 -99.5t14 -129.5v-377h-55l-14 98h-5q-58 -114 -256 -114 q-120 0 -194 59t-74 156zM170 760q0 -70 56 -112t149 -42q108 0 171.5 47.5t63.5 110.5v6q-3 63 -66.5 103t-162.5 40q-97 0 -154 -41.5t-57 -111.5z" />
<glyph unicode="&#xab;" horiz-adv-x="837" d="M96 446l226 351h79v-17l-221 -348v-6l221 -354v-17h-79l-226 353v38zM424 446l225 351h80v-17l-221 -348v-6l221 -354v-17h-80l-225 353v38z" />
<glyph unicode="&#xac;" horiz-adv-x="1134" d="M109 709h882v-709h-78v631h-804v78z" />
<glyph unicode="&#xad;" horiz-adv-x="819" d="M129 508h559v-76h-559v76z" />
<glyph unicode="&#xae;" horiz-adv-x="1146" d="M1038 778q0 -130 -55.5 -237t-163.5 -171.5t-248 -64.5q-105 0 -193 38t-146 102.5t-90.5 150.5t-32.5 182q0 130 54.5 237t161.5 172.5t246 65.5q140 0 248 -65t163.5 -172.5t55.5 -237.5zM973 778q0 176 -111.5 294t-290.5 118q-177 0 -286 -117t-109 -295 q0 -174 109.5 -292.5t285.5 -118.5q180 0 291 118t111 293zM584 993q77 0 120.5 -38t43.5 -101q0 -91 -84 -129l96 -129v-16h-55l-101 131h-143v-131h-58v413h181zM461 938v-172h121q50 0 78 24t28 64q0 39 -26.5 61.5t-77.5 22.5h-123z" />
<glyph unicode="&#xaf;" horiz-adv-x="1034" d="M254 1434h545v-66h-545v66z" />
<glyph unicode="&#xb0;" horiz-adv-x="634" d="M317 1374q101 0 164.5 -61.5t63.5 -155.5t-63.5 -155.5t-164.5 -61.5t-165 62t-64 155t64 155t165 62zM317 1317q-73 0 -119 -46t-46 -114q0 -67 45.5 -112.5t119.5 -45.5q73 0 118.5 45.5t45.5 112.5q0 68 -45.5 114t-118.5 46z" />
<glyph unicode="&#xb1;" horiz-adv-x="1120" d="M526 371v374h-374v78h374v379h78v-379h365v-78h-365v-374h-78zM969 139h-817v78h817v-78z" />
<glyph unicode="&#xb2;" horiz-adv-x="733" d="M115 758l315 270q86 74 86 152q0 65 -40.5 103t-125.5 38q-49 0 -97 -20t-65.5 -33t-25.5 -21l-37 53q4 3 10.5 9t29 21t47.5 26t63 20.5t77 9.5q121 0 177.5 -56t56.5 -148q0 -115 -103 -199l-260 -219h391v-64h-499v58z" />
<glyph unicode="&#xb3;" horiz-adv-x="700" d="M121 1368h450v-57l-174 -217q97 -5 151 -56t54 -141q0 -93 -66 -153t-190 -60q-41 0 -81.5 9.5t-68 22t-52 28t-33.5 23t-13 11.5l41 51q9 -9 26.5 -22.5t71.5 -36t109 -22.5q89 0 136.5 42.5t47.5 108.5q0 65 -42 101t-121 36h-64v51l180 218h-362v63z" />
<glyph unicode="&#xb4;" horiz-adv-x="524" d="M211 1018h-64l113 293l115 -17z" />
<glyph unicode="&#xb5;" horiz-adv-x="1007" d="M872 0h-57l-18 154h-4q-31 -52 -65 -84q-99 -90 -251 -90q-170 0 -260 114l2 -426h-86v662q-2 16 -2 51v479h88v-471q0 -149 69 -241.5t204 -92.5q73 0 131 28t91 71.5t50.5 89t19.5 88.5v528h88v-860z" />
<glyph unicode="&#xb6;" horiz-adv-x="1013" d="M772 344h-190q-236 0 -375 118t-139 333q0 207 137.5 321.5t374.5 114.5h282v-1399h-90v512z" />
<glyph unicode="&#xb7;" horiz-adv-x="403" d="M125 737q0 32 22.5 55t53.5 23q32 0 55 -23t23 -55t-22.5 -53.5t-55.5 -21.5q-31 0 -53.5 21.5t-22.5 53.5z" />
<glyph unicode="&#xb8;" horiz-adv-x="421" d="M139 -98l47 104h62l-35 -78q64 0 102.5 -33t38.5 -96q0 -61 -42 -99t-117 -38q-40 0 -74.5 13t-48.5 25l-15 13l29 43q5 -4 13.5 -10.5t37 -17.5t58.5 -11q47 0 74.5 22t27.5 62q0 36 -27 57t-71 21l-39 -4z" />
<glyph unicode="&#xb9;" horiz-adv-x="417" d="M47 1368h232v-668h-72v605h-160v63z" />
<glyph unicode="&#xba;" horiz-adv-x="858" d="M430 1255q149 0 242.5 -96t93.5 -258q0 -157 -94 -252.5t-242 -95.5t-243 96t-95 252q0 162 94.5 258t243.5 96zM430 1184q-115 0 -186.5 -76.5t-71.5 -204.5q0 -126 71.5 -202t186.5 -76t186.5 76t71.5 202q0 128 -71.5 204.5t-186.5 76.5z" />
<glyph unicode="&#xbb;" horiz-adv-x="835" d="M414 408l-226 -353h-82v17l224 354v6l-224 348v17h82l226 -351v-38zM741 408l-225 -353h-82v17l223 354v6l-223 348v17h82l225 -351v-38z" />
<glyph unicode="&#xbc;" horiz-adv-x="1253" d="M76 1229h231v-668h-71v604h-160v64zM82 0l965 1229h88l-967 -1229h-86zM621 244l374 424l4 -2l2 2h46v-412h127v-61h-127v-195h-68v195h-358v49zM707 250l133 6h139v299h-4l-191 -217l-77 -86v-2z" />
<glyph unicode="&#xbd;" horiz-adv-x="1390" d="M78 0l964 1229h88l-966 -1229h-86zM82 1229h229v-668h-71v604h-158v64zM815 0h500v63h-391l260 220q102 81 102 198q0 92 -57 148.5t-176 56.5q-39 0 -77 -9t-64 -21.5t-46.5 -25t-30.5 -21.5l-10 -9l37 -53q8 8 26 21.5t66 33t97 19.5q163 0 163 -142q0 -79 -84 -151 l-315 -271v-57z" />
<glyph unicode="&#xbe;" horiz-adv-x="1464" d="M106 1229h451v-58l-174 -217q97 -5 151 -55.5t54 -140.5q0 -93 -66 -153t-190 -60q-41 0 -81.5 9.5t-68 22t-52 28t-33.5 23t-13 11.5l41 51q3 -3 9.5 -8.5t27.5 -20t43.5 -25t57 -19.5t69.5 -9q89 0 136.5 43t47.5 109q0 65 -42.5 101t-121.5 36h-63v51l180 217h-363v64 zM270 0l965 1229h88l-967 -1229h-86zM840 244l374 424l5 -2l2 2h45v-412h127v-61h-127v-195h-68v195h-358v49zM926 250l133 6h139v299h-2l-192 -217l-78 -86v-2z" />
<glyph unicode="&#xbf;" horiz-adv-x="827" d="M512 811q0 -31 -21.5 -53.5t-52.5 -22.5t-53.5 22.5t-22.5 53.5t22.5 53.5t53.5 22.5t52.5 -22.5t21.5 -53.5zM774 -287q-5 -4 -13.5 -11t-39 -24t-65 -30t-89 -24t-112.5 -11q-178 0 -281.5 83.5t-103.5 229.5q0 61 18 113t47.5 88.5t65 69t71.5 61t65.5 57t49 65 t21.5 77.5l4 108h59v-125q0 -61 -32 -113.5t-77.5 -92.5t-90.5 -80.5t-77 -96.5t-32 -123q0 -107 78 -171t215 -64q50 0 97 9t79 22t56.5 26t36.5 22l11 9z" />
<glyph unicode="&#xc0;" d="M399 1577l115 16l113 -293h-64zM1155 0h-94l-133 322h-660l-133 -322h-94l514 1229h86zM303 406h590l-295 712z" />
<glyph unicode="&#xc1;" d="M631 1300h-64l113 293l115 -16zM1155 0h-94l-133 322h-660l-133 -322h-94l514 1229h86zM303 406h590l-295 712z" />
<glyph unicode="&#xc2;" d="M598 1526l-121 -158h-86l162 223h86l166 -223h-86zM1155 0h-94l-133 322h-660l-133 -322h-94l514 1229h86zM303 406h590l-295 712z" />
<glyph unicode="&#xc3;" d="M741 1368q-38 0 -79 18.5t-70 40t-64 40t-63 18.5q-43 0 -62 -23t-30 -65l-8 -27l-64 6l8 43q29 140 148 140q37 0 77.5 -18.5t69.5 -41t64.5 -41t64.5 -18.5q45 0 65 24t29 66l7 26l63 -8l-6 -39q-28 -141 -150 -141zM1155 0h-94l-133 322h-660l-133 -322h-94l514 1229 h86zM303 406h590l-295 712z" />
<glyph unicode="&#xc4;" d="M377 1444q0 31 22.5 53.5t51.5 22.5t52 -23t23 -53t-23 -53t-52 -23t-51.5 22.5t-22.5 53.5zM672 1444q0 31 22.5 53.5t53.5 22.5q29 0 51 -22.5t22 -53.5t-22 -53.5t-51 -22.5q-31 0 -53.5 22.5t-22.5 53.5zM1155 0h-94l-133 322h-660l-133 -322h-94l514 1229h86z M303 406h590l-295 712z" />
<glyph unicode="&#xc5;" d="M410 1421q0 73 52.5 117.5t135.5 44.5q81 0 133.5 -44.5t52.5 -117.5q0 -72 -52.5 -116.5t-133.5 -44.5q-83 0 -135.5 44t-52.5 117zM717 1421q0 47 -31.5 73t-87.5 26t-88.5 -26t-32.5 -73t32.5 -72.5t88.5 -25.5t87.5 25.5t31.5 72.5zM1155 0h-94l-133 322h-660 l-133 -322h-94l514 1229h86zM303 406h590l-295 712z" />
<glyph unicode="&#xc6;" horiz-adv-x="1785" d="M854 1229h844v-84h-746v-481h647v-84h-647v-496h746v-84h-836v322h-534l-222 -322h-108zM387 406h475v671h-12z" />
<glyph unicode="&#xc7;" horiz-adv-x="1169" d="M592 -102l35 77q-155 17 -277 104t-189 226t-67 305q0 182 77 329t216 231.5t313 84.5q76 0 145 -16.5t114.5 -40.5t79.5 -47.5t49 -40.5l16 -16l-51 -68q-5 6 -15 15.5t-44 34t-71.5 43.5t-97.5 34.5t-123 15.5q-150 0 -269 -76.5t-183 -204t-64 -278.5 q0 -149 64 -274.5t183.5 -202t268.5 -76.5q63 0 122.5 15t99 37t70 44t44.5 37l15 15l51 -70q-5 -7 -16 -18t-48.5 -39t-80.5 -50t-113 -39.5t-146 -17.5l-14 2l-20 -49q64 0 102.5 -33t38.5 -96q0 -61 -42.5 -99t-117.5 -38q-40 0 -74.5 13t-48.5 25l-14 13l29 43 q4 -4 13 -10.5t37 -17.5t58 -11q48 0 75.5 22.5t27.5 61.5q0 36 -27.5 57t-71.5 21l-39 -4z" />
<glyph unicode="&#xc8;" horiz-adv-x="1105" d="M418 1575l114 16l113 -293h-63zM920 580h-648v-496h746v-84h-836v1229h836v-84h-746v-481h648v-84z" />
<glyph unicode="&#xc9;" horiz-adv-x="1105" d="M627 1300h-64l113 293l115 -16zM920 580h-648v-496h746v-84h-836v1229h836v-84h-746v-481h648v-84z" />
<glyph unicode="&#xca;" horiz-adv-x="1105" d="M606 1526l-121 -158h-86l162 223h86l166 -223h-86zM920 580h-648v-496h746v-84h-836v1229h836v-84h-746v-481h648v-84z" />
<glyph unicode="&#xcb;" horiz-adv-x="1105" d="M381 1444q0 31 22.5 53.5t51.5 22.5t52 -23t23 -53t-23 -53t-52 -23t-51.5 22.5t-22.5 53.5zM676 1444q0 31 22.5 53.5t53.5 22.5q29 0 51 -22.5t22 -53.5t-22 -53.5t-51 -22.5q-31 0 -53.5 22.5t-22.5 53.5zM920 580h-648v-496h746v-84h-836v1229h836v-84h-746v-481h648 v-84z" />
<glyph unicode="&#xcc;" horiz-adv-x="454" d="M29 1577l114 16l113 -293h-63zM272 0h-90v1229h90v-1229z" />
<glyph unicode="&#xcd;" horiz-adv-x="454" d="M260 1300h-63l112 293l115 -16zM272 0h-90v1229h90v-1229z" />
<glyph unicode="&#xce;" horiz-adv-x="454" d="M229 1526l-120 -158h-86l161 223h86l166 -223h-86zM272 0h-90v1229h90v-1229z" />
<glyph unicode="&#xcf;" horiz-adv-x="454" d="M6 1444q0 31 22.5 53.5t51.5 22.5q30 0 53 -23t23 -53t-23 -53t-53 -23q-29 0 -51.5 22.5t-22.5 53.5zM301 1444q0 31 22.5 53.5t53.5 22.5q29 0 51.5 -22.5t22.5 -53.5t-22.5 -53.5t-51.5 -22.5q-31 0 -53.5 22.5t-22.5 53.5zM272 0h-90v1229h90v-1229z" />
<glyph unicode="&#xd0;" horiz-adv-x="1286" d="M57 664h125v565h373q183 0 326 -72.5t226 -213.5t83 -329t-83 -328.5t-226 -213t-326 -72.5h-373v580h-125v84zM272 1145v-481h396v-84h-396v-496h281q114 0 213 36.5t173 103.5t116.5 167.5t42.5 222.5q0 162 -73.5 284t-196.5 184.5t-275 62.5h-281z" />
<glyph unicode="&#xd1;" horiz-adv-x="1359" d="M831 1368q-38 0 -79 18.5t-70 40t-64 40t-63 18.5q-43 0 -62 -23t-30 -65l-8 -27l-64 6l8 43q29 140 148 140q37 0 77.5 -18.5t69.5 -41t64.5 -41t64.5 -18.5q45 0 65.5 24t29.5 66l6 26l63 -8l-6 -39q-28 -141 -150 -141zM1180 0h-80l-828 1081v-1081h-90v1229h80 l828 -1079v1079h90v-1229z" />
<glyph unicode="&#xd2;" horiz-adv-x="1390" d="M502 1645l114 16l113 -293h-63zM694 -29q-133 0 -245.5 49.5t-189.5 135t-120 203t-43 251.5q0 137 43 255.5t120 204.5t189.5 135.5t245.5 49.5q179 0 316.5 -84.5t210.5 -231t73 -329.5q0 -180 -73 -325t-211 -229.5t-316 -84.5zM694 57q117 0 214.5 44.5t161 120.5 t98 176t34.5 212q0 114 -34.5 215t-98 178t-160.5 121.5t-215 44.5q-154 0 -270.5 -77t-176 -203t-59.5 -279q0 -112 35 -212t98.5 -176t160 -120.5t212.5 -44.5z" />
<glyph unicode="&#xd3;" horiz-adv-x="1390" d="M723 1368h-64l113 293l115 -16zM694 -29q-133 0 -245.5 49.5t-189.5 135t-120 203t-43 251.5q0 137 43 255.5t120 204.5t189.5 135.5t245.5 49.5q179 0 316.5 -84.5t210.5 -231t73 -329.5q0 -180 -73 -325t-211 -229.5t-316 -84.5zM694 57q117 0 214.5 44.5t161 120.5 t98 176t34.5 212q0 114 -34.5 215t-98 178t-160.5 121.5t-215 44.5q-154 0 -270.5 -77t-176 -203t-59.5 -279q0 -112 35 -212t98.5 -176t160 -120.5t212.5 -44.5z" />
<glyph unicode="&#xd4;" horiz-adv-x="1390" d="M696 1526l-121 -158h-86l162 223h86l166 -223h-86zM694 -29q-133 0 -245.5 49.5t-189.5 135t-120 203t-43 251.5q0 137 43 255.5t120 204.5t189.5 135.5t245.5 49.5q179 0 316.5 -84.5t210.5 -231t73 -329.5q0 -180 -73 -325t-211 -229.5t-316 -84.5zM694 57 q117 0 214.5 44.5t161 120.5t98 176t34.5 212q0 114 -34.5 215t-98 178t-160.5 121.5t-215 44.5q-154 0 -270.5 -77t-176 -203t-59.5 -279q0 -112 35 -212t98.5 -176t160 -120.5t212.5 -44.5z" />
<glyph unicode="&#xd5;" horiz-adv-x="1390" d="M836 1397q-38 0 -79 18t-70.5 40t-64.5 40t-63 18q-43 0 -62 -23t-30 -65l-8 -26l-64 6l8 43q29 139 148 139q37 0 77.5 -18.5t69.5 -41t64.5 -41t64.5 -18.5q45 0 65.5 24.5t29.5 66.5l6 26l63 -8l-6 -39q-28 -141 -149 -141zM694 -29q-133 0 -245.5 49.5t-189.5 135 t-120 203t-43 251.5q0 137 43 255.5t120 204.5t189.5 135.5t245.5 49.5q179 0 316.5 -84.5t210.5 -231t73 -329.5q0 -180 -73 -325t-211 -229.5t-316 -84.5zM694 57q117 0 214.5 44.5t161 120.5t98 176t34.5 212q0 114 -34.5 215t-98 178t-160.5 121.5t-215 44.5 q-154 0 -270.5 -77t-176 -203t-59.5 -279q0 -112 35 -212t98.5 -176t160 -120.5t212.5 -44.5z" />
<glyph unicode="&#xd6;" horiz-adv-x="1390" d="M471 1444q0 31 22.5 53.5t51.5 22.5q30 0 53 -23t23 -53t-23 -53t-53 -23q-29 0 -51.5 22.5t-22.5 53.5zM766 1444q0 31 22.5 53.5t53.5 22.5q29 0 51 -22.5t22 -53.5t-22 -53.5t-51 -22.5q-31 0 -53.5 22.5t-22.5 53.5zM694 -29q-133 0 -245.5 49.5t-189.5 135t-120 203 t-43 251.5q0 137 43 255.5t120 204.5t189.5 135.5t245.5 49.5q179 0 316.5 -84.5t210.5 -231t73 -329.5q0 -180 -73 -325t-211 -229.5t-316 -84.5zM694 57q117 0 214.5 44.5t161 120.5t98 176t34.5 212q0 114 -34.5 215t-98 178t-160.5 121.5t-215 44.5q-154 0 -270.5 -77 t-176 -203t-59.5 -279q0 -112 35 -212t98.5 -176t160 -120.5t212.5 -44.5z" />
<glyph unicode="&#xd7;" horiz-adv-x="1013" d="M133 281l322 335l-322 338l55 54l320 -336l319 336l54 -54l-322 -338l322 -335l-54 -54l-319 334l-320 -334z" />
<glyph unicode="&#xd8;" horiz-adv-x="1392" d="M696 -29q-248 0 -411 160l-127 -131h-111l184 190q-133 175 -133 420q0 137 43 255.5t120 204.5t189.5 135.5t245.5 49.5q247 0 408 -155l123 129h112l-182 -189q139 -175 139 -430q0 -180 -73 -325t-211 -229.5t-316 -84.5zM190 610q0 -204 105 -352l745 776 q-135 135 -344 135q-154 0 -270.5 -77t-176 -203t-59.5 -279zM696 57q117 0 214.5 44.5t161 120.5t98 176t34.5 212q0 213 -110 363l-748 -776q140 -140 350 -140z" />
<glyph unicode="&#xd9;" horiz-adv-x="1284" d="M444 1577l115 16l113 -293h-64zM641 -27q-224 0 -350.5 145t-126.5 390v721h90v-721q0 -207 100 -329t287 -122q190 0 288.5 121.5t98.5 329.5v721h90v-721q0 -246 -125 -390.5t-352 -144.5z" />
<glyph unicode="&#xda;" horiz-adv-x="1284" d="M670 1300h-64l113 293l115 -16zM641 -27q-224 0 -350.5 145t-126.5 390v721h90v-721q0 -207 100 -329t287 -122q190 0 288.5 121.5t98.5 329.5v721h90v-721q0 -246 -125 -390.5t-352 -144.5z" />
<glyph unicode="&#xdb;" horiz-adv-x="1284" d="M643 1458l-121 -158h-86l162 224h86l166 -224h-86zM641 -27q-224 0 -350.5 145t-126.5 390v721h90v-721q0 -207 100 -329t287 -122q190 0 288.5 121.5t98.5 329.5v721h90v-721q0 -246 -125 -390.5t-352 -144.5z" />
<glyph unicode="&#xdc;" horiz-adv-x="1284" d="M422 1444q0 31 22.5 53.5t51.5 22.5q30 0 52.5 -23t22.5 -53t-22.5 -53t-52.5 -23q-29 0 -51.5 22.5t-22.5 53.5zM717 1444q0 31 22.5 53.5t53.5 22.5q29 0 51 -22.5t22 -53.5t-22 -53.5t-51 -22.5q-31 0 -53.5 22.5t-22.5 53.5zM641 -27q-224 0 -350.5 145t-126.5 390 v721h90v-721q0 -207 100 -329t287 -122q190 0 288.5 121.5t98.5 329.5v721h90v-721q0 -246 -125 -390.5t-352 -144.5z" />
<glyph unicode="&#xdd;" horiz-adv-x="1099" d="M582 1333h-64l113 293l114 -16zM950 1229h105l-461 -758v-471h-90v473l-459 756h107l362 -608l33 -68h6l37 68z" />
<glyph unicode="&#xde;" horiz-adv-x="1163" d="M272 1022h367q215 0 337 -108t122 -293q0 -192 -124 -305t-339 -113h-363v-203h-90v1229h90v-207zM1006 618q0 148 -100.5 234t-268.5 86h-365v-649h365q170 0 269.5 86.5t99.5 242.5z" />
<glyph unicode="&#xdf;" horiz-adv-x="972" d="M479 645q132 9 201.5 79.5t69.5 182.5q0 104 -70.5 177t-181.5 73q-112 0 -186 -78t-74 -207v-872h-88v864q0 173 95.5 273t260.5 100q151 0 244.5 -94t93.5 -238q0 -100 -50 -174t-137 -108q102 -29 162 -112t60 -192q0 -154 -99 -244.5t-268 -90.5q-44 0 -83 5.5 t-56 10.5l-17 6l17 72q53 -19 141 -19q120 0 196 74t76 184q0 117 -78 187.5t-198 70.5h-31v70z" />
<glyph unicode="&#xe0;" horiz-adv-x="950" d="M270 1294l115 17l113 -293h-64zM809 0h-61l-13 152h-6q-44 -75 -131 -123.5t-199 -48.5q-157 0 -242 75.5t-85 190.5q0 120 96.5 196t286.5 76q158 0 270 -53v53q0 137 -72 210t-217 73q-62 0 -126.5 -18t-97.5 -36l-34 -18l-35 76q5 3 14.5 8t41 18.5t65 23.5t83.5 18 t99 8q185 0 274 -98t89 -267v-516zM725 389q-117 60 -262 60q-156 0 -228.5 -55t-72.5 -146q0 -84 63.5 -139.5t184.5 -55.5q132 0 223.5 81t91.5 165v90z" />
<glyph unicode="&#xe1;" horiz-adv-x="950" d="M510 1018h-64l113 293l115 -17zM809 0h-61l-13 152h-6q-44 -75 -131 -123.5t-199 -48.5q-157 0 -242 75.5t-85 190.5q0 120 96.5 196t286.5 76q158 0 270 -53v53q0 137 -72 210t-217 73q-62 0 -126.5 -18t-97.5 -36l-34 -18l-35 76q5 3 14.5 8t41 18.5t65 23.5t83.5 18 t99 8q185 0 274 -98t89 -267v-516zM725 389q-117 60 -262 60q-156 0 -228.5 -55t-72.5 -146q0 -84 63.5 -139.5t184.5 -55.5q132 0 223.5 81t91.5 165v90z" />
<glyph unicode="&#xe2;" horiz-adv-x="950" d="M451 1176l-121 -158h-86l162 223h86l165 -223h-86zM809 0h-61l-13 152h-6q-44 -75 -131 -123.5t-199 -48.5q-157 0 -242 75.5t-85 190.5q0 120 96.5 196t286.5 76q158 0 270 -53v53q0 137 -72 210t-217 73q-62 0 -126.5 -18t-97.5 -36l-34 -18l-35 76q5 3 14.5 8t41 18.5 t65 23.5t83.5 18t99 8q185 0 274 -98t89 -267v-516zM725 389q-117 60 -262 60q-156 0 -228.5 -55t-72.5 -146q0 -84 63.5 -139.5t184.5 -55.5q132 0 223.5 81t91.5 165v90z" />
<glyph unicode="&#xe3;" horiz-adv-x="950" d="M592 1020q-38 0 -79 18.5t-70.5 40t-64.5 40t-63 18.5q-43 0 -62 -23t-30 -65l-8 -27l-63 6l8 43q29 139 147 139q47 0 97.5 -29.5t97 -59t82.5 -29.5q45 0 65 24t29 66l6 26l64 -8l-7 -39q-28 -141 -149 -141zM809 0h-61l-13 152h-6q-44 -75 -131 -123.5t-199 -48.5 q-157 0 -242 75.5t-85 190.5q0 120 96.5 196t286.5 76q158 0 270 -53v53q0 137 -72 210t-217 73q-62 0 -126.5 -18t-97.5 -36l-34 -18l-35 76q5 3 14.5 8t41 18.5t65 23.5t83.5 18t99 8q185 0 274 -98t89 -267v-516zM725 389q-117 60 -262 60q-156 0 -228.5 -55t-72.5 -146 q0 -84 63.5 -139.5t184.5 -55.5q132 0 223.5 81t91.5 165v90z" />
<glyph unicode="&#xe4;" horiz-adv-x="950" d="M231 1094q0 30 22.5 52.5t51.5 22.5q30 0 53 -22.5t23 -52.5t-23 -53t-53 -23q-29 0 -51.5 22.5t-22.5 53.5zM526 1094q0 31 22.5 53t53.5 22q30 0 52 -22.5t22 -52.5q0 -31 -22.5 -53.5t-51.5 -22.5q-31 0 -53.5 22.5t-22.5 53.5zM809 0h-61l-13 152h-6 q-44 -75 -131 -123.5t-199 -48.5q-157 0 -242 75.5t-85 190.5q0 120 96.5 196t286.5 76q158 0 270 -53v53q0 137 -72 210t-217 73q-62 0 -126.5 -18t-97.5 -36l-34 -18l-35 76q5 3 14.5 8t41 18.5t65 23.5t83.5 18t99 8q185 0 274 -98t89 -267v-516zM725 389 q-117 60 -262 60q-156 0 -228.5 -55t-72.5 -146q0 -84 63.5 -139.5t184.5 -55.5q132 0 223.5 81t91.5 165v90z" />
<glyph unicode="&#xe5;" horiz-adv-x="950" d="M270 1180q0 73 53 117t136 44q81 0 133.5 -44.5t52.5 -116.5q0 -73 -52.5 -117.5t-133.5 -44.5q-83 0 -136 44.5t-53 117.5zM578 1180q0 47 -31.5 72.5t-87.5 25.5t-88.5 -25.5t-32.5 -72.5t32.5 -73t88.5 -26t87.5 26t31.5 73zM809 0h-61l-13 152h-6 q-44 -75 -131 -123.5t-199 -48.5q-157 0 -242 75.5t-85 190.5q0 120 96.5 196t286.5 76q158 0 270 -53v53q0 137 -72 210t-217 73q-62 0 -126.5 -18t-97.5 -36l-34 -18l-35 76q5 3 14.5 8t41 18.5t65 23.5t83.5 18t99 8q185 0 274 -98t89 -267v-516zM725 389 q-117 60 -262 60q-156 0 -228.5 -55t-72.5 -146q0 -84 63.5 -139.5t184.5 -55.5q132 0 223.5 81t91.5 165v90z" />
<glyph unicode="&#xe6;" horiz-adv-x="1587" d="M1462 74q-4 -4 -12 -10t-36.5 -22.5t-60.5 -29t-83.5 -22.5t-106.5 -10q-129 0 -228.5 57.5t-152.5 161.5q-46 -99 -144 -159t-230 -60q-165 0 -250.5 77.5t-85.5 192.5q0 123 97 199.5t280 76.5q150 0 280 -49v41q0 135 -70.5 209t-216.5 74q-63 0 -127.5 -18t-97.5 -36 l-33 -18l-37 76q5 3 14.5 8t41 18.5t65 23.5t83.5 18t100 8q262 0 337 -201q51 96 138.5 148.5t199.5 52.5q183 0 283 -115.5t100 -304.5v-23h-690v-12q0 -171 100.5 -270t245.5 -99q47 0 91.5 8.5t74 21t52.5 25t33 20.5l11 9zM1124 803q-119 0 -199 -75t-100 -216h594 q-11 132 -87 211.5t-208 79.5zM416 53q135 0 224 80t89 176v90q-126 58 -272 58q-153 0 -224 -56.5t-71 -152.5q0 -82 63.5 -138.5t190.5 -56.5z" />
<glyph unicode="&#xe7;" horiz-adv-x="856" d="M434 -113l41 95q-170 12 -277.5 132t-107.5 312q0 203 119 329t303 126q50 0 95 -8t74.5 -19.5t51.5 -23t31 -19.5l10 -8l-31 -68q-10 8 -28.5 19.5t-78 31t-122.5 19.5q-138 0 -236 -103.5t-98 -275.5q0 -171 97.5 -271t236.5 -100q63 0 120 17.5t83 35.5l26 17l29 -68 q-3 -3 -9 -7.5t-28 -17t-47 -22.5t-66 -19t-85 -11l-29 -66q64 0 102.5 -33t38.5 -96q0 -61 -42.5 -99t-117.5 -38q-40 0 -74.5 13t-48.5 25l-14 13l29 43q4 -4 13 -10.5t37 -17.5t58 -11q48 0 75.5 22.5t27.5 61.5q0 36 -27 57t-71 21l-39 -4z" />
<glyph unicode="&#xe8;" horiz-adv-x="940" d="M279 1294l114 17l113 -293h-64zM813 74q-4 -4 -12 -10t-36.5 -22.5t-60.5 -29t-84 -22.5t-108 -10q-189 0 -304.5 121.5t-115.5 324.5q0 207 110 331t285 124t273 -115.5t98 -304.5v-23h-678v-12q0 -173 95.5 -272t240.5 -99q47 0 91 9t73.5 21.5t52 25t33.5 21.5l10 9z M485 803q-119 0 -199 -75t-100 -216h582q-11 131 -84 211t-199 80z" />
<glyph unicode="&#xe9;" horiz-adv-x="940" d="M504 1018h-64l113 293l115 -17zM813 74q-4 -4 -12 -10t-36.5 -22.5t-60.5 -29t-84 -22.5t-108 -10q-189 0 -304.5 121.5t-115.5 324.5q0 207 110 331t285 124t273 -115.5t98 -304.5v-23h-678v-12q0 -173 95.5 -272t240.5 -99q47 0 91 9t73.5 21.5t52 25t33.5 21.5l10 9z M485 803q-119 0 -199 -75t-100 -216h582q-11 131 -84 211t-199 80z" />
<glyph unicode="&#xea;" horiz-adv-x="940" d="M477 1176l-121 -158h-86l162 223h86l166 -223h-86zM813 74q-4 -4 -12 -10t-36.5 -22.5t-60.5 -29t-84 -22.5t-108 -10q-189 0 -304.5 121.5t-115.5 324.5q0 207 110 331t285 124t273 -115.5t98 -304.5v-23h-678v-12q0 -173 95.5 -272t240.5 -99q47 0 91 9t73.5 21.5 t52 25t33.5 21.5l10 9zM485 803q-119 0 -199 -75t-100 -216h582q-11 131 -84 211t-199 80z" />
<glyph unicode="&#xeb;" horiz-adv-x="940" d="M254 1094q0 30 22 52.5t52 22.5t52.5 -22.5t22.5 -52.5t-22.5 -53t-52.5 -23q-29 0 -51.5 22.5t-22.5 53.5zM549 1094q0 31 22.5 53t53.5 22q29 0 51 -22t22 -53t-22 -53.5t-51 -22.5q-31 0 -53.5 22.5t-22.5 53.5zM813 74q-4 -4 -12 -10t-36.5 -22.5t-60.5 -29 t-84 -22.5t-108 -10q-189 0 -304.5 121.5t-115.5 324.5q0 207 110 331t285 124t273 -115.5t98 -304.5v-23h-678v-12q0 -173 95.5 -272t240.5 -99q47 0 91 9t73.5 21.5t52 25t33.5 21.5l10 9zM485 803q-119 0 -199 -75t-100 -216h582q-11 131 -84 211t-199 80z" />
<glyph unicode="&#xec;" horiz-adv-x="397" d="M0 1294l115 17l112 -293h-63zM154 860h88v-860h-88v860z" />
<glyph unicode="&#xed;" horiz-adv-x="397" d="M231 1018h-63l113 293l114 -17zM154 860h88v-860h-88v860z" />
<glyph unicode="&#xee;" horiz-adv-x="397" d="M201 1208l-121 -157h-86l162 223h86l166 -223h-86zM154 860h88v-860h-88v860z" />
<glyph unicode="&#xef;" horiz-adv-x="397" d="M-23 1124q0 31 22.5 53.5t51.5 22.5q30 0 53 -23t23 -53t-23 -52.5t-53 -22.5q-29 0 -51.5 22.5t-22.5 52.5zM272 1124q0 31 22.5 53.5t53.5 22.5q29 0 51.5 -22.5t22.5 -53.5q0 -30 -22 -52.5t-52 -22.5q-31 0 -53.5 22t-22.5 53zM154 860h88v-860h-88v860z" />
<glyph unicode="&#xf0;" horiz-adv-x="1019" d="M508 -20q-185 0 -301.5 124t-116.5 326q0 201 116.5 326t301.5 125q102 0 180 -37q-20 20 -37 53l-151 242l-246 -152l-35 60l244 151l-174 279v14h84l157 -250l246 152l35 -60l-244 -151l238 -373q68 -113 95.5 -197.5t27.5 -179.5v-2q0 -202 -116.5 -326t-303.5 -124z M840 430q0 175 -95.5 275t-236.5 100q-140 0 -234 -103t-94 -272q0 -168 94 -271.5t234 -103.5q141 0 236.5 100.5t95.5 274.5z" />
<glyph unicode="&#xf1;" horiz-adv-x="1038" d="M666 1051q-38 0 -79 18t-70.5 40t-64.5 40t-63 18q-43 0 -62 -23t-30 -65l-8 -26l-64 6l8 43q29 139 148 139q37 0 77.5 -18.5t69.5 -41t64.5 -41t64.5 -18.5q45 0 65.5 24t29.5 66l6 27l63 -8l-6 -39q-28 -141 -149 -141zM238 0h-88v860h63l12 -155h6q14 22 23 34.5 t38.5 43t60.5 49t83 34t111 15.5q166 0 260 -111.5t94 -290.5v-479h-88v471q0 148 -74 241t-211 93q-59 0 -109 -19.5t-82.5 -50.5t-55.5 -70t-33 -75.5t-10 -69.5v-520z" />
<glyph unicode="&#xf2;" horiz-adv-x="1028" d="M317 1294l115 17l113 -293h-64zM938 426q0 -202 -122 -324t-302 -122q-182 0 -303 122t-121 324t122 328.5t302 126.5q179 0 301.5 -127t122.5 -328zM514 53q138 0 237 102.5t99 270.5q0 169 -99.5 275t-236.5 106t-236.5 -106t-99.5 -275q0 -168 99 -270.5t237 -102.5z " />
<glyph unicode="&#xf3;" horiz-adv-x="1028" d="M543 1018h-64l113 293l115 -17zM938 426q0 -202 -122 -324t-302 -122q-182 0 -303 122t-121 324t122 328.5t302 126.5q179 0 301.5 -127t122.5 -328zM514 53q138 0 237 102.5t99 270.5q0 169 -99.5 275t-236.5 106t-236.5 -106t-99.5 -275q0 -168 99 -270.5t237 -102.5z " />
<glyph unicode="&#xf4;" horiz-adv-x="1028" d="M514 1208l-121 -157h-86l162 223h86l166 -223h-86zM938 426q0 -202 -122 -324t-302 -122q-182 0 -303 122t-121 324t122 328.5t302 126.5q179 0 301.5 -127t122.5 -328zM514 53q138 0 237 102.5t99 270.5q0 169 -99.5 275t-236.5 106t-236.5 -106t-99.5 -275 q0 -168 99 -270.5t237 -102.5z" />
<glyph unicode="&#xf5;" horiz-adv-x="1028" d="M651 1051q-48 0 -99 29t-97 58t-80 29q-43 0 -62 -23t-30 -65l-9 -26l-63 6l8 43q29 139 148 139q37 0 77.5 -18.5t69.5 -41t64.5 -41t64.5 -18.5q45 0 65 24t29 66l6 27l64 -8l-6 -39q-28 -141 -150 -141zM938 426q0 -202 -122 -324t-302 -122q-182 0 -303 122t-121 324 t122 328.5t302 126.5q179 0 301.5 -127t122.5 -328zM514 53q138 0 237 102.5t99 270.5q0 169 -99.5 275t-236.5 106t-236.5 -106t-99.5 -275q0 -168 99 -270.5t237 -102.5z" />
<glyph unicode="&#xf6;" horiz-adv-x="1028" d="M291 1126q0 31 22.5 53.5t51.5 22.5t52 -23t23 -53t-22.5 -52.5t-52.5 -22.5q-29 0 -51.5 22.5t-22.5 52.5zM586 1126q0 31 22.5 53.5t53.5 22.5q29 0 51 -22.5t22 -53.5t-22 -53t-51 -22q-31 0 -53.5 22t-22.5 53zM938 426q0 -202 -122 -324t-302 -122q-182 0 -303 122 t-121 324t122 328.5t302 126.5q179 0 301.5 -127t122.5 -328zM514 53q138 0 237 102.5t99 270.5q0 169 -99.5 275t-236.5 106t-236.5 -106t-99.5 -275q0 -168 99 -270.5t237 -102.5z" />
<glyph unicode="&#xf7;" horiz-adv-x="1001" d="M424 891q0 32 23 56t55 24q31 0 54.5 -24t23.5 -56t-23.5 -55t-54.5 -23q-32 0 -55 23t-23 55zM131 643h739v-78h-739v78zM424 330q0 32 23 55t55 23q31 0 54.5 -23t23.5 -55t-23.5 -55t-54.5 -23q-32 0 -55 23t-23 55z" />
<glyph unicode="&#xf8;" horiz-adv-x="1030" d="M940 426q0 -202 -122 -324t-302 -122q-168 0 -283 100l-73 -80h-86l116 125q-98 122 -98 301q0 202 122 328.5t302 126.5q160 0 275 -103l77 82h84l-118 -125q106 -125 106 -309zM180 426q0 -140 72 -238l481 531q-91 88 -217 88q-137 0 -236.5 -106t-99.5 -275zM516 53 q138 0 237 102.5t99 270.5q0 143 -78 248l-483 -531q93 -90 225 -90z" />
<glyph unicode="&#xf9;" horiz-adv-x="1030" d="M307 1294l115 17l113 -293h-64zM879 0h-58l-18 154h-4q-31 -52 -65 -84q-99 -90 -251 -90q-166 0 -256 110.5t-90 290.5v479h88v-471q0 -149 69 -241.5t204 -92.5q73 0 131 28t91.5 71.5t51 89t19.5 88.5v528h88v-860z" />
<glyph unicode="&#xfa;" horiz-adv-x="1030" d="M532 1018h-63l113 293l114 -17zM879 0h-58l-18 154h-4q-31 -52 -65 -84q-99 -90 -251 -90q-166 0 -256 110.5t-90 290.5v479h88v-471q0 -149 69 -241.5t204 -92.5q73 0 131 28t91.5 71.5t51 89t19.5 88.5v528h88v-860z" />
<glyph unicode="&#xfb;" horiz-adv-x="1030" d="M500 1176l-121 -158h-86l162 223h86l166 -223h-86zM879 0h-58l-18 154h-4q-31 -52 -65 -84q-99 -90 -251 -90q-166 0 -256 110.5t-90 290.5v479h88v-471q0 -149 69 -241.5t204 -92.5q73 0 131 28t91.5 71.5t51 89t19.5 88.5v528h88v-860z" />
<glyph unicode="&#xfc;" horiz-adv-x="1030" d="M279 1094q0 31 22 53t51 22q30 0 53 -22.5t23 -52.5t-23 -53t-53 -23q-29 0 -51 22.5t-22 53.5zM573 1094q0 31 22.5 53t53.5 22q29 0 51.5 -22.5t22.5 -52.5q0 -31 -22.5 -53.5t-51.5 -22.5q-31 0 -53.5 22.5t-22.5 53.5zM879 0h-58l-18 154h-4q-31 -52 -65 -84 q-99 -90 -251 -90q-166 0 -256 110.5t-90 290.5v479h88v-471q0 -149 69 -241.5t204 -92.5q73 0 131 28t91.5 71.5t51 89t19.5 88.5v528h88v-860z" />
<glyph unicode="&#xfd;" horiz-adv-x="903" d="M492 1018h-64l113 293l114 -17zM295 -319h-94l215 415l-383 764h100l311 -635q15 -40 15 -51h6q0 19 12 51l311 635h91z" />
<glyph unicode="&#xfe;" horiz-adv-x="1075" d="M238 203v-522h-88v1548h88v-570h4q2 5 5 13t16 31t29 44t44.5 46.5t61.5 44t81.5 31t102.5 12.5q172 0 287.5 -126t115.5 -325q0 -198 -116.5 -324t-286.5 -126q-54 0 -102 12.5t-81.5 32t-61.5 43.5t-45 47.5t-29 43t-17 31.5l-4 13h-4zM233 430q0 -172 98 -273.5 t238 -101.5q138 0 232 105.5t94 269.5t-94 269.5t-232 105.5q-140 0 -238 -101.5t-98 -273.5z" />
<glyph unicode="&#xff;" horiz-adv-x="903" d="M240 1094q0 31 22 53t51 22q30 0 53 -22.5t23 -52.5t-23 -53t-53 -23q-29 0 -51 22.5t-22 53.5zM535 1094q0 31 22 53t53 22q30 0 52 -22.5t22 -52.5q0 -31 -22.5 -53.5t-51.5 -22.5q-31 0 -53 22.5t-22 53.5zM295 -319h-94l215 415l-383 764h100l311 -635q15 -40 15 -51 h6q0 19 12 51l311 635h91z" />
<glyph unicode="&#x152;" horiz-adv-x="2129" d="M694 -29q-133 0 -245.5 49.5t-189.5 135t-120 203t-43 251.5q0 137 43 255.5t120 204.5t189.5 135.5t245.5 49.5q168 0 300.5 -76.5t209.5 -209.5v260h836v-84h-746v-481h648v-84h-648v-496h746v-84h-836v256q-77 -134 -208.5 -209.5t-301.5 -75.5zM694 57 q117 0 214.5 44.5t161 120.5t98 176t34.5 212q0 114 -34.5 215t-98 178t-160.5 121.5t-215 44.5q-154 0 -270.5 -77t-176 -203t-59.5 -279q0 -112 35 -212t98.5 -176t160 -120.5t212.5 -44.5z" />
<glyph unicode="&#x153;" horiz-adv-x="1695" d="M1571 74q-4 -4 -12 -10t-36.5 -22.5t-60.5 -29t-84 -22.5t-108 -10q-131 0 -229 60.5t-148 170.5q-52 -109 -153.5 -170t-225.5 -61q-182 0 -303 122t-121 324t122 328.5t302 126.5q123 0 223 -63t154 -173q46 111 139 173.5t215 62.5q175 0 273 -115.5t98 -304.5v-23 h-678v-30q4 -164 99.5 -258.5t236.5 -94.5q47 0 91 9t73.5 21.5t52 25t33.5 21.5l10 9zM514 53q135 0 232.5 97t103.5 258v34q-6 162 -104 263.5t-232 101.5q-137 0 -236.5 -106t-99.5 -275q0 -168 99 -270.5t237 -102.5zM1243 803q-119 0 -199 -75t-100 -216h582 q-11 131 -84 211t-199 80z" />
<glyph unicode="&#x178;" horiz-adv-x="1099" d="M330 1444q0 31 22 53.5t51 22.5q30 0 53 -23t23 -53t-23 -53t-53 -23q-29 0 -51 22.5t-22 53.5zM625 1444q0 31 22 53.5t53 22.5q29 0 51.5 -22.5t22.5 -53.5t-22.5 -53.5t-51.5 -22.5q-31 0 -53 22.5t-22 53.5zM950 1229h105l-461 -758v-471h-90v473l-459 756h107 l362 -608l33 -68h6l37 68z" />
<glyph unicode="&#x2c6;" horiz-adv-x="698" d="M358 1526l-120 -158h-86l161 223h86l166 -223h-86z" />
<glyph unicode="&#x2dc;" horiz-adv-x="911" d="M586 1368q-38 0 -79 18.5t-70.5 40t-64.5 40t-63 18.5q-43 0 -62 -23t-30 -65l-8 -27l-64 6l9 43q29 140 147 140q37 0 77.5 -18.5t69.5 -41t65 -41t65 -18.5q45 0 65 24t29 66l6 26l63 -8l-6 -39q-28 -141 -149 -141z" />
<glyph unicode="&#x2000;" horiz-adv-x="830" />
<glyph unicode="&#x2001;" horiz-adv-x="1661" />
<glyph unicode="&#x2002;" horiz-adv-x="830" />
<glyph unicode="&#x2003;" horiz-adv-x="1661" />
<glyph unicode="&#x2004;" horiz-adv-x="553" />
<glyph unicode="&#x2005;" horiz-adv-x="415" />
<glyph unicode="&#x2006;" horiz-adv-x="276" />
<glyph unicode="&#x2007;" horiz-adv-x="276" />
<glyph unicode="&#x2008;" horiz-adv-x="207" />
<glyph unicode="&#x2009;" horiz-adv-x="332" />
<glyph unicode="&#x200a;" horiz-adv-x="92" />
<glyph unicode="&#x2010;" horiz-adv-x="819" d="M129 508h559v-76h-559v76z" />
<glyph unicode="&#x2011;" horiz-adv-x="819" d="M129 508h559v-76h-559v76z" />
<glyph unicode="&#x2012;" horiz-adv-x="819" d="M129 508h559v-76h-559v76z" />
<glyph unicode="&#x2013;" horiz-adv-x="944" d="M131 629h664v-78h-664v78z" />
<glyph unicode="&#x2014;" horiz-adv-x="1482" d="M131 629h1200v-78h-1200v78z" />
<glyph unicode="&#x2018;" horiz-adv-x="421" d="M113 967q0 103 56.5 172.5t160.5 89.5l16 -58q-71 -14 -113.5 -57.5t-44.5 -93.5q28 -2 50 -23.5t22 -50.5t-22.5 -51.5t-51.5 -22.5q-30 0 -51.5 22t-21.5 52v21z" />
<glyph unicode="&#x2019;" horiz-adv-x="434" d="M106 932q71 13 113.5 56t44.5 95q-29 0 -49 20.5t-20 51.5t21 52.5t50 21.5q31 0 52.5 -21.5t21.5 -52.5v-20q0 -103 -56 -172.5t-161 -90.5z" />
<glyph unicode="&#x201a;" horiz-adv-x="403" d="M274 33q0 -101 -56.5 -170.5t-160.5 -89.5l-16 57q70 13 113 58t45 94q-30 2 -50 22t-20 49q0 31 21.5 52.5t50.5 21.5q31 0 52 -21.5t21 -52.5v-20z" />
<glyph unicode="&#x201c;" horiz-adv-x="706" d="M111 967q0 102 57 172t162 90l14 -58q-69 -14 -111.5 -58t-44.5 -93q29 -1 49.5 -23t20.5 -51q0 -30 -22 -52t-52 -22q-29 0 -51 22.5t-22 51.5v21zM633 1171q-71 -14 -113.5 -57.5t-44.5 -93.5q29 -1 49.5 -23t20.5 -51q0 -30 -22 -52t-52 -22q-29 0 -50.5 22.5 t-21.5 51.5v21q0 103 56.5 172.5t160.5 89.5z" />
<glyph unicode="&#x201d;" horiz-adv-x="718" d="M340 1135q0 -102 -57 -171.5t-160 -91.5l-17 60q70 13 112 56t44 95q-30 2 -49.5 22t-19.5 50q0 31 21 52.5t52 21.5t52.5 -21.5t21.5 -52.5v-20zM627 1135q0 -103 -56 -172.5t-161 -90.5l-17 60q71 13 113.5 56t44.5 95q-30 0 -51 21t-21 51t22 52t52 22 q31 0 52.5 -21.5t21.5 -52.5v-20z" />
<glyph unicode="&#x201e;" horiz-adv-x="690" d="M274 33q0 -101 -56.5 -170.5t-160.5 -89.5l-16 57q70 13 113 58t45 94q-30 2 -50 22t-20 49q0 31 21.5 52.5t50.5 21.5q31 0 52 -21.5t21 -52.5v-20zM561 33q0 -101 -56.5 -170.5t-160.5 -89.5l-16 57q70 13 112.5 58t44.5 94q-29 2 -49 22t-20 49q0 31 21 52.5t50 21.5 q31 0 52.5 -21.5t21.5 -52.5v-20z" />
<glyph unicode="&#x2022;" horiz-adv-x="606" d="M303 584q53 0 90 -37t37 -90q0 -52 -37 -88.5t-90 -36.5q-54 0 -90.5 36t-36.5 89t36.5 90t90.5 37z" />
<glyph unicode="&#x2026;" horiz-adv-x="1251" d="M127 66q0 34 24.5 59t59.5 25q34 0 59 -25t25 -59q0 -35 -25 -59.5t-59 -24.5q-35 0 -59.5 24.5t-24.5 59.5zM543 66q0 34 24 59t58 25q35 0 59.5 -25t24.5 -59q0 -35 -24.5 -59.5t-59.5 -24.5q-34 0 -58 24.5t-24 59.5zM956 66q0 34 24.5 59t59.5 25q34 0 59 -25t25 -59 q0 -35 -25 -59.5t-59 -24.5q-35 0 -59.5 24.5t-24.5 59.5z" />
<glyph unicode="&#x202f;" horiz-adv-x="332" />
<glyph unicode="&#x2039;" horiz-adv-x="509" d="M96 446l226 351h79v-17l-221 -348v-6l221 -354v-17h-79l-226 353v38z" />
<glyph unicode="&#x203a;" horiz-adv-x="507" d="M414 408l-226 -353h-82v17l224 354v6l-224 348v17h82l226 -351v-38z" />
<glyph unicode="&#x205f;" horiz-adv-x="415" />
<glyph unicode="&#x20ac;" horiz-adv-x="1200" d="M821 434h-454q36 -168 137 -267t268 -99q52 0 99.5 13t78.5 31t55 36.5t35 31.5l11 13l47 -64q-4 -6 -12 -15.5t-38 -34.5t-64.5 -44.5t-92 -35t-121.5 -15.5q-202 0 -328.5 124.5t-167.5 325.5h-184v74h172q-6 52 -6 108t6 111h-172v74h184q41 199 167 321.5t329 122.5 q64 0 121 -14.5t93.5 -35.5t64 -42.5t39.5 -36.5l12 -14l-49 -68q-4 5 -11.5 13.5t-34 30.5t-56 39t-77.5 30.5t-100 13.5q-167 0 -268 -97t-135 -263h452v-74h-465q-6 -55 -6 -111t6 -108h465v-74z" />
<glyph unicode="&#x2122;" horiz-adv-x="1441" d="M555 1165h-209v-590h-70v590h-206v64h485v-64zM688 575v654h66l233 -340l238 340h65v-654h-71v531l-218 -311h-26l-217 313v-533h-70z" />
<glyph unicode="&#x25fc;" horiz-adv-x="860" d="M0 860h860v-860h-860v860z" />
</font>
</defs>
</svg>
