<?xml version="1.0" standalone="no"?>
<!DOCTYPE svg PUBLIC "-//W3C//DTD SVG 1.1//EN" "http://www.w3.org/Graphics/SVG/1.1/DTD/svg11.dtd" >
<svg xmlns="http://www.w3.org/2000/svg">
<metadata></metadata>
<defs>
<font id="textamedium_italic" horiz-adv-x="1071" >
<font-face units-per-em="2048" ascent="1638" descent="-410" />
<missing-glyph horiz-adv-x="450" />
<glyph horiz-adv-x="0" />
<glyph horiz-adv-x="682" />
<glyph horiz-adv-x="0" />
<glyph horiz-adv-x="0" />
<glyph unicode="&#xd;" horiz-adv-x="215" />
<glyph unicode=" "  horiz-adv-x="450" />
<glyph unicode="&#x09;" horiz-adv-x="450" />
<glyph unicode="&#xa0;" horiz-adv-x="450" />
<glyph unicode="!" horiz-adv-x="436" d="M328 358h-117l78 871h203zM121 84q0 52 38.5 89.5t88.5 37.5q42 0 70 -29t28 -71q0 -52 -39.5 -89.5t-89.5 -37.5q-41 0 -68.5 29t-27.5 71z" />
<glyph unicode="&#x22;" horiz-adv-x="657" d="M342 973h-102l96 428h158zM637 973h-102l96 428h157z" />
<glyph unicode="#" horiz-adv-x="1273" d="M1090 868h243l-41 -104h-241l-119 -336h233l-35 -106h-235l-115 -322h-110l112 322h-319l-115 -322h-112l114 322h-241l38 106h240l121 336h-234l37 104h236l117 326h110l-117 -326h322l115 326h112zM500 428h319l121 336h-322z" />
<glyph unicode="$" horiz-adv-x="1046" d="M207 248q4 -4 11.5 -11t34 -25t56 -32.5t77.5 -29t99 -19.5l60 428q-174 58 -254 130.5t-80 187.5q0 158 115.5 259.5t316.5 116.5l31 213h121l-31 -213q70 -4 130.5 -18t96.5 -31t62 -33t37 -27l10 -11l-111 -140q-3 3 -9.5 9t-29.5 21.5t-49 28.5t-69.5 25.5 t-90.5 16.5l-55 -387q184 -59 263 -136t79 -194q0 -164 -116 -275.5t-328 -128.5l-27 -192h-121l27 192q-73 5 -138 22t-105 38t-69.5 41t-42.5 34l-12 13zM393 901q0 -50 40.5 -86.5t137.5 -71.5l50 351q-103 -11 -165.5 -62t-62.5 -131zM844 348q0 56 -41 95t-141 77 l-56 -389q120 13 179 71t59 146z" />
<glyph unicode="%" horiz-adv-x="1343" d="M526 1255q108 0 168 -74.5t60 -185.5q0 -141 -88.5 -248.5t-225.5 -107.5q-110 0 -170.5 76t-60.5 188q0 142 88.5 247t228.5 105zM1411 1229l-1149 -1229h-170l1147 1229h172zM510 1133q-74 0 -118 -63.5t-44 -160.5q0 -65 28.5 -105t80.5 -40q70 0 113.5 64t43.5 159 q0 67 -26.5 106.5t-77.5 39.5zM1081 600q109 0 169.5 -74.5t60.5 -187.5q0 -140 -90 -247t-226 -107q-109 0 -169 76t-60 188q0 142 88.5 247t226.5 105zM1065 477q-72 0 -117 -63.5t-45 -157.5q0 -67 28 -107t81 -40q72 0 114.5 64t42.5 159q0 67 -26.5 106t-77.5 39z" />
<glyph unicode="&#x26;" horiz-adv-x="1224" d="M1190 549q-60 -182 -164 -316l201 -233h-240l-90 106q-161 -126 -367 -126q-189 0 -292 84.5t-103 216.5q0 57 17 106.5t43 86.5t67.5 71.5t81.5 58.5t94 51l-24 31q-84 104 -84 225q0 142 109 243t274 101q137 0 217 -71t80 -185q0 -59 -18 -110t-45.5 -88t-72.5 -72.5 t-85 -59t-97 -51.5l236 -272q66 100 110 242zM502 922q0 -44 18.5 -82.5t57.5 -85.5l20 -25q120 55 181 108.5t61 135.5q0 66 -39.5 103.5t-108.5 37.5q-82 0 -136 -52.5t-54 -139.5zM547 125q138 0 260 90l-272 326q-104 -53 -157.5 -107t-53.5 -133q0 -80 63 -128t160 -48 z" />
<glyph unicode="'" horiz-adv-x="362" d="M342 973h-102l96 428h158z" />
<glyph unicode="(" horiz-adv-x="544" d="M334 588q-13 -94 -14 -182.5t9 -161t26 -135.5t39 -116t44.5 -92t46.5 -73l-118 -109q-26 32 -50 67t-50.5 85.5t-47.5 104t-38.5 122.5t-26.5 142.5t-8 163.5t14 184q18 130 57 251.5t84.5 211t104 172t105.5 134.5t99 99l88 -106q-54 -55 -103 -120t-103.5 -159.5 t-96 -219t-61.5 -263.5z" />
<glyph unicode=")" horiz-adv-x="544" d="M389 750q0 200 -49 353.5t-117 246.5l121 106q39 -49 74 -111t69.5 -149t55 -202t20.5 -240q0 -604 -463 -1035l-90 109q52 51 98 106.5t99.5 143.5t92 183t64 223.5t25.5 265.5z" />
<glyph unicode="*" horiz-adv-x="792" d="M506 1104l-256 43l63 135l215 -133l2 270h136l-86 -272l258 135l28 -135l-274 -43l166 -195l-127 -80l-86 242l-154 -242l-100 80z" />
<glyph unicode="+" horiz-adv-x="1046" d="M690 672h375l-21 -140h-374l-52 -366h-141l51 366h-372l20 140h373l53 383h141z" />
<glyph unicode="," horiz-adv-x="423" d="M328 70q-15 -125 -96 -212t-205 -110l-15 94q68 15 114.5 52t59.5 88q-33 8 -53 32.5t-20 59.5q0 49 36.5 84t86.5 35q44 0 72 -31.5t22 -75.5z" />
<glyph unicode="-" horiz-adv-x="806" d="M193 539h573l-21 -140h-573z" />
<glyph unicode="." horiz-adv-x="419" d="M205 -20q-40 0 -66 27t-26 67q0 49 36.5 84t86.5 35q41 0 67.5 -27.5t26.5 -67.5q0 -49 -37.5 -83.5t-87.5 -34.5z" />
<glyph unicode="/" horiz-adv-x="1181" d="M10 -229l1180 1833h174l-1176 -1831z" />
<glyph unicode="0" horiz-adv-x="1234" d="M616 -29q-143 0 -245.5 73t-151.5 192.5t-49 271.5q0 148 45 283.5t124.5 238.5t198.5 164t259 61q143 0 244.5 -72t149.5 -190.5t48 -271.5q0 -148 -44 -283.5t-123 -239.5t-197.5 -165.5t-258.5 -61.5zM639 133q129 0 227.5 80.5t148.5 209.5t50 282q0 173 -74.5 282 t-216.5 109q-130 0 -229.5 -81t-150 -210.5t-50.5 -282.5q0 -172 75.5 -280.5t219.5 -108.5z" />
<glyph unicode="1" horiz-adv-x="618" d="M205 1229h444l-174 -1229h-170l152 1075h-275z" />
<glyph unicode="2" horiz-adv-x="1017" d="M109 117l577 516q61 54 91 87.5t48.5 77t18.5 97.5q0 86 -59.5 142.5t-161.5 56.5q-34 0 -69 -6.5t-65.5 -19t-56 -25t-50 -29.5t-38 -27t-29.5 -23l-16 -14l-72 135q7 7 20 18.5t56 40.5t89.5 51.5t117.5 41t143 18.5q184 0 280.5 -90.5t96.5 -236.5q0 -101 -37 -182 t-143 -175l-469 -417h571l-22 -154h-838z" />
<glyph unicode="3" horiz-adv-x="1028" d="M399 575l19 130l395 358h-559l22 166h807l-18 -139l-391 -369q156 -12 238.5 -90.5t82.5 -214.5q0 -188 -137.5 -312t-380.5 -124q-57 0 -109.5 9t-90.5 23.5t-70 31.5t-53 34.5t-36 32t-22 23.5l-6 9l119 138q4 -5 12 -13.5t35 -30.5t58 -39t81 -30.5t103 -13.5 q135 0 214 68t79 175q0 84 -59 131t-171 47h-162z" />
<glyph unicode="4" horiz-adv-x="1136" d="M106 410l797 819h137l-110 -791h211l-23 -153h-211l-41 -285h-170l41 285h-649zM332 438h428l71 523l-464 -486l-35 -31v-6z" />
<glyph unicode="5" horiz-adv-x="995" d="M465 1075l-57 -338q77 17 161 17q202 0 303 -87.5t101 -238.5q0 -198 -134.5 -326.5t-369.5 -128.5q-77 0 -144 17.5t-107.5 42.5t-70 50t-41.5 43l-12 17l113 123q4 -5 11 -14.5t32 -32.5t55 -41t79 -32.5t103 -14.5q139 0 224.5 74t85.5 198q0 91 -70 145t-199 54 q-76 0 -145.5 -13t-99.5 -24t-33 -14l-27 22l109 656h694l-20 -154h-541z" />
<glyph unicode="6" horiz-adv-x="1079" d="M360 627q134 141 332 141q165 0 265 -96t100 -240q0 -185 -144 -318.5t-348 -133.5q-86 0 -156.5 27t-125.5 83t-85 151.5t-30 223.5q0 186 46 336t127.5 248.5t191 151t237.5 52.5q53 0 100.5 -9.5t80.5 -24t61 -32.5t44.5 -36t28.5 -32.5t17 -24.5l4 -9l-115 -127 q-2 1 -14 18t-30.5 35.5t-45 38t-66.5 32t-87 12.5q-144 0 -240 -109.5t-146 -349.5zM659 616q-113 0 -197.5 -63t-117.5 -168q10 -128 75 -189t167 -61q123 0 210 82.5t87 196.5q0 90 -61 146t-163 56z" />
<glyph unicode="7" horiz-adv-x="907" d="M229 1229h822l-17 -117l-690 -1112h-203l680 1075h-612z" />
<glyph unicode="8" horiz-adv-x="1067" d="M530 -29q-185 0 -288 94.5t-103 237.5q0 113 58.5 200.5t164.5 139.5q-55 39 -83.5 98.5t-28.5 128.5q0 163 126.5 274t334.5 111q173 0 267.5 -84.5t94.5 -218.5q0 -96 -48.5 -175.5t-139.5 -133.5q67 -38 104 -104.5t37 -149.5q0 -172 -138 -295t-358 -123zM635 709 q121 0 192.5 63.5t71.5 155.5q0 74 -54.5 123t-154.5 49q-124 0 -195 -64t-71 -155q0 -76 54.5 -124t156.5 -48zM850 373q0 86 -64 141t-172 55q-130 0 -214.5 -70.5t-84.5 -174.5q0 -87 64 -142t174 -55q129 0 213 71t84 175z" />
<glyph unicode="9" horiz-adv-x="1075" d="M516 131q72 0 135 26.5t115 81t84.5 146.5t36.5 213v6q-61 -67 -146.5 -104t-183.5 -37q-166 0 -265 95t-99 243q0 121 64.5 224.5t177.5 165.5t247 62q87 0 157.5 -27t125.5 -83.5t85.5 -152.5t30.5 -224q0 -367 -162.5 -581t-424.5 -214q-73 0 -134.5 17.5t-97 42 t-60.5 49t-34 42.5l-10 17l116 127l13 -18q13 -18 30.5 -35t44.5 -37t67 -32.5t87 -12.5zM588 614q112 0 196 62t117 166q-10 131 -73 192.5t-164 61.5q-123 0 -210 -82.5t-87 -196.5q0 -90 59.5 -146.5t161.5 -56.5z" />
<glyph unicode=":" horiz-adv-x="446" d="M291 688q-31 12 -41.5 42.5t6.5 64.5q15 33 48 47.5t65 3.5q33 -12 44.5 -42.5t-5.5 -64.5t-51 -48.5t-66 -2.5zM197 6q-31 10 -41.5 42.5t4.5 64.5q17 33 50 48.5t64 4.5q32 -12 43 -43.5t-6 -65.5q-18 -33 -50 -48t-64 -3z" />
<glyph unicode=";" horiz-adv-x="483" d="M340 662q-41 0 -67.5 26t-26.5 66q0 49 37 84.5t88 35.5q39 0 65.5 -28t26.5 -68q0 -49 -36.5 -82.5t-86.5 -33.5zM49 -158q69 15 115.5 52t58.5 88q-33 6 -53 31t-20 59q0 51 36.5 86t87.5 35q45 0 72.5 -31.5t20.5 -75.5l-2 -10v-6q-6 -122 -90.5 -210t-211.5 -112z " />
<glyph unicode="&#x3c;" horiz-adv-x="763" d="M166 657l612 390l-24 -177l-420 -258l346 -258l-25 -176l-501 389z" />
<glyph unicode="=" horiz-adv-x="950" d="M244 864h704l-18 -139h-705zM190 473h705l-21 -139h-704z" />
<glyph unicode="&#x3e;" horiz-adv-x="763" d="M770 567l-612 -389l24 176l422 258l-348 258l25 177l501 -390z" />
<glyph unicode="?" horiz-adv-x="866" d="M219 1145q6 4 16.5 11.5t45.5 26.5t73 33.5t96.5 26.5t118.5 12q167 0 264 -75.5t97 -206.5q0 -79 -27.5 -144t-69 -105.5t-92.5 -80.5t-95.5 -70.5t-80 -73.5t-45.5 -91l-10 -52h-125l10 76q8 55 37.5 104.5t68 84t82 72.5t79.5 70t59.5 76.5t23.5 92.5q0 73 -55 117.5 t-151 44.5q-68 0 -134 -22t-99 -44l-32 -22zM303 82q0 52 38.5 88.5t90.5 36.5q41 0 68.5 -28.5t27.5 -69.5q0 -52 -38.5 -88.5t-90.5 -36.5q-41 0 -68.5 28.5t-27.5 69.5z" />
<glyph unicode="@" horiz-adv-x="2058" d="M1556 104q-66 0 -115.5 18.5t-77 49.5t-41.5 63.5t-17 67.5h-13q-14 -18 -30 -35t-52 -46.5t-74.5 -51t-95 -37.5t-116.5 -16q-143 0 -228.5 87.5t-85.5 237.5q0 123 46.5 232t123 183.5t175 117.5t200.5 43q69 0 121 -17.5t81 -46.5t44 -56t22 -56l58 155h129l-131 -510 q-21 -70 -21 -110q0 -67 37 -106.5t104 -39.5q133 0 233.5 138t100.5 360q0 101 -26 197.5t-82 184.5t-135 154t-193.5 105t-249.5 39q-199 0 -381.5 -78t-312 -206.5t-206.5 -300t-77 -353.5q0 -206 93.5 -377t261.5 -270.5t376 -99.5q72 0 145 12t125.5 29t94.5 34t63 29 l21 12l35 -104q-8 -5 -22.5 -13.5t-64 -30.5t-104 -39t-138.5 -30.5t-171 -13.5q-189 0 -348.5 68.5t-265.5 184.5t-165 269.5t-59 323.5q0 139 39 274.5t109 253.5t172.5 218.5t224.5 172t269 112t303 40.5q178 0 330.5 -61.5t256.5 -166.5t163 -247.5t59 -302.5 q0 -178 -69 -326t-187.5 -233t-260.5 -85zM987 264q96 0 181 56t134.5 148t49.5 194q0 98 -55.5 153t-147.5 55q-65 0 -129 -29.5t-114.5 -80t-81.5 -125t-31 -158.5q0 -100 52 -156.5t142 -56.5z" />
<glyph unicode="A" horiz-adv-x="1220" d="M1208 0h-178l-72 264h-624l-146 -264h-176l688 1229h162zM416 414h502l-164 608z" />
<glyph unicode="B" horiz-adv-x="1234" d="M1198 383q0 -185 -132 -284t-355 -99h-549l172 1229h526q183 0 282 -73.5t99 -211.5q0 -115 -61 -195.5t-164 -117.5v-6q85 -24 133.5 -87t48.5 -155zM1061 913q0 162 -223 162h-357l-53 -379h354q125 0 202 59t77 158zM408 547l-56 -393h383q124 0 205.5 58t81.5 163 q0 81 -66 126.5t-168 45.5h-380z" />
<glyph unicode="C" horiz-adv-x="1153" d="M1122 127q-6 -6 -18 -16.5t-53 -37.5t-87 -47.5t-120 -37.5t-152 -17q-163 0 -285.5 74t-185.5 199.5t-63 281.5q0 148 54.5 282t148.5 232.5t227 156.5t284 58q78 0 147 -16t111 -38.5t73 -45.5t44 -39l13 -16l-117 -131q-4 5 -11.5 13.5t-34.5 30.5t-58 39t-81.5 30.5 t-105.5 13.5q-194 0 -339 -140t-173 -344q-19 -132 21.5 -242t134 -174.5t221.5 -64.5q55 0 108.5 13t91 31.5t67 37.5t44.5 32l14 13z" />
<glyph unicode="D" horiz-adv-x="1292" d="M1305 702q0 -206 -93.5 -366.5t-258 -248t-371.5 -87.5h-420l172 1229h420q254 0 402.5 -143.5t148.5 -383.5zM481 1075l-129 -921h242q109 0 205.5 36.5t169.5 103t116 166.5t43 220q0 184 -112 289.5t-293 105.5h-242z" />
<glyph unicode="E" horiz-adv-x="1110" d="M1004 547h-596l-56 -393h699l-23 -154h-866l172 1229h866l-20 -154h-699l-53 -379h596z" />
<glyph unicode="F" horiz-adv-x="1089" d="M1004 547h-596l-78 -547h-168l172 1229h868l-20 -154h-701l-53 -379h596z" />
<glyph unicode="G" horiz-adv-x="1308" d="M1145 532h-410l23 150h583l-14 -102q-39 -279 -210.5 -444t-430.5 -165q-164 0 -285 74t-181 197.5t-60 279.5q0 149 53.5 283.5t146 233.5t226 157.5t286.5 58.5q85 0 159 -16.5t118.5 -39.5t77 -46.5t45.5 -40.5l14 -16l-119 -129q-4 5 -12 14t-37 31t-62.5 39t-89 31 t-116.5 14q-147 0 -265.5 -76t-183.5 -202.5t-65 -276.5q0 -116 42 -208t127.5 -147t203.5 -55q168 0 283 108t151 285z" />
<glyph unicode="H" horiz-adv-x="1325" d="M1163 0h-170l76 532h-663l-76 -532h-168l172 1229h168l-76 -547h664l75 547h170z" />
<glyph unicode="I" horiz-adv-x="491" d="M330 0h-168l172 1229h168z" />
<glyph unicode="J" horiz-adv-x="892" d="M145 205q9 -8 24.5 -19.5t67 -31t105.5 -19.5q126 0 200 72t95 227l113 795h165l-116 -830q-28 -203 -148 -315.5t-319 -112.5q-184 0 -289 105z" />
<glyph unicode="K" horiz-adv-x="1179" d="M412 580l706 649h199l-2 -25l-533 -487l373 -692l-4 -25h-182q-222 410 -322 592l-268 -246l-49 -346h-168l172 1229h168z" />
<glyph unicode="L" horiz-adv-x="1005" d="M162 0l172 1229h168l-150 -1075h625l-23 -154h-792z" />
<glyph unicode="M" horiz-adv-x="1482" d="M1284 913l-455 -495h-55l-317 491l-127 -909h-170l174 1229h123l377 -590l538 590h123l-172 -1229h-168z" />
<glyph unicode="N" horiz-adv-x="1363" d="M1202 0h-125l-616 932l-131 -932h-168l172 1229h125l616 -924l129 924h170z" />
<glyph unicode="O" horiz-adv-x="1384" d="M686 -29q-122 0 -222 43t-166 117.5t-102 175.5t-36 217q0 198 90.5 365t253.5 266.5t362 99.5q164 0 286.5 -74t184.5 -198.5t62 -282.5q0 -196 -91 -363t-255.5 -266.5t-366.5 -99.5zM709 133q145 0 263.5 74.5t184.5 200.5t66 274q0 179 -102 296.5t-277 117.5 q-108 0 -203.5 -44.5t-161.5 -119.5t-104.5 -176t-38.5 -211q0 -179 100.5 -295.5t272.5 -116.5z" />
<glyph unicode="P" horiz-adv-x="1181" d="M827 1229q197 0 306.5 -92t109.5 -258q0 -227 -148 -355.5t-393 -128.5h-317l-55 -395h-168l172 1229h493zM1069 854q0 110 -71.5 165.5t-198.5 55.5h-318l-73 -526h317q161 0 252.5 76t91.5 229z" />
<glyph unicode="Q" horiz-adv-x="1384" d="M686 -29q-122 0 -222 43t-166 117.5t-102 175.5t-36 217q0 198 90.5 365t253.5 266.5t362 99.5q164 0 286.5 -74t184.5 -198.5t62 -282.5q0 -215 -110 -391.5t-298 -267.5l129 -283h-190l-103 228q-84 -15 -141 -15zM709 133q145 0 263.5 74.5t184.5 200.5t66 274 q0 179 -102 296.5t-277 117.5q-108 0 -203.5 -44.5t-161.5 -119.5t-104.5 -176t-38.5 -211q0 -179 100.5 -295.5t272.5 -116.5z" />
<glyph unicode="R" horiz-adv-x="1224" d="M825 1229q198 0 308 -92t110 -258q0 -167 -89.5 -281.5t-240.5 -161.5l-2 -8l246 -395l-4 -33h-182l-250 408h-334l-57 -408h-168l172 1229h491zM1067 854q0 110 -71 165.5t-197 55.5h-318l-73 -516h331q147 0 237.5 75.5t90.5 219.5z" />
<glyph unicode="S" horiz-adv-x="1050" d="M207 248q5 -5 14 -13t40.5 -28.5t67.5 -36t93.5 -28.5t118.5 -13q153 0 228 60t75 159q0 66 -59.5 111t-215.5 94q-187 59 -272.5 132.5t-85.5 191.5q0 171 133 274.5t361 103.5q83 0 154 -12.5t113.5 -30.5t73 -36t42.5 -30l12 -13l-111 -140q-4 4 -12 11t-36 25.5 t-60.5 32t-86 25t-112.5 11.5q-129 0 -209 -52.5t-80 -144.5q0 -60 61 -101t214 -87q195 -59 277.5 -137.5t82.5 -198.5q0 -176 -133.5 -291t-372.5 -115q-85 0 -160.5 15.5t-122 37.5t-80.5 44t-49 38l-14 15z" />
<glyph unicode="T" horiz-adv-x="1067" d="M225 1229h965l-23 -154h-399l-152 -1075h-167l151 1075h-397z" />
<glyph unicode="U" horiz-adv-x="1294" d="M643 -29q-233 0 -346.5 151t-79.5 394l100 713h168l-100 -713q-24 -172 47.5 -277.5t233.5 -105.5q163 0 262 105t123 278l100 713h170l-100 -713q-34 -244 -188.5 -394.5t-389.5 -150.5z" />
<glyph unicode="V" horiz-adv-x="1220" d="M184 1229h176l277 -1024l565 1024h178l-690 -1229h-162z" />
<glyph unicode="W" horiz-adv-x="1648" d="M956 954l-393 -954h-131l-229 1229h178l147 -950l392 950h151l123 -950l418 950h178l-573 -1229h-134z" />
<glyph unicode="X" horiz-adv-x="1101" d="M762 631l313 -631h-203l-215 442l-34 88l-60 -88l-334 -442h-202l485 631l-299 598h203l207 -424l30 -82l54 82l323 424h203z" />
<glyph unicode="Y" horiz-adv-x="1091" d="M1059 1229h192l-555 -758l-65 -471h-170l65 471l-342 758h193l227 -520l27 -86h4l53 86z" />
<glyph unicode="Z" horiz-adv-x="1079" d="M78 117l862 958h-702l20 154h928l-17 -119l-845 -956h698l-23 -154h-938z" />
<glyph unicode="[" horiz-adv-x="661" d="M330 1434h499l-20 -140h-338l-199 -1421h338l-20 -139h-500z" />
<glyph unicode="\" horiz-adv-x="745" d="M295 1634h170l176 -1896h-168z" />
<glyph unicode="]" horiz-adv-x="661" d="M16 -127h338l199 1421h-338l21 140h501l-239 -1700h-502z" />
<glyph unicode="^" horiz-adv-x="876" d="M621 1303l-242 -285h-139l346 401h104l236 -401h-146z" />
<glyph unicode="_" horiz-adv-x="1114" d="M94 -82h905l-20 -139h-905z" />
<glyph unicode="`" horiz-adv-x="571" d="M297 1290l203 31l57 -303h-119z" />
<glyph unicode="a" d="M903 727l43 133h115l-121 -860h-115l-4 133h-6q-4 -6 -12 -16.5t-38 -37t-65.5 -46.5t-95 -36.5t-125.5 -16.5q-154 0 -250 104.5t-96 277.5q0 111 38 208.5t102 165t149.5 106.5t177.5 39q68 0 123.5 -16t86 -38.5t52 -45t28.5 -38.5l7 -16h6zM850 479 q0 121 -65.5 191.5t-168.5 70.5q-128 0 -220.5 -102.5t-92.5 -255.5q0 -117 63 -190.5t164 -73.5q132 0 226 99.5t94 260.5z" />
<glyph unicode="b" horiz-adv-x="1069" d="M305 1239h166l-70 -500h9q3 6 10 15.5t33 34t58 43t88 34t120 15.5q150 0 245 -107t95 -278q0 -112 -38 -209.5t-102.5 -164t-150 -104.5t-178.5 -38q-50 0 -93 9t-72 23.5t-52.5 31.5t-37 34.5t-23 32t-12.5 23.5l-3 9h-6l-43 -143h-117zM344 381q0 -121 64.5 -191.5 t166.5 -70.5q129 0 221.5 103.5t92.5 256.5q0 117 -62 189.5t-163 72.5q-131 0 -225.5 -100t-94.5 -260z" />
<glyph unicode="c" horiz-adv-x="839" d="M508 -20q-172 0 -274.5 106t-102.5 279q0 222 144 369t360 147q53 0 99 -8t73 -19t47 -22t28 -19l7 -8l-68 -125q-8 7 -23.5 17t-66.5 27t-106 17q-134 0 -228 -99.5t-94 -264.5q0 -122 65.5 -190t170.5 -68q55 0 108 15.5t79 30.5l26 15l26 -123q-3 -3 -10 -8.5 t-31 -18.5t-52.5 -23t-76 -18.5t-100.5 -8.5z" />
<glyph unicode="d" d="M881 752l67 487h166l-174 -1239h-115l-4 133h-6q-4 -6 -12 -16.5t-38 -37t-65.5 -46.5t-95 -36.5t-125.5 -16.5q-154 0 -250 104.5t-96 277.5q0 111 38.5 208.5t102.5 165t149.5 106.5t178.5 39q62 0 112.5 -13.5t78.5 -32.5t47 -37.5t26 -31.5l6 -14h9zM850 479 q0 121 -65.5 191.5t-168.5 70.5q-128 0 -220.5 -102.5t-92.5 -255.5q0 -117 63 -190.5t164 -73.5q132 0 226 99.5t94 260.5z" />
<glyph unicode="e" horiz-adv-x="937" d="M838 78q-4 -4 -13 -11t-39.5 -24.5t-65 -30.5t-90.5 -24t-116 -11q-181 0 -283 104.5t-102 278.5q0 144 61.5 263t172 188.5t245.5 69.5q182 0 267.5 -119.5t58.5 -308.5l-6 -43h-629q-15 -143 52.5 -218t193.5 -75q68 0 130 19.5t90 39.5l28 19zM588 743 q-95 0 -163 -53.5t-101 -157.5h452q0 103 -47.5 157t-140.5 54z" />
<glyph unicode="f" horiz-adv-x="638" d="M469 727l-102 -727h-168l102 727h-158l19 133h157l13 92q19 140 110.5 221.5t231.5 81.5q53 0 98 -10.5t64 -20.5l18 -10l-70 -131q-48 27 -120 27q-65 0 -108.5 -40t-53.5 -112l-15 -98h248l-18 -133h-248z" />
<glyph unicode="g" horiz-adv-x="1069" d="M946 57q-27 -191 -152.5 -307.5t-326.5 -116.5q-66 0 -122.5 13.5t-90 29t-62 38.5t-36.5 33t-15 20l105 108q3 -5 11 -13.5t29 -25.5t46.5 -30.5t66 -24t84.5 -10.5q127 0 202 71.5t95 210.5l11 68h-9q-3 -6 -10 -15.5t-33.5 -33.5t-58.5 -43t-87.5 -34t-119.5 -15 q-152 0 -247 106.5t-95 278.5q0 112 38.5 209.5t103 164t150.5 104.5t181 38q67 0 121.5 -17t84.5 -41t50 -48t26 -41l7 -17h8l41 143h117zM848 479q0 121 -65.5 191.5t-168.5 70.5q-128 0 -220.5 -103t-92.5 -255q0 -119 62 -191.5t163 -72.5q132 0 227 100t95 260z" />
<glyph unicode="h" horiz-adv-x="1044" d="M305 1239h168l-65 -461h6q103 103 280 103q164 0 245 -107.5t56 -284.5l-69 -489h-168l65 469q18 119 -30.5 194.5t-155.5 75.5q-56 0 -105.5 -22t-81.5 -57t-52.5 -73.5t-26.5 -76.5l-72 -510h-168z" />
<glyph unicode="i" horiz-adv-x="436" d="M362 1036q-40 0 -67 26t-27 66q0 49 37.5 84t87.5 35q41 0 67.5 -27t26.5 -67q0 -49 -37 -83t-88 -34zM256 860h166l-121 -860h-166z" />
<glyph unicode="j" horiz-adv-x="436" d="M362 1036q-41 0 -67.5 26t-26.5 66q0 48 38.5 83.5t86.5 35.5q41 0 67.5 -27t26.5 -67q0 -48 -38 -82.5t-87 -34.5zM-14 -180h22q50 0 80.5 29t36.5 75l131 936h166l-133 -944q-16 -111 -81.5 -173t-180.5 -62h-62z" />
<glyph unicode="k" horiz-adv-x="915" d="M1012 860l-428 -373l311 -487h-205l-246 379l-104 -90l-41 -289h-168l174 1239h168l-106 -756l432 377h213z" />
<glyph unicode="l" horiz-adv-x="440" d="M309 1239h168l-174 -1239h-168z" />
<glyph unicode="m" horiz-adv-x="1658" d="M252 860h113v-125h12q63 75 133.5 110.5t175.5 35.5t178.5 -42.5t106.5 -117.5h10q60 78 136.5 119t191.5 41q165 0 244.5 -107.5t54.5 -284.5l-70 -489h-166l66 471q16 119 -31.5 193.5t-155.5 74.5q-73 0 -130.5 -35t-87 -82.5t-40.5 -101.5l-73 -520h-168l69 500 q14 107 -34.5 173t-157.5 66q-55 0 -102 -20.5t-77.5 -54t-50 -70.5t-26.5 -74l-74 -520h-168z" />
<glyph unicode="n" horiz-adv-x="1046" d="M252 860h113v-125h12q59 73 132.5 109.5t182.5 36.5q167 0 247.5 -107.5t55.5 -284.5l-69 -489h-166l65 471q16 119 -32.5 193.5t-157.5 74.5q-56 0 -105 -21.5t-81 -56t-52 -73t-26 -76.5l-72 -512h-168z" />
<glyph unicode="o" horiz-adv-x="1024" d="M1016 487q0 -149 -72 -267t-186.5 -179t-247.5 -61q-167 0 -273 104.5t-106 280.5q0 149 71 268.5t186.5 183.5t248.5 64q165 0 272 -109t107 -285zM528 115q130 0 225 100.5t95 261.5q0 121 -65 194.5t-165 73.5q-131 0 -226 -102.5t-95 -263.5q0 -122 64.5 -193 t166.5 -71z" />
<glyph unicode="p" horiz-adv-x="1069" d="M313 109l-59 -428h-168l166 1179h115l2 -125h14q4 6 12.5 16t38.5 35t65 44t93.5 35t122.5 16q152 0 248 -105t96 -278q0 -147 -64.5 -267t-170 -185.5t-228.5 -65.5q-64 0 -116 13.5t-81 32t-48 37.5t-25 33l-7 13h-6zM344 381q0 -121 64.5 -191.5t166.5 -70.5 q129 0 220.5 102.5t91.5 255.5q0 118 -61 191t-162 73q-131 0 -225.5 -100t-94.5 -260z" />
<glyph unicode="q" d="M895 -319h-166l64 440h-9q-3 -6 -10 -15.5t-33.5 -33.5t-58.5 -43t-87.5 -34t-119.5 -15q-152 0 -247 106.5t-95 278.5q0 112 38.5 209.5t103 164t150.5 104.5t181 38q67 0 121.5 -17t84.5 -41t50 -48t26 -41l7 -17h8l41 143h117zM850 479q0 121 -65.5 191.5t-168.5 70.5 q-128 0 -220.5 -103t-92.5 -255q0 -119 62 -191.5t163 -72.5q132 0 227 100t95 260z" />
<glyph unicode="r" horiz-adv-x="591" d="M670 725h-47q-92 0 -166.5 -66.5t-87.5 -166.5l-70 -492h-168l121 860h113l-3 -145h11q41 70 111 108.5t157 38.5h47z" />
<glyph unicode="s" horiz-adv-x="845" d="M172 199q4 -3 12.5 -9t36 -20.5t57.5 -25.5t76.5 -20t94.5 -9q102 0 149 34.5t47 90.5q0 32 -26.5 55.5t-69 38.5t-94 29.5t-102.5 33t-93.5 43.5t-69 67t-26.5 97q0 119 93.5 198t268.5 79q100 0 184.5 -18t119.5 -36l34 -18l-82 -135q-4 3 -11.5 7.5t-33 17t-54 22 t-72.5 17t-89 7.5q-194 0 -194 -116q0 -27 21 -47.5t54.5 -32.5t77 -25t89 -24t89 -31t77 -44t54.5 -64.5t21 -92.5q0 -57 -21.5 -107t-65.5 -91.5t-119.5 -65.5t-174.5 -24q-69 0 -130 10.5t-98 26t-64.5 31t-38.5 26.5l-11 10z" />
<glyph unicode="t" horiz-adv-x="665" d="M309 860l37 262h168l-37 -262h246l-18 -133h-246l-68 -475q-18 -129 103 -129q26 0 56.5 9.5t47.5 18.5l18 9l35 -119q-10 -8 -32.5 -20t-71.5 -26.5t-98 -14.5q-133 0 -188.5 71.5t-37.5 198.5l68 477h-158l19 133h157z" />
<glyph unicode="u" horiz-adv-x="1042" d="M864 860h168l-121 -860h-110l-13 121h-6q-14 -18 -34 -37t-58 -45t-96.5 -42.5t-126.5 -16.5q-166 0 -243 106.5t-52 284.5l70 489h166l-66 -471q-18 -121 27 -194.5t153 -73.5q59 0 110 22.5t83.5 58t52 75t25.5 77.5z" />
<glyph unicode="v" horiz-adv-x="935" d="M526 0h-116l-271 860h185l161 -604q9 -40 4 -59h11q7 29 24 59l332 604h182z" />
<glyph unicode="w" horiz-adv-x="1343" d="M150 860h174l104 -604q6 -52 4 -59h14q3 11 25 61l254 602h141l86 -602q8 -37 2 -61h17q8 32 20 59l279 604h166l-437 -860h-145l-82 592q-7 25 -4 65h-8q-1 -10 -4.5 -20.5t-10 -25.5t-8.5 -19l-252 -592h-141z" />
<glyph unicode="x" horiz-adv-x="897" d="M410 446l-240 414h192l162 -309h6l252 309h191l-361 -414l258 -446h-190l-180 342h-6l-277 -342h-188z" />
<glyph unicode="y" horiz-adv-x="1036" d="M1026 860l-117 -831q-26 -179 -144 -287.5t-312 -108.5q-64 0 -120.5 13t-90 29.5t-62 39t-37.5 32.5t-16 20l102 108l9 -9q10 -10 21.5 -20.5t32.5 -24.5t45 -24.5t58.5 -18t71.5 -7.5q237 0 276 254l11 65q-110 -110 -277 -110q-176 0 -255 106.5t-54 286.5l68 487h167 l-65 -471q-16 -121 28 -194.5t152 -73.5q111 0 182.5 70.5t87.5 156.5l72 512h166z" />
<glyph unicode="z" horiz-adv-x="866" d="M72 0l12 88l588 635h-496l19 137h698v-2l20 2l-10 -80l-581 -643h489l-18 -137h-721z" />
<glyph unicode="{" horiz-adv-x="573" d="M176 657q131 0 158 189l49 346q36 252 303 272l6 -141q-67 -9 -97 -39.5t-40 -107.5l-47 -345q-28 -193 -160 -237l-2 -19q59 -20 81.5 -80.5t10.5 -150.5l-49 -350q-10 -75 11.5 -106t84.5 -40l-47 -139q-261 17 -225 271l49 346q27 192 -106 192h-52l21 139h51z" />
<glyph unicode="|" horiz-adv-x="409" d="M246 -262h-156l236 1669h155z" />
<glyph unicode="}" horiz-adv-x="573" d="M637 657l-21 -139h-51q-132 0 -159 -192l-50 -346q-36 -254 -303 -271l-6 139q65 9 96 40.5t41 105.5l49 350q12 90 52.5 150.5t105.5 80.5l2 19q-120 43 -92 237l49 345q10 77 -11.5 107.5t-84.5 39.5l47 141q261 -20 225 -272l-49 -346q-13 -94 15.5 -141.5t93.5 -47.5 h51z" />
<glyph unicode="~" horiz-adv-x="980" d="M731 649q42 0 85 12.5t65 25.5l22 13l43 -102q-4 -3 -11 -8.5t-30.5 -19.5t-49 -24.5t-64 -19t-76.5 -8.5q-57 0 -141.5 33t-149.5 33q-42 0 -85 -12t-65 -24l-22 -13l-41 100q4 3 11 8.5t31 19.5t49 24.5t63 19t75 8.5q57 0 141.5 -33t149.5 -33z" />
<glyph unicode="&#xa1;" horiz-adv-x="415" d="M203 756q0 52 38.5 89.5t88.5 37.5q44 0 71 -29t27 -72q0 -52 -38 -89.5t-91 -37.5q-41 0 -68.5 29.5t-27.5 71.5zM256 -362h-203l168 870h115z" />
<glyph unicode="&#xa2;" horiz-adv-x="876" d="M416 178q-117 34 -184.5 132.5t-67.5 236.5q0 216 141.5 362t351.5 152l45 168h105l-47 -176q50 -8 92.5 -25t59.5 -30l18 -13l-68 -125q-53 41 -139 55l-170 -616h25q55 0 108.5 15.5t79.5 30.5l27 15l26 -124q-4 -3 -12 -8t-34 -18.5t-55.5 -23.5t-75 -18t-93.5 -8h-33 l-43 -160h-104zM336 561q0 -82 32.5 -142.5t88.5 -90.5l161 590q-120 -19 -201 -116.5t-81 -240.5z" />
<glyph unicode="&#xa3;" horiz-adv-x="1021" d="M913 0h-782l23 154h2l-2 2q6 2 16.5 7t37 24t46.5 43.5t36.5 68t16.5 94.5q0 53 -14 142h-129l18 129h94q-6 44 -6 108q0 96 34.5 181t97.5 149.5t160 102.5t214 38q66 0 123.5 -13t93 -31.5t61 -37.5t36.5 -32l10 -13l-119 -131q-3 4 -8.5 10.5t-26 23t-44 29t-63 23 t-83.5 10.5q-145 0 -222 -87.5t-77 -227.5q0 -73 4 -102h426l-19 -129h-389q8 -78 8 -121q0 -142 -102 -260h551z" />
<glyph unicode="&#xa5;" horiz-adv-x="1189" d="M1108 1229h192l-464 -633h268l-19 -129h-342l-22 -162h342l-19 -127h-339l-25 -178h-170l25 178h-338l18 127h336l22 162h-335l18 129h262l-285 633h193l227 -520l27 -86h4l53 86z" />
<glyph unicode="&#xa6;" horiz-adv-x="428" d="M231 676l99 702h153l-98 -702h-154zM92 -313l98 702h154l-98 -702h-154z" />
<glyph unicode="&#xa7;" horiz-adv-x="1060" d="M195 223q5 -4 15 -10.5t44 -23.5t72 -30t97 -23.5t120 -10.5q141 0 207.5 35t66.5 94q0 51 -50.5 79.5t-201.5 76.5q-143 42 -219 96t-76 135q0 56 28 94.5t64 57.5q-114 63 -114 172q0 129 120.5 209.5t350.5 80.5q80 0 149.5 -10t112.5 -24t74 -28t44 -24l13 -10 l-106 -133l-12 9t-36 20.5t-60.5 25.5t-86.5 20t-113 9q-130 0 -194 -34t-64 -93q0 -50 48 -79t161 -62q340 -94 340 -248q0 -96 -92 -162q117 -71 117 -172q0 -120 -124 -203.5t-364 -83.5q-85 0 -161.5 12.5t-124.5 29.5t-83.5 34.5t-50.5 30.5l-16 12zM575 715 q-3 1 -37 9.5t-51 14.5q-49 -27 -49 -75q0 -36 50 -66.5t153 -60.5q69 -22 129 -43l8 8l10 10t9.5 11t9.5 14.5t5.5 16t2.5 19.5q0 42 -59 74.5t-181 67.5z" />
<glyph unicode="&#xa8;" horiz-adv-x="931" d="M395 1450q0 43 36.5 78t78.5 35q37 0 63.5 -27.5t26.5 -65.5q0 -44 -37.5 -79t-81.5 -35q-35 0 -60.5 28t-25.5 66zM733 1450q0 44 36 78.5t81 34.5q37 0 62.5 -27.5t25.5 -65.5q0 -44 -37 -79t-80 -35q-38 0 -63 27.5t-25 66.5z" />
<glyph unicode="&#xa9;" horiz-adv-x="1404" d="M877 1239q125 0 226.5 -42.5t167 -116t101 -171.5t35.5 -211q0 -142 -51.5 -271.5t-142.5 -226.5t-224.5 -154.5t-288.5 -57.5q-125 0 -227 42.5t-168.5 116t-102.5 172t-36 211.5q0 141 52.5 270.5t144 226.5t226 154.5t288.5 57.5zM864 1153q-176 0 -316 -85 t-215 -224.5t-75 -304.5q0 -131 51.5 -235t156.5 -167t247 -63q131 0 245 49.5t192.5 133t123.5 195.5t45 234q0 132 -52 236.5t-157 167.5t-246 63zM975 778q-5 6 -15 16t-45.5 26t-76.5 16q-107 0 -176.5 -73t-69.5 -179q0 -82 48.5 -135.5t135.5 -53.5q41 0 79 14t55 28 l18 14l47 -89q-3 -3 -9 -8t-26.5 -18t-44 -23t-62 -18t-79.5 -8q-133 0 -207 79t-74 203q0 157 103.5 266t269.5 109q41 0 77 -8t57.5 -19t37.5 -22t22 -19l7 -8z" />
<glyph unicode="&#xaa;" horiz-adv-x="815" d="M180 737q0 107 87 172.5t227 65.5q73 0 124.5 -18t71.5 -42l4 27q16 105 -16 154t-137 49q-95 0 -201 -47l-25 106q14 6 39.5 15t94 23.5t126.5 14.5q161 0 217 -81t33 -238l-53 -377h-92l-6 76h-6q-33 -35 -101 -63.5t-159 -28.5q-101 0 -164.5 53.5t-63.5 138.5z M313 754q0 -49 37 -80t105 -31q82 0 148.5 42.5t66.5 90.5q0 47 -45.5 77t-120.5 30q-90 0 -140.5 -35t-50.5 -94z" />
<glyph unicode="&#xab;" horiz-adv-x="948" d="M143 451l306 385h143l-4 -21l-295 -381l-2 -12l188 -385l-4 -21h-143l-195 387zM537 451l303 385h141l-4 -21l-295 -381l-2 -12l188 -385l-4 -21h-141l-193 387z" />
<glyph unicode="&#xac;" horiz-adv-x="1120" d="M195 709h897l-101 -709h-141l80 569h-756z" />
<glyph unicode="&#xad;" horiz-adv-x="806" d="M193 539h573l-21 -140h-573z" />
<glyph unicode="&#xae;" horiz-adv-x="1118" d="M1137 842q0 -144 -66 -267t-190.5 -198.5t-280.5 -75.5q-125 0 -217 56.5t-137 149.5t-45 208q0 144 65.5 266.5t188.5 198t278 75.5q126 0 219 -56t139 -148.5t46 -208.5zM1044 831q0 148 -87 242t-236 94q-184 0 -306 -125.5t-122 -316.5q0 -146 86.5 -241t232.5 -95 q186 0 309 128t123 314zM713 993q73 0 114 -34.5t41 -94.5q0 -100 -98 -143v-2l68 -119l-4 -20h-84l-70 120h-115l-16 -120h-82l57 413h189zM596 915l-18 -139h104q44 0 72 21.5t28 58.5q0 59 -80 59h-106z" />
<glyph unicode="&#xaf;" horiz-adv-x="1077" d="M455 1477h604l-15 -109h-604z" />
<glyph unicode="&#xb0;" horiz-adv-x="608" d="M496 1376q93 0 147.5 -55t54.5 -139q0 -102 -75.5 -174t-188.5 -72q-92 0 -147.5 54.5t-55.5 137.5q0 102 76.5 175t188.5 73zM483 1286q-65 0 -107 -43t-42 -104q0 -48 30 -79.5t82 -31.5q66 0 110 42t44 101q0 51 -31.5 83t-85.5 32z" />
<glyph unicode="&#xb1;" horiz-adv-x="1073" d="M518 354l49 342h-344l19 138h344l49 352h141l-49 -352h338l-18 -138h-338l-50 -342h-141zM958 74h-823l21 139h823z" />
<glyph unicode="&#xb2;" horiz-adv-x="704" d="M219 799l318 245q54 41 71 72.5t17 69.5q0 92 -111 92q-56 0 -108 -27t-72 -47l-49 90q4 4 11.5 10t32.5 22t52 28t67.5 22t81.5 10q112 0 166 -51t54 -133q0 -64 -24.5 -113.5t-96.5 -105.5l-238 -180h318l-15 -103h-489z" />
<glyph unicode="&#xb3;" horiz-adv-x="679" d="M297 1368h463l-12 -78l-173 -186q74 -10 112 -53t38 -113q0 -109 -78 -181.5t-221 -72.5q-144 0 -236 92l78 88q3 -3 7.5 -8t21 -18.5t34.5 -23.5t46.5 -18t58.5 -8q80 0 125 40t45 96q0 44 -31 69t-88 25h-75l8 69l168 179h-305z" />
<glyph unicode="&#xb4;" horiz-adv-x="571" d="M379 1018h-117l148 297l198 -27z" />
<glyph unicode="&#xb5;" horiz-adv-x="1034" d="M84 -262l84 594q0 11 4 39l70 489h166l-66 -471q-18 -121 27 -194.5t153 -73.5q59 0 110 22.5t83.5 58t52 75t25.5 77.5l71 506h168l-121 -860h-110l-13 121h-6q-14 -18 -34 -37t-58 -45t-96.5 -42.5t-126.5 -16.5q-107 0 -180 45l-37 -287h-166z" />
<glyph unicode="&#xb6;" horiz-adv-x="1079" d="M805 250h-127q-234 0 -375 112t-141 320q0 174 86 300t230.5 187.5t330.5 61.5h303l-197 -1399h-170z" />
<glyph unicode="&#xb7;" horiz-adv-x="432" d="M207 723q0 52 38.5 89.5t88.5 37.5q42 0 70 -29t28 -71q0 -52 -38 -89.5t-91 -37.5q-41 0 -68.5 29t-27.5 71z" />
<glyph unicode="&#xb8;" horiz-adv-x="421" d="M111 -98l65 104h88l-41 -69q52 -2 83.5 -30.5t31.5 -80.5q0 -73 -50.5 -119.5t-135.5 -46.5q-47 0 -84 15t-50 29l-14 15l51 64q1 0 11 -7.5t21.5 -14.5t31.5 -13t41 -6q43 0 66.5 20.5t23.5 55.5q0 24 -19.5 37.5t-52.5 13.5l-43 -4z" />
<glyph unicode="&#xb9;" horiz-adv-x="432" d="M242 1368h256l-95 -668h-116l80 566h-140z" />
<glyph unicode="&#xba;" horiz-adv-x="829" d="M594 1255q131 0 210 -82t79 -221q0 -177 -111.5 -289t-277.5 -112q-131 0 -212 81.5t-81 217.5q0 179 113.5 292t279.5 113zM578 1141q-106 0 -175 -78t-69 -201q0 -90 46.5 -143t129.5 -53q106 0 175 77t69 199q0 92 -46.5 145.5t-129.5 53.5z" />
<glyph unicode="&#xbb;" horiz-adv-x="946" d="M535 403l-306 -387h-145l2 21l299 385l2 12l-190 381l2 21h145l197 -385zM924 403l-306 -387h-143l2 21l299 385l2 12l-190 381l2 21h143l197 -385z" />
<glyph unicode="&#xbc;" horiz-adv-x="1286" d="M66 0l1130 1229h143l-1132 -1229h-141zM258 1229h256l-92 -668h-117l78 565h-139zM676 246l424 422h88l-55 -398h120l-14 -98h-121l-24 -172h-113l25 172h-340zM887 330q-14 -14 -31 -29.5t-29 -26.5l-12 -10l92 6h113l22 172l9 56h-2z" />
<glyph unicode="&#xbd;" horiz-adv-x="1409" d="M66 0l1128 1229h145l-1132 -1229h-141zM264 1229h256l-92 -668h-117l78 565h-139zM844 0h489l15 102h-318l238 181q72 56 96.5 105.5t24.5 113.5q0 82 -54 133t-166 51q-64 0 -125.5 -23t-90.5 -46l-29 -23l49 -90q10 10 32 25t65 32t83 17q56 0 83.5 -25t27.5 -68 q0 -37 -17 -68.5t-71 -72.5l-318 -246z" />
<glyph unicode="&#xbe;" horiz-adv-x="1447" d="M270 1229h461l-12 -78l-172 -186q74 -10 112.5 -53t38.5 -113q0 -109 -79 -181.5t-222 -72.5t-235 92l78 86q3 -6 20.5 -21.5t60 -34t89.5 -18.5q78 0 123 39.5t45 95.5q0 44 -31 69.5t-88 25.5h-76l8 69l168 178h-303zM240 0l1130 1229h146l-1135 -1229h-141zM842 244 l424 422h88l-56 -398h119l-14 -98h-119l-24 -170h-113l24 170h-340zM1053 326q-13 -13 -30.5 -28.5t-29.5 -25.5l-12 -10l92 6h113l24 172l7 56h-3z" />
<glyph unicode="&#xbf;" horiz-adv-x="851" d="M680 788q0 -52 -37.5 -88t-89.5 -36q-41 0 -69.5 28.5t-28.5 69.5q0 52 39.5 89.5t91.5 37.5q41 0 67.5 -29.5t26.5 -71.5zM764 -272q-6 -5 -16.5 -12.5t-45.5 -27t-73 -34.5t-96.5 -27t-118.5 -12q-166 0 -263.5 76.5t-97.5 208.5q0 68 20 124.5t53 96.5t73.5 74.5 t82.5 64.5t79 59t65 66t37 78l12 53h123l-10 -78q-6 -48 -29 -90.5t-54 -75t-67.5 -63.5t-71.5 -60.5t-64 -59.5t-46.5 -68t-17.5 -80q0 -73 55.5 -118.5t152.5 -45.5q67 0 132.5 22t97.5 44l33 22z" />
<glyph unicode="&#xc0;" horiz-adv-x="1220" d="M586 1573l202 31l58 -304h-119zM1208 0h-178l-72 264h-624l-146 -264h-176l688 1229h162zM416 414h502l-164 608z" />
<glyph unicode="&#xc1;" horiz-adv-x="1220" d="M852 1300h-117l148 297l198 -26zM1208 0h-178l-72 264h-624l-146 -264h-176l688 1229h162zM416 414h502l-164 608z" />
<glyph unicode="&#xc2;" horiz-adv-x="1220" d="M819 1483l-127 -127h-141l213 233h135l150 -233h-144zM1208 0h-178l-72 264h-624l-146 -264h-176l688 1229h162zM416 414h502l-164 608z" />
<glyph unicode="&#xc3;" horiz-adv-x="1220" d="M961 1358q-43 0 -84.5 17.5t-69 38.5t-60.5 38.5t-61 17.5q-40 0 -60.5 -20.5t-37.5 -60.5l-15 -33l-116 12l18 57q58 177 211 177q41 0 81.5 -18t67.5 -39.5t60.5 -39.5t62.5 -18q74 0 103 86l10 31l119 -13l-19 -55q-26 -80 -77.5 -129t-132.5 -49zM1208 0h-178 l-72 264h-624l-146 -264h-176l688 1229h162zM416 414h502l-164 608z" />
<glyph unicode="&#xc4;" horiz-adv-x="1220" d="M543 1450q0 44 36 78.5t78 34.5q37 0 64 -27.5t27 -65.5q0 -44 -37.5 -79t-81.5 -35q-35 0 -60.5 28t-25.5 66zM881 1450q0 44 35.5 78.5t80.5 34.5q37 0 62.5 -27.5t25.5 -65.5q0 -44 -36.5 -79t-79.5 -35q-38 0 -63 27.5t-25 66.5zM1208 0h-178l-72 264h-624l-146 -264 h-176l688 1229h162zM416 414h502l-164 608z" />
<glyph unicode="&#xc5;" horiz-adv-x="1220" d="M594 1419q0 88 68.5 144.5t175.5 56.5q87 0 138.5 -44.5t51.5 -115.5q0 -87 -68.5 -143.5t-173.5 -56.5q-88 0 -140 44t-52 115zM922 1450q0 35 -25.5 54.5t-71.5 19.5q-59 0 -93 -25t-34 -69q0 -36 27.5 -55t75.5 -19q56 0 88.5 24.5t32.5 69.5zM1208 0h-178l-72 264 h-624l-146 -264h-176l688 1229h162zM416 414h502l-164 608z" />
<glyph unicode="&#xc6;" horiz-adv-x="1806" d="M999 1229h897l-20 -154h-705l-53 -379h596l-22 -151h-596l-54 -391h705l-23 -154h-874l37 266h-484l-213 -266h-204zM526 418h383l78 555h-12z" />
<glyph unicode="&#xc7;" horiz-adv-x="1153" d="M561 -98l47 75q-210 27 -330 179t-120 370q0 148 54.5 282t148.5 232.5t227 156.5t284 58q78 0 147 -16t111 -38.5t73 -45.5t44 -39l13 -16l-117 -131q-4 5 -11.5 13.5t-34.5 30.5t-58 39t-81.5 30.5t-105.5 13.5q-194 0 -339 -140t-173 -344q-19 -132 21.5 -242 t134 -174.5t221.5 -64.5q55 0 108.5 13t91 31.5t67 37.5t44.5 32l14 13l80 -131q-6 -6 -18 -16.5t-53 -37t-87 -47t-119.5 -37.5t-150.5 -18l-20 -34q51 -2 82.5 -30.5t31.5 -80.5q0 -73 -50.5 -119.5t-135.5 -46.5q-47 0 -84 15t-50 29l-13 15l51 64q1 0 11 -7.5t21 -14.5 t31 -13t41 -6q43 0 66.5 20.5t23.5 55.5q0 24 -19 37.5t-52 13.5l-43 -4z" />
<glyph unicode="&#xc8;" horiz-adv-x="1110" d="M598 1573l203 31l57 -304h-119zM1004 547h-596l-56 -393h699l-23 -154h-866l172 1229h866l-20 -154h-699l-53 -379h596z" />
<glyph unicode="&#xc9;" horiz-adv-x="1110" d="M836 1300h-117l147 297l199 -26zM1004 547h-596l-56 -393h699l-23 -154h-866l172 1229h866l-20 -154h-699l-53 -379h596z" />
<glyph unicode="&#xca;" horiz-adv-x="1110" d="M819 1483l-127 -127h-141l213 233h135l150 -233h-144zM1004 547h-596l-56 -393h699l-23 -154h-866l172 1229h866l-20 -154h-699l-53 -379h596z" />
<glyph unicode="&#xcb;" horiz-adv-x="1110" d="M537 1450q0 44 36 78.5t78 34.5q37 0 63.5 -27.5t26.5 -65.5q0 -44 -37.5 -79t-80.5 -35q-35 0 -60.5 28t-25.5 66zM874 1450q0 44 36 78.5t81 34.5q37 0 62.5 -27.5t25.5 -65.5q0 -44 -36.5 -79t-79.5 -35q-38 0 -63.5 27.5t-25.5 66.5zM1004 547h-596l-56 -393h699 l-23 -154h-866l172 1229h866l-20 -154h-699l-53 -379h596z" />
<glyph unicode="&#xcc;" horiz-adv-x="491" d="M221 1573l203 31l57 -304h-119zM330 0h-168l172 1229h168z" />
<glyph unicode="&#xcd;" horiz-adv-x="491" d="M487 1300h-116l147 297l199 -26zM330 0h-168l172 1229h168z" />
<glyph unicode="&#xce;" horiz-adv-x="491" d="M459 1483l-127 -127h-142l213 233h136l149 -233h-143zM330 0h-168l172 1229h168z" />
<glyph unicode="&#xcf;" horiz-adv-x="491" d="M180 1450q0 43 36.5 78t78.5 35q37 0 63.5 -27.5t26.5 -65.5q0 -44 -37.5 -79t-81.5 -35q-35 0 -60.5 28t-25.5 66zM518 1450q0 44 36 78.5t81 34.5q37 0 62.5 -27.5t25.5 -65.5q0 -44 -37 -79t-80 -35q-38 0 -63 27.5t-25 66.5zM330 0h-168l172 1229h168z" />
<glyph unicode="&#xd0;" horiz-adv-x="1294" d="M143 698h115l76 531h420q254 0 402.5 -143.5t148.5 -383.5q0 -206 -93.5 -366.5t-258 -248t-371.5 -87.5h-420l76 545h-117zM481 1075l-53 -377h344l-22 -153h-344l-54 -391h242q109 0 205.5 36.5t169.5 103t116 166.5t43 220q0 184 -112 289.5t-293 105.5h-242z" />
<glyph unicode="&#xd1;" horiz-adv-x="1363" d="M1034 1358q-43 0 -84.5 17.5t-68.5 38.5t-60 38.5t-61 17.5q-40 0 -60.5 -20.5t-37.5 -60.5l-15 -33l-117 12l19 57q58 177 211 177q41 0 81.5 -18t67.5 -39.5t60.5 -39.5t62.5 -18q74 0 103 86l10 31l119 -13l-19 -55q-26 -79 -78 -128.5t-133 -49.5zM1202 0h-125 l-616 932l-131 -932h-168l172 1229h125l616 -924l129 924h170z" />
<glyph unicode="&#xd2;" horiz-adv-x="1384" d="M684 1628l203 31l57 -303h-119zM686 -29q-122 0 -222 43t-166 117.5t-102 175.5t-36 217q0 198 90.5 365t253.5 266.5t362 99.5q164 0 286.5 -74t184.5 -198.5t62 -282.5q0 -196 -91 -363t-255.5 -266.5t-366.5 -99.5zM709 133q145 0 263.5 74.5t184.5 200.5t66 274 q0 179 -102 296.5t-277 117.5q-108 0 -203.5 -44.5t-161.5 -119.5t-104.5 -176t-38.5 -211q0 -179 100.5 -295.5t272.5 -116.5z" />
<glyph unicode="&#xd3;" horiz-adv-x="1384" d="M932 1356h-117l148 297l198 -27zM686 -29q-122 0 -222 43t-166 117.5t-102 175.5t-36 217q0 198 90.5 365t253.5 266.5t362 99.5q164 0 286.5 -74t184.5 -198.5t62 -282.5q0 -196 -91 -363t-255.5 -266.5t-366.5 -99.5zM709 133q145 0 263.5 74.5t184.5 200.5t66 274 q0 179 -102 296.5t-277 117.5q-108 0 -203.5 -44.5t-161.5 -119.5t-104.5 -176t-38.5 -211q0 -179 100.5 -295.5t272.5 -116.5z" />
<glyph unicode="&#xd4;" horiz-adv-x="1384" d="M903 1483l-127 -127h-141l213 233h135l150 -233h-144zM686 -29q-122 0 -222 43t-166 117.5t-102 175.5t-36 217q0 198 90.5 365t253.5 266.5t362 99.5q164 0 286.5 -74t184.5 -198.5t62 -282.5q0 -196 -91 -363t-255.5 -266.5t-366.5 -99.5zM709 133q145 0 263.5 74.5 t184.5 200.5t66 274q0 179 -102 296.5t-277 117.5q-108 0 -203.5 -44.5t-161.5 -119.5t-104.5 -176t-38.5 -211q0 -179 100.5 -295.5t272.5 -116.5z" />
<glyph unicode="&#xd5;" horiz-adv-x="1384" d="M1036 1358q-43 0 -84.5 17.5t-68.5 38.5t-60 38.5t-61 17.5q-40 0 -60.5 -20.5t-37.5 -60.5l-15 -33l-117 12l19 57q58 177 211 177q41 0 81.5 -18t67.5 -39.5t60.5 -39.5t62.5 -18q74 0 103 86l10 31l119 -13l-19 -55q-26 -79 -78 -128.5t-133 -49.5zM686 -29 q-122 0 -222 43t-166 117.5t-102 175.5t-36 217q0 198 90.5 365t253.5 266.5t362 99.5q164 0 286.5 -74t184.5 -198.5t62 -282.5q0 -196 -91 -363t-255.5 -266.5t-366.5 -99.5zM709 133q145 0 263.5 74.5t184.5 200.5t66 274q0 179 -102 296.5t-277 117.5 q-108 0 -203.5 -44.5t-161.5 -119.5t-104.5 -176t-38.5 -211q0 -179 100.5 -295.5t272.5 -116.5z" />
<glyph unicode="&#xd6;" horiz-adv-x="1384" d="M625 1450q0 44 36 78.5t78 34.5q37 0 63.5 -27.5t26.5 -65.5q0 -44 -37.5 -79t-80.5 -35q-35 0 -60.5 28t-25.5 66zM963 1450q0 44 35.5 78.5t80.5 34.5q37 0 62.5 -27.5t25.5 -65.5q0 -44 -36.5 -79t-79.5 -35q-38 0 -63 27.5t-25 66.5zM686 -29q-122 0 -222 43 t-166 117.5t-102 175.5t-36 217q0 198 90.5 365t253.5 266.5t362 99.5q164 0 286.5 -74t184.5 -198.5t62 -282.5q0 -196 -91 -363t-255.5 -266.5t-366.5 -99.5zM709 133q145 0 263.5 74.5t184.5 200.5t66 274q0 179 -102 296.5t-277 117.5q-108 0 -203.5 -44.5 t-161.5 -119.5t-104.5 -176t-38.5 -211q0 -179 100.5 -295.5t272.5 -116.5z" />
<glyph unicode="&#xd7;" horiz-adv-x="1017" d="M156 299l348 315l-260 316l112 96l254 -313l346 313l82 -96l-346 -316l258 -315l-110 -96l-256 313l-344 -313z" />
<glyph unicode="&#xd8;" horiz-adv-x="1398" d="M694 -29q-232 0 -375 146l-131 -117h-182l240 215q-78 135 -78 309q0 198 90.5 365t253.5 266.5t362 99.5q229 0 373 -141l127 115h182l-233 -209q84 -143 84 -320q0 -196 -91 -363t-255.5 -266.5t-366.5 -99.5zM344 545q0 -115 41 -205l729 653q-103 103 -262 103 q-108 0 -203.5 -44.5t-161.5 -119.5t-104.5 -176t-38.5 -211zM717 133q145 0 263.5 74.5t184.5 200.5t66 274q0 121 -47 213l-729 -657q100 -105 262 -105z" />
<glyph unicode="&#xd9;" horiz-adv-x="1294" d="M627 1573l202 31l58 -304h-119zM643 -29q-233 0 -346.5 151t-79.5 394l100 713h168l-100 -713q-24 -172 47.5 -277.5t233.5 -105.5q163 0 262 105t123 278l100 713h170l-100 -713q-34 -244 -188.5 -394.5t-389.5 -150.5z" />
<glyph unicode="&#xda;" horiz-adv-x="1294" d="M881 1300h-117l147 297l199 -26zM643 -29q-233 0 -346.5 151t-79.5 394l100 713h168l-100 -713q-24 -172 47.5 -277.5t233.5 -105.5q163 0 262 105t123 278l100 713h170l-100 -713q-34 -244 -188.5 -394.5t-389.5 -150.5z" />
<glyph unicode="&#xdb;" horiz-adv-x="1294" d="M852 1425l-127 -127h-141l213 234h135l149 -234h-143zM643 -29q-233 0 -346.5 151t-79.5 394l100 713h168l-100 -713q-24 -172 47.5 -277.5t233.5 -105.5q163 0 262 105t123 278l100 713h170l-100 -713q-34 -244 -188.5 -394.5t-389.5 -150.5z" />
<glyph unicode="&#xdc;" horiz-adv-x="1294" d="M584 1450q0 44 36 78.5t78 34.5q37 0 63.5 -27.5t26.5 -65.5q0 -44 -37.5 -79t-80.5 -35q-35 0 -60.5 28t-25.5 66zM922 1450q0 44 35.5 78.5t80.5 34.5q37 0 62.5 -27.5t25.5 -65.5q0 -44 -36.5 -79t-79.5 -35q-38 0 -63 27.5t-25 66.5zM643 -29q-233 0 -346.5 151 t-79.5 394l100 713h168l-100 -713q-24 -172 47.5 -277.5t233.5 -105.5q163 0 262 105t123 278l100 713h170l-100 -713q-34 -244 -188.5 -394.5t-389.5 -150.5z" />
<glyph unicode="&#xdd;" horiz-adv-x="1091" d="M795 1368h-117l147 297l199 -27zM1059 1229h192l-555 -758l-65 -471h-170l65 471l-342 758h193l227 -520l27 -86h4l53 86z" />
<glyph unicode="&#xde;" horiz-adv-x="1183" d="M475 1032h328q199 0 308.5 -92t109.5 -260q0 -232 -149.5 -361t-397.5 -129h-318l-26 -190h-168l172 1229h168zM1044 653q0 111 -72 167.5t-200 56.5h-319l-74 -533h319q163 0 254.5 76.5t91.5 232.5z" />
<glyph unicode="&#xdf;" horiz-adv-x="1019" d="M582 680q249 38 249 252q0 74 -44 120t-125 46q-92 0 -158.5 -63.5t-83.5 -178.5l-121 -856h-168l117 831q28 201 142.5 306.5t303.5 105.5q148 0 233 -81t85 -214q0 -103 -51.5 -183t-139.5 -120q85 -25 129.5 -98t44.5 -166q0 -179 -121 -289t-329 -110 q-44 0 -80.5 4.5t-50.5 9.5l-15 4l33 123q45 -10 115 -10q122 0 199 71t77 183q0 91 -58 141.5t-157 50.5h-45z" />
<glyph unicode="&#xe0;" d="M465 1290l203 31l57 -303h-119zM903 727l43 133h115l-121 -860h-115l-4 133h-6q-4 -6 -12 -16.5t-38 -37t-65.5 -46.5t-95 -36.5t-125.5 -16.5q-154 0 -250 104.5t-96 277.5q0 111 38 208.5t102 165t149.5 106.5t177.5 39q68 0 123.5 -16t86 -38.5t52 -45t28.5 -38.5 l7 -16h6zM850 479q0 121 -65.5 191.5t-168.5 70.5q-128 0 -220.5 -102.5t-92.5 -255.5q0 -117 63 -190.5t164 -73.5q132 0 226 99.5t94 260.5z" />
<glyph unicode="&#xe1;" d="M705 1018h-117l147 297l199 -27zM903 727l43 133h115l-121 -860h-115l-4 133h-6q-4 -6 -12 -16.5t-38 -37t-65.5 -46.5t-95 -36.5t-125.5 -16.5q-154 0 -250 104.5t-96 277.5q0 111 38 208.5t102 165t149.5 106.5t177.5 39q68 0 123.5 -16t86 -38.5t52 -45t28.5 -38.5 l7 -16h6zM850 479q0 121 -65.5 191.5t-168.5 70.5q-128 0 -220.5 -102.5t-92.5 -255.5q0 -117 63 -190.5t164 -73.5q132 0 226 99.5t94 260.5z" />
<glyph unicode="&#xe2;" d="M686 1200l-127 -127h-141l213 234h135l149 -234h-143zM903 727l43 133h115l-121 -860h-115l-4 133h-6q-4 -6 -12 -16.5t-38 -37t-65.5 -46.5t-95 -36.5t-125.5 -16.5q-154 0 -250 104.5t-96 277.5q0 111 38 208.5t102 165t149.5 106.5t177.5 39q68 0 123.5 -16t86 -38.5 t52 -45t28.5 -38.5l7 -16h6zM850 479q0 121 -65.5 191.5t-168.5 70.5q-128 0 -220.5 -102.5t-92.5 -255.5q0 -117 63 -190.5t164 -73.5q132 0 226 99.5t94 260.5z" />
<glyph unicode="&#xe3;" d="M811 1020q-43 0 -84.5 17.5t-68.5 39t-60 39t-61 17.5q-40 0 -61 -21t-38 -61l-14 -33l-117 12l19 57q58 177 211 177q41 0 81.5 -18t67.5 -39.5t60.5 -39.5t62.5 -18q73 0 102 86l11 31l118 -13l-18 -55q-26 -79 -78 -128.5t-133 -49.5zM903 727l43 133h115l-121 -860 h-115l-4 133h-6q-4 -6 -12 -16.5t-38 -37t-65.5 -46.5t-95 -36.5t-125.5 -16.5q-154 0 -250 104.5t-96 277.5q0 111 38 208.5t102 165t149.5 106.5t177.5 39q68 0 123.5 -16t86 -38.5t52 -45t28.5 -38.5l7 -16h6zM850 479q0 121 -65.5 191.5t-168.5 70.5 q-128 0 -220.5 -102.5t-92.5 -255.5q0 -117 63 -190.5t164 -73.5q132 0 226 99.5t94 260.5z" />
<glyph unicode="&#xe4;" d="M395 1110q0 43 36.5 78t78.5 35q37 0 63.5 -27.5t26.5 -65.5q0 -44 -37.5 -79t-81.5 -35q-35 0 -60.5 28t-25.5 66zM733 1110q0 44 36 78.5t81 34.5q37 0 62.5 -27.5t25.5 -65.5q0 -44 -37 -79t-80 -35q-38 0 -63 27.5t-25 66.5zM903 727l43 133h115l-121 -860h-115 l-4 133h-6q-4 -6 -12 -16.5t-38 -37t-65.5 -46.5t-95 -36.5t-125.5 -16.5q-154 0 -250 104.5t-96 277.5q0 111 38 208.5t102 165t149.5 106.5t177.5 39q68 0 123.5 -16t86 -38.5t52 -45t28.5 -38.5l7 -16h6zM850 479q0 121 -65.5 191.5t-168.5 70.5q-128 0 -220.5 -102.5 t-92.5 -255.5q0 -117 63 -190.5t164 -73.5q132 0 226 99.5t94 260.5z" />
<glyph unicode="&#xe5;" d="M461 1174q0 88 68.5 144t175.5 56q87 0 138.5 -44.5t51.5 -115.5q0 -87 -68.5 -143.5t-173.5 -56.5q-88 0 -140 44.5t-52 115.5zM788 1204q0 35 -25 54.5t-71 19.5q-59 0 -93 -25t-34 -69q0 -36 27.5 -55t75.5 -19q56 0 88 24.5t32 69.5zM903 727l43 133h115l-121 -860 h-115l-4 133h-6q-4 -6 -12 -16.5t-38 -37t-65.5 -46.5t-95 -36.5t-125.5 -16.5q-154 0 -250 104.5t-96 277.5q0 111 38 208.5t102 165t149.5 106.5t177.5 39q68 0 123.5 -16t86 -38.5t52 -45t28.5 -38.5l7 -16h6zM850 479q0 121 -65.5 191.5t-168.5 70.5 q-128 0 -220.5 -102.5t-92.5 -255.5q0 -117 63 -190.5t164 -73.5q132 0 226 99.5t94 260.5z" />
<glyph unicode="&#xe6;" horiz-adv-x="1525" d="M1427 80q-4 -4 -12.5 -11t-38.5 -25t-64.5 -31.5t-90.5 -24.5t-117 -11q-230 0 -332 158q-132 -155 -369 -155q-155 0 -233 66.5t-78 172.5q0 141 109.5 227t318.5 86q121 0 215 -32l4 30q26 209 -207 209q-59 0 -121 -17.5t-94 -34.5l-32 -17l-43 133q6 3 16.5 8.5 t44.5 19t70 23.5t89.5 18.5t106.5 8.5q231 0 303 -140q137 140 328 140q181 0 265 -119.5t57 -308.5l-6 -43h-629q-13 -143 54.5 -218t191.5 -75q68 0 130 20t91 40l28 20zM1176 743q-95 0 -163 -53.5t-100 -157.5h453q0 103 -48.5 157t-141.5 54zM430 106q117 0 191 63 t88 157l8 53q-90 39 -199 39q-134 0 -196 -48.5t-62 -131.5q0 -60 43 -96t127 -36z" />
<glyph unicode="&#xe7;" horiz-adv-x="839" d="M393 -111l58 95q-149 17 -234.5 119.5t-85.5 261.5q0 222 144 369t360 147q53 0 99 -8t73 -19t47 -22t28 -19l7 -8l-68 -125q-8 7 -23.5 17t-66.5 27t-106 17q-134 0 -228 -99.5t-94 -264.5q0 -122 65.5 -190t170.5 -68q55 0 108 15.5t79 30.5l26 15l26 -123 q-3 -3 -9 -7.5t-27.5 -16.5t-46.5 -21.5t-67.5 -18.5t-88.5 -11l-33 -58q52 -2 83.5 -30t31.5 -80q0 -73 -51 -119.5t-136 -46.5q-47 0 -84 15t-50 29l-13 15l51 64q1 0 11 -7.5t21 -14.5t31 -13t41 -6q43 0 66.5 20t23.5 55q0 24 -19 38t-52 14l-43 -4z" />
<glyph unicode="&#xe8;" horiz-adv-x="937" d="M420 1290l203 31l57 -303h-119zM838 78q-4 -4 -13 -11t-39.5 -24.5t-65 -30.5t-90.5 -24t-116 -11q-181 0 -283 104.5t-102 278.5q0 144 61.5 263t172 188.5t245.5 69.5q182 0 267.5 -119.5t58.5 -308.5l-6 -43h-629q-15 -143 52.5 -218t193.5 -75q68 0 130 19.5t90 39.5 l28 19zM588 743q-95 0 -163 -53.5t-101 -157.5h452q0 103 -47.5 157t-140.5 54z" />
<glyph unicode="&#xe9;" horiz-adv-x="937" d="M684 1018h-117l148 297l198 -27zM838 78q-4 -4 -13 -11t-39.5 -24.5t-65 -30.5t-90.5 -24t-116 -11q-181 0 -283 104.5t-102 278.5q0 144 61.5 263t172 188.5t245.5 69.5q182 0 267.5 -119.5t58.5 -308.5l-6 -43h-629q-15 -143 52.5 -218t193.5 -75q68 0 130 19.5 t90 39.5l28 19zM588 743q-95 0 -163 -53.5t-101 -157.5h452q0 103 -47.5 157t-140.5 54z" />
<glyph unicode="&#xea;" horiz-adv-x="937" d="M645 1143l-127 -127h-141l213 233h135l149 -233h-143zM838 78q-4 -4 -13 -11t-39.5 -24.5t-65 -30.5t-90.5 -24t-116 -11q-181 0 -283 104.5t-102 278.5q0 144 61.5 263t172 188.5t245.5 69.5q182 0 267.5 -119.5t58.5 -308.5l-6 -43h-629q-15 -143 52.5 -218t193.5 -75 q68 0 130 19.5t90 39.5l28 19zM588 743q-95 0 -163 -53.5t-101 -157.5h452q0 103 -47.5 157t-140.5 54z" />
<glyph unicode="&#xeb;" horiz-adv-x="937" d="M371 1100q0 43 36 77.5t78 34.5q37 0 63.5 -27t26.5 -65q0 -44 -37.5 -79t-80.5 -35q-35 0 -60.5 28t-25.5 66zM709 1100q0 44 35.5 78t80.5 34q37 0 62.5 -27t25.5 -65q0 -44 -36.5 -79t-79.5 -35q-38 0 -63 27.5t-25 66.5zM838 78q-4 -4 -13 -11t-39.5 -24.5t-65 -30.5 t-90.5 -24t-116 -11q-181 0 -283 104.5t-102 278.5q0 144 61.5 263t172 188.5t245.5 69.5q182 0 267.5 -119.5t58.5 -308.5l-6 -43h-629q-15 -143 52.5 -218t193.5 -75q68 0 130 19.5t90 39.5l28 19zM588 743q-95 0 -163 -53.5t-101 -157.5h452q0 103 -47.5 157t-140.5 54z " />
<glyph unicode="&#xec;" horiz-adv-x="436" d="M152 1290l202 31l58 -303h-119zM256 860h166l-121 -860h-166z" />
<glyph unicode="&#xed;" horiz-adv-x="436" d="M420 1018h-117l148 297l198 -27zM256 860h166l-121 -860h-166z" />
<glyph unicode="&#xee;" horiz-adv-x="436" d="M391 1200l-127 -127h-141l213 234h135l150 -234h-144zM256 860h166l-121 -860h-166z" />
<glyph unicode="&#xef;" horiz-adv-x="436" d="M115 1165q0 44 36 78.5t78 34.5q37 0 63.5 -27t26.5 -65q0 -44 -37.5 -79.5t-80.5 -35.5q-35 0 -60.5 28t-25.5 66zM453 1165q0 44 35.5 78.5t80.5 34.5q37 0 62.5 -27t25.5 -65q0 -44 -36.5 -79.5t-79.5 -35.5q-38 0 -63 27.5t-25 66.5zM256 860h166l-121 -860h-166z " />
<glyph unicode="&#xf0;" horiz-adv-x="1030" d="M510 -20q-180 0 -280.5 102.5t-100.5 277.5q0 228 140.5 374.5t367.5 146.5q41 0 98 -11l2 9q-25 34 -45 77l-67 140l-260 -148l-43 99l256 143l-134 278l5 23h157l109 -223l268 151l43 -96l-266 -152l198 -405q60 -142 60 -256q0 -239 -139 -384.5t-369 -145.5zM846 483 q0 123 -63 190.5t-167 67.5q-135 0 -225 -98t-90 -264q0 -122 63 -191t166 -69q133 0 224.5 99t91.5 265z" />
<glyph unicode="&#xf1;" horiz-adv-x="1046" d="M827 1075q-43 0 -84.5 17.5t-68.5 39t-60 39t-61 17.5q-40 0 -60.5 -21t-37.5 -61l-15 -33l-116 12l18 58q58 176 211 176q41 0 81.5 -18t67.5 -39.5t60.5 -39.5t62.5 -18q74 0 103 86l10 31l119 -12l-19 -56q-26 -79 -78 -128.5t-133 -49.5zM252 860h113v-125h12 q59 73 132.5 109.5t182.5 36.5q167 0 247.5 -107.5t55.5 -284.5l-69 -489h-166l65 471q16 119 -32.5 193.5t-157.5 74.5q-56 0 -105 -21.5t-81 -56t-52 -73t-26 -76.5l-72 -512h-168z" />
<glyph unicode="&#xf2;" horiz-adv-x="1024" d="M451 1290l202 31l58 -303h-119zM1016 487q0 -149 -72 -267t-186.5 -179t-247.5 -61q-167 0 -273 104.5t-106 280.5q0 149 71 268.5t186.5 183.5t248.5 64q165 0 272 -109t107 -285zM528 115q130 0 225 100.5t95 261.5q0 121 -65 194.5t-165 73.5q-131 0 -226 -102.5 t-95 -263.5q0 -122 64.5 -193t166.5 -71z" />
<glyph unicode="&#xf3;" horiz-adv-x="1024" d="M709 1018h-117l147 297l199 -27zM1016 487q0 -149 -72 -267t-186.5 -179t-247.5 -61q-167 0 -273 104.5t-106 280.5q0 149 71 268.5t186.5 183.5t248.5 64q165 0 272 -109t107 -285zM528 115q130 0 225 100.5t95 261.5q0 121 -65 194.5t-165 73.5q-131 0 -226 -102.5 t-95 -263.5q0 -122 64.5 -193t166.5 -71z" />
<glyph unicode="&#xf4;" horiz-adv-x="1024" d="M684 1200l-127 -127h-141l213 234h135l149 -234h-143zM1016 487q0 -149 -72 -267t-186.5 -179t-247.5 -61q-167 0 -273 104.5t-106 280.5q0 149 71 268.5t186.5 183.5t248.5 64q165 0 272 -109t107 -285zM528 115q130 0 225 100.5t95 261.5q0 121 -65 194.5t-165 73.5 q-131 0 -226 -102.5t-95 -263.5q0 -122 64.5 -193t166.5 -71z" />
<glyph unicode="&#xf5;" horiz-adv-x="1024" d="M811 1077q-43 0 -84.5 17.5t-68.5 39t-60 39t-61 17.5q-40 0 -61 -21t-38 -61l-14 -33l-117 12l19 58q58 176 211 176q41 0 81.5 -18t67.5 -39.5t60.5 -39.5t62.5 -18q73 0 102 86l11 31l118 -12l-18 -56q-26 -79 -78 -128.5t-133 -49.5zM1016 487q0 -149 -72 -267 t-186.5 -179t-247.5 -61q-167 0 -273 104.5t-106 280.5q0 149 71 268.5t186.5 183.5t248.5 64q165 0 272 -109t107 -285zM528 115q130 0 225 100.5t95 261.5q0 121 -65 194.5t-165 73.5q-131 0 -226 -102.5t-95 -263.5q0 -122 64.5 -193t166.5 -71z" />
<glyph unicode="&#xf6;" horiz-adv-x="1024" d="M406 1167q0 44 36 78.5t78 34.5q37 0 63.5 -27t26.5 -65q0 -44 -37.5 -79.5t-80.5 -35.5q-35 0 -60.5 28t-25.5 66zM743 1167q0 44 36 78.5t81 34.5q37 0 62.5 -27t25.5 -65q0 -44 -37 -79.5t-80 -35.5q-38 0 -63 27.5t-25 66.5zM1016 487q0 -149 -72 -267t-186.5 -179 t-247.5 -61q-167 0 -273 104.5t-106 280.5q0 149 71 268.5t186.5 183.5t248.5 64q165 0 272 -109t107 -285zM528 115q130 0 225 100.5t95 261.5q0 121 -65 194.5t-165 73.5q-131 0 -226 -102.5t-95 -263.5q0 -122 64.5 -193t166.5 -71z" />
<glyph unicode="&#xf7;" horiz-adv-x="999" d="M518 918q0 52 38 90.5t91 38.5q41 0 69.5 -30t28.5 -73q0 -52 -39.5 -88.5t-91.5 -36.5q-42 0 -69 28.5t-27 70.5zM207 676h778l-20 -139h-779zM428 276q0 53 38.5 91.5t90.5 38.5q41 0 69.5 -30t28.5 -73q0 -52 -39.5 -88.5t-91.5 -36.5q-42 0 -69 28t-27 70z" />
<glyph unicode="&#xf8;" horiz-adv-x="1026" d="M1016 487q0 -149 -72 -267t-186.5 -179t-247.5 -61q-156 0 -260 90l-76 -70h-127l148 135q-64 95 -64 230q0 149 71 268.5t186.5 183.5t248.5 64q148 0 252 -90l74 69h127l-146 -131q72 -101 72 -242zM297 379q0 -73 25 -131l450 434q-60 63 -154 63q-131 0 -226 -102.5 t-95 -263.5zM528 115q130 0 225 100.5t95 261.5q0 76 -29 139l-454 -436q62 -65 163 -65z" />
<glyph unicode="&#xf9;" horiz-adv-x="1042" d="M455 1290l202 31l58 -303h-119zM864 860h168l-121 -860h-110l-13 121h-6q-14 -18 -34 -37t-58 -45t-96.5 -42.5t-126.5 -16.5q-166 0 -243 106.5t-52 284.5l70 489h166l-66 -471q-18 -121 27 -194.5t153 -73.5q59 0 110 22.5t83.5 58t52 75t25.5 77.5z" />
<glyph unicode="&#xfa;" horiz-adv-x="1042" d="M711 1018h-117l147 297l199 -27zM864 860h168l-121 -860h-110l-13 121h-6q-14 -18 -34 -37t-58 -45t-96.5 -42.5t-126.5 -16.5q-166 0 -243 106.5t-52 284.5l70 489h166l-66 -471q-18 -121 27 -194.5t153 -73.5q59 0 110 22.5t83.5 58t52 75t25.5 77.5z" />
<glyph unicode="&#xfb;" horiz-adv-x="1042" d="M672 1143l-127 -127h-142l213 233h136l149 -233h-143zM864 860h168l-121 -860h-110l-13 121h-6q-14 -18 -34 -37t-58 -45t-96.5 -42.5t-126.5 -16.5q-166 0 -243 106.5t-52 284.5l70 489h166l-66 -471q-18 -121 27 -194.5t153 -73.5q59 0 110 22.5t83.5 58t52 75 t25.5 77.5z" />
<glyph unicode="&#xfc;" horiz-adv-x="1042" d="M395 1110q0 43 36.5 78t78.5 35q37 0 63.5 -27.5t26.5 -65.5q0 -44 -37.5 -79t-81.5 -35q-35 0 -60.5 28t-25.5 66zM733 1110q0 44 36 78.5t81 34.5q37 0 62.5 -27.5t25.5 -65.5q0 -44 -37 -79t-80 -35q-38 0 -63 27.5t-25 66.5zM864 860h168l-121 -860h-110l-13 121h-6 q-14 -18 -34 -37t-58 -45t-96.5 -42.5t-126.5 -16.5q-166 0 -243 106.5t-52 284.5l70 489h166l-66 -471q-18 -121 27 -194.5t153 -73.5q59 0 110 22.5t83.5 58t52 75t25.5 77.5z" />
<glyph unicode="&#xfd;" horiz-adv-x="1036" d="M709 1018h-117l147 297l199 -27zM1026 860l-117 -831q-26 -179 -144 -287.5t-312 -108.5q-64 0 -120.5 13t-90 29.5t-62 39t-37.5 32.5t-16 20l102 108l9 -9q10 -10 21.5 -20.5t32.5 -24.5t45 -24.5t58.5 -18t71.5 -7.5q237 0 276 254l11 65q-110 -110 -277 -110 q-176 0 -255 106.5t-54 286.5l68 487h167l-65 -471q-16 -121 28 -194.5t152 -73.5q111 0 182.5 70.5t87.5 156.5l72 512h166z" />
<glyph unicode="&#xfe;" d="M322 162l-68 -481h-168l217 1548h168l-74 -527h6q4 7 11.5 19t35.5 43t61.5 54.5t89.5 43t118 19.5q153 0 247.5 -104.5t94.5 -276.5q0 -111 -38.5 -209t-102.5 -165.5t-149 -106.5t-177 -39q-64 0 -114.5 18.5t-77.5 45.5t-45 54t-23 46l-6 18h-6zM346 381 q0 -121 65 -191.5t167 -70.5q129 0 220 102.5t91 255.5q0 118 -61 191t-162 73q-131 0 -225.5 -100t-94.5 -260z" />
<glyph unicode="&#xff;" horiz-adv-x="1036" d="M395 1112q0 43 36.5 78t78.5 35q37 0 63.5 -27t26.5 -65q0 -44 -38 -79.5t-81 -35.5q-35 0 -60.5 28t-25.5 66zM733 1112q0 44 36 78.5t81 34.5q37 0 62.5 -27t25.5 -65q0 -44 -37 -79.5t-80 -35.5q-38 0 -63 27.5t-25 66.5zM1026 860l-117 -831q-26 -179 -144 -287.5 t-312 -108.5q-64 0 -120.5 13t-90 29.5t-62 39t-37.5 32.5t-16 20l102 108l9 -9q10 -10 21.5 -20.5t32.5 -24.5t45 -24.5t58.5 -18t71.5 -7.5q237 0 276 254l11 65q-110 -110 -277 -110q-176 0 -255 106.5t-54 286.5l68 487h167l-65 -471q-16 -121 28 -194.5t152 -73.5 q111 0 182.5 70.5t87.5 156.5l72 512h166z" />
<glyph unicode="&#x152;" horiz-adv-x="2099" d="M686 -29q-122 0 -222 43t-166 117.5t-102 175.5t-36 217q0 198 90.5 365t253.5 266.5t362 99.5q141 0 250.5 -55t179.5 -153l27 182h866l-20 -154h-699l-53 -379h596l-20 -149h-596l-56 -393h699l-23 -154h-866l23 164q-203 -193 -488 -193zM709 133q145 0 263.5 74.5 t184.5 200.5t66 274q0 179 -102 296.5t-277 117.5q-108 0 -203.5 -44.5t-161.5 -119.5t-104.5 -176t-38.5 -211q0 -179 100.5 -295.5t272.5 -116.5z" />
<glyph unicode="&#x153;" horiz-adv-x="1658" d="M1563 78q-4 -4 -13 -11t-39.5 -24.5t-65 -30.5t-90.5 -24t-116 -11q-121 0 -207 47.5t-131 133.5q-71 -86 -173.5 -132t-217.5 -46q-167 0 -273 104.5t-106 280.5q0 149 71 268.5t186.5 183.5t248.5 64q106 0 192 -49t134 -134q66 86 161.5 134.5t208.5 48.5 q182 0 267.5 -119.5t58.5 -308.5l-6 -43h-629q-15 -143 52.5 -218t193.5 -75q68 0 130 19.5t90 39.5l28 19zM528 115q130 0 225 100.5t95 261.5q0 121 -65 194.5t-165 73.5q-131 0 -226 -102.5t-95 -263.5q0 -122 64.5 -193t166.5 -71zM1313 743q-95 0 -163 -53.5 t-101 -157.5h452q0 103 -47.5 157t-140.5 54z" />
<glyph unicode="&#x178;" horiz-adv-x="1091" d="M483 1450q0 43 36.5 78t78.5 35q37 0 63.5 -27.5t26.5 -65.5q0 -44 -37.5 -79t-81.5 -35q-35 0 -60.5 28t-25.5 66zM821 1450q0 44 36 78.5t81 34.5q37 0 62.5 -27.5t25.5 -65.5q0 -44 -37 -79t-80 -35q-38 0 -63 27.5t-25 66.5zM1059 1229h192l-555 -758l-65 -471h-170 l65 471l-342 758h193l227 -520l27 -86h4l53 86z" />
<glyph unicode="&#x2c6;" horiz-adv-x="759" d="M602 1483l-127 -127h-141l213 233h135l149 -233h-143z" />
<glyph unicode="&#x2dc;" horiz-adv-x="993" d="M834 1358q-43 0 -84.5 17.5t-69 38.5t-60.5 38.5t-61 17.5q-40 0 -60.5 -20.5t-37.5 -60.5l-15 -33l-116 12l18 57q58 177 211 177q41 0 81.5 -18t67.5 -39.5t60.5 -39.5t62.5 -18q74 0 103 86l10 31l119 -13l-19 -55q-26 -80 -77.5 -129t-132.5 -49z" />
<glyph unicode="&#x2000;" horiz-adv-x="832" />
<glyph unicode="&#x2001;" horiz-adv-x="1665" />
<glyph unicode="&#x2002;" horiz-adv-x="832" />
<glyph unicode="&#x2003;" horiz-adv-x="1665" />
<glyph unicode="&#x2004;" horiz-adv-x="555" />
<glyph unicode="&#x2005;" horiz-adv-x="416" />
<glyph unicode="&#x2006;" horiz-adv-x="277" />
<glyph unicode="&#x2007;" horiz-adv-x="277" />
<glyph unicode="&#x2008;" horiz-adv-x="208" />
<glyph unicode="&#x2009;" horiz-adv-x="333" />
<glyph unicode="&#x200a;" horiz-adv-x="92" />
<glyph unicode="&#x2010;" horiz-adv-x="806" d="M193 539h573l-21 -140h-573z" />
<glyph unicode="&#x2011;" horiz-adv-x="806" d="M193 539h573l-21 -140h-573z" />
<glyph unicode="&#x2012;" horiz-adv-x="806" d="M193 539h573l-21 -140h-573z" />
<glyph unicode="&#x2013;" horiz-adv-x="946" d="M217 659h686l-20 -139h-686z" />
<glyph unicode="&#x2014;" horiz-adv-x="1464" d="M217 659h1204l-20 -139h-1204z" />
<glyph unicode="&#x2018;" horiz-adv-x="444" d="M219 907q15 125 96 212t205 110l15 -94q-70 -15 -116.5 -52t-60.5 -88q34 -8 55 -33t21 -59q0 -49 -37.5 -84t-85.5 -35q-46 0 -73 31.5t-21 75.5z" />
<glyph unicode="&#x2019;" horiz-adv-x="450" d="M213 877q71 15 116.5 52t57.5 89q-34 6 -54 30t-20 58q0 50 37.5 86.5t87.5 36.5q45 0 73 -32.5t19 -76.5l-2 -10v-4q-6 -123 -89.5 -210.5t-209.5 -111.5z" />
<glyph unicode="&#x201a;" horiz-adv-x="423" d="M328 70q-15 -125 -96 -212t-205 -110l-15 94q68 15 114.5 52t59.5 88q-33 8 -53 32.5t-20 59.5q0 49 36.5 84t86.5 35q44 0 72 -31.5t22 -75.5z" />
<glyph unicode="&#x201c;" horiz-adv-x="759" d="M219 907q15 125 96 212t205 110l15 -94q-70 -15 -116.5 -52t-60.5 -88q34 -8 55 -33t21 -59q0 -49 -37.5 -84t-85.5 -35q-46 0 -73 31.5t-21 75.5zM850 1135q-70 -15 -116 -52t-60 -88q34 -6 55 -31.5t21 -60.5q0 -49 -37.5 -84t-85.5 -35q-45 0 -74.5 32t-20.5 75l3 8v8 q6 122 90 210t211 112z" />
<glyph unicode="&#x201d;" horiz-adv-x="759" d="M528 1106q-19 -127 -98.5 -213t-202.5 -109l-16 93q70 15 116 52.5t58 88.5q-33 6 -53.5 30.5t-20.5 59.5q0 49 38.5 85t86.5 36q44 0 72 -32.5t22 -76.5zM838 1106q-19 -127 -98.5 -213t-202.5 -109l-15 93q70 15 116 52.5t58 88.5q-34 6 -53.5 30t-19.5 58 q0 50 37.5 86.5t87.5 36.5q44 0 71 -32.5t21 -76.5z" />
<glyph unicode="&#x201e;" horiz-adv-x="739" d="M334 70q-19 -127 -98.5 -213t-202.5 -109l-17 92q70 15 116 53t58 89q-33 6 -53 30.5t-20 59.5q0 49 38.5 85t86.5 36q44 0 72 -32.5t22 -76.5zM643 70q-19 -127 -98.5 -213t-202.5 -109l-14 92q70 15 116 53t58 89q-34 6 -54 30t-20 58q0 50 37.5 86.5t87.5 36.5 q44 0 71 -32.5t21 -76.5z" />
<glyph unicode="&#x2022;" horiz-adv-x="643" d="M412 616q58 0 98.5 -41t40.5 -100q0 -71 -57 -123.5t-127 -52.5q-61 0 -101.5 40t-40.5 99q0 72 56.5 125t130.5 53z" />
<glyph unicode="&#x2026;" horiz-adv-x="1470" d="M123 90q0 58 43 100.5t102 42.5q47 0 79 -33t32 -79q0 -58 -44 -99.5t-102 -41.5q-49 0 -79.5 31t-30.5 79zM623 90q0 58 43 100.5t100 42.5q49 0 81 -32.5t32 -79.5q0 -58 -44.5 -99.5t-103.5 -41.5q-47 0 -77.5 31.5t-30.5 78.5zM1120 90q0 58 43.5 100.5t102.5 42.5 q47 0 78.5 -33t31.5 -79q0 -58 -43.5 -99.5t-101.5 -41.5q-49 0 -80 31t-31 79z" />
<glyph unicode="&#x202f;" horiz-adv-x="333" />
<glyph unicode="&#x2039;" horiz-adv-x="557" d="M143 451l306 385h143l-4 -21l-295 -381l-2 -12l188 -385l-4 -21h-143l-195 387z" />
<glyph unicode="&#x203a;" horiz-adv-x="555" d="M535 403l-306 -387h-145l2 21l299 385l2 12l-190 381l2 21h145l197 -385z" />
<glyph unicode="&#x205f;" horiz-adv-x="416" />
<glyph unicode="&#x20ac;" horiz-adv-x="1167" d="M872 410h-401q34 -279 295 -279q45 0 89.5 12t75 28.5t54.5 33.5t35 29l12 12l68 -123q-5 -6 -15 -16t-44 -36t-73 -46t-101 -36t-128 -16q-103 0 -184.5 33.5t-134.5 93.5t-84 137.5t-41 172.5h-158l19 125h139q0 39 6 83q8 59 18 91h-139l17 125h159q75 191 219 306 t345 115q66 0 123.5 -15t92 -36.5t60 -43.5t35.5 -37l10 -15l-106 -129q-3 5 -9 13t-27 28t-45.5 35.5t-66 28t-86.5 12.5q-257 0 -366 -262h397l-17 -125h-419q-14 -49 -19 -91q-8 -58 -8 -83h422z" />
<glyph unicode="&#x2122;" horiz-adv-x="1456" d="M729 1128h-197l-77 -553h-113l78 553h-195l15 101h503zM768 575l92 654h82l188 -301l279 301h78l-92 -654h-113l61 441l-215 -236h-36l-148 234l-61 -439h-115z" />
<glyph unicode="&#x25fc;" horiz-adv-x="860" d="M0 860h860v-860h-860v860z" />
</font>
</defs>
</svg>
