<?xml version="1.0" encoding="utf-8"?>
<!-- Generator: Adobe Illustrator 21.0.2, SVG Export Plug-In . SVG Version: 6.00 Build 0)  -->
<svg version="1.1" id="Layer_1" xmlns:sketch="http://www.bohemiancoding.com/sketch/ns"
	 xmlns="http://www.w3.org/2000/svg" xmlns:xlink="http://www.w3.org/1999/xlink" x="0px" y="0px" viewBox="0 0 20 20"
	 style="enable-background:new 0 0 20 20;" xml:space="preserve">
<style type="text/css">
	.st0{fill:none;stroke:#145595;stroke-width:0.68;stroke-linecap:round;stroke-linejoin:round;}
</style>
<title>78 - Alarm Clock (Outline)</title>
<desc>Created with Sketch.</desc>
<g id="Page-1" sketch:type="MSPage">
	<g id="Icons" transform="translate(-361.000000, -3958.000000)" sketch:type="MSArtboardGroup">
		<g id="_x37_8---Alarm-Clock-_x28_Outline_x29_" transform="translate(362.000000, 3959.000000)" sketch:type="MSLayerGroup">
			<path id="Path" sketch:type="MSShapeGroup" class="st0" d="M10,9.4h2.7H10z"/>
			<path id="Path_1_" sketch:type="MSShapeGroup" class="st0" d="M9,8.4V4.6V8.4z"/>
			<path id="Path_2_" sketch:type="MSShapeGroup" class="st0" d="M4.9,17.3l-1.3,1.3L4.9,17.3z"/>
			<path id="Path_3_" sketch:type="MSShapeGroup" class="st0" d="M14.4,18.6l-1.3-1.3L14.4,18.6z"/>
			<path id="Path_4_" sketch:type="MSShapeGroup" class="st0" d="M17.8,0.2c0.9,0.9,0.9,2.5,0,3.4l-3.4-3.4
				C15.3-0.7,16.9-0.7,17.8,0.2L17.8,0.2z"/>
			<path id="Path_5_" sketch:type="MSShapeGroup" class="st0" d="M16.2,2l-1,1L16.2,2z"/>
			<path id="Path_6_" sketch:type="MSShapeGroup" class="st0" d="M0.2,0.2c-0.9,0.9-0.9,2.5,0,3.4l3.4-3.4C2.7-0.7,1.1-0.7,0.2,0.2
				L0.2,0.2z"/>
			<path id="Path_7_" sketch:type="MSShapeGroup" class="st0" d="M1.8,2l1,1L1.8,2z"/>
			<path id="Path_8_" sketch:type="MSShapeGroup" class="st0" d="M17.8,9.4c0,4.9-4,8.8-8.8,8.8s-8.8-4-8.8-8.8c0-4.9,4-8.8,8.8-8.8
				S17.8,4.5,17.8,9.4L17.8,9.4z"/>
			<path id="Path_9_" sketch:type="MSShapeGroup" class="st0" d="M10,9.4c0,0.6-0.5,1-1,1s-1-0.5-1-1c0-0.6,0.5-1,1-1S10,8.8,10,9.4
				L10,9.4z"/>
			<path id="Path_10_" sketch:type="MSShapeGroup" class="st0" d="M9,1.9v0.3"/>
			<path id="Path_11_" sketch:type="MSShapeGroup" class="st0" d="M9,16.5v0.3"/>
			<path id="Path_12_" sketch:type="MSShapeGroup" class="st0" d="M16.5,9.4h-0.3"/>
			<path id="Path_13_" sketch:type="MSShapeGroup" class="st0" d="M1.9,9.4H1.5"/>
			<path id="Path_14_" sketch:type="MSShapeGroup" class="st0" d="M14.3,4.1L14,4.3"/>
			<path id="Path_15_" sketch:type="MSShapeGroup" class="st0" d="M4,14.4l-0.2,0.2"/>
			<path id="Path_16_" sketch:type="MSShapeGroup" class="st0" d="M14.3,14.7L14,14.4"/>
			<path id="Path_17_" sketch:type="MSShapeGroup" class="st0" d="M4,4.3L3.7,4.1"/>
		</g>
	</g>
</g>
</svg>
