<?xml version="1.0" encoding="utf-8"?>
<!-- Generator: Adobe Illustrator 21.0.2, SVG Export Plug-In . SVG Version: 6.00 Build 0)  -->
<svg version="1.1" id="Layer_1" xmlns="http://www.w3.org/2000/svg" xmlns:xlink="http://www.w3.org/1999/xlink" x="0px" y="0px"
	 viewBox="0 0 20 15" style="enable-background:new 0 0 20 15;" xml:space="preserve">
<style type="text/css">
	.st0{fill:#145595;}
</style>
<path class="st0" d="M7.5,7.5l-3.7,4.1L0,7.5h2.5C2.5,3.4,5.9,0,10,0c2,0,3.8,0.8,5.2,2.1l-1.7,1.9C12.6,3,11.3,2.5,10,2.5
	c-2.8,0-5,2.2-5,5H7.5z M16.2,3.4l-3.7,4.1H15c0,2.8-2.2,5-5,5c-1.3,0-2.6-0.5-3.5-1.4l-1.7,1.9C6.2,14.2,8,15,10,15
	c4.1,0,7.5-3.4,7.5-7.5H20L16.2,3.4z"/>
</svg>
