<?xml version="1.0" encoding="utf-8"?>
<!-- Generator: Adobe Illustrator 22.0.1, SVG Export Plug-In . SVG Version: 6.00 Build 0)  -->
<svg version="1.1" id="Layer_1" xmlns="http://www.w3.org/2000/svg" xmlns:xlink="http://www.w3.org/1999/xlink" x="0px" y="0px"
	 viewBox="0 0 145.2 40.7" style="enable-background:new 0 0 145.2 40.7;" xml:space="preserve">
<style type="text/css">
	.st0{fill:#FFFFFF;}
</style>
<title>header_logo</title>
<desc>Created with Sketch.</desc>
<g>
	<rect x="77.3" y="1.3" class="st0" width="2.3" height="11.4"/>
	<path class="st0" d="M104.4,35.2c-0.5,0-0.9,0.4-0.9,0.9s0.4,0.8,0.9,0.8c0.5,0,0.9-0.4,0.9-0.8S104.9,35.2,104.4,35.2z"/>
	<path class="st0" d="M112.6,31.1h4.7v0.2c0,2.8-1.8,4.6-4.4,4.6c-3.1,0-5-2.5-5-5.4c0-3,1.9-5.5,5-5.5c2.4,0,3.7,1.4,3.7,1.4
		l0.7-0.9c0,0-1.4-1.7-4.4-1.7c-3.8,0-6.3,2.9-6.3,6.6c0,3.7,2.4,6.6,6.2,6.6c3.5,0,5.6-2.4,5.6-6.3v-0.8h-5.9V31.1z"/>
	<path class="st0" d="M74.6,24.2l-5.3,12.6h1.2l1.3-3h6.7l1.3,3H81l-5.3-12.6H74.6z M72.2,32.6l2.9-7l2.9,7H72.2z"/>
	<path class="st0" d="M126.4,23.9c-3.8,0-6.2,2.9-6.2,6.6c0,3.7,2.4,6.6,6.2,6.6c3.8,0,6.2-2.9,6.2-6.6
		C132.6,26.7,130.2,23.9,126.4,23.9z M126.4,35.9c-3.1,0-5-2.5-5-5.4c0-3,1.9-5.5,5-5.5c3.1,0,5,2.5,5,5.5
		C131.4,33.4,129.5,35.9,126.4,35.9z"/>
	<polygon class="st0" points="143.9,24.2 139.3,35.3 134.6,24.2 133.4,24.2 138.7,36.8 139.8,36.8 145.2,24.2 	"/>
	<polygon class="st0" points="63.2,10.7 57.3,10.7 57.3,7.9 62.3,7.9 62.3,6 57.3,6 57.3,3.4 63.2,3.4 63.2,1.3 55,1.3 55,12.8 
		63.2,12.8 	"/>
	<path class="st0" d="M97.3,29.7c-2.4-0.7-3.4-1.2-3.4-2.5c0-1.4,1.4-2.2,3.2-2.2c2.3,0,3.4,1.1,3.4,1.1l0.7-1c0,0-1.2-1.2-4.1-1.2
		c-2.7,0-4.4,1.3-4.4,3.3c0,2,1.5,2.8,4.2,3.6c2.4,0.7,3.4,1.3,3.4,2.7c0,1.4-1,2.4-3.3,2.4c-2.4,0-3.7-1.2-3.7-1.2l-0.7,0.9
		c0,0,1.4,1.4,4.3,1.4c3.1,0,4.5-1.5,4.5-3.5S100.2,30.5,97.3,29.7z"/>
	<polygon class="st0" points="84.8,12.8 87.1,12.8 87.1,3.4 90.5,3.4 90.5,1.3 81.4,1.3 81.4,3.4 84.8,3.4 	"/>
	<polygon class="st0" points="61.4,30.5 56.5,24.2 55.5,24.2 55.5,36.8 56.7,36.8 56.7,26.4 61.1,32 61.6,32 66,26.3 66,36.8 
		67.1,36.8 67.1,24.2 66.2,24.2 	"/>
	<path class="st0" d="M86.7,29.7c-2.4-0.7-3.4-1.2-3.4-2.5c0-1.4,1.4-2.2,3.2-2.2c2.3,0,3.4,1.1,3.4,1.1l0.7-1c0,0-1.2-1.2-4.1-1.2
		c-2.7,0-4.4,1.3-4.4,3.3c0,2,1.5,2.8,4.2,3.6c2.4,0.7,3.4,1.3,3.4,2.7c0,1.4-1,2.4-3.3,2.4c-2.4,0-3.7-1.2-3.7-1.2L82,35.6
		c0,0,1.4,1.4,4.3,1.4c3.1,0,4.5-1.5,4.5-3.5S89.6,30.5,86.7,29.7z"/>
	<path class="st0" d="M75.4,7c0-3.3-2.3-5.7-5.9-5.7h-4.2v11.4h4.2C73.1,12.8,75.4,10.4,75.4,7z M67.5,10.7V3.4h1.7
		C71.4,3.4,73,4.7,73,7c0,2.3-1.6,3.7-3.7,3.7H67.5z"/>
	<path class="st0" d="M42.5,21.6c-0.9-0.9-2.3-0.9-3.2,0L27.7,33.2l-1.6,5.9l-0.4,0.4c-0.3,0.3-0.3,0.8,0,1.1l0,0l0,0
		c0.1,0.1,0.3,0.2,0.5,0.2c0.2,0,0.4-0.1,0.5-0.2l0.4-0.4l5.9-1.6l11.6-11.6c0.9-0.9,0.9-2.3,0-3.2L42.5,21.6z M29.4,33.6l7.7-7.7
		l3.2,3.2l-7.7,7.7L29.4,33.6z M28.7,35l2.4,2.4l-3.4,0.9L28.7,35z M43.6,25.9L41.4,28l-3.2-3.2l2.1-2.1c0.3-0.3,0.8-0.3,1.1,0
		l2.2,2.2C43.8,25.1,43.8,25.6,43.6,25.9z"/>
	<path class="st0" d="M6,3C4.4,3,3,4.4,3,6s1.4,3,3,3s3-1.4,3-3S7.7,3,6,3z M6,7.5C5.2,7.5,4.5,6.9,4.5,6S5.2,4.5,6,4.5
		S7.5,5.2,7.5,6S6.9,7.5,6,7.5z"/>
	<path class="st0" d="M12.8,3c-1.7,0-3,1.4-3,3s1.4,3,3,3s3-1.4,3-3S14.5,3,12.8,3z M12.8,7.5c-0.8,0-1.5-0.7-1.5-1.5
		s0.7-1.5,1.5-1.5s1.5,0.7,1.5,1.5S13.7,7.5,12.8,7.5z"/>
	<path class="st0" d="M19.6,3c-1.7,0-3,1.4-3,3s1.4,3,3,3c1.7,0,3-1.4,3-3S21.3,3,19.6,3z M19.6,7.5c-0.8,0-1.5-0.7-1.5-1.5
		s0.7-1.5,1.5-1.5c0.8,0,1.5,0.7,1.5,1.5S20.5,7.5,19.6,7.5z"/>
	<path class="st0" d="M22.6,37H1.5V12.1h36.2v6c0,0.4,0.3,0.8,0.8,0.8s0.8-0.3,0.8-0.8v-6.8V0.8c0-0.4-0.3-0.8-0.8-0.8H0.8
		C0.3,0,0,0.3,0,0.8v10.6v26.4c0,0.4,0.3,0.8,0.8,0.8h21.9c0.4,0,0.8-0.3,0.8-0.8S23.1,37,22.6,37z M1.5,1.5h36.2v9.1H1.5V1.5z"/>
</g>
</svg>
