<?xml version="1.0" encoding="UTF-8"?>
<svg width="154px" height="171px" viewBox="0 0 154 171" version="1.1" xmlns="http://www.w3.org/2000/svg" xmlns:xlink="http://www.w3.org/1999/xlink">
    <!-- Generator: Sketch 50 (54983) - http://www.bohemiancoding.com/sketch -->
    <title>add-thumbnail_decision-branch</title>
    <desc>Created with Sketch.</desc>
    <defs></defs>
    <g id="Page-1" stroke="none" stroke-width="1" fill="none" fill-rule="evenodd">
        <g id="Decision-Tree-Branch" transform="translate(-99.000000, -99.000000)">
            <g id="add-thumbnail_decision-branch" transform="translate(102.000000, 102.000000)">
                <g id="browser">
                    <g>
                        <rect id="Outline" stroke="#979797" stroke-width="3" fill="#FFFFFF" x="-1.5" y="-1.5" width="151" height="168"></rect>
                        <rect id="Rectangle-10" fill="#DCDCDC" x="0" y="0" width="148" height="9"></rect>
                    </g>
                </g>
                <g id="type-eyebrow" transform="translate(6.000000, 127.000000)" fill="#979797">
                    <g id="Rectangle-2-Copy-2">
                        <rect x="0" y="0" width="54" height="1"></rect>
                    </g>
                </g>
                <rect id="Rectangle-12-Copy" stroke="#F6C51C" fill="#FBE28D" x="6.5" y="103.5" width="135" height="11"></rect>
                <g id="buttons-/-glorified" transform="translate(6.000000, 66.000000)" stroke="#14558F">
                    <rect id="Rectangle-12-Copy-2" x="30.5" y="0.5" width="23" height="11"></rect>
                    <rect id="Rectangle-12" x="0.5" y="0.5" width="23" height="11"></rect>
                </g>
                <g id="title-/-sub" transform="translate(6.000000, 48.000000)" fill="#979797">
                    <g>
                        <rect id="Rectangle-2-Copy" x="0" y="6" width="54" height="3"></rect>
                        <rect id="Rectangle-2" x="0" y="0" width="66" height="3"></rect>
                    </g>
                </g>
                <g id="heading-/-colored-/-blue" transform="translate(6.000000, 30.000000)" fill="#1D588C">
                    <polygon id="Rectangle-13" points="0 0 96 0 89.6886228 9 0 9"></polygon>
                </g>
                <g id="sidebar-/-content-/-heading-colored-grey" transform="translate(108.000000, 30.000000)" fill="#979797">
                    <g>
                        <rect id="Rectangle-2-Copy-2" x="0" y="16" width="34" height="1"></rect>
                        <rect id="Rectangle-2-Copy" x="0" y="12" width="34" height="1"></rect>
                        <g id="heading-/-colored-/-grey">
                            <g id="Rectangle-13-Copy">
                                <polygon transform="translate(17.000000, 4.500000) rotate(-180.000000) translate(-17.000000, -4.500000) " points="0 1.77635684e-15 34 0 27.6886228 9 0 9"></polygon>
                            </g>
                        </g>
                    </g>
                </g>
                <rect id="Rectangle-8" fill="#14558F" x="0" y="9" width="148" height="12"></rect>
                <g id="type-eyebrow" transform="translate(6.000000, 90.000000)" fill="#979797">
                    <g id="Rectangle-2-Copy-2">
                        <rect x="0" y="0" width="54" height="1"></rect>
                    </g>
                </g>
            </g>
        </g>
    </g>
</svg>