<?xml version="1.0" encoding="UTF-8"?>
<svg width="154px" height="171px" viewBox="0 0 154 171" version="1.1" xmlns="http://www.w3.org/2000/svg" xmlns:xlink="http://www.w3.org/1999/xlink">
    <!-- Generator: Sketch 50 (54983) - http://www.bohemiancoding.com/sketch -->
    <title>add-thumbnails_contact-information</title>
    <desc>Created with Sketch.</desc>
    <defs></defs>
    <g id="Page-1" stroke="none" stroke-width="1" fill="none" fill-rule="evenodd">
        <g id="Contact-Information" transform="translate(-99.000000, -99.000000)">
            <g id="add-thumbnails_contact-information" transform="translate(102.000000, 102.000000)">
                <g id="browser">
                    <g>
                        <rect id="Outline" stroke="#979797" stroke-width="3" fill="#FFFFFF" x="-1.5" y="-1.5" width="151" height="168"></rect>
                        <rect id="Rectangle-10" fill="#DCDCDC" x="0" y="0" width="148" height="9"></rect>
                    </g>
                </g>
                <rect id="Rectangle-7" fill="#E7EEF4" x="0" y="9" width="148" height="156"></rect>
                <g id="if_contact_card_2639797" transform="translate(47.000000, 60.000000)" fill="#8AAAC7" fill-rule="nonzero">
                    <path d="M4.15384615,0 L14.2643077,0 C15.7243846,0 17.0764615,0.766384615 17.8262308,2.01669231 L22.8461538,10.3846154 L0,10.3846154 L0,4.15384615 C0,1.85884615 1.85884615,0 4.15384615,0 Z" id="Shape"></path>
                    <path d="M49.8461538,4.15384615 L0,4.15384615 L0,41.5384615 C0,43.8334615 1.85884615,45.6923077 4.15384615,45.6923077 L8.30769231,45.6923077 L8.30769231,44.6538462 C8.30769231,42.9341538 9.70338462,41.5384615 11.4230769,41.5384615 C13.1427692,41.5384615 14.5384615,42.9341538 14.5384615,44.6538462 L14.5384615,45.6923077 L39.4615385,45.6923077 L39.4615385,44.6538462 C39.4615385,42.9341538 40.8572308,41.5384615 42.5769231,41.5384615 C44.2966154,41.5384615 45.6923077,42.9341538 45.6923077,44.6538462 L45.6923077,45.6923077 L49.8461538,45.6923077 C52.1411538,45.6923077 54,43.8334615 54,41.5384615 L54,8.30769231 C54,6.01269231 52.1411538,4.15384615 49.8461538,4.15384615 Z M8.30769231,33.2307692 C9.45,28.7508462 13.2424615,29.9886923 14.0192308,27.4610769 L14.0192308,25.5856154 C13.6287692,25.3779231 12.5155385,23.9406923 12.3992308,22.8191538 C12.0939231,22.7942308 11.6120769,22.4889231 11.4708462,21.2863846 C11.394,20.6404615 11.6972308,20.277 11.8820769,20.1627692 C11.8820769,20.1627692 11.4251538,19.1222308 11.4251538,18.0858462 C11.4230769,15.012 12.9454615,12.4615385 16.6153846,12.4615385 C18.5967692,12.4615385 19.2115385,13.8676154 19.2115385,13.8676154 C20.9831538,13.8676154 21.8076923,15.8095385 21.8076923,18.0858462 C21.8076923,19.2219231 21.3507692,20.1627692 21.3507692,20.1627692 C21.5335385,20.277 21.8367692,20.6404615 21.762,21.2863846 C21.6207692,22.4889231 21.1389231,22.7942308 20.8336154,22.8191538 C20.7173077,23.9406923 19.6040769,25.3779231 19.2136154,25.5856154 L19.2136154,27.4610769 C19.9903846,29.9886923 23.7828462,28.7508462 24.9251538,33.2307692 L8.30769231,33.2307692 Z M43.6153846,31.1538462 L31.1538462,31.1538462 C30.0073846,31.1538462 29.0769231,30.2233846 29.0769231,29.0769231 C29.0769231,27.9304615 30.0073846,27 31.1538462,27 L43.6153846,27 C44.7618462,27 45.6923077,27.9304615 45.6923077,29.0769231 C45.6923077,30.2233846 44.7618462,31.1538462 43.6153846,31.1538462 Z M43.6153846,22.8461538 L31.1538462,22.8461538 C30.0073846,22.8461538 29.0769231,21.9156923 29.0769231,20.7692308 C29.0769231,19.6227692 30.0073846,18.6923077 31.1538462,18.6923077 L43.6153846,18.6923077 C44.7618462,18.6923077 45.6923077,19.6227692 45.6923077,20.7692308 C45.6923077,21.9156923 44.7618462,22.8461538 43.6153846,22.8461538 Z" id="Shape"></path>
                </g>
            </g>
        </g>
    </g>
</svg>