<?xml version="1.0" encoding="UTF-8"?>
<svg width="154px" height="171px" viewBox="0 0 154 171" version="1.1" xmlns="http://www.w3.org/2000/svg" xmlns:xlink="http://www.w3.org/1999/xlink">
    <!-- Generator: Sketch 50 (54983) - http://www.bohemiancoding.com/sketch -->
    <title>add-thumbnail_organizational-landing</title>
    <desc>Created with Sketch.</desc>
    <defs></defs>
    <g id="Page-1" stroke="none" stroke-width="1" fill="none" fill-rule="evenodd">
        <g id="Organization-Landing-Page" transform="translate(-99.000000, -99.000000)">
            <g id="add-thumbnail_organizational-landing" transform="translate(102.000000, 102.000000)">
                <g id="browser">
                    <g>
                        <rect id="Outline" stroke="#979797" stroke-width="3" fill="#FFFFFF" x="-1.5" y="-1.5" width="151" height="168"></rect>
                        <rect id="Rectangle-10" fill="#DCDCDC" x="0" y="0" width="148" height="9"></rect>
                    </g>
                </g>
                <g id="service-finder" transform="translate(0.000000, 119.000000)">
                    <rect id="Rectangle-2" fill="#DCDCDC" x="0" y="0" width="148" height="46"></rect>
                    <rect id="Rectangle-12-Copy" fill="#FFFFFF" x="101" y="27" width="41" height="12"></rect>
                    <rect id="Rectangle-12-Copy-2" fill="#FFFFFF" x="54" y="27" width="41" height="12"></rect>
                    <rect id="Rectangle-12" fill="#FFFFFF" x="6" y="27" width="42" height="12"></rect>
                    <rect id="Rectangle-12" stroke="#8AAAC7" fill="#E7EEF4" x="6.5" y="9.5" width="41" height="11"></rect>
                </g>
                <g id="sidebar-/-content" transform="translate(108.000000, 83.000000)" fill="#979797">
                    <g>
                        <rect id="Rectangle-2-Copy-2" x="0" y="10" width="34" height="1"></rect>
                        <rect id="Rectangle-2-Copy" x="0" y="6" width="34" height="1"></rect>
                        <rect id="Rectangle-2" x="0" y="0" width="34" height="3"></rect>
                    </g>
                </g>
                <g id="paragraph-/-main-well-/-full" transform="translate(6.000000, 89.000000)" fill="#979797">
                    <g id="paragraph">
                        <rect id="Rectangle-Copy-5" x="0" y="20" width="90" height="1"></rect>
                        <rect id="Rectangle-Copy-4" x="0" y="16" width="90" height="1"></rect>
                        <rect id="Rectangle-Copy-3" x="0" y="12" width="90" height="1"></rect>
                        <rect id="Rectangle-Copy-2" x="0" y="8" width="90" height="1"></rect>
                        <rect id="Rectangle-Copy" x="0" y="4" width="90" height="1"></rect>
                        <rect id="Rectangle" x="0" y="0" width="90" height="1"></rect>
                    </g>
                </g>
                <g id="h2-/-main-well-/-full" transform="translate(6.000000, 83.000000)" fill="#979797">
                    <g id="h2">
                        <rect id="Rectangle-2-Copy-2" x="0" y="0" width="54" height="3"></rect>
                    </g>
                </g>
                <g id="page-divider-/-green" transform="translate(6.000000, 71.000000)" fill="#43956F">
                    <g id="Rectangle-13">
                        <polygon points="2.11000061 0 136 0 133.891049 3 0 3"></polygon>
                    </g>
                </g>
                <g id="contact" transform="translate(6.000000, 53.000000)">
                    <rect id="Rectangle-Copy-6" fill="#DCDCDC" x="31" y="8" width="28" height="1"></rect>
                    <rect id="Rectangle-Copy-5" fill="#DCDCDC" x="31" y="4" width="28" height="1"></rect>
                    <rect id="Rectangle-Copy-4" fill="#979797" x="31" y="0" width="28" height="1"></rect>
                    <rect id="Rectangle-Copy-2" fill="#DCDCDC" x="0" y="8" width="28" height="1"></rect>
                    <rect id="Rectangle-Copy" fill="#DCDCDC" x="0" y="4" width="28" height="1"></rect>
                    <rect id="Rectangle" fill="#979797" x="0" y="0" width="28" height="1"></rect>
                </g>
                <polygon id="Rectangle-13-Copy" fill="#DCDCDC" transform="translate(131.500000, 44.000000) rotate(-180.000000) translate(-131.500000, -44.000000) " points="121 38 142 38 142 50 121 50"></polygon>
                <g id="title-/-sub" transform="translate(5.000000, 38.000000)" fill="#979797">
                    <g>
                        <rect id="Rectangle-2-Copy" x="0" y="6" width="54" height="3"></rect>
                        <rect id="Rectangle-2" x="0" y="0" width="66" height="3"></rect>
                    </g>
                </g>
                <g id="hero" transform="translate(0.000000, 9.000000)">
                    <rect id="Rectangle-5" fill="#979797" x="0" y="0" width="148" height="20"></rect>
                    <polygon id="Rectangle-13-Copy" fill="#43956F" points="0 0 83 2.10531181e-14 64 20 0 20"></polygon>
                </g>
            </g>
        </g>
    </g>
</svg>