<?xml version="1.0" encoding="UTF-8"?>
<svg width="154px" height="171px" viewBox="0 0 154 171" version="1.1" xmlns="http://www.w3.org/2000/svg" xmlns:xlink="http://www.w3.org/1999/xlink">
    <!-- Generator: Sketch 50 (54983) - http://www.bohemiancoding.com/sketch -->
    <title>add-thumbnail_guide</title>
    <desc>Created with Sketch.</desc>
    <defs></defs>
    <g id="Page-1" stroke="none" stroke-width="1" fill="none" fill-rule="evenodd">
        <g id="Guide" transform="translate(-99.000000, -99.000000)">
            <g id="add-thumbnail_guide" transform="translate(102.000000, 102.000000)">
                <g id="browser">
                    <g>
                        <rect id="Outline" stroke="#979797" stroke-width="3" fill="#FFFFFF" x="-1.5" y="-1.5" width="151" height="168"></rect>
                        <rect id="Rectangle-10" fill="#DCDCDC" x="0" y="0" width="148" height="9"></rect>
                    </g>
                </g>
                <g id="sidebar-/-content" transform="translate(108.000000, 100.000000)" fill="#979797">
                    <g>
                        <rect id="Rectangle-2-Copy-2" x="0" y="10" width="34" height="1"></rect>
                        <rect id="Rectangle-2-Copy" x="0" y="6" width="34" height="1"></rect>
                        <rect id="Rectangle-2" x="0" y="0" width="34" height="3"></rect>
                    </g>
                </g>
                <g id="file-downloads" transform="translate(6.000000, 136.000000)">
                    <g>
                        <g id="file-downloads-item" transform="translate(0.000000, 15.000000)">
                            <rect id="Rectangle-Copy" stroke="#979797" fill="#D8D8D8" x="12.5" y="3.5" width="41" height="1"></rect>
                            <circle id="Oval" fill="#8AAAC7" cx="3" cy="3" r="3"></circle>
                        </g>
                        <g id="file-downloads-item" transform="translate(0.000000, 6.000000)">
                            <rect id="Rectangle-Copy" stroke="#979797" fill="#D8D8D8" x="12.5" y="3.5" width="41" height="1"></rect>
                            <circle id="Oval" fill="#8AAAC7" cx="3" cy="3" r="3"></circle>
                        </g>
                        <g id="h2-/-main-well-/-full" fill="#979797">
                            <g id="h2">
                                <rect id="Rectangle-2-Copy-2" x="0" y="0" width="54" height="3"></rect>
                            </g>
                        </g>
                    </g>
                </g>
                <g id="stat-callout" transform="translate(78.000000, 128.000000) rotate(-180.000000) translate(-78.000000, -128.000000) translate(69.000000, 106.000000)">
                    <polygon id="Rectangle-13" fill="#D9EAE2" transform="translate(12.000000, 22.000000) scale(-1, 1) rotate(-90.000000) translate(-12.000000, -22.000000) " points="-0.666666667 16 34 16 23.3333333 28 -10 28"></polygon>
                    <rect id="Rectangle-Copy" fill="#535353" x="0" y="18" width="12" height="3"></rect>
                    <rect id="Rectangle-3" fill="#43956F" x="1.98951966e-13" y="24" width="12" height="6"></rect>
                </g>
                <g id="paragraph-/-main-well-/-narrow" transform="translate(6.000000, 106.000000)" fill="#979797">
                    <g>
                        <rect id="Rectangle-Copy-5" x="0" y="20" width="57" height="1"></rect>
                        <rect id="Rectangle-Copy-4" x="0" y="16" width="57" height="1"></rect>
                        <rect id="Rectangle-Copy-3" x="0" y="12" width="57" height="1"></rect>
                        <rect id="Rectangle-Copy-2" x="0" y="8" width="57" height="1"></rect>
                        <rect id="Rectangle-Copy" x="0" y="4" width="57" height="1"></rect>
                        <rect id="Rectangle" x="0" y="0" width="57" height="1"></rect>
                    </g>
                </g>
                <g id="h2-/-main-well-/-full" transform="translate(6.000000, 100.000000)" fill="#979797">
                    <g id="h2">
                        <rect id="Rectangle-2-Copy-2" x="0" y="0" width="54" height="3"></rect>
                    </g>
                </g>
                <g id="table-of-contents" transform="translate(0.000000, 54.000000)">
                    <g>
                        <rect id="Rectangle-2" fill="#F2F2F2" x="0" y="5" width="148" height="32"></rect>
                        <g id="table-of-contents-/-item" transform="translate(83.000000, 24.000000)">
                            <g id="table-of-contents-item">
                                <rect id="Rectangle-Copy" stroke="#979797" fill="#D8D8D8" x="12.5" y="3.5" width="46" height="1"></rect>
                                <circle id="Oval" fill="#43956F" cx="3" cy="3" r="3"></circle>
                            </g>
                        </g>
                        <g id="table-of-contents-/-item" transform="translate(83.000000, 15.000000)">
                            <g id="table-of-contents-item">
                                <rect id="Rectangle-Copy" stroke="#979797" fill="#D8D8D8" x="12.5" y="3.5" width="46" height="1"></rect>
                                <circle id="Oval" fill="#43956F" cx="3" cy="3" r="3"></circle>
                            </g>
                        </g>
                        <g id="table-of-contents-/-item" transform="translate(6.000000, 24.000000)">
                            <g id="table-of-contents-item">
                                <rect id="Rectangle-Copy" stroke="#979797" fill="#D8D8D8" x="12.5" y="3.5" width="46" height="1"></rect>
                                <circle id="Oval" fill="#43956F" cx="3" cy="3" r="3"></circle>
                            </g>
                        </g>
                        <g id="table-of-contents-/-item" transform="translate(6.000000, 15.000000)">
                            <g id="table-of-contents-item">
                                <rect id="Rectangle-Copy" stroke="#979797" fill="#D8D8D8" x="12.5" y="3.5" width="46" height="1"></rect>
                                <circle id="Oval" fill="#43956F" cx="3" cy="3" r="3"></circle>
                            </g>
                        </g>
                        <g id="heading-/-colored-/-green" transform="translate(6.000000, 0.000000)" fill="#43956F">
                            <polygon id="Rectangle-13" points="0 0 136 0 129.688623 9 0 9"></polygon>
                        </g>
                    </g>
                </g>
                <polygon id="Rectangle-13" fill="#979797" transform="translate(128.000000, 31.500000) rotate(-180.000000) translate(-128.000000, -31.500000) " points="107 18 149 18 129.688623 45 107 45"></polygon>
                <g id="paragraph-/-main-well-/-half" transform="translate(6.000000, 37.000000)" fill="#979797">
                    <rect id="Rectangle-Copy" x="0" y="4" width="90" height="1"></rect>
                    <rect id="Rectangle" x="0" y="0" width="90" height="1"></rect>
                </g>
                <g id="title-/-page" transform="translate(6.000000, 25.000000)" fill="#535353">
                    <rect id="Rectangle" x="0" y="0" width="90" height="9"></rect>
                </g>
                <g id="type-eyebrow" transform="translate(6.000000, 21.000000)" fill="#979797">
                    <g id="Rectangle-2-Copy-2">
                        <rect x="0" y="0" width="48" height="1"></rect>
                    </g>
                </g>
            </g>
        </g>
    </g>
</svg>