<?xml version="1.0" encoding="UTF-8"?>
<svg width="154px" height="171px" viewBox="0 0 154 171" version="1.1" xmlns="http://www.w3.org/2000/svg" xmlns:xlink="http://www.w3.org/1999/xlink">
    <!-- Generator: Sketch 50 (54983) - http://www.bohemiancoding.com/sketch -->
    <title>add-thumbnail_fee</title>
    <desc>Created with Sketch.</desc>
    <defs></defs>
    <g id="Page-1" stroke="none" stroke-width="1" fill="none" fill-rule="evenodd">
        <g id="Fee" transform="translate(-99.000000, -99.000000)">
            <g id="add-thumbnail_fee" transform="translate(102.000000, 102.000000)">
                <g id="browser">
                    <g>
                        <rect id="Outline" stroke="#979797" stroke-width="3" fill="#FFFFFF" x="-1.5" y="-1.5" width="151" height="168"></rect>
                        <rect id="Rectangle-10" fill="#DCDCDC" x="0" y="0" width="148" height="9"></rect>
                    </g>
                </g>
                <rect id="Rectangle" fill="#A1CAB7" x="0" y="9" width="148" height="156"></rect>
                <g id="156---Money-(Solid)" transform="translate(45.000000, 61.000000)" fill="#43956F" fill-rule="nonzero">
                    <path d="M56.079,9 L5,0.827 L5,5.157 L2,4.917 L2,9 L0,9 L0,43 L58,43 L58,9 L56.079,9 Z M7,3.173 L33.802,7.461 L7,5.317 L7,3.173 Z M4,7.083 L5,7.163 L5,7.164 L11.757,7.704 L27.96,9 L4,9 L4,7.083 Z M2,11 L56,11 L56,41 L2,41 L2,11 Z" id="Fill-12"></path>
                    <path d="M47,36.5 C47,34.019 49.019,32 51.5,32 C51.638,32 51.773,32.009 51.908,32.021 L53,32.121 L53,19.879 L51.908,19.979 C51.773,19.991 51.638,20 51.5,20 C49.019,20 47,17.981 47,15.5 C47,15.361 47.01,15.224 47.021,15.088 L47.118,14 L36.174,14 C34.073,12.739 31.624,12 29,12 C26.376,12 23.927,12.739 21.826,14 L10.879,14 L10.979,15.091 C10.991,15.226 11,15.362 11,15.5 C11,17.981 8.981,20 6.5,20 C6.362,20 6.226,19.991 6.091,19.979 L5,19.879 L5,32.121 L6.091,32.021 C6.226,32.009 6.362,32 6.5,32 C8.981,32 11,34.019 11,36.5 C11,36.638 10.991,36.774 10.979,36.909 L10.879,38 L18.875,38 C19.741,38 20.518,37.484 20.854,36.685 C20.931,36.502 20.975,36.312 20.999,36.121 C21.321,35.761 21.652,35.491 22.009,35.296 L25.224,33.712 L25.224,33.541 C23.825,32.755 22.835,31.485 22.275,29.753 C21.417,29.277 20.871,28.376 20.871,27.369 L20.871,26.499 C20.871,25.677 21.242,24.911 21.867,24.396 C21.986,23.579 22.191,22.811 22.479,22.111 C22.608,21.793 22.719,21.556 22.808,21.364 C23.026,20.895 23.026,20.895 22.866,20.087 C22.783,19.668 22.727,19.285 22.69,18.956 C22.651,18.625 22.756,18.291 22.977,18.042 C23.44,17.522 24.344,17.547 24.779,18.099 C24.944,18.308 25.203,18.531 25.547,18.763 C26.273,19.252 27.25,19.47 28.271,19.387 C28.454,19.372 28.643,19.365 28.835,19.365 C33.783,19.365 35.369,21.992 35.788,24.382 C36.422,24.897 36.8,25.669 36.8,26.499 L36.8,27.369 C36.8,28.376 36.254,29.277 35.396,29.753 C34.835,31.485 33.846,32.755 32.447,33.541 L32.447,33.722 L35.547,35.305 C36.024,35.544 36.444,35.879 36.789,36.297 L37.249,36.855 C37.62,37.549 38.326,38 39.125,38 L47.118,38 L47.021,36.912 C47.01,36.776 47,36.639 47,36.5 Z M19.011,35.91 C18.973,36 18.902,36 18.875,36 L12.981,36 C12.737,32.814 10.186,30.263 7,30.019 L7,21.981 C10.186,21.737 12.737,19.187 12.981,16 L19.213,16 C19.198,16.015 19.185,16.031 19.17,16.046 C18.999,16.215 18.841,16.396 18.679,16.574 C18.523,16.744 18.361,16.908 18.215,17.085 C18.158,17.153 18.109,17.227 18.054,17.296 C16.415,19.345 15.375,21.819 15.087,24.474 C15.084,24.507 15.076,24.539 15.072,24.572 C15.025,25.043 15,25.52 15,26 C15,26.512 15.034,27.017 15.088,27.52 C15.105,27.67 15.132,27.817 15.153,27.966 C15.203,28.32 15.262,28.671 15.339,29.018 C15.373,29.174 15.413,29.327 15.453,29.481 C15.541,29.823 15.641,30.161 15.755,30.496 C15.8,30.63 15.846,30.763 15.896,30.896 C16.031,31.257 16.183,31.61 16.348,31.959 C16.393,32.053 16.433,32.149 16.48,32.241 C16.687,32.655 16.914,33.059 17.163,33.452 C17.177,33.474 17.189,33.498 17.203,33.52 C17.715,34.318 18.307,35.072 18.984,35.765 C19.003,35.786 19.045,35.828 19.011,35.91 Z M45.019,36 L39.125,36 C39.098,36 39.027,36 38.989,35.91 C38.955,35.828 38.997,35.786 39.017,35.765 C39.268,35.508 39.498,35.237 39.727,34.965 C39.735,34.954 39.745,34.945 39.754,34.934 C40.759,33.731 41.541,32.385 42.087,30.945 C42.126,30.843 42.159,30.74 42.195,30.638 C42.325,30.27 42.44,29.897 42.538,29.518 C42.575,29.375 42.612,29.231 42.645,29.086 C42.726,28.724 42.791,28.357 42.843,27.987 C42.864,27.841 42.891,27.696 42.907,27.548 C42.964,27.037 43,26.521 43,26 C43,25.52 42.975,25.043 42.928,24.572 C42.924,24.539 42.916,24.507 42.913,24.474 C42.625,21.819 41.585,19.345 39.946,17.296 C39.891,17.227 39.842,17.153 39.785,17.085 C39.639,16.908 39.477,16.744 39.321,16.574 C39.159,16.396 39.001,16.215 38.83,16.046 C38.815,16.031 38.802,16.015 38.787,16 L45.019,16 C45.263,19.187 47.813,21.737 51,21.981 L51,30.019 C47.813,30.263 45.263,32.814 45.019,36 Z" id="Fill-13"></path>
                    <path d="M6.5,19 C8.43,19 10,17.43 10,15.5 C10,13.57 8.43,12 6.5,12 C4.57,12 3,13.57 3,15.5 C3,17.43 4.57,19 6.5,19" id="Fill-14"></path>
                    <path d="M48,15.5 C48,17.43 49.57,19 51.5,19 C53.43,19 55,17.43 55,15.5 C55,13.57 53.43,12 51.5,12 C49.57,12 48,13.57 48,15.5" id="Fill-15"></path>
                    <path d="M6.5,33 C4.57,33 3,34.57 3,36.5 C3,38.43 4.57,40 6.5,40 C8.43,40 10,38.43 10,36.5 C10,34.57 8.43,33 6.5,33" id="Fill-16"></path>
                    <path d="M51.5,33 C49.57,33 48,34.57 48,36.5 C48,38.43 49.57,40 51.5,40 C53.43,40 55,38.43 55,36.5 C55,34.57 53.43,33 51.5,33" id="Fill-17"></path>
                </g>
            </g>
        </g>
    </g>
</svg>