<?xml version="1.0" encoding="UTF-8"?>
<svg width="154px" height="171px" viewBox="0 0 154 171" version="1.1" xmlns="http://www.w3.org/2000/svg" xmlns:xlink="http://www.w3.org/1999/xlink">
    <!-- Generator: Sketch 50 (54983) - http://www.bohemiancoding.com/sketch -->
    <title>add-thumbnail_decision</title>
    <desc>Created with Sketch.</desc>
    <defs></defs>
    <g id="Page-1" stroke="none" stroke-width="1" fill="none" fill-rule="evenodd">
        <g id="Decision" transform="translate(-99.000000, -99.000000)">
            <g id="add-thumbnail_decision" transform="translate(102.000000, 102.000000)">
                <g id="browser">
                    <g>
                        <rect id="Outline" stroke="#979797" stroke-width="3" fill="#FFFFFF" x="-1.5" y="-1.5" width="151" height="168"></rect>
                        <rect id="Rectangle-10" fill="#DCDCDC" x="0" y="0" width="148" height="9"></rect>
                    </g>
                </g>
                <g id="sidebar-/-content" transform="translate(107.000000, 134.000000)" fill="#979797">
                    <g>
                        <rect id="Rectangle-2-Copy-2" x="0" y="10" width="34" height="1"></rect>
                        <rect id="Rectangle-2-Copy" x="0" y="6" width="34" height="1"></rect>
                        <rect id="Rectangle-2" x="0" y="0" width="34" height="3"></rect>
                    </g>
                </g>
                <g id="sidebar-/-content" transform="translate(6.000000, 134.000000)" fill="#979797">
                    <rect id="Rectangle-2-Copy-2" x="0" y="22" width="89" height="1"></rect>
                    <rect id="Rectangle-2-Copy-5" x="0" y="18" width="89" height="1"></rect>
                    <rect id="Rectangle-2-Copy" x="0" y="14" width="89" height="1"></rect>
                    <rect id="Rectangle-2-Copy-4" x="0" y="10" width="89" height="1"></rect>
                    <rect id="Rectangle-2-Copy-3" x="0" y="6" width="89" height="1"></rect>
                    <rect id="Rectangle-2" x="0" y="0" width="89" height="3"></rect>
                </g>
                <g id="table-of-contents" transform="translate(0.000000, 88.000000)">
                    <g>
                        <rect id="Rectangle-2" fill="#F2F2F2" x="0" y="5" width="148" height="32"></rect>
                        <g id="table-of-contents-/-item" transform="translate(83.000000, 24.000000)">
                            <g id="table-of-contents-item">
                                <rect id="Rectangle-Copy" stroke="#979797" fill="#D8D8D8" x="12.5" y="3.5" width="46" height="1"></rect>
                                <circle id="Oval" fill="#43956F" cx="3" cy="3" r="3"></circle>
                            </g>
                        </g>
                        <g id="table-of-contents-/-item" transform="translate(83.000000, 15.000000)">
                            <g id="table-of-contents-item">
                                <rect id="Rectangle-Copy" stroke="#979797" fill="#D8D8D8" x="12.5" y="3.5" width="46" height="1"></rect>
                                <circle id="Oval" fill="#43956F" cx="3" cy="3" r="3"></circle>
                            </g>
                        </g>
                        <g id="table-of-contents-/-item" transform="translate(6.000000, 24.000000)">
                            <g id="table-of-contents-item">
                                <rect id="Rectangle-Copy" stroke="#979797" fill="#D8D8D8" x="12.5" y="3.5" width="46" height="1"></rect>
                                <circle id="Oval" fill="#43956F" cx="3" cy="3" r="3"></circle>
                            </g>
                        </g>
                        <g id="table-of-contents-/-item" transform="translate(6.000000, 15.000000)">
                            <g id="table-of-contents-item">
                                <rect id="Rectangle-Copy" stroke="#979797" fill="#D8D8D8" x="12.5" y="3.5" width="46" height="1"></rect>
                                <circle id="Oval" fill="#43956F" cx="3" cy="3" r="3"></circle>
                            </g>
                        </g>
                        <g id="heading-/-colored-/-green" transform="translate(6.000000, 0.000000)" fill="#43956F">
                            <polygon id="Rectangle-13" points="0 0 136 0 129.688623 9 0 9"></polygon>
                        </g>
                    </g>
                </g>
                <g id="structured-data-list" transform="translate(6.000000, 70.000000)">
                    <rect id="Rectangle-Copy-6" fill="#979797" x="31" y="8" width="28" height="1"></rect>
                    <rect id="Rectangle-Copy-5" fill="#979797" x="31" y="4" width="28" height="1"></rect>
                    <rect id="Rectangle-Copy-4" fill="#979797" x="31" y="0" width="28" height="1"></rect>
                    <rect id="Rectangle-Copy-2" fill="#535353" x="0" y="8" width="28" height="1"></rect>
                    <rect id="Rectangle-Copy" fill="#535353" x="0" y="4" width="28" height="1"></rect>
                    <rect id="Rectangle" fill="#535353" x="0" y="0" width="28" height="1"></rect>
                </g>
                <g id="structured-data-list" transform="translate(6.000000, 55.000000)">
                    <g>
                        <rect id="Rectangle-Copy-6" fill="#DCDCDC" x="31" y="8" width="28" height="1"></rect>
                        <rect id="Rectangle-Copy-5" fill="#DCDCDC" x="31" y="4" width="28" height="1"></rect>
                        <rect id="Rectangle-Copy-4" fill="#DCDCDC" x="31" y="0" width="28" height="1"></rect>
                        <rect id="Rectangle-Copy-2" fill="#979797" x="0" y="8" width="28" height="1"></rect>
                        <rect id="Rectangle-Copy" fill="#979797" x="0" y="4" width="28" height="1"></rect>
                        <rect id="Rectangle" fill="#979797" x="0" y="0" width="28" height="1"></rect>
                    </g>
                </g>
                <g id="title-/-page-+-sub" transform="translate(6.000000, 22.000000)">
                    <g>
                        <g id="title-/-sub" transform="translate(0.000000, 15.000000)" fill="#979797">
                            <g>
                                <rect id="Rectangle-2-Copy" x="0" y="6" width="54" height="3"></rect>
                                <rect id="Rectangle-2" x="0" y="0" width="66" height="3"></rect>
                            </g>
                        </g>
                        <g id="title-/-page" fill="#535353">
                            <g id="Rectangle">
                                <rect x="0" y="0" width="120" height="9"></rect>
                            </g>
                        </g>
                    </g>
                </g>
                <g id="type-eyebrow" transform="translate(6.000000, 18.000000)" fill="#979797">
                    <g id="Rectangle-2-Copy-2">
                        <rect x="0" y="0" width="48" height="1"></rect>
                    </g>
                </g>
            </g>
        </g>
    </g>
</svg>