<?xml version="1.0" encoding="UTF-8"?>
<svg width="154px" height="171px" viewBox="0 0 154 171" version="1.1" xmlns="http://www.w3.org/2000/svg" xmlns:xlink="http://www.w3.org/1999/xlink">
    <!-- Generator: Sketch 50 (54983) - http://www.bohemiancoding.com/sketch -->
    <title>add-thumbnail_executive-order</title>
    <desc>Created with Sketch.</desc>
    <defs></defs>
    <g id="Page-1" stroke="none" stroke-width="1" fill="none" fill-rule="evenodd">
        <g id="Executive-Order" transform="translate(-99.000000, -99.000000)">
            <g id="add-thumbnail_executive-order" transform="translate(102.000000, 102.000000)">
                <g id="browser">
                    <g>
                        <rect id="Outline" stroke="#979797" stroke-width="3" fill="#FFFFFF" x="-1.5" y="-1.5" width="151" height="168"></rect>
                        <rect id="Rectangle-10" fill="#DCDCDC" x="0" y="0" width="148" height="9"></rect>
                    </g>
                </g>
                <g id="sidebar-/-content" transform="translate(108.000000, 80.000000)" fill="#979797">
                    <g>
                        <rect id="Rectangle-2-Copy-2" x="0" y="10" width="34" height="1"></rect>
                        <rect id="Rectangle-2-Copy" x="0" y="6" width="34" height="1"></rect>
                        <rect id="Rectangle-2" x="0" y="0" width="34" height="3"></rect>
                    </g>
                </g>
                <g id="sidebar-/-content" transform="translate(108.000000, 60.000000)" fill="#979797">
                    <g>
                        <rect id="Rectangle-2-Copy-2" x="0" y="10" width="34" height="1"></rect>
                        <rect id="Rectangle-2-Copy" x="0" y="6" width="34" height="1"></rect>
                        <rect id="Rectangle-2" x="0" y="0" width="34" height="3"></rect>
                    </g>
                </g>
                <g id="sidebar-/-content" transform="translate(108.000000, 40.000000)" fill="#979797">
                    <g>
                        <rect id="Rectangle-2-Copy-2" x="0" y="10" width="34" height="1"></rect>
                        <rect id="Rectangle-2-Copy" x="0" y="6" width="34" height="1"></rect>
                        <rect id="Rectangle-2" x="0" y="0" width="34" height="3"></rect>
                    </g>
                </g>
                <g id="paragraph-/-main-well-/-full" transform="translate(6.000000, 122.000000)" fill="#979797">
                    <g id="paragraph">
                        <rect id="Rectangle-Copy-5" x="0" y="20" width="90" height="1"></rect>
                        <rect id="Rectangle-Copy-4" x="0" y="16" width="90" height="1"></rect>
                        <rect id="Rectangle-Copy-3" x="0" y="12" width="90" height="1"></rect>
                        <rect id="Rectangle-Copy-2" x="0" y="8" width="90" height="1"></rect>
                        <rect id="Rectangle-Copy" x="0" y="4" width="90" height="1"></rect>
                        <rect id="Rectangle" x="0" y="0" width="90" height="1"></rect>
                    </g>
                </g>
                <g id="paragraph-/-main-well-/-full" transform="translate(6.000000, 92.000000)" fill="#979797">
                    <g id="paragraph">
                        <rect id="Rectangle-Copy-5" x="0" y="20" width="90" height="1"></rect>
                        <rect id="Rectangle-Copy-4" x="0" y="16" width="90" height="1"></rect>
                        <rect id="Rectangle-Copy-3" x="0" y="12" width="90" height="1"></rect>
                        <rect id="Rectangle-Copy-2" x="0" y="8" width="90" height="1"></rect>
                        <rect id="Rectangle-Copy" x="0" y="4" width="90" height="1"></rect>
                        <rect id="Rectangle" x="0" y="0" width="90" height="1"></rect>
                    </g>
                </g>
                <g id="summary-box" transform="translate(0.000000, 58.000000)">
                    <rect id="Rectangle-2" fill="#DCDCDC" x="0" y="0" width="96" height="25"></rect>
                    <rect id="Rectangle-Copy-3" fill="#979797" x="6" y="18" width="84" height="1"></rect>
                    <rect id="Rectangle-Copy-2" fill="#979797" x="6" y="14" width="84" height="1"></rect>
                    <rect id="Rectangle-Copy" fill="#979797" x="6" y="10" width="84" height="1"></rect>
                    <rect id="Rectangle" fill="#979797" x="6" y="6" width="84" height="1"></rect>
                </g>
                <g id="structured-data-list" transform="translate(6.000000, 40.000000)">
                    <g>
                        <rect id="Rectangle-Copy-6" fill="#DCDCDC" x="31" y="8" width="28" height="1"></rect>
                        <rect id="Rectangle-Copy-5" fill="#DCDCDC" x="31" y="4" width="28" height="1"></rect>
                        <rect id="Rectangle-Copy-4" fill="#DCDCDC" x="31" y="0" width="28" height="1"></rect>
                        <rect id="Rectangle-Copy-2" fill="#979797" x="0" y="8" width="28" height="1"></rect>
                        <rect id="Rectangle-Copy" fill="#979797" x="0" y="4" width="28" height="1"></rect>
                        <rect id="Rectangle" fill="#979797" x="0" y="0" width="28" height="1"></rect>
                    </g>
                </g>
                <g id="title-/-page" transform="translate(6.000000, 22.000000)" fill="#535353">
                    <g id="Rectangle">
                        <rect x="0" y="0" width="120" height="9"></rect>
                    </g>
                </g>
                <g id="type-eyebrow" transform="translate(6.000000, 18.000000)" fill="#979797">
                    <g id="Rectangle-2-Copy-2">
                        <rect x="0" y="0" width="48" height="1"></rect>
                    </g>
                </g>
            </g>
        </g>
    </g>
</svg>