<?xml version="1.0" encoding="UTF-8"?>
<svg width="154px" height="171px" viewBox="0 0 154 171" version="1.1" xmlns="http://www.w3.org/2000/svg" xmlns:xlink="http://www.w3.org/1999/xlink">
    <!-- Generator: Sketch 50 (54983) - http://www.bohemiancoding.com/sketch -->
    <title>add-thumbnail_event</title>
    <desc>Created with Sketch.</desc>
    <defs></defs>
    <g id="Page-1" stroke="none" stroke-width="1" fill="none" fill-rule="evenodd">
        <g id="Event" transform="translate(-99.000000, -99.000000)">
            <g id="add-thumbnail_event" transform="translate(102.000000, 102.000000)">
                <g id="browser">
                    <g>
                        <rect id="Outline" stroke="#979797" stroke-width="3" fill="#FFFFFF" x="-1.5" y="-1.5" width="151" height="168"></rect>
                        <rect id="Rectangle-10" fill="#DCDCDC" x="0" y="0" width="148" height="9"></rect>
                    </g>
                </g>
                <g id="sidebar-/-content" transform="translate(108.000000, 78.000000)" fill="#979797">
                    <g>
                        <rect id="Rectangle-2-Copy-2" x="0" y="10" width="34" height="1"></rect>
                        <rect id="Rectangle-2-Copy" x="0" y="6" width="34" height="1"></rect>
                        <rect id="Rectangle-2" x="0" y="0" width="34" height="3"></rect>
                    </g>
                </g>
                <g id="related-events" transform="translate(0.000000, 132.000000)">
                    <rect id="Rectangle-3" fill="#F2F2F2" x="0" y="0" width="148" height="33"></rect>
                    <g id="event-summary" transform="translate(6.000000, 15.000000)">
                        <g>
                            <g id="sidebar-/-content" transform="translate(21.000000, 0.000000)" fill="#979797">
                                <rect id="Rectangle-2-Copy-2" x="0" y="10" width="44" height="1"></rect>
                                <rect id="Rectangle-2-Copy" x="0" y="6" width="44" height="1"></rect>
                                <rect id="Rectangle-2" x="0" y="0" width="44" height="3"></rect>
                            </g>
                            <g id="date" fill="#DCDCDC">
                                <g id="Rectangle-12">
                                    <rect x="0" y="0" width="18" height="12"></rect>
                                </g>
                            </g>
                        </g>
                    </g>
                    <g id="event-summary" transform="translate(77.000000, 15.000000)">
                        <g>
                            <g id="sidebar-/-content" transform="translate(21.000000, 0.000000)" fill="#979797">
                                <rect id="Rectangle-2-Copy-2" x="0" y="10" width="44" height="1"></rect>
                                <rect id="Rectangle-2-Copy" x="0" y="6" width="44" height="1"></rect>
                                <rect id="Rectangle-2" x="0" y="0" width="44" height="3"></rect>
                            </g>
                            <g id="date" fill="#DCDCDC">
                                <g id="Rectangle-12">
                                    <rect x="0" y="0" width="18" height="12"></rect>
                                </g>
                            </g>
                        </g>
                    </g>
                    <g id="h2-/-narrow" transform="translate(46.000000, 6.000000)" fill="#979797">
                        <g id="Rectangle-2-Copy-2">
                            <rect x="0" y="0" width="57" height="3"></rect>
                        </g>
                    </g>
                </g>
                <g id="paragraph" transform="translate(6.000000, 111.000000)" fill="#D8D8D8" stroke="#979797">
                    <rect id="Rectangle-Copy-4" x="0.5" y="16.5" width="89" height="1"></rect>
                    <rect id="Rectangle-Copy-3" x="0.5" y="12.5" width="89" height="1"></rect>
                    <rect id="Rectangle-Copy-2" x="0.5" y="8.5" width="89" height="1"></rect>
                    <rect id="Rectangle-Copy" x="0.5" y="4.5" width="89" height="1"></rect>
                    <rect id="Rectangle" x="0.5" y="0.5" width="89" height="1"></rect>
                </g>
                <g id="paragraph-/-main-well-/-half" transform="translate(6.000000, 84.000000)" fill="#979797">
                    <g>
                        <rect id="Rectangle-Copy-5" x="0" y="20" width="42" height="1"></rect>
                        <rect id="Rectangle-Copy-4" x="0" y="16" width="42" height="1"></rect>
                        <rect id="Rectangle-Copy-3" x="0" y="12" width="42" height="1"></rect>
                        <rect id="Rectangle-Copy-2" x="0" y="8" width="42" height="1"></rect>
                        <rect id="Rectangle-Copy" x="0" y="4" width="42" height="1"></rect>
                        <rect id="Rectangle" x="0" y="0" width="42" height="1"></rect>
                    </g>
                </g>
                <g id="image-/-main-well-/-half" transform="translate(54.000000, 84.000000)" fill="#DCDCDC">
                    <g id="image-/-main-well">
                        <rect x="0" y="0" width="42" height="21"></rect>
                    </g>
                </g>
                <g id="h2-/-main-well-/-full" transform="translate(6.000000, 78.000000)" fill="#979797">
                    <g id="h2">
                        <rect id="Rectangle-2-Copy-2" x="0" y="0" width="54" height="3"></rect>
                    </g>
                </g>
                <g id="page-divider-/-green" transform="translate(6.000000, 66.000000)" fill="#43956F">
                    <g id="Rectangle-13">
                        <polygon points="2.11000061 0 136 0 133.891049 3 0 3"></polygon>
                    </g>
                </g>
                <g id="buttons-/-glorified" transform="translate(6.000000, 48.000000)" fill="#DCDCDC" stroke="#979797">
                    <g id="Rectangle-12">
                        <rect x="0.5" y="0.5" width="41" height="11"></rect>
                    </g>
                </g>
                <g id="title-/-sub" transform="translate(6.000000, 33.000000)" fill="#979797">
                    <rect id="Rectangle-2-Copy" x="0" y="6" width="18" height="3"></rect>
                    <rect id="Rectangle-2" x="0" y="0" width="30" height="3"></rect>
                </g>
                <g id="title-/-page" transform="translate(6.000000, 18.000000)" fill="#535353">
                    <g id="Rectangle">
                        <rect x="0" y="0" width="120" height="9"></rect>
                    </g>
                </g>
            </g>
        </g>
    </g>
</svg>