<?xml version="1.0" encoding="UTF-8"?>
<svg width="154px" height="171px" viewBox="0 0 154 171" version="1.1" xmlns="http://www.w3.org/2000/svg" xmlns:xlink="http://www.w3.org/1999/xlink">
    <!-- Generator: Sketch 50 (54983) - http://www.bohemiancoding.com/sketch -->
    <title>add-thumbnail_topic-page</title>
    <desc>Created with Sketch.</desc>
    <defs></defs>
    <g id="Page-1" stroke="none" stroke-width="1" fill="none" fill-rule="evenodd">
        <g id="Topic-Page" transform="translate(-99.000000, -99.000000)">
            <g id="add-thumbnail_topic-page" transform="translate(102.000000, 102.000000)">
                <g id="browser">
                    <g>
                        <rect id="Outline" stroke="#979797" stroke-width="3" fill="#FFFFFF" x="-1.5" y="-1.5" width="151" height="168"></rect>
                        <rect id="Rectangle-10" fill="#DCDCDC" x="0" y="0" width="148" height="9"></rect>
                    </g>
                </g>
                <g id="related-topics-link-list" transform="translate(6.000000, 138.000000)" fill="#8AAAC7">
                    <rect id="Rectangle-Copy-6" x="0" y="8" width="30" height="1"></rect>
                    <rect id="Rectangle-Copy" x="0" y="4" width="30" height="1"></rect>
                    <rect id="Rectangle" x="0" y="0" width="30" height="1"></rect>
                </g>
                <g id="h2-/-half-copy" transform="translate(6.000000, 132.000000)" fill="#979797">
                    <rect id="Rectangle-2-Copy-2" x="0" y="0" width="30" height="3"></rect>
                </g>
                <g id="topic-org-card-/-with-links-copy" transform="translate(99.000000, 75.000000)">
                    <rect id="Rectangle-4" fill="#DCDCDC" x="0" y="0" width="43" height="48"></rect>
                    <rect id="Rectangle-Copy-5" fill="#8AAAC7" x="6" y="41" width="12" height="1"></rect>
                    <g id="links" transform="translate(6.000000, 23.000000)" fill="#8AAAC7">
                        <rect id="Rectangle-Copy-6" x="0" y="8" width="18" height="1"></rect>
                        <rect id="Rectangle-Copy" x="0" y="4" width="18" height="1"></rect>
                        <rect id="Rectangle" x="0" y="0" width="18" height="1"></rect>
                    </g>
                    <g id="paragraph-/-main-well-/-half" transform="translate(6.000000, 12.000000)" fill="#979797">
                        <rect id="Rectangle-Copy" x="0" y="4" width="31" height="1"></rect>
                        <rect id="Rectangle" x="0" y="0" width="31" height="1"></rect>
                    </g>
                    <g id="h2-/-half" transform="translate(6.000000, 6.000000)" fill="#979797">
                        <rect id="Rectangle-2-Copy-2" x="0" y="0" width="31" height="3"></rect>
                    </g>
                </g>
                <g id="topic-org-card-/-with-links" transform="translate(53.000000, 75.000000)">
                    <rect id="Rectangle-4" fill="#DCDCDC" x="0" y="0" width="43" height="48"></rect>
                    <rect id="Rectangle-Copy-5" fill="#8AAAC7" x="6" y="41" width="12" height="1"></rect>
                    <g id="links" transform="translate(6.000000, 23.000000)" fill="#8AAAC7">
                        <rect id="Rectangle-Copy-6" x="0" y="8" width="18" height="1"></rect>
                        <rect id="Rectangle-Copy" x="0" y="4" width="18" height="1"></rect>
                        <rect id="Rectangle" x="0" y="0" width="18" height="1"></rect>
                    </g>
                    <g id="paragraph-/-main-well-/-half" transform="translate(6.000000, 12.000000)" fill="#979797">
                        <rect id="Rectangle-Copy" x="0" y="4" width="31" height="1"></rect>
                        <rect id="Rectangle" x="0" y="0" width="31" height="1"></rect>
                    </g>
                    <g id="h2-/-half" transform="translate(6.000000, 6.000000)" fill="#979797">
                        <rect id="Rectangle-2-Copy-2" x="0" y="0" width="31" height="3"></rect>
                    </g>
                </g>
                <g id="topic-org-card-/-with-button" transform="translate(6.000000, 75.000000)">
                    <rect id="Rectangle-4" fill="#DCDCDC" x="0" y="0" width="44" height="48"></rect>
                    <rect id="Rectangle-Copy-5" fill="#8AAAC7" x="6" y="41" width="12" height="1"></rect>
                    <g id="buttons-/-glorified" transform="translate(6.000000, 21.000000)" fill="#E7EEF4" stroke="#8AAAC7">
                        <rect id="Rectangle-12" x="0.5" y="0.5" width="31" height="11"></rect>
                    </g>
                    <g id="paragraph-/-main-well-/-half" transform="translate(6.000000, 12.000000)" fill="#979797">
                        <rect id="Rectangle-Copy" x="0" y="4" width="32" height="1"></rect>
                        <rect id="Rectangle" x="0" y="0" width="32" height="1"></rect>
                    </g>
                    <g id="h2-/-half" transform="translate(6.000000, 6.000000)" fill="#979797">
                        <rect id="Rectangle-2-Copy-2" x="0" y="0" width="32" height="3"></rect>
                    </g>
                </g>
                <g id="guide-hero" transform="translate(0.000000, 18.000000)">
                    <rect id="Rectangle-4-Copy-3" fill="#DCDCDC" x="53" y="0" width="90" height="48"></rect>
                    <rect id="Rectangle-Copy-4" fill="#979797" x="6" y="46" width="42" height="1"></rect>
                    <rect id="Rectangle-Copy-3" fill="#979797" x="6" y="42" width="42" height="1"></rect>
                    <rect id="Rectangle-Copy-2" fill="#979797" x="6" y="38" width="42" height="1"></rect>
                    <polygon id="Rectangle-13-Copy" fill="#43956F" points="0 3 90 3 71 35 0 35"></polygon>
                </g>
            </g>
        </g>
    </g>
</svg>