<?xml version="1.0" encoding="UTF-8"?>
<svg width="154px" height="171px" viewBox="0 0 154 171" version="1.1" xmlns="http://www.w3.org/2000/svg" xmlns:xlink="http://www.w3.org/1999/xlink">
    <!-- Generator: Sketch 50 (54983) - http://www.bohemiancoding.com/sketch -->
    <title>add-thumbnail_location-page</title>
    <desc>Created with Sketch.</desc>
    <defs></defs>
    <g id="Page-1" stroke="none" stroke-width="1" fill="none" fill-rule="evenodd">
        <g id="Location-Page" transform="translate(-99.000000, -99.000000)">
            <g id="add-thumbnail_location-page" transform="translate(102.000000, 102.000000)">
                <g id="browser">
                    <g>
                        <rect id="Outline" stroke="#979797" stroke-width="3" fill="#FFFFFF" x="-1.5" y="-1.5" width="151" height="168"></rect>
                        <rect id="Rectangle-10" fill="#DCDCDC" x="0" y="0" width="148" height="9"></rect>
                    </g>
                </g>
                <g id="sidebar" transform="translate(108.000000, 119.000000)" fill="#979797">
                    <g id="sidebar-/-content-/-heading-colored-grey" transform="translate(0.000000, 26.000000)">
                        <rect id="Rectangle-2-Copy" x="0" y="12" width="34" height="1"></rect>
                        <g id="heading-/-colored-/-grey">
                            <g id="Rectangle-13-Copy">
                                <polygon transform="translate(17.000000, 4.500000) rotate(-180.000000) translate(-17.000000, -4.500000) " points="0 1.77635684e-15 34 0 27.6886228 9 0 9"></polygon>
                            </g>
                        </g>
                    </g>
                    <g id="sidebar-/-content-/-heading-colored-grey">
                        <g>
                            <rect id="Rectangle-2-Copy-2" x="0" y="16" width="34" height="1"></rect>
                            <rect id="Rectangle-2-Copy" x="0" y="12" width="34" height="1"></rect>
                            <g id="heading-/-colored-/-grey">
                                <g id="Rectangle-13-Copy">
                                    <polygon transform="translate(17.000000, 4.500000) rotate(-180.000000) translate(-17.000000, -4.500000) " points="0 1.77635684e-15 34 0 27.6886228 9 0 9"></polygon>
                                </g>
                            </g>
                        </g>
                    </g>
                </g>
                <g id="paragraph-/-main-well-/-narrow" transform="translate(39.000000, 137.000000)" fill="#979797">
                    <g>
                        <rect id="Rectangle-Copy-5" x="0" y="20" width="57" height="1"></rect>
                        <rect id="Rectangle-Copy-4" x="0" y="16" width="57" height="1"></rect>
                        <rect id="Rectangle-Copy-3" x="0" y="12" width="57" height="1"></rect>
                        <rect id="Rectangle-Copy-2" x="0" y="8" width="57" height="1"></rect>
                        <rect id="Rectangle-Copy" x="0" y="4" width="57" height="1"></rect>
                        <rect id="Rectangle" x="0" y="0" width="57" height="1"></rect>
                    </g>
                </g>
                <g id="h2-/-narrow" transform="translate(39.000000, 131.000000)" fill="#979797">
                    <g id="Rectangle-2-Copy-2">
                        <rect x="0" y="0" width="57" height="3"></rect>
                    </g>
                </g>
                <g id="left-sidebar" transform="translate(6.000000, 131.000000)">
                    <g id="paragraph-/-sidebar-/-left" transform="translate(0.000000, 6.000000)" fill="#D8D8D8" stroke="#979797">
                        <rect id="Rectangle-Copy-5" x="0.5" y="20.5" width="23" height="1"></rect>
                        <rect id="Rectangle-Copy-4" x="0.5" y="16.5" width="23" height="1"></rect>
                        <rect id="Rectangle-Copy-3" x="0.5" y="12.5" width="23" height="1"></rect>
                        <rect id="Rectangle-Copy-2" x="0.5" y="8.5" width="23" height="1"></rect>
                        <rect id="Rectangle-Copy" x="0.5" y="4.5" width="23" height="1"></rect>
                        <rect id="Rectangle" x="0.5" y="0.5" width="23" height="1"></rect>
                    </g>
                    <g id="h2-/-sidebar-/-left" fill="#979797">
                        <rect id="Rectangle-2-Copy-2" x="0" y="0" width="24" height="3"></rect>
                    </g>
                </g>
                <g id="heading-/-colored-/-green" transform="translate(6.000000, 119.000000)" fill="#43956F">
                    <polygon id="Rectangle-13" points="0 0 96 0 89.6886228 9 0 9"></polygon>
                </g>
                <g id="image-/-main-well-/-full" transform="translate(6.000000, 71.000000)">
                    <rect id="image-/-main-well" fill="#DCDCDC" x="0" y="0" width="136" height="39"></rect>
                    <rect id="image-/-main-well" fill="#E7EEF4" x="85" y="0" width="51" height="39"></rect>
                </g>
                <g id="buttons-/-glorified-copy" transform="translate(54.000000, 50.000000)" fill="#E7EEF4" stroke="#8AAAC7">
                    <rect id="Rectangle-12" x="0.5" y="0.5" width="41" height="11"></rect>
                </g>
                <g id="buttons-/-glorified" transform="translate(6.000000, 50.000000)" fill="#E7EEF4" stroke="#8AAAC7">
                    <rect id="Rectangle-12" x="0.5" y="0.5" width="41" height="11"></rect>
                </g>
                <g id="paragraph-/-main-well-/-half" transform="translate(6.000000, 36.000000)" fill="#979797">
                    <rect id="Rectangle-Copy" x="0" y="4" width="42" height="1"></rect>
                    <rect id="Rectangle" x="0" y="0" width="42" height="1"></rect>
                </g>
                <g id="title-/-page" transform="translate(6.000000, 18.000000)" fill="#535353">
                    <g id="Rectangle">
                        <rect x="0" y="0" width="120" height="9"></rect>
                    </g>
                </g>
            </g>
        </g>
    </g>
</svg>