<?xml version="1.0" encoding="UTF-8"?>
<svg width="154px" height="171px" viewBox="0 0 154 171" version="1.1" xmlns="http://www.w3.org/2000/svg" xmlns:xlink="http://www.w3.org/1999/xlink">
    <!-- Generator: Sketch 50 (54983) - http://www.bohemiancoding.com/sketch -->
    <title>add-thumbnail_alert</title>
    <desc>Created with Sketch.</desc>
    <defs></defs>
    <g id="Page-1" stroke="none" stroke-width="1" fill="none" fill-rule="evenodd">
        <g id="Alert" transform="translate(-99.000000, -99.000000)">
            <g id="add-thumbnail_alert" transform="translate(102.000000, 102.000000)">
                <g id="browser">
                    <g>
                        <rect id="Outline" stroke="#979797" stroke-width="3" fill="#FFFFFF" x="-1.5" y="-1.5" width="151" height="168"></rect>
                        <rect id="Rectangle-10" fill="#DCDCDC" x="0" y="0" width="148" height="9"></rect>
                    </g>
                </g>
                <rect id="Rectangle-6" fill="#F6C51B" x="0" y="9" width="148" height="156"></rect>
                <g id="88---Ringing-Alarm-(Solid)" transform="translate(50.000000, 65.000000)" fill="#141414" fill-rule="nonzero">
                    <path d="M3.8416,16.2344 C3.5288,15.9216 3.0224,15.9216 2.7104,16.2344 C0.9624,17.9824 0,20.3088 0,22.7872 C0,25.264 0.9624,27.5912 2.7104,29.3392 C2.8664,29.4952 3.0712,29.5736 3.276,29.5736 C3.4808,29.5736 3.6848,29.4952 3.8416,29.3392 C4.1536,29.0264 4.1536,28.5208 3.8416,28.208 C2.396,26.7616 1.6,24.8368 1.6,22.7872 C1.6,20.736 2.396,18.8112 3.8416,17.3656 C4.1536,17.0528 4.1536,16.5464 3.8416,16.2344" id="Fill-1167"></path>
                    <path d="M6.644,27.752 C6.8488,27.752 7.0536,27.6744 7.2096,27.5176 C7.5224,27.2056 7.5224,26.6992 7.2096,26.3872 C5.164,24.3408 5.164,21.012 7.2096,18.9656 C7.5224,18.6536 7.5224,18.1472 7.2096,17.8344 C6.8976,17.5216 6.3912,17.5216 6.0784,17.8344 C3.4088,20.504 3.4088,24.848 6.0784,27.5176 C6.2344,27.6744 6.4392,27.752 6.644,27.752" id="Fill-1168"></path>
                    <path d="M45.2896,16.2344 C44.9776,15.9216 44.4712,15.9216 44.1584,16.2344 C43.8464,16.5464 43.8464,17.0528 44.1584,17.3656 C45.604,18.8112 46.4,20.736 46.4,22.7872 C46.4,24.8368 45.604,26.7616 44.1584,28.208 C43.8464,28.5208 43.8464,29.0264 44.1584,29.3392 C44.3152,29.4952 44.5192,29.5736 44.724,29.5736 C44.9288,29.5736 45.1336,29.4952 45.2896,29.3392 C47.0376,27.5912 48,25.264 48,22.7872 C48,20.3088 47.0376,17.9824 45.2896,16.2344" id="Fill-1169"></path>
                    <path d="M40.7904,17.8344 C40.4776,18.1472 40.4776,18.6536 40.7904,18.9656 C42.836,21.012 42.836,24.3408 40.7904,26.3872 C40.4776,26.6992 40.4776,27.2056 40.7904,27.5176 C40.9464,27.6744 41.1512,27.752 41.356,27.752 C41.5608,27.752 41.7656,27.6744 41.9216,27.5176 C44.5912,24.848 44.5912,20.504 41.9216,17.8344 C41.6088,17.5216 41.1024,17.5216 40.7904,17.8344" id="Fill-1170"></path>
                    <path d="M37.62,23.2 L37.62,16.0048 C37.6544,10.5184 33.9648,6.8808 30.7952,5.432 C29.9016,5.024 28.96,4.7208 28,4.4896 L28,4 C28,1.7944 26.2056,0 24,0 C21.7944,0 20,1.7944 20,4 L20,4.5648 C19.1368,4.7912 18.2888,5.068 17.4832,5.4392 C13.9808,7.0536 10.432,10.9448 10.4,16 L10.4,23.2 C10.4,28.3104 8.5952,32.6952 5.036,36.2328 C4.824,36.444 4.7472,36.7552 4.8376,37.0408 C4.9272,37.3256 5.1696,37.5376 5.464,37.588 L13.0568,38.8992 C14.4896,39.1464 15.7888,39.344 17.012,39.5056 C18.408,42.2432 21.1496,44 24.1464,44 C27.1432,44 29.8856,42.2416 31.2816,39.5032 C32.4992,39.3424 33.792,39.1456 35.2168,38.8992 L42.8088,37.588 C43.104,37.5376 43.3464,37.3256 43.436,37.0408 C43.5264,36.7552 43.4496,36.444 43.2376,36.2328 C39.5096,32.528 37.62,28.1432 37.62,23.2 Z M21.6,4 C21.6,2.6768 22.6768,1.6 24,1.6 C25.3232,1.6 26.4,2.6768 26.4,4 L26.4,4.1544 C24.8056,3.9288 23.1808,3.9424 21.6,4.1944 L21.6,4 Z M15.2,16.8 L15.1952,16.8 C14.7528,16.7968 14.3976,16.4368 14.4,15.9952 C14.424,12.2504 17.4024,9.8808 19.1584,9.072 C22.2376,7.652 26.0336,7.6536 29.1336,9.0704 C29.5352,9.2544 29.712,9.728 29.528,10.1304 C29.344,10.532 28.8696,10.7096 28.468,10.5248 C25.7856,9.2984 22.4928,9.2952 19.828,10.5248 C18.4152,11.1768 16.0192,13.0632 16,16.0048 C15.9976,16.4456 15.6392,16.8 15.2,16.8 Z M29.284,39.7424 C28.0696,41.3912 26.1744,42.4 24.1464,42.4 C22.1192,42.4 20.2248,41.392 19.0088,39.744 L19.0104,39.744 C19.324,39.776 19.628,39.8016 19.932,39.828 C20.0816,39.8416 20.2352,39.8568 20.3832,39.8688 C20.4928,39.8776 20.5984,39.8824 20.7064,39.8904 C23.0312,40.06 25.1728,40.0616 27.4952,39.8952 C27.6312,39.8856 27.7648,39.8784 27.9024,39.8672 C28.0736,39.8544 28.2512,39.836 28.4248,39.8208 C28.6992,39.7968 28.972,39.7736 29.2536,39.7448 L29.284,39.7424 Z" id="Fill-1171"></path>
                </g>
            </g>
        </g>
    </g>
</svg>