<?xml version="1.0" encoding="UTF-8"?>
<svg width="154px" height="171px" viewBox="0 0 154 171" version="1.1" xmlns="http://www.w3.org/2000/svg" xmlns:xlink="http://www.w3.org/1999/xlink">
    <!-- Generator: Sketch 50 (54983) - http://www.bohemiancoding.com/sketch -->
    <title>add-thumbnail_binder</title>
    <desc>Created with Sketch.</desc>
    <defs></defs>
    <g id="Page-1" stroke="none" stroke-width="1" fill="none" fill-rule="evenodd">
        <g id="Binder" transform="translate(-99.000000, -99.000000)">
            <g id="add-thumbnail_binder" transform="translate(102.000000, 102.000000)">
                <g id="browser">
                    <g>
                        <rect id="Outline" stroke="#979797" stroke-width="3" fill="#FFFFFF" x="-1.5" y="-1.5" width="151" height="168"></rect>
                        <rect id="Rectangle-10" fill="#DCDCDC" x="0" y="0" width="148" height="9"></rect>
                    </g>
                </g>
                <g id="sidebar" transform="translate(108.000000, 51.000000)" fill="#979797">
                    <g id="sidebar-/-content">
                        <g>
                            <rect id="Rectangle-2-Copy-2" x="0" y="10" width="34" height="1"></rect>
                            <rect id="Rectangle-2-Copy" x="0" y="6" width="34" height="1"></rect>
                            <rect id="Rectangle-2" x="0" y="0" width="34" height="3"></rect>
                        </g>
                    </g>
                    <g id="sidebar-/-content" transform="translate(0.000000, 40.000000)">
                        <g>
                            <rect id="Rectangle-2-Copy-2" x="0" y="10" width="34" height="1"></rect>
                            <rect id="Rectangle-2-Copy" x="0" y="6" width="34" height="1"></rect>
                            <rect id="Rectangle-2" x="0" y="0" width="34" height="3"></rect>
                        </g>
                    </g>
                    <g id="sidebar-/-content" transform="translate(0.000000, 20.000000)">
                        <g>
                            <rect id="Rectangle-2-Copy-2" x="0" y="10" width="34" height="1"></rect>
                            <rect id="Rectangle-2-Copy" x="0" y="6" width="34" height="1"></rect>
                            <rect id="Rectangle-2" x="0" y="0" width="34" height="3"></rect>
                        </g>
                    </g>
                </g>
                <g id="table-of-contents" transform="translate(6.000000, 105.000000)">
                    <rect id="Rectangle-2" fill="#F2F2F2" x="0" y="5" width="90" height="34"></rect>
                    <rect id="Rectangle-Copy" stroke="#979797" fill="#D8D8D8" x="12.5" y="29.5" width="65" height="1"></rect>
                    <rect id="Rectangle-Copy-3" stroke="#979797" fill="#D8D8D8" x="12.5" y="22.5" width="65" height="1"></rect>
                    <rect id="Rectangle-Copy-2" stroke="#979797" fill="#D8D8D8" x="12.5" y="15.5" width="65" height="1"></rect>
                    <g id="heading-/-colored-/-green" fill="#43956F">
                        <polygon id="Rectangle-13" points="0 0 72 0 65.6886228 9 0 9"></polygon>
                    </g>
                </g>
                <g id="paragraph-/-main-well-/-full" transform="translate(6.000000, 75.000000)" fill="#979797">
                    <g id="paragraph">
                        <rect id="Rectangle-Copy-5" x="0" y="20" width="90" height="1"></rect>
                        <rect id="Rectangle-Copy-4" x="0" y="16" width="90" height="1"></rect>
                        <rect id="Rectangle-Copy-3" x="0" y="12" width="90" height="1"></rect>
                        <rect id="Rectangle-Copy-2" x="0" y="8" width="90" height="1"></rect>
                        <rect id="Rectangle-Copy" x="0" y="4" width="90" height="1"></rect>
                        <rect id="Rectangle" x="0" y="0" width="90" height="1"></rect>
                    </g>
                </g>
                <g id="h2-/-main-well-/-full" transform="translate(6.000000, 69.000000)" fill="#979797">
                    <g id="h2">
                        <rect id="Rectangle-2-Copy-2" x="0" y="0" width="54" height="3"></rect>
                    </g>
                </g>
                <g id="structured-data-list" transform="translate(6.000000, 51.000000)">
                    <g>
                        <rect id="Rectangle-Copy-6" fill="#DCDCDC" x="31" y="8" width="28" height="1"></rect>
                        <rect id="Rectangle-Copy-5" fill="#DCDCDC" x="31" y="4" width="28" height="1"></rect>
                        <rect id="Rectangle-Copy-4" fill="#DCDCDC" x="31" y="0" width="28" height="1"></rect>
                        <rect id="Rectangle-Copy-2" fill="#979797" x="0" y="8" width="28" height="1"></rect>
                        <rect id="Rectangle-Copy" fill="#979797" x="0" y="4" width="28" height="1"></rect>
                        <rect id="Rectangle" fill="#979797" x="0" y="0" width="28" height="1"></rect>
                    </g>
                </g>
                <g id="hero-/-binder" transform="translate(0.000000, 9.000000)">
                    <rect id="Rectangle-10-Copy" fill="#14558F" x="0" y="0" width="148" height="33"></rect>
                    <rect id="image-/-main-well" fill="#979797" x="102" y="0" width="46" height="33"></rect>
                </g>
            </g>
        </g>
    </g>
</svg>